<?xml version="1.0" encoding="utf-8"?>
<!-- Generator: Adobe Illustrator 19.1.0, SVG Export Plug-In . SVG Version: 6.00 Build 0)  -->
<svg version="1.1" id="Layer_1" xmlns="http://www.w3.org/2000/svg" xmlns:xlink="http://www.w3.org/1999/xlink" x="0px" y="0px"
	 width="72px" height="72px" viewBox="0 -10.9 72 72" style="enable-background:new 0 -10.9 72 72;" xml:space="preserve">
<metadata><?xpacket begin="﻿" id="W5M0MpCehiHzreSzNTczkc9d"?>
<x:xmpmeta xmlns:x="adobe:ns:meta/" x:xmptk="Adobe XMP Core 5.6-c067 79.157747, 2015/03/30-23:40:42        ">
   <rdf:RDF xmlns:rdf="http://www.w3.org/1999/02/22-rdf-syntax-ns#">
      <rdf:Description rdf:about=""/>
   </rdf:RDF>
</x:xmpmeta>
                                                                                                    
                                                                                                    
                                                                                                    
                                                                                                    
                                                                                                    
                                                                                                    
                                                                                                    
                                                                                                    
                                                                                                    
                                                                                                    
                                                                                                    
                                                                                                    
                                                                                                    
                                                                                                    
                                                                                                    
                                                                                                    
                                                                                                    
                                                                                                    
                                                                                                    
                                                                                                    
                           
<?xpacket end="w"?></metadata>
<style type="text/css">
	.st0{fill:#00A551;}
	.st1{fill:#FFDD00;}
	.st2{fill:#004A8E;}
	.st3{fill:#FFFFFF;}
</style>
<g>
	<polygon class="st0" points="0,30.7 0,61.1 72,61.1 72,30.7 36,53.7 	"/>
	<polygon class="st0" points="0,19.5 36,-3.5 72,19.5 72,-10.9 0,-10.9 	"/>
	<path class="st1" d="M0,19.5v11.3l36,23l36-23V19.5l-36-23L0,19.5z M54.9,25.1c0,0.9-0.1,1.8-0.2,2.6c0,0,0,0,0,0c0,0,0,0.1,0,0.1
		c0,0.1,0,0.3-0.1,0.4c0,0.1,0,0.3-0.1,0.4c0,0.1-0.1,0.3-0.1,0.4c0,0.2-0.1,0.3-0.1,0.5c0,0.1-0.1,0.2-0.1,0.3
		c-0.1,0.2-0.1,0.5-0.2,0.7c0,0,0,0.1,0,0.1c0,0,0,0,0,0h0C51.6,38.4,44.5,44,36,44c-10.4,0-18.9-8.5-18.9-18.9
		c0-1.6,0.2-3.2,0.6-4.8l0,0c0.1-0.3,0.1-0.5,0.2-0.8c0-0.1,0.1-0.2,0.1-0.3c0.1-0.2,0.1-0.3,0.2-0.5c0-0.1,0.1-0.3,0.1-0.4
		c0.1-0.1,0.1-0.3,0.2-0.4c0.1-0.1,0.1-0.3,0.2-0.4c0,0,0-0.1,0.1-0.1c0,0,0,0,0,0C21.6,10.8,28.3,6.2,36,6.2
		C46.4,6.2,54.9,14.7,54.9,25.1z"/>
	<path class="st2" d="M54.1,30.6c0,0,0,0.1,0,0.1C54.1,30.7,54.1,30.7,54.1,30.6z"/>
	<path class="st2" d="M54.6,28.7c0,0.1-0.1,0.3-0.1,0.4C54.5,29,54.5,28.8,54.6,28.7z"/>
	<path class="st2" d="M54.7,27.8c0,0.1,0,0.3-0.1,0.4C54.7,28.1,54.7,28,54.7,27.8z"/>
	<path class="st2" d="M54.4,29.6c0,0.1-0.1,0.2-0.1,0.3C54.3,29.8,54.3,29.7,54.4,29.6z"/>
	<path class="st2" d="M18.5,18c0.1-0.1,0.1-0.3,0.2-0.4C18.6,17.7,18.5,17.8,18.5,18z"/>
	<path class="st2" d="M17.9,19.6c0-0.1,0.1-0.2,0.1-0.3C18,19.3,18,19.4,17.9,19.6z"/>
	<path class="st2" d="M18.2,18.8c0-0.1,0.1-0.3,0.1-0.4C18.3,18.5,18.2,18.6,18.2,18.8z"/>
	<path class="st2" d="M17.7,20.3c-0.4,1.5-0.6,3.1-0.6,4.8C17.1,35.5,25.6,44,36,44c8.5,0,15.6-5.6,18-13.3
		c-7.6-6.9-17.8-11-28.8-11C22.6,19.7,20.1,19.9,17.7,20.3z M20.3,31.8l-0.4-0.3l-0.4,0.3l0.1-0.5l-0.4-0.3l0.5,0l0.2-0.5l0.2,0.5
		l0.5,0l-0.4,0.3L20.3,31.8z M21.1,22.3l-0.5-0.3l-0.5,0.3l0.2-0.6l-0.5-0.4l0.6,0l0.2-0.5l0.2,0.5l0.6,0l-0.4,0.4L21.1,22.3z
		 M22.7,30.2l-0.5-0.3l-0.5,0.3l0.2-0.6l-0.4-0.4l0.6,0l0.2-0.5l0.2,0.5l0.6,0l-0.4,0.4L22.7,30.2z M24.5,28.7l-0.2-0.1l-0.2,0.1
		l0.1-0.3l-0.2-0.2l0.3,0l0.1-0.2l0.1,0.2l0.3,0l-0.2,0.2L24.5,28.7z M36.2,40L36,39.9L35.8,40l0-0.2l-0.1-0.1l0.2,0l0.1-0.2
		l0.1,0.2l0.2,0l-0.1,0.1L36.2,40z M45.8,39.8l-0.3-0.2l-0.3,0.2l0.1-0.4l-0.3-0.2l0.4,0l0.1-0.4l0.1,0.4l0.4,0l-0.3,0.2L45.8,39.8z
		 M51.5,31.6l0.1-0.4l0.1,0.4l0.4,0l-0.3,0.2l0.1,0.4L51.6,32l-0.3,0.2l0.1-0.4l-0.3-0.2L51.5,31.6z M50.6,33.3l-0.4,0.3l0.1,0.5
		L50,33.7L49.6,34l0.1-0.5l-0.4-0.3l0.5,0l0.2-0.5l0.2,0.5L50.6,33.3z M49,31.3l0.2-0.5l0.2,0.5l0.6,0l-0.5,0.4l0.2,0.6l-0.5-0.3
		l-0.5,0.3l0.2-0.6l-0.4-0.4L49,31.3z M48.8,35l0.2-0.5l0.2,0.5l0.5,0l-0.4,0.3l0.1,0.5l-0.4-0.3l-0.4,0.3l0.1-0.5L48.3,35L48.8,35z
		 M47.2,35.8l0.1-0.4l0.1,0.4l0.4,0l-0.3,0.2l0.1,0.4l-0.3-0.2L47,36.5l0.1-0.4l-0.3-0.2L47.2,35.8z M45.3,35.5l0.1-0.4l0.1,0.4
		l0.4,0l-0.3,0.2l0.1,0.4l-0.3-0.2l-0.3,0.2l0.1-0.4l-0.3-0.2L45.3,35.5z M45.3,37.2l0.2-0.5l0.2,0.5l0.5,0l-0.4,0.3l0.1,0.5
		l-0.4-0.3L45.1,38l0.1-0.5l-0.4-0.3L45.3,37.2z M43.2,36l0.1-0.4l0.1,0.4l0.4,0l-0.3,0.2l0.1,0.4l-0.3-0.2L43,36.6l0.1-0.4L42.8,36
		L43.2,36z M41.8,37.8l0.5,0l-0.4,0.3l0.1,0.5l-0.4-0.3l-0.4,0.3l0.1-0.5L41,37.9l0.5,0l0.2-0.5L41.8,37.8z M41,24l0.1-0.3l0.1,0.4
		l0.4,0l-0.3,0.2l0.1,0.4l-0.3-0.2l-0.3,0.2l0.1-0.4L40.6,24L41,24z M40.4,35.5l0.1-0.4l0.1,0.4l0.4,0l-0.3,0.2l0.1,0.4l-0.3-0.2
		l-0.3,0.2l0.1-0.4L40,35.5L40.4,35.5z M37.7,29.7l0.2-0.5l0.2,0.5l0.5,0L38.1,30l0.1,0.5l-0.4-0.3l-0.4,0.3l0.1-0.5l-0.4-0.3
		L37.7,29.7z M36.5,34.3L36,34l-0.5,0.3l0.2-0.6l-0.4-0.4l0.6,0l0.2-0.5l0.2,0.5l0.6,0l-0.4,0.4L36.5,34.3z M35.8,28.1l0.2-0.5
		l0.2,0.5l0.5,0l-0.4,0.3l0.1,0.5L36,28.6l-0.4,0.3l0.1-0.5l-0.4-0.3L35.8,28.1z M35.1,30.7l0.1-0.2l0.1,0.2l0.3,0l-0.2,0.2l0.1,0.3
		L35.2,31L35,31.1l0.1-0.3l-0.2-0.2L35.1,30.7z M34,29.6l0.1-0.4l0.1,0.4l0.4,0l-0.3,0.2l0.1,0.4L34.1,30l-0.3,0.2l0.1-0.4l-0.3-0.2
		L34,29.6z M28.7,25.2l0.2-0.5l0.2,0.5l0.5,0l-0.4,0.3l0.1,0.5l-0.4-0.3L28.5,26l0.1-0.5l-0.4-0.3L28.7,25.2z M28.2,35l0.2-0.5
		l0.2,0.5l0.6,0l-0.4,0.4l0.2,0.6l-0.5-0.3L28,35.9l0.2-0.6L27.7,35L28.2,35z M26.1,31l0.2-0.5l0.2,0.5l0.5,0l-0.4,0.3l0.1,0.5
		l-0.4-0.3l-0.4,0.3l0.1-0.5L25.6,31L26.1,31z M25.7,33l0.1-0.4l0.1,0.4l0.4,0L26,33.3l0.1,0.4l-0.3-0.2l-0.3,0.2l0.1-0.4L25.3,33
		L25.7,33z"/>
	<path class="st2" d="M18.7,17.5c2.1-0.3,4.3-0.5,6.5-0.5c5.6,0,11,1,16,2.9l0.1-0.5L40.9,19l0.6,0l0.2-0.5l0.2,0.5l0.6,0L42,19.4
		l0.1,0.6l-0.5-0.3l-0.4,0.3c5,1.8,9.5,4.5,13.5,7.9c0.1-0.9,0.2-1.7,0.2-2.6c0-10.4-8.5-18.9-18.9-18.9
		C28.3,6.2,21.6,10.8,18.7,17.5z"/>
	<path class="st3" d="M24.8,17.9c0,0-0.1-0.1-0.2-0.1c0,0-0.1,0-0.3,0l-0.2,0l0,1.2l0.3,0c0.1,0,0.2,0,0.2,0c0.1,0,0.1,0,0.1-0.1
		c0,0,0.1-0.1,0.1-0.2c0-0.1,0-0.2,0-0.3c0-0.1,0-0.2,0-0.3C24.9,18,24.8,18,24.8,17.9z"/>
	<path class="st3" d="M38.8,19.9c0,0-0.1,0-0.2-0.1l-0.3-0.1l-0.1,0.4l0.2,0.1c0.2,0,0.3,0.1,0.3,0.1c0,0,0.1,0,0.1,0
		c0,0,0.1-0.1,0.1-0.1c0-0.1,0-0.1,0-0.1C38.9,20,38.9,19.9,38.8,19.9z"/>
	<path class="st3" d="M36.5,19.3c0,0-0.1,0-0.2-0.1l-0.2,0L36,19.6l0.2,0c0.1,0,0.2,0,0.3,0c0,0,0.1,0,0.1-0.1c0,0,0.1-0.1,0.1-0.1
		c0-0.1,0-0.1,0-0.2C36.6,19.3,36.6,19.3,36.5,19.3z"/>
	<path class="st3" d="M52.7,28.7c0.1,0.1,0.2,0.1,0.4,0.1c0.1,0,0.3-0.1,0.4-0.3c0.1-0.2,0.2-0.3,0.2-0.4c0-0.1-0.1-0.2-0.2-0.3
		c-0.1-0.1-0.2-0.1-0.4-0.1c-0.1,0-0.3,0.1-0.4,0.3c-0.1,0.2-0.2,0.3-0.2,0.4C52.5,28.5,52.6,28.6,52.7,28.7z"/>
	<path class="st3" d="M41,20.7c-0.1-0.1-0.3,0-0.4,0c-0.1,0.1-0.2,0.2-0.3,0.4c-0.1,0.2-0.1,0.3,0,0.5c0,0.1,0.1,0.2,0.3,0.3
		c0.1,0,0.3,0,0.4,0c0.1-0.1,0.2-0.2,0.3-0.4c0.1-0.2,0.1-0.3,0-0.5C41.3,20.8,41.2,20.7,41,20.7z"/>
	<path class="st3" d="M20,18.3c-0.1-0.1-0.2-0.1-0.4-0.1c-0.1,0-0.3,0.1-0.3,0.2c-0.1,0.1-0.1,0.3-0.1,0.5c0,0.2,0.1,0.3,0.2,0.4
		c0.1,0.1,0.2,0.1,0.4,0.1c0.1,0,0.2-0.1,0.3-0.2c0.1-0.1,0.1-0.3,0.1-0.5C20.2,18.5,20.1,18.4,20,18.3z"/>
	<path class="st3" d="M41.2,19.9L41.2,19.9c-5-1.9-10.3-2.9-16-2.9c-2.2,0-4.4,0.2-6.5,0.5c0,0,0,0,0,0c0,0,0,0.1-0.1,0.1
		c-0.1,0.1-0.1,0.3-0.2,0.4c-0.1,0.1-0.1,0.3-0.2,0.4c0,0.1-0.1,0.3-0.1,0.4c-0.1,0.2-0.1,0.3-0.2,0.5c0,0.1-0.1,0.2-0.1,0.3
		c-0.1,0.3-0.2,0.5-0.2,0.8l0,0c2.4-0.4,4.9-0.6,7.5-0.6c11.1,0,21.2,4.2,28.8,11h0c0,0,0,0,0,0c0,0,0-0.1,0-0.1
		c0.1-0.2,0.1-0.5,0.2-0.7c0-0.1,0.1-0.2,0.1-0.3c0-0.2,0.1-0.3,0.1-0.5c0-0.1,0.1-0.3,0.1-0.4c0-0.1,0.1-0.3,0.1-0.4
		c0-0.1,0-0.3,0.1-0.4c0,0,0-0.1,0-0.1c0,0,0,0,0,0C50.7,24.4,46.2,21.7,41.2,19.9L41.2,19.9z M20.4,19.4c-0.1,0.2-0.3,0.3-0.6,0.3
		c-0.3,0-0.5,0-0.6-0.2c-0.2-0.1-0.3-0.3-0.3-0.6c0-0.2,0-0.3,0-0.5c0-0.1,0.1-0.2,0.1-0.3c0.1-0.1,0.1-0.1,0.2-0.2
		c0.1-0.1,0.2-0.1,0.4-0.1c0.3,0,0.5,0,0.6,0.2c0.2,0.1,0.3,0.4,0.3,0.6C20.6,19,20.6,19.2,20.4,19.4z M22.7,19.4L22.4,19
		c-0.1-0.1-0.2-0.2-0.2-0.2c0,0-0.1-0.1-0.1-0.1c0,0-0.1,0-0.2,0l-0.1,0l0.1,0.7l-0.4,0l-0.1-1.7l0.7-0.1c0.2,0,0.3,0,0.4,0
		c0.1,0,0.2,0.1,0.2,0.2c0.1,0.1,0.1,0.2,0.1,0.3c0,0.1,0,0.2-0.1,0.3c-0.1,0.1-0.2,0.2-0.3,0.2c0.1,0,0.1,0.1,0.2,0.1
		c0.1,0,0.1,0.1,0.2,0.3l0.2,0.3L22.7,19.4z M25.3,18.8c0,0.1-0.1,0.2-0.2,0.3c-0.1,0.1-0.1,0.1-0.2,0.1c-0.1,0-0.2,0-0.3,0l-0.7,0
		l-0.1-1.7l0.6,0c0.1,0,0.3,0,0.3,0c0.1,0,0.2,0.1,0.3,0.1c0.1,0.1,0.1,0.2,0.2,0.3c0,0.1,0.1,0.2,0.1,0.4
		C25.3,18.5,25.3,18.7,25.3,18.8z M27.5,17.9l-0.9,0l0,0.4l0.9,0l0,0.3l-0.9,0l0,0.5l1,0l0,0.3l-1.3-0.1l0.1-1.7l1.3,0.1L27.5,17.9z
		 M30.1,19.5l-0.3,0l0.1-1.4l-0.5,1.3l-0.3,0l-0.2-1.4l-0.1,1.4l-0.3,0l0.2-1.7l0.5,0l0.2,1.2l0.4-1.2l0.5,0L30.1,19.5z M33.6,18.8
		l-0.8-0.1L32.7,19l0.8,0.1l0,0.3l-0.8-0.1l-0.1,0.4l0.9,0.1l0,0.3l-1.2-0.2l0.3-1.5l1.1,0.2L33.6,18.8z M37,19.6
		c0,0.1-0.1,0.2-0.1,0.2c-0.1,0.1-0.1,0.1-0.2,0.1c-0.1,0-0.1,0-0.2,0c-0.1,0-0.2,0-0.4-0.1l-0.2-0.1l-0.2,0.6l-0.3-0.1l0.4-1.7
		l0.5,0.1c0.2,0.1,0.3,0.1,0.4,0.1c0.1,0.1,0.2,0.1,0.2,0.2C37,19.4,37,19.5,37,19.6z M39.3,20.3c0,0.1-0.1,0.2-0.2,0.3
		c-0.1,0.1-0.2,0.1-0.4,0.1c0.1,0.1,0.1,0.1,0.1,0.2c0,0.1,0.1,0.2,0.1,0.3l0.1,0.4l-0.4-0.1l-0.1-0.4c0-0.2-0.1-0.3-0.1-0.3
		c0,0,0-0.1-0.1-0.1c0,0-0.1,0-0.2-0.1l-0.1,0l-0.2,0.7L37.6,21l0.5-1.7l0.7,0.2c0.2,0.1,0.3,0.1,0.4,0.2c0.1,0.1,0.1,0.1,0.1,0.2
		C39.3,20.1,39.3,20.2,39.3,20.3z M52.4,27.7c0.1-0.1,0.2-0.2,0.3-0.3c0.1,0,0.2-0.1,0.3-0.1c0.1,0,0.2,0,0.3,0
		c0.1,0,0.2,0.1,0.3,0.2c0.2,0.2,0.3,0.3,0.3,0.6c0,0.2-0.1,0.4-0.2,0.7c-0.2,0.2-0.4,0.3-0.6,0.4c-0.2,0-0.4,0-0.6-0.2
		c-0.2-0.2-0.3-0.4-0.3-0.6C52.2,28.1,52.2,27.9,52.4,27.7z M50.4,26.6l0.3,0.2c0,0.1-0.1,0.2,0,0.3c0,0.1,0.1,0.2,0.2,0.2
		c0.1,0.1,0.2,0.1,0.2,0.1c0.1,0,0.1,0,0.2-0.1c0,0,0-0.1,0-0.1c0,0,0-0.1-0.1-0.1c0,0-0.1-0.1-0.2-0.2c-0.1-0.1-0.2-0.3-0.2-0.4
		c0-0.1,0-0.3,0.1-0.4c0.1-0.1,0.1-0.1,0.2-0.2c0.1,0,0.2,0,0.3,0c0.1,0,0.2,0.1,0.3,0.2c0.2,0.1,0.3,0.3,0.3,0.4
		c0,0.1,0,0.3-0.1,0.4l-0.3-0.2c0-0.1,0.1-0.2,0-0.2c0-0.1-0.1-0.1-0.1-0.2c-0.1-0.1-0.2-0.1-0.2-0.1c0,0-0.1,0-0.1,0.1
		c0,0,0,0.1,0,0.1c0,0.1,0.1,0.2,0.2,0.3c0.1,0.1,0.2,0.2,0.2,0.3c0,0.1,0.1,0.2,0.1,0.3c0,0.1,0,0.2-0.1,0.3
		c-0.1,0.1-0.1,0.1-0.2,0.2c-0.1,0-0.2,0-0.3,0c-0.1,0-0.2-0.1-0.3-0.2c-0.2-0.1-0.3-0.3-0.3-0.4C50.3,26.9,50.3,26.8,50.4,26.6z
		 M48.5,25.4l0.3,0.2c0,0.1-0.1,0.2,0,0.3c0,0.1,0.1,0.1,0.2,0.2c0.1,0.1,0.2,0.1,0.3,0.1c0.1,0,0.1,0,0.2-0.1c0,0,0-0.1,0-0.1
		c0,0,0-0.1-0.1-0.1c0,0-0.1-0.1-0.2-0.2c-0.1-0.1-0.2-0.3-0.2-0.4c0-0.1,0-0.3,0.1-0.4c0-0.1,0.1-0.1,0.2-0.2c0.1,0,0.2,0,0.3,0
		c0.1,0,0.2,0.1,0.3,0.1c0.2,0.1,0.3,0.2,0.3,0.4c0,0.1,0,0.3-0.1,0.4l-0.3-0.2c0-0.1,0-0.2,0-0.2c0-0.1-0.1-0.1-0.2-0.2
		c-0.1-0.1-0.2-0.1-0.2-0.1c0,0-0.1,0-0.1,0.1c0,0,0,0.1,0,0.1c0,0.1,0.1,0.1,0.2,0.3c0.1,0.1,0.2,0.2,0.2,0.3
		c0,0.1,0.1,0.2,0.1,0.3c0,0.1,0,0.2-0.1,0.3c-0.1,0.1-0.1,0.1-0.2,0.2c-0.1,0-0.2,0.1-0.3,0c-0.1,0-0.2-0.1-0.4-0.2
		c-0.2-0.1-0.3-0.3-0.3-0.4C48.4,25.7,48.5,25.5,48.5,25.4z M47.3,23.3l1.1,0.6l-0.1,0.3l-0.8-0.5L47.2,24l0.8,0.4l-0.1,0.3
		l-0.8-0.4l-0.2,0.4l0.8,0.5l-0.1,0.3l-1.1-0.7L47.3,23.3z M45.1,22.1l0.7,0.3c0.2,0.1,0.3,0.2,0.3,0.2c0.1,0.1,0.1,0.1,0.1,0.2
		c0,0.1,0,0.2-0.1,0.3c-0.1,0.1-0.1,0.2-0.2,0.2c-0.1,0-0.2,0-0.4,0c0,0.1,0.1,0.1,0.1,0.2c0,0.1,0,0.2,0,0.3l0,0.4l-0.4-0.2
		l-0.1-0.5c0-0.2,0-0.3,0-0.3c0,0,0-0.1-0.1-0.1c0,0-0.1-0.1-0.1-0.1l-0.1,0l-0.3,0.6l-0.3-0.2L45.1,22.1z M42.4,21.8
		c0.1-0.2,0.2-0.3,0.3-0.4c0.1-0.1,0.3-0.2,0.4-0.2c0.1,0,0.3,0,0.4,0.1c0.2,0.1,0.3,0.2,0.4,0.3C44,21.8,44,22,44,22.1L43.7,22
		c0-0.1,0-0.2,0-0.2c0-0.1-0.1-0.1-0.2-0.2c-0.1-0.1-0.3-0.1-0.4,0c-0.1,0.1-0.2,0.2-0.3,0.3c-0.1,0.2-0.1,0.3-0.1,0.5
		c0,0.1,0.1,0.2,0.3,0.3c0.1,0,0.1,0,0.2,0.1c0.1,0,0.2,0,0.2,0l0.1-0.2l-0.4-0.2l0.1-0.3l0.7,0.3l-0.3,0.6c-0.1,0-0.2,0-0.4,0
		c-0.1,0-0.3,0-0.4-0.1c-0.2-0.1-0.3-0.2-0.4-0.3c-0.1-0.1-0.1-0.3-0.1-0.4C42.3,22.1,42.3,22,42.4,21.8z M41.6,21.5
		c-0.1,0.3-0.2,0.4-0.4,0.5c-0.2,0.1-0.4,0.1-0.7,0c-0.2-0.1-0.4-0.2-0.5-0.4c-0.1-0.2-0.1-0.4,0-0.7c0.1-0.2,0.1-0.3,0.2-0.4
		c0.1-0.1,0.1-0.1,0.2-0.2c0.1,0,0.2-0.1,0.3-0.1c0.1,0,0.2,0,0.4,0.1c0.2,0.1,0.4,0.2,0.5,0.4C41.7,21,41.7,21.2,41.6,21.5z"/>
	<path class="st3" d="M45.6,23.2c0,0,0.1,0,0.1,0c0,0,0.1-0.1,0.1-0.1c0-0.1,0-0.1,0-0.1c0,0,0-0.1-0.1-0.1c0,0-0.1-0.1-0.2-0.1
		l-0.2-0.1l-0.2,0.4l0.2,0.1C45.5,23.1,45.6,23.2,45.6,23.2z"/>
	<path class="st3" d="M22.5,18.2c0-0.1,0-0.1-0.1-0.1c0,0-0.1-0.1-0.1-0.1c0,0-0.1,0-0.3,0l-0.3,0l0,0.4l0.3,0c0.2,0,0.3,0,0.3,0
		c0,0,0.1,0,0.1-0.1C22.5,18.3,22.5,18.2,22.5,18.2z"/>
	<polygon class="st3" points="41.2,19.9 41.6,19.6 42.1,20 42,19.4 42.4,19.1 41.8,19 41.7,18.5 41.4,19 40.9,19 41.3,19.4 
		41.2,19.9 41.2,19.9 	"/>
	<polygon class="st3" points="40.8,24.6 41.1,24.4 41.4,24.7 41.3,24.3 41.7,24.1 41.3,24 41.1,23.7 41,24 40.6,24 40.9,24.3 	"/>
	<polygon class="st3" points="51.3,32.2 51.6,32 52,32.2 51.9,31.8 52.1,31.6 51.8,31.6 51.6,31.2 51.5,31.6 51.1,31.6 51.4,31.8 	
		"/>
	<polygon class="st3" points="48.8,32.2 49.2,31.9 49.7,32.2 49.6,31.7 50,31.3 49.4,31.3 49.2,30.7 49,31.3 48.5,31.3 48.9,31.7 	
		"/>
	<polygon class="st3" points="49.8,33.2 49.4,33.3 49.7,33.6 49.6,34 50,33.7 50.4,34 50.3,33.6 50.6,33.3 50.2,33.2 50,32.8 	"/>
	<polygon class="st3" points="48.5,35.8 48.9,35.5 49.3,35.8 49.2,35.3 49.6,35 49.1,35 48.9,34.5 48.8,35 48.3,35 48.7,35.3 	"/>
	<polygon class="st3" points="47,36.5 47.3,36.3 47.7,36.5 47.6,36.1 47.9,35.9 47.5,35.8 47.3,35.5 47.2,35.8 46.8,35.9 47.1,36.1 
			"/>
	<polygon class="st3" points="45.1,36.1 45.4,35.9 45.8,36.1 45.7,35.8 46,35.5 45.6,35.5 45.4,35.2 45.3,35.5 44.9,35.5 45.2,35.8 
			"/>
	<polygon class="st3" points="45.6,39.1 45.4,38.8 45.3,39.1 44.9,39.2 45.2,39.4 45.1,39.8 45.4,39.6 45.8,39.8 45.7,39.4 46,39.2 
			"/>
	<polygon class="st3" points="43,36.6 43.3,36.4 43.6,36.6 43.5,36.3 43.8,36 43.5,36 43.3,35.6 43.2,36 42.8,36 43.1,36.3 	"/>
	<polygon class="st3" points="45.1,38 45.4,37.7 45.8,38 45.7,37.5 46.1,37.2 45.6,37.2 45.4,36.8 45.3,37.2 44.8,37.2 45.2,37.5 	
		"/>
	<polygon class="st3" points="41,37.9 41.4,38.1 41.3,38.6 41.7,38.3 42.1,38.6 41.9,38.1 42.3,37.9 41.8,37.8 41.7,37.4 41.5,37.8 
			"/>
	<polygon class="st3" points="40.2,36.1 40.5,35.9 40.8,36.1 40.7,35.8 41,35.5 40.6,35.5 40.5,35.2 40.4,35.5 40,35.5 40.3,35.8 	
		"/>
	<polygon class="st3" points="36.1,39.7 36,39.5 35.9,39.7 35.7,39.7 35.9,39.8 35.8,40 36,39.9 36.2,40 36.1,39.8 36.3,39.7 	"/>
	<polygon class="st3" points="36.2,33.4 36,32.9 35.8,33.4 35.2,33.4 35.7,33.8 35.5,34.3 36,34 36.5,34.3 36.3,33.8 36.8,33.4 	"/>
	<polygon class="st3" points="37.5,30.4 37.9,30.2 38.3,30.4 38.1,30 38.5,29.7 38,29.7 37.9,29.2 37.7,29.7 37.2,29.7 37.6,30 	"/>
	<polygon class="st3" points="35,31.1 35.2,31 35.5,31.1 35.4,30.9 35.6,30.7 35.3,30.7 35.2,30.4 35.1,30.7 34.9,30.7 35.1,30.9 	
		"/>
	<polygon class="st3" points="35.6,28.9 36,28.6 36.4,28.9 36.3,28.4 36.6,28.1 36.2,28.1 36,27.7 35.8,28.1 35.4,28.1 35.7,28.4 	
		"/>
	<polygon class="st3" points="33.8,30.2 34.1,30 34.4,30.2 34.3,29.8 34.6,29.6 34.2,29.6 34.1,29.2 34,29.6 33.6,29.6 33.9,29.8 	
		"/>
	<polygon class="st3" points="28,35.9 28.4,35.6 28.9,35.9 28.8,35.3 29.2,35 28.6,35 28.4,34.4 28.2,35 27.7,35 28.1,35.3 	"/>
	<polygon class="st3" points="25.5,33.6 25.8,33.4 26.1,33.6 26,33.3 26.3,33 25.9,33 25.8,32.7 25.7,33 25.3,33 25.6,33.3 	"/>
	<polygon class="st3" points="25.8,31.7 26.2,31.5 26.6,31.7 26.5,31.3 26.9,31 26.4,31 26.2,30.5 26.1,31 25.6,31 26,31.3 	"/>
	<polygon class="st3" points="20.1,31.1 19.9,30.6 19.8,31.1 19.3,31.1 19.7,31.4 19.5,31.8 19.9,31.6 20.3,31.8 20.2,31.4 
		20.6,31.1 	"/>
	<polygon class="st3" points="22.5,29.3 22.3,28.7 22.1,29.3 21.5,29.3 21.9,29.6 21.8,30.2 22.3,29.9 22.7,30.2 22.6,29.6 23,29.3 
			"/>
	<polygon class="st3" points="24.4,28.3 24.3,28 24.2,28.3 23.9,28.3 24.1,28.5 24.1,28.7 24.3,28.6 24.5,28.7 24.5,28.5 24.7,28.3 
			"/>
	<polygon class="st3" points="28.5,26 28.9,25.7 29.3,26 29.1,25.5 29.5,25.2 29,25.2 28.9,24.8 28.7,25.2 28.2,25.2 28.6,25.5 	"/>
	<polygon class="st3" points="20.8,21.3 20.6,20.8 20.4,21.3 19.8,21.4 20.3,21.7 20.1,22.3 20.6,21.9 21.1,22.3 20.9,21.7 
		21.3,21.4 	"/>
	<path class="st0" d="M20.3,18c-0.2-0.1-0.4-0.2-0.6-0.2c-0.1,0-0.3,0.1-0.4,0.1c-0.1,0-0.1,0.1-0.2,0.2c-0.1,0.1-0.1,0.2-0.1,0.3
		c0,0.1-0.1,0.3,0,0.5c0,0.3,0.1,0.5,0.3,0.6c0.2,0.1,0.4,0.2,0.6,0.2c0.3,0,0.4-0.1,0.6-0.3c0.1-0.2,0.2-0.4,0.2-0.7
		C20.5,18.4,20.4,18.2,20.3,18z M20.1,19.2c-0.1,0.1-0.2,0.2-0.3,0.2c-0.1,0-0.3,0-0.4-0.1c-0.1-0.1-0.2-0.2-0.2-0.4
		c0-0.2,0-0.4,0.1-0.5c0.1-0.1,0.2-0.2,0.3-0.2c0.1,0,0.3,0,0.4,0.1c0.1,0.1,0.2,0.2,0.2,0.4C20.2,18.9,20.2,19.1,20.1,19.2z"/>
	<path class="st0" d="M22.6,18.8c-0.1,0-0.1-0.1-0.2-0.1c0.2,0,0.3-0.1,0.3-0.2c0.1-0.1,0.1-0.2,0.1-0.3c0-0.1,0-0.2-0.1-0.3
		c-0.1-0.1-0.1-0.1-0.2-0.2c-0.1,0-0.2,0-0.4,0l-0.7,0.1l0.1,1.7l0.4,0l-0.1-0.7l0.1,0c0.1,0,0.1,0,0.2,0c0,0,0.1,0,0.1,0.1
		c0,0,0.1,0.1,0.2,0.2l0.3,0.4l0.4,0L22.9,19C22.8,18.9,22.7,18.8,22.6,18.8z M22.4,18.4c0,0-0.1,0-0.3,0l-0.3,0l0-0.4l0.3,0
		c0.1,0,0.2,0,0.3,0c0.1,0,0.1,0,0.1,0.1c0,0,0.1,0.1,0.1,0.1C22.5,18.2,22.5,18.3,22.4,18.4C22.5,18.3,22.4,18.4,22.4,18.4z"/>
	<path class="st0" d="M25,17.7c-0.1-0.1-0.2-0.1-0.3-0.1c-0.1,0-0.2,0-0.3,0l-0.6,0l0.1,1.7l0.7,0c0.1,0,0.2,0,0.3,0
		c0.1,0,0.2-0.1,0.2-0.1c0.1-0.1,0.1-0.2,0.2-0.3c0-0.1,0-0.2,0-0.4c0-0.2,0-0.3-0.1-0.4C25.2,17.9,25.1,17.8,25,17.7z M24.9,18.7
		c0,0.1,0,0.1-0.1,0.2c0,0-0.1,0.1-0.1,0.1c0,0-0.1,0-0.2,0l-0.3,0l0-1.2l0.2,0c0.1,0,0.2,0,0.3,0c0.1,0,0.1,0,0.2,0.1
		c0,0,0.1,0.1,0.1,0.2c0,0.1,0,0.2,0,0.3C24.9,18.5,24.9,18.6,24.9,18.7z"/>
	<polygon class="st0" points="26.2,19.3 27.5,19.3 27.5,19 26.6,19 26.6,18.5 27.5,18.6 27.5,18.3 26.6,18.2 26.6,17.9 27.5,17.9 
		27.6,17.6 26.3,17.5 	"/>
	<polygon class="st0" points="29.3,18.9 29.1,17.7 28.6,17.7 28.4,19.4 28.7,19.4 28.8,18.1 29.1,19.4 29.4,19.5 29.9,18.1 
		29.7,19.5 30.1,19.5 30.2,17.8 29.7,17.8 	"/>
	<polygon class="st0" points="32.2,19.8 33.4,20 33.4,19.8 32.6,19.6 32.7,19.2 33.4,19.3 33.5,19.1 32.7,19 32.8,18.6 33.6,18.8 
		33.6,18.5 32.5,18.3 	"/>
	<path class="st0" d="M36.8,19c-0.1,0-0.2-0.1-0.4-0.1l-0.5-0.1l-0.4,1.7l0.3,0.1l0.2-0.6l0.2,0.1c0.2,0,0.3,0.1,0.4,0.1
		c0.1,0,0.1,0,0.2,0c0.1,0,0.1-0.1,0.2-0.1c0.1-0.1,0.1-0.1,0.1-0.2c0-0.1,0-0.3,0-0.4C37,19.2,36.9,19.1,36.8,19z M36.7,19.5
		c0,0,0,0.1-0.1,0.1c0,0-0.1,0-0.1,0.1c0,0-0.1,0-0.3,0l-0.2,0l0.1-0.5l0.2,0c0.1,0,0.2,0.1,0.2,0.1c0.1,0,0.1,0.1,0.1,0.1
		C36.7,19.4,36.7,19.5,36.7,19.5z"/>
	<path class="st0" d="M39.2,19.8c-0.1-0.1-0.2-0.1-0.4-0.2l-0.7-0.2L37.6,21l0.3,0.1l0.2-0.7l0.1,0c0.1,0,0.1,0,0.2,0.1
		c0,0,0.1,0.1,0.1,0.1c0,0,0.1,0.1,0.1,0.3l0.1,0.4l0.4,0.1L39,21.1c0-0.2-0.1-0.3-0.1-0.3c0-0.1-0.1-0.1-0.1-0.2
		c0.2,0,0.3,0,0.4-0.1c0.1-0.1,0.2-0.2,0.2-0.3c0-0.1,0-0.2,0-0.3C39.3,19.9,39.2,19.8,39.2,19.8z M38.9,20.2c0,0,0,0.1-0.1,0.1
		c0,0-0.1,0-0.1,0c0,0-0.1,0-0.3-0.1l-0.2-0.1l0.1-0.4l0.3,0.1c0.1,0,0.2,0.1,0.2,0.1c0.1,0,0.1,0.1,0.1,0.1
		C39,20.1,39,20.1,38.9,20.2z"/>
	<path class="st0" d="M41.1,20.4c-0.1,0-0.3-0.1-0.4-0.1c-0.1,0-0.2,0-0.3,0.1c-0.1,0-0.2,0.1-0.2,0.2c-0.1,0.1-0.2,0.2-0.2,0.4
		c-0.1,0.3-0.1,0.5,0,0.7c0.1,0.2,0.3,0.3,0.5,0.4c0.2,0.1,0.5,0.1,0.7,0c0.2-0.1,0.3-0.3,0.4-0.5c0.1-0.3,0.1-0.5,0-0.7
		C41.5,20.6,41.4,20.5,41.1,20.4z M41.3,21.4c-0.1,0.2-0.2,0.3-0.3,0.4c-0.1,0.1-0.2,0.1-0.4,0c-0.1,0-0.2-0.1-0.3-0.3
		c0-0.1,0-0.3,0-0.5c0.1-0.2,0.2-0.3,0.3-0.4c0.1-0.1,0.2-0.1,0.4,0c0.1,0.1,0.2,0.1,0.3,0.3C41.3,21,41.3,21.2,41.3,21.4z"/>
	<path class="st0" d="M42.8,23c0.1,0.1,0.3,0.1,0.4,0.1c0.2,0,0.3,0,0.4,0l0.3-0.6l-0.7-0.3l-0.1,0.3l0.4,0.2l-0.1,0.2
		c-0.1,0-0.1,0-0.2,0c-0.1,0-0.2,0-0.2-0.1c-0.1-0.1-0.2-0.2-0.3-0.3c0-0.1,0-0.3,0.1-0.5c0.1-0.2,0.2-0.3,0.3-0.3
		c0.1-0.1,0.3,0,0.4,0c0.1,0,0.2,0.1,0.2,0.2c0,0.1,0.1,0.2,0,0.2l0.3,0.1c0-0.2,0-0.3-0.1-0.4c-0.1-0.1-0.2-0.2-0.4-0.3
		c-0.2-0.1-0.3-0.1-0.4-0.1c-0.2,0-0.3,0.1-0.4,0.2c-0.1,0.1-0.2,0.2-0.3,0.4c-0.1,0.2-0.1,0.3-0.1,0.5c0,0.2,0.1,0.3,0.1,0.4
		C42.5,22.8,42.7,22.9,42.8,23z"/>
	<path class="st0" d="M45,23.2L45,23.2c0.1,0.1,0.2,0.1,0.2,0.1c0,0,0,0.1,0.1,0.1c0,0,0,0.2,0,0.3l0.1,0.5l0.4,0.2l0-0.4
		c0-0.2,0-0.3,0-0.3c0-0.1-0.1-0.1-0.1-0.2c0.1,0,0.3,0.1,0.4,0c0.1,0,0.2-0.1,0.2-0.2c0-0.1,0.1-0.2,0.1-0.3c0-0.1,0-0.2-0.1-0.2
		c-0.1-0.1-0.2-0.1-0.3-0.2l-0.7-0.3l-0.8,1.5l0.3,0.2L45,23.2z M45.3,22.6l0.2,0.1c0.1,0.1,0.2,0.1,0.2,0.1c0,0,0.1,0.1,0.1,0.1
		c0,0,0,0.1,0,0.1c0,0-0.1,0.1-0.1,0.1c0,0-0.1,0-0.1,0c0,0-0.1,0-0.3-0.1l-0.2-0.1L45.3,22.6z"/>
	<polygon class="st0" points="47.7,25.2 46.9,24.7 47.1,24.3 47.9,24.7 48,24.5 47.2,24 47.4,23.7 48.3,24.2 48.4,23.9 47.3,23.3 
		46.4,24.8 47.6,25.4 	"/>
	<path class="st0" d="M48.8,26.3c0.1,0.1,0.2,0.1,0.4,0.2c0.1,0,0.2,0,0.3,0c0.1,0,0.2-0.1,0.2-0.2c0.1-0.1,0.1-0.2,0.1-0.3
		c0-0.1,0-0.2-0.1-0.3c0-0.1-0.1-0.2-0.2-0.3c-0.1-0.1-0.2-0.2-0.2-0.3c0,0,0-0.1,0-0.1c0,0,0.1-0.1,0.1-0.1c0.1,0,0.1,0,0.2,0.1
		c0.1,0.1,0.1,0.1,0.2,0.2c0,0.1,0,0.1,0,0.2l0.3,0.2c0.1-0.1,0.1-0.3,0.1-0.4c0-0.1-0.2-0.3-0.3-0.4c-0.1-0.1-0.2-0.1-0.3-0.1
		c-0.1,0-0.2,0-0.3,0c-0.1,0-0.2,0.1-0.2,0.2c-0.1,0.1-0.1,0.2-0.1,0.4c0,0.1,0.1,0.2,0.2,0.4c0.1,0.1,0.2,0.2,0.2,0.2
		c0,0.1,0.1,0.1,0.1,0.1c0,0,0,0.1,0,0.1c0,0.1-0.1,0.1-0.2,0.1c-0.1,0-0.2,0-0.3-0.1c-0.1-0.1-0.1-0.1-0.2-0.2c0-0.1,0-0.2,0-0.3
		l-0.3-0.2c-0.1,0.2-0.1,0.3-0.1,0.5C48.5,26,48.6,26.1,48.8,26.3z"/>
	<path class="st0" d="M50.6,27.5c0.1,0.1,0.2,0.1,0.3,0.2c0.1,0,0.2,0,0.3,0c0.1,0,0.2-0.1,0.2-0.2c0.1-0.1,0.1-0.2,0.1-0.3
		c0-0.1,0-0.2-0.1-0.3c0-0.1-0.1-0.2-0.2-0.3c-0.1-0.1-0.2-0.2-0.2-0.3c0,0,0-0.1,0-0.1c0,0,0.1-0.1,0.1-0.1c0.1,0,0.1,0,0.2,0.1
		c0.1,0.1,0.1,0.1,0.1,0.2c0,0.1,0,0.1,0,0.2l0.3,0.2c0.1-0.1,0.1-0.3,0.1-0.4c0-0.1-0.1-0.3-0.3-0.4c-0.1-0.1-0.2-0.1-0.3-0.2
		c-0.1,0-0.2,0-0.3,0c-0.1,0-0.2,0.1-0.2,0.2c-0.1,0.1-0.1,0.2-0.1,0.4c0,0.1,0.1,0.2,0.2,0.4c0.1,0.1,0.2,0.2,0.2,0.2
		c0,0.1,0.1,0.1,0.1,0.1c0,0,0,0.1,0,0.1c0,0.1-0.1,0.1-0.2,0.1c-0.1,0-0.2,0-0.2-0.1c-0.1-0.1-0.1-0.1-0.2-0.2c0-0.1,0-0.2,0-0.3
		l-0.3-0.2c-0.1,0.2-0.1,0.3-0.1,0.5C50.4,27.2,50.5,27.4,50.6,27.5z"/>
	<path class="st0" d="M52.5,28.9c0.2,0.2,0.4,0.2,0.6,0.2c0.2,0,0.4-0.2,0.6-0.4c0.2-0.2,0.3-0.4,0.2-0.7c0-0.2-0.1-0.4-0.3-0.6
		c-0.1-0.1-0.2-0.1-0.3-0.2c-0.1,0-0.2,0-0.3,0c-0.1,0-0.2,0-0.3,0.1c-0.1,0.1-0.2,0.2-0.3,0.3c-0.2,0.2-0.2,0.4-0.2,0.7
		C52.2,28.6,52.3,28.8,52.5,28.9z M52.7,27.9c0.1-0.2,0.3-0.2,0.4-0.3c0.1,0,0.3,0,0.4,0.1c0.1,0.1,0.2,0.2,0.2,0.3
		c0,0.1-0.1,0.3-0.2,0.4c-0.1,0.2-0.3,0.2-0.4,0.3c-0.1,0-0.3,0-0.4-0.1c-0.1-0.1-0.2-0.2-0.2-0.3C52.5,28.2,52.6,28.1,52.7,27.9z"
		/>
</g>
</svg>
