<?xml version="1.0" encoding="utf-8"?>
<!-- Generator: Adobe Illustrator 19.1.0, SVG Export Plug-In . SVG Version: 6.00 Build 0)  -->
<svg version="1.1" id="Layer_1" xmlns="http://www.w3.org/2000/svg" xmlns:xlink="http://www.w3.org/1999/xlink" x="0px" y="0px"
	 width="72px" height="72.8px" viewBox="0 0 72 72.8" style="enable-background:new 0 0 72 72.8;" xml:space="preserve">
<metadata><?xpacket begin="﻿" id="W5M0MpCehiHzreSzNTczkc9d"?>
<x:xmpmeta xmlns:x="adobe:ns:meta/" x:xmptk="Adobe XMP Core 5.6-c067 79.157747, 2015/03/30-23:40:42        ">
   <rdf:RDF xmlns:rdf="http://www.w3.org/1999/02/22-rdf-syntax-ns#">
      <rdf:Description rdf:about=""/>
   </rdf:RDF>
</x:xmpmeta>
                                                                                                    
                                                                                                    
                                                                                                    
                                                                                                    
                                                                                                    
                                                                                                    
                                                                                                    
                                                                                                    
                                                                                                    
                                                                                                    
                                                                                                    
                                                                                                    
                                                                                                    
                                                                                                    
                                                                                                    
                                                                                                    
                                                                                                    
                                                                                                    
                                                                                                    
                                                                                                    
                           
<?xpacket end="w"?></metadata>
<style type="text/css">
	.st0{fill:#FFFFFF;}
</style>
<g>
	<polygon class="st0" points="36,57.1 0,72.8 0,0 72,0 72,72.8 	"/>
	<g>
		<defs>
			<polygon id="SVGID_1_" points="67.1,65.2 36,51.7 4.9,65.2 4.9,0 67.1,0 			"/>
		</defs>
		<use xlink:href="#SVGID_1_"  style="overflow:visible;fill:#ED1F24;"/>
		<clipPath id="SVGID_2_">
			<use xlink:href="#SVGID_1_"  style="overflow:visible;"/>
		</clipPath>
	</g>
	<g>
		<polygon class="st0" points="36.7,47.4 36,47.1 35.3,47.4 35.1,47 36,46.6 36.9,47 		"/>
		<path class="st0" d="M12,57.5l-0.2-0.4l1.7-0.7l0.2,0.4L12,57.5z M15.3,56.1l-0.2-0.4l1.7-0.7l0.2,0.4L15.3,56.1z M18.7,54.6
			l-0.2-0.4l1.7-0.7l0.2,0.4L18.7,54.6z M22,53.2l-0.2-0.4l1.7-0.7l0.2,0.4L22,53.2z M25.3,51.7l-0.2-0.4l1.7-0.7L27,51L25.3,51.7z
			 M28.6,50.3l-0.2-0.4l1.7-0.7l0.2,0.4L28.6,50.3z M31.9,48.8l-0.2-0.4l1.7-0.7l0.2,0.4L31.9,48.8z"/>
		<polygon class="st0" points="9.2,58.7 9.2,57.5 9.7,57.5 9.7,58 10.2,57.8 10.4,58.2 		"/>
		<path class="st0" d="M9.7,55.7H9.2v-1.8h0.4V55.7z M9.7,52.1H9.2v-1.8h0.4V52.1z M9.7,48.5H9.2v-1.8h0.4V48.5z M9.7,44.9H9.2v-1.8
			h0.4V44.9z M9.7,41.3H9.2v-1.8h0.4V41.3z M9.7,37.7H9.2v-1.8h0.4V37.7z M9.7,34.1H9.2v-1.8h0.4V34.1z M9.7,30.5H9.2v-1.8h0.4V30.5
			z M9.7,26.9H9.2v-1.8h0.4V26.9z M9.7,23.4H9.2v-1.8h0.4V23.4z M9.7,19.8H9.2V18h0.4V19.8z M9.7,16.2H9.2v-1.8h0.4V16.2z M9.7,12.6
			H9.2v-1.8h0.4V12.6z M9.7,9H9.2V7.2h0.4V9z M9.7,5.4H9.2V3.6h0.4V5.4z M9.7,1.8H9.2V0h0.4V1.8z"/>
		<path class="st0" d="M62.8,55.7h-0.4v-1.8h0.4V55.7z M62.8,52.1h-0.4v-1.8h0.4V52.1z M62.8,48.5h-0.4v-1.8h0.4V48.5z M62.8,44.9
			h-0.4v-1.8h0.4V44.9z M62.8,41.3h-0.4v-1.8h0.4V41.3z M62.8,37.7h-0.4v-1.8h0.4V37.7z M62.8,34.1h-0.4v-1.8h0.4V34.1z M62.8,30.5
			h-0.4v-1.8h0.4V30.5z M62.8,26.9h-0.4v-1.8h0.4V26.9z M62.8,23.4h-0.4v-1.8h0.4V23.4z M62.8,19.8h-0.4V18h0.4V19.8z M62.8,16.2
			h-0.4v-1.8h0.4V16.2z M62.8,12.6h-0.4v-1.8h0.4V12.6z M62.8,9h-0.4V7.2h0.4V9z M62.8,5.4h-0.4V3.6h0.4V5.4z M62.8,1.8h-0.4V0h0.4
			V1.8z"/>
		<polygon class="st0" points="62.8,58.7 61.6,58.2 61.8,57.8 62.3,58 62.3,57.5 62.8,57.5 		"/>
		<path class="st0" d="M60,57.5l-1.7-0.7l0.2-0.4l1.7,0.7L60,57.5z M56.7,56.1L55,55.3l0.2-0.4l1.7,0.7L56.7,56.1z M53.3,54.6
			l-1.7-0.7l0.2-0.4l1.7,0.7L53.3,54.6z M50,53.2l-1.7-0.7l0.2-0.4l1.7,0.7L50,53.2z M46.7,51.7L45,51l0.2-0.4l1.7,0.7L46.7,51.7z
			 M43.4,50.3l-1.7-0.7l0.2-0.4l1.7,0.7L43.4,50.3z M40.1,48.8l-1.7-0.7l0.2-0.4l1.7,0.7L40.1,48.8z"/>
	</g>
	<g>
		<path class="st0" d="M32.6,17.1l-3.9,18.2h-3l-2.1-12.8L21,35.3h-3.5L21,18.7c-2.1,0.9-3.4,2.7-3.4,5.3c0,1.2,0.3,1.4,0.3,1.7
			c-1.7,0-2.6-0.6-2.6-2.4c0-2.8,2.7-6.3,6.9-6.3c0.7,0,1.6,0,2.3,0.3l1.9,12.9l2.7-13.2H32.6z"/>
		<path class="st0" d="M36.6,33.4c1.9,0,3.1-1.1,4.3-2.5h0.8c-1.4,2.2-3.5,4.5-6.7,4.5c-2.3,0-3.8-1.1-3.8-3.9
			c0-2.8,1.6-8.7,6.6-8.7c2.2,0,2.7,1.1,2.7,2.3c0,2.8-2.7,5-5.6,5.1c0,0.3,0,0.7,0,1C34.8,33,35.4,33.4,36.6,33.4z M38,24.2
			c-1.2,0-2.4,2.6-2.9,5c1.9-0.1,3.5-2,3.5-4C38.6,24.6,38.4,24.2,38,24.2z"/>
		<path class="st0" d="M46.1,23.1l-1.8,8.3c0,0.2-0.1,0.4-0.1,0.6c0,0.6,0.2,1.1,0.7,1.1c1,0,1.6-0.9,2-2.1l1.7-7.8h3.5l-1.8,8.3
			c-0.1,0.3-0.1,0.7-0.1,0.9c0,0.5,0.2,0.8,0.8,0.8c2.4,0,4.2-5.5,4.2-8.1c-0.1,0.2-0.6,0.2-0.8,0.2c-0.6,0-0.9-0.7-0.9-1.2
			c0-0.8,0.5-1.3,1.5-1.3c1.2,0,1.5,1,1.5,2.1c0,3.9-2,10.7-7,10.7c-1.6,0-2.6-0.7-2.9-2c-1.2,1.8-2.5,2-3.5,2
			c-1.5,0-2.6-0.9-2.6-2.9c0-0.5,0.1-1,0.2-1.6l1.7-7.8H46.1z"/>
	</g>
</g>
</svg>
