<?xml version="1.0" encoding="utf-8"?>
<!-- Generator: Adobe Illustrator 18.1.1, SVG Export Plug-In . SVG Version: 6.00 Build 0)  -->
<!DOCTYPE svg PUBLIC "-//W3C//DTD SVG 1.1//EN" "http://www.w3.org/Graphics/SVG/1.1/DTD/svg11.dtd">
<svg version="1.1" id="Layer_1" xmlns="http://www.w3.org/2000/svg" xmlns:xlink="http://www.w3.org/1999/xlink" x="0px" y="0px"
	 viewBox="75.4 97.9 313.1 60.1" enable-background="new 75.4 97.9 313.1 60.1" xml:space="preserve">
<metadata><?xpacket begin="﻿" id="W5M0MpCehiHzreSzNTczkc9d"?>
<x:xmpmeta xmlns:x="adobe:ns:meta/" x:xmptk="Adobe XMP Core 5.6-c014 79.156821, 2014/08/29-03:07:50        ">
   <rdf:RDF xmlns:rdf="http://www.w3.org/1999/02/22-rdf-syntax-ns#">
      <rdf:Description rdf:about=""
            xmlns:xmp="http://ns.adobe.com/xap/1.0/"
            xmlns:xmpGImg="http://ns.adobe.com/xap/1.0/g/img/"
            xmlns:xmpTPg="http://ns.adobe.com/xap/1.0/t/pg/"
            xmlns:stDim="http://ns.adobe.com/xap/1.0/sType/Dimensions#"
            xmlns:xmpG="http://ns.adobe.com/xap/1.0/g/"
            xmlns:dc="http://purl.org/dc/elements/1.1/">
         <xmp:CreatorTool>Adobe Illustrator CC 2014 (Macintosh)</xmp:CreatorTool>
         <xmp:CreateDate>2015-12-23T17:04:02-08:00</xmp:CreateDate>
         <xmp:Thumbnails>
            <rdf:Alt>
               <rdf:li rdf:parseType="Resource">
                  <xmpGImg:width>256</xmpGImg:width>
                  <xmpGImg:height>52</xmpGImg:height>
                  <xmpGImg:format>JPEG</xmpGImg:format>
                  <xmpGImg:image>/9j/4AAQSkZJRgABAgEASABIAAD/7QAsUGhvdG9zaG9wIDMuMAA4QklNA+0AAAAAABAASAAAAAEA&#xA;AQBIAAAAAQAB/+4ADkFkb2JlAGTAAAAAAf/bAIQABgQEBAUEBgUFBgkGBQYJCwgGBggLDAoKCwoK&#xA;DBAMDAwMDAwQDA4PEA8ODBMTFBQTExwbGxscHx8fHx8fHx8fHwEHBwcNDA0YEBAYGhURFRofHx8f&#xA;Hx8fHx8fHx8fHx8fHx8fHx8fHx8fHx8fHx8fHx8fHx8fHx8fHx8fHx8fHx8f/8AAEQgANAEAAwER&#xA;AAIRAQMRAf/EAaIAAAAHAQEBAQEAAAAAAAAAAAQFAwIGAQAHCAkKCwEAAgIDAQEBAQEAAAAAAAAA&#xA;AQACAwQFBgcICQoLEAACAQMDAgQCBgcDBAIGAnMBAgMRBAAFIRIxQVEGE2EicYEUMpGhBxWxQiPB&#xA;UtHhMxZi8CRygvElQzRTkqKyY3PCNUQnk6OzNhdUZHTD0uIIJoMJChgZhJRFRqS0VtNVKBry4/PE&#xA;1OT0ZXWFlaW1xdXl9WZ2hpamtsbW5vY3R1dnd4eXp7fH1+f3OEhYaHiImKi4yNjo+Ck5SVlpeYmZ&#xA;qbnJ2en5KjpKWmp6ipqqusra6voRAAICAQIDBQUEBQYECAMDbQEAAhEDBCESMUEFURNhIgZxgZEy&#xA;obHwFMHR4SNCFVJicvEzJDRDghaSUyWiY7LCB3PSNeJEgxdUkwgJChgZJjZFGidkdFU38qOzwygp&#xA;0+PzhJSktMTU5PRldYWVpbXF1eX1RlZmdoaWprbG1ub2R1dnd4eXp7fH1+f3OEhYaHiImKi4yNjo&#xA;+DlJWWl5iZmpucnZ6fkqOkpaanqKmqq6ytrq+v/aAAwDAQACEQMRAD8A9U4q8H1eXU9T8xXCsXnv&#xA;JLho4kFaghyFVR2Azz7USyZc56yMqfQtNHHiwDkIiNsltbr8wvK6rLdQSXOnr/eRyMJkUf66Fmj/&#xA;AFZtIZNbpN5Ayh8/7HV5Mei1e0SIz+X9rPPLvmjTNdt/UtX4zIP31s/20/qPcZ0Oj12PURuPPqOr&#xA;z2t0GTTyqXLoeib5mOE7FXYq7FXYq7FXYq7FXYq7FXYq7FXYq7FXYq7FXYq7FXYq7FXYq7FXYq7F&#xA;XYq7FXYq7FXYq8q84Wcvl7zlBrMacraeUXAA/nBHqp8z1+nOR7RxnTaoZQPSTf6x+O96/s3KNTpT&#xA;iJ9QFfqP47lO/HmGTzkH0m9YHUh9ZsZTJSN4ipYKQag8aFeJGRy+MdVeOX17xN7V+NqZYfAGlrJH&#xA;6NpCt7/G9t/VLyS/eWxi/RPmqz+OaxT4Y7lRuXhHSpHVNww6Y+HIzuA8PUR5x6S936uRXxIiFTPi&#xA;aeXKXWP9b9fMM58pebLbXrQ1Ahv4ABc2/wCHJa/sn8M3/Z/aEdRHumOYef7R7Plp5d8DyKf5sXXO&#xA;xV2KuxV2KuxV2KuxV2KuxV2KuxV2KuxV2KuxV2KuxV2KuxV2KuxV2KuxV2KuxV2KtI6OgdGDIwqr&#xA;A1BB7gjACDuEkEGil/mDQ7XWtMlsbjbl8UUlKlJB9lh/n0zH1eljnxmEv7C5Oj1UsGQTj/aHl1s7&#xA;aXcny/r/ADt0gl9Syv4687aQnaWM/tRsdyP45ycD4UvBzbUbjIfwnvHkXrZjxY+Ph3sVKJ/iHcfM&#xA;Mt1fSr3WtOjaQBNdsl9XT9Rtj+5uFX4vhcfZLfynodxtXNxqME88Bf8Aex3jIcpfju7+WzpdNqIY&#xA;Jmv7mW0onnH4fp7ue7FP0lOxTzTp4EWpWbqmsWwFFflsJeP8sn2XHZt81HjE1qIbTj9Y/T8evm7j&#xA;wAL0894S+g/o+HTyeqaPqtrqunQ31saxzLUr3Vhsyn3BzrdNqI5oCceReR1OnlhmYS5hGZe0OxV2&#xA;KuxV2KuxV2KuxV2KuxV2KuxV2KuxV2KuxV2KuxV2KuxV2KuxV2KuxV2KuxVjmu22t6az6pof75ft&#xA;XmmOCUfuZIgN1fxA+1169dZqoZcV5MO/fHv8x5/e7PSTxZax5tu6Xd5Hy+5Aaf8Amn5fnQC8SWzl&#xA;/aBX1E+hk+L/AIXMfD29hkPVcT8/x8nJzdgZon0kSHy/HzS7zJ5g8k+Y2jsHmeObf6vqZjKpG3YN&#xA;y4txbvtmNrdZpdTUCaPSVcv2OTotHq9NcwLHWN8/2saN/wCb/KMxs1maKF6tFsJYHH88ZYEb+305&#xA;q/F1OjPDdD5g+52vg6bWDiqz8iPeh/Kd07+Y4Y5v3kWos1tdp0DpPs3475V2fkJzgHcT2PxbO0MY&#xA;GAkbGG4+DJPImoy6J5lvPLly1YZZXSJjsBKlaEf8ZFH6s2nZWY4M8sEuRP2j9f6nV9rYRnwRzx5g&#xA;fYf1H9L0zOpeVdirsVdirsVdirsVdirsVdirsVdirsVdirsVdirsVdirsVdirsVdirsVdirsVdir&#xA;sVYN50/L1b8vqGkqsd4atNbbKsp68lPQN+BzQdp9j+J68f1dR3/teg7M7Y8P0Zfp6Hu/Y8ungmgl&#xA;aGdGilQ0eNwVYHwIOcpKJiaIovWRmJCwbCbaX5pvrK2+pXEcd/pp62dyOar7oeqH5ZmYNfOEeAgT&#xA;h3H9Hc4eo0EJy44kwn/OH6e9OtM8z+SNPuFvrfRZo71KmNfVMkasRTYsfx45nYNdpMZ444yJe+x+&#xA;Pg4OfQ6vJHglkBh7qP4+LGr7V7m61iTVdo7h5vXXj0VgarT5UzVZdRKeU5OUrt2uLTxhiGPnGqe7&#xA;aZfJf6dbXqbLcRJJTw5CpH0Z6BgyjJASHUW+e58RxzlA/wAJpE5a1OxV2KuxV2KuxV2KuxV2KuxV&#xA;2KuxV2KuxV2KuxV2KuxV2KuxV2KuxV2KuxV2KuxV2KpP5g8qaRrkVLuLjcAUjuY6CRfp7j2OYWr0&#xA;GLOPUN+/q5uj7Qy6c+k7d3R5prf5c6/pzM9vH9fth0eEVcD/ACo/tfdXOW1XY2bHvEccfL9T1Wl7&#xA;aw5dpHgl58vmxd0eNyjqUdTRlYUIPuDmqIINF2wIIsOiiklkWKJC8jkKiKCSSewAxjEk0OaykALP&#xA;J715csZrDQrGzm2mhhUSDwYipH0E0z0LRYjjwxieYD55rcoyZpSHIlMcyXFdirsVdirsVdirsVdi&#xA;rsVdirsVdirsVdirsVdirsVdirsVdirsVdirsVdirsVdirsVdirsVSvWP8NUH6Y+qdPh+s+nX/Y8&#xA;9/uzE1Pgf5Xh/wA6nL03j/5Lj/zb/Qo6L/g/1j+h/qX1ihr6Hp+pTv0+KmQ035a/3XBflVtmq/M1&#xA;+94+Hzuk6zOcB2KuxV2KuxV2KuxV2KuxV2KuxV2KuxV2KuxV2KuxV2KuxV2KuxV2KuxV2KuxV2Kv&#xA;/9k=</xmpGImg:image>
               </rdf:li>
            </rdf:Alt>
         </xmp:Thumbnails>
         <xmpTPg:MaxPageSize rdf:parseType="Resource">
            <stDim:w>313.102371</stDim:w>
            <stDim:h>60.099328</stDim:h>
            <stDim:unit>Pixels</stDim:unit>
         </xmpTPg:MaxPageSize>
         <xmpTPg:NPages>1</xmpTPg:NPages>
         <xmpTPg:HasVisibleTransparency>False</xmpTPg:HasVisibleTransparency>
         <xmpTPg:HasVisibleOverprint>False</xmpTPg:HasVisibleOverprint>
         <xmpTPg:PlateNames>
            <rdf:Seq>
               <rdf:li>Magenta</rdf:li>
               <rdf:li>Yellow</rdf:li>
               <rdf:li>Black</rdf:li>
            </rdf:Seq>
         </xmpTPg:PlateNames>
         <xmpTPg:SwatchGroups>
            <rdf:Seq>
               <rdf:li rdf:parseType="Resource">
                  <xmpG:groupName>Default Swatch Group</xmpG:groupName>
                  <xmpG:groupType>0</xmpG:groupType>
               </rdf:li>
            </rdf:Seq>
         </xmpTPg:SwatchGroups>
         <dc:format>image/svg+xml</dc:format>
      </rdf:Description>
   </rdf:RDF>
</x:xmpmeta>
                                                                                                    
                                                                                                    
                                                                                                    
                                                                                                    
                                                                                                    
                                                                                                    
                                                                                                    
                                                                                                    
                                                                                                    
                                                                                                    
                                                                                                    
                                                                                                    
                                                                                                    
                                                                                                    
                                                                                                    
                                                                                                    
                                                                                                    
                                                                                                    
                                                                                                    
                                                                                                    
                           
<?xpacket end="w"?>
	</metadata>
<g>
	<path fill="#F57B20" d="M115.1,111.7c-8.9-8.4-15.2-12.2-21.3-13.5c-6.5-1.4-11.1,2.8-5.2,15c0,0,5.7,12,20,22.5
		c6.9,5,15.8,6.9,13.8-3.1c-0.6-3-4.7-10.6-15-19.8c-3-2.5-8.2-6.1-10.3-3.8s2.3,8.5,5,11.1c0,0,4.8,4.5,9.4,6.3l0,0
		c-0.3-0.3-0.7-0.6-1.1-0.9c-2.6-2.3-6.8-6.3-8.2-8.9c0,0,0,0,0-0.1s-0.1-0.2-0.1-0.3s0-0.1-0.1-0.2c0-0.1-0.1-0.1-0.1-0.2v-0.1
		c0-0.1-0.1-0.2-0.1-0.3c-0.1-0.6,0-0.8,0.4-1.2c0.1-0.1,0.7-0.4,1.6-0.2c0.4,0.1,0.8,0.3,1.3,0.6c0.2,0.2,0.3,0.2,0.4,0.3
		c1.4,0.9,3,2.5,4.8,4.6c3.6,4.3,7.4,10.1,3.5,10.8c-3.1,0.6-9.1-3.7-13.6-8.6c-3.7-4.1-10.6-14-5.5-16.4c5-2.3,16.1,5.4,24.1,16.1
		c6.2,8.3,11.1,19,4.4,21.3c-5,1.8-13.3-1.5-22.5-9.6c-8.7,6-25.3-6.9-25.3-6.9s10.6,11.5,17.4,17c3.9,3,6.7,4.7,10.6,7.1
		c7.8,4.8,16.3,7,18.3,7.4c8.6,1.5,14.5-2,14.2-9.4C135.7,142.5,128.3,124.6,115.1,111.7z"/>
	<g>
		<path fill="#FFFFFF" d="M155.8,130c-0.5,1.1-0.9,2.1-1.2,3.1l-0.1-0.4c-0.3-0.8-0.6-1.8-1-2.7l-4.9-12.8l-0.1-0.1h-4.2l8.8,21.8
			l0.1,0.1h2.6l9.4-21.7l0.1-0.3h-4L155.8,130z"/>
		<polygon fill="#FFFFFF" points="179.5,120.4 180.7,117 168.7,117 168.7,138.9 180.6,138.9 180.6,135.5 172.5,135.5 172.5,129.4 
			179.5,129.4 179.5,126 172.5,126 172.5,120.4 		"/>
		<path fill="#FFFFFF" d="M194.6,128.9c2.4-1.1,3.8-3.2,3.8-5.7c0-3.9-2.8-6.2-7.6-6.2h-5.5v21.8h3.8v-8.7h1.7
			c0.7,0.2,2.1,2.6,4.5,6.5l0.1,0.2c0.4,0.6,0.7,1.2,1.1,1.9l0.1,0.1h4.5l-0.8-1.3C197.4,132.9,195.5,129.8,194.6,128.9z
			 M194.5,123.6c0,2-1.6,3.5-3.6,3.5h-1.8v-6.7h1.7C193.2,120.4,194.5,121.5,194.5,123.6z"/>
		<polygon fill="#FFFFFF" points="202,120.4 208.2,120.4 208.2,138.9 212.1,138.9 212.1,120.4 217.9,120.4 219,117 202,117 		"/>
		<rect x="222.4" y="117" fill="#FFFFFF" width="3.8" height="21.8"/>
		<path fill="#FFFFFF" d="M246.1,135.2c-0.8,0.4-2,0.6-3.4,0.6c-4.7,0-7.7-3.1-7.7-8c0-4.8,3.1-7.8,8-7.8c1.9,0,3.9,0.5,5.8,1.6
			l0.3,0.2V118H249c-1.9-0.8-4-1.2-6.3-1.2c-7,0-11.8,4.7-11.8,11.4c0,6.5,4.5,11,10.9,11c4,0,6.9-1.3,8-1.9l0.1-0.1v-9.4h-3.8
			L246.1,135.2L246.1,135.2z"/>
		<path fill="#FFFFFF" d="M273.3,120.2L273.3,120.2c-2-2.2-4.9-3.4-8.3-3.4c-3.1,0-5.9,1.1-7.9,3.2c-2,2-3.1,4.9-3.1,8.1
			c0,3.3,1.2,6.3,3.5,8.4c2,1.8,4.6,2.7,7.6,2.7c3.1,0,5.9-1.1,7.9-3.1s3.2-4.9,3.2-8.1C276.1,124.9,275.1,122.2,273.3,120.2z
			 M265,135.9c-4.3,0-7-3.1-7-7.8c0-4.8,2.7-7.8,7-7.8c4.2,0,7,3.1,7,7.8C272,132.8,269.3,135.9,265,135.9z"/>
	</g>
	<g>
		<path fill="#FFFFFF" d="M301.3,135.2c-0.8,0.4-2,0.6-3.4,0.6c-4.7,0-7.7-3.1-7.7-8c0-4.8,3.1-7.8,8-7.8c1.9,0,3.9,0.5,5.8,1.6
			l0.3,0.2v-3.6v-0.1l-0.1-0.1c-1.9-0.8-4-1.2-6.3-1.2c-7,0-11.8,4.7-11.8,11.4c0,6.5,4.5,11,10.9,11c4,0,6.9-1.3,8-1.9l0.1-0.1
			v-9.4h-3.8V135.2z"/>
		<path fill="#FFFFFF" d="M319.4,116.9h-2.7l-8.3,21.6l-0.1,0.3h3.8l2-5.5h7.6l2.1,5.3l0.1,0.1h4.1L319.4,116.9L319.4,116.9z
			 M318.1,122.8c0.2,0.5,0.4,1.2,0.6,1.9l1.9,5.5h-5.2l2-5.5C317.7,124,317.9,123.4,318.1,122.8z"/>
		<path fill="#FFFFFF" d="M343.7,126.1L343.7,126.1c-0.5,0.7-0.8,1.3-1.1,1.9c-0.3-0.6-0.7-1.1-1.1-1.8l-6.2-9.1l-0.1-0.1h-3.6v21.8
			h3.8v-13.9c0-0.5,0-0.9,0-1.3c0.2,0.4,0.4,0.7,0.6,1c0.1,0.1,0.1,0.2,0.2,0.3l5.3,7.7l0.1,0.1h2l4.9-7.7c0.1-0.1,0.2-0.3,0.3-0.4
			c0.2-0.3,0.4-0.6,0.6-0.9c0,0.5,0,0.9,0,1.4V139h3.8v-22h-3.6L343.7,126.1z"/>
		<polygon fill="#FFFFFF" points="369.7,120.4 370.8,117.3 370.9,117 359,117 359,138.9 370.9,138.9 370.9,135.5 362.8,135.5 
			362.8,129.4 369.8,129.4 369.8,126 362.8,126 362.8,120.4 		"/>
		<path fill="#FFFFFF" d="M383,126.2c-2-1.1-3.8-2.1-3.8-3.8s1.6-2.3,3.2-2.3c1.5,0,3.1,0.5,4.8,1.5l0.3,0.2v-3.6v-0.1l-0.1-0.1
			c-1-0.5-2.8-1.2-5.2-1.2c-4.8,0-6.9,3-6.9,5.9c0,1.5,0.5,2.8,1.5,4c1.1,1.2,2.5,2,3.9,2.8c2,1.1,3.8,2.1,3.8,3.9
			c0,1.3-1.1,2.5-3.6,2.5c-2,0-3.6-0.8-4.7-1.6l-0.2-0.1l-1.6,2.8l-0.1,0.1l0.2,0.1c1.3,0.8,3.3,1.9,6.5,1.9c4.4,0,7.5-2.5,7.5-6.2
			C388.6,129.3,385.6,127.6,383,126.2z"/>
	</g>
</g>
</svg>
