<svg xmlns="http://www.w3.org/2000/svg" width="184.031" height="39.94" viewBox="0 0 184.031 39.94">
  <defs>
    <style>
      .cls-1 {
        fill: #fedf00;
        fill-rule: evenodd;
      }
    </style>
  </defs>
  <path class="cls-1" d="M708.4,5379.83h0a0.581,0.581,0,0,1-.183.34l-4.693,2.82,1.11,5.45a0.42,0.42,0,0,1-.136.4,0.275,0.275,0,0,1-.2.02,0.25,0.25,0,0,1-.189-0.07c-1.333-1.28-2.63-2.53-3.983-3.75-1.564.93-3.067,1.89-4.618,2.89a0.6,0.6,0,0,1-.386-0.04,0.41,0.41,0,0,1-.067-0.41l2.132-5.14c-1.317-1.24-2.694-2.44-4.075-3.69a0.349,0.349,0,0,1-.067-0.37,0.3,0.3,0,0,1,.32-0.22l5.4,0.5,2.171-5.11a0.3,0.3,0,0,1,.32-0.22,0.315,0.315,0,0,1,.276.28l1.163,5.44,5.389,0.59a0.385,0.385,0,0,1,.317.29h0Zm-26.308-3.95a0.424,0.424,0,0,1-.179.45l-5.3,3.49,1.586,6.28a0.325,0.325,0,0,1-.172.39,0.313,0.313,0,0,1-.2.09,0.324,0.324,0,0,1-.234-0.11l-4.8-4.12c-1.771,1.19-3.491,2.36-5.2,3.56a0.327,0.327,0,0,1-.437-0.02,0.318,0.318,0,0,1-.128-0.41c0.721-2,1.447-4.07,2.227-6.07l-4.955-4.05a0.522,0.522,0,0,1-.133-0.46,0.41,0.41,0,0,1,.409-0.24l6.268,0.29,2.291-6.05a0.418,0.418,0,0,1,.367-0.29,0.425,0.425,0,0,1,.329.33l1.6,6.26,6.318,0.41a0.364,0.364,0,0,1,.332.27h0Zm-24.973-10.91h0a0.835,0.835,0,0,1-.273.85L647,5372.86l3.552,11.8a0.643,0.643,0,0,1-.264.8,0.584,0.584,0,0,1-.381.19,0.559,0.559,0,0,1-.435-0.21l-9.494-7.33-9.491,7.33a0.64,0.64,0,0,1-.823.01,0.629,0.629,0,0,1-.259-0.79l3.553-11.8-9.849-7.04a1.009,1.009,0,0,1-.275-0.86,0.877,0.877,0,0,1,.7-0.54l12.057-.09,3.728-11.77a0.651,0.651,0,0,1,.664-0.53,0.763,0.763,0,0,1,.712.53l3.664,11.77,12.067,0.09a0.861,0.861,0,0,1,.693.55h0Zm-109.154,19.51h0a0.3,0.3,0,0,0,.143.29l4.036,2.23-0.725,4.64a0.283,0.283,0,0,0,.138.29,0.219,0.219,0,0,0,.15.03,0.173,0.173,0,0,0,.14-0.07l3.228-3.31,3.986,2.27a0.332,0.332,0,0,0,.29-0.04,0.274,0.274,0,0,0,.054-0.32c-0.626-1.46-1.3-2.85-1.979-4.25l3.291-3.28a0.251,0.251,0,0,0-.2-0.44l-4.487.62-2.014-4.24a0.253,0.253,0,0,0-.274-0.17,0.207,0.207,0,0,0-.217.24l-0.806,4.65-4.477.67a0.292,0.292,0,0,0-.274.19h0Zm23.637-4.66h0a0.336,0.336,0,0,0,.136.34c1.591,0.96,3.168,1.86,4.694,2.82l-1.116,5.45a0.31,0.31,0,0,0,.34.43,0.249,0.249,0,0,0,.185-0.07c1.336-1.29,2.63-2.54,3.987-3.75,1.556,0.92,3.065,1.88,4.615,2.88a0.544,0.544,0,0,0,.388-0.04,0.4,0.4,0,0,0,.06-0.41l-2.12-5.13,4.07-3.7a0.582,0.582,0,0,0,.114-0.37,0.369,0.369,0,0,0-.367-0.22l-5.4.5-2.171-5.11a0.311,0.311,0,0,0-.319-0.22,0.321,0.321,0,0,0-.276.28l-1.16,5.45-5.393.59a0.314,0.314,0,0,0-.268.28h0Zm26.26-3.94h0a0.419,0.419,0,0,0,.181.45l5.3,3.48-1.591,6.28a0.394,0.394,0,0,0,.171.4,0.508,0.508,0,0,0,.248.09,0.389,0.389,0,0,0,.188-0.12l4.8-4.11,5.244,3.56a0.275,0.275,0,0,0,.385-0.02,0.316,0.316,0,0,0,.129-0.41c-0.719-2.01-1.444-4.08-2.224-6.08l4.954-4.04a0.413,0.413,0,0,0,.131-0.46,0.364,0.364,0,0,0-.356-0.24l-6.319.28-2.242-6.05a0.38,0.38,0,0,0-.743.04l-1.6,6.26-6.321.41a0.371,0.371,0,0,0-.327.28h0Zm134.125,8.61h0a0.219,0.219,0,0,1-.139.28l-4.039,2.23,0.776,4.65a0.4,0.4,0,0,1-.142.29,0.278,0.278,0,0,1-.2.02,0.172,0.172,0,0,1-.137-0.07l-3.231-3.31-3.936,2.28a0.372,0.372,0,0,1-.337-0.05,0.269,0.269,0,0,1-.058-0.31l1.982-4.25-3.29-3.28a0.237,0.237,0,0,1-.061-0.32,0.287,0.287,0,0,1,.267-0.12l4.531,0.63,1.962-4.26a0.269,0.269,0,0,1,.27-0.17,0.288,0.288,0,0,1,.273.25l0.757,4.64,4.526,0.67A0.3,0.3,0,0,1,731.991,5384.49Z" transform="translate(-547.969 -5352.03)"/>
</svg>
