<svg version="1.1" id="BymiZCdwG" xmlns="http://www.w3.org/2000/svg" xmlns:xlink="http://www.w3.org/1999/xlink" x="0px" y="0px" viewBox="0 0 400 400" style="enable-background:new 0 0 400 400;" xmlns:svgjs="http://svgjs.com/svgjs">
    <style type="text/css">
        @-webkit-keyframes r1bmoWCdPz_S1VuGCODf_Animation{0%{-webkit-transform: rotate(-360deg);transform: rotate(-360deg);transform-box: fill-box;-webkit-transform-origin: 50% 50%;transform-origin: 50% 50%;}100%{-webkit-transform: rotate(0deg);transform: rotate(0deg);transform-box: fill-box;-webkit-transform-origin: 50% 50%;transform-origin: 50% 50%;}}@keyframes r1bmoWCdPz_S1VuGCODf_Animation{0%{-webkit-transform: rotate(-360deg);transform: rotate(-360deg);transform-box: fill-box;-webkit-transform-origin: 50% 50%;transform-origin: 50% 50%;}100%{-webkit-transform: rotate(0deg);transform: rotate(0deg);transform-box: fill-box;-webkit-transform-origin: 50% 50%;transform-origin: 50% 50%;}}@-webkit-keyframes Hym7ibCuPG_BJRhWC_wf_Animation{0%{-webkit-transform: rotate(360deg);transform: rotate(360deg);transform-box: fill-box;-webkit-transform-origin: 50% 50%;transform-origin: 50% 50%;}100%{-webkit-transform: rotate(0deg);transform: rotate(0deg);transform-box: fill-box;-webkit-transform-origin: 50% 50%;transform-origin: 50% 50%;}}@keyframes Hym7ibCuPG_BJRhWC_wf_Animation{0%{-webkit-transform: rotate(360deg);transform: rotate(360deg);transform-box: fill-box;-webkit-transform-origin: 50% 50%;transform-origin: 50% 50%;}100%{-webkit-transform: rotate(0deg);transform: rotate(0deg);transform-box: fill-box;-webkit-transform-origin: 50% 50%;transform-origin: 50% 50%;}}#BymiZCdwG *{-webkit-animation-duration: 10s;animation-duration: 10s;-webkit-animation-iteration-count: infinite;animation-iteration-count: infinite;-webkit-animation-timing-function: cubic-bezier(0, 0, 1, 1);animation-timing-function: cubic-bezier(0, 0, 1, 1);}#S1zQoWC_PM{fill: #FFFFFF;}#SyBXjWCuvM{fill: #FFFFFF;}#S1Dmj-AuvG{fill: #FFFFFF;}#rJYmsWA_DG{fill: #FFFFFF;}#Hyj7jWRuPG{fill: #FFFFFF;}#Hym7ibCuPG_BJRhWC_wf{-webkit-animation-name: Hym7ibCuPG_BJRhWC_wf_Animation;animation-name: Hym7ibCuPG_BJRhWC_wf_Animation;}#r1bmoWCdPz_S1VuGCODf{-webkit-animation-name: r1bmoWCdPz_S1VuGCODf_Animation;animation-name: r1bmoWCdPz_S1VuGCODf_Animation;}
    </style>
    <g id="rklmsZA_wz" class="">
        <g id="r1bmoWCdPz_S1VuGCODf" data-animator-group="true" data-animator-type="1">
            <g id="r1bmoWCdPz">
                <path d="M237.1,3.6C235.7,4,235,5.4,235,5.4l-5.1,8.6c-1.2,2.2-3.2,1.9-3.2,1.9c-30.1-3.5-50.7-0.7-50.7-0.7l0,0&#10;&#9;&#9;&#9;c0,0-2.3,0.2-3.4-2l-4.7-8.3c0,0-0.6-1.4-2-1.8C72.5,19.2,1.5,100.6,1.5,198.5c0,23.7,4.2,46.4,11.8,67.4c0.1-0.1,0.2-0.3,0.3-0.4&#10;&#9;&#9;&#9;c0.9,2,3.2,1.7,3.2,1.7h9.5c2.5-0.1,3.4,1.9,3.4,1.9l0,0c0,0,7.8,19.3,25.6,43.7c0,0,1.3,1.6,0,3.7l-4.9,8.7c0,0-1.2,1.7-0.2,3.4&#10;&#9;&#9;&#9;c36.4,41.8,90,68.3,149.8,68.3c60.4,0,114.4-27,150.8-69.5c0.1-1.2-0.6-2.1-0.6-2.1l-4.9-8.7c-1.3-2.1,0-3.7,0-3.7&#10;&#9;&#9;&#9;c17.9-24.4,25.6-43.7,25.6-43.7l0,0c0,0,0.9-2.1,3.4-1.9h9.5c0,0,1.7,0.2,2.7-1c7.7-21.1,11.9-43.9,11.9-67.7&#10;&#9;&#9;&#9;C398.3,101.7,328.9,21,237.1,3.6z M199.9,362.3c-90.4,0-163.8-73.3-163.8-163.8S109.5,34.8,199.9,34.8s163.8,73.3,163.8,163.8&#10;&#9;&#9;&#9;S290.3,362.3,199.9,362.3z" id="S1zQoWC_PM"/>
            </g>
        </g>
        <g id="Hym7ibCuPG_BJRhWC_wf" data-animator-group="true" data-animator-type="1">
            <g id="Hym7ibCuPG">
                <g id="SyNms-0OPf">
                    <path d="M135.8,130.6c36.4-51.4,117.8-56.3,181.8-11c8.3,5.9,15.8,12.3,22.7,19.1c-11.2-26.5-28.6-48-52.8-65.2&#10;&#9;&#9;&#9;&#9;c-60.9-40.3-145.1-35.7-183.2,18C67.1,144.2,86,222,146.4,267.1C114.3,223.5,108.4,169.4,135.8,130.6z" id="SyBXjWCuvM"/>
                </g>
                <g id="SJ8QjWA_Dz">
                    <path d="M292.5,180.1c24.3,58.1-14.7,129.8-87.1,160c-9.4,3.9-18.8,6.9-28.2,9.1c26,3.6,53.1,2.3,80.4-9.1&#10;&#9;&#9;&#9;&#9;c71.4-29.8,108.5-106.3,84.7-166c-24.9-59.6-100.9-84.8-171.2-57.6C225.1,112.6,274.2,136.2,292.5,180.1z" id="S1Dmj-AuvG"/>
                </g>
                <g id="B1d7jbCuvG">
                    <path d="M169,286.4c-62.4-8.7-104.3-78.7-93.5-156.4c1.4-10,4.3-18.4,7.2-27.6c-16.3,20.6-29,45.8-33,75.2&#10;&#9;&#9;&#9;&#9;c-10.3,72.9,34,145.7,99.1,154.7c63.9,8.9,124.3-43.7,136.6-118.1C261.4,262.7,216.1,292.9,169,286.4z" id="rJYmsWA_DG"/>
                </g>
            </g>
        </g>
        <g id="BJ5XiZ0dDG">
            <circle cx="199.3" cy="200.1" r="19.8" id="Hyj7jWRuPG"/>
        </g>
    </g>
</svg>