<?xml version="1.0" encoding="utf-8"?>
<!-- Generator: Adobe Illustrator 22.0.1, SVG Export Plug-In . SVG Version: 6.00 Build 0)  -->
<svg version="1.0" id="Layer_1" xmlns="http://www.w3.org/2000/svg" xmlns:xlink="http://www.w3.org/1999/xlink" x="0px" y="0px"
	 viewBox="0 0 72 72" style="enable-background:new 0 0 72 72;" xml:space="preserve">
<style type="text/css">
	.st0{clip-path:url(#SVGID_2_);fill:#D81E34;}
	.st1{clip-path:url(#SVGID_2_);fill:#FFFFFF;}
	.st2{clip-path:url(#SVGID_2_);fill:#31409A;}
	.st3{clip-path:url(#SVGID_2_);}
	.st4{clip-path:url(#SVGID_4_);fill:#F5D02C;}
	.st5{fill:#D81E34;}
	.st6{fill:#FFFFFF;}
</style>
<g id="MALAYSIA_3_">
	<g>
		<g>
			<defs>
				<rect id="SVGID_1_" width="71.9" height="71.2"/>
			</defs>
			<clipPath id="SVGID_2_">
				<use xlink:href="#SVGID_1_"  style="overflow:visible;"/>
			</clipPath>
			<rect class="st0" width="71.9" height="3.8"/>
			<rect y="3.8" class="st1" width="71.9" height="3.8"/>
			<rect y="7.6" class="st0" width="71.9" height="3.8"/>
			<rect y="11.4" class="st1" width="71.9" height="3.8"/>
			<rect y="15.2" class="st0" width="71.9" height="3.8"/>
			<rect y="18.9" class="st1" width="71.9" height="3.8"/>
			<rect y="22.7" class="st0" width="71.9" height="3.8"/>
			<rect y="26.5" class="st1" width="71.9" height="3.8"/>
			<rect y="30.3" class="st0" width="71.9" height="3.8"/>
			<rect y="34.1" class="st1" width="71.9" height="3.8"/>
			<rect y="37.9" class="st0" width="71.9" height="3.8"/>
			<rect y="41.7" class="st1" width="71.9" height="3.8"/>
			<rect y="45.5" class="st0" width="71.9" height="3.8"/>
			<rect y="49.3" class="st1" width="71.9" height="3.8"/>
			<rect class="st2" width="53.1" height="30.3"/>
			<g class="st3">
				<defs>
					<rect id="SVGID_3_" width="71.9" height="53.1"/>
				</defs>
				<clipPath id="SVGID_4_">
					<use xlink:href="#SVGID_3_"  style="overflow:visible;"/>
				</clipPath>
				<path class="st4" d="M14.2,15.2c0-5.5,4.5-10,9.9-10c1.9,0,3.7,0.5,5.2,1.5c-2-1.8-4.7-2.9-7.6-2.9c-6.3,0-11.4,5.1-11.4,11.4
					c0,6.3,5.1,11.4,11.4,11.4c2.9,0,5.6-1.1,7.6-2.9c-1.5,0.9-3.3,1.5-5.2,1.5C18.7,25.1,14.2,20.7,14.2,15.2"/>
				<polygon class="st4" points="36.9,15.2 42.4,13.1 36.6,13.5 40.6,9.3 35.5,12.2 37.3,6.6 34,11.5 33.2,5.7 32.6,9.8 32.4,11 
					32.3,11.5 29,6.6 30.8,12.2 25.8,9.3 29.7,13.5 23.9,13.1 29.4,15.2 23.9,17.3 29.7,16.8 25.8,21.1 30.8,18.1 29,23.7 
					32.3,18.9 32.4,19.3 32.6,20.5 33.2,24.6 34,18.9 37.3,23.7 35.5,18.1 40.6,21.1 36.6,16.8 42.4,17.3 				"/>
			</g>
		</g>
	</g>
</g>
<rect y="53.1" class="st5" width="71.9" height="3.8"/>
<rect y="56.8" class="st6" width="71.9" height="3.8"/>
<rect y="60.6" class="st5" width="71.9" height="3.8"/>
<rect y="64.4" class="st6" width="71.9" height="3.8"/>
<rect y="68.2" class="st5" width="71.9" height="3.8"/>
</svg>
