<svg xmlns="http://www.w3.org/2000/svg" viewBox="0 0 25 25" enable-background="new 0 0 25 25"><style type="text/css">.st0{fill:#F8E71C;stroke:#F8E71C;stroke-width:2;stroke-miterlimit:10;} .st1{fill:#000000;}</style><circle class="st0" cx="12.5" cy="12.5" r="11.5"/><path class="st1" d="M17 14.7c-.1 1.5-.5 2.6-1.2 3.4s-1.8 1.1-3.2 1.1c-1.5 0-2.6-.5-3.4-1.4-.8-1-1.2-2.3-1.2-4.1v-2.2c0-1.8.4-3.1 1.2-4.1.8-1 1.9-1.4 3.4-1.4 1.4-.2 2.4.2 3.2 1 .7.8 1.1 1.9 1.2 3.4h-2.6c0-.9-.2-1.5-.4-1.9-.3-.3-.8-.5-1.4-.5-.7 0-1.2.2-1.5.7-.3.5-.4 1.3-.5 2.4v2.4c0 1.3.1 2.2.4 2.6.3.5.8.7 1.5.7s1.2-.2 1.4-.5c.3-.3.4-.9.4-1.8H17z"/></svg>