<svg xmlns="http://www.w3.org/2000/svg" width="72" height="72" viewBox="0 -10.9 72 72"><style>.st0{fill:#00a551}.st1{fill:#fd0}.st2{fill:#004a8e}.st3{fill:#fff}</style><path class="st0" d="M0 30.7v30.4h72V30.7l-36 23zm0-11.2l36-23 36 23v-30.4H0z"/><path class="st1" d="M0 19.5v11.3l36 23 36-23V19.5l-36-23-36 23zm54.9 5.6c0 .9-.1 1.8-.2 2.6v.1c0 .1 0 .3-.1.4 0 .1 0 .3-.1.4 0 .1-.1.3-.1.4 0 .2-.1.3-.1.5 0 .1-.1.2-.1.3-.1.2-.1.5-.2.7v.1C51.6 38.4 44.5 44 36 44c-10.4 0-18.9-8.5-18.9-18.9 0-1.6.2-3.2.6-4.8.1-.3.1-.5.2-.8 0-.1.1-.2.1-.3.1-.2.1-.3.2-.5 0-.1.1-.3.1-.4.1-.1.1-.3.2-.4.1-.1.1-.3.2-.4 0 0 0-.1.1-.1C21.6 10.8 28.3 6.2 36 6.2c10.4 0 18.9 8.5 18.9 18.9z"/><path class="st2" d="M54.1 30.6zm.5-1.9c0 .1-.1.3-.1.4 0-.1 0-.3.1-.4zm.1-.9c0 .1 0 .3-.1.4.1-.1.1-.2.1-.4zm-.3 1.8c0 .1-.1.2-.1.3 0-.1 0-.2.1-.3zM18.5 18c.1-.1.1-.3.2-.4-.1.1-.2.2-.2.4zm-.6 1.6c0-.1.1-.2.1-.3 0 0 0 .1-.1.3zm.3-.8c0-.1.1-.3.1-.4 0 .1-.1.2-.1.4zm-.5 1.5c-.4 1.5-.6 3.1-.6 4.8C17.1 35.5 25.6 44 36 44c8.5 0 15.6-5.6 18-13.3-7.6-6.9-17.8-11-28.8-11-2.6 0-5.1.2-7.5.6zm2.6 11.5l-.4-.3-.4.3.1-.5-.4-.3h.5l.2-.5.2.5h.5l-.4.3.1.5zm.8-9.5l-.5-.3-.5.3.2-.6-.5-.4h.6l.2-.5.2.5h.6l-.4.4.1.6zm1.6 7.9l-.5-.3-.5.3.2-.6-.4-.4h.6l.2-.5.2.5h.6l-.4.4v.6zm1.8-1.5l-.2-.1-.2.1.1-.3-.2-.2h.3l.1-.2.1.2h.3l-.2.2-.1.3zM36.2 40l-.2-.1-.2.1v-.2l-.1-.1h.2l.1-.2.1.2h.2l-.1.1v.2zm9.6-.2l-.3-.2-.3.2.1-.4-.3-.2h.4l.1-.4.1.4h.4l-.3.2.1.4zm5.7-8.2l.1-.4.1.4h.4l-.3.2.1.4-.3-.2-.3.2.1-.4-.3-.2h.4zm-.9 1.7l-.4.3.1.5-.3-.4-.4.3.1-.5-.4-.3h.5l.2-.5.2.5.4.1zm-1.6-2l.2-.5.2.5h.6l-.5.4.2.6-.5-.3-.5.3.2-.6-.4-.4h.5zm-.2 3.7l.2-.5.2.5h.5l-.4.3.1.5-.4-.3-.4.3.1-.5-.4-.3h.5zm-1.6.8l.1-.4.1.4h.4l-.3.2.1.4-.3-.2-.3.3.1-.4-.3-.2.4-.1zm-1.9-.3l.1-.4.1.4h.4l-.3.2.1.4-.3-.2-.3.2.1-.4-.3-.2h.4zm0 1.7l.2-.5.2.5h.5l-.4.3.1.5-.4-.3-.4.3.1-.5-.4-.3h.5zM43.2 36l.1-.4.1.4h.4l-.3.2.1.4-.3-.2-.3.2.1-.4-.3-.2h.4zm-1.4 1.8h.5l-.4.3.1.5-.4-.3-.4.3.1-.5-.3-.2h.5l.2-.5.1.4zM41 24l.1-.3.1.4h.4l-.3.2.1.4-.3-.2-.3.2.1-.4-.3-.3h.4zm-.6 11.5l.1-.4.1.4h.4l-.3.2.1.4-.3-.2-.3.2.1-.4-.3-.2h.4zm-2.7-5.8l.2-.5.2.5h.5l-.5.3.1.5-.4-.3-.4.3.1-.5-.4-.3h.6zm-1.2 4.6L36 34l-.5.3.2-.6-.4-.4h.6l.2-.5.2.5h.6l-.4.4v.6zm-.7-6.2l.2-.5.2.5h.5l-.4.3.1.5-.4-.3-.4.3.1-.5-.4-.3h.5zm-.7 2.6l.1-.2.1.2h.3l-.2.2.1.3-.3-.2-.2.1.1-.3-.2-.2.2.1zM34 29.6l.1-.4.1.4h.4l-.3.2.1.4-.3-.2-.3.2.1-.4-.3-.2h.4zm-5.3-4.4l.2-.5.2.5h.5l-.4.3.1.5-.4-.3-.4.3.1-.5-.4-.3h.5zm-.5 9.8l.2-.5.2.5h.6l-.4.4.2.6-.5-.3-.5.2.2-.6-.5-.3h.5zm-2.1-4l.2-.5.2.5h.5l-.4.3.1.5-.4-.3-.4.3.1-.5-.4-.3h.5zm-.4 2l.1-.4.1.4h.4l-.3.3.1.4-.3-.2-.3.2.1-.4-.3-.3h.4zM18.7 17.5c2.1-.3 4.3-.5 6.5-.5 5.6 0 11 1 16 2.9l.1-.5-.4-.4h.6l.2-.5.2.5h.6l-.5.4.1.6-.5-.3-.4.3c5 1.8 9.5 4.5 13.5 7.9.1-.9.2-1.7.2-2.6 0-10.4-8.5-18.9-18.9-18.9-7.7-.2-14.4 4.4-17.3 11.1z"/><path class="st3" d="M24.8 17.9s-.1-.1-.2-.1h-.5V19h.5c.1 0 .1 0 .1-.1 0 0 .1-.1.1-.2v-.6c.1-.1 0-.1 0-.2zm14 2s-.1 0-.2-.1l-.3-.1-.1.4.2.1c.2 0 .3.1.3.1h.1l.1-.1v-.1c0-.1 0-.2-.1-.2zm-2.3-.6s-.1 0-.2-.1h-.2l-.1.4h.5s.1 0 .1-.1l.1-.1v-.2c-.1.1-.1.1-.2.1zm16.2 9.4c.1.1.2.1.4.1.1 0 .3-.1.4-.3.1-.2.2-.3.2-.4 0-.1-.1-.2-.2-.3-.1-.1-.2-.1-.4-.1-.1 0-.3.1-.4.3-.1.2-.2.3-.2.4 0 .1.1.2.2.3zm-11.7-8c-.1-.1-.3 0-.4 0-.1.1-.2.2-.3.4-.1.2-.1.3 0 .5 0 .1.1.2.3.3h.4c.1-.1.2-.2.3-.4.1-.2.1-.3 0-.5 0-.2-.1-.3-.3-.3zm-21-2.4c-.1-.1-.2-.1-.4-.1-.1 0-.3.1-.3.2-.1.1-.1.3-.1.5s.1.3.2.4c.1.1.2.1.4.1.1 0 .2-.1.3-.2.1-.1.1-.3.1-.5s-.1-.3-.2-.4zM41.2 19.9c-5-1.9-10.3-2.9-16-2.9-2.2 0-4.4.2-6.5.5 0 0 0 .1-.1.1-.1.1-.1.3-.2.4-.1.1-.1.3-.2.4 0 .1-.1.3-.1.4-.1.2-.1.3-.2.5 0 .1-.1.2-.1.3-.1.3-.2.5-.2.8 2.4-.4 4.9-.6 7.5-.6 11.1 0 21.2 4.2 28.8 11v-.1c.1-.2.1-.5.2-.7 0-.1.1-.2.1-.3 0-.2.1-.3.1-.5 0-.1.1-.3.1-.4 0-.1.1-.3.1-.4 0-.1 0-.3.1-.4v-.1a40.5 40.5 0 0 0-13.4-8zm-20.8-.5c-.1.2-.3.3-.6.3s-.5 0-.6-.2c-.2-.1-.3-.3-.3-.6v-.5c0-.1.1-.2.1-.3l.2-.2c.1-.1.2-.1.4-.1.3 0 .5 0 .6.2.2.1.3.4.3.6.1.4.1.6-.1.8zm2.3 0l-.3-.4-.2-.2-.1-.1h-.3l.1.7h-.4l-.1-1.7.7-.1h.4c.1 0 .2.1.2.2.1.1.1.2.1.3 0 .1 0 .2-.1.3-.1.1-.2.2-.3.2.1 0 .1.1.2.1s.1.1.2.3l.2.3-.3.1zm2.6-.6c0 .1-.1.2-.2.3-.1.1-.1.1-.2.1h-1l-.1-1.7h.9c.1 0 .2.1.3.1.1.1.1.2.2.3 0 .1.1.2.1.4v.5zm2.2-.9h-.9v.4h.9v.3h-.9v.5h1v.3l-1.3-.1.1-1.7 1.3.1-.2.2zm2.6 1.6h-.3l.1-1.4-.5 1.3h-.3l-.2-1.4-.1 1.4h-.3l.2-1.7h.5l.2 1.2.4-1.2h.5l-.2 1.8zm3.5-.7l-.8-.1-.1.3.8.1v.3l-.8-.1-.1.4.9.1v.3l-1.2-.2.3-1.5 1.1.2-.1.2zm3.4.8c0 .1-.1.2-.1.2-.1.1-.1.1-.2.1h-.2c-.1 0-.2 0-.4-.1l-.2-.1-.2.6-.3-.1.4-1.7.5.1c.2.1.3.1.4.1.1.1.2.1.2.2.1.5.1.6.1.7zm2.3.7c0 .1-.1.2-.2.3-.1.1-.2.1-.4.1.1.1.1.1.1.2s.1.2.1.3l.1.4-.4-.1-.1-.4c0-.2-.1-.3-.1-.3s0-.1-.1-.1c0 0-.1 0-.2-.1H38l-.2.7-.2-.3.5-1.7.7.2c.2.1.3.1.4.2.1.1.1.1.1.2v.4zm13.1 7.4l.3-.3c.1 0 .2-.1.3-.1h.3c.1 0 .2.1.3.2.2.2.3.3.3.6 0 .2-.1.4-.2.7-.2.2-.4.3-.6.4-.2 0-.4 0-.6-.2-.2-.2-.3-.4-.3-.6 0-.3 0-.5.2-.7zm-2-1.1l.3.2c0 .1-.1.2 0 .3 0 .1.1.2.2.2.1.1.2.1.2.1.1 0 .1 0 .2-.1v-.1s0-.1-.1-.1l-.2-.2c-.1-.1-.2-.3-.2-.4 0-.1 0-.3.1-.4l.2-.2h.3c.1 0 .2.1.3.2.2.1.3.3.3.4 0 .1 0 .3-.1.4l-.3-.2c0-.1.1-.2 0-.2 0-.1-.1-.1-.1-.2-.1-.1-.2-.1-.2-.1s-.1 0-.1.1v.1c0 .1.1.2.2.3.1.1.2.2.2.3 0 .1.1.2.1.3 0 .1 0 .2-.1.3l-.2.2h-.3c-.1 0-.2-.1-.3-.2-.2-.1-.3-.3-.3-.4-.2-.3-.2-.4-.1-.6zm-1.9-1.2l.3.2c0 .1-.1.2 0 .3 0 .1.1.1.2.2s.2.1.3.1c.1 0 .1 0 .2-.1V26s0-.1-.1-.1l-.2-.2c-.1-.1-.2-.3-.2-.4 0-.1 0-.3.1-.4 0-.1.1-.1.2-.2h.3c.1 0 .2.1.3.1.2.1.3.2.3.4 0 .1 0 .3-.1.4l-.3-.2v-.2c0-.1-.1-.1-.2-.2s-.2-.1-.2-.1-.1 0-.1.1v.1c0 .1.1.1.2.3.1.1.2.2.2.3 0 .1.1.2.1.3 0 .1 0 .2-.1.3l-.2.2c-.1 0-.2.1-.3 0-.1 0-.2-.1-.4-.2s-.3-.3-.3-.4c-.1-.2 0-.4 0-.5zm-1.2-2.1l1.1.6-.1.3-.8-.5-.3.3.8.4-.1.3-.8-.4-.2.4.8.5-.1.3-1.1-.7.8-1.5zm-2.2-1.2l.7.3c.2.1.3.2.3.2.1.1.1.1.1.2s0 .2-.1.3c-.1.1-.1.2-.2.2h-.4c0 .1.1.1.1.2v.7l-.4-.2-.1-.5v-.3s0-.1-.1-.1l-.1-.1h-.1l-.3.6-.3-.2.9-1.3zm-2.7-.3c.1-.2.2-.3.3-.4.1-.1.3-.2.4-.2.1 0 .3 0 .4.1.2.1.3.2.4.3.1.2.1.4.1.5l-.3-.1v-.2c0-.1-.1-.1-.2-.2s-.3-.1-.4 0l-.3.3c-.1.2-.1.3-.1.5 0 .1.1.2.3.3.1 0 .1 0 .2.1h.2l.1-.2-.4-.2.1-.3.7.3-.3.6h-.4c-.1 0-.3 0-.4-.1-.2-.1-.3-.2-.4-.3-.1-.1-.1-.3-.1-.4 0-.1 0-.2.1-.4zm-.8-.3c-.1.3-.2.4-.4.5-.2.1-.4.1-.7 0-.2-.1-.4-.2-.5-.4-.1-.2-.1-.4 0-.7.1-.2.1-.3.2-.4l.2-.2c.1 0 .2-.1.3-.1.1 0 .2 0 .4.1s.4.2.5.4c.1.3.1.5 0 .8zM45.6 23.2h.1l.1-.1V23s0-.1-.1-.1c0 0-.1-.1-.2-.1l-.2-.1-.2.4.2.1c.2-.1.3 0 .3 0zm-23.1-5c0-.1 0-.1-.1-.1l-.1-.1h-.6v.4h.6s.1 0 .1-.1c.1 0 .1-.1.1-.1zm18.7 1.7l.4-.3.5.4-.1-.6.4-.3-.6-.1-.1-.5-.3.5h-.5l.4.4-.1.5zm-.4 4.7l.3-.2.3.3-.1-.4.4-.2-.4-.1-.2-.3-.1.3h-.4l.3.3zm10.5 7.6l.3-.2.4.2-.1-.4.2-.2h-.3l-.2-.4-.1.4h-.4l.3.2zm-2.5 0l.4-.3.5.3-.1-.5.4-.4h-.6l-.2-.6-.2.6h-.5l.4.4zm1 1l-.4.1.3.3-.1.4.4-.3.4.3-.1-.4.3-.3-.4-.1-.2-.4zm-1.3 2.6l.4-.3.4.3-.1-.5.4-.3h-.5l-.2-.5-.1.5h-.5l.4.3zm-1.5.7l.3-.2.4.2-.1-.4.3-.2-.4-.1-.2-.3-.1.3-.4.1.3.2zm-1.9-.4l.3-.2.4.2-.1-.3.3-.3h-.4l-.2-.3-.1.3h-.4l.3.3zm.5 3l-.2-.3-.1.3-.4.1.3.2-.1.4.3-.2.4.2-.1-.4.3-.2zM43 36.6l.3-.2.3.2-.1-.3.3-.3h-.3l-.2-.4-.1.4h-.4l.3.3zm2.1 1.4l.3-.3.4.3-.1-.5.4-.3h-.5l-.2-.4-.1.4h-.5l.4.3zm-4.1-.1l.4.2-.1.5.4-.3.4.3-.2-.5.4-.2-.5-.1-.1-.4-.2.4zm-.8-1.8l.3-.2.3.2-.1-.3.3-.3h-.4l-.1-.3-.1.3H40l.3.3zm-4.1 3.6l-.1-.2-.1.2h-.2l.2.1-.1.2.2-.1.2.1-.1-.2.2-.1zm.1-6.3l-.2-.5-.2.5h-.6l.5.4-.2.5.5-.3.5.3-.2-.5.5-.4zm1.3-3l.4-.2.4.2-.2-.4.4-.3H38l-.1-.5-.2.5h-.5l.4.3zm-2.5.7l.2-.1.3.1-.1-.2.2-.2h-.3l-.1-.3-.1.3h-.2l.2.2zm.6-2.2l.4-.3.4.3-.1-.5.3-.3h-.4l-.2-.4-.2.4h-.4l.3.3zm-1.8 1.3l.3-.2.3.2-.1-.4.3-.2h-.4l-.1-.4-.1.4h-.4l.3.2zM28 35.9l.4-.3.5.3-.1-.6.4-.3h-.6l-.2-.6-.2.6h-.5l.4.3zm-2.5-2.3l.3-.2.3.2-.1-.3.3-.3h-.4l-.1-.3-.1.3h-.4l.3.3zm.3-1.9l.4-.2.4.2-.1-.4.4-.3h-.5l-.2-.5-.1.5h-.5l.4.3zm-5.7-.6l-.2-.5-.1.5h-.5l.4.3-.2.4.4-.2.4.2-.1-.4.4-.3zm2.4-1.8l-.2-.6-.2.6h-.6l.4.3-.1.6.5-.3.4.3-.1-.6.4-.3zm1.9-1l-.1-.3-.1.3h-.3l.2.2v.2l.2-.1.2.1v-.2l.2-.2zm4.1-2.3l.4-.3.4.3-.2-.5.4-.3H29l-.1-.4-.2.4h-.5l.4.3zm-7.7-4.7l-.2-.5-.2.5-.6.1.5.3-.2.6.5-.4.5.4-.2-.6.4-.3z"/><path class="st0" d="M20.3 18c-.2-.1-.4-.2-.6-.2-.1 0-.3.1-.4.1-.1 0-.1.1-.2.2s-.1.2-.1.3c0 .1-.1.3 0 .5 0 .3.1.5.3.6.2.1.4.2.6.2.3 0 .4-.1.6-.3.1-.2.2-.4.2-.7-.2-.3-.3-.5-.4-.7zm-.2 1.2c-.1.1-.2.2-.3.2-.1 0-.3 0-.4-.1-.1-.1-.2-.2-.2-.4s0-.4.1-.5c.1-.1.2-.2.3-.2.1 0 .3 0 .4.1.1.1.2.2.2.4s0 .4-.1.5zm2.5-.4c-.1 0-.1-.1-.2-.1.2 0 .3-.1.3-.2.1-.1.1-.2.1-.3 0-.1 0-.2-.1-.3l-.2-.2h-.4l-.7.1.1 1.7h.4l-.1-.7h.3s.1 0 .1.1l.2.2.3.4h.4l-.2-.5c-.1-.1-.2-.2-.3-.2zm-.2-.4h-.6V18h.6c.1 0 .1 0 .1.1l.1.1c-.1 0-.1.1-.2.2.1-.1 0 0 0 0zm2.6-.7c-.1-.1-.2-.1-.3-.1h-.9l.1 1.7h1c.1 0 .2-.1.2-.1.1-.1.1-.2.2-.3v-.4c0-.2 0-.3-.1-.4 0-.2-.1-.3-.2-.4zm-.1 1c0 .1 0 .1-.1.2l-.1.1h-.5v-1.2h.5c.1 0 .1 0 .2.1 0 0 .1.1.1.2v.3c-.1.1-.1.2-.1.3zm1.3.6h1.3V19h-.9v-.5l.9.1v-.3l-.9-.1v-.3h.9l.1-.3-1.3-.1zm3.1-.4l-.2-1.2h-.5l-.2 1.7h.3l.1-1.3.3 1.3.3.1.5-1.4-.2 1.4h.4l.1-1.7h-.5zm2.9.9l1.2.2v-.2l-.8-.2.1-.4.7.1.1-.2-.8-.1.1-.4.8.2v-.3l-1.1-.2zm4.6-.8c-.1 0-.2-.1-.4-.1l-.5-.1-.4 1.7.3.1.2-.6.2.1c.2 0 .3.1.4.1h.2c.1 0 .1-.1.2-.1.1-.1.1-.1.1-.2v-.4c-.1-.3-.2-.4-.3-.5zm-.1.5s0 .1-.1.1c0 0-.1 0-.1.1H36l.1-.5h.2c.1 0 .2.1.2.1.1 0 .1.1.1.1.1 0 .1.1.1.1zm2.5.3c-.1-.1-.2-.1-.4-.2l-.7-.2-.5 1.6.3.1.2-.7h.1c.1 0 .1 0 .2.1l.1.1s.1.1.1.3l.1.4.4.1-.1-.3c0-.2-.1-.3-.1-.3 0-.1-.1-.1-.1-.2.2 0 .3 0 .4-.1.1-.1.2-.2.2-.3v-.3c-.1 0-.2-.1-.2-.1zm-.3.4s0 .1-.1.1h-.1s-.1 0-.3-.1l-.2-.1.1-.4.3.1c.1 0 .2.1.2.1.1 0 .1.1.1.1.1.1.1.1 0 .2zm2.2.2c-.1 0-.3-.1-.4-.1-.1 0-.2 0-.3.1-.1 0-.2.1-.2.2-.1.1-.2.2-.2.4-.1.3-.1.5 0 .7.1.2.3.3.5.4.2.1.5.1.7 0 .2-.1.3-.3.4-.5.1-.3.1-.5 0-.7-.1-.3-.2-.4-.5-.5zm.2 1c-.1.2-.2.3-.3.4-.1.1-.2.1-.4 0-.1 0-.2-.1-.3-.3V21c.1-.2.2-.3.3-.4.1-.1.2-.1.4 0 .1.1.2.1.3.3v.5zm1.5 1.6c.1.1.3.1.4.1h.4l.3-.6-.7-.3-.1.3.4.2-.1.2h-.2c-.1 0-.2 0-.2-.1l-.3-.3c0-.1 0-.3.1-.5s.2-.3.3-.3c.1-.1.3 0 .4 0 .1 0 .2.1.2.2s.1.2 0 .2l.3.1c0-.2 0-.3-.1-.4-.1-.1-.2-.2-.4-.3-.2-.1-.3-.1-.4-.1-.2 0-.3.1-.4.2-.1.1-.2.2-.3.4-.1.2-.1.3-.1.5s.1.3.1.4c.1-.1.3 0 .4.1zm2.2.2c.1.1.2.1.2.1s0 .1.1.1v.3l.1.5.4.2v-.7c0-.1-.1-.1-.1-.2.1 0 .3.1.4 0 .1 0 .2-.1.2-.2s.1-.2.1-.3c0-.1 0-.2-.1-.2-.1-.1-.2-.1-.3-.2l-.7-.3-.8 1.5.3.2.2-.8zm.3-.6l.2.1c.1.1.2.1.2.1l.1.1v.1l-.1.1h-.1s-.1 0-.3-.1l-.2-.1.2-.3zm2.4 2.6l-.8-.5.2-.4.8.4.1-.2-.8-.5.2-.3.9.5.1-.3-1.1-.6-.9 1.5 1.2.6zm1.1 1.1c.1.1.2.1.4.2h.3c.1 0 .2-.1.2-.2.1-.1.1-.2.1-.3 0-.1 0-.2-.1-.3 0-.1-.1-.2-.2-.3-.1-.1-.2-.2-.2-.3V25l.1-.1c.1 0 .1 0 .2.1l.2.2v.2l.3.2c.1-.1.1-.3.1-.4 0-.1-.2-.3-.3-.4-.1-.1-.2-.1-.3-.1h-.3c-.1 0-.2.1-.2.2-.1.1-.1.2-.1.4 0 .1.1.2.2.4l.2.2c0 .1.1.1.1.1v.1c0 .1-.1.1-.2.1s-.2 0-.3-.1l-.2-.2v-.3l-.3-.2c-.1.2-.1.3-.1.5l.4.4zm1.8 1.2c.1.1.2.1.3.2h.3c.1 0 .2-.1.2-.2.1-.1.1-.2.1-.3 0-.1 0-.2-.1-.3 0-.1-.1-.2-.2-.3-.1-.1-.2-.2-.2-.3v-.1l.1-.1c.1 0 .1 0 .2.1s.1.1.1.2v.2l.3.2c.1-.1.1-.3.1-.4 0-.1-.1-.3-.3-.4-.1-.1-.2-.1-.3-.2h-.3c-.1 0-.2.1-.2.2-.1.1-.1.2-.1.4 0 .1.1.2.2.4l.2.2c0 .1.1.1.1.1v.1c0 .1-.1.1-.2.1s-.2 0-.2-.1l-.2-.2v-.3l-.3-.2c-.1.2-.1.3-.1.5.3.2.4.4.5.5zm1.9 1.4c.2.2.4.2.6.2.2 0 .4-.2.6-.4.2-.2.3-.4.2-.7 0-.2-.1-.4-.3-.6-.1-.1-.2-.1-.3-.2H53c-.1 0-.2 0-.3.1l-.3.3c-.2.2-.2.4-.2.7 0 .3.1.5.3.6zm.2-1c.1-.2.3-.2.4-.3.1 0 .3 0 .4.1.1.1.2.2.2.3 0 .1-.1.3-.2.4-.1.2-.3.2-.4.3-.1 0-.3 0-.4-.1-.1-.1-.2-.2-.2-.3 0-.1.1-.2.2-.4z"/></svg>