<?xml version="1.0" encoding="utf-8"?>
<svg version="1.1" id="Layer_1" xmlns="http://www.w3.org/2000/svg" xmlns:xlink="http://www.w3.org/1999/xlink" x="0px" y="0px"
	 viewBox="-34 24.2 72 24.5" style="enable-background:new -34 24.2 72 24.5;" xml:space="preserve">
<style type="text/css">
	.st0{fill:#676767;}
</style>
<path class="st0" d="M36.4,29.1v-4h-1c0,0-0.7,0-1,0.7c-0.2,0.8-1.1,3.3-1.1,3.3v0.6h-3.1v-0.6c-2.3,0-2.8-2.9-2.8-2.9h-2.7v0.5
	h-2.3v-0.5h-0.6c0,0-0.2-0.3-0.5-0.3c0,0-0.1,0-0.3,0c-1.4,0-6.5,0-7.9,0c-0.2,0-0.3,0-0.3,0c-0.3,0-0.5,0.4-0.5,0.4v-1.5H8.5H6.9
	v-0.2c0-0.2-0.1-0.3-0.3-0.3c-0.2,0-0.3,0.1-0.3,0.3v0.2v0.8v0.3c0,0-14.5,0-15.7,0c-1.2,0-1.8,1.6-1.8,1.6c0,0-0.1,0-0.1,0
	c-1.2,0-1.8,1.6-1.8,1.6l-0.7,0.2l-1.4,0.4l-3.6,1c-0.8,0.2-1.9,0.1-2.4-0.2c-0.5-0.3-1.6-0.5-2.5-0.4l-9.6,1c0,0-0.8-0.1-0.8,0.6
	c0,0.7,0,7.9,0,8.3s0.8,0.4,0.8,0.4s0.6,0,1.4,0c0.8,0,2.1-0.3,2.9-0.6l13.8-5.8l0.9-0.4l0.9,0.8l0.4,0.5c0.6,0.9-0.2,0.8-0.5,1.8
	c-0.7,2-1.8,6.1-1.8,6.2c-0.1,0.4,0.2,0.8,0.5,0.8c0,0,0,0,0,0c0.1,0,4.1,0.7,4.1,0.7c0.2,0,0.3-0.2,0.3-0.4c0-0.1,0-0.1,0-0.1
	c0,0,0,0,0,0l-0.3-0.4c0-0.1,0-0.1,0-0.2l0,0c0,0,0,0,0,0l0,0l0.8-1.3c0,0,1.2-5,1.2-5.3c0,0,0.1-0.6,0.7-0.9c0,0,0,0,0,0
	c0.1,0.5,0.1,0.9,0.1,0.9c0.1,0.4,0.5,0.6,0.9,0.6h0.7h4.1c0.4,0,0.8-0.3,0.9-0.6l0,0l0,0c0,0,0,0,0,0l0.1-0.8h0.5
	C0,39.3,2,44,9.5,48.8l0.7-1.2l1.4-2.2l0.3-0.5l0.9-1.5c-7.3-4.6-7.2-8.1-7.1-11c0,0,0,0,0-0.1h2.9v0h13.3v-0.2h0.6v-0.5h6.8v0.7
	h1.2v-0.7h6.1v-0.8H38v-1.9L36.4,29.1L36.4,29.1z M-1.8,35.7c-0.1,0.4-0.5,0.8-0.9,0.8h-3.4c-0.4,0-0.8-0.4-0.8-0.8l0-2.3
	c0-0.4,0.4-0.8,0.8-0.8h0.6c-0.1,0-0.1,0-0.2,0c0,0.1,0,0.1,0,0.2c0,0.1,0,0.3,0,0.4c0,0.1,0,0.3,0,0.4l0,0.1c0,0,0,0.1,0,0.1
	c0,0,0,0.1,0,0.1c0,0,0,0.1,0,0.1c0,0,0,0.1,0,0.1c0,0,0,0.1,0,0.1c0,0.1,0,0.1,0,0.2c0,0,0,0.1,0,0.1c0,0,0,0,0,0c0,0,0,0,0,0
	c0,0.1,0,0.1,0,0.2c0,0.1,0,0.1,0,0.1c0,0,0,0,0,0.1c0,0,0,0,0,0.1c0,0,0,0.1,0,0.1c0,0,0,0.1,0,0.1c0,0,0,0.1,0,0.1
	c0,0,0,0.1,0,0.1c0,0.1,0.1,0.2,0.1,0.2c0.1,0.2,0.3,0.3,0.5,0.2c0.2-0.1,0.3-0.3,0.3-0.5l0,0c0,0,0-0.1,0-0.1c0,0,0,0,0-0.1
	c0,0,0-0.1,0-0.1c0,0,0-0.1,0-0.1c0,0,0-0.1,0-0.1c0,0,0,0,0-0.1c0,0,0,0,0-0.1c0,0,0-0.1,0-0.1c0,0,0-0.1,0-0.1c0,0,0,0,0,0
	c0,0,0,0,0,0c0,0,0,0,0-0.1c0,0,0-0.1,0-0.2c0,0,0-0.1,0-0.1c0,0,0-0.1,0-0.1c0,0,0-0.1,0-0.1c0,0,0-0.1,0-0.1c0,0,0-0.1,0-0.1
	l0-0.1c0-0.1,0-0.2,0-0.3c0-0.1,0-0.2,0-0.3c0-0.1,0-0.2,0.1-0.3c0,0,0-0.1,0-0.1h2.4c0.4,0,0.8,0.3,0.7,0.8L-1.8,35.7z M22.4,28.3
	h4.2c0.2,0,0.4,0.2,0.4,0.4c0,0.2-0.2,0.4-0.4,0.4h-4.2V28.3z M29,31.2h-6.6v-0.4H29c0.1,0,0.2,0.1,0.2,0.2
	C29.2,31.1,29.1,31.2,29,31.2z M33.1,31.2h-2.5c-0.1,0-0.2-0.1-0.2-0.2c0-0.1,0.1-0.2,0.2-0.2h2.5c0.1,0,0.2,0.1,0.2,0.2
	C33.3,31.1,33.2,31.2,33.1,31.2z M35.8,29h-1.9l0.6-1.8h1.3V29z"/>
</svg>
