<svg xmlns="http://www.w3.org/2000/svg" viewBox="0 0 25 25" enable-background="new 0 0 25 25">
    <style type="text/css">.st0{fill:#F62000;stroke:#F62000;stroke-width:1;stroke-miterlimit:10;} .st1{fill:#ffffff;}
    </style>
    <circle class="st0" cx="12.5" cy="12.5" r="11.5"/>
    <path class="st1"
          d="M8.9 19V6h4c1.4 0 2.4.3 3.1.9.7.6 1 1.5 1 2.7 0 .7-.1 1.2-.4 1.7-.3.5-.7.8-1.2 1 .6.2 1 .5 1.3 1 .3.5.5 1.1.5 1.9 0 1.3-.3 2.2-1 2.8-.7.6-1.7 1-3 1H8.9zm2.6-7.6h1.4c1 0 1.5-.5 1.5-1.6 0-.6-.1-1-.4-1.3-.2-.3-.6-.4-1.2-.4h-1.4v3.3zm0 1.9v3.5h1.7c.5 0 .8-.1 1.1-.4.2-.3.4-.7.4-1.2 0-1.2-.4-1.8-1.3-1.8h-1.9z"/>
</svg>