<?xml version="1.0" encoding="utf-8"?>
<!-- Generator: Adobe Illustrator 19.1.0, SVG Export Plug-In . SVG Version: 6.00 Build 0)  -->
<svg version="1.1" id="Layer_1" xmlns="http://www.w3.org/2000/svg" xmlns:xlink="http://www.w3.org/1999/xlink" x="0px" y="0px"
	 viewBox="-34 29.4 72 14.1" style="enable-background:new -34 29.4 72 14.1;" xml:space="preserve">
<style type="text/css">
	.st0{fill:#ffffff;}
</style>
<path class="st0" d="M38,35.6v-1.4H3.9c0,0-5.2-0.3-5.9-0.3c-0.1-0.3-0.1-0.3-0.1-0.3h-0.5l0-0.4h1.3c0,0,2,0.8,5.1,0.8
	c0.3,0,0.8,0,0.8,0v-3.5c0,0-0.5,0-0.8,0c-2.1,0.1-4.9,1-4.9,1c-1.5,0-1.5,0-1.5,0v-0.1l-0.9,0l0,0.2h-1.7l0-2.3h-1.5l0,2.3l-1.6,0
	v-0.2l-0.7,0l0,0.2l-1.6-0.1l-0.5-0.2l-0.7,0l-0.1,0.1l-0.3,0l0-0.3l-2.1,0c0,0-1.2-0.1-1.5-0.2c0,0.5,0,2.6,0,2.6s0.3,0,3.7-0.2
	c0-0.1,0.3-0.2,0.3-0.2l0.2,0.2l1,0c0,0,0-0.3,0.5-0.3c0.5,0,1.2,0,1.2,0v0.5l-0.5,0v0.3l-0.9,0.1l-0.2,0.1h-1.1l-0.2,0.1l-0.9,0
	c0,0.1,0,1-0.5,1.3c-0.5,0.2-2,1.1-3.6,1c-0.3,0-0.7-0.7-0.9-0.8c-0.4-0.2-15.8-0.1-15.8-0.1s-0.2,1.5,0.4,2.8c0,2,0,4.9,0,4.9
	l13.8-3.1c0,0,0.7-0.3,0.5,0.5c0.9,0.5,1.9,0.9,2.8,1c0.4-0.1,0.5-3.6,2.6-3.5c0,0,0.4,0,0.5,1c0.2,1.1,1.6,1,2.6,0.9
	c0.5-0.2,0.7-0.9,0.7-1.6c0.2-0.1-0.1-0.9,1.5-0.6c1.8,0,19-0.7,19-0.7l0.3,0.4l0.5,0.2c0,0,0.9,1.5,3,1.3c1.6-0.2,2.4-0.6,2.4-0.6
	l7.1-0.1c0,0,0.9,0,2,0c0.2,0,1.2,0.5,1.2-0.4s-1.2-0.4-1.2-0.4l-1.2,0h-3L21,37.2h-3.4l0.1-1.6L38,35.6L38,35.6z M-11.3,40.2
	c-0.6,0.1-1.3-0.1-1.6-0.4c-0.3-0.3-0.3-0.8-0.1-1.2c0.2-0.4,0.7-0.4,0.7-0.4s-0.8,0.9-0.1,1.6c0.4,0.4,0-0.1,0-0.5
	c-0.1-0.3,0.1-1.1,1.1-1.1c1,0,1,0.1,1.1,0.8C-10.3,39.8-10.7,40.1-11.3,40.2z"/>
</svg>
