<svg xmlns="http://www.w3.org/2000/svg" width="522.7" height="113.6" viewBox="-250 328.4 522.7 113.6" enable-background="new -250 328.4 522.7 113.6"><path fill="#fff" d="M-81.4 376.9c0 9.8-5.2 17.5-16.1 17.5-2.4 0-4.8-.5-7-1.4v14.7h-10.7v-45.9c4.6-1.7 9.4-2.9 14.9-2.9 13.9-.1 18.9 7.7 18.9 18zm-10.5.2c0-5-2.1-8.7-7.5-8.7-2 0-3.9.6-5 1v14.4c2 1 3.4 1.5 5.2 1.5 4.8-.1 7.3-3.5 7.3-8.2zM-48.1 370.1v20.3c-2.6 1.6-11.4 4-16.6 4-7.7 0-13.3-3.9-13.3-10.7 0-7.5 5.7-10.2 14-10.2 2.4 0 4 .2 5.5.4v-1.5c-.1-3.2-1.7-5.2-6.1-5.2-2.9 0-6.6.5-10.1 1.3l-1.1-8c1-.3 7.5-1.8 14.2-1.8 7.5.1 13.5 4.7 13.5 11.4zm-15.7 17.3c2.2 0 4.5-.9 5.4-1.3l-.1-6.4c-.5-.1-2-.3-3.9-.3-3.8 0-6.4 1.2-6.4 4.3 0 2.7 2.3 3.7 5 3.7zM-7 376.9c0 9.8-5.2 17.5-16.1 17.5-2.4 0-4.8-.5-7-1.4v14.7h-10.7v-45.9c4.6-1.7 9.4-2.9 14.9-2.9 13.9-.1 18.9 7.7 18.9 18zm-10.5.2c0-5-2.1-8.7-7.5-8.7-2 0-3.9.6-5 1v14.4c2 1 3.4 1.5 5.2 1.5 4.8-.1 7.3-3.5 7.3-8.2zM25.8 370.1v20.3c-2.6 1.6-11.4 4-16.6 4-7.7 0-13.3-3.9-13.3-10.7 0-7.5 5.7-10.2 14-10.2 2.4 0 4 .2 5.5.4v-1.5c-.1-3.2-1.7-5.2-6.1-5.2-2.9 0-6.6.5-10.1 1.3l-1.1-8c1-.3 7.5-1.8 14.2-1.8 7.5.1 13.5 4.7 13.5 11.4zm-15.7 17.3c2.2 0 4.5-.9 5.4-1.3l-.1-6.4c-.5-.1-2-.3-3.9-.3-3.8 0-6.4 1.2-6.4 4.3 0 2.7 2.3 3.7 5 3.7zM97.5 370.1v20.3c-2.6 1.6-11.4 4-16.6 4-7.7 0-13.3-3.9-13.3-10.7 0-7.5 5.7-10.2 14-10.2 2.4 0 4 .2 5.5.4v-1.5c-.1-3.2-1.7-5.2-6.1-5.2-2.9 0-6.6.5-10.1 1.3l-1.1-8c1-.3 7.5-1.8 14.2-1.8 7.6.1 13.5 4.7 13.5 11.4zm-15.6 17.3c2.2 0 4.5-.9 5.4-1.3l-.1-6.4c-.5-.1-2-.3-3.9-.3-3.8 0-6.4 1.2-6.4 4.3-.1 2.7 2.3 3.7 5 3.7zM64.7 359.7c-3.5 12.8-7.2 27.1-9.4 36.2-2.1 9.2-7 12.4-13.5 12.4-2.4 0-4.1-.6-5.6-1.1l1.9-7c8.1 2.9 9.2-5.4 9.2-6.3 0 0-6.7.8-8.5-5.2l-9.1-29.1h11.5l7.8 25.3h.1c1.7-8 3.5-16.8 5.2-25.3l10.4.1zM-170.7 336.1h-2.2c-48.2.9-41.2 81.8-41.2 81.8 2.5 24.9 30.5 18 34.6 1.5 1.1-4.6 5.6-14.2 13.7-16.2 22.4-5.4 27.7-22.9 27.6-33.6-.2-18.9-13.5-32.8-32.5-33.5zm-1.1 50.8c-10.2 0-18.4-8.2-18.4-18.4s8.2-18.4 18.4-18.4 18.4 8.2 18.4 18.4-8.2 18.4-18.4 18.4zM-161.4 364.8h-4.8c-.8 0-1.5-.7-1.5-1.5v-4.8c0-.8-.7-1.5-1.5-1.5h-5c-.8 0-1.5.7-1.5 1.5v4.8c0 .8-.7 1.5-1.5 1.5h-4.8c-.8 0-1.5.7-1.5 1.5v4.8c0 .8.7 1.5 1.5 1.5h4.8c.8 0 1.5.7 1.5 1.5v4.8c0 .8.7 1.5 1.5 1.5h5c.8 0 1.5-.7 1.5-1.5v-4.8c0-.8.7-1.5 1.5-1.5h4.8c.8 0 1.5-.7 1.5-1.5v-4.7c.1-.9-.6-1.6-1.5-1.6zM148.4 377.3c0 9-5.1 16.8-15.6 16.8-3.5 0-6.4-.8-9.1-2.1v15.3h-5v-45.6c4-1.7 8.5-2.9 13-2.9 12 0 16.7 7.7 16.7 18.5zm-5 .1c0-8.1-3.2-14.1-11.3-14.1-3.7 0-7.1 1.3-8.3 1.9v22.4c2.8 1.6 5.1 2.4 8.3 2.4 7.4-.1 11.3-5.9 11.3-12.6zM158.6 341.4h5l-.1 52.1h-4.8l-.1-52.1zM201.5 370.2v20c-2.2 1.3-9.6 4-15.3 4-7 0-12.2-3.9-12.2-10.1 0-7.9 6.3-10.6 15.1-10.6 3.2 0 5.6.3 7.4.6V371c0-4-2.6-7.8-8.9-7.8-3.2 0-7.2.7-11 1.7l-.7-3.8c2.8-.9 7.9-2.1 12.9-2.1 7.4-.1 12.7 4.7 12.7 11.2zm-14.9 20.4c4.2 0 8.6-1.9 9.9-2.6v-10.8c-1.2-.2-3.5-.5-6.7-.5-6.6 0-11.3 1.7-11.3 7.3 0 4.3 3.7 6.6 8.1 6.6zM210 403.2c.4 0 .8.1 1.1.1 1.9 0 3.4-.7 4.6-2.2 1.2-1.4 2.4-3.8 3.6-7.1l-12.9-34.4h5.6l9.8 27.5 9.8-27.5h5.6L224 394.1c-1.9 5.1-3.8 8.6-5.6 10.6-1.9 2-4 3-6.4 3-1.1 0-2.3-.1-3.4-.3"/></svg>