<?xml version="1.0" encoding="utf-8"?>
<!-- Generator: Adobe Illustrator 19.2.0, SVG Export Plug-In . SVG Version: 6.00 Build 0)  -->
<svg version="1.1" id="Isolation_Mode" xmlns="http://www.w3.org/2000/svg" xmlns:xlink="http://www.w3.org/1999/xlink" x="0px"
	 y="0px" viewBox="0 0 1295.3 509.9" style="enable-background:new 0 0 1295.3 509.9;" xml:space="preserve">
<style type="text/css">
	.st0{fill:#D5B77B;}
	.st1{fill:#FFE4AE;}
	.st2{fill:#B0945D;}
	.st3{fill:#FFFFFF;}
</style>
<rect x="25.5" y="25.6" class="st0" width="1244.3" height="203.9"/>
<polygon class="st1" points="25.5,229.4 25.5,229.4 25.5,25.6 1269.8,25.6 "/>
<path class="st2" d="M1282.6,12.7v229.4H12.7V12.7H1282.6 M1295.3,0.1H0v254.9h1295.3V0.1L1295.3,0.1z"/>
<g>
	<path d="M177.9,167.5V89.4h14.8v65.1h19.4v13H177.9z"/>
	<path d="M224.1,167.5V89.4h14.8v78.1H224.1z"/>
	<path d="M249.9,161.1l6.3-11.6c3.3,4.1,8.3,6.2,12.9,6.2c4.7,0,7.8-3.5,7.8-8.5c0-13.8-24.8-13.7-24.8-37.4
		c0-11.7,8-21.8,21.7-21.8c6.7,0,12.8,2.2,17,6.3l-5.6,11.4c-3-3.2-6.7-4.6-10.8-4.6c-4.2,0-7.3,3.2-7.3,7.8
		c0,12.2,24.8,13.8,24.8,37.2c0,13.1-8.7,22.6-21.9,22.6C261.5,168.9,254.9,166.2,249.9,161.1z"/>
	<path d="M312.3,167.5v-65.1h-11.8v-13h38.4v13h-11.8v65.1H312.3z"/>
	<path d="M370.4,128.5c0-23,7.3-40.4,24.5-40.4c17.1,0,24.4,17.4,24.4,40.4s-7.3,40.4-24.4,40.4
		C377.7,168.9,370.4,151.4,370.4,128.5z M404.1,128.5c0-15.6-2.3-27.3-9.3-27.3c-7,0-9.4,11.7-9.4,27.3c0,15.3,2.3,27.3,9.4,27.3
		C401.8,155.8,404.1,143.8,404.1,128.5z"/>
	<path d="M432.5,167.5V89.4h34.2v13h-19.4v18.9h18.6v13h-18.6v33.3H432.5z"/>
	<path d="M530.6,167.5l-2.3-14.4h-14.6l-2.3,14.4h-15.1l16.3-78.1h17l16.3,78.1H530.6z M521,105.9l-5.6,34.2h11.1L521,105.9z"/>
	<path d="M552.8,128.5c0-23.3,7.4-40.4,24.5-40.4c12.8,0,17.2,10.1,19.7,18.4l-11.8,4.3c-1.5-6-3.4-9.6-7.8-9.6
		c-6.9,0-9.4,11.4-9.4,27.3s2.5,27.3,9.4,27.3c4.9,0,7-4.9,8.1-11.4l11.7,4.3c-2.1,8.9-6.7,20.1-19.8,20.1
		C560.2,168.9,552.8,151.7,552.8,128.5z"/>
	<path d="M638.9,167.5v-33.7h-15v33.7h-14.8V89.4h14.8v31.5h15V89.4h14.8v78.1H638.9z"/>
	<path d="M669.4,167.5V89.4h14.8v78.1H669.4z"/>
	<path d="M699.8,167.5V89.4H734v13h-19.4v18.9h18.6v13h-18.6v20.3H734v13H699.8z"/>
	<path d="M757.9,167.5l-16.3-78.1h15.1l9.7,59.1l9.6-59.1h15.1l-16.3,78.1H757.9z"/>
	<path d="M800.9,167.5V89.4h34.2v13h-19.4v18.9h18.6v13h-18.6v20.3h19.4v13H800.9z"/>
	<path d="M894.2,167.5v-49.4l-13,49.4h-4.9l-12.8-49.4v49.4h-14.8V89.4h18.7l11.2,43.2l11.6-43.2h18.4v78.1H894.2z"/>
	<path d="M924.4,167.5V89.4h34.2v13h-19.4v18.9h18.6v13h-18.6v20.3h19.4v13H924.4z"/>
	<path d="M1003,167.5L987,122.7v44.7h-14.8V89.4H987l15,43.2V89.4h14.8v78.1H1003z"/>
	<path d="M1040.3,167.5v-65.1h-11.8v-13h38.4v13h-11.8v65.1H1040.3z"/>
	<path d="M1073.9,161.1l6.3-11.6c3.3,4.1,8.3,6.2,12.9,6.2c4.7,0,7.8-3.5,7.8-8.5c0-13.8-24.8-13.7-24.8-37.4
		c0-11.7,8-21.8,21.7-21.8c6.7,0,12.8,2.2,17,6.3l-5.6,11.4c-3-3.2-6.7-4.6-10.8-4.6c-4.2,0-7.3,3.2-7.3,7.8
		c0,12.2,24.8,13.8,24.8,37.2c0,13.1-8.7,22.6-21.9,22.6C1085.5,168.9,1079,166.2,1073.9,161.1z"/>
</g>
<rect x="25.5" y="280.5" class="st1" width="1244.3" height="203.9"/>
<polygon class="st3" points="25.5,484.3 25.5,484.3 25.5,280.5 1269.8,280.5 "/>
<path class="st1" d="M1282.6,267.6V497H12.7V267.6H1282.6 M1295.3,254.9H0v254.9h1295.3V254.9L1295.3,254.9z"/>
<g>
	<path d="M177.9,422.4v-78.1h14.8v65.1h19.4v13H177.9z"/>
	<path d="M224.1,422.4v-78.1h14.8v78.1H224.1z"/>
	<path d="M249.9,416l6.3-11.6c3.3,4.1,8.3,6.2,12.9,6.2c4.7,0,7.8-3.5,7.8-8.5c0-13.8-24.8-13.7-24.8-37.4c0-11.7,8-21.8,21.7-21.8
		c6.7,0,12.8,2.2,17,6.3l-5.6,11.4c-3-3.2-6.7-4.6-10.8-4.6c-4.2,0-7.3,3.2-7.3,7.8c0,12.2,24.8,13.8,24.8,37.2
		c0,13.1-8.7,22.6-21.9,22.6C261.5,423.8,254.9,421.1,249.9,416z"/>
	<path d="M312.3,422.4v-65.1h-11.8v-13h38.4v13h-11.8v65.1H312.3z"/>
	<path d="M370.4,383.4c0-23,7.3-40.4,24.5-40.4c17.1,0,24.4,17.4,24.4,40.4c0,23-7.3,40.4-24.4,40.4
		C377.7,423.8,370.4,406.3,370.4,383.4z M404.1,383.4c0-15.6-2.3-27.3-9.3-27.3c-7,0-9.4,11.7-9.4,27.3c0,15.3,2.3,27.3,9.4,27.3
		C401.8,410.7,404.1,398.7,404.1,383.4z"/>
	<path d="M432.5,422.4v-78.1h34.2v13h-19.4v18.9h18.6v13h-18.6v33.3H432.5z"/>
	<path d="M530.6,422.4l-2.3-14.4h-14.6l-2.3,14.4h-15.1l16.3-78.1h17l16.3,78.1H530.6z M521,360.8l-5.6,34.2h11.1L521,360.8z"/>
	<path d="M552.8,383.4c0-23.3,7.4-40.4,24.5-40.4c12.8,0,17.2,10.1,19.7,18.4l-11.8,4.3c-1.5-6-3.4-9.6-7.8-9.6
		c-6.9,0-9.4,11.4-9.4,27.3c0,15.9,2.5,27.3,9.4,27.3c4.9,0,7-4.9,8.1-11.4l11.7,4.3c-2.1,8.9-6.7,20.1-19.8,20.1
		C560.2,423.8,552.8,406.6,552.8,383.4z"/>
	<path d="M638.9,422.4v-33.7h-15v33.7h-14.8v-78.1h14.8v31.5h15v-31.5h14.8v78.1H638.9z"/>
	<path d="M669.4,422.4v-78.1h14.8v78.1H669.4z"/>
	<path d="M699.8,422.4v-78.1H734v13h-19.4v18.9h18.6v13h-18.6v20.3H734v13H699.8z"/>
	<path d="M757.9,422.4l-16.3-78.1h15.1l9.7,59.1l9.6-59.1h15.1l-16.3,78.1H757.9z"/>
	<path d="M800.9,422.4v-78.1h34.2v13h-19.4v18.9h18.6v13h-18.6v20.3h19.4v13H800.9z"/>
	<path d="M894.2,422.4V373l-13,49.4h-4.9L863.5,373v49.4h-14.8v-78.1h18.7l11.2,43.2l11.6-43.2h18.4v78.1H894.2z"/>
	<path d="M924.4,422.4v-78.1h34.2v13h-19.4v18.9h18.6v13h-18.6v20.3h19.4v13H924.4z"/>
	<path d="M1003,422.4L987,377.6v44.7h-14.8v-78.1H987l15,43.2v-43.2h14.8v78.1H1003z"/>
	<path d="M1040.3,422.4v-65.1h-11.8v-13h38.4v13h-11.8v65.1H1040.3z"/>
	<path d="M1073.9,416l6.3-11.6c3.3,4.1,8.3,6.2,12.9,6.2c4.7,0,7.8-3.5,7.8-8.5c0-13.8-24.8-13.7-24.8-37.4c0-11.7,8-21.8,21.7-21.8
		c6.7,0,12.8,2.2,17,6.3l-5.6,11.4c-3-3.2-6.7-4.6-10.8-4.6c-4.2,0-7.3,3.2-7.3,7.8c0,12.2,24.8,13.8,24.8,37.2
		c0,13.1-8.7,22.6-21.9,22.6C1085.5,423.8,1079,421.1,1073.9,416z"/>
</g>
</svg>
