<svg id="Layer_1" xmlns="http://www.w3.org/2000/svg" width="72" height="72" viewBox="0 -10.9 72 72"><style>.st0{fill:#243e8f}.st1{fill:#ca2027}.st2{fill:#fff}</style><path class="st0" d="M47.1 38.7v22.4H72v-10zM72-1v-9.9H47.1v22.4zM0 51.1v10h23.1V39.6zM23.1-10.9H0V-1l23.1 11.6z"/><path class="st1" d="M17.4 37.1H12l-12 6v5.4l22.7-11.4zM54.6 13.1H60l12-6V1.7L49.3 13.1zM6.6 13.1H12l-12-6v5.4l1.3.6zM65.4 37.1H60l12 6v-5.4l-1.3-.6z"/><path class="st2" d="M27.9-10.9h-4.8v21.5L0-1v8.1l12 6H1.3L0 12.5v5.4h27.9zM0 32.3v10.8l12-6h10.7L0 48.5v2.6l23.1-11.5v21.5h4.8V32.3zM72 17.9V7.1l-12 6H49.3L72 1.7V-1L47.1 11.5v-22.4h-4.8v28.8zM72 51.1v-8l-12-6h10.7l1.3.6v-5.4H42.3v28.8h4.8V38.7z"/><path class="st1" d="M72 32.3V17.9H42.3v-28.8H27.9v28.8H0v14.4h27.9v28.8h14.4V32.3z"/></svg>