<svg width="257" height="56" viewBox="0 0 257 56" xmlns="http://www.w3.org/2000/svg"><g fill-rule="nonzero" fill="#FFF"><path d="M75.77 23.33c0 5.6-2.983 9.93-9.127 9.93a10.31 10.31 0 0 1-3.973-.798v8.349H56.6V14.717c2.613-.96 5.36-1.67 8.462-1.67 7.843 0 10.709 4.403 10.709 10.284zm-5.996.12c0-2.823-1.196-4.966-4.283-4.966-1.152 0-2.23.325-2.821.562v8.186c1.107.59 1.905.827 2.983.827 2.733 0 4.121-1.95 4.121-4.61zM94.662 19.474V31c-1.463.917-6.514 2.305-9.453 2.305-4.402 0-7.577-2.23-7.577-6.117 0-4.285 3.22-5.792 7.946-5.792 1.388 0 2.26.118 3.131.237v-.828c-.044-1.832-.96-2.94-3.5-2.94-1.625 0-3.737.28-5.76.753l-.636-4.521c.562-.162 4.284-1.034 8.094-1.034 4.387-.015 7.755 2.57 7.755 6.412zM85.77 29.33c1.226 0 2.54-.517 3.057-.754l-.044-3.62c-.28-.044-1.108-.192-2.23-.192-2.186 0-3.648.68-3.648 2.423 0 1.552 1.314 2.143 2.865 2.143zM118.087 23.33c0 5.6-2.983 9.93-9.128 9.93a10.31 10.31 0 0 1-3.973-.798v8.349h-6.07V14.717c2.614-.96 5.361-1.67 8.463-1.67 7.843 0 10.708 4.403 10.708 10.284zm-5.997.12c0-2.823-1.196-4.966-4.283-4.966-1.152 0-2.23.325-2.821.562v8.186c1.108.59 1.905.827 2.984.827 2.732 0 4.12-1.95 4.12-4.61zM136.712 19.474V31c-1.462.917-6.513 2.305-9.453 2.305-4.401 0-7.577-2.23-7.577-6.117 0-4.285 3.22-5.792 7.947-5.792 1.388 0 2.26.118 3.13.237v-.828c-.043-1.832-.96-2.94-3.5-2.94-1.624 0-3.737.28-5.76.753l-.635-4.521c.561-.162 4.283-1.034 8.094-1.034 4.372-.015 7.754 2.57 7.754 6.412zm-8.891 9.856c1.225 0 2.54-.517 3.057-.754l-.044-3.62c-.281-.044-1.108-.192-2.23-.192-2.187 0-3.649.68-3.649 2.423 0 1.552 1.315 2.143 2.866 2.143zM177.507 19.474V31c-1.462.917-6.513 2.305-9.453 2.305-4.401 0-7.577-2.23-7.577-6.117 0-4.285 3.22-5.792 7.947-5.792 1.388 0 2.26.118 3.13.237v-.828c-.043-1.832-.96-2.94-3.5-2.94-1.624 0-3.736.28-5.76.753l-.635-4.521c.561-.162 4.283-1.034 8.094-1.034 4.387-.015 7.754 2.57 7.754 6.412zm-8.891 9.856c1.226 0 2.54-.517 3.057-.754l-.044-3.62c-.28-.044-1.108-.192-2.23-.192-2.187 0-3.649.68-3.649 2.423.015 1.552 1.315 2.143 2.866 2.143zM158.823 13.535c-1.98 7.27-4.091 15.41-5.317 20.612-1.197 5.245-3.973 7.033-7.71 7.033-1.344 0-2.349-.325-3.176-.635l1.078-3.975c4.58 1.64 5.23-3.059 5.23-3.576 0 0-3.782.473-4.846-2.94l-5.199-16.534h6.558l4.46 14.377h.03c.96-4.566 1.98-9.53 2.94-14.377h5.952v.015z"/><g><path d="M24.976.133h-1.24C-3.707.635.28 46.677.28 46.677c1.432 14.155 17.325 10.254 19.673.871.65-2.585 3.161-8.082 7.799-9.19 12.717-3.074 15.73-13.018 15.671-19.12C43.336 8.408 35.774.488 24.976.133zm-.62 28.872c-5.775 0-10.457-4.684-10.457-10.461 0-5.778 4.682-10.462 10.457-10.462s10.457 4.684 10.457 10.462c0 5.777-4.682 10.46-10.457 10.46z"/><path d="M30.25 16.46h-2.733a.873.873 0 0 1-.872-.872v-2.733a.873.873 0 0 0-.871-.872h-2.836a.873.873 0 0 0-.871.872v2.733a.873.873 0 0 1-.872.872h-2.732a.873.873 0 0 0-.872.872v2.733c0 .488.399.872.872.872h2.732c.488 0 .872.4.872.872v2.733c0 .488.398.872.871.872h2.836a.873.873 0 0 0 .871-.872V21.81c0-.488.4-.872.872-.872h2.732a.873.873 0 0 0 .872-.872v-2.733c.014-.473-.384-.872-.872-.872z"/></g><g><path d="M206.471 23.567c0 5.098-2.88 9.56-8.847 9.56-2.009 0-3.633-.428-5.17-1.182v8.688h-2.85v-25.96c2.29-.946 4.815-1.656 7.385-1.656 6.794-.014 9.482 4.374 9.482 10.55zm-2.88.03c0-4.625-1.816-8.023-6.395-8.023-2.127 0-4.032.709-4.741 1.063V29.36c1.624.902 2.924 1.345 4.74 1.345 4.225.015 6.396-3.265 6.396-7.107zM212.262 3.133h2.85l-.044 29.64h-2.732zM236.647 19.49v11.376c-1.226.754-5.45 2.29-8.685 2.29-3.988 0-6.912-2.216-6.912-5.762 0-4.506 3.589-6.043 8.566-6.043 1.817 0 3.161.162 4.224.31v-1.743c0-2.29-1.506-4.463-5.05-4.463-1.818 0-4.063.4-6.249.99l-.398-2.172c1.58-.517 4.504-1.182 7.34-1.182 4.165 0 7.164 2.719 7.164 6.398zm-8.463 11.657c2.407 0 4.903-1.064 5.642-1.463v-6.161c-.665-.118-2.009-.28-3.796-.28-3.752 0-6.44.99-6.44 4.151.015 2.453 2.068 3.753 4.594 3.753zM241.477 38.299c.221.03.428.03.635.03 1.048 0 1.92-.414 2.6-1.227.679-.813 1.358-2.157 2.052-4.02L239.41 13.49h3.205l5.553 15.648 5.554-15.648h3.205l-7.444 19.622c-1.078 2.882-2.156 4.906-3.205 6.044-1.064 1.137-2.275 1.714-3.619 1.714-.65 0-1.285-.06-1.935-.192"/></g></g></svg>