<?xml version="1.0" encoding="utf-8"?>
<!-- Generator: Adobe Illustrator 21.0.0, SVG Export Plug-In . SVG Version: 6.00 Build 0)  -->
<svg version="1.1" id="Layer_1" xmlns="http://www.w3.org/2000/svg" xmlns:xlink="http://www.w3.org/1999/xlink" x="0px" y="0px"
	 viewBox="0 0 25 25" style="enable-background:new 0 0 25 25;" xml:space="preserve">
<style type="text/css">
	.st0{fill:#FF0000;stroke:#FFFFFF;stroke-width:2;stroke-miterlimit:10;}
	.st1{fill:#FFFFFF;}
</style>
<circle class="st0" cx="12.5" cy="12.5" r="11.5"/>
<g>
	<path class="st1" d="M17,14.7c-0.1,1.5-0.5,2.6-1.2,3.4s-1.8,1.1-3.2,1.1c-1.5,0-2.6-0.5-3.4-1.4c-0.8-1-1.2-2.3-1.2-4.1v-2.2
		c0-1.8,0.4-3.1,1.2-4.1c0.8-1,1.9-1.4,3.4-1.4C14,5.8,15,6.2,15.8,7c0.7,0.8,1.1,1.9,1.2,3.4h-2.6c0-0.9-0.2-1.5-0.4-1.9
		C13.7,8.2,13.2,8,12.6,8c-0.7,0-1.2,0.2-1.5,0.7c-0.3,0.5-0.4,1.3-0.5,2.4v2.4c0,1.3,0.1,2.2,0.4,2.6c0.3,0.5,0.8,0.7,1.5,0.7
		c0.7,0,1.2-0.2,1.4-0.5c0.3-0.3,0.4-0.9,0.4-1.8H17z"/>
</g>
</svg>
