<?xml version="1.0" encoding="utf-8"?>
<!-- Generator: Adobe Illustrator 21.0.0, SVG Export Plug-In . SVG Version: 6.00 Build 0)  -->
<svg version="1.1" id="Layer_1" xmlns="http://www.w3.org/2000/svg" xmlns:xlink="http://www.w3.org/1999/xlink" x="0px" y="0px"
	 viewBox="0 0 25 25" style="enable-background:new 0 0 25 25;" xml:space="preserve">
<style type="text/css">
	.st0{fill:#FF0000;stroke:#FFFFFF;stroke-width:2;stroke-miterlimit:10;}
	.st1{fill:#FFFFFF;}
</style>
<circle class="st0" cx="12.5" cy="12.5" r="11.5"/>
<g>
	<path class="st1" d="M8.9,19V6h4c1.4,0,2.4,0.3,3.1,0.9C16.7,7.5,17,8.4,17,9.6c0,0.7-0.1,1.2-0.4,1.7c-0.3,0.5-0.7,0.8-1.2,1
		c0.6,0.2,1,0.5,1.3,1c0.3,0.5,0.5,1.1,0.5,1.9c0,1.3-0.3,2.2-1,2.8c-0.7,0.6-1.7,1-3,1H8.9z M11.5,11.4h1.4c1,0,1.5-0.5,1.5-1.6
		c0-0.6-0.1-1-0.4-1.3c-0.2-0.3-0.6-0.4-1.2-0.4h-1.4V11.4z M11.5,13.3v3.5h1.7c0.5,0,0.8-0.1,1.1-0.4c0.2-0.3,0.4-0.7,0.4-1.2
		c0-1.2-0.4-1.8-1.3-1.8H11.5z"/>
</g>
</svg>
