<?xml version="1.0" encoding="utf-8"?>
<!-- Generator: Adobe Illustrator 19.1.0, SVG Export Plug-In . SVG Version: 6.00 Build 0)  -->
<svg version="1.1" id="Layer_1" xmlns="http://www.w3.org/2000/svg" xmlns:xlink="http://www.w3.org/1999/xlink" x="0px" y="0px"
	 viewBox="0 0 72 11.8" style="enable-background:new 0 0 72 11.8;" xml:space="preserve">
<style type="text/css">
	.st0{fill:#FAA427;}
	.st1{fill:#FFFFFF;}
</style>
<g>
	<path class="st0" d="M5.8,2.7C4.1,1.1,2.8,0.3,1.7,0C0.4-0.2-0.5,0.6,0.7,3c0,0,1.1,2.3,3.9,4.4c1.3,1,3.1,1.4,2.7-0.6
		C7.1,6.2,6.6,4.7,4.5,2.9C4,2.4,2.9,1.7,2.5,2.1C2.1,2.6,3,3.8,3.5,4.3C4,4.8,4.4,5.1,4.7,5.1c0.2,0,0.4-0.2,0.8,0.3
		c0,0-0.2-0.8-1.1-1C4,4.4,3,3.2,3.5,3c0.3-0.1,0.9,0.2,1.6,1.1C5.8,5,6.4,6.4,5.6,6.5C5,6.6,3.8,5.6,2.9,4.7
		C2.2,3.9,0.8,1.9,1.9,1.5C2.8,1,5,2.5,6.6,4.6c1.2,1.6,2.2,3.7,0.9,4.2C6.4,9.1,4.8,8.5,3,6.9c-0.1,0.6-1,1.2-2,1.1
		C0.7,7.9,0.3,7.8,0,7.7c1.7,1.5,2.4,1.9,3.5,2.6c1.5,0.9,3.2,1.4,3.6,1.4C8.8,12,10,11.3,9.9,9.9C9.9,8.7,8.4,5.2,5.8,2.7"/>
	<path class="st1" d="M14,7.1c-0.1-0.4-1-2.8-1-2.8h-0.6l1.4,3.8h0.4l1.4-3.8H15C15,4.3,14.1,6.7,14,7.1 M24.5,6.5
		c0.7-0.3,0.8-0.9,0.8-1.1l0,0c0-0.3-0.1-0.6-0.3-0.8c-0.3-0.3-0.7-0.3-0.9-0.3l-1.3,0v3.8h0.6V6.6h0.3c0,0.1,1,1.5,1,1.5h0.7
		c0,0-1-1.4-1.1-1.5C24.4,6.5,24.5,6.5,24.5,6.5 M24.2,6.1L24.2,6.1l-0.8,0V4.8h0.1l0.6,0c0.3,0,0.6,0.3,0.6,0.6
		C24.7,5.8,24.5,6,24.2,6.1L24.2,6.1z M32.3,8.1h0.6V4.3h-0.6V8.1z M27.4,4.8h1v3.3H29V4.8h1.1V4.3h-2.7V4.8z M18,8.1h2.3V7.6h-1.8
		V6.5h1.8V5.9h-1.8V4.8h1.8V4.3H18V8.1z M44.7,4.8L44.7,4.8c-0.4-0.4-0.9-0.6-1.4-0.6c-0.5,0-1,0.2-1.4,0.6
		c-0.4,0.4-0.6,0.9-0.6,1.4c0,1.1,0.9,2,2,2c1.1,0,2-0.9,2-2C45.3,5.7,45.1,5.2,44.7,4.8 M43.3,7.7c-0.8,0-1.4-0.6-1.4-1.4
		c0-0.8,0.6-1.4,1.4-1.4c0.8,0,1.4,0.6,1.4,1.4C44.7,7,44,7.7,43.3,7.7 M36.9,6.7h1.6C38.4,7,38.3,7.2,38,7.4
		c-0.3,0.2-0.6,0.3-0.9,0.3c-0.4,0-0.7-0.1-1-0.4c-0.3-0.3-0.4-0.6-0.4-1c0-0.4,0.1-0.7,0.4-1c0.3-0.3,0.6-0.4,1-0.4
		c0.3,0,0.5,0.1,0.8,0.2c0.2,0.2,0.4,0.4,0.5,0.6l0,0h0.6l0-0.1c-0.1-0.4-0.4-0.7-0.7-1c-0.3-0.2-0.7-0.4-1.2-0.4
		c-0.5,0-1,0.2-1.4,0.6c-0.4,0.4-0.6,0.9-0.6,1.4c0,0.5,0.2,1,0.6,1.4c0.4,0.4,0.9,0.6,1.4,0.6c0.5,0,1-0.2,1.4-0.6
		c0.4-0.4,0.6-0.9,0.6-1.4l0-0.1h-2.2V6.7z"/>
	<path class="st0" d="M65.1,8.1h2.3V7.6h-1.8V6.5h1.8V5.9h-1.8V4.8h1.8V4.3h-2.3V8.1z M60.8,7.3c-0.1-0.4-1.1-3-1.1-3l-0.1,0h-0.7
		v3.8h0.6V5.3c0.2,0.7,1,2.8,1,2.8l0.1,0H61c0,0,0.8-2.1,1-2.8v2.8h0.6V4.3h-0.7C61.8,4.3,60.9,6.9,60.8,7.3 M54.6,4.3l-1.5,3.9h0.6
		c0,0,0.4-1,0.4-1.1h1.5c0,0.1,0.4,1.1,0.4,1.1l0.1,0h0.5l-1.5-3.9H54.6z M54.3,6.5c0.1-0.2,0.4-1.1,0.5-1.4
		c0.1,0.3,0.5,1.2,0.5,1.4H54.3z M71.6,6.2c0,0-0.2-0.2-0.7-0.3l-0.2,0l0,0l0,0c-0.3,0-0.5-0.3-0.5-0.5c0-0.1,0.1-0.3,0.2-0.4
		c0.1-0.1,0.2-0.2,0.4-0.2c0.3,0,0.5,0.2,0.5,0.4l0,0.1h0.6l0-0.1c-0.1-0.5-0.6-1-1.1-1c-0.6,0-1.2,0.5-1.2,1.1
		c0,0.2,0.1,0.5,0.3,0.7c0.1,0.1,0.4,0.3,0.9,0.4c0.3,0.1,0.7,0.3,0.7,0.6c0,0.4-0.3,0.6-0.7,0.6c-0.4,0-0.6-0.2-0.7-0.6l0-0.1h-0.6
		l0,0.1c0.1,0.6,0.6,1.1,1.3,1.1c0.7,0,1.3-0.5,1.3-1.2C72,6.8,71.9,6.5,71.6,6.2 M49.1,6.7h1.6c-0.1,0.3-0.2,0.5-0.4,0.7
		c-0.3,0.2-0.6,0.3-0.9,0.3c-0.4,0-0.7-0.1-1-0.4c-0.3-0.3-0.4-0.6-0.4-1c0-0.4,0.1-0.7,0.4-1c0.3-0.3,0.6-0.4,1-0.4
		c0.3,0,0.5,0.1,0.8,0.2c0.2,0.1,0.4,0.4,0.5,0.6l0,0h0.6l0-0.1c-0.1-0.4-0.4-0.7-0.7-1c-0.3-0.2-0.7-0.4-1.2-0.4
		c-0.5,0-1,0.2-1.4,0.6c-0.4,0.4-0.6,0.8-0.6,1.4c0,0.5,0.2,1,0.6,1.4c0.4,0.4,0.8,0.6,1.4,0.6c0.5,0,1-0.2,1.4-0.6
		c0.4-0.4,0.6-0.8,0.6-1.4l0-0.1h-2.2V6.7z"/>
</g>
</svg>
