<svg id="Layer_1" xmlns="http://www.w3.org/2000/svg" viewBox="-34 31.1 72 10.8"><style>.st0{fill:#fff}</style><path class="st0" d="M24.5 31.8h-2.6c.3.7.5 1.5.5 2.3 0 .8-.2 1.8-.6 2.9.7.1 1.5.2 2.5.2.7-2.4.7-3.9.2-5.4z"/><path class="st0" d="M21.4 36.9c.9-2.4.7-3.8 0-5.2h-2.3c.3.7.5 1.5.5 2.3 0 .7-.1 1.6-.5 2.6.6 0 1.2.1 2 .2.1.1.2.1.3.1zM28.2 37.1c.7-.1 1.2-.3 1.6-.4.3-.1.6-.2.9-.2.7-2.1.5-3.3 0-4.6h-2.3c.2.7.4 1.4.4 2.2-.1.8-.2 1.8-.6 3z"/><path class="st0" d="M17.1 37.2c.5-.3.9-.4 1.4-.5.8-2.3.6-3.6-.1-4.9-2.2 0-3.7 0-3.9.1-.1 0-.2.1-.2.3 0 .3.1.6.2 1 .2.7.4 1.4.4 2.2 0 .6-.3 1.1-.5 1.5-.2.3-.3.6-.3.9 0 .2.1.3.2.5.5.6 1.4-.2 2.2-.8.3-.1.5-.2.6-.3zM24.9 37.3h.6c.9 0 1.6 0 2.1-.1.8-2.5.7-3.9.2-5.3h-2.7c.2.7.3 1.4.3 2.2 0 .8-.2 1.9-.5 3.2zM7.2 35.1c-.9.1-2.4.3-4.4.6-5.5.9-13.9 2.2-20.5 1.7-4.7-.4-7.7-2.1-9.5-3.4-1.3-1-2.1-1.9-2.4-2.4-3.2.3-4.3.6-4.3.6s2.6 6.9 11.8 9 19.3-.8 24.2-1.9c3.4-.7 7.2-1 10.1-1-1.2-2.2-1.8-3.4-5-3.2z"/><path class="st0" d="M-29.3 31.6c1.1 1.4 4.6 5 11.7 5.6 6.6.6 14.9-.8 20.4-1.7 2-.3 3.5-.6 4.4-.6 3.3-.3 4 1.1 5.2 3.2l.1.1H14c0-.1-.1-.2-.1-.4 0-.3.2-.7.3-1 .2-.4.4-.9.5-1.4.1-.7-.2-1.5-.4-2.1-.1-.4-.2-.8-.2-1.1-8.4-.2-28.3-1.4-36.5-1.1-3 .2-5.2.3-6.9.5zM31.7 34.1c0 .7-.1 1.5-.4 2.4h.3c1.9.1 2.1 1.6 2.3 2.6 0 .1 0 .3.1.4 0 .2.1.3.3.3.6.1 2.1-.7 3.1-2.5.5-.9.7-1.7.7-2.5 0-.6-.2-2.6-3.2-2.7-.6 0-1.9-.1-3.6-.1.2.6.4 1.3.4 2.1zm5 .3c0 .5-.4.9-.9.9s-.9-.4-.9-.9.4-.9.9-.9.9.3.9.9z"/></svg>