<svg id="Layer_1" xmlns="http://www.w3.org/2000/svg" viewBox="-34 29.4 72 14.1"><style>.st0{fill:#fff}</style><path class="st0" d="M38 35.6v-1.4H3.9s-5.2-.3-5.9-.3l-.1-.3h-.5v-.4h1.3s2 .8 5.1.8h.8v-3.5h-.8c-2.1.1-4.9 1-4.9 1h-1.5v-.1h-.9v.2h-1.7v-2.3h-1.5v2.3h-1.6v-.2H-9v.2l-1.6-.1-.5-.2h-.7l-.1.1h-.3v-.3h-2.1s-1.2-.1-1.5-.2v2.6s.3 0 3.7-.2c0-.1.3-.2.3-.2l.2.2h1s0-.3.5-.3h1.2v.5h-.5v.3l-.9.1-.2.1h-1.1l-.2.1h-.9c0 .1 0 1-.5 1.3-.5.2-2 1.1-3.6 1-.3 0-.7-.7-.9-.8-.4-.2-15.8-.1-15.8-.1s-.2 1.5.4 2.8v4.9l13.8-3.1s.7-.3.5.5c.9.5 1.9.9 2.8 1 .4-.1.5-3.6 2.6-3.5 0 0 .4 0 .5 1 .2 1.1 1.6 1 2.6.9.5-.2.7-.9.7-1.6.2-.1-.1-.9 1.5-.6 1.8 0 19-.7 19-.7l.3.4.5.2s.9 1.5 3 1.3c1.6-.2 2.4-.6 2.4-.6l7.1-.1h2c.2 0 1.2.5 1.2-.4s-1.2-.4-1.2-.4H22l-1-.3h-3.4l.1-1.6H38zm-49.3 4.6c-.6.1-1.3-.1-1.6-.4-.3-.3-.3-.8-.1-1.2.2-.4.7-.4.7-.4s-.8.9-.1 1.6c.4.4 0-.1 0-.5-.1-.3.1-1.1 1.1-1.1s1 .1 1.1.8c-.1.8-.5 1.1-1.1 1.2z"/></svg>