<?xml version="1.0" encoding="utf-8"?>
<!-- Generator: Adobe Illustrator 21.0.0, SVG Export Plug-In . SVG Version: 6.00 Build 0)  -->
<svg version="1.1" id="Layer_1" xmlns="http://www.w3.org/2000/svg" xmlns:xlink="http://www.w3.org/1999/xlink" x="0px" y="0px"
	 viewBox="0 0 340.2 435.5"  xml:space="preserve">
<style type="text/css">
	.st0{fill:white;}
</style>
<g>
	<path class="st0" d="M336.5,285.8c-0.2-0.6-16.5-65.1-61.5-131.8c-26.4-39.1-57.3-71.3-91.9-95.7C139.9,27.8,90.9,9.4,37.1,3.8
		L37.5,0c54.4,5.7,104.1,24.3,147.9,55.2c35,24.6,66.2,57.3,92.9,96.8c45.3,67.2,61.8,132.3,61.9,132.9L336.5,285.8z"/>
</g>
<g>
	<path class="st0" d="M16.5,173.5C6.3,149.4,0.8,125.6,0.1,102.8c-0.5-18.2,2-35.9,7.5-52.4C17,22.2,31.7,7.2,32.3,6.6L35,9.3
		L33.7,8L35,9.3c0,0-3.8,3.8-8.5,10.9c-4.4,6.5-10.6,17.3-15.4,31.7c-5.4,16.1-7.8,33.3-7.2,51.1c0.7,22.3,6.1,45.5,16.1,69.2
		L16.5,173.5z"/>
</g>
<g>
	<path class="st0" d="M96.8,421.3l-3.3-1.8c33.1-62.4,40.7-116.1,22.5-159.5c-12.8-30.5-36.3-50-53.7-61.1
		c-18.9-11.9-34.9-16.8-35.1-16.8l1.1-3.6c0.7,0.2,16.7,5,36.1,17.2c17.9,11.3,42,31.4,55.2,62.8
		C138.2,303.1,130.6,357.9,96.8,421.3z"/>
</g>
<g>
	<path class="st0" d="M95.3,435.5l-2.7-2.7c0.8-0.8,19.2-18.9,42.5-18.9h0.1c12.3,0,23.7,5.2,33.8,15.3l-2.7,2.7
		c-9.3-9.4-19.8-14.2-31.1-14.2h-0.1C113.4,417.7,95.5,435.3,95.3,435.5z"/>
</g>
<g>
	<path class="st0" d="M164.3,406.7c0-0.7-0.6-16.6,4.1-37.3c4.3-19.1,14-45.9,36-65c26-22.6,63.2-29.6,110.4-21l-0.7,3.7
		c-46-8.4-82.1-1.7-107.2,20.1c-21.3,18.4-30.6,44.4-34.8,63c-4.5,20.2-4,36.1-4,36.3L164.3,406.7z"/>
</g>
</svg>
