<?xml version="1.0" encoding="utf-8"?>
<!-- Generator: Adobe Illustrator 19.1.0, SVG Export Plug-In . SVG Version: 6.00 Build 0)  -->
<svg version="1.1" id="Layer_1" xmlns="http://www.w3.org/2000/svg" xmlns:xlink="http://www.w3.org/1999/xlink" x="0px" y="0px"
	 viewBox="-34 31.1 72 10.8" style="enable-background:new -34 31.1 72 10.8;" xml:space="preserve">
<style type="text/css">
	.st0{fill:#ffffff;}
</style>
<path class="st0" d="M24.5,31.8c-0.9,0-1.7,0-2.6,0c0.3,0.7,0.5,1.5,0.5,2.3c0,0.8-0.2,1.8-0.6,2.9c0.7,0.1,1.5,0.2,2.5,0.2
	C25,34.8,25,33.3,24.5,31.8z"/>
<path class="st0" d="M21.4,36.9c0.9-2.4,0.7-3.8,0-5.2c-0.8,0-1.6,0-2.3,0c0.3,0.7,0.5,1.5,0.5,2.3c0,0.7-0.1,1.6-0.5,2.6
	c0.6,0,1.2,0.1,2,0.2C21.2,36.9,21.3,36.9,21.4,36.9z"/>
<path class="st0" d="M28.2,37.1c0.7-0.1,1.2-0.3,1.6-0.4c0.3-0.1,0.6-0.2,0.9-0.2c0.7-2.1,0.5-3.3,0-4.6c-0.7,0-1.5,0-2.3,0
	c0.2,0.7,0.4,1.4,0.4,2.2C28.7,34.9,28.6,35.9,28.2,37.1z"/>
<path class="st0" d="M17.1,37.2c0.5-0.3,0.9-0.4,1.4-0.5c0.8-2.3,0.6-3.6-0.1-4.9c-2.2,0-3.7,0-3.9,0.1l0,0l0,0
	c-0.1,0-0.2,0.1-0.2,0.3c0,0.3,0.1,0.6,0.2,1c0.2,0.7,0.4,1.4,0.4,2.2c0,0.6-0.3,1.1-0.5,1.5c-0.2,0.3-0.3,0.6-0.3,0.9
	c0,0.2,0.1,0.3,0.2,0.5c0.5,0.6,1.4-0.2,2.2-0.8C16.8,37.4,17,37.3,17.1,37.2z"/>
<path class="st0" d="M24.9,37.3c0.2,0,0.4,0,0.6,0c0.9,0,1.6,0,2.1-0.1c0.8-2.5,0.7-3.9,0.2-5.3c-0.9,0-1.8,0-2.7,0
	c0.2,0.7,0.3,1.4,0.3,2.2C25.4,34.9,25.2,36,24.9,37.3z"/>
<path class="st0" d="M7.2,35.1c-0.9,0.1-2.4,0.3-4.4,0.6c-5.5,0.9-13.9,2.2-20.5,1.7c-4.7-0.4-7.7-2.1-9.5-3.4
	c-1.3-1-2.1-1.9-2.4-2.4c-3.2,0.3-4.3,0.6-4.3,0.6s2.6,6.9,11.8,9s19.3-0.8,24.2-1.9c3.4-0.7,7.2-1,10.1-1
	C11,36.1,10.4,34.9,7.2,35.1z"/>
<path class="st0" d="M-29.3,31.6c1.1,1.4,4.6,5,11.7,5.6c6.6,0.6,14.9-0.8,20.4-1.7c2-0.3,3.5-0.6,4.4-0.6c3.3-0.3,4,1.1,5.2,3.2
	l0.1,0.1c0.5,0,1.1,0,1.5,0c0-0.1-0.1-0.2-0.1-0.4c0-0.3,0.2-0.7,0.3-1c0.2-0.4,0.4-0.9,0.5-1.4c0.1-0.7-0.2-1.5-0.4-2.1
	c-0.1-0.4-0.2-0.8-0.2-1.1c-8.4-0.2-28.3-1.4-36.5-1.1C-25.4,31.3-27.6,31.4-29.3,31.6z"/>
<path class="st0" d="M31.7,34.1c0,0.7-0.1,1.5-0.4,2.4c0.1,0,0.2,0,0.3,0c1.9,0.1,2.1,1.6,2.3,2.6c0,0.1,0,0.3,0.1,0.4
	c0,0.2,0.1,0.3,0.3,0.3c0.6,0.1,2.1-0.7,3.1-2.5c0.5-0.9,0.7-1.7,0.7-2.5c0-0.6-0.2-2.6-3.2-2.7c-0.6,0-1.9-0.1-3.6-0.1
	C31.5,32.6,31.7,33.3,31.7,34.1z M36.7,34.4c0,0.5-0.4,0.9-0.9,0.9s-0.9-0.4-0.9-0.9c0-0.5,0.4-0.9,0.9-0.9S36.7,33.8,36.7,34.4z"/>
</svg>
