<svg xmlns="http://www.w3.org/2000/svg" width="268.8" height="51.7" viewBox="0 0 268.8 51.7"><style type="text/css">.st0{fill:#FF8300;} .st1{fill:#FFFFFF;}</style><path class="st0" d="M34 11.8C26.4 4.6 21 1.3 15.8.2 10.2-1 6.3 2.7 11.3 13.1c0 0 4.9 10.3 17.2 19.3 5.9 4.3 13.6 5.9 11.9-2.7-.5-2.6-4-9.1-12.9-17-2.6-2.2-7-5.2-8.8-3.2-1.8 2 2 7.3 4.3 9.5 0 0 4.2 3.8 8 5.4-.3-.2-.6-.5-.9-.8-2.2-2-5.9-5.4-7-7.6v-.1c0-.1-.1-.2-.1-.2s0-.1-.1-.1c0-.1-.1-.1-.1-.2v-.1c0-.1-.1-.2-.1-.3-.1-.5 0-.7.4-1 .1-.1.6-.3 1.4-.2.3.1.7.3 1.1.5.2.1.3.2.3.2 1.2.8 2.6 2.1 4.1 4 3.1 3.7 6.4 8.6 3 9.2-2.7.5-7.8-3.1-11.7-7.4-3.2-3.5-9.1-12-4.7-14.1 4.3-2 13.8 4.7 20.7 13.8 5.3 7.1 9.6 16.3 3.8 18.3-4.3 1.6-11.4-1.3-19.3-8.2C14.2 35.3 0 24.3 0 24.3s9.1 9.9 15 14.6c3.3 2.5 5.7 4.1 9.1 6.1 6.7 4.1 14 6 15.8 6.3 7.4 1.3 12.5-1.7 12.2-8.1-.4-4.9-6.7-20.3-18.1-31.4"/><path class="st1" d="M69 27.6c-.4 1-.7 1.8-1 2.7l-.1-.4c-.3-.7-.6-1.5-.9-2.3l-4.2-11v-.1h-3.6l7.5 18.7v.1h2.2L77 16.7l.1-.3h-3.4L69 27.6zM89.3 19.3l1-2.9H80.1v18.7h10.2v-2.8h-6.9V27h5.9v-2.9h-5.9v-4.8zM102.2 22c0 1.7-1.4 3-3.1 3h-1.5v-5.7H99c2.1 0 3.2 1 3.2 2.7m.1 4.6c2.1-.9 3.3-2.8 3.3-4.9 0-3.4-2.4-5.3-6.5-5.3h-4.8v18.8h3.3v-7.5H99c.6.2 1.8 2.2 3.8 5.6l.1.2c.3.5.6 1 1 1.6l.1.1h3.8l-.7-1.2c-2.4-3.9-4-6.6-4.8-7.4"/><path class="st1" d="M108.7 19.3h5.3v15.8h3.3V19.3h5l.9-2.9h-14.5zM126.2 16.4h3.3v18.8h-3.3zM146.5 32c-.7.3-1.7.5-2.9.5-4 0-6.6-2.7-6.6-6.8s2.6-6.7 6.8-6.7c1.6 0 3.3.5 5 1.3l.3.1v-3.2h-.1c-1.7-.7-3.5-1-5.4-1-6 0-10.2 4-10.2 9.8 0 5.5 3.9 9.4 9.4 9.4 3.4 0 5.9-1.1 6.9-1.6l.1-.1v-8.1h-3.3V32zM162.8 32.6c-3.7 0-6-2.6-6-6.7s2.4-6.7 6-6.7 6 2.6 6 6.7c-.1 4-2.4 6.7-6 6.7m7.1-13.4c-1.7-1.9-4.2-2.9-7.1-2.9-2.7 0-5.1 1-6.8 2.7-1.7 1.8-2.7 4.2-2.7 7 0 2.9 1.1 5.4 3 7.2 1.7 1.5 3.9 2.3 6.5 2.3 2.7 0 5-.9 6.8-2.6 1.7-1.7 2.7-4.2 2.7-7-.1-2.7-.9-5-2.4-6.7"/><path class="st0" d="M193.9 32c-.7.3-1.7.5-2.9.5-4 0-6.6-2.7-6.6-6.8s2.6-6.7 6.8-6.7c1.6 0 3.3.5 5 1.3l.3.1v-3.2h-.1c-1.7-.7-3.5-1-5.4-1-6 0-10.2 4-10.2 9.8 0 5.5 3.9 9.4 9.4 9.4 3.4 0 5.9-1.1 6.9-1.6l.1-.1v-8.1h-3.3V32zM208.3 21.3c.1.5.3 1 .5 1.6l1.6 4.7H206l1.7-4.7c.3-.5.4-1 .6-1.6m1.2-5h-2.3L200 34.9l-.1.2h3.3l1.7-4.7h6.6l1.8 4.6v.1h3.5l-7.4-18.7.1-.1zM230.3 24.2c-.4.6-.7 1.1-.9 1.6-.3-.5-.6-1-1-1.6l-5.3-7.8-.1-.1h-3.1v18.8h3.3V22c.2.3.4.6.5.8.1.1.1.2.2.3l4.5 6.6.1.1h1.7l4.2-6.6c.1-.1.1-.2.2-.4s.3-.5.5-.8v13.1h3.3V16.4h-3.1l-5 7.8zM252.7 19.3l.9-2.7.1-.2h-10.3v18.7h10.2v-2.8h-6.9V27h6v-2.9h-6v-4.8zM264 24.3c-1.8-1-3.3-1.8-3.3-3.3 0-1.4 1.4-1.9 2.7-1.9 1.3 0 2.7.4 4.1 1.3l.3.2v-3.2l-.1-.1c-.9-.5-2.4-1-4.4-1-4.1 0-6 2.6-6 5.1 0 1.3.4 2.4 1.3 3.4s2.2 1.7 3.4 2.4c1.7 1 3.3 1.8 3.3 3.4 0 1.1-1 2.2-3.1 2.2-1.7 0-3.1-.7-4-1.3l-.2-.1-1.4 2.4v.1l.1.1c1.1.7 2.8 1.6 5.5 1.6 3.8 0 6.5-2.2 6.5-5.3.1-3.4-2.4-4.8-4.7-6"/></svg>