<svg id="Layer_1" xmlns="http://www.w3.org/2000/svg" viewBox="-34 24.2 72 24.5"><style>.st0{fill:#676767}</style><path class="st0" d="M36.4 29.1v-4h-1s-.7 0-1 .7c-.2.8-1.1 3.3-1.1 3.3v.6h-3.1v-.6c-2.3 0-2.8-2.9-2.8-2.9h-2.7v.5h-2.3v-.5h-.6s-.2-.3-.5-.3H12.8c-.3 0-.5.4-.5.4v-1.5H6.9v-.2c0-.2-.1-.3-.3-.3-.2 0-.3.1-.3.3v1.3H-9.4c-1.2 0-1.8 1.6-1.8 1.6h-.1c-1.2 0-1.8 1.6-1.8 1.6l-.7.2-1.4.4-3.6 1c-.8.2-1.9.1-2.4-.2-.5-.3-1.6-.5-2.5-.4l-9.6 1s-.8-.1-.8.6V40c0 .4.8.4.8.4h1.4c.8 0 2.1-.3 2.9-.6l13.8-5.8.9-.4.9.8.4.5c.6.9-.2.8-.5 1.8-.7 2-1.8 6.1-1.8 6.2-.1.4.2.8.5.8.1 0 4.1.7 4.1.7.2 0 .3-.2.3-.4v-.1l-.3-.4v-.2l.8-1.3s1.2-5 1.2-5.3c0 0 .1-.6.7-.9.1.5.1.9.1.9.1.4.5.6.9.6h4.8c.4 0 .8-.3.9-.6l.1-.8h.5C0 39.3 2 44 9.5 48.8l.7-1.2 1.4-2.2.3-.5.9-1.5c-7.3-4.6-7.2-8.1-7.1-11v-.1h16.2v-.2h.6v-.5h6.8v.7h1.2v-.7h6.1v-.8H38v-1.9l-1.6.2zm-38.2 6.6c-.1.4-.5.8-.9.8h-3.4c-.4 0-.8-.4-.8-.8v-2.3c0-.4.4-.8.8-.8h.6-.2V35.4c0 .1.1.2.1.2.1.2.3.3.5.2.2-.1.3-.3.3-.5v-.1-.1-.1-.1-.1-.1-.1-.1-.1-.1-.2-.1-.1-.1-.1-.2-.3-.3c0-.1 0-.2.1-.3v-.1h2.4c.4 0 .8.3.7.8l-.2 2.4zm24.2-7.4h4.2c.2 0 .4.2.4.4s-.2.4-.4.4h-4.2v-.8zm6.6 2.9h-6.6v-.4H29c.1 0 .2.1.2.2s-.1.2-.2.2zm4.1 0h-2.5c-.1 0-.2-.1-.2-.2s.1-.2.2-.2h2.5c.1 0 .2.1.2.2s-.1.2-.2.2zm2.7-2.2h-1.9l.6-1.8h1.3V29z"/></svg>