
<svg width="257px" height="56px" viewBox="0 0 257 56" version="1.1" xmlns="http://www.w3.org/2000/svg" xmlns:xlink="http://www.w3.org/1999/xlink">
    <!-- Generator: Sketch 43.2 (39069) - http://www.bohemiancoding.com/sketch -->
    <desc>Created with Sketch.</desc>
    <defs></defs>
    <g id="Symbols" stroke="none" stroke-width="1" fill="none" fill-rule="evenodd">
        <g id="papaya-logo" fill-rule="nonzero" fill="#FFFFFF">
            <g id="Group">
                <g>
                    <g transform="translate(56.569540, 13.002639)" id="Shape">
                        <path d="M19.2011494,10.3282322 C19.2011494,15.9282322 16.2175862,20.2575198 10.0732184,20.2575198 C8.68482759,20.2575198 7.34074713,19.976781 6.10005747,19.4596306 L6.10005747,27.8079156 L0.0295402299,27.8079156 L0.0295402299,1.71398417 C2.64385057,0.753562005 5.39109195,0.0443271768 8.49281609,0.0443271768 C16.3357471,0.0443271768 19.2011494,4.4474934 19.2011494,10.3282322 Z M13.2044828,10.446438 C13.2044828,7.62427441 12.0081034,5.4817942 8.92114943,5.4817942 C7.76908046,5.4817942 6.69086207,5.80686016 6.10005747,6.04327177 L6.10005747,14.2290237 C7.20781609,14.8200528 8.0054023,15.0564644 9.08362069,15.0564644 C11.816092,15.0564644 13.2044828,13.1060686 13.2044828,10.446438 Z"></path>
                        <path d="M38.0921264,6.47176781 L38.0921264,17.9968338 C36.6298851,18.9129288 31.5785057,20.301847 28.6392529,20.301847 C24.2377586,20.301847 21.0621839,18.0707124 21.0621839,14.1846966 C21.0621839,9.89973615 24.282069,8.39261214 29.0085057,8.39261214 C30.3968966,8.39261214 31.2683333,8.51081794 32.1397701,8.62902375 L32.1397701,7.80158311 C32.0954598,5.96939314 31.1797126,4.86121372 28.6392529,4.86121372 C27.0145402,4.86121372 24.9024138,5.14195251 22.878908,5.61477573 L22.2437931,1.09340369 C22.8050575,0.930870712 26.5271264,0.0591029024 30.3378161,0.0591029024 C34.7245402,0.0443271768 38.0921264,2.63007916 38.0921264,6.47176781 Z M29.2005172,16.3271768 C30.4264368,16.3271768 31.740977,15.8100264 32.257931,15.5736148 L32.2136207,11.953562 C31.9329885,11.9092348 31.1058621,11.7614776 29.9833333,11.7614776 C27.7973563,11.7614776 26.3351149,12.4411609 26.3351149,14.1846966 C26.3351149,15.7361478 27.6496552,16.3271768 29.2005172,16.3271768 Z"></path>
                        <path d="M61.5175287,10.3282322 C61.5175287,15.9282322 58.5339655,20.2575198 52.3895977,20.2575198 C51.0012069,20.2575198 49.6571264,19.976781 48.4164368,19.4596306 L48.4164368,27.8079156 L42.3459195,27.8079156 L42.3459195,1.71398417 C44.9602299,0.753562005 47.7074713,0.0443271768 50.8091954,0.0443271768 C58.6521264,0.0443271768 61.5175287,4.4474934 61.5175287,10.3282322 Z M55.5208621,10.446438 C55.5208621,7.62427441 54.3244828,5.4817942 51.2375287,5.4817942 C50.0854598,5.4817942 49.0072414,5.80686016 48.4164368,6.04327177 L48.4164368,14.2290237 C49.5241954,14.8200528 50.3217816,15.0564644 51.4,15.0564644 C54.1324713,15.0564644 55.5208621,13.1060686 55.5208621,10.446438 Z"></path>
                        <path d="M80.1426437,6.47176781 L80.1426437,17.9968338 C78.6804023,18.9129288 73.629023,20.301847 70.6897701,20.301847 C66.2882759,20.301847 63.1127011,18.0707124 63.1127011,14.1846966 C63.1127011,9.89973615 66.3325862,8.39261214 71.059023,8.39261214 C72.4474138,8.39261214 73.3188506,8.51081794 74.1902874,8.62902375 L74.1902874,7.80158311 C74.145977,5.96939314 73.2302299,4.86121372 70.6897701,4.86121372 C69.0650575,4.86121372 66.952931,5.14195251 64.9294253,5.61477573 L64.2943103,1.09340369 C64.8555747,0.930870712 68.5776437,0.0591029024 72.3883333,0.0591029024 C76.7602874,0.0443271768 80.1426437,2.63007916 80.1426437,6.47176781 Z M71.2510345,16.3271768 C72.476954,16.3271768 73.7914943,15.8100264 74.3084483,15.5736148 L74.2641379,11.953562 C73.9835057,11.9092348 73.1563793,11.7614776 72.0338506,11.7614776 C69.8478736,11.7614776 68.3856322,12.4411609 68.3856322,14.1846966 C68.3856322,15.7361478 69.7001724,16.3271768 71.2510345,16.3271768 Z"></path>
                        <path d="M120.937701,6.47176781 L120.937701,17.9968338 C119.47546,18.9129288 114.42408,20.301847 111.484828,20.301847 C107.083333,20.301847 103.907759,18.0707124 103.907759,14.1846966 C103.907759,9.89973615 107.127644,8.39261214 111.85408,8.39261214 C113.242471,8.39261214 114.113908,8.51081794 114.985345,8.62902375 L114.985345,7.80158311 C114.941034,5.96939314 114.025287,4.86121372 111.484828,4.86121372 C109.860115,4.86121372 107.747989,5.14195251 105.724483,5.61477573 L105.089368,1.09340369 C105.650632,0.930870712 109.372701,0.0591029024 113.183391,0.0591029024 C117.570115,0.0443271768 120.937701,2.63007916 120.937701,6.47176781 Z M112.046092,16.3271768 C113.272011,16.3271768 114.586552,15.8100264 115.103506,15.5736148 L115.059195,11.953562 C114.778563,11.9092348 113.951437,11.7614776 112.828908,11.7614776 C110.642931,11.7614776 109.18069,12.4411609 109.18069,14.1846966 C109.19546,15.7361478 110.49523,16.3271768 112.046092,16.3271768 Z"></path>
                        <path d="M102.253506,0.531926121 C100.27431,7.80158311 98.1621839,15.9430079 96.9362644,21.1440633 C95.7398851,26.3894459 92.9631034,28.1773087 89.2262644,28.1773087 C87.8821839,28.1773087 86.8778161,27.8522427 86.0506897,27.5419525 L87.128908,23.5672823 C91.7076437,25.2073879 92.3575287,20.5087071 92.3575287,19.9915567 C92.3575287,19.9915567 88.5763793,20.4643799 87.512931,17.0511873 L82.3138506,0.517150396 L88.8717816,0.517150396 L93.3323563,14.8939314 L93.3618966,14.8939314 C94.321954,10.3282322 95.341092,5.36358839 96.3011494,0.517150396 L102.253506,0.517150396 L102.253506,0.531926121 Z"></path>
                    </g>
                    <g id="Shape">
                        <path d="M24.9762644,0.13298153 L23.7355747,0.13298153 C-3.70729885,0.635356201 0.280632184,46.6765172 0.280632184,46.6765172 C1.71333333,60.8316623 17.605977,56.9308707 19.9544253,47.548285 C20.6043103,44.962533 23.1152299,39.4659631 27.753046,38.3577836 C40.4701149,35.2844327 43.4832184,25.3403694 43.4241379,19.2379947 C43.3355172,8.40738786 35.7732184,0.487598945 24.9762644,0.13298153 Z M24.3559195,29.0047493 C18.5808046,29.0047493 13.8986782,24.3208443 13.8986782,18.5435356 C13.8986782,12.7662269 18.5808046,8.0823219 24.3559195,8.0823219 C30.1310345,8.0823219 34.8131609,12.7662269 34.8131609,18.5435356 C34.8131609,24.3208443 30.1310345,29.0047493 24.3559195,29.0047493 Z"></path>
                        <path d="M30.2491954,16.4601583 L27.5167241,16.4601583 C27.0293103,16.4601583 26.6452874,16.0612137 26.6452874,15.5883905 L26.6452874,12.8548813 C26.6452874,12.3672823 26.2464943,11.9831135 25.7738506,11.9831135 L22.9379885,11.9831135 C22.4505747,11.9831135 22.0665517,12.382058 22.0665517,12.8548813 L22.0665517,15.5883905 C22.0665517,16.0759894 21.6677586,16.4601583 21.1951149,16.4601583 L18.4626437,16.4601583 C17.9752299,16.4601583 17.5912069,16.8591029 17.5912069,17.3319261 L17.5912069,20.0654354 C17.5912069,20.5530343 17.99,20.9372032 18.4626437,20.9372032 L21.1951149,20.9372032 C21.6825287,20.9372032 22.0665517,21.3361478 22.0665517,21.808971 L22.0665517,24.5424802 C22.0665517,25.0300792 22.4653448,25.414248 22.9379885,25.414248 L25.7738506,25.414248 C26.2612644,25.414248 26.6452874,25.0153034 26.6452874,24.5424802 L26.6452874,21.808971 C26.6452874,21.321372 27.0440805,20.9372032 27.5167241,20.9372032 L30.2491954,20.9372032 C30.7366092,20.9372032 31.1206322,20.5382586 31.1206322,20.0654354 L31.1206322,17.3319261 C31.1354023,16.8591029 30.7366092,16.4601583 30.2491954,16.4601583 Z"></path>
                    </g>
                </g>
                <g transform="translate(189.500575, 3.102902)">
                    <path d="M16.9708621,20.4643799 C16.9708621,25.5620053 14.0906897,30.0242744 8.12356322,30.0242744 C6.11482759,30.0242744 4.49011494,29.5957784 2.95402299,28.8422164 L2.95402299,37.530343 L0.103390805,37.530343 L0.103390805,11.5693931 C2.39275862,10.6237467 4.91844828,9.91451187 7.48844828,9.91451187 C14.2827011,9.89973615 16.9708621,14.2881266 16.9708621,20.4643799 Z M14.0906897,20.4939314 C14.0906897,15.8691293 12.2739655,12.4707124 7.69522989,12.4707124 C5.56833333,12.4707124 3.66298851,13.1799472 2.95402299,13.5345646 L2.95402299,26.2564644 C4.57873563,27.1577836 5.87850575,27.6010554 7.69522989,27.6010554 C11.9194828,27.6158311 14.0906897,24.3356201 14.0906897,20.4939314 Z" id="Shape"></path>
                    <polygon id="Shape" points="22.7607471 0.0295514512 25.6113793 0.0295514512 25.567069 29.669657 22.8345977 29.669657"></polygon>
                    <path d="M47.1462069,16.3862797 L47.1462069,27.7635884 C45.9202874,28.5171504 41.6960345,30.0538259 38.4613793,30.0538259 C34.4734483,30.0538259 31.5489655,27.837467 31.5489655,24.2912929 C31.5489655,19.7846966 35.1381034,18.2480211 40.1156322,18.2480211 C41.9323563,18.2480211 43.2764368,18.4105541 44.3398851,18.5583113 L44.3398851,16.8147757 C44.3398851,14.5245383 42.8333333,12.3525066 39.2885057,12.3525066 C37.4717816,12.3525066 35.2267241,12.7514512 33.0407471,13.3424802 L32.641954,11.1704485 C34.2223563,10.6532982 37.1468391,9.9883905 39.9827011,9.9883905 C44.1478736,9.9883905 47.1462069,12.707124 47.1462069,16.3862797 Z M38.682931,28.0443272 C41.0904598,28.0443272 43.5866092,26.9804749 44.3251149,26.5815303 L44.3251149,20.4200528 C43.6604598,20.301847 42.3163793,20.139314 40.5291954,20.139314 C36.7775862,20.139314 34.0894253,21.1292876 34.0894253,24.2912929 C34.1041954,26.7440633 36.1572414,28.0443272 38.682931,28.0443272 Z" id="Shape"></path>
                    <path d="M51.9760345,35.1957784 C52.1975862,35.2253298 52.4043678,35.2253298 52.6111494,35.2253298 C53.6598276,35.2253298 54.5312644,34.8116095 55.2106897,33.9989446 C55.8901149,33.1862797 56.5695402,31.8416887 57.2637356,29.9799472 L49.9082184,10.3873351 L53.1133333,10.3873351 L58.6668966,26.0348285 L64.2204598,10.3873351 L67.4255747,10.3873351 L59.9814368,30.0094987 C58.9032184,32.8907652 57.825,34.9150396 56.7763218,36.0527704 C55.7128736,37.1905013 54.5017241,37.7667546 53.1576437,37.7667546 C52.5077586,37.7667546 51.8726437,37.7076517 51.2227586,37.5746702" id="Shape"></path>
                </g>
            </g>
        </g>
    </g>
</svg>