<?xml version="1.0" encoding="utf-8"?>
<!-- Generator: Adobe Illustrator 19.2.0, SVG Export Plug-In . SVG Version: 6.00 Build 0)  -->
<svg version="1.1" id="Layer_1" xmlns="http://www.w3.org/2000/svg" xmlns:xlink="http://www.w3.org/1999/xlink" x="0px" y="0px"
	 width="268.8px" height="51.7px" viewBox="0 0 268.8 51.7" style="enable-background:new 0 0 268.8 51.7;" xml:space="preserve">
<style type="text/css">
	.st0{fill:#FF8300;}
	.st1{fill:#FFFFFF;}
</style>
<g>
	<path class="st0" d="M34,11.8C26.4,4.6,21,1.3,15.8,0.2C10.2-1,6.3,2.7,11.3,13.1c0,0,4.9,10.3,17.2,19.3
		c5.9,4.3,13.6,5.9,11.9-2.7c-0.5-2.6-4-9.1-12.9-17c-2.6-2.2-7-5.2-8.8-3.2c-1.8,2,2,7.3,4.3,9.5c0,0,4.2,3.8,8,5.4
		c-0.3-0.2-0.6-0.5-0.9-0.8c-2.2-2-5.9-5.4-7-7.6c0,0,0,0,0-0.1c0-0.1-0.1-0.2-0.1-0.2c0,0,0-0.1-0.1-0.1c0-0.1-0.1-0.1-0.1-0.2
		c0,0,0-0.1,0-0.1c0-0.1-0.1-0.2-0.1-0.3c-0.1-0.5,0-0.7,0.4-1c0.1-0.1,0.6-0.3,1.4-0.2c0.3,0.1,0.7,0.3,1.1,0.5
		c0.2,0.1,0.3,0.2,0.3,0.2c1.2,0.8,2.6,2.1,4.1,4c3.1,3.7,6.4,8.6,3,9.2c-2.7,0.5-7.8-3.1-11.7-7.4c-3.2-3.5-9.1-12-4.7-14.1
		c4.3-2,13.8,4.7,20.7,13.8c5.3,7.1,9.6,16.3,3.8,18.3c-4.3,1.6-11.4-1.3-19.3-8.2C14.2,35.3,0,24.3,0,24.3s9.1,9.9,15,14.6
		c3.3,2.5,5.7,4.1,9.1,6.1c6.7,4.1,14,6,15.8,6.3c7.4,1.3,12.5-1.7,12.2-8.1C51.7,38.3,45.4,22.9,34,11.8"/>
	<path class="st1" d="M69,27.6c-0.4,1-0.7,1.8-1,2.7l-0.1-0.4c-0.3-0.7-0.6-1.5-0.9-2.3l-4.2-11l0-0.1h-3.6l7.5,18.7l0,0.1h2.2
		l8.1-18.6l0.1-0.3h-3.4L69,27.6z"/>
	<polygon class="st1" points="89.3,19.3 90.3,16.4 80.1,16.4 80.1,35.1 90.3,35.1 90.3,32.3 83.4,32.3 83.4,27 89.3,27 89.3,24.1 
		83.4,24.1 83.4,19.3 	"/>
	<path class="st1" d="M102.2,22c0,1.7-1.4,3-3.1,3h-1.5v-5.7H99C101.1,19.3,102.2,20.3,102.2,22 M102.3,26.6
		c2.1-0.9,3.3-2.8,3.3-4.9c0-3.4-2.4-5.3-6.5-5.3h-4.8v18.8h3.3v-7.5H99c0.6,0.2,1.8,2.2,3.8,5.6l0.1,0.2c0.3,0.5,0.6,1,1,1.6
		l0.1,0.1h3.8l-0.7-1.2C104.7,30.1,103.1,27.4,102.3,26.6"/>
	<polygon class="st1" points="108.7,19.3 114,19.3 114,35.1 117.3,35.1 117.3,19.3 122.3,19.3 123.2,16.4 108.7,16.4 	"/>
	<rect x="126.2" y="16.4" class="st1" width="3.3" height="18.8"/>
	<path class="st1" d="M146.5,32c-0.7,0.3-1.7,0.5-2.9,0.5c-4,0-6.6-2.7-6.6-6.8c0-4.1,2.6-6.7,6.8-6.7c1.6,0,3.3,0.5,5,1.3l0.3,0.1
		l0-3.2l-0.1,0c-1.7-0.7-3.5-1-5.4-1c-6,0-10.2,4-10.2,9.8c0,5.5,3.9,9.4,9.4,9.4c3.4,0,5.9-1.1,6.9-1.6l0.1-0.1v-8.1h-3.3V32z"/>
	<path class="st1" d="M162.8,32.6c-3.7,0-6-2.6-6-6.7c0-4.1,2.4-6.7,6-6.7c3.6,0,6,2.6,6,6.7C168.7,29.9,166.4,32.6,162.8,32.6
		 M169.9,19.2L169.9,19.2c-1.7-1.9-4.2-2.9-7.1-2.9c-2.7,0-5.1,1-6.8,2.7c-1.7,1.8-2.7,4.2-2.7,7c0,2.9,1.1,5.4,3,7.2
		c1.7,1.5,3.9,2.3,6.5,2.3c2.7,0,5-0.9,6.8-2.6c1.7-1.7,2.7-4.2,2.7-7C172.2,23.2,171.4,20.9,169.9,19.2"/>
	<path class="st0" d="M193.9,32c-0.7,0.3-1.7,0.5-2.9,0.5c-4,0-6.6-2.7-6.6-6.8c0-4.1,2.6-6.7,6.8-6.7c1.6,0,3.3,0.5,5,1.3l0.3,0.1
		l0-3.1v-0.1l-0.1,0c-1.7-0.7-3.5-1-5.4-1c-6,0-10.2,4-10.2,9.8c0,5.5,3.9,9.4,9.4,9.4c3.4,0,5.9-1.1,6.9-1.6l0.1-0.1v-8.1h-3.3V32z
		"/>
	<path class="st0" d="M208.3,21.3c0.1,0.5,0.3,1,0.5,1.6l1.6,4.7H206l1.7-4.7C208,22.4,208.1,21.9,208.3,21.3 M209.5,16.3h-2.3
		L200,34.9l-0.1,0.2h3.3l1.7-4.7h6.6l1.8,4.6l0,0.1h3.5l-7.4-18.7L209.5,16.3z"/>
	<path class="st0" d="M230.3,24.2L230.3,24.2c-0.4,0.6-0.7,1.1-0.9,1.6c-0.3-0.5-0.6-1-1-1.6l-5.3-7.8l-0.1-0.1h-3.1v18.8h3.3v-12
		c0-0.4,0-0.7,0-1.1c0.2,0.3,0.4,0.6,0.5,0.8c0.1,0.1,0.1,0.2,0.2,0.3l4.5,6.6l0.1,0.1h1.7l4.2-6.6c0.1-0.1,0.1-0.2,0.2-0.4
		c0.1-0.2,0.3-0.5,0.5-0.8c0,0.4,0,0.8,0,1.2v11.9h3.3V16.4h-3.1L230.3,24.2z"/>
	<polygon class="st0" points="252.7,19.3 253.6,16.6 253.7,16.4 243.4,16.4 243.4,35.1 253.6,35.1 253.6,32.3 246.7,32.3 246.7,27 
		252.7,27 252.7,24.1 246.7,24.1 246.7,19.3 	"/>
	<path class="st0" d="M264,24.3c-1.8-1-3.3-1.8-3.3-3.3c0-1.4,1.4-1.9,2.7-1.9c1.3,0,2.7,0.4,4.1,1.3l0.3,0.2l0-3.1v-0.1l-0.1-0.1
		c-0.9-0.5-2.4-1-4.4-1c-4.1,0-6,2.6-6,5.1c0,1.3,0.4,2.4,1.3,3.4c0.9,1,2.2,1.7,3.4,2.4c1.7,1,3.3,1.8,3.3,3.4c0,1.1-1,2.2-3.1,2.2
		c-1.7,0-3.1-0.7-4-1.3l-0.2-0.1l-1.4,2.4l0,0.1l0.1,0.1c1.1,0.7,2.8,1.6,5.5,1.6c3.8,0,6.5-2.2,6.5-5.3
		C268.8,26.9,266.3,25.5,264,24.3"/>
</g>
</svg>
