<svg xmlns="http://www.w3.org/2000/svg" xmlns:xlink="http://www.w3.org/1999/xlink" preserveAspectRatio="xMidYMid" width="267" height="44.62" viewBox="0 0 267 44.62">
  <defs>
    <style>
      .cls-1 {
        fill: #fff;
        fill-rule: evenodd;
      }
    </style>
  </defs>
  <path d="M262.267,15.688 L266.139,17.796 C266.942,18.233 267.240,19.242 266.805,20.049 C266.369,20.855 265.364,21.155 264.561,20.717 L258.904,17.637 L254.155,20.389 C254.375,21.097 254.493,21.849 254.493,22.628 C254.493,23.408 254.375,24.159 254.156,24.867 L258.903,27.619 L264.561,24.538 C265.364,24.102 266.369,24.401 266.804,25.208 C267.240,26.014 266.942,27.023 266.138,27.460 L262.267,29.568 L265.367,31.365 C266.157,31.821 266.429,32.832 265.975,33.625 C265.522,34.417 264.514,34.690 263.725,34.235 L260.612,32.431 L260.730,36.860 C260.751,37.775 260.031,38.534 259.120,38.555 C258.209,38.577 257.453,37.853 257.432,36.938 L257.261,30.488 L252.506,27.732 C252.438,27.806 252.368,27.879 252.297,27.950 C251.314,28.938 250.057,29.652 248.651,29.970 L248.651,35.485 L254.124,38.855 C254.903,39.332 255.148,40.353 254.674,41.134 C254.199,41.915 253.183,42.163 252.404,41.685 L248.651,39.374 L248.651,42.972 C248.651,43.891 247.910,44.635 246.996,44.635 C246.082,44.635 245.341,43.891 245.341,42.972 L245.341,39.374 L241.588,41.685 C240.809,42.163 239.793,41.915 239.318,41.134 C238.843,40.353 239.089,39.332 239.868,38.855 L245.341,35.485 L245.341,29.969 C243.936,29.651 242.680,28.937 241.697,27.950 C241.626,27.879 241.557,27.805 241.488,27.731 L236.732,30.487 L236.560,36.937 C236.539,37.852 235.783,38.575 234.873,38.553 C233.962,38.532 233.241,37.774 233.263,36.860 L233.380,32.430 L230.268,34.234 C229.478,34.689 228.471,34.416 228.017,33.624 C227.564,32.831 227.836,31.820 228.625,31.365 L231.726,29.567 L227.854,27.459 C227.051,27.021 226.753,26.013 227.188,25.206 C227.624,24.400 228.629,24.100 229.432,24.538 L235.089,27.618 L239.838,24.866 C239.619,24.159 239.501,23.408 239.501,22.628 C239.501,21.849 239.620,21.097 239.840,20.389 L235.090,17.636 L229.433,20.716 C228.629,21.153 227.624,20.854 227.189,20.047 C226.753,19.241 227.052,18.232 227.855,17.795 L231.727,15.687 L228.626,13.889 C227.837,13.434 227.564,12.422 228.018,11.630 C228.471,10.838 229.479,10.565 230.268,11.019 L233.381,12.824 L233.263,8.394 C233.242,7.480 233.963,6.722 234.873,6.700 C235.784,6.678 236.540,7.402 236.561,8.316 L236.732,14.767 L241.490,17.524 C241.558,17.450 241.627,17.378 241.697,17.307 C242.692,16.309 243.969,15.599 245.342,15.288 L245.342,9.770 L239.869,6.399 C239.090,5.923 238.845,4.902 239.319,4.121 C239.794,3.339 240.811,3.092 241.589,3.569 L245.342,5.880 L245.342,2.283 C245.342,1.364 246.083,0.620 246.997,0.620 C247.911,0.620 248.653,1.364 248.653,2.283 L248.653,5.880 L252.405,3.569 C253.184,3.092 254.201,3.339 254.675,4.121 C255.150,4.902 254.904,5.923 254.126,6.399 L248.653,9.770 L248.653,15.288 C250.058,15.606 251.314,16.320 252.297,17.307 C252.368,17.378 252.437,17.450 252.505,17.524 L257.262,14.767 L257.433,8.317 C257.454,7.403 258.210,6.679 259.121,6.701 C260.031,6.722 260.752,7.481 260.731,8.395 L260.613,12.825 L263.726,11.020 C264.515,10.566 265.522,10.838 265.976,11.631 C266.429,12.423 266.157,13.435 265.368,13.890 L262.267,15.688 ZM249.956,19.658 C249.199,18.898 248.152,18.427 246.997,18.427 C245.896,18.427 244.817,18.876 244.038,19.658 C243.281,20.418 242.812,21.469 242.812,22.628 C242.812,23.789 243.281,24.839 244.038,25.600 C244.795,26.359 245.842,26.830 246.997,26.830 C248.152,26.830 249.199,26.359 249.956,25.600 C250.713,24.839 251.182,23.789 251.182,22.628 C251.182,21.469 250.713,20.418 249.956,19.658 ZM204.462,34.628 C205.331,36.253 204.972,38.323 203.506,39.545 C201.931,40.859 199.639,40.720 198.227,39.284 C197.838,39.524 197.441,39.764 197.037,39.999 C190.871,43.588 184.987,45.323 182.716,44.380 C181.770,43.987 181.407,43.273 181.037,42.301 C179.157,37.366 182.495,34.088 178.905,26.487 C176.976,23.120 178.227,18.670 181.660,15.993 C180.470,16.077 179.280,15.487 178.643,14.376 C177.753,12.822 178.281,10.834 179.822,9.936 C181.364,9.039 183.335,9.572 184.225,11.126 C184.862,12.238 184.773,13.572 184.106,14.569 C188.121,12.910 192.569,14.043 194.497,17.411 C199.162,24.247 203.587,23.105 206.872,27.007 C207.714,28.009 208.269,28.881 207.837,30.208 C207.444,31.422 206.246,32.971 204.462,34.628 ZM182.863,25.574 C180.893,23.012 181.010,19.404 182.865,16.466 C180.304,19.160 179.533,22.972 181.233,25.943 C183.909,31.609 182.736,34.872 182.744,38.211 C183.529,37.178 184.564,36.088 185.806,34.997 C185.656,32.403 185.423,29.510 182.863,25.574 ZM193.103,33.129 C178.608,41.566 181.497,46.612 195.992,38.174 C196.404,37.934 196.808,37.692 197.202,37.449 C196.935,36.359 197.139,35.187 197.784,34.249 L195.689,31.714 C194.846,32.145 193.980,32.618 193.103,33.129 ZM205.522,29.262 C204.936,28.240 201.784,28.900 197.751,30.720 L199.509,32.846 C200.676,32.357 202.014,32.471 203.083,33.143 C204.970,31.432 205.939,29.991 205.522,29.262 ZM192.551,11.852 L186.287,12.390 C186.519,10.991 185.319,8.715 183.639,8.306 L189.183,2.056 C189.929,1.216 192.149,1.611 192.644,2.817 L194.917,8.339 C195.531,9.831 193.929,11.734 192.551,11.852 ZM178.697,16.808 L174.671,21.892 C173.810,22.980 171.382,23.529 170.471,22.201 L167.296,17.573 C166.560,16.500 167.276,14.402 168.374,14.170 L176.514,12.454 C176.025,14.125 177.380,16.311 178.697,16.808 ZM146.610,15.062 C147.775,18.845 146.472,20.453 141.907,19.110 C140.458,18.683 137.983,15.693 137.834,27.149 C137.834,27.494 137.850,27.858 137.807,28.201 L137.815,28.249 L138.990,36.104 L140.186,43.095 C140.285,43.828 139.763,44.504 139.018,44.602 C138.273,44.700 137.588,44.186 137.488,43.452 L136.293,36.461 C134.987,27.116 134.788,30.681 133.649,37.498 L134.881,43.047 C135.008,43.778 134.508,44.473 133.767,44.597 C133.025,44.721 132.320,44.230 132.193,43.499 L130.937,37.805 C130.899,37.640 130.892,37.465 130.921,37.288 L130.925,37.289 L132.023,31.275 L121.024,31.275 L119.659,35.814 L120.923,43.089 C121.026,43.823 120.506,44.501 119.761,44.602 C119.016,44.703 118.328,44.191 118.225,43.457 L116.938,36.015 C116.894,35.814 116.896,35.602 116.953,35.391 L116.956,35.392 C119.145,27.213 116.760,31.598 114.575,36.185 L113.706,43.399 C113.636,44.136 112.972,44.677 112.224,44.607 C111.476,44.538 110.927,43.884 110.998,43.147 L111.879,35.809 C111.879,35.757 111.960,35.234 112.013,35.258 C114.197,30.669 114.625,32.325 114.625,27.772 L114.625,25.358 C114.625,24.862 114.733,24.377 114.929,23.944 C112.601,24.776 109.367,20.430 114.424,18.526 C114.445,21.637 117.380,21.854 119.639,21.854 L126.177,21.854 C130.341,21.854 133.645,14.556 135.050,11.263 C133.565,10.888 132.815,10.251 131.773,9.258 C131.443,8.943 131.142,8.596 130.875,8.213 C128.741,8.575 127.212,8.374 126.013,7.507 C124.723,6.575 123.984,5.413 123.417,2.978 C123.277,2.376 123.659,1.776 124.269,1.638 C124.880,1.501 125.490,1.877 125.629,2.479 C126.073,4.384 126.574,5.139 127.354,5.703 C127.915,6.109 128.719,6.230 129.865,6.099 C129.535,5.004 129.391,4.170 129.470,2.672 C129.502,2.056 130.035,1.581 130.661,1.613 C131.286,1.644 131.768,2.169 131.736,2.786 C131.601,5.347 132.231,6.585 133.346,7.647 C134.317,8.572 135.121,9.082 136.700,9.318 C137.370,8.875 138.233,8.592 139.137,8.458 C140.058,6.952 140.357,5.593 138.922,3.319 C138.569,2.759 138.711,2.093 139.239,1.832 C139.767,1.571 140.481,1.814 140.834,2.374 C141.624,3.628 141.993,4.305 142.180,5.328 C142.925,5.149 143.423,4.845 143.743,4.457 C144.221,3.875 144.428,3.490 144.409,2.579 C144.395,1.968 144.898,1.539 145.531,1.620 C146.164,1.702 146.687,2.263 146.701,2.874 C146.729,4.208 146.431,5.021 145.620,6.007 C144.927,6.850 143.837,7.450 142.153,7.659 C142.090,7.945 141.938,8.224 141.763,8.496 L143.715,9.267 C145.645,10.343 146.025,13.162 146.610,15.062 ZM121.565,23.410 C120.890,23.410 120.342,23.950 120.342,24.615 C120.342,25.280 120.890,25.819 121.565,25.819 C122.240,25.819 122.788,25.280 122.788,24.615 C122.788,23.950 122.240,23.410 121.565,23.410 ZM125.752,26.157 C125.077,26.157 124.529,26.696 124.529,27.362 C124.529,28.026 125.077,28.566 125.752,28.566 C126.427,28.566 126.975,28.026 126.975,27.362 C126.975,26.696 126.427,26.157 125.752,26.157 ZM129.787,23.344 C129.112,23.344 128.564,23.883 128.564,24.548 C128.564,25.213 129.112,25.752 129.787,25.752 C130.462,25.752 131.009,25.213 131.009,24.548 C131.009,23.883 130.462,23.344 129.787,23.344 ZM138.188,12.216 L138.285,12.370 C139.280,13.934 139.663,15.991 142.064,15.543 C143.109,15.347 143.401,15.557 143.650,15.727 C143.302,11.161 141.102,12.414 138.188,12.216 ZM141.510,15.189 C140.834,15.189 140.287,14.650 140.287,13.984 C140.287,13.319 140.834,12.780 141.510,12.780 C142.185,12.780 142.732,13.319 142.732,13.984 C142.732,14.650 142.185,15.189 141.510,15.189 ZM91.135,26.454 C90.531,26.475 89.933,26.468 89.355,26.423 C88.854,26.384 88.350,26.317 87.851,26.217 C87.377,26.540 86.880,26.824 86.361,27.058 C85.311,27.532 84.179,27.801 82.968,27.779 C83.409,29.073 83.648,30.461 83.648,31.904 C83.648,35.402 82.249,38.570 79.988,40.863 C77.727,43.155 74.603,44.573 71.153,44.573 C67.703,44.573 64.579,43.155 62.318,40.863 C60.057,38.570 58.658,35.402 58.658,31.904 C58.658,30.275 58.963,28.716 59.517,27.284 C58.498,27.232 57.537,26.977 56.637,26.571 C56.118,26.337 55.622,26.052 55.148,25.730 C54.648,25.829 54.145,25.897 53.644,25.935 C53.065,25.980 52.468,25.987 51.864,25.966 C51.314,25.948 50.881,25.482 50.898,24.924 C50.915,24.366 51.376,23.927 51.926,23.944 C52.297,23.957 52.675,23.957 53.058,23.940 C52.840,23.713 52.628,23.480 52.424,23.242 C52.061,22.822 52.103,22.183 52.518,21.815 C52.932,21.448 53.562,21.491 53.925,21.910 C54.427,22.494 54.972,23.043 55.555,23.521 C55.549,23.372 55.541,23.223 55.531,23.073 C55.496,22.584 55.436,22.108 55.344,21.657 C55.234,21.109 55.582,20.575 56.122,20.464 C56.662,20.352 57.189,20.705 57.299,21.253 C57.412,21.813 57.486,22.374 57.524,22.930 C57.566,23.521 57.571,24.128 57.547,24.739 L57.545,24.765 C58.463,25.163 59.460,25.353 60.531,25.235 C60.858,24.701 61.223,24.192 61.623,23.714 C60.910,23.022 60.534,22.130 60.649,20.992 C60.773,19.759 61.870,19.685 62.844,19.878 C62.769,19.726 62.699,19.571 62.633,19.415 C62.154,18.278 61.888,17.031 61.888,15.724 C61.888,13.470 62.671,11.402 63.977,9.783 C62.809,9.518 61.621,9.213 60.408,8.864 C59.877,8.713 59.567,8.154 59.716,7.615 C59.865,7.077 60.416,6.763 60.947,6.914 C62.117,7.251 63.263,7.545 64.389,7.799 L64.590,2.195 C64.625,1.222 64.530,0.791 66.081,0.791 L80.329,0.791 C80.969,0.791 81.494,1.649 81.315,2.160 L78.894,9.092 C80.247,9.039 81.615,8.947 83.011,8.817 C83.559,8.767 84.045,9.177 84.094,9.733 C84.143,10.289 83.739,10.781 83.191,10.831 C81.844,10.955 80.524,11.047 79.220,11.103 C79.982,12.468 80.418,14.044 80.418,15.724 C80.418,17.031 80.152,18.278 79.673,19.415 C79.535,19.740 79.381,20.055 79.209,20.360 C80.409,20.751 80.979,21.915 80.324,23.304 C80.949,23.989 81.501,24.745 81.967,25.559 L82.043,25.660 C83.275,25.887 84.415,25.703 85.453,25.253 L85.452,25.227 C85.428,24.616 85.433,24.009 85.474,23.418 C85.513,22.862 85.586,22.301 85.699,21.740 C85.810,21.193 86.336,20.840 86.876,20.952 C87.416,21.063 87.764,21.598 87.654,22.144 C87.563,22.596 87.502,23.071 87.468,23.561 C87.457,23.711 87.449,23.861 87.444,24.010 C88.027,23.531 88.571,22.982 89.073,22.398 C89.436,21.978 90.066,21.935 90.481,22.303 C90.895,22.671 90.937,23.309 90.575,23.730 C90.370,23.968 90.159,24.201 89.941,24.428 C90.323,24.445 90.701,24.445 91.072,24.432 C91.623,24.415 92.083,24.853 92.100,25.411 C92.117,25.969 91.685,26.437 91.135,26.454 ZM76.855,11.163 C75.202,11.175 73.565,11.121 71.922,10.992 C70.064,10.846 68.196,10.605 66.288,10.255 C66.195,10.340 66.105,10.427 66.017,10.516 C64.703,11.849 63.890,13.690 63.890,15.724 C63.890,16.757 64.097,17.736 64.470,18.622 C64.851,19.523 65.404,20.333 66.088,21.006 C66.104,21.020 66.120,21.035 66.136,21.050 C69.887,22.175 73.634,21.645 76.148,21.071 L76.167,21.052 L76.170,21.052 C76.876,20.370 77.446,19.544 77.835,18.622 C78.209,17.736 78.416,16.757 78.416,15.724 C78.416,14.002 77.832,12.417 76.855,11.163 ZM80.239,26.574 C79.893,25.969 79.491,25.403 79.038,24.882 C78.743,25.015 78.105,25.175 77.238,25.328 C78.346,27.656 78.848,31.282 77.838,33.772 C77.121,33.845 73.117,34.390 72.961,34.218 C73.129,33.838 73.062,33.715 73.161,33.353 C73.801,31.007 74.186,27.950 72.667,25.829 C69.496,25.998 65.858,25.838 63.418,24.832 C62.770,25.588 62.217,26.312 62.067,26.574 C61.172,28.137 60.660,29.959 60.660,31.904 C60.660,34.843 61.834,37.503 63.733,39.428 C65.631,41.353 68.255,42.544 71.153,42.544 C74.051,42.544 76.674,41.353 78.573,39.428 C80.471,37.503 81.646,34.843 81.646,31.904 C81.646,29.959 81.133,28.137 80.239,26.574 ZM69.905,38.822 C69.262,38.822 68.741,38.291 68.741,37.635 C68.741,36.980 69.262,36.449 69.905,36.449 C70.547,36.449 71.068,36.980 71.068,37.635 C71.068,38.291 70.547,38.822 69.905,38.822 ZM69.505,32.419 C70.147,32.419 70.668,32.950 70.668,33.605 C70.668,34.261 70.147,34.792 69.505,34.792 C68.862,34.792 68.341,34.261 68.341,33.605 C68.341,32.950 68.862,32.419 69.505,32.419 ZM69.810,30.620 C69.168,30.620 68.647,30.089 68.647,29.433 C68.647,28.778 69.168,28.247 69.810,28.247 C70.453,28.247 70.974,28.778 70.974,29.433 C70.974,30.089 70.453,30.620 69.810,30.620 ZM73.696,15.641 C73.054,15.641 72.533,15.110 72.533,14.455 C72.533,13.799 73.054,13.268 73.696,13.268 C74.339,13.268 74.860,13.799 74.860,14.455 C74.860,15.110 74.339,15.641 73.696,15.641 ZM74.265,17.549 C74.718,17.807 74.849,18.342 74.558,18.744 C74.305,19.093 73.995,19.386 73.646,19.621 C72.973,20.074 72.171,20.294 71.359,20.294 C70.567,20.296 69.765,20.088 69.067,19.690 C68.646,19.450 68.258,19.135 67.928,18.750 C67.604,18.371 67.688,17.830 68.115,17.542 C68.543,17.254 69.153,17.329 69.477,17.708 C69.659,17.920 69.879,18.097 70.120,18.235 C70.506,18.455 70.939,18.569 71.359,18.569 C71.759,18.569 72.149,18.463 72.471,18.246 C72.634,18.136 72.786,17.991 72.917,17.810 C73.208,17.408 73.812,17.292 74.265,17.549 ZM68.744,15.649 C68.102,15.649 67.581,15.117 67.581,14.462 C67.581,13.807 68.102,13.276 68.744,13.276 C69.387,13.276 69.908,13.807 69.908,14.462 C69.908,15.117 69.387,15.649 68.744,15.649 ZM35.324,44.615 L0.004,44.615 C4.870,43.423 10.439,42.716 16.369,42.624 L16.340,38.646 C13.404,40.278 9.054,39.516 4.154,36.162 L4.121,36.140 L4.089,36.118 L4.089,36.117 L4.057,36.095 L4.025,36.073 L3.993,36.051 L3.930,36.007 L3.899,35.985 L3.868,35.963 L3.776,35.897 L3.746,35.876 L3.715,35.854 L3.715,35.853 L3.685,35.832 L3.685,35.832 L3.656,35.811 L3.656,35.810 L3.597,35.767 L3.596,35.767 L3.567,35.745 L3.538,35.723 L3.509,35.702 L3.509,35.701 L3.481,35.680 L3.452,35.659 L3.452,35.659 L3.424,35.637 L3.396,35.616 L3.368,35.595 L3.368,35.594 L3.340,35.573 L3.313,35.551 L3.312,35.551 L3.258,35.509 L3.258,35.508 L3.231,35.488 L3.205,35.466 L3.178,35.445 L3.152,35.424 L3.126,35.403 L3.125,35.403 L3.100,35.382 L3.074,35.361 L3.074,35.360 L3.048,35.340 L3.023,35.318 L2.998,35.297 L2.974,35.276 L2.973,35.276 L2.949,35.256 L2.924,35.235 L2.900,35.215 L2.876,35.194 L2.829,35.152 L2.805,35.132 L2.782,35.112 L2.759,35.092 L2.737,35.071 L2.714,35.051 L2.710,35.047 C7.321,34.311 11.205,32.584 13.557,29.087 L13.558,29.086 L13.567,29.072 L13.568,29.072 L13.578,29.057 L13.578,29.057 L13.588,29.042 L13.588,29.042 L13.598,29.027 L13.608,29.012 L13.618,28.998 L13.628,28.983 L13.628,28.983 L13.638,28.968 L13.648,28.953 L13.658,28.938 L13.668,28.924 L13.677,28.909 L13.687,28.894 L13.697,28.879 L13.707,28.864 L13.716,28.849 L13.726,28.835 L13.736,28.819 L13.746,28.804 L13.755,28.789 L13.765,28.774 L13.774,28.759 L13.784,28.744 C10.548,28.032 7.450,26.571 5.780,25.052 L5.906,25.034 L6.031,25.015 C9.087,24.537 13.650,22.965 14.667,20.019 L14.737,19.876 C12.109,19.323 9.573,18.140 8.220,16.908 L8.452,16.843 L8.453,16.843 L8.684,16.774 L8.685,16.774 L8.914,16.702 L8.915,16.702 L9.141,16.628 L9.142,16.628 C11.488,15.825 13.625,14.630 15.270,12.868 L15.271,12.868 L15.373,12.757 L15.373,12.757 L15.473,12.645 L15.474,12.645 L15.572,12.532 L15.572,12.532 L15.669,12.418 L15.670,12.418 C16.437,11.502 17.018,10.497 17.379,9.430 L17.379,9.430 C17.409,9.341 17.437,9.251 17.464,9.162 L17.465,9.162 L17.503,9.027 L17.504,9.027 C17.542,8.892 17.576,8.755 17.607,8.618 L17.607,8.618 L17.636,8.481 L17.637,8.481 L17.664,8.344 L17.664,8.344 L17.691,8.481 L17.691,8.481 L17.720,8.618 L17.721,8.618 C17.751,8.755 17.785,8.892 17.824,9.027 L17.824,9.027 L17.863,9.162 L17.863,9.162 C17.890,9.251 17.918,9.341 17.948,9.430 L17.949,9.430 C19.078,12.780 22.136,15.079 25.515,16.390 L25.516,16.390 L25.737,16.472 L25.738,16.472 L25.960,16.552 L25.961,16.552 L26.185,16.628 L26.186,16.628 L26.413,16.702 L26.414,16.702 L26.643,16.774 L26.643,16.774 L26.874,16.843 L26.875,16.843 L27.108,16.908 C25.754,18.140 23.219,19.323 20.591,19.876 L20.661,20.019 C21.673,22.955 26.149,24.559 29.547,25.052 C27.878,26.571 24.780,28.032 21.544,28.744 L21.553,28.759 L21.563,28.774 L21.572,28.789 L21.582,28.804 L21.592,28.819 L21.601,28.835 L21.611,28.849 L21.621,28.864 L21.631,28.879 L21.641,28.894 L21.650,28.909 L21.660,28.924 C24.313,32.807 28.013,34.290 32.420,35.015 L32.617,35.047 L32.613,35.051 L32.591,35.071 L32.568,35.092 L32.546,35.112 L32.522,35.132 L32.499,35.152 L32.475,35.173 L32.452,35.194 L32.428,35.215 L32.403,35.235 C28.166,38.882 24.945,40.537 18.947,38.836 L18.947,42.624 C24.881,42.715 30.455,43.422 35.324,44.615 ZM20.254,7.927 L17.676,6.461 L15.073,7.927 L15.677,5.032 L13.473,3.020 L16.424,2.697 L17.664,-0.013 L18.885,2.683 L21.855,3.020 L19.658,5.009 L20.254,7.927 Z" class="cls-1"/>
</svg>
