<?xml version="1.0" encoding="utf-8"?>
<!-- Generator: Adobe Illustrator 19.1.0, SVG Export Plug-In . SVG Version: 6.00 Build 0)  -->
<svg version="1.1" id="Layer_1" xmlns="http://www.w3.org/2000/svg" xmlns:xlink="http://www.w3.org/1999/xlink" x="0px" y="0px"
	 width="80.2px" height="90px" viewBox="4 -9 80.2 90" style="enable-background:new 4 -9 80.2 90;" xml:space="preserve">
<metadata><?xpacket begin="﻿" id="W5M0MpCehiHzreSzNTczkc9d"?>
<x:xmpmeta xmlns:x="adobe:ns:meta/" x:xmptk="Adobe XMP Core 5.6-c067 79.157747, 2015/03/30-23:40:42        ">
   <rdf:RDF xmlns:rdf="http://www.w3.org/1999/02/22-rdf-syntax-ns#">
      <rdf:Description rdf:about=""/>
   </rdf:RDF>
</x:xmpmeta>
                                                                                                    
                                                                                                    
                                                                                                    
                                                                                                    
                                                                                                    
                                                                                                    
                                                                                                    
                                                                                                    
                                                                                                    
                                                                                                    
                                                                                                    
                                                                                                    
                                                                                                    
                                                                                                    
                                                                                                    
                                                                                                    
                                                                                                    
                                                                                                    
                                                                                                    
                                                                                                    
                           
<?xpacket end="w"?></metadata>
<style type="text/css">
	.st0{fill:#FFFFFF;}
</style>
<path class="st0" d="M44.1,81C22,81,4,63,4,40.8c0-9.5,3.4-18.7,9.5-25.9C19.2,8.2,26.8,3.6,35.3,1.7c0-0.1,0-0.1,0-0.2l2.4-9.3
	C37.9-8.5,38.5-9,39.2-9h9c0.7,0,1.2,0.4,1.4,1.1l2.9,9.5c18.1,3.9,31.8,20,31.8,39.3C84.2,63,66.2,81,44.1,81z M44.1,76
	c17.2,0,31.5-12.4,34.5-28.7c-5.9,2.8-17.2,6.6-34.5,6.6c-17.5,0-28.6-3.6-34.5-6.4C12.7,63.7,27,76,44.1,76z M47-6h-6.7l-1.8,7.1
	c1.8-0.3,3.7-0.4,5.6-0.4c1.7,0,3.4,0.1,5,0.3L47-6z M44.1,5.7c-7.6,0-14.9,2.5-20.9,6.9c3.2,1.6,9.9,3.9,20.9,3.9
	c10.7,0,17.6-2.4,20.8-4C59.1,8.3,51.9,5.7,44.1,5.7z M67.4,14.7c-3,1.7-10.6,4.9-23.4,4.9c-13,0-20.3-3.1-23.4-4.8
	c-1.2,1.1-2.3,2.2-3.3,3.4c-5,5.9-7.8,13.2-8.2,20.9c2.1,1.4,12.7,7.7,35,7.7c22.2,0,33.5-6.8,35-7.8C78.6,29.3,74.2,20.7,67.4,14.7
	z M75,31.5l-6.6,1.2l5.5,3.9c0.5,0.3,0.6,0.9,0.2,1.4c-0.2,0.3-0.5,0.4-0.8,0.4c-0.2,0-0.4-0.1-0.6-0.2l-5.5-3.9l1.2,6.7
	c0.1,0.5-0.3,1.1-0.8,1.2c-0.1,0-0.1,0-0.2,0c-0.5,0-0.9-0.3-1-0.8l-1.2-6.7l-3.9,5.5c-0.2,0.3-0.5,0.4-0.8,0.4
	c-0.2,0-0.4-0.1-0.6-0.2c-0.5-0.3-0.6-0.9-0.2-1.4l3.9-5.5l-6.6,1.2c-0.1,0-0.1,0-0.2,0c-0.5,0-0.9-0.3-1-0.8
	c-0.1-0.5,0.3-1.1,0.8-1.2l6.7-1.2l-5.5-3.9c-0.5-0.3-0.6-0.9-0.2-1.4c0.3-0.5,0.9-0.6,1.4-0.2l5.5,3.9l-1.2-6.7
	c-0.1-0.5,0.3-1.1,0.8-1.2c0.5-0.1,1.1,0.3,1.2,0.8l1.2,6.7l3.9-5.5c0.3-0.5,0.9-0.6,1.4-0.2c0.5,0.3,0.6,0.9,0.2,1.4L68,30.7
	l6.6-1.2c0.6-0.1,1.1,0.3,1.2,0.8C75.9,30.9,75.6,31.4,75,31.5z M53.3,34.9h-6.6l4.7,4.7c0.4,0.4,0.4,1,0,1.4
	c-0.2,0.2-0.5,0.3-0.7,0.3c-0.3,0-0.5-0.1-0.7-0.3l-4.7-4.7v6.6c0,0.6-0.5,1-1,1c-0.6,0-1-0.4-1-1v-6.6L38.6,41
	c-0.2,0.2-0.5,0.3-0.7,0.3c-0.3,0-0.5-0.1-0.7-0.3c-0.4-0.4-0.4-1,0-1.4l4.7-4.7h-6.6c-0.6,0-1-0.5-1-1c0-0.6,0.4-1,1-1h6.6
	l-4.7-4.7c-0.4-0.4-0.4-1,0-1.4c0.4-0.4,1-0.4,1.4,0l4.7,4.7v-6.6c0-0.6,0.4-1,1-1c0.6,0,1,0.5,1,1v6.6l4.7-4.7c0.4-0.4,1-0.4,1.4,0
	c0.4,0.4,0.4,1,0,1.4l-4.7,4.7h6.6c0.6,0,1,0.4,1,1C54.3,34.4,53.9,34.9,53.3,34.9z M31.7,34.7c-0.1,0-0.1,0-0.2,0l-6.6-1.2l3.9,5.5
	c0.3,0.5,0.2,1.1-0.2,1.4c-0.2,0.1-0.4,0.2-0.6,0.2c-0.3,0-0.6-0.1-0.8-0.4l-3.9-5.5L22,41.3c-0.1,0.5-0.5,0.8-1,0.8
	c-0.1,0-0.1,0-0.2,0c-0.5-0.1-0.9-0.6-0.8-1.2l1.2-6.7l-5.5,3.9c-0.2,0.1-0.4,0.2-0.6,0.2c-0.3,0-0.6-0.1-0.8-0.4
	c-0.3-0.5-0.2-1.1,0.2-1.4l5.5-3.9l-6.6-1.2c-0.5-0.1-0.9-0.6-0.8-1.2c0.1-0.5,0.6-0.9,1.2-0.8l6.6,1.2l-3.9-5.5
	c-0.3-0.5-0.2-1.1,0.2-1.4c0.5-0.3,1.1-0.2,1.4,0.2l3.9,5.5l1.2-6.7c0.1-0.5,0.6-0.9,1.2-0.8c0.5,0.1,0.9,0.6,0.8,1.2L24,29.9
	l5.5-3.9c0.5-0.3,1.1-0.2,1.4,0.2c0.3,0.5,0.2,1.1-0.2,1.4l-5.5,3.9l6.6,1.2c0.5,0.1,0.9,0.6,0.8,1.2C32.6,34.4,32.1,34.7,31.7,34.7
	z M47.9,62.4c0,2-1.6,3.6-3.6,3.6c-2,0-3.6-1.6-3.6-3.6c0-2,1.6-3.6,3.6-3.6C46.3,58.8,47.9,60.5,47.9,62.4z M43.7,62.4
	c0,0.3,0.3,0.6,0.6,0.6c0.3,0,0.6-0.3,0.6-0.6c0-0.3-0.3-0.6-0.6-0.6C44,61.8,43.7,62.1,43.7,62.4z M31.5,65.2c-2,0-3.6-1.6-3.6-3.6
	c0-2,1.6-3.6,3.6-3.6s3.6,1.6,3.6,3.6C35.1,63.5,33.5,65.2,31.5,65.2z M31.5,60.9c-0.3,0-0.6,0.3-0.6,0.6c0,0.3,0.3,0.6,0.6,0.6
	s0.6-0.3,0.6-0.6C32.1,61.2,31.8,60.9,31.5,60.9z M20.5,63.1c-2,0-3.6-1.6-3.6-3.6c0-2,1.6-3.6,3.6-3.6s3.6,1.6,3.6,3.6
	C24.1,61.4,22.5,63.1,20.5,63.1z M20.5,58.8c-0.3,0-0.6,0.3-0.6,0.6c0,0.3,0.3,0.6,0.6,0.6c0.3,0,0.6-0.3,0.6-0.6
	C21.1,59.1,20.8,58.8,20.5,58.8z M56.4,58.3c2,0,3.6,1.6,3.6,3.6c0,2-1.6,3.6-3.6,3.6c-2,0-3.6-1.6-3.6-3.6
	C52.8,59.9,54.4,58.3,56.4,58.3z M56.4,62.5c0.3,0,0.6-0.3,0.6-0.6c0-0.3-0.3-0.6-0.6-0.6c-0.3,0-0.6,0.3-0.6,0.6
	C55.8,62.3,56.1,62.5,56.4,62.5z M67.4,55.8c2,0,3.6,1.6,3.6,3.6c0,2-1.6,3.6-3.6,3.6c-2,0-3.6-1.6-3.6-3.6
	C63.8,57.4,65.4,55.8,67.4,55.8z M67.4,60c0.3,0,0.6-0.3,0.6-0.6s-0.3-0.6-0.6-0.6c-0.3,0-0.6,0.3-0.6,0.6S67.1,60,67.4,60z"/>
</svg>
