<svg xmlns="http://www.w3.org/2000/svg" viewBox="0 0 3565 688" enable-background="new 0 0 3565 688"><style>.st0{fill:#676767}.st1{fill:#f3f3f3}.st2{fill:#e0e0e0}.st3{filter:url(#Adobe_OpacityMaskFilter)}.st4{fill:#fff}.st5{mask:url(#mask-32_1_)}.st6{fill:#d5b77b}.st7{font-family:&apos;RobotoCondensed-BoldItalic&apos;}.st8{font-size:20px}.st9{filter:url(#Adobe_OpacityMaskFilter_1_)}.st10{mask:url(#mask-34_1_)}.st11{filter:url(#Adobe_OpacityMaskFilter_2_)}.st12{mask:url(#mask-40_1_)}.st13{filter:url(#Adobe_OpacityMaskFilter_3_)}.st14{mask:url(#mask-42_1_)}.st15{filter:url(#Adobe_OpacityMaskFilter_4_)}.st16{mask:url(#mask-44_1_)}.st17{filter:url(#Adobe_OpacityMaskFilter_5_)}.st18{mask:url(#mask-46_1_)}.st19{filter:url(#Adobe_OpacityMaskFilter_6_)}.st20{mask:url(#mask-52_1_)}.st21{filter:url(#Adobe_OpacityMaskFilter_7_)}.st22{mask:url(#mask-54_1_)}.st23{font-family:&apos;RobotoCondensed-Regular&apos;}.st24{font-size:11px}.st25{filter:url(#Adobe_OpacityMaskFilter_8_)}.st26{mask:url(#mask-50_1_)}.st27{filter:url(#Adobe_OpacityMaskFilter_9_)}.st28{mask:url(#mask-48_1_)}.st29{filter:url(#Adobe_OpacityMaskFilter_10_)}.st30{mask:url(#mask-38_1_)}.st31{filter:url(#Adobe_OpacityMaskFilter_11_)}.st32{mask:url(#mask-36_1_)}.st33{filter:url(#Adobe_OpacityMaskFilter_12_)}.st34{mask:url(#mask-58_1_)}.st35{filter:url(#Adobe_OpacityMaskFilter_13_)}.st36{mask:url(#mask-56_1_)}.st37{filter:url(#Adobe_OpacityMaskFilter_14_)}.st38{mask:url(#mask-64_1_)}.st39{font-size:34px}.st40{filter:url(#Adobe_OpacityMaskFilter_15_)}.st41{mask:url(#mask-62_1_)}.st42{filter:url(#Adobe_OpacityMaskFilter_16_)}.st43{mask:url(#mask-60_1_)}.st44{filter:url(#Adobe_OpacityMaskFilter_17_)}.st45{mask:url(#mask-28_1_)}.st46{font-size:36px}.st47{display:none}.st48{display:inline;fill:#929292;fill-opacity:2e-2}.st49{filter:url(#Adobe_OpacityMaskFilter_18_)}.st50{mask:url(#mask-26_1_)}.st51{filter:url(#Adobe_OpacityMaskFilter_19_)}.st52{mask:url(#mask-30_1_)}.st53{filter:url(#Adobe_OpacityMaskFilter_20_)}.st54{mask:url(#mask-20_1_)}.st55{filter:url(#Adobe_OpacityMaskFilter_21_)}.st56{mask:url(#mask-18_1_)}.st57{filter:url(#Adobe_OpacityMaskFilter_22_)}.st58{mask:url(#mask-8_1_)}.st59{filter:url(#Adobe_OpacityMaskFilter_23_)}.st60{mask:url(#mask-6_1_)}.st61{filter:url(#Adobe_OpacityMaskFilter_24_)}.st62{mask:url(#mask-2_1_)}.st63{filter:url(#Adobe_OpacityMaskFilter_25_)}.st64{mask:url(#mask-4_1_)}.st65{filter:url(#Adobe_OpacityMaskFilter_26_)}.st66{mask:url(#mask-10_1_)}.st67{filter:url(#Adobe_OpacityMaskFilter_27_)}.st68{mask:url(#mask-12_1_)}.st69{filter:url(#Adobe_OpacityMaskFilter_28_)}.st70{mask:url(#mask-14_1_)}.st71{filter:url(#Adobe_OpacityMaskFilter_29_)}.st72{mask:url(#mask-16_1_)}.st73{filter:url(#Adobe_OpacityMaskFilter_30_)}.st74{mask:url(#mask-22_1_)}.st75{filter:url(#Adobe_OpacityMaskFilter_31_)}.st76{mask:url(#mask-24_1_)}.st77{font-family:&apos;RobotoCondensed-Bold&apos;}.st78{font-size:48px}</style><g id="side_b_week2"><g id="Group-2_15_"><path id="Rectangle-12_30_" class="st0" d="M3281 173h-36c-3.9 0-7 3.1-7 7v23c0 3.9 3.1 7 7 7h36c3.9 0 7-3.1 7-7v-23c0-3.9-3.1-7-7-7z"/><path id="Rectangle-12_31_" class="st1" d="M3560 171h-282c-2.8 0-5 2.2-5 5v30c0 2.8 2.2 5 5 5h282c2.8 0 5-2.2 5-5v-30c0-2.8-2.2-5-5-5z"/><g id="KbpKVuJz0mH3fe4sCG80Q_15_"><g id="Mask_15_"><path id="path-31_1_" class="st2" d="M3560 171h-35v40h35c2.8 0 5-2.2 5-5v-30c0-2.8-2.2-5-5-5z"/></g><defs><filter id="Adobe_OpacityMaskFilter" filterUnits="userSpaceOnUse" x="3530" y="176" width="30" height="30"><feColorMatrix values="1 0 0 0 0 0 1 0 0 0 0 0 1 0 0 0 0 0 1 0"/></filter></defs><mask maskUnits="userSpaceOnUse" x="3530" y="176" width="30" height="30" id="mask-32_1_"><g class="st3"><path id="path-31_2_" class="st4" d="M3560 171h-35v40h35c2.8 0 5-2.2 5-5v-30c0-2.8-2.2-5-5-5z"/></g></mask><g transform="matrix(-1 0 0 1 35 5)" id="blackshot_15_" class="st5"><path id="Shape_91_" class="st6" d="M-3512.8 171.1c.1 0 .2.1.2.1l.4.7c.1.2.2.1.2.1 2.3-.3 3.8-.1 3.8-.1s.2 0 .3-.2l.4-.6s0-.1.2-.1c7.1 1.2 12.4 7.4 12.4 14.9 0 1.8-.3 3.5-.9 5.1-.1.1-.2.1-.2.1h-.7c-.2 0-.3.1-.3.1s-.6 1.5-1.9 3.3c0 0-.1.1 0 .3l.4.7s.1.1 0 .3c-2.8 3.2-6.8 5.2-11.3 5.2-4.6 0-8.7-2.1-11.4-5.3v-.2l.4-.7c.1-.2 0-.3 0-.3-1.4-1.9-1.9-3.3-1.9-3.3s-.1-.2-.3-.1h-.7s-.1 0-.2-.1c-.6-1.6-.9-3.3-.9-5.2-.2-7.3 5-13.4 12-14.7zm2.8 27.3c6.8 0 12.4-5.6 12.4-12.5s-5.5-12.5-12.4-12.5-12.4 5.6-12.4 12.5 5.6 12.5 12.4 12.5z"/><path id="Shape_92_" class="st6" d="M-3504.8 180.5c-2.7-3.9-8.8-4.3-13.5-.8-.6.5-1.2.9-1.7 1.5.8-1.8 2.1-3.5 3.9-4.9 4.7-3.4 10.8-2.9 13.6 1.2 2.8 4 1.4 10-3.1 13.5 2.4-3.4 2.9-7.5.8-10.5z"/><path id="Shape_93_" class="st6" d="M-3516.8 184.8c-1.8 4.5 1.1 10.1 6.3 12.4.7.3 1.4.5 2 .7-1.9.3-3.9 0-5.9-.9-5.2-2.3-7.9-8-6.1-12.7 1.8-4.6 7.3-6.6 12.4-4.5-3.8-.3-7.4 1.6-8.7 5z"/><path id="Shape_94_" class="st6" d="M-3507.2 192.4c4.7-.7 7.9-6.1 7.1-12.1-.1-.8-.3-1.5-.5-2.2 1.2 1.6 2.1 3.6 2.4 5.9.8 5.9-2.6 11.3-7.5 12-4.9.7-9.4-3.4-10.4-9.2 1.9 3.7 5.4 6.1 8.9 5.6z"/><circle id="Oval_16_" class="st6" cx="-3509.5" cy="185.5" r="1.5"/></g></g><text transform="translate(3449 197)" class="st0 st7 st8">CLAN 9</text></g><g id="Group-2_16_" transform="translate(0 54)"><path id="Rectangle-12_32_" class="st0" d="M3281 173h-36c-3.9 0-7 3.1-7 7v23c0 3.9 3.1 7 7 7h36c3.9 0 7-3.1 7-7v-23c0-3.9-3.1-7-7-7z"/><path id="Rectangle-12_33_" class="st1" d="M3560 171h-282c-2.8 0-5 2.2-5 5v30c0 2.8 2.2 5 5 5h282c2.8 0 5-2.2 5-5v-30c0-2.8-2.2-5-5-5z"/><g id="KbpKVuJz0mH3fe4sCG80Q_16_"><g id="Mask_16_"><path id="path-33_1_" class="st2" d="M3560 171h-35v40h35c2.8 0 5-2.2 5-5v-30c0-2.8-2.2-5-5-5z"/></g><defs><filter id="Adobe_OpacityMaskFilter_1_" filterUnits="userSpaceOnUse" x="3530" y="176" width="30" height="30"><feColorMatrix values="1 0 0 0 0 0 1 0 0 0 0 0 1 0 0 0 0 0 1 0"/></filter></defs><mask maskUnits="userSpaceOnUse" x="3530" y="176" width="30" height="30" id="mask-34_1_"><g class="st9"><path id="path-33_2_" class="st4" d="M3560 171h-35v40h35c2.8 0 5-2.2 5-5v-30c0-2.8-2.2-5-5-5z"/></g></mask><g transform="matrix(-1 0 0 1 35 5)" id="blackshot_16_" class="st10"><path id="Shape_95_" class="st6" d="M-3512.8 171.1c.1 0 .2.1.2.1l.4.7c.1.2.2.1.2.1 2.3-.3 3.8-.1 3.8-.1s.2 0 .3-.2l.4-.6s0-.1.2-.1c7.1 1.2 12.4 7.4 12.4 14.9 0 1.8-.3 3.5-.9 5.1-.1.1-.2.1-.2.1h-.7c-.2 0-.3.1-.3.1s-.6 1.5-1.9 3.3c0 0-.1.1 0 .3l.4.7s.1.1 0 .3c-2.8 3.2-6.8 5.2-11.3 5.2-4.6 0-8.7-2.1-11.4-5.3v-.2l.4-.7c.1-.2 0-.3 0-.3-1.4-1.9-1.9-3.3-1.9-3.3s-.1-.2-.3-.1h-.7s-.1 0-.2-.1c-.6-1.6-.9-3.3-.9-5.2-.2-7.3 5-13.4 12-14.7zm2.8 27.3c6.8 0 12.4-5.6 12.4-12.5s-5.5-12.5-12.4-12.5-12.4 5.6-12.4 12.5 5.6 12.5 12.4 12.5z"/><path id="Shape_96_" class="st6" d="M-3504.8 180.5c-2.7-3.9-8.8-4.3-13.5-.8-.6.5-1.2.9-1.7 1.5.8-1.8 2.1-3.5 3.9-4.9 4.7-3.4 10.8-2.9 13.6 1.2 2.8 4 1.4 10-3.1 13.5 2.4-3.4 2.9-7.5.8-10.5z"/><path id="Shape_97_" class="st6" d="M-3516.8 184.8c-1.8 4.5 1.1 10.1 6.3 12.4.7.3 1.4.5 2 .7-1.9.3-3.9 0-5.9-.9-5.2-2.3-7.9-8-6.1-12.7 1.8-4.6 7.3-6.6 12.4-4.5-3.8-.3-7.4 1.6-8.7 5z"/><path id="Shape_98_" class="st6" d="M-3507.2 192.4c4.7-.7 7.9-6.1 7.1-12.1-.1-.8-.3-1.5-.5-2.2 1.2 1.6 2.1 3.6 2.4 5.9.8 5.9-2.6 11.3-7.5 12-4.9.7-9.4-3.4-10.4-9.2 1.9 3.7 5.4 6.1 8.9 5.6z"/><circle id="Oval_17_" class="st6" cx="-3509.5" cy="185.5" r="1.5"/></g></g><text transform="translate(3439 197)" class="st0 st7 st8">CLAN 10</text></g><g id="Group-2_19_" transform="translate(0 140)"><path id="Rectangle-12_38_" class="st0" d="M3281 173h-36c-3.9 0-7 3.1-7 7v23c0 3.9 3.1 7 7 7h36c3.9 0 7-3.1 7-7v-23c0-3.9-3.1-7-7-7z"/><path id="Rectangle-12_39_" class="st1" d="M3560 171h-282c-2.8 0-5 2.2-5 5v30c0 2.8 2.2 5 5 5h282c2.8 0 5-2.2 5-5v-30c0-2.8-2.2-5-5-5z"/><g id="KbpKVuJz0mH3fe4sCG80Q_19_"><g id="Mask_19_"><path id="path-39_1_" class="st2" d="M3560 171h-35v40h35c2.8 0 5-2.2 5-5v-30c0-2.8-2.2-5-5-5z"/></g><defs><filter id="Adobe_OpacityMaskFilter_2_" filterUnits="userSpaceOnUse" x="3530" y="176" width="30" height="30"><feColorMatrix values="1 0 0 0 0 0 1 0 0 0 0 0 1 0 0 0 0 0 1 0"/></filter></defs><mask maskUnits="userSpaceOnUse" x="3530" y="176" width="30" height="30" id="mask-40_1_"><g class="st11"><path id="path-39_2_" class="st4" d="M3560 171h-35v40h35c2.8 0 5-2.2 5-5v-30c0-2.8-2.2-5-5-5z"/></g></mask><g transform="matrix(-1 0 0 1 35 5)" id="blackshot_19_" class="st12"><path id="Shape_107_" class="st6" d="M-3512.8 171.1c.1 0 .2.1.2.1l.4.7c.1.2.2.1.2.1 2.3-.3 3.8-.1 3.8-.1s.2 0 .3-.2l.4-.6s0-.1.2-.1c7.1 1.2 12.4 7.4 12.4 14.9 0 1.8-.3 3.5-.9 5.1-.1.1-.2.1-.2.1h-.7c-.2 0-.3.1-.3.1s-.6 1.5-1.9 3.3c0 0-.1.1 0 .3l.4.7s.1.1 0 .3c-2.8 3.2-6.8 5.2-11.3 5.2-4.6 0-8.7-2.1-11.4-5.3v-.2l.4-.7c.1-.2 0-.3 0-.3-1.4-1.9-1.9-3.3-1.9-3.3s-.1-.2-.3-.1h-.7s-.1 0-.2-.1c-.6-1.6-.9-3.3-.9-5.2-.2-7.3 5-13.4 12-14.7zm2.8 27.3c6.8 0 12.4-5.6 12.4-12.5s-5.5-12.5-12.4-12.5-12.4 5.6-12.4 12.5 5.6 12.5 12.4 12.5z"/><path id="Shape_108_" class="st6" d="M-3504.8 180.5c-2.7-3.9-8.8-4.3-13.5-.8-.6.5-1.2.9-1.7 1.5.8-1.8 2.1-3.5 3.9-4.9 4.7-3.4 10.8-2.9 13.6 1.2 2.8 4 1.4 10-3.1 13.5 2.4-3.4 2.9-7.5.8-10.5z"/><path id="Shape_109_" class="st6" d="M-3516.8 184.8c-1.8 4.5 1.1 10.1 6.3 12.4.7.3 1.4.5 2 .7-1.9.3-3.9 0-5.9-.9-5.2-2.3-7.9-8-6.1-12.7 1.8-4.6 7.3-6.6 12.4-4.5-3.8-.3-7.4 1.6-8.7 5z"/><path id="Shape_110_" class="st6" d="M-3507.2 192.4c4.7-.7 7.9-6.1 7.1-12.1-.1-.8-.3-1.5-.5-2.2 1.2 1.6 2.1 3.6 2.4 5.9.8 5.9-2.6 11.3-7.5 12-4.9.7-9.4-3.4-10.4-9.2 1.9 3.7 5.4 6.1 8.9 5.6z"/><circle id="Oval_20_" class="st6" cx="-3509.5" cy="185.5" r="1.5"/></g></g><text transform="translate(3439 197)" class="st0 st7 st8">CLAN 11</text></g><g id="Group-2_20_" transform="translate(0 194)"><path id="Rectangle-12_40_" class="st0" d="M3281 173h-36c-3.9 0-7 3.1-7 7v23c0 3.9 3.1 7 7 7h36c3.9 0 7-3.1 7-7v-23c0-3.9-3.1-7-7-7z"/><path id="Rectangle-12_41_" class="st1" d="M3560 171h-282c-2.8 0-5 2.2-5 5v30c0 2.8 2.2 5 5 5h282c2.8 0 5-2.2 5-5v-30c0-2.8-2.2-5-5-5z"/><g id="KbpKVuJz0mH3fe4sCG80Q_20_"><g id="Mask_20_"><path id="path-41_1_" class="st2" d="M3560 171h-35v40h35c2.8 0 5-2.2 5-5v-30c0-2.8-2.2-5-5-5z"/></g><defs><filter id="Adobe_OpacityMaskFilter_3_" filterUnits="userSpaceOnUse" x="3530" y="176" width="30" height="30"><feColorMatrix values="1 0 0 0 0 0 1 0 0 0 0 0 1 0 0 0 0 0 1 0"/></filter></defs><mask maskUnits="userSpaceOnUse" x="3530" y="176" width="30" height="30" id="mask-42_1_"><g class="st13"><path id="path-41_2_" class="st4" d="M3560 171h-35v40h35c2.8 0 5-2.2 5-5v-30c0-2.8-2.2-5-5-5z"/></g></mask><g transform="matrix(-1 0 0 1 35 5)" id="blackshot_20_" class="st14"><path id="Shape_111_" class="st6" d="M-3512.8 171.1c.1 0 .2.1.2.1l.4.7c.1.2.2.1.2.1 2.3-.3 3.8-.1 3.8-.1s.2 0 .3-.2l.4-.6s0-.1.2-.1c7.1 1.2 12.4 7.4 12.4 14.9 0 1.8-.3 3.5-.9 5.1-.1.1-.2.1-.2.1h-.7c-.2 0-.3.1-.3.1s-.6 1.5-1.9 3.3c0 0-.1.1 0 .3l.4.7s.1.1 0 .3c-2.8 3.2-6.8 5.2-11.3 5.2-4.6 0-8.7-2.1-11.4-5.3v-.2l.4-.7c.1-.2 0-.3 0-.3-1.4-1.9-1.9-3.3-1.9-3.3s-.1-.2-.3-.1h-.7s-.1 0-.2-.1c-.6-1.6-.9-3.3-.9-5.2-.2-7.3 5-13.4 12-14.7zm2.8 27.3c6.8 0 12.4-5.6 12.4-12.5s-5.5-12.5-12.4-12.5-12.4 5.6-12.4 12.5 5.6 12.5 12.4 12.5z"/><path id="Shape_112_" class="st6" d="M-3504.8 180.5c-2.7-3.9-8.8-4.3-13.5-.8-.6.5-1.2.9-1.7 1.5.8-1.8 2.1-3.5 3.9-4.9 4.7-3.4 10.8-2.9 13.6 1.2 2.8 4 1.4 10-3.1 13.5 2.4-3.4 2.9-7.5.8-10.5z"/><path id="Shape_113_" class="st6" d="M-3516.8 184.8c-1.8 4.5 1.1 10.1 6.3 12.4.7.3 1.4.5 2 .7-1.9.3-3.9 0-5.9-.9-5.2-2.3-7.9-8-6.1-12.7 1.8-4.6 7.3-6.6 12.4-4.5-3.8-.3-7.4 1.6-8.7 5z"/><path id="Shape_114_" class="st6" d="M-3507.2 192.4c4.7-.7 7.9-6.1 7.1-12.1-.1-.8-.3-1.5-.5-2.2 1.2 1.6 2.1 3.6 2.4 5.9.8 5.9-2.6 11.3-7.5 12-4.9.7-9.4-3.4-10.4-9.2 1.9 3.7 5.4 6.1 8.9 5.6z"/><circle id="Oval_21_" class="st6" cx="-3509.5" cy="185.5" r="1.5"/></g></g><text transform="translate(3439 197)" class="st0 st7 st8">CLAN 12</text></g><g id="Group-2_21_"><path id="Rectangle-12_42_" class="st0" d="M3281 456h-36c-3.9 0-7 3.1-7 7v23c0 3.9 3.1 7 7 7h36c3.9 0 7-3.1 7-7v-23c0-3.9-3.1-7-7-7z"/><path id="Rectangle-12_43_" class="st1" d="M3560 454h-282c-2.8 0-5 2.2-5 5v30c0 2.8 2.2 5 5 5h282c2.8 0 5-2.2 5-5v-30c0-2.8-2.2-5-5-5z"/><g id="KbpKVuJz0mH3fe4sCG80Q_21_"><g id="Mask_21_"><path id="path-43_1_" class="st2" d="M3560 454h-35v40h35c2.8 0 5-2.2 5-5v-30c0-2.8-2.2-5-5-5z"/></g><defs><filter id="Adobe_OpacityMaskFilter_4_" filterUnits="userSpaceOnUse" x="3530" y="459" width="30" height="30"><feColorMatrix values="1 0 0 0 0 0 1 0 0 0 0 0 1 0 0 0 0 0 1 0"/></filter></defs><mask maskUnits="userSpaceOnUse" x="3530" y="459" width="30" height="30" id="mask-44_1_"><g class="st15"><path id="path-43_2_" class="st4" d="M3560 454h-35v40h35c2.8 0 5-2.2 5-5v-30c0-2.8-2.2-5-5-5z"/></g></mask><g transform="matrix(-1 0 0 1 35 5)" id="blackshot_21_" class="st16"><path id="Shape_115_" class="st6" d="M-3512.8 454.1c.1 0 .2.1.2.1l.4.7c.1.2.2.1.2.1 2.3-.3 3.8-.1 3.8-.1s.2 0 .3-.2l.4-.6s0-.1.2-.1c7.1 1.2 12.4 7.4 12.4 14.9 0 1.8-.3 3.5-.9 5.1-.1.1-.2.1-.2.1h-.7c-.2 0-.3.1-.3.1s-.6 1.5-1.9 3.3c0 0-.1.1 0 .3l.4.7s.1.1 0 .3c-2.8 3.2-6.8 5.2-11.3 5.2-4.6 0-8.7-2.1-11.4-5.3v-.2l.4-.7c.1-.2 0-.3 0-.3-1.4-1.9-1.9-3.3-1.9-3.3s-.1-.2-.3-.1h-.7s-.1 0-.2-.1c-.6-1.6-.9-3.3-.9-5.2-.2-7.3 5-13.4 12-14.7zm2.8 27.3c6.8 0 12.4-5.6 12.4-12.5s-5.5-12.5-12.4-12.5-12.4 5.6-12.4 12.5 5.6 12.5 12.4 12.5z"/><path id="Shape_116_" class="st6" d="M-3504.8 463.5c-2.7-3.9-8.8-4.3-13.5-.8-.6.5-1.2.9-1.7 1.5.8-1.8 2.1-3.5 3.9-4.9 4.7-3.4 10.8-2.9 13.6 1.2 2.8 4 1.4 10-3.1 13.5 2.4-3.4 2.9-7.5.8-10.5z"/><path id="Shape_117_" class="st6" d="M-3516.8 467.8c-1.8 4.5 1.1 10.1 6.3 12.4.7.3 1.4.5 2 .7-1.9.3-3.9 0-5.9-.9-5.2-2.3-7.9-8-6.1-12.7 1.8-4.6 7.3-6.6 12.4-4.5-3.8-.3-7.4 1.6-8.7 5z"/><path id="Shape_118_" class="st6" d="M-3507.2 475.4c4.7-.7 7.9-6.1 7.1-12.1-.1-.8-.3-1.5-.5-2.2 1.2 1.6 2.1 3.6 2.4 5.9.8 5.9-2.6 11.3-7.5 12-4.9.7-9.4-3.4-10.4-9.2 1.9 3.7 5.4 6.1 8.9 5.6z"/><circle id="Oval_22_" class="st6" cx="-3509.5" cy="468.5" r="1.5"/></g></g><text transform="translate(3439 480)" class="st0 st7 st8">CLAN 13</text></g><g id="Group-2_22_" transform="translate(0 54)"><path id="Rectangle-12_44_" class="st0" d="M3281 456h-36c-3.9 0-7 3.1-7 7v23c0 3.9 3.1 7 7 7h36c3.9 0 7-3.1 7-7v-23c0-3.9-3.1-7-7-7z"/><path id="Rectangle-12_45_" class="st1" d="M3560 454h-282c-2.8 0-5 2.2-5 5v30c0 2.8 2.2 5 5 5h282c2.8 0 5-2.2 5-5v-30c0-2.8-2.2-5-5-5z"/><g id="KbpKVuJz0mH3fe4sCG80Q_22_"><g id="Mask_22_"><path id="path-45_1_" class="st2" d="M3560 454h-35v40h35c2.8 0 5-2.2 5-5v-30c0-2.8-2.2-5-5-5z"/></g><defs><filter id="Adobe_OpacityMaskFilter_5_" filterUnits="userSpaceOnUse" x="3530" y="459" width="30" height="30"><feColorMatrix values="1 0 0 0 0 0 1 0 0 0 0 0 1 0 0 0 0 0 1 0"/></filter></defs><mask maskUnits="userSpaceOnUse" x="3530" y="459" width="30" height="30" id="mask-46_1_"><g class="st17"><path id="path-45_2_" class="st4" d="M3560 454h-35v40h35c2.8 0 5-2.2 5-5v-30c0-2.8-2.2-5-5-5z"/></g></mask><g transform="matrix(-1 0 0 1 35 5)" id="blackshot_22_" class="st18"><path id="Shape_119_" class="st6" d="M-3512.8 454.1c.1 0 .2.1.2.1l.4.7c.1.2.2.1.2.1 2.3-.3 3.8-.1 3.8-.1s.2 0 .3-.2l.4-.6s0-.1.2-.1c7.1 1.2 12.4 7.4 12.4 14.9 0 1.8-.3 3.5-.9 5.1-.1.1-.2.1-.2.1h-.7c-.2 0-.3.1-.3.1s-.6 1.5-1.9 3.3c0 0-.1.1 0 .3l.4.7s.1.1 0 .3c-2.8 3.2-6.8 5.2-11.3 5.2-4.6 0-8.7-2.1-11.4-5.3v-.2l.4-.7c.1-.2 0-.3 0-.3-1.4-1.9-1.9-3.3-1.9-3.3s-.1-.2-.3-.1h-.7s-.1 0-.2-.1c-.6-1.6-.9-3.3-.9-5.2-.2-7.3 5-13.4 12-14.7zm2.8 27.3c6.8 0 12.4-5.6 12.4-12.5s-5.5-12.5-12.4-12.5-12.4 5.6-12.4 12.5 5.6 12.5 12.4 12.5z"/><path id="Shape_120_" class="st6" d="M-3504.8 463.5c-2.7-3.9-8.8-4.3-13.5-.8-.6.5-1.2.9-1.7 1.5.8-1.8 2.1-3.5 3.9-4.9 4.7-3.4 10.8-2.9 13.6 1.2 2.8 4 1.4 10-3.1 13.5 2.4-3.4 2.9-7.5.8-10.5z"/><path id="Shape_121_" class="st6" d="M-3516.8 467.8c-1.8 4.5 1.1 10.1 6.3 12.4.7.3 1.4.5 2 .7-1.9.3-3.9 0-5.9-.9-5.2-2.3-7.9-8-6.1-12.7 1.8-4.6 7.3-6.6 12.4-4.5-3.8-.3-7.4 1.6-8.7 5z"/><path id="Shape_122_" class="st6" d="M-3507.2 475.4c4.7-.7 7.9-6.1 7.1-12.1-.1-.8-.3-1.5-.5-2.2 1.2 1.6 2.1 3.6 2.4 5.9.8 5.9-2.6 11.3-7.5 12-4.9.7-9.4-3.4-10.4-9.2 1.9 3.7 5.4 6.1 8.9 5.6z"/><circle id="Oval_23_" class="st6" cx="-3509.5" cy="468.5" r="1.5"/></g></g><text transform="translate(3439 480)" class="st0 st7 st8">CLAN 14</text></g><g id="Group-2_25_" transform="translate(0 140)"><path id="Rectangle-12_50_" class="st0" d="M3281 456h-36c-3.9 0-7 3.1-7 7v23c0 3.9 3.1 7 7 7h36c3.9 0 7-3.1 7-7v-23c0-3.9-3.1-7-7-7z"/><path id="Rectangle-12_51_" class="st1" d="M3560 454h-282c-2.8 0-5 2.2-5 5v30c0 2.8 2.2 5 5 5h282c2.8 0 5-2.2 5-5v-30c0-2.8-2.2-5-5-5z"/><g id="KbpKVuJz0mH3fe4sCG80Q_25_"><g id="Mask_25_"><path id="path-51_1_" class="st2" d="M3560 454h-35v40h35c2.8 0 5-2.2 5-5v-30c0-2.8-2.2-5-5-5z"/></g><defs><filter id="Adobe_OpacityMaskFilter_6_" filterUnits="userSpaceOnUse" x="3530" y="459" width="30" height="30"><feColorMatrix values="1 0 0 0 0 0 1 0 0 0 0 0 1 0 0 0 0 0 1 0"/></filter></defs><mask maskUnits="userSpaceOnUse" x="3530" y="459" width="30" height="30" id="mask-52_1_"><g class="st19"><path id="path-51_2_" class="st4" d="M3560 454h-35v40h35c2.8 0 5-2.2 5-5v-30c0-2.8-2.2-5-5-5z"/></g></mask><g transform="matrix(-1 0 0 1 35 5)" id="blackshot_25_" class="st20"><path id="Shape_131_" class="st6" d="M-3512.8 454.1c.1 0 .2.1.2.1l.4.7c.1.2.2.1.2.1 2.3-.3 3.8-.1 3.8-.1s.2 0 .3-.2l.4-.6s0-.1.2-.1c7.1 1.2 12.4 7.4 12.4 14.9 0 1.8-.3 3.5-.9 5.1-.1.1-.2.1-.2.1h-.7c-.2 0-.3.1-.3.1s-.6 1.5-1.9 3.3c0 0-.1.1 0 .3l.4.7s.1.1 0 .3c-2.8 3.2-6.8 5.2-11.3 5.2-4.6 0-8.7-2.1-11.4-5.3v-.2l.4-.7c.1-.2 0-.3 0-.3-1.4-1.9-1.9-3.3-1.9-3.3s-.1-.2-.3-.1h-.7s-.1 0-.2-.1c-.6-1.6-.9-3.3-.9-5.2-.2-7.3 5-13.4 12-14.7zm2.8 27.3c6.8 0 12.4-5.6 12.4-12.5s-5.5-12.5-12.4-12.5-12.4 5.6-12.4 12.5 5.6 12.5 12.4 12.5z"/><path id="Shape_132_" class="st6" d="M-3504.8 463.5c-2.7-3.9-8.8-4.3-13.5-.8-.6.5-1.2.9-1.7 1.5.8-1.8 2.1-3.5 3.9-4.9 4.7-3.4 10.8-2.9 13.6 1.2 2.8 4 1.4 10-3.1 13.5 2.4-3.4 2.9-7.5.8-10.5z"/><path id="Shape_133_" class="st6" d="M-3516.8 467.8c-1.8 4.5 1.1 10.1 6.3 12.4.7.3 1.4.5 2 .7-1.9.3-3.9 0-5.9-.9-5.2-2.3-7.9-8-6.1-12.7 1.8-4.6 7.3-6.6 12.4-4.5-3.8-.3-7.4 1.6-8.7 5z"/><path id="Shape_134_" class="st6" d="M-3507.2 475.4c4.7-.7 7.9-6.1 7.1-12.1-.1-.8-.3-1.5-.5-2.2 1.2 1.6 2.1 3.6 2.4 5.9.8 5.9-2.6 11.3-7.5 12-4.9.7-9.4-3.4-10.4-9.2 1.9 3.7 5.4 6.1 8.9 5.6z"/><circle id="Oval_26_" class="st6" cx="-3509.5" cy="468.5" r="1.5"/></g></g><text transform="translate(3439 480)" class="st0 st7 st8">CLAN 15</text></g><g id="Group-2_26_" transform="translate(0 194)"><path id="Rectangle-12_52_" class="st0" d="M3281 456h-36c-3.9 0-7 3.1-7 7v23c0 3.9 3.1 7 7 7h36c3.9 0 7-3.1 7-7v-23c0-3.9-3.1-7-7-7z"/><path id="Rectangle-12_53_" class="st1" d="M3560 454h-282c-2.8 0-5 2.2-5 5v30c0 2.8 2.2 5 5 5h282c2.8 0 5-2.2 5-5v-30c0-2.8-2.2-5-5-5z"/><g id="KbpKVuJz0mH3fe4sCG80Q_26_"><g id="Mask_26_"><path id="path-53_1_" class="st2" d="M3560 454h-35v40h35c2.8 0 5-2.2 5-5v-30c0-2.8-2.2-5-5-5z"/></g><defs><filter id="Adobe_OpacityMaskFilter_7_" filterUnits="userSpaceOnUse" x="3530" y="459" width="30" height="30"><feColorMatrix values="1 0 0 0 0 0 1 0 0 0 0 0 1 0 0 0 0 0 1 0"/></filter></defs><mask maskUnits="userSpaceOnUse" x="3530" y="459" width="30" height="30" id="mask-54_1_"><g class="st21"><path id="path-53_2_" class="st4" d="M3560 454h-35v40h35c2.8 0 5-2.2 5-5v-30c0-2.8-2.2-5-5-5z"/></g></mask><g transform="matrix(-1 0 0 1 35 5)" id="blackshot_26_" class="st22"><path id="Shape_135_" class="st6" d="M-3512.8 454.1c.1 0 .2.1.2.1l.4.7c.1.2.2.1.2.1 2.3-.3 3.8-.1 3.8-.1s.2 0 .3-.2l.4-.6s0-.1.2-.1c7.1 1.2 12.4 7.4 12.4 14.9 0 1.8-.3 3.5-.9 5.1-.1.1-.2.1-.2.1h-.7c-.2 0-.3.1-.3.1s-.6 1.5-1.9 3.3c0 0-.1.1 0 .3l.4.7s.1.1 0 .3c-2.8 3.2-6.8 5.2-11.3 5.2-4.6 0-8.7-2.1-11.4-5.3v-.2l.4-.7c.1-.2 0-.3 0-.3-1.4-1.9-1.9-3.3-1.9-3.3s-.1-.2-.3-.1h-.7s-.1 0-.2-.1c-.6-1.6-.9-3.3-.9-5.2-.2-7.3 5-13.4 12-14.7zm2.8 27.3c6.8 0 12.4-5.6 12.4-12.5s-5.5-12.5-12.4-12.5-12.4 5.6-12.4 12.5 5.6 12.5 12.4 12.5z"/><path id="Shape_136_" class="st6" d="M-3504.8 463.5c-2.7-3.9-8.8-4.3-13.5-.8-.6.5-1.2.9-1.7 1.5.8-1.8 2.1-3.5 3.9-4.9 4.7-3.4 10.8-2.9 13.6 1.2 2.8 4 1.4 10-3.1 13.5 2.4-3.4 2.9-7.5.8-10.5z"/><path id="Shape_137_" class="st6" d="M-3516.8 467.8c-1.8 4.5 1.1 10.1 6.3 12.4.7.3 1.4.5 2 .7-1.9.3-3.9 0-5.9-.9-5.2-2.3-7.9-8-6.1-12.7 1.8-4.6 7.3-6.6 12.4-4.5-3.8-.3-7.4 1.6-8.7 5z"/><path id="Shape_138_" class="st6" d="M-3507.2 475.4c4.7-.7 7.9-6.1 7.1-12.1-.1-.8-.3-1.5-.5-2.2 1.2 1.6 2.1 3.6 2.4 5.9.8 5.9-2.6 11.3-7.5 12-4.9.7-9.4-3.4-10.4-9.2 1.9 3.7 5.4 6.1 8.9 5.6z"/><circle id="Oval_27_" class="st6" cx="-3509.5" cy="468.5" r="1.5"/></g></g><text transform="translate(3439 480)" class="st0 st7 st8">CLAN 16</text></g><path id="Rectangle-16_13_" class="st0" d="M3123 216h110v2h-110z"/><path id="Rectangle-16_14_" class="st0" d="M3098 287h25v2h-25z"/><path id="Rectangle-16_15_" class="st0" d="M3123 358h110v2h-110z"/><path id="Rectangle-16_16_" class="st0" d="M3123 216h2v144h-2z"/><path id="Rectangle-16_17_" class="st0" d="M3123 499h110v2h-110z"/><path id="Rectangle-16_18_" class="st0" d="M3098 570h25v2h-25z"/><path id="Rectangle-16_19_" class="st0" d="M3123 641h110v2h-110z"/><path id="Rectangle-16_20_" class="st0" d="M3123 499h2v144h-2z"/><text transform="translate(3325 161)" class="st0 st23 st24">MATCH 5 - Saturday 25/11/17 19:00 CET</text><text transform="translate(3325 301)" class="st0 st23 st24">MATCH 6 - Saturday 25/11/17 20:00 CET</text><text transform="translate(3331 444)" class="st0 st23 st24">MATCH 7 - Sunday 26/11/17 19:00 CET</text><text transform="translate(3331 584)" class="st0 st23 st24">MATCH 8 - Sunday 26/11/17 20:00 CET</text></g><g id="side_b_week3"><g id="winner_x5F_match8" transform="translate(477 124)"><path id="Rectangle-12_48_" class="st0" d="M2327 456h-36c-3.9 0-7 3.1-7 7v23c0 3.9 3.1 7 7 7h36c3.9 0 7-3.1 7-7v-23c0-3.9-3.1-7-7-7z"/><path id="Rectangle-12_49_" class="st1" d="M2606 454h-282c-2.8 0-5 2.2-5 5v30c0 2.8 2.2 5 5 5h282c2.8 0 5-2.2 5-5v-30c0-2.8-2.2-5-5-5z"/><g id="KbpKVuJz0mH3fe4sCG80Q_24_"><g id="Mask_24_"><path id="path-49_1_" class="st2" d="M2606 454h-35v40h35c2.8 0 5-2.2 5-5v-30c0-2.8-2.2-5-5-5z"/></g><defs><filter id="Adobe_OpacityMaskFilter_8_" filterUnits="userSpaceOnUse" x="2576" y="459" width="30" height="30"><feColorMatrix values="1 0 0 0 0 0 1 0 0 0 0 0 1 0 0 0 0 0 1 0"/></filter></defs><mask maskUnits="userSpaceOnUse" x="2576" y="459" width="30" height="30" id="mask-50_1_"><g class="st25"><path id="path-49_2_" class="st4" d="M2606 454h-35v40h35c2.8 0 5-2.2 5-5v-30c0-2.8-2.2-5-5-5z"/></g></mask><g transform="matrix(-1 0 0 1 35 5)" id="blackshot_24_" class="st26"><path id="Shape_127_" class="st6" d="M-2558.8 454.1c.1 0 .2.1.2.1l.4.7c.1.2.2.1.2.1 2.3-.3 3.8-.1 3.8-.1s.2 0 .3-.2l.4-.6s0-.1.2-.1c7.1 1.2 12.4 7.4 12.4 14.9 0 1.8-.3 3.5-.9 5.1-.1.1-.2.1-.2.1h-.7c-.2 0-.3.1-.3.1s-.6 1.5-1.9 3.3c0 0-.1.1 0 .3l.4.7s.1.1 0 .3c-2.8 3.2-6.8 5.2-11.3 5.2-4.6 0-8.7-2.1-11.4-5.3v-.2l.4-.7c.1-.2 0-.3 0-.3-1.4-1.9-1.9-3.3-1.9-3.3s-.1-.2-.3-.1h-.7s-.1 0-.2-.1c-.6-1.6-.9-3.3-.9-5.2-.2-7.3 5-13.4 12-14.7zm2.8 27.3c6.8 0 12.4-5.6 12.4-12.5s-5.5-12.5-12.4-12.5-12.4 5.6-12.4 12.5 5.6 12.5 12.4 12.5z"/><path id="Shape_128_" class="st6" d="M-2550.8 463.5c-2.7-3.9-8.8-4.3-13.5-.8-.6.5-1.2.9-1.7 1.5.8-1.8 2.1-3.5 3.9-4.9 4.7-3.4 10.8-2.9 13.6 1.2 2.8 4 1.4 10-3.1 13.5 2.4-3.4 2.9-7.5.8-10.5z"/><path id="Shape_129_" class="st6" d="M-2562.8 467.8c-1.8 4.5 1.1 10.1 6.3 12.4.7.3 1.4.5 2 .7-1.9.3-3.9 0-5.9-.9-5.2-2.3-7.9-8-6.1-12.7 1.8-4.6 7.3-6.6 12.4-4.5-3.8-.3-7.4 1.6-8.7 5z"/><path id="Shape_130_" class="st6" d="M-2553.2 475.4c4.7-.7 7.9-6.1 7.1-12.1-.1-.8-.3-1.5-.5-2.2 1.2 1.6 2.1 3.6 2.4 5.9.8 5.9-2.6 11.3-7.5 12-4.9.7-9.4-3.4-10.4-9.2 1.9 3.7 5.4 6.1 8.9 5.6z"/><circle id="Oval_25_" class="st6" cx="-2555.5" cy="468.5" r="1.5"/></g></g><text transform="translate(2410 480)" class="st0 st7 st8">winner Match 8</text></g><g id="winner_x5F_match7" transform="translate(477 70)"><path id="Rectangle-12_46_" class="st0" d="M2327 456h-36c-3.9 0-7 3.1-7 7v23c0 3.9 3.1 7 7 7h36c3.9 0 7-3.1 7-7v-23c0-3.9-3.1-7-7-7z"/><path id="Rectangle-12_47_" class="st1" d="M2606 454h-282c-2.8 0-5 2.2-5 5v30c0 2.8 2.2 5 5 5h282c2.8 0 5-2.2 5-5v-30c0-2.8-2.2-5-5-5z"/><g id="KbpKVuJz0mH3fe4sCG80Q_23_"><g id="Mask_23_"><path id="path-47_1_" class="st2" d="M2606 454h-35v40h35c2.8 0 5-2.2 5-5v-30c0-2.8-2.2-5-5-5z"/></g><defs><filter id="Adobe_OpacityMaskFilter_9_" filterUnits="userSpaceOnUse" x="2576" y="459" width="30" height="30"><feColorMatrix values="1 0 0 0 0 0 1 0 0 0 0 0 1 0 0 0 0 0 1 0"/></filter></defs><mask maskUnits="userSpaceOnUse" x="2576" y="459" width="30" height="30" id="mask-48_1_"><g class="st27"><path id="path-47_2_" class="st4" d="M2606 454h-35v40h35c2.8 0 5-2.2 5-5v-30c0-2.8-2.2-5-5-5z"/></g></mask><g transform="matrix(-1 0 0 1 35 5)" id="blackshot_23_" class="st28"><path id="Shape_123_" class="st6" d="M-2558.8 454.1c.1 0 .2.1.2.1l.4.7c.1.2.2.1.2.1 2.3-.3 3.8-.1 3.8-.1s.2 0 .3-.2l.4-.6s0-.1.2-.1c7.1 1.2 12.4 7.4 12.4 14.9 0 1.8-.3 3.5-.9 5.1-.1.1-.2.1-.2.1h-.7c-.2 0-.3.1-.3.1s-.6 1.5-1.9 3.3c0 0-.1.1 0 .3l.4.7s.1.1 0 .3c-2.8 3.2-6.8 5.2-11.3 5.2-4.6 0-8.7-2.1-11.4-5.3v-.2l.4-.7c.1-.2 0-.3 0-.3-1.4-1.9-1.9-3.3-1.9-3.3s-.1-.2-.3-.1h-.7s-.1 0-.2-.1c-.6-1.6-.9-3.3-.9-5.2-.2-7.3 5-13.4 12-14.7zm2.8 27.3c6.8 0 12.4-5.6 12.4-12.5s-5.5-12.5-12.4-12.5-12.4 5.6-12.4 12.5 5.6 12.5 12.4 12.5z"/><path id="Shape_124_" class="st6" d="M-2550.8 463.5c-2.7-3.9-8.8-4.3-13.5-.8-.6.5-1.2.9-1.7 1.5.8-1.8 2.1-3.5 3.9-4.9 4.7-3.4 10.8-2.9 13.6 1.2 2.8 4 1.4 10-3.1 13.5 2.4-3.4 2.9-7.5.8-10.5z"/><path id="Shape_125_" class="st6" d="M-2562.8 467.8c-1.8 4.5 1.1 10.1 6.3 12.4.7.3 1.4.5 2 .7-1.9.3-3.9 0-5.9-.9-5.2-2.3-7.9-8-6.1-12.7 1.8-4.6 7.3-6.6 12.4-4.5-3.8-.3-7.4 1.6-8.7 5z"/><path id="Shape_126_" class="st6" d="M-2553.2 475.4c4.7-.7 7.9-6.1 7.1-12.1-.1-.8-.3-1.5-.5-2.2 1.2 1.6 2.1 3.6 2.4 5.9.8 5.9-2.6 11.3-7.5 12-4.9.7-9.4-3.4-10.4-9.2 1.9 3.7 5.4 6.1 8.9 5.6z"/><circle id="Oval_24_" class="st6" cx="-2555.5" cy="468.5" r="1.5"/></g></g><text transform="translate(2410 480)" class="st0 st7 st8">winner Match 7</text></g><g id="winner_x5F_match6_1_" transform="translate(477 124)"><path id="Rectangle-12_36_" class="st0" d="M2327 173h-36c-3.9 0-7 3.1-7 7v23c0 3.9 3.1 7 7 7h36c3.9 0 7-3.1 7-7v-23c0-3.9-3.1-7-7-7z"/><path id="Rectangle-12_37_" class="st1" d="M2606 171h-282c-2.8 0-5 2.2-5 5v30c0 2.8 2.2 5 5 5h282c2.8 0 5-2.2 5-5v-30c0-2.8-2.2-5-5-5z"/><g id="KbpKVuJz0mH3fe4sCG80Q_18_"><g id="Mask_18_"><path id="path-37_1_" class="st2" d="M2606 171h-35v40h35c2.8 0 5-2.2 5-5v-30c0-2.8-2.2-5-5-5z"/></g><defs><filter id="Adobe_OpacityMaskFilter_10_" filterUnits="userSpaceOnUse" x="2576" y="176" width="30" height="30"><feColorMatrix values="1 0 0 0 0 0 1 0 0 0 0 0 1 0 0 0 0 0 1 0"/></filter></defs><mask maskUnits="userSpaceOnUse" x="2576" y="176" width="30" height="30" id="mask-38_1_"><g class="st29"><path id="path-37_2_" class="st4" d="M2606 171h-35v40h35c2.8 0 5-2.2 5-5v-30c0-2.8-2.2-5-5-5z"/></g></mask><g transform="matrix(-1 0 0 1 35 5)" id="blackshot_18_" class="st30"><path id="Shape_103_" class="st6" d="M-2558.8 171.1c.1 0 .2.1.2.1l.4.7c.1.2.2.1.2.1 2.3-.3 3.8-.1 3.8-.1s.2 0 .3-.2l.4-.6s0-.1.2-.1c7.1 1.2 12.4 7.4 12.4 14.9 0 1.8-.3 3.5-.9 5.1-.1.1-.2.1-.2.1h-.7c-.2 0-.3.1-.3.1s-.6 1.5-1.9 3.3c0 0-.1.1 0 .3l.4.7s.1.1 0 .3c-2.8 3.2-6.8 5.2-11.3 5.2-4.6 0-8.7-2.1-11.4-5.3v-.2l.4-.7c.1-.2 0-.3 0-.3-1.4-1.9-1.9-3.3-1.9-3.3s-.1-.2-.3-.1h-.7s-.1 0-.2-.1c-.6-1.6-.9-3.3-.9-5.2-.2-7.3 5-13.4 12-14.7zm2.8 27.3c6.8 0 12.4-5.6 12.4-12.5s-5.5-12.5-12.4-12.5-12.4 5.6-12.4 12.5 5.6 12.5 12.4 12.5z"/><path id="Shape_104_" class="st6" d="M-2550.8 180.5c-2.7-3.9-8.8-4.3-13.5-.8-.6.5-1.2.9-1.7 1.5.8-1.8 2.1-3.5 3.9-4.9 4.7-3.4 10.8-2.9 13.6 1.2 2.8 4 1.4 10-3.1 13.5 2.4-3.4 2.9-7.5.8-10.5z"/><path id="Shape_105_" class="st6" d="M-2562.8 184.8c-1.8 4.5 1.1 10.1 6.3 12.4.7.3 1.4.5 2 .7-1.9.3-3.9 0-5.9-.9-5.2-2.3-7.9-8-6.1-12.7 1.8-4.6 7.3-6.6 12.4-4.5-3.8-.3-7.4 1.6-8.7 5z"/><path id="Shape_106_" class="st6" d="M-2553.2 192.4c4.7-.7 7.9-6.1 7.1-12.1-.1-.8-.3-1.5-.5-2.2 1.2 1.6 2.1 3.6 2.4 5.9.8 5.9-2.6 11.3-7.5 12-4.9.7-9.4-3.4-10.4-9.2 1.9 3.7 5.4 6.1 8.9 5.6z"/><circle id="Oval_19_" class="st6" cx="-2555.5" cy="185.5" r="1.5"/></g></g><text transform="translate(2410 197)" class="st0 st7 st8">winner Match 6</text></g><g id="winner_x5F_match5_1_" transform="translate(477 70)"><path id="Rectangle-12_34_" class="st0" d="M2327 173h-36c-3.9 0-7 3.1-7 7v23c0 3.9 3.1 7 7 7h36c3.9 0 7-3.1 7-7v-23c0-3.9-3.1-7-7-7z"/><path id="Rectangle-12_35_" class="st1" d="M2606 171h-282c-2.8 0-5 2.2-5 5v30c0 2.8 2.2 5 5 5h282c2.8 0 5-2.2 5-5v-30c0-2.8-2.2-5-5-5z"/><g id="KbpKVuJz0mH3fe4sCG80Q_17_"><g id="Mask_17_"><path id="path-35_1_" class="st2" d="M2606 171h-35v40h35c2.8 0 5-2.2 5-5v-30c0-2.8-2.2-5-5-5z"/></g><defs><filter id="Adobe_OpacityMaskFilter_11_" filterUnits="userSpaceOnUse" x="2576" y="176" width="30" height="30"><feColorMatrix values="1 0 0 0 0 0 1 0 0 0 0 0 1 0 0 0 0 0 1 0"/></filter></defs><mask maskUnits="userSpaceOnUse" x="2576" y="176" width="30" height="30" id="mask-36_1_"><g class="st31"><path id="path-35_2_" class="st4" d="M2606 171h-35v40h35c2.8 0 5-2.2 5-5v-30c0-2.8-2.2-5-5-5z"/></g></mask><g transform="matrix(-1 0 0 1 35 5)" id="blackshot_17_" class="st32"><path id="Shape_99_" class="st6" d="M-2558.8 171.1c.1 0 .2.1.2.1l.4.7c.1.2.2.1.2.1 2.3-.3 3.8-.1 3.8-.1s.2 0 .3-.2l.4-.6s0-.1.2-.1c7.1 1.2 12.4 7.4 12.4 14.9 0 1.8-.3 3.5-.9 5.1-.1.1-.2.1-.2.1h-.7c-.2 0-.3.1-.3.1s-.6 1.5-1.9 3.3c0 0-.1.1 0 .3l.4.7s.1.1 0 .3c-2.8 3.2-6.8 5.2-11.3 5.2-4.6 0-8.7-2.1-11.4-5.3v-.2l.4-.7c.1-.2 0-.3 0-.3-1.4-1.9-1.9-3.3-1.9-3.3s-.1-.2-.3-.1h-.7s-.1 0-.2-.1c-.6-1.6-.9-3.3-.9-5.2-.2-7.3 5-13.4 12-14.7zm2.8 27.3c6.8 0 12.4-5.6 12.4-12.5s-5.5-12.5-12.4-12.5-12.4 5.6-12.4 12.5 5.6 12.5 12.4 12.5z"/><path id="Shape_100_" class="st6" d="M-2550.8 180.5c-2.7-3.9-8.8-4.3-13.5-.8-.6.5-1.2.9-1.7 1.5.8-1.8 2.1-3.5 3.9-4.9 4.7-3.4 10.8-2.9 13.6 1.2 2.8 4 1.4 10-3.1 13.5 2.4-3.4 2.9-7.5.8-10.5z"/><path id="Shape_101_" class="st6" d="M-2562.8 184.8c-1.8 4.5 1.1 10.1 6.3 12.4.7.3 1.4.5 2 .7-1.9.3-3.9 0-5.9-.9-5.2-2.3-7.9-8-6.1-12.7 1.8-4.6 7.3-6.6 12.4-4.5-3.8-.3-7.4 1.6-8.7 5z"/><path id="Shape_102_" class="st6" d="M-2553.2 192.4c4.7-.7 7.9-6.1 7.1-12.1-.1-.8-.3-1.5-.5-2.2 1.2 1.6 2.1 3.6 2.4 5.9.8 5.9-2.6 11.3-7.5 12-4.9.7-9.4-3.4-10.4-9.2 1.9 3.7 5.4 6.1 8.9 5.6z"/><circle id="Oval_18_" class="st6" cx="-2555.5" cy="185.5" r="1.5"/></g></g><text transform="translate(2410 197)" class="st0 st7 st8">Winner Match 5</text></g><g id="lines_2_"><path id="Rectangle-16_21_" class="st0" d="M2641 286h110v2h-110z"/><path id="Rectangle-16_22_" class="st0" d="M2616 429h25v2h-25z"/><path id="Rectangle-16_23_" class="st0" d="M2641 571h110v2h-110z"/><path id="Rectangle-16_24_" class="st0" d="M2641 286h2v287h-2z"/></g><g id="dates_3_"><text transform="translate(2846 228)" class="st0 st23 st24">MATCH 11 - Sunday 03/12/17 19:00 CET</text><text transform="translate(2851 510)" class="st0 st23 st24">MATCH 12 - Sunday 03/12/17 20:00 CET</text></g></g><g id="side_b_week4"><g id="winner_x5F_match12" transform="translate(145 150)"><path id="Rectangle-12_56_" class="st0" d="M2177 288h-36c-3.9 0-7 3.1-7 7v23c0 3.9 3.1 7 7 7h36c3.9 0 7-3.1 7-7v-23c0-3.9-3.1-7-7-7z"/><path id="Rectangle-12_57_" class="st1" d="M2456 286h-282c-2.8 0-5 2.2-5 5v30c0 2.8 2.2 5 5 5h282c2.8 0 5-2.2 5-5v-30c0-2.8-2.2-5-5-5z"/><g id="KbpKVuJz0mH3fe4sCG80Q_28_"><g id="Mask_28_"><path id="path-57_1_" class="st2" d="M2456 286h-35v40h35c2.8 0 5-2.2 5-5v-30c0-2.8-2.2-5-5-5z"/></g><defs><filter id="Adobe_OpacityMaskFilter_12_" filterUnits="userSpaceOnUse" x="2426" y="291" width="30" height="30"><feColorMatrix values="1 0 0 0 0 0 1 0 0 0 0 0 1 0 0 0 0 0 1 0"/></filter></defs><mask maskUnits="userSpaceOnUse" x="2426" y="291" width="30" height="30" id="mask-58_1_"><g class="st33"><path id="path-57_2_" class="st4" d="M2456 286h-35v40h35c2.8 0 5-2.2 5-5v-30c0-2.8-2.2-5-5-5z"/></g></mask><g transform="matrix(-1 0 0 1 35 5)" id="blackshot_28_" class="st34"><path id="Shape_143_" class="st6" d="M-2408.8 286.1c.1 0 .2.1.2.1l.4.7c.1.2.2.1.2.1 2.3-.3 3.8-.1 3.8-.1s.2 0 .3-.2l.4-.6s0-.1.2-.1c7.1 1.2 12.4 7.4 12.4 14.9 0 1.8-.3 3.5-.9 5.1-.1.1-.2.1-.2.1h-.7c-.2 0-.3.1-.3.1s-.6 1.5-1.9 3.3c0 0-.1.1 0 .3l.4.7s.1.1 0 .3c-2.8 3.2-6.8 5.2-11.3 5.2-4.6 0-8.7-2.1-11.4-5.3v-.2l.4-.7c.1-.2 0-.3 0-.3-1.4-1.9-1.9-3.3-1.9-3.3s-.1-.2-.3-.1h-.7s-.1 0-.2-.1c-.6-1.6-.9-3.3-.9-5.2-.2-7.3 5-13.4 12-14.7zm2.8 27.3c6.8 0 12.4-5.6 12.4-12.5s-5.5-12.5-12.4-12.5-12.4 5.6-12.4 12.5 5.6 12.5 12.4 12.5z"/><path id="Shape_144_" class="st6" d="M-2400.8 295.5c-2.7-3.9-8.8-4.3-13.5-.8-.6.5-1.2.9-1.7 1.5.8-1.8 2.1-3.5 3.9-4.9 4.7-3.4 10.8-2.9 13.6 1.2 2.8 4 1.4 10-3.1 13.5 2.4-3.4 2.9-7.5.8-10.5z"/><path id="Shape_145_" class="st6" d="M-2412.8 299.8c-1.8 4.5 1.1 10.1 6.3 12.4.7.3 1.4.5 2 .7-1.9.3-3.9 0-5.9-.9-5.2-2.3-7.9-8-6.1-12.7 1.8-4.6 7.3-6.6 12.4-4.5-3.8-.3-7.4 1.6-8.7 5z"/><path id="Shape_146_" class="st6" d="M-2403.2 307.4c4.7-.7 7.9-6.1 7.1-12.1-.1-.8-.3-1.5-.5-2.2 1.2 1.6 2.1 3.6 2.4 5.9.8 5.9-2.6 11.3-7.5 12-4.9.7-9.4-3.4-10.4-9.2 1.9 3.7 5.4 6.1 8.9 5.6z"/><circle id="Oval_29_" class="st6" cx="-2405.5" cy="300.5" r="1.5"/></g></g><text transform="translate(2250 312)" class="st0 st7 st8">winner MATCH 12</text></g><g id="winner_x5F_match11" transform="translate(145 96)"><path id="Rectangle-12_54_" class="st0" d="M2177 288h-36c-3.9 0-7 3.1-7 7v23c0 3.9 3.1 7 7 7h36c3.9 0 7-3.1 7-7v-23c0-3.9-3.1-7-7-7z"/><path id="Rectangle-12_55_" class="st1" d="M2456 286h-282c-2.8 0-5 2.2-5 5v30c0 2.8 2.2 5 5 5h282c2.8 0 5-2.2 5-5v-30c0-2.8-2.2-5-5-5z"/><g id="KbpKVuJz0mH3fe4sCG80Q_27_"><g id="Mask_27_"><path id="path-55_1_" class="st2" d="M2456 286h-35v40h35c2.8 0 5-2.2 5-5v-30c0-2.8-2.2-5-5-5z"/></g><defs><filter id="Adobe_OpacityMaskFilter_13_" filterUnits="userSpaceOnUse" x="2426" y="291" width="30" height="30"><feColorMatrix values="1 0 0 0 0 0 1 0 0 0 0 0 1 0 0 0 0 0 1 0"/></filter></defs><mask maskUnits="userSpaceOnUse" x="2426" y="291" width="30" height="30" id="mask-56_1_"><g class="st35"><path id="path-55_2_" class="st4" d="M2456 286h-35v40h35c2.8 0 5-2.2 5-5v-30c0-2.8-2.2-5-5-5z"/></g></mask><g transform="matrix(-1 0 0 1 35 5)" id="blackshot_27_" class="st36"><path id="Shape_139_" class="st6" d="M-2408.8 286.1c.1 0 .2.1.2.1l.4.7c.1.2.2.1.2.1 2.3-.3 3.8-.1 3.8-.1s.2 0 .3-.2l.4-.6s0-.1.2-.1c7.1 1.2 12.4 7.4 12.4 14.9 0 1.8-.3 3.5-.9 5.1-.1.1-.2.1-.2.1h-.7c-.2 0-.3.1-.3.1s-.6 1.5-1.9 3.3c0 0-.1.1 0 .3l.4.7s.1.1 0 .3c-2.8 3.2-6.8 5.2-11.3 5.2-4.6 0-8.7-2.1-11.4-5.3v-.2l.4-.7c.1-.2 0-.3 0-.3-1.4-1.9-1.9-3.3-1.9-3.3s-.1-.2-.3-.1h-.7s-.1 0-.2-.1c-.6-1.6-.9-3.3-.9-5.2-.2-7.3 5-13.4 12-14.7zm2.8 27.3c6.8 0 12.4-5.6 12.4-12.5s-5.5-12.5-12.4-12.5-12.4 5.6-12.4 12.5 5.6 12.5 12.4 12.5z"/><path id="Shape_140_" class="st6" d="M-2400.8 295.5c-2.7-3.9-8.8-4.3-13.5-.8-.6.5-1.2.9-1.7 1.5.8-1.8 2.1-3.5 3.9-4.9 4.7-3.4 10.8-2.9 13.6 1.2 2.8 4 1.4 10-3.1 13.5 2.4-3.4 2.9-7.5.8-10.5z"/><path id="Shape_141_" class="st6" d="M-2412.8 299.8c-1.8 4.5 1.1 10.1 6.3 12.4.7.3 1.4.5 2 .7-1.9.3-3.9 0-5.9-.9-5.2-2.3-7.9-8-6.1-12.7 1.8-4.6 7.3-6.6 12.4-4.5-3.8-.3-7.4 1.6-8.7 5z"/><path id="Shape_142_" class="st6" d="M-2403.2 307.4c4.7-.7 7.9-6.1 7.1-12.1-.1-.8-.3-1.5-.5-2.2 1.2 1.6 2.1 3.6 2.4 5.9.8 5.9-2.6 11.3-7.5 12-4.9.7-9.4-3.4-10.4-9.2 1.9 3.7 5.4 6.1 8.9 5.6z"/><circle id="Oval_28_" class="st6" cx="-2405.5" cy="300.5" r="1.5"/></g></g><text transform="translate(2250 312)" class="st0 st7 st8">winner MATCH 11</text></g><text transform="translate(2351 368)" class="st0 st23 st24">MATCH 14 - Sunday 10/12/17 20:00 CET</text></g><g id="final"><g id="loser_x5F_match14" transform="matrix(-1 0 0 1 2124 624)"><path id="Rectangle-12_62_" class="st0" d="M284-8h36c3.9 0 7 3.1 7 7v23c0 3.9-3.1 7-7 7h-36c-3.9 0-7-3.1-7-7V-1c0-3.9 3.1-7 7-7z"/><path id="Rectangle-12_63_" class="st1" d="M5-10h282c2.8 0 5 2.2 5 5v30c0 2.8-2.2 5-5 5H5c-2.8 0-5-2.2-5-5V-5c0-2.8 2.2-5 5-5z"/><g id="KbpKVuJz0mH3fe4sCG80Q_31_"><g id="Mask_31_"><path id="path-63_1_" class="st2" d="M5-10h35v40H5c-2.8 0-5-2.2-5-5V-5c0-2.8 2.2-5 5-5z"/></g><defs><filter id="Adobe_OpacityMaskFilter_14_" filterUnits="userSpaceOnUse"><feColorMatrix values="1 0 0 0 0 0 1 0 0 0 0 0 1 0 0 0 0 0 1 0"/></filter></defs><mask maskUnits="userSpaceOnUse" id="mask-64_1_"><g class="st37"><path id="path-63_2_" class="st4" d="M5-10h35v40H5c-2.8 0-5-2.2-5-5V-5c0-2.8 2.2-5 5-5z"/></g></mask><g transform="matrix(-1 0 0 1 35 5)" id="blackshot_31_" class="st38"><path id="Shape_155_" class="st6" d="M17.8-9.9c-.1 0-.2.1-.2.1l-.4.7c0 .1-.2.1-.2.1-2.3-.3-3.8-.1-3.8-.1s-.2 0-.3-.2l-.4-.6s0-.1-.2-.1C5.4-8.8 0-2.6 0 4.9 0 6.7.3 8.4.9 10c.1.1.2.1.2.1h.7c.2 0 .3.1.3.1s.6 1.5 1.9 3.3c0 0 .1.1 0 .3l-.4.7s-.1.1 0 .3C6.4 18 10.5 20 15 20c4.6 0 8.7-2.1 11.4-5.3v-.2l-.4-.6c-.1-.2 0-.3 0-.3 1.4-1.9 1.9-3.3 1.9-3.3s.1-.2.3-.1h.7s.1 0 .2-.1c.6-1.6.9-3.4.9-5.2 0-7.4-5.2-13.5-12.2-14.8zM15 17.4c-6.8 0-12.4-5.6-12.4-12.5S8.2-7.6 15-7.6 27.4-2 27.4 4.9 21.8 17.4 15 17.4z"/><path id="Shape_156_" class="st6" d="M9.8-.5c2.7-3.9 8.8-4.3 13.5-.8.6.5 1.2.9 1.7 1.5-.8-1.8-2.1-3.5-3.9-4.9-4.7-3.5-10.8-2.9-13.7 1.2C4.6.5 6 6.5 10.5 10 8.2 6.6 7.7 2.5 9.8-.5z"/><path id="Shape_157_" class="st6" d="M21.8 3.8c1.8 4.5-1.1 10.1-6.3 12.4-.7.3-1.4.5-2 .7 1.9.3 3.9 0 5.9-.9 5.2-2.3 7.9-8 6-12.7-1.8-4.6-7.3-6.6-12.4-4.5 3.9-.3 7.5 1.6 8.8 5z"/><path id="Shape_158_" class="st6" d="M12.2 11.4C7.4 10.7 4.2 5.3 5-.8c.2-.7.3-1.5.5-2.2C4.3-1.4 3.4.6 3.1 2.9c-.8 5.9 2.6 11.3 7.5 12 4.9.7 9.4-3.4 10.4-9.2-1.8 3.8-5.3 6.2-8.8 5.7z"/><circle id="Oval_32_" class="st6" cx="14.5" cy="4.5" r="1.5"/></g></g><text transform="matrix(-1 0 0 1 194 16)" class="st0 st7 st8">Loser match 14</text><text transform="translate(304 24)" class="st4 st7 st39">-</text></g><g id="loser_x5F_match13" transform="translate(1439 624)"><path id="Rectangle-12_60_" class="st0" d="M284-8h36c3.9 0 7 3.1 7 7v23c0 3.9-3.1 7-7 7h-36c-3.9 0-7-3.1-7-7V-1c0-3.9 3.1-7 7-7z"/><path id="Rectangle-12_61_" class="st1" d="M5-10h282c2.8 0 5 2.2 5 5v30c0 2.8-2.2 5-5 5H5c-2.8 0-5-2.2-5-5V-5c0-2.8 2.2-5 5-5z"/><g id="KbpKVuJz0mH3fe4sCG80Q_30_"><g id="Mask_30_"><path id="path-61_1_" class="st2" d="M5-10h35v40H5c-2.8 0-5-2.2-5-5V-5c0-2.8 2.2-5 5-5z"/></g><defs><filter id="Adobe_OpacityMaskFilter_15_" filterUnits="userSpaceOnUse" x="5" y="-5" width="30" height="30"><feColorMatrix values="1 0 0 0 0 0 1 0 0 0 0 0 1 0 0 0 0 0 1 0"/></filter></defs><mask maskUnits="userSpaceOnUse" x="5" y="-5" width="30" height="30" id="mask-62_1_"><g class="st40"><path id="path-61_2_" class="st4" d="M5-10h35v40H5c-2.8 0-5-2.2-5-5V-5c0-2.8 2.2-5 5-5z"/></g></mask><g transform="translate(5 5)" id="blackshot_30_" class="st41"><path id="Shape_151_" class="st6" d="M17.8-9.9c-.1 0-.2.1-.2.1l-.4.7c0 .1-.2.1-.2.1-2.3-.3-3.8-.1-3.8-.1s-.2 0-.3-.2l-.4-.6s0-.1-.2-.1C5.4-8.8 0-2.6 0 4.9 0 6.7.3 8.4.9 10c.1.1.2.1.2.1h.7c.2 0 .3.1.3.1s.6 1.5 1.9 3.3c0 0 .1.1 0 .3l-.4.7s-.1.1 0 .3C6.4 18 10.5 20 15 20c4.6 0 8.7-2.1 11.4-5.3v-.2l-.4-.6c-.1-.2 0-.3 0-.3 1.4-1.9 1.9-3.3 1.9-3.3s.1-.2.3-.1h.7s.1 0 .2-.1c.6-1.6.9-3.4.9-5.2 0-7.4-5.2-13.5-12.2-14.8zM15 17.4c-6.8 0-12.4-5.6-12.4-12.5S8.2-7.6 15-7.6 27.4-2 27.4 4.9 21.8 17.4 15 17.4z"/><path id="Shape_152_" class="st6" d="M9.8-.5c2.7-3.9 8.8-4.3 13.5-.8.6.5 1.2.9 1.7 1.5-.8-1.8-2.1-3.5-3.9-4.9-4.7-3.5-10.8-2.9-13.7 1.2C4.6.5 6 6.5 10.5 10 8.2 6.6 7.7 2.5 9.8-.5z"/><path id="Shape_153_" class="st6" d="M21.8 3.8c1.8 4.5-1.1 10.1-6.3 12.4-.7.3-1.4.5-2 .7 1.9.3 3.9 0 5.9-.9 5.2-2.3 7.9-8 6-12.7-1.8-4.6-7.3-6.6-12.4-4.5 3.9-.3 7.5 1.6 8.8 5z"/><path id="Shape_154_" class="st6" d="M12.2 11.4C7.4 10.7 4.2 5.3 5-.8c.2-.7.3-1.5.5-2.2C4.3-1.4 3.4.6 3.1 2.9c-.8 5.9 2.6 11.3 7.5 12 4.9.7 9.4-3.4 10.4-9.2-1.8 3.8-5.3 6.2-8.8 5.7z"/><circle id="Oval_31_" class="st6" cx="14.5" cy="4.5" r="1.5"/></g></g><text transform="translate(57 16)" class="st0 st7 st8">Loser match 13</text><text transform="translate(304 24)" class="st4 st7 st39">-</text></g><g id="winner_x5F_match14" transform="matrix(-1 0 0 1 2124 420)"><path id="Rectangle-12_58_" class="st0" d="M284-8h36c3.9 0 7 3.1 7 7v23c0 3.9-3.1 7-7 7h-36c-3.9 0-7-3.1-7-7V-1c0-3.9 3.1-7 7-7z"/><path id="Rectangle-12_59_" class="st1" d="M5-10h282c2.8 0 5 2.2 5 5v30c0 2.8-2.2 5-5 5H5c-2.8 0-5-2.2-5-5V-5c0-2.8 2.2-5 5-5z"/><g id="KbpKVuJz0mH3fe4sCG80Q_29_"><g id="Mask_29_"><path id="path-59_1_" class="st2" d="M5-10h35v40H5c-2.8 0-5-2.2-5-5V-5c0-2.8 2.2-5 5-5z"/></g><defs><filter id="Adobe_OpacityMaskFilter_16_" filterUnits="userSpaceOnUse"><feColorMatrix values="1 0 0 0 0 0 1 0 0 0 0 0 1 0 0 0 0 0 1 0"/></filter></defs><mask maskUnits="userSpaceOnUse" id="mask-60_1_"><g class="st42"><path id="path-59_2_" class="st4" d="M5-10h35v40H5c-2.8 0-5-2.2-5-5V-5c0-2.8 2.2-5 5-5z"/></g></mask><g transform="matrix(-1 0 0 1 35 5)" id="blackshot_29_" class="st43"><path id="Shape_147_" class="st6" d="M17.8-9.9c-.1 0-.2.1-.2.1l-.4.7c0 .1-.2.1-.2.1-2.3-.3-3.8-.1-3.8-.1s-.2 0-.3-.2l-.4-.6s0-.1-.2-.1C5.4-8.8 0-2.6 0 4.9 0 6.7.3 8.4.9 10c.1.1.2.1.2.1h.7c.2 0 .3.1.3.1s.6 1.5 1.9 3.3c0 0 .1.1 0 .3l-.4.7s-.1.1 0 .3C6.4 18 10.5 20 15 20c4.6 0 8.7-2.1 11.4-5.3v-.2l-.4-.6c-.1-.2 0-.3 0-.3 1.4-1.9 1.9-3.3 1.9-3.3s.1-.2.3-.1h.7s.1 0 .2-.1c.6-1.6.9-3.4.9-5.2 0-7.4-5.2-13.5-12.2-14.8zM15 17.4c-6.8 0-12.4-5.6-12.4-12.5S8.2-7.6 15-7.6 27.4-2 27.4 4.9 21.8 17.4 15 17.4z"/><path id="Shape_148_" class="st6" d="M9.8-.5c2.7-3.9 8.8-4.3 13.5-.8.6.5 1.2.9 1.7 1.5-.8-1.8-2.1-3.5-3.9-4.9-4.7-3.5-10.8-2.9-13.7 1.2C4.6.5 6 6.5 10.5 10 8.2 6.6 7.7 2.5 9.8-.5z"/><path id="Shape_149_" class="st6" d="M21.8 3.8c1.8 4.5-1.1 10.1-6.3 12.4-.7.3-1.4.5-2 .7 1.9.3 3.9 0 5.9-.9 5.2-2.3 7.9-8 6-12.7-1.8-4.6-7.3-6.6-12.4-4.5 3.9-.3 7.5 1.6 8.8 5z"/><path id="Shape_150_" class="st6" d="M12.2 11.4C7.4 10.7 4.2 5.3 5-.8c.2-.7.3-1.5.5-2.2C4.3-1.4 3.4.6 3.1 2.9c-.8 5.9 2.6 11.3 7.5 12 4.9.7 9.4-3.4 10.4-9.2-1.8 3.8-5.3 6.2-8.8 5.7z"/><circle id="Oval_30_" class="st6" cx="14.5" cy="4.5" r="1.5"/></g></g><text transform="matrix(-1 0 0 1 206 16)" class="st0 st7 st8">Winner match 14</text><text transform="translate(304 24)" class="st4 st7 st39">-</text></g><g id="winner_x5F_match13" transform="translate(625 124)"><path id="Rectangle-12_26_" class="st0" d="M1098 288h36c3.9 0 7 3.1 7 7v23c0 3.9-3.1 7-7 7h-36c-3.9 0-7-3.1-7-7v-23c0-3.9 3.1-7 7-7z"/><path id="Rectangle-12_27_" class="st1" d="M819 286h282c2.8 0 5 2.2 5 5v30c0 2.8-2.2 5-5 5H819c-2.8 0-5-2.2-5-5v-30c0-2.8 2.2-5 5-5z"/><g id="KbpKVuJz0mH3fe4sCG80Q_13_"><g id="Mask_13_"><path id="path-27_1_" class="st2" d="M819 286h35v40h-35c-2.8 0-5-2.2-5-5v-30c0-2.8 2.2-5 5-5z"/></g><defs><filter id="Adobe_OpacityMaskFilter_17_" filterUnits="userSpaceOnUse" x="819" y="291" width="30" height="30"><feColorMatrix values="1 0 0 0 0 0 1 0 0 0 0 0 1 0 0 0 0 0 1 0"/></filter></defs><mask maskUnits="userSpaceOnUse" x="819" y="291" width="30" height="30" id="mask-28_1_"><g class="st44"><path id="path-27_2_" class="st4" d="M819 286h35v40h-35c-2.8 0-5-2.2-5-5v-30c0-2.8 2.2-5 5-5z"/></g></mask><g transform="translate(5 5)" id="blackshot_13_" class="st45"><path id="Shape_83_" class="st6" d="M831.8 286.1c-.1 0-.2.1-.2.1l-.4.7c-.1.2-.2.1-.2.1-2.3-.3-3.8-.1-3.8-.1s-.2 0-.3-.2l-.4-.6s0-.1-.2-.1c-7.1 1.2-12.4 7.4-12.4 14.9 0 1.8.3 3.5.9 5.1.1.1.2.1.2.1h.7c.2 0 .3.1.3.1s.6 1.5 1.9 3.3c0 0 .1.1 0 .3l-.4.7s-.1.1 0 .3c2.8 3.2 6.8 5.2 11.3 5.2 4.6 0 8.7-2.1 11.4-5.3v-.2l-.4-.7c-.1-.2 0-.3 0-.3 1.4-1.9 1.9-3.3 1.9-3.3s.1-.2.3-.1h.7s.1 0 .2-.1c.6-1.6.9-3.3.9-5.2.2-7.3-5-13.4-12-14.7zm-2.8 27.3c-6.8 0-12.4-5.6-12.4-12.5s5.5-12.5 12.4-12.5 12.4 5.6 12.4 12.5-5.6 12.5-12.4 12.5z"/><path id="Shape_84_" class="st6" d="M823.8 295.5c2.7-3.9 8.8-4.3 13.5-.8.6.5 1.2.9 1.7 1.5-.8-1.8-2.1-3.5-3.9-4.9-4.7-3.4-10.8-2.9-13.6 1.2-2.8 4-1.4 10 3.1 13.5-2.4-3.4-2.9-7.5-.8-10.5z"/><path id="Shape_85_" class="st6" d="M835.8 299.8c1.8 4.5-1.1 10.1-6.3 12.4-.7.3-1.4.5-2 .7 1.9.3 3.9 0 5.9-.9 5.2-2.3 7.9-8 6-12.7-1.8-4.6-7.3-6.6-12.4-4.5 3.9-.3 7.5 1.6 8.8 5z"/><path id="Shape_86_" class="st6" d="M826.2 307.4c-4.7-.7-7.9-6.1-7.1-12.1.1-.8.3-1.5.5-2.2-1.2 1.6-2.1 3.6-2.4 5.9-.8 5.9 2.6 11.3 7.5 12 4.9.7 9.4-3.4 10.4-9.2-1.9 3.7-5.4 6.1-8.9 5.6z"/><circle id="Oval_14_" class="st6" cx="828.5" cy="300.5" r="1.5"/></g></g><text transform="translate(871 312)" class="st0 st7 st8">Winner match 13</text><text transform="translate(1118 320)" class="st4 st7 st39">-</text></g><g id="lines"><path id="Rectangle-16_25_" class="st0" d="M2136 429h135v2h-135z"/><path id="Rectangle-16_12_" class="st0" d="M1294 429h135v2h-135z"/></g><g id="texts"><text transform="translate(1717 359)" class="st0 st23 st24">Sunday 17/12/17 20:00 CET</text><text transform="translate(1749.404 341)" class="st0 st7 st46">final</text><text transform="translate(1706 583)" class="st0 st23 st24">Saturday 16/12/17 20:00 CET</text><text transform="translate(1714.907 565)" class="st0 st7 st46">3rd place</text></g><g id="tournament" transform="translate(1598 229)" class="st47"><path id="Shape" class="st48" d="M92.9 158h-.7l-1.2 5h1.3c1.7 0 2.7-1.6 2.7-3.2 0-1.5-1.2-1.8-2.1-1.8z"/><path id="Shape_1_" class="st48" d="M87.3 172h-1.1l-1.2 6h1.3c1.5 0 2.7-1.7 2.7-3.9 0-1.4-.6-2.1-1.7-2.1z"/><path id="Shape_2_" class="st48" d="M26 210.4V205H6.1c-1.5 0-2.7.5-3.6 1.5-1 1-1.5 2.2-1.5 3.6v14.8c0 1.5.5 2.7 1.5 3.6 1 1 2.2 1.5 3.6 1.5H26v-5.4H6.4v-14.3H26v.1z"/><path id="Shape_3_" class="st48" d="M49.8 230c1.4 0 2.6-.5 3.6-1.5s1.5-2.2 1.5-3.6v-14.7c0-1.4-.5-2.6-1.5-3.6s-2.2-1.5-3.6-1.5H35.1c-1.5 0-2.7.5-3.6 1.5-1 1-1.5 2.2-1.5 3.6v14.7c0 1.5.5 2.7 1.5 3.6 1 1 2.2 1.5 3.6 1.5h14.7zm-14.4-19.5h14.2v14.2H35.4v-14.2z"/><path id="Shape_4_" class="st48" d="M81.6 213.3V230H87v-25h-5.6L73 215.1 64.5 205H59v25h5.4v-16.7l8.6 10.2z"/><path id="Shape_5_" class="st48" d="M105 215.1L96.6 205H91v25h5.4v-16.7l8.6 10.2 8.6-10.2V230h5.4v-25h-5.5z"/><path id="Shape_6_" class="st48" d="M124 230h23v-5.4h-17.6v-4.4h14.2v-5.4h-14.2v-4.3H147V205h-23z"/><path id="Shape_7_" class="st48" d="M178 230v-25h-5.6l-8.4 10.1-8.5-10.1H150v25h5.3v-16.7l8.7 10.2 8.5-10.2V230z"/><path id="Shape_8_" class="st48" d="M202.8 205h-14.7c-1.5 0-2.7.5-3.6 1.5-1 1-1.5 2.2-1.5 3.6v14.8c0 1.5.5 2.7 1.5 3.6 1 1 2.2 1.5 3.6 1.5h14.7c1.4 0 2.6-.5 3.6-1.5s1.5-2.2 1.5-3.6v-14.8c0-1.4-.5-2.6-1.5-3.6s-2.2-1.5-3.6-1.5zm-.3 19.7h-14.2v-14.3h14.2v14.3z"/><path id="Shape_9_" class="st48" d="M231.8 205H212v25h5.4v-8l.1.1c0-.1-.1-.2-.1-.2l7.1-.1 6.9 8.2h5.5v-1.8l-5.4-6.4h.3c1.4 0 2.6-.5 3.6-1.5s1.5-2.2 1.5-3.6v-6.5c0-1.4-.5-2.6-1.5-3.6-.9-1.1-2.2-1.6-3.6-1.6zm-.2 11.4h-14.2v-5.9h14.2v5.9z"/><path id="Shape_10_" class="st48" d="M266 230v-19.8c0-1.4-.5-2.6-1.5-3.6s-2.2-1.5-3.7-1.5h-14.7c-1.5 0-2.7.5-3.6 1.5-1 1-1.5 2.2-1.5 3.6V230h5.4v-8.1h14.2v8.1h5.4zm-19.6-13.4v-6.1h14.2v6.1h-14.2z"/><path id="Shape_11_" class="st48" d="M293 205h-25v5.5h9.8V230h5.4v-19.5h9.8z"/><path id="Rectangle-path" class="st48" d="M297 205h5v25h-5z"/><path id="Shape_12_" class="st48" d="M331.7 205L321 223.2 310.3 205H304l14.7 25h4.6l14.7-25z"/><path id="Shape_13_" class="st48" d="M363 210.5V205h-23v25h23v-5.4h-17.6v-4.4h14.2v-5.4h-14.2v-4.3z"/><path id="Shape_14_" class="st48" d="M20.5 268v-25.1H33V236H1v6.9h12.5V268z"/><path id="Shape_15_" class="st48" d="M41.6 268h18.9c1.8 0 3.3-.6 4.6-1.9 1.3-1.3 1.9-2.8 1.9-4.6v-18.9c0-1.8-.6-3.3-1.9-4.6-1.3-1.3-2.8-1.9-4.6-1.9H41.6c-1.9 0-3.4.6-4.7 1.9s-1.9 2.8-1.9 4.7v18.9c0 1.9.6 3.4 1.9 4.7 1.4 1.1 2.9 1.7 4.7 1.7zm.3-25.1H60v18.2H41.9v-18.2z"/><path id="Shape_16_" class="st48" d="M79.6 268h18.9c1.8 0 3.3-.6 4.6-1.9 1.3-1.3 1.9-2.8 1.9-4.6v-25.4h-7v25H79.9V236H73v25.4c0 1.9.6 3.4 1.9 4.7 1.3 1.3 2.8 1.9 4.7 1.9z"/><path id="Shape_17_" class="st48" d="M109 268h6.9v-10.3l.1.1c0-.2-.1-.3-.1-.3l9.2-.1 8.8 10.6h7.1v-2.4l-6.9-8.2h.3c1.8 0 3.3-.6 4.7-1.9 1.3-1.3 1.9-2.8 1.9-4.6v-8.3c0-1.8-.6-3.3-1.9-4.6-1.3-1.3-2.9-1.9-4.7-1.9H109V268zm6.9-25.2H134v7.6h-18.1v-7.6z"/><path id="Shape_18_" class="st48" d="M146 268h6.9v-21.4l18 21.4h7.1v-32h-7v21.4L153.1 236H146z"/><path id="Shape_19_" class="st48" d="M189.6 236c-1.9 0-3.4.6-4.7 1.9s-1.9 2.8-1.9 4.7V268h6.9v-10.3H208V268h7v-25.4c0-1.8-.6-3.3-1.9-4.6s-2.8-1.9-4.7-1.9l-18.8-.1zm18.5 14.7H190v-7.8h18.1v7.8z"/><path id="Shape_20_" class="st48" d="M227.1 236H220v32h6.9v-21.4l11.1 13.1 11-13.2V268h7v-32h-7.2L238 249z"/><path id="Shape_21_" class="st48" d="M292 242.9V236h-30v32h30v-6.9h-22.9v-5.7h18.4v-6.9h-18.4v-5.6z"/><path id="Shape_22_" class="st48" d="M295 268h6.9v-21.4l18 21.4h7.1v-32h-7v21.4L302.1 236H295z"/><path id="Shape_23_" class="st48" d="M350.4 268v-25.1H363V236h-32v6.9h12.5V268z"/><path id="Shape_24_" class="st48" d="M293.4 279.5c-6 17.9-14.7 34.4-28.2 47.8-5.7 5.6-12 10.5-18.4 15.2-8 5.9-16.2 11.3-24.5 16.6-12.2 7.7-24.7 15.1-37.4 22.2l-3.1 1.7-3.1-1.7c-12.7-7.1-25.1-14.4-37.4-22.2-8.3-5.3-16.6-10.7-24.5-16.6-6.4-4.7-12.8-9.6-18.4-15.2-13.5-13.3-22.2-29.9-28.2-47.8-.4-1.2-.8-2.3-1.2-3.5H0l64.2 9.8c7 19.5 16.5 35.1 29 47.4 19.4 19.2 64 45.4 88.6 58.7 24.5-13.4 69.2-39.6 88.6-58.7 12.5-12.4 22-27.9 29-47.4L363 276h-68.5c-.3 1.1-.7 2.3-1.1 3.5z"/><path id="Shape_25_" class="st48" d="M103.1 322.9c5.5 5.4 11.6 10.1 17.7 14.6 7.8 5.8 16 11.2 24.2 16.4 12.1 7.7 24.5 15 37 22.1 12.5-7 24.9-14.3 37-22.1 8.2-5.2 16.3-10.6 24.2-16.4 6.1-4.5 12.3-9.2 17.7-14.6 12.6-12.6 20.9-28.3 26.6-45.4.2-.5.3-1 .5-1.5H76c.2.5.3 1 .5 1.5 5.7 17.1 13.9 32.8 26.6 45.4zm121.1-14.6l3-9.4 3 9.4h9.9l-8 5.8 3.1 9.4-8-5.8-8 5.8 3.1-9.4-8-5.8h9.9zm-46.9.2l4.6-14.4 4.6 14.4 15.1-.1-12.2 8.9 4.7 14.4-12.2-8.9-12.2 8.9 4.7-14.4-12.2-8.9 15.1.1zm-44.1-.2l3-9.4 3 9.4h9.9l-8 5.8 3.1 9.4-8-5.8-8 5.8 3.1-9.4-8-5.8h9.9z"/><path id="Shape_26_" class="st48" d="M128.6 82.2c.3.6.9.5.9.5h2.7c.7-.1 1 .6 1 .6s2.3 5.5 7.4 12.5c0 0 .4.5 0 1.1l-1.4 2.5s-.3.5-.1 1c10.4 12 25.9 19.6 43 19.6 17.3 0 32.9-7.7 43.3-19.9 0-.3-.2-.6-.2-.6l-1.4-2.5c-.4-.6 0-1.1 0-1.1 5.2-7 7.4-12.5 7.4-12.5s.3-.6 1-.6h2.7s.5.1.8-.3c2.2-6 3.4-12.6 3.4-19.4 0-27.8-19.9-50.9-46.3-55.9-.4.1-.6.5-.6.5l-1.5 2.4c-.3.6-.9.5-.9.5-8.6-1-14.6-.2-14.6-.2s-.6.1-1-.6l-1.4-2.4s-.2-.4-.6-.5C145.4 11.6 125 34.9 125 63c0 6.8 1.2 13.3 3.4 19.3.1 0 .2-.1.2-.1zm53.1-66.1c26.3-.2 47.7 21.1 47.5 47.3-.2 25.5-21.1 46.3-46.6 46.5-26.3.2-47.7-21.1-47.5-47.3.2-25.4 21.1-46.3 46.6-46.5z"/><path id="Shape_27_" class="st48" d="M166.5 82c-9.2-12.5-10.9-27.9-3-38.9 10.4-14.6 33.7-16 52-3.1 2.4 1.7 4.6 3.5 6.5 5.4-3.1-6.8-8.2-13.2-15.1-18-18.1-12.7-41.6-10.7-52.4 4.6-10.7 15-5.3 37.2 12 50z"/><path id="Shape_28_" class="st48" d="M174 39.1c15.4-1.2 29.3 5.6 34.6 18.1 6.9 16.6-4.2 37.1-24.8 45.7-2.7 1.1-5.4 2-8.1 2.6 7.4 1 15.5.1 23.3-3.2 20.3-8.5 30.9-29.5 23.8-46.8-7.1-17-28.8-24.1-48.8-16.4z"/><path id="Shape_29_" class="st48" d="M167.8 100.7c18.4 2.6 35.7-12.4 39.2-33.6-6.9 13.8-19.9 22.4-33.4 20.5-17.9-2.5-30-22.4-26.8-44.5.4-2.9 1-5.6 1.9-8.2-4.7 5.9-8 13.3-9.2 21.6-3.1 21.9 9.6 41.7 28.3 44.2z"/><ellipse id="Oval" transform="rotate(-67.5 181.495 63.498)" class="st48" cx="181.5" cy="63.5" rx="5.5" ry="5.5"/><path id="Shape_30_" class="st48" d="M56.4 195.7v-10.4h-.1v-.2c0-21.7 2.9-43.8 8-64.8l.7-2.8 2.6-1.3c15.5-7.7 32.3-13.8 49.6-18.2 1.1 1.9 2.2 3.9 3.5 5.7-17.5 4.2-34.6 10.3-50.2 18.2-5 20.5-7.8 42.3-7.8 63.4 0 3.5 0 7 .1 10.6h237.4c.1-3.6.1-7.1.1-10.6 0-21.1-2.8-42.8-7.8-63.3-7.1-3.5-14.4-6.6-21.8-9.4-9.3-3.5-18.8-6.4-28.4-8.8 1.2-1.9 2.4-3.7 3.5-5.7 9.2 2.4 18.3 5.2 27.3 8.5 7.6 2.8 15.1 6 22.4 9.6l2.6 1.3.7 2.9c5.1 21 8 43.1 8 64.8v.3h-.1V196.2H363l-48.9-9.2v-.7c0-32.3-6.5-60.5-10.1-73.8-6.2-3.3-16.2-8.4-29.5-13.3-7.1-2.6-15.7-5.5-25.5-8.1 3.5-8.5 5.5-18 5.5-27.8 0-40.4-32.6-73.1-73-73.1-40.3 0-73 32.7-73 73.1 0 9.8 1.9 19.2 5.5 27.8-26.2 6.9-45.5 16.2-55 21.4-3.6 13.2-10.1 41.4-10.1 73.8v.7L0 195.9h56.5v-.3h-.1zm141.5-32.8l1.7 1.7 3.1 1.3h-13.3c-1-1.4-1.9-3.1-1.9-5.3 0-5.9 4.5-10.5 10.3-10.5 3.1 0 6.1 1.2 7.8 3.2l.2.2-4 5.5-.3-.3c-1-1.2-2.4-1.9-3.8-1.9-1.6 0-2.3 1.3-2.3 2.5s1.1 2.3 2.5 3.6zm-16.7 3H164l3.4-15.4h7.4l-2.4 10.8 7-10.8h8.6l-10.2 14 3.4 1.4zm-28.5 0H131.9l.3-5.4-2.1 5.4h-6.8l6.7-15.4h8.3l-.1 14 3.2 1.3c1.3-7.1 5.2-15.8 13-15.8 2.8 0 5.1 1.1 6.5 3.1 1.5 2.1 1.8 4.7 1.9 6.6v.3l-6.9 1.3v-.3c-.1-3-.6-4.3-1.8-4.3-1.5 0-2.9 2.1-4.1 5.8-.2.6-.4 1.3-.6 2.1l3.3 1.3zm-44.9-15.3h7.4l-3 13.9 3.3 1.3h-11l3.3-15.2zm-22.3 0h8.8c2.4 0 4.5.7 5.9 2.1 1.3 1.2 2 3 2 4.9 0 2.6-1.1 5.3-2.9 7l3.2 1.3H82.1l3.4-15.3zm2.3 33.6H75.9l3.4-15.4h19.3l-3.2 1.3c.9 1.1 1.4 2.6 1.4 4.2-.1 5.1-3.2 9.9-9 9.9zm10.4 0l3.4-15.4h10.3l-3.2 1.3-1.6 7.4h7.3l-1.5 6.6-14.7.1zm37 0h-7.4l.3-4.9h-4.6l-1.8 4.9h-7.8l6.7-15.4h6.8l-1.5 3.9h2.9l.3-3.9h9.4l-3.1 1.3-.2 14.1zm21.3-7c-2.3 5.1-5.4 7.6-9.6 7.6-2.8 0-5.1-1-6.7-2.8-1.5-1.8-2.3-4.4-2.3-7.5 0-1.5.2-3.5.6-5.5h10.6l-3.2 1.3c-.3 1.7-.4 3.3-.4 4.3 0 3.1 1 3.5 1.7 3.5 1.1 0 2.2-1.2 3.3-3.4l.1-.3 6 2.5-.1.3zm14.6 7l-2.1-10.3-2.2 3.2-1.5 7.1h-7.4l3.4-15.4h17.3l-3.2 1.3 3.7 14h-8v.1zm18.1.6c-3.6 0-7.1-1.5-8.8-3.7l-.1-.2 4.2-5.6.3.4c1 1.5 2.8 2.4 4.4 2.4 1.5 0 2.6-1.2 2.6-2.8 0-1.2-1.2-2.4-2.6-3.6-.8-.8-1.8-1.7-2.6-2.8H201.8l-3.2 1.3c.5 1.1.9 2.3.9 3.7 0 6.2-4.4 10.9-10.3 10.9zm56.1-7.9c-1.8 3.7-5.1 8-10.5 8-2.9 0-5.2-1-6.8-3-1.4-1.8-2.2-4.4-2.2-7.3 0-1.5.2-3.4.6-5.5l-3.5 1.3-3.1 14h-7.4l2.8-12.5h-4.4l-2.8 12.5h-7.4L204 169h33l-3.3 1.3c-.3 1.7-.4 3.1-.4 4.3 0 2.4.6 3.5 1.7 3.5 2.2 0 4.1-4.8 5.1-9.2h10.6l-3.2 1.3c-.4 2.2-1.1 4.5-2.2 6.7zm15.2-6.7l-3.1 14H250l3.4-15.4h15.9l-8.8 1.4zm2.3 5.4l-.4-3 3.8-.6 4.1 9-7.5-5.4zm8.2-.1l-1-2.2 2.9 1 4 4-5.9-2.8zm-.6-4.3l4.2-.7 7 2.8-8.3-1.1-2.9-1zm11 6.1l-4.9-2.7 6.7 1.6-1.8 1.1zm10.4-9.9c0 1.4-3.1 1.5-3.1 1.5h-7l-6.2-.5 6.2-.5-9.8-.5 9.8-.5-6.2-.5 6.2-.5h7s3.1 0 3.1 1.5zm-15.2-5.6l4.2-.4-4.9 2.5-2.8-.4 3.5-1.7zm-5.9 1.2l-4.2-.7 9.7-4.4-5.5 5.1zm12.1-4.3l-6.5 1.4 5.4-3.3 1.1 1.9zm-6.7-5.4l.6.7-5.3 4.1 4.7-4.8zm-21-2.7h16.4l-1.5 6.6h-4.4l-1.6 7.4 8.7 1.3h-16.5l1.9-8.7h-4.4l1.4-6.6zm-6 2.5c1.4 1.8 2.2 4.4 2.2 7.4 0 1.1-.1 2.5-.3 4l3.3 1.3H243c.4-2.1.7-4.1.7-5.5 0-1.7-.3-3.7-1.7-3.7-2 0-3.7 3.8-4.7 7.8l3.3 1.3h-33.8l3.4-15.4h7.4l-2.6 11.6h4.4l2.6-11.6h7.4l-3.1 14 2.9 1.2c.5-2.5 1.3-5.2 2.5-7.8 1.8-3.7 5.1-8 10.5-8 3 .4 5.4 1.5 6.9 3.4zm-67.7-155c35.8 0 64.8 29 64.8 65 0 9.2-1.9 17.9-5.3 25.8-1.1 2.4-2.2 4.8-3.6 7.1-11.3 19.1-32.1 32-55.9 32s-44.6-12.9-55.9-32.1c-1-1.7-1.9-3.5-2.8-5.3-.3-.6-.6-1.2-.8-1.8-3.4-7.9-5.3-16.6-5.3-25.8 0-35.8 29-64.9 64.8-64.9z"/></g></g><g id="side_a_week4"><g id="winner_x5F_match10" transform="translate(145 96)"><path id="Rectangle-12_24_" class="st0" d="M1098 288h36c3.9 0 7 3.1 7 7v23c0 3.9-3.1 7-7 7h-36c-3.9 0-7-3.1-7-7v-23c0-3.9 3.1-7 7-7z"/><path id="Rectangle-12_25_" class="st1" d="M819 286h282c2.8 0 5 2.2 5 5v30c0 2.8-2.2 5-5 5H819c-2.8 0-5-2.2-5-5v-30c0-2.8 2.2-5 5-5z"/><g id="KbpKVuJz0mH3fe4sCG80Q_12_"><g id="Mask_12_"><path id="path-25_1_" class="st2" d="M819 286h35v40h-35c-2.8 0-5-2.2-5-5v-30c0-2.8 2.2-5 5-5z"/></g><defs><filter id="Adobe_OpacityMaskFilter_18_" filterUnits="userSpaceOnUse" x="819" y="291" width="30" height="30"><feColorMatrix values="1 0 0 0 0 0 1 0 0 0 0 0 1 0 0 0 0 0 1 0"/></filter></defs><mask maskUnits="userSpaceOnUse" x="819" y="291" width="30" height="30" id="mask-26_1_"><g class="st49"><path id="path-25_2_" class="st4" d="M819 286h35v40h-35c-2.8 0-5-2.2-5-5v-30c0-2.8 2.2-5 5-5z"/></g></mask><g transform="translate(5 5)" id="blackshot_12_" class="st50"><path id="Shape_79_" class="st6" d="M831.8 286.1c-.1 0-.2.1-.2.1l-.4.7c-.1.2-.2.1-.2.1-2.3-.3-3.8-.1-3.8-.1s-.2 0-.3-.2l-.4-.6s0-.1-.2-.1c-7.1 1.2-12.4 7.4-12.4 14.9 0 1.8.3 3.5.9 5.1.1.1.2.1.2.1h.7c.2 0 .3.1.3.1s.6 1.5 1.9 3.3c0 0 .1.1 0 .3l-.4.7s-.1.1 0 .3c2.8 3.2 6.8 5.2 11.3 5.2 4.6 0 8.7-2.1 11.4-5.3v-.2l-.4-.7c-.1-.2 0-.3 0-.3 1.4-1.9 1.9-3.3 1.9-3.3s.1-.2.3-.1h.7s.1 0 .2-.1c.6-1.6.9-3.3.9-5.2.2-7.3-5-13.4-12-14.7zm-2.8 27.3c-6.8 0-12.4-5.6-12.4-12.5s5.5-12.5 12.4-12.5 12.4 5.6 12.4 12.5-5.6 12.5-12.4 12.5z"/><path id="Shape_80_" class="st6" d="M823.8 295.5c2.7-3.9 8.8-4.3 13.5-.8.6.5 1.2.9 1.7 1.5-.8-1.8-2.1-3.5-3.9-4.9-4.7-3.4-10.8-2.9-13.6 1.2-2.8 4-1.4 10 3.1 13.5-2.4-3.4-2.9-7.5-.8-10.5z"/><path id="Shape_81_" class="st6" d="M835.8 299.8c1.8 4.5-1.1 10.1-6.3 12.4-.7.3-1.4.5-2 .7 1.9.3 3.9 0 5.9-.9 5.2-2.3 7.9-8 6-12.7-1.8-4.6-7.3-6.6-12.4-4.5 3.9-.3 7.5 1.6 8.8 5z"/><path id="Shape_82_" class="st6" d="M826.2 307.4c-4.7-.7-7.9-6.1-7.1-12.1.1-.8.3-1.5.5-2.2-1.2 1.6-2.1 3.6-2.4 5.9-.8 5.9 2.6 11.3 7.5 12 4.9.7 9.4-3.4 10.4-9.2-1.9 3.7-5.4 6.1-8.9 5.6z"/><circle id="Oval_13_" class="st6" cx="828.5" cy="300.5" r="1.5"/></g></g><text transform="translate(871 312)" class="st0 st7 st8">winner MATCH 9</text></g><g id="winner_x5F_match9" transform="translate(145 150)"><path id="Rectangle-12_28_" class="st0" d="M1098 288h36c3.9 0 7 3.1 7 7v23c0 3.9-3.1 7-7 7h-36c-3.9 0-7-3.1-7-7v-23c0-3.9 3.1-7 7-7z"/><path id="Rectangle-12_29_" class="st1" d="M819 286h282c2.8 0 5 2.2 5 5v30c0 2.8-2.2 5-5 5H819c-2.8 0-5-2.2-5-5v-30c0-2.8 2.2-5 5-5z"/><g id="KbpKVuJz0mH3fe4sCG80Q_14_"><g id="Mask_14_"><path id="path-29_1_" class="st2" d="M819 286h35v40h-35c-2.8 0-5-2.2-5-5v-30c0-2.8 2.2-5 5-5z"/></g><defs><filter id="Adobe_OpacityMaskFilter_19_" filterUnits="userSpaceOnUse" x="819" y="291" width="30" height="30"><feColorMatrix values="1 0 0 0 0 0 1 0 0 0 0 0 1 0 0 0 0 0 1 0"/></filter></defs><mask maskUnits="userSpaceOnUse" x="819" y="291" width="30" height="30" id="mask-30_1_"><g class="st51"><path id="path-29_2_" class="st4" d="M819 286h35v40h-35c-2.8 0-5-2.2-5-5v-30c0-2.8 2.2-5 5-5z"/></g></mask><g transform="translate(5 5)" id="blackshot_14_" class="st52"><path id="Shape_87_" class="st6" d="M831.8 286.1c-.1 0-.2.1-.2.1l-.4.7c-.1.2-.2.1-.2.1-2.3-.3-3.8-.1-3.8-.1s-.2 0-.3-.2l-.4-.6s0-.1-.2-.1c-7.1 1.2-12.4 7.4-12.4 14.9 0 1.8.3 3.5.9 5.1.1.1.2.1.2.1h.7c.2 0 .3.1.3.1s.6 1.5 1.9 3.3c0 0 .1.1 0 .3l-.4.7s-.1.1 0 .3c2.8 3.2 6.8 5.2 11.3 5.2 4.6 0 8.7-2.1 11.4-5.3v-.2l-.4-.7c-.1-.2 0-.3 0-.3 1.4-1.9 1.9-3.3 1.9-3.3s.1-.2.3-.1h.7s.1 0 .2-.1c.6-1.6.9-3.3.9-5.2.2-7.3-5-13.4-12-14.7zm-2.8 27.3c-6.8 0-12.4-5.6-12.4-12.5s5.5-12.5 12.4-12.5 12.4 5.6 12.4 12.5-5.6 12.5-12.4 12.5z"/><path id="Shape_88_" class="st6" d="M823.8 295.5c2.7-3.9 8.8-4.3 13.5-.8.6.5 1.2.9 1.7 1.5-.8-1.8-2.1-3.5-3.9-4.9-4.7-3.4-10.8-2.9-13.6 1.2-2.8 4-1.4 10 3.1 13.5-2.4-3.4-2.9-7.5-.8-10.5z"/><path id="Shape_89_" class="st6" d="M835.8 299.8c1.8 4.5-1.1 10.1-6.3 12.4-.7.3-1.4.5-2 .7 1.9.3 3.9 0 5.9-.9 5.2-2.3 7.9-8 6-12.7-1.8-4.6-7.3-6.6-12.4-4.5 3.9-.3 7.5 1.6 8.8 5z"/><path id="Shape_90_" class="st6" d="M826.2 307.4c-4.7-.7-7.9-6.1-7.1-12.1.1-.8.3-1.5.5-2.2-1.2 1.6-2.1 3.6-2.4 5.9-.8 5.9 2.6 11.3 7.5 12 4.9.7 9.4-3.4 10.4-9.2-1.9 3.7-5.4 6.1-8.9 5.6z"/><circle id="Oval_15_" class="st6" cx="828.5" cy="300.5" r="1.5"/></g></g><text transform="translate(871 312)" class="st0 st7 st8">winner MATCH 10</text></g><text transform="translate(1030 368)" class="st0 st23 st24">MATCH 13 - Saturday 02/12/17 19:00 CET</text></g><g id="side_a_week3"><g id="winner_x5F_match4" transform="translate(477 124)"><path id="Rectangle-12_18_" class="st0" d="M284 456h36c3.9 0 7 3.1 7 7v23c0 3.9-3.1 7-7 7h-36c-3.9 0-7-3.1-7-7v-23c0-3.9 3.1-7 7-7z"/><path id="Rectangle-12_19_" class="st1" d="M5 454h282c2.8 0 5 2.2 5 5v30c0 2.8-2.2 5-5 5H5c-2.8 0-5-2.2-5-5v-30c0-2.8 2.2-5 5-5z"/><g id="KbpKVuJz0mH3fe4sCG80Q_9_"><g id="Mask_9_"><path id="path-19_1_" class="st2" d="M5 454h35v40H5c-2.8 0-5-2.2-5-5v-30c0-2.8 2.2-5 5-5z"/></g><defs><filter id="Adobe_OpacityMaskFilter_20_" filterUnits="userSpaceOnUse" x="5" y="459" width="30" height="30"><feColorMatrix values="1 0 0 0 0 0 1 0 0 0 0 0 1 0 0 0 0 0 1 0"/></filter></defs><mask maskUnits="userSpaceOnUse" x="5" y="459" width="30" height="30" id="mask-20_1_"><g class="st53"><path id="path-19_2_" class="st4" d="M5 454h35v40H5c-2.8 0-5-2.2-5-5v-30c0-2.8 2.2-5 5-5z"/></g></mask><g transform="translate(5 5)" id="blackshot_9_" class="st54"><path id="Shape_67_" class="st6" d="M17.8 454.1c-.1 0-.2.1-.2.1l-.4.7c0 .1-.2.1-.2.1-2.3-.3-3.8-.1-3.8-.1s-.2 0-.3-.2l-.4-.6s0-.1-.2-.1C5.4 455.2 0 461.4 0 468.9c0 1.8.3 3.5.9 5.1.1.1.2.1.2.1h.7c.2 0 .3.1.3.1s.6 1.5 1.9 3.3c0 0 .1.1 0 .3l-.4.7s-.1.1 0 .3C6.4 482 10.5 484 15 484c4.6 0 8.7-2.1 11.4-5.3v-.2l-.4-.7c-.1-.2 0-.3 0-.3 1.4-1.9 1.9-3.3 1.9-3.3s.1-.2.3-.1h.7s.1 0 .2-.1c.6-1.6.9-3.3.9-5.2 0-7.3-5.2-13.4-12.2-14.7zM15 481.4c-6.8 0-12.4-5.6-12.4-12.5s5.5-12.5 12.4-12.5 12.4 5.6 12.4 12.5-5.6 12.5-12.4 12.5z"/><path id="Shape_68_" class="st6" d="M9.8 463.5c2.7-3.9 8.8-4.3 13.5-.8.6.5 1.2.9 1.7 1.5-.8-1.8-2.1-3.5-3.9-4.9-4.7-3.4-10.8-2.9-13.6 1.2-2.8 4-1.4 10 3.1 13.5-2.4-3.4-2.9-7.5-.8-10.5z"/><path id="Shape_69_" class="st6" d="M21.8 467.8c1.8 4.5-1.1 10.1-6.3 12.4-.7.3-1.4.5-2 .7 1.9.3 3.9 0 5.9-.9 5.2-2.3 7.9-8 6-12.7-1.8-4.6-7.3-6.6-12.4-4.5 3.9-.3 7.5 1.6 8.8 5z"/><path id="Shape_70_" class="st6" d="M12.2 475.4c-4.7-.7-7.9-6.1-7.1-12.1.1-.8.3-1.5.5-2.2-1.2 1.6-2.1 3.6-2.4 5.9-.8 5.9 2.6 11.3 7.5 12 4.9.7 9.4-3.4 10.4-9.2-1.9 3.7-5.4 6.1-8.9 5.6z"/><circle id="Oval_10_" class="st6" cx="14.5" cy="468.5" r="1.5"/></g></g><text transform="translate(57 480)" class="st0 st7 st8">winner Match 4</text></g><g id="winner_x5F_match3" transform="translate(477 70)"><path id="Rectangle-12_16_" class="st0" d="M284 456h36c3.9 0 7 3.1 7 7v23c0 3.9-3.1 7-7 7h-36c-3.9 0-7-3.1-7-7v-23c0-3.9 3.1-7 7-7z"/><path id="Rectangle-12_17_" class="st1" d="M5 454h282c2.8 0 5 2.2 5 5v30c0 2.8-2.2 5-5 5H5c-2.8 0-5-2.2-5-5v-30c0-2.8 2.2-5 5-5z"/><g id="KbpKVuJz0mH3fe4sCG80Q_8_"><g id="Mask_8_"><path id="path-17_1_" class="st2" d="M5 454h35v40H5c-2.8 0-5-2.2-5-5v-30c0-2.8 2.2-5 5-5z"/></g><defs><filter id="Adobe_OpacityMaskFilter_21_" filterUnits="userSpaceOnUse" x="5" y="459" width="30" height="30"><feColorMatrix values="1 0 0 0 0 0 1 0 0 0 0 0 1 0 0 0 0 0 1 0"/></filter></defs><mask maskUnits="userSpaceOnUse" x="5" y="459" width="30" height="30" id="mask-18_1_"><g class="st55"><path id="path-17_2_" class="st4" d="M5 454h35v40H5c-2.8 0-5-2.2-5-5v-30c0-2.8 2.2-5 5-5z"/></g></mask><g transform="translate(5 5)" id="blackshot_8_" class="st56"><path id="Shape_63_" class="st6" d="M17.8 454.1c-.1 0-.2.1-.2.1l-.4.7c0 .1-.2.1-.2.1-2.3-.3-3.8-.1-3.8-.1s-.2 0-.3-.2l-.4-.6s0-.1-.2-.1C5.4 455.2 0 461.4 0 468.9c0 1.8.3 3.5.9 5.1.1.1.2.1.2.1h.7c.2 0 .3.1.3.1s.6 1.5 1.9 3.3c0 0 .1.1 0 .3l-.4.7s-.1.1 0 .3C6.4 482 10.5 484 15 484c4.6 0 8.7-2.1 11.4-5.3v-.2l-.4-.7c-.1-.2 0-.3 0-.3 1.4-1.9 1.9-3.3 1.9-3.3s.1-.2.3-.1h.7s.1 0 .2-.1c.6-1.6.9-3.3.9-5.2 0-7.3-5.2-13.4-12.2-14.7zM15 481.4c-6.8 0-12.4-5.6-12.4-12.5s5.5-12.5 12.4-12.5 12.4 5.6 12.4 12.5-5.6 12.5-12.4 12.5z"/><path id="Shape_64_" class="st6" d="M9.8 463.5c2.7-3.9 8.8-4.3 13.5-.8.6.5 1.2.9 1.7 1.5-.8-1.8-2.1-3.5-3.9-4.9-4.7-3.4-10.8-2.9-13.6 1.2-2.8 4-1.4 10 3.1 13.5-2.4-3.4-2.9-7.5-.8-10.5z"/><path id="Shape_65_" class="st6" d="M21.8 467.8c1.8 4.5-1.1 10.1-6.3 12.4-.7.3-1.4.5-2 .7 1.9.3 3.9 0 5.9-.9 5.2-2.3 7.9-8 6-12.7-1.8-4.6-7.3-6.6-12.4-4.5 3.9-.3 7.5 1.6 8.8 5z"/><path id="Shape_66_" class="st6" d="M12.2 475.4c-4.7-.7-7.9-6.1-7.1-12.1.1-.8.3-1.5.5-2.2-1.2 1.6-2.1 3.6-2.4 5.9-.8 5.9 2.6 11.3 7.5 12 4.9.7 9.4-3.4 10.4-9.2-1.9 3.7-5.4 6.1-8.9 5.6z"/><circle id="Oval_9_" class="st6" cx="14.5" cy="468.5" r="1.5"/></g></g><text transform="translate(57 480)" class="st0 st7 st8">winner Match 3</text></g><g id="winner_x5F_match2" transform="translate(477 124)"><path id="Rectangle-12_6_" class="st0" d="M284 173h36c3.9 0 7 3.1 7 7v23c0 3.9-3.1 7-7 7h-36c-3.9 0-7-3.1-7-7v-23c0-3.9 3.1-7 7-7z"/><path id="Rectangle-12_7_" class="st1" d="M5 171h282c2.8 0 5 2.2 5 5v30c0 2.8-2.2 5-5 5H5c-2.8 0-5-2.2-5-5v-30c0-2.8 2.2-5 5-5z"/><g id="KbpKVuJz0mH3fe4sCG80Q_3_"><g id="Mask_3_"><path id="path-7_1_" class="st2" d="M5 171h35v40H5c-2.8 0-5-2.2-5-5v-30c0-2.8 2.2-5 5-5z"/></g><defs><filter id="Adobe_OpacityMaskFilter_22_" filterUnits="userSpaceOnUse" x="5" y="176" width="30" height="30"><feColorMatrix values="1 0 0 0 0 0 1 0 0 0 0 0 1 0 0 0 0 0 1 0"/></filter></defs><mask maskUnits="userSpaceOnUse" x="5" y="176" width="30" height="30" id="mask-8_1_"><g class="st57"><path id="path-7_2_" class="st4" d="M5 171h35v40H5c-2.8 0-5-2.2-5-5v-30c0-2.8 2.2-5 5-5z"/></g></mask><g transform="translate(5 5)" id="blackshot_3_" class="st58"><path id="Shape_43_" class="st6" d="M17.8 171.1c-.1 0-.2.1-.2.1l-.4.7c0 .1-.2.1-.2.1-2.3-.3-3.8-.1-3.8-.1s-.2 0-.3-.2l-.4-.6s0-.1-.2-.1C5.4 172.2 0 178.4 0 185.9c0 1.8.3 3.5.9 5.1.1.1.2.1.2.1h.7c.2 0 .3.1.3.1s.6 1.5 1.9 3.3c0 0 .1.1 0 .3l-.4.7s-.1.1 0 .3C6.4 199 10.5 201 15 201c4.6 0 8.7-2.1 11.4-5.3v-.2l-.4-.7c-.1-.2 0-.3 0-.3 1.4-1.9 1.9-3.3 1.9-3.3s.1-.2.3-.1h.7s.1 0 .2-.1c.6-1.6.9-3.3.9-5.2 0-7.3-5.2-13.4-12.2-14.7zM15 198.4c-6.8 0-12.4-5.6-12.4-12.5s5.5-12.5 12.4-12.5 12.4 5.6 12.4 12.5-5.6 12.5-12.4 12.5z"/><path id="Shape_44_" class="st6" d="M9.8 180.5c2.7-3.9 8.8-4.3 13.5-.8.6.5 1.2.9 1.7 1.5-.8-1.8-2.1-3.5-3.9-4.9-4.7-3.4-10.8-2.9-13.6 1.2-2.8 4-1.4 10 3.1 13.5-2.4-3.4-2.9-7.5-.8-10.5z"/><path id="Shape_45_" class="st6" d="M21.8 184.8c1.8 4.5-1.1 10.1-6.3 12.4-.7.3-1.4.5-2 .7 1.9.3 3.9 0 5.9-.9 5.2-2.3 7.9-8 6-12.7-1.8-4.6-7.3-6.6-12.4-4.5 3.9-.3 7.5 1.6 8.8 5z"/><path id="Shape_46_" class="st6" d="M12.2 192.4c-4.7-.7-7.9-6.1-7.1-12.1.1-.8.3-1.5.5-2.2-1.2 1.6-2.1 3.6-2.4 5.9-.8 5.9 2.6 11.3 7.5 12 4.9.7 9.4-3.4 10.4-9.2-1.9 3.7-5.4 6.1-8.9 5.6z"/><circle id="Oval_4_" class="st6" cx="14.5" cy="185.5" r="1.5"/></g></g><text transform="translate(57 197)" class="st0 st7 st8">winner Match 2</text></g><g id="winner_x5F_match1" transform="translate(477 70)"><path id="Rectangle-12_4_" class="st0" d="M284 173h36c3.9 0 7 3.1 7 7v23c0 3.9-3.1 7-7 7h-36c-3.9 0-7-3.1-7-7v-23c0-3.9 3.1-7 7-7z"/><path id="Rectangle-12_5_" class="st1" d="M5 171h282c2.8 0 5 2.2 5 5v30c0 2.8-2.2 5-5 5H5c-2.8 0-5-2.2-5-5v-30c0-2.8 2.2-5 5-5z"/><g id="KbpKVuJz0mH3fe4sCG80Q_2_"><g id="Mask_2_"><path id="path-5_1_" class="st2" d="M5 171h35v40H5c-2.8 0-5-2.2-5-5v-30c0-2.8 2.2-5 5-5z"/></g><defs><filter id="Adobe_OpacityMaskFilter_23_" filterUnits="userSpaceOnUse" x="5" y="176" width="30" height="30"><feColorMatrix values="1 0 0 0 0 0 1 0 0 0 0 0 1 0 0 0 0 0 1 0"/></filter></defs><mask maskUnits="userSpaceOnUse" x="5" y="176" width="30" height="30" id="mask-6_1_"><g class="st59"><path id="path-5_2_" class="st4" d="M5 171h35v40H5c-2.8 0-5-2.2-5-5v-30c0-2.8 2.2-5 5-5z"/></g></mask><g transform="translate(5 5)" id="blackshot_2_" class="st60"><path id="Shape_39_" class="st6" d="M17.8 171.1c-.1 0-.2.1-.2.1l-.4.7c0 .1-.2.1-.2.1-2.3-.3-3.8-.1-3.8-.1s-.2 0-.3-.2l-.4-.6s0-.1-.2-.1C5.4 172.2 0 178.4 0 185.9c0 1.8.3 3.5.9 5.1.1.1.2.1.2.1h.7c.2 0 .3.1.3.1s.6 1.5 1.9 3.3c0 0 .1.1 0 .3l-.4.7s-.1.1 0 .3C6.4 199 10.5 201 15 201c4.6 0 8.7-2.1 11.4-5.3v-.2l-.4-.7c-.1-.2 0-.3 0-.3 1.4-1.9 1.9-3.3 1.9-3.3s.1-.2.3-.1h.7s.1 0 .2-.1c.6-1.6.9-3.3.9-5.2 0-7.3-5.2-13.4-12.2-14.7zM15 198.4c-6.8 0-12.4-5.6-12.4-12.5s5.5-12.5 12.4-12.5 12.4 5.6 12.4 12.5-5.6 12.5-12.4 12.5z"/><path id="Shape_40_" class="st6" d="M9.8 180.5c2.7-3.9 8.8-4.3 13.5-.8.6.5 1.2.9 1.7 1.5-.8-1.8-2.1-3.5-3.9-4.9-4.7-3.4-10.8-2.9-13.6 1.2-2.8 4-1.4 10 3.1 13.5-2.4-3.4-2.9-7.5-.8-10.5z"/><path id="Shape_41_" class="st6" d="M21.8 184.8c1.8 4.5-1.1 10.1-6.3 12.4-.7.3-1.4.5-2 .7 1.9.3 3.9 0 5.9-.9 5.2-2.3 7.9-8 6-12.7-1.8-4.6-7.3-6.6-12.4-4.5 3.9-.3 7.5 1.6 8.8 5z"/><path id="Shape_42_" class="st6" d="M12.2 192.4c-4.7-.7-7.9-6.1-7.1-12.1.1-.8.3-1.5.5-2.2-1.2 1.6-2.1 3.6-2.4 5.9-.8 5.9 2.6 11.3 7.5 12 4.9.7 9.4-3.4 10.4-9.2-1.9 3.7-5.4 6.1-8.9 5.6z"/><circle id="Oval_3_" class="st6" cx="14.5" cy="185.5" r="1.5"/></g></g><text transform="translate(57 197)" class="st0 st7 st8">Winner Match 1</text></g><g id="lines_1_"><path id="Rectangle-16_8_" class="st0" d="M814 286h110v2H814z"/><path id="Rectangle-16_9_" class="st0" d="M924 429h25v2h-25z"/><path id="Rectangle-16_10_" class="st0" d="M814 571h110v2H814z"/><path id="Rectangle-16_11_" class="st0" d="M922 286h2v287h-2z"/></g><g id="dates_1_"><text transform="translate(547 229)" class="st0 st23 st24">MATCH 9 - Saturday 02/12/17 19:00 CET</text><text transform="translate(547 511)" class="st0 st23 st24">MATCH 10 - Saturday 02/12/17 20:00 CET</text></g></g><g id="side_a_week1"><g id="clan1"><path id="Rectangle-12" class="st0" d="M284 173h36c3.9 0 7 3.1 7 7v23c0 3.9-3.1 7-7 7h-36c-3.9 0-7-3.1-7-7v-23c0-3.9 3.1-7 7-7z"/><path id="Rectangle-12_1_" class="st1" d="M5 171h282c2.8 0 5 2.2 5 5v30c0 2.8-2.2 5-5 5H5c-2.8 0-5-2.2-5-5v-30c0-2.8 2.2-5 5-5z"/><g id="icon"><g id="Mask"><path id="path-1_1_" class="st2" d="M5 171h35v40H5c-2.8 0-5-2.2-5-5v-30c0-2.8 2.2-5 5-5z"/></g><defs><filter id="Adobe_OpacityMaskFilter_24_" filterUnits="userSpaceOnUse" x="5" y="176" width="30" height="30"><feColorMatrix values="1 0 0 0 0 0 1 0 0 0 0 0 1 0 0 0 0 0 1 0"/></filter></defs><mask maskUnits="userSpaceOnUse" x="5" y="176" width="30" height="30" id="mask-2_1_"><g class="st61"><path id="path-1_2_" class="st4" d="M5 171h35v40H5c-2.8 0-5-2.2-5-5v-30c0-2.8 2.2-5 5-5z"/></g></mask><g transform="translate(5 5)" id="blackshot" class="st62"><path id="Shape_31_" class="st6" d="M17.8 171.1c-.1 0-.2.1-.2.1l-.4.7c0 .1-.2.1-.2.1-2.3-.3-3.8-.1-3.8-.1s-.2 0-.3-.2l-.4-.6s0-.1-.2-.1C5.4 172.2 0 178.4 0 185.9c0 1.8.3 3.5.9 5.1.1.1.2.1.2.1h.7c.2 0 .3.1.3.1s.6 1.5 1.9 3.3c0 0 .1.1 0 .3l-.4.7s-.1.1 0 .3C6.4 199 10.5 201 15 201c4.6 0 8.7-2.1 11.4-5.3v-.2l-.4-.7c-.1-.2 0-.3 0-.3 1.4-1.9 1.9-3.3 1.9-3.3s.1-.2.3-.1h.7s.1 0 .2-.1c.6-1.6.9-3.3.9-5.2 0-7.3-5.2-13.4-12.2-14.7zM15 198.4c-6.8 0-12.4-5.6-12.4-12.5s5.5-12.5 12.4-12.5 12.4 5.6 12.4 12.5-5.6 12.5-12.4 12.5z"/><path id="Shape_32_" class="st6" d="M9.8 180.5c2.7-3.9 8.8-4.3 13.5-.8.6.5 1.2.9 1.7 1.5-.8-1.8-2.1-3.5-3.9-4.9-4.7-3.4-10.8-2.9-13.6 1.2-2.8 4-1.4 10 3.1 13.5-2.4-3.4-2.9-7.5-.8-10.5z"/><path id="Shape_33_" class="st6" d="M21.8 184.8c1.8 4.5-1.1 10.1-6.3 12.4-.7.3-1.4.5-2 .7 1.9.3 3.9 0 5.9-.9 5.2-2.3 7.9-8 6-12.7-1.8-4.6-7.3-6.6-12.4-4.5 3.9-.3 7.5 1.6 8.8 5z"/><path id="Shape_34_" class="st6" d="M12.2 192.4c-4.7-.7-7.9-6.1-7.1-12.1.1-.8.3-1.5.5-2.2-1.2 1.6-2.1 3.6-2.4 5.9-.8 5.9 2.6 11.3 7.5 12 4.9.7 9.4-3.4 10.4-9.2-1.9 3.7-5.4 6.1-8.9 5.6z"/><circle id="Oval_1_" class="st6" cx="14.5" cy="185.5" r="1.5"/></g></g><text transform="translate(57 197)" class="st0 st7 st8">CLAN 1</text></g><g id="clan2" transform="translate(0 54)"><path id="Rectangle-12_2_" class="st0" d="M284 173h36c3.9 0 7 3.1 7 7v23c0 3.9-3.1 7-7 7h-36c-3.9 0-7-3.1-7-7v-23c0-3.9 3.1-7 7-7z"/><path id="Rectangle-12_3_" class="st1" d="M5 171h282c2.8 0 5 2.2 5 5v30c0 2.8-2.2 5-5 5H5c-2.8 0-5-2.2-5-5v-30c0-2.8 2.2-5 5-5z"/><g id="KbpKVuJz0mH3fe4sCG80Q_1_"><g id="Mask_1_"><path id="path-3_1_" class="st2" d="M5 171h35v40H5c-2.8 0-5-2.2-5-5v-30c0-2.8 2.2-5 5-5z"/></g><defs><filter id="Adobe_OpacityMaskFilter_25_" filterUnits="userSpaceOnUse" x="5" y="176" width="30" height="30"><feColorMatrix values="1 0 0 0 0 0 1 0 0 0 0 0 1 0 0 0 0 0 1 0"/></filter></defs><mask maskUnits="userSpaceOnUse" x="5" y="176" width="30" height="30" id="mask-4_1_"><g class="st63"><path id="path-3_2_" class="st4" d="M5 171h35v40H5c-2.8 0-5-2.2-5-5v-30c0-2.8 2.2-5 5-5z"/></g></mask><g transform="translate(5 5)" id="blackshot_1_" class="st64"><path id="Shape_35_" class="st6" d="M17.8 171.1c-.1 0-.2.1-.2.1l-.4.7c0 .1-.2.1-.2.1-2.3-.3-3.8-.1-3.8-.1s-.2 0-.3-.2l-.4-.6s0-.1-.2-.1C5.4 172.2 0 178.4 0 185.9c0 1.8.3 3.5.9 5.1.1.1.2.1.2.1h.7c.2 0 .3.1.3.1s.6 1.5 1.9 3.3c0 0 .1.1 0 .3l-.4.7s-.1.1 0 .3C6.4 199 10.5 201 15 201c4.6 0 8.7-2.1 11.4-5.3v-.2l-.4-.7c-.1-.2 0-.3 0-.3 1.4-1.9 1.9-3.3 1.9-3.3s.1-.2.3-.1h.7s.1 0 .2-.1c.6-1.6.9-3.3.9-5.2 0-7.3-5.2-13.4-12.2-14.7zM15 198.4c-6.8 0-12.4-5.6-12.4-12.5s5.5-12.5 12.4-12.5 12.4 5.6 12.4 12.5-5.6 12.5-12.4 12.5z"/><path id="Shape_36_" class="st6" d="M9.8 180.5c2.7-3.9 8.8-4.3 13.5-.8.6.5 1.2.9 1.7 1.5-.8-1.8-2.1-3.5-3.9-4.9-4.7-3.4-10.8-2.9-13.6 1.2-2.8 4-1.4 10 3.1 13.5-2.4-3.4-2.9-7.5-.8-10.5z"/><path id="Shape_37_" class="st6" d="M21.8 184.8c1.8 4.5-1.1 10.1-6.3 12.4-.7.3-1.4.5-2 .7 1.9.3 3.9 0 5.9-.9 5.2-2.3 7.9-8 6-12.7-1.8-4.6-7.3-6.6-12.4-4.5 3.9-.3 7.5 1.6 8.8 5z"/><path id="Shape_38_" class="st6" d="M12.2 192.4c-4.7-.7-7.9-6.1-7.1-12.1.1-.8.3-1.5.5-2.2-1.2 1.6-2.1 3.6-2.4 5.9-.8 5.9 2.6 11.3 7.5 12 4.9.7 9.4-3.4 10.4-9.2-1.9 3.7-5.4 6.1-8.9 5.6z"/><circle id="Oval_2_" class="st6" cx="14.5" cy="185.5" r="1.5"/></g></g><text transform="translate(57 197)" class="st0 st7 st8">CLAN 2</text></g><g id="clan3" transform="translate(0 140)"><path id="Rectangle-12_8_" class="st0" d="M284 173h36c3.9 0 7 3.1 7 7v23c0 3.9-3.1 7-7 7h-36c-3.9 0-7-3.1-7-7v-23c0-3.9 3.1-7 7-7z"/><path id="Rectangle-12_9_" class="st1" d="M5 171h282c2.8 0 5 2.2 5 5v30c0 2.8-2.2 5-5 5H5c-2.8 0-5-2.2-5-5v-30c0-2.8 2.2-5 5-5z"/><g id="KbpKVuJz0mH3fe4sCG80Q_4_"><g id="Mask_4_"><path id="path-9_1_" class="st2" d="M5 171h35v40H5c-2.8 0-5-2.2-5-5v-30c0-2.8 2.2-5 5-5z"/></g><defs><filter id="Adobe_OpacityMaskFilter_26_" filterUnits="userSpaceOnUse" x="5" y="176" width="30" height="30"><feColorMatrix values="1 0 0 0 0 0 1 0 0 0 0 0 1 0 0 0 0 0 1 0"/></filter></defs><mask maskUnits="userSpaceOnUse" x="5" y="176" width="30" height="30" id="mask-10_1_"><g class="st65"><path id="path-9_2_" class="st4" d="M5 171h35v40H5c-2.8 0-5-2.2-5-5v-30c0-2.8 2.2-5 5-5z"/></g></mask><g transform="translate(5 5)" id="blackshot_4_" class="st66"><path id="Shape_47_" class="st6" d="M17.8 171.1c-.1 0-.2.1-.2.1l-.4.7c0 .1-.2.1-.2.1-2.3-.3-3.8-.1-3.8-.1s-.2 0-.3-.2l-.4-.6s0-.1-.2-.1C5.4 172.2 0 178.4 0 185.9c0 1.8.3 3.5.9 5.1.1.1.2.1.2.1h.7c.2 0 .3.1.3.1s.6 1.5 1.9 3.3c0 0 .1.1 0 .3l-.4.7s-.1.1 0 .3C6.4 199 10.5 201 15 201c4.6 0 8.7-2.1 11.4-5.3v-.2l-.4-.7c-.1-.2 0-.3 0-.3 1.4-1.9 1.9-3.3 1.9-3.3s.1-.2.3-.1h.7s.1 0 .2-.1c.6-1.6.9-3.3.9-5.2 0-7.3-5.2-13.4-12.2-14.7zM15 198.4c-6.8 0-12.4-5.6-12.4-12.5s5.5-12.5 12.4-12.5 12.4 5.6 12.4 12.5-5.6 12.5-12.4 12.5z"/><path id="Shape_48_" class="st6" d="M9.8 180.5c2.7-3.9 8.8-4.3 13.5-.8.6.5 1.2.9 1.7 1.5-.8-1.8-2.1-3.5-3.9-4.9-4.7-3.4-10.8-2.9-13.6 1.2-2.8 4-1.4 10 3.1 13.5-2.4-3.4-2.9-7.5-.8-10.5z"/><path id="Shape_49_" class="st6" d="M21.8 184.8c1.8 4.5-1.1 10.1-6.3 12.4-.7.3-1.4.5-2 .7 1.9.3 3.9 0 5.9-.9 5.2-2.3 7.9-8 6-12.7-1.8-4.6-7.3-6.6-12.4-4.5 3.9-.3 7.5 1.6 8.8 5z"/><path id="Shape_50_" class="st6" d="M12.2 192.4c-4.7-.7-7.9-6.1-7.1-12.1.1-.8.3-1.5.5-2.2-1.2 1.6-2.1 3.6-2.4 5.9-.8 5.9 2.6 11.3 7.5 12 4.9.7 9.4-3.4 10.4-9.2-1.9 3.7-5.4 6.1-8.9 5.6z"/><circle id="Oval_5_" class="st6" cx="14.5" cy="185.5" r="1.5"/></g></g><text transform="translate(57 197)" class="st0 st7 st8">CLAN 3</text></g><g id="clan4" transform="translate(0 194)"><path id="Rectangle-12_10_" class="st0" d="M284 173h36c3.9 0 7 3.1 7 7v23c0 3.9-3.1 7-7 7h-36c-3.9 0-7-3.1-7-7v-23c0-3.9 3.1-7 7-7z"/><path id="Rectangle-12_11_" class="st1" d="M5 171h282c2.8 0 5 2.2 5 5v30c0 2.8-2.2 5-5 5H5c-2.8 0-5-2.2-5-5v-30c0-2.8 2.2-5 5-5z"/><g id="KbpKVuJz0mH3fe4sCG80Q_5_"><g id="Mask_5_"><path id="path-11_1_" class="st2" d="M5 171h35v40H5c-2.8 0-5-2.2-5-5v-30c0-2.8 2.2-5 5-5z"/></g><defs><filter id="Adobe_OpacityMaskFilter_27_" filterUnits="userSpaceOnUse" x="5" y="176" width="30" height="30"><feColorMatrix values="1 0 0 0 0 0 1 0 0 0 0 0 1 0 0 0 0 0 1 0"/></filter></defs><mask maskUnits="userSpaceOnUse" x="5" y="176" width="30" height="30" id="mask-12_1_"><g class="st67"><path id="path-11_2_" class="st4" d="M5 171h35v40H5c-2.8 0-5-2.2-5-5v-30c0-2.8 2.2-5 5-5z"/></g></mask><g transform="translate(5 5)" id="blackshot_5_" class="st68"><path id="Shape_51_" class="st6" d="M17.8 171.1c-.1 0-.2.1-.2.1l-.4.7c0 .1-.2.1-.2.1-2.3-.3-3.8-.1-3.8-.1s-.2 0-.3-.2l-.4-.6s0-.1-.2-.1C5.4 172.2 0 178.4 0 185.9c0 1.8.3 3.5.9 5.1.1.1.2.1.2.1h.7c.2 0 .3.1.3.1s.6 1.5 1.9 3.3c0 0 .1.1 0 .3l-.4.7s-.1.1 0 .3C6.4 199 10.5 201 15 201c4.6 0 8.7-2.1 11.4-5.3v-.2l-.4-.7c-.1-.2 0-.3 0-.3 1.4-1.9 1.9-3.3 1.9-3.3s.1-.2.3-.1h.7s.1 0 .2-.1c.6-1.6.9-3.3.9-5.2 0-7.3-5.2-13.4-12.2-14.7zM15 198.4c-6.8 0-12.4-5.6-12.4-12.5s5.5-12.5 12.4-12.5 12.4 5.6 12.4 12.5-5.6 12.5-12.4 12.5z"/><path id="Shape_52_" class="st6" d="M9.8 180.5c2.7-3.9 8.8-4.3 13.5-.8.6.5 1.2.9 1.7 1.5-.8-1.8-2.1-3.5-3.9-4.9-4.7-3.4-10.8-2.9-13.6 1.2-2.8 4-1.4 10 3.1 13.5-2.4-3.4-2.9-7.5-.8-10.5z"/><path id="Shape_53_" class="st6" d="M21.8 184.8c1.8 4.5-1.1 10.1-6.3 12.4-.7.3-1.4.5-2 .7 1.9.3 3.9 0 5.9-.9 5.2-2.3 7.9-8 6-12.7-1.8-4.6-7.3-6.6-12.4-4.5 3.9-.3 7.5 1.6 8.8 5z"/><path id="Shape_54_" class="st6" d="M12.2 192.4c-4.7-.7-7.9-6.1-7.1-12.1.1-.8.3-1.5.5-2.2-1.2 1.6-2.1 3.6-2.4 5.9-.8 5.9 2.6 11.3 7.5 12 4.9.7 9.4-3.4 10.4-9.2-1.9 3.7-5.4 6.1-8.9 5.6z"/><circle id="Oval_6_" class="st6" cx="14.5" cy="185.5" r="1.5"/></g></g><text transform="translate(57 197)" class="st0 st7 st8">CLAN 4</text></g><g id="clan5"><path id="Rectangle-12_12_" class="st0" d="M284 456h36c3.9 0 7 3.1 7 7v23c0 3.9-3.1 7-7 7h-36c-3.9 0-7-3.1-7-7v-23c0-3.9 3.1-7 7-7z"/><path id="Rectangle-12_13_" class="st1" d="M5 454h282c2.8 0 5 2.2 5 5v30c0 2.8-2.2 5-5 5H5c-2.8 0-5-2.2-5-5v-30c0-2.8 2.2-5 5-5z"/><g id="KbpKVuJz0mH3fe4sCG80Q_6_"><g id="Mask_6_"><path id="path-13_1_" class="st2" d="M5 454h35v40H5c-2.8 0-5-2.2-5-5v-30c0-2.8 2.2-5 5-5z"/></g><defs><filter id="Adobe_OpacityMaskFilter_28_" filterUnits="userSpaceOnUse" x="5" y="459" width="30" height="30"><feColorMatrix values="1 0 0 0 0 0 1 0 0 0 0 0 1 0 0 0 0 0 1 0"/></filter></defs><mask maskUnits="userSpaceOnUse" x="5" y="459" width="30" height="30" id="mask-14_1_"><g class="st69"><path id="path-13_2_" class="st4" d="M5 454h35v40H5c-2.8 0-5-2.2-5-5v-30c0-2.8 2.2-5 5-5z"/></g></mask><g transform="translate(5 5)" id="blackshot_6_" class="st70"><path id="Shape_55_" class="st6" d="M17.8 454.1c-.1 0-.2.1-.2.1l-.4.7c0 .1-.2.1-.2.1-2.3-.3-3.8-.1-3.8-.1s-.2 0-.3-.2l-.4-.6s0-.1-.2-.1C5.4 455.2 0 461.4 0 468.9c0 1.8.3 3.5.9 5.1.1.1.2.1.2.1h.7c.2 0 .3.1.3.1s.6 1.5 1.9 3.3c0 0 .1.1 0 .3l-.4.7s-.1.1 0 .3C6.4 482 10.5 484 15 484c4.6 0 8.7-2.1 11.4-5.3v-.2l-.4-.7c-.1-.2 0-.3 0-.3 1.4-1.9 1.9-3.3 1.9-3.3s.1-.2.3-.1h.7s.1 0 .2-.1c.6-1.6.9-3.3.9-5.2 0-7.3-5.2-13.4-12.2-14.7zM15 481.4c-6.8 0-12.4-5.6-12.4-12.5s5.5-12.5 12.4-12.5 12.4 5.6 12.4 12.5-5.6 12.5-12.4 12.5z"/><path id="Shape_56_" class="st6" d="M9.8 463.5c2.7-3.9 8.8-4.3 13.5-.8.6.5 1.2.9 1.7 1.5-.8-1.8-2.1-3.5-3.9-4.9-4.7-3.4-10.8-2.9-13.6 1.2-2.8 4-1.4 10 3.1 13.5-2.4-3.4-2.9-7.5-.8-10.5z"/><path id="Shape_57_" class="st6" d="M21.8 467.8c1.8 4.5-1.1 10.1-6.3 12.4-.7.3-1.4.5-2 .7 1.9.3 3.9 0 5.9-.9 5.2-2.3 7.9-8 6-12.7-1.8-4.6-7.3-6.6-12.4-4.5 3.9-.3 7.5 1.6 8.8 5z"/><path id="Shape_58_" class="st6" d="M12.2 475.4c-4.7-.7-7.9-6.1-7.1-12.1.1-.8.3-1.5.5-2.2-1.2 1.6-2.1 3.6-2.4 5.9-.8 5.9 2.6 11.3 7.5 12 4.9.7 9.4-3.4 10.4-9.2-1.9 3.7-5.4 6.1-8.9 5.6z"/><circle id="Oval_7_" class="st6" cx="14.5" cy="468.5" r="1.5"/></g></g><text transform="translate(57 480)" class="st0 st7 st8">CLAN 5</text></g><g id="clan6" transform="translate(0 54)"><path id="Rectangle-12_14_" class="st0" d="M284 456h36c3.9 0 7 3.1 7 7v23c0 3.9-3.1 7-7 7h-36c-3.9 0-7-3.1-7-7v-23c0-3.9 3.1-7 7-7z"/><path id="Rectangle-12_15_" class="st1" d="M5 454h282c2.8 0 5 2.2 5 5v30c0 2.8-2.2 5-5 5H5c-2.8 0-5-2.2-5-5v-30c0-2.8 2.2-5 5-5z"/><g id="KbpKVuJz0mH3fe4sCG80Q_7_"><g id="Mask_7_"><path id="path-15_1_" class="st2" d="M5 454h35v40H5c-2.8 0-5-2.2-5-5v-30c0-2.8 2.2-5 5-5z"/></g><defs><filter id="Adobe_OpacityMaskFilter_29_" filterUnits="userSpaceOnUse" x="5" y="459" width="30" height="30"><feColorMatrix values="1 0 0 0 0 0 1 0 0 0 0 0 1 0 0 0 0 0 1 0"/></filter></defs><mask maskUnits="userSpaceOnUse" x="5" y="459" width="30" height="30" id="mask-16_1_"><g class="st71"><path id="path-15_2_" class="st4" d="M5 454h35v40H5c-2.8 0-5-2.2-5-5v-30c0-2.8 2.2-5 5-5z"/></g></mask><g transform="translate(5 5)" id="blackshot_7_" class="st72"><path id="Shape_59_" class="st6" d="M17.8 454.1c-.1 0-.2.1-.2.1l-.4.7c0 .1-.2.1-.2.1-2.3-.3-3.8-.1-3.8-.1s-.2 0-.3-.2l-.4-.6s0-.1-.2-.1C5.4 455.2 0 461.4 0 468.9c0 1.8.3 3.5.9 5.1.1.1.2.1.2.1h.7c.2 0 .3.1.3.1s.6 1.5 1.9 3.3c0 0 .1.1 0 .3l-.4.7s-.1.1 0 .3C6.4 482 10.5 484 15 484c4.6 0 8.7-2.1 11.4-5.3v-.2l-.4-.7c-.1-.2 0-.3 0-.3 1.4-1.9 1.9-3.3 1.9-3.3s.1-.2.3-.1h.7s.1 0 .2-.1c.6-1.6.9-3.3.9-5.2 0-7.3-5.2-13.4-12.2-14.7zM15 481.4c-6.8 0-12.4-5.6-12.4-12.5s5.5-12.5 12.4-12.5 12.4 5.6 12.4 12.5-5.6 12.5-12.4 12.5z"/><path id="Shape_60_" class="st6" d="M9.8 463.5c2.7-3.9 8.8-4.3 13.5-.8.6.5 1.2.9 1.7 1.5-.8-1.8-2.1-3.5-3.9-4.9-4.7-3.4-10.8-2.9-13.6 1.2-2.8 4-1.4 10 3.1 13.5-2.4-3.4-2.9-7.5-.8-10.5z"/><path id="Shape_61_" class="st6" d="M21.8 467.8c1.8 4.5-1.1 10.1-6.3 12.4-.7.3-1.4.5-2 .7 1.9.3 3.9 0 5.9-.9 5.2-2.3 7.9-8 6-12.7-1.8-4.6-7.3-6.6-12.4-4.5 3.9-.3 7.5 1.6 8.8 5z"/><path id="Shape_62_" class="st6" d="M12.2 475.4c-4.7-.7-7.9-6.1-7.1-12.1.1-.8.3-1.5.5-2.2-1.2 1.6-2.1 3.6-2.4 5.9-.8 5.9 2.6 11.3 7.5 12 4.9.7 9.4-3.4 10.4-9.2-1.9 3.7-5.4 6.1-8.9 5.6z"/><circle id="Oval_8_" class="st6" cx="14.5" cy="468.5" r="1.5"/></g></g><text transform="translate(57 480)" class="st0 st7 st8">CLAN 6</text></g><g id="clan7" transform="translate(0 140)"><path id="Rectangle-12_20_" class="st0" d="M284 456h36c3.9 0 7 3.1 7 7v23c0 3.9-3.1 7-7 7h-36c-3.9 0-7-3.1-7-7v-23c0-3.9 3.1-7 7-7z"/><path id="Rectangle-12_21_" class="st1" d="M5 454h282c2.8 0 5 2.2 5 5v30c0 2.8-2.2 5-5 5H5c-2.8 0-5-2.2-5-5v-30c0-2.8 2.2-5 5-5z"/><g id="KbpKVuJz0mH3fe4sCG80Q_10_"><g id="Mask_10_"><path id="path-21_1_" class="st2" d="M5 454h35v40H5c-2.8 0-5-2.2-5-5v-30c0-2.8 2.2-5 5-5z"/></g><defs><filter id="Adobe_OpacityMaskFilter_30_" filterUnits="userSpaceOnUse" x="5" y="459" width="30" height="30"><feColorMatrix values="1 0 0 0 0 0 1 0 0 0 0 0 1 0 0 0 0 0 1 0"/></filter></defs><mask maskUnits="userSpaceOnUse" x="5" y="459" width="30" height="30" id="mask-22_1_"><g class="st73"><path id="path-21_2_" class="st4" d="M5 454h35v40H5c-2.8 0-5-2.2-5-5v-30c0-2.8 2.2-5 5-5z"/></g></mask><g transform="translate(5 5)" id="blackshot_10_" class="st74"><path id="Shape_71_" class="st6" d="M17.8 454.1c-.1 0-.2.1-.2.1l-.4.7c0 .1-.2.1-.2.1-2.3-.3-3.8-.1-3.8-.1s-.2 0-.3-.2l-.4-.6s0-.1-.2-.1C5.4 455.2 0 461.4 0 468.9c0 1.8.3 3.5.9 5.1.1.1.2.1.2.1h.7c.2 0 .3.1.3.1s.6 1.5 1.9 3.3c0 0 .1.1 0 .3l-.4.7s-.1.1 0 .3C6.4 482 10.5 484 15 484c4.6 0 8.7-2.1 11.4-5.3v-.2l-.4-.7c-.1-.2 0-.3 0-.3 1.4-1.9 1.9-3.3 1.9-3.3s.1-.2.3-.1h.7s.1 0 .2-.1c.6-1.6.9-3.3.9-5.2 0-7.3-5.2-13.4-12.2-14.7zM15 481.4c-6.8 0-12.4-5.6-12.4-12.5s5.5-12.5 12.4-12.5 12.4 5.6 12.4 12.5-5.6 12.5-12.4 12.5z"/><path id="Shape_72_" class="st6" d="M9.8 463.5c2.7-3.9 8.8-4.3 13.5-.8.6.5 1.2.9 1.7 1.5-.8-1.8-2.1-3.5-3.9-4.9-4.7-3.4-10.8-2.9-13.6 1.2-2.8 4-1.4 10 3.1 13.5-2.4-3.4-2.9-7.5-.8-10.5z"/><path id="Shape_73_" class="st6" d="M21.8 467.8c1.8 4.5-1.1 10.1-6.3 12.4-.7.3-1.4.5-2 .7 1.9.3 3.9 0 5.9-.9 5.2-2.3 7.9-8 6-12.7-1.8-4.6-7.3-6.6-12.4-4.5 3.9-.3 7.5 1.6 8.8 5z"/><path id="Shape_74_" class="st6" d="M12.2 475.4c-4.7-.7-7.9-6.1-7.1-12.1.1-.8.3-1.5.5-2.2-1.2 1.6-2.1 3.6-2.4 5.9-.8 5.9 2.6 11.3 7.5 12 4.9.7 9.4-3.4 10.4-9.2-1.9 3.7-5.4 6.1-8.9 5.6z"/><circle id="Oval_11_" class="st6" cx="14.5" cy="468.5" r="1.5"/></g></g><text transform="translate(57 480)" class="st0 st7 st8">CLAN 7</text></g><g id="clan8" transform="translate(0 194)"><path id="Rectangle-12_22_" class="st0" d="M284 456h36c3.9 0 7 3.1 7 7v23c0 3.9-3.1 7-7 7h-36c-3.9 0-7-3.1-7-7v-23c0-3.9 3.1-7 7-7z"/><path id="Rectangle-12_23_" class="st1" d="M5 454h282c2.8 0 5 2.2 5 5v30c0 2.8-2.2 5-5 5H5c-2.8 0-5-2.2-5-5v-30c0-2.8 2.2-5 5-5z"/><g id="KbpKVuJz0mH3fe4sCG80Q_11_"><g id="Mask_11_"><path id="path-23_1_" class="st2" d="M5 454h35v40H5c-2.8 0-5-2.2-5-5v-30c0-2.8 2.2-5 5-5z"/></g><defs><filter id="Adobe_OpacityMaskFilter_31_" filterUnits="userSpaceOnUse" x="5" y="459" width="30" height="30"><feColorMatrix values="1 0 0 0 0 0 1 0 0 0 0 0 1 0 0 0 0 0 1 0"/></filter></defs><mask maskUnits="userSpaceOnUse" x="5" y="459" width="30" height="30" id="mask-24_1_"><g class="st75"><path id="path-23_2_" class="st4" d="M5 454h35v40H5c-2.8 0-5-2.2-5-5v-30c0-2.8 2.2-5 5-5z"/></g></mask><g transform="translate(5 5)" id="blackshot_11_" class="st76"><path id="Shape_75_" class="st6" d="M17.8 454.1c-.1 0-.2.1-.2.1l-.4.7c0 .1-.2.1-.2.1-2.3-.3-3.8-.1-3.8-.1s-.2 0-.3-.2l-.4-.6s0-.1-.2-.1C5.4 455.2 0 461.4 0 468.9c0 1.8.3 3.5.9 5.1.1.1.2.1.2.1h.7c.2 0 .3.1.3.1s.6 1.5 1.9 3.3c0 0 .1.1 0 .3l-.4.7s-.1.1 0 .3C6.4 482 10.5 484 15 484c4.6 0 8.7-2.1 11.4-5.3v-.2l-.4-.7c-.1-.2 0-.3 0-.3 1.4-1.9 1.9-3.3 1.9-3.3s.1-.2.3-.1h.7s.1 0 .2-.1c.6-1.6.9-3.3.9-5.2 0-7.3-5.2-13.4-12.2-14.7zM15 481.4c-6.8 0-12.4-5.6-12.4-12.5s5.5-12.5 12.4-12.5 12.4 5.6 12.4 12.5-5.6 12.5-12.4 12.5z"/><path id="Shape_76_" class="st6" d="M9.8 463.5c2.7-3.9 8.8-4.3 13.5-.8.6.5 1.2.9 1.7 1.5-.8-1.8-2.1-3.5-3.9-4.9-4.7-3.4-10.8-2.9-13.6 1.2-2.8 4-1.4 10 3.1 13.5-2.4-3.4-2.9-7.5-.8-10.5z"/><path id="Shape_77_" class="st6" d="M21.8 467.8c1.8 4.5-1.1 10.1-6.3 12.4-.7.3-1.4.5-2 .7 1.9.3 3.9 0 5.9-.9 5.2-2.3 7.9-8 6-12.7-1.8-4.6-7.3-6.6-12.4-4.5 3.9-.3 7.5 1.6 8.8 5z"/><path id="Shape_78_" class="st6" d="M12.2 475.4c-4.7-.7-7.9-6.1-7.1-12.1.1-.8.3-1.5.5-2.2-1.2 1.6-2.1 3.6-2.4 5.9-.8 5.9 2.6 11.3 7.5 12 4.9.7 9.4-3.4 10.4-9.2-1.9 3.7-5.4 6.1-8.9 5.6z"/><circle id="Oval_12_" class="st6" cx="14.5" cy="468.5" r="1.5"/></g></g><text transform="translate(57 480)" class="st0 st7 st8">CLAN 8</text></g><g id="Lines"><path id="Rectangle-16" class="st0" d="M332 216h110v2H332z"/><path id="Rectangle-16_1_" class="st0" d="M442 287h25v2h-25z"/><path id="Rectangle-16_2_" class="st0" d="M332 358h110v2H332z"/><path id="Rectangle-16_3_" class="st0" d="M440 216h2v144h-2z"/><path id="Rectangle-16_4_" class="st0" d="M332 499h110v2H332z"/><path id="Rectangle-16_5_" class="st0" d="M442 570h25v2h-25z"/><path id="Rectangle-16_6_" class="st0" d="M332 641h110v2H332z"/><path id="Rectangle-16_7_" class="st0" d="M440 499h2v144h-2z"/></g><g id="dates"><text transform="translate(64 162)" class="st0 st23 st24">MATCH 1 - Saturday 18/11/17 19:00 CET</text><text transform="translate(64 302)" class="st0 st23 st24">MATCH 2 - Saturday 18/11/17 20:00 CET</text><text transform="translate(75 445)" class="st0 st23 st24">MATCH 3 - Sunday 19/11/17 19:00 CET</text><text transform="translate(75 585)" class="st0 st23 st24">MATCH 4 - Sunday 19/11/17 20:00 CET</text></g></g><g id="text_week"><text transform="translate(3365.14 120)" class="st0 st77 st46">WEEK 2</text><text transform="translate(2888.14 120)" class="st0 st77 st46">WEEK 3</text><text transform="translate(2406.14 120)" class="st0 st77 st46">WEEK 4</text><text transform="translate(1051.14 120)" class="st0 st77 st46">WEEK 4</text><text transform="translate(583.14 120)" class="st0 st77 st46">WEEK 3</text><text transform="translate(94.14 120)" class="st0 st77 st46">WEEK 1</text></g><g id="text_side"><text transform="translate(.09 35)" class="st6 st7 st78">SIDE A</text><text transform="translate(3439.422 35)" class="st6 st7 st78">SIDE B</text></g></svg>