<?xml version="1.0" encoding="utf-8"?>
<!-- Generator: Adobe Illustrator 18.1.1, SVG Export Plug-In . SVG Version: 6.00 Build 0)  -->
<!DOCTYPE svg PUBLIC "-//W3C//DTD SVG 1.1//EN" "http://www.w3.org/Graphics/SVG/1.1/DTD/svg11.dtd">
<svg version="1.1" id="Layer_1" xmlns="http://www.w3.org/2000/svg" xmlns:xlink="http://www.w3.org/1999/xlink" x="0px" y="0px"
	 width="1024px" height="768px" viewBox="0 0 1024 768" enable-background="new 0 0 1024 768" xml:space="preserve">
<g>
	<path fill="#FFFFFF" d="M512.1,768c-102.6,0-199-40-271.6-112.5S128,486.7,128,384.1s40-199,112.5-271.6S409.5,0,512.1,0
		s199,40,271.6,112.5s112.5,169,112.5,271.6s-40,199-112.5,271.6S614.7,768,512.1,768z M512.1,23.2c-96.4,0-187,37.5-255.2,105.7
		S151.2,287.7,151.2,384.1s37.5,187,105.7,255.2s158.8,105.7,255.2,105.7s187-37.5,255.2-105.7s105.7-158.8,105.7-255.2
		s-37.5-187-105.7-255.2S608.5,23.2,512.1,23.2z"/>
</g>
<g>
	<path fill="#FFFFFF" d="M454.3,571.7c0-31.8,26-58.5,57.7-58.5s58.5,26.7,58.5,58.5c0,31.1-26.7,57.7-58.5,57.7
		S454.3,602.8,454.3,571.7z M471.6,465.5l-15.2-324.9h110.5l-14.4,324.9H471.6z"/>
</g>
</svg>
