<?xml version="1.0" encoding="utf-8"?>
<!-- Generator: Adobe Illustrator 19.1.0, SVG Export Plug-In . SVG Version: 6.00 Build 0)  -->
<svg version="1.1" id="Layer_1" xmlns="http://www.w3.org/2000/svg" xmlns:xlink="http://www.w3.org/1999/xlink" x="0px" y="0px"
	 width="72px" height="72px" viewBox="0 -10.9 72 72" style="enable-background:new 0 -10.9 72 72;" xml:space="preserve">
<metadata><?xpacket begin="﻿" id="W5M0MpCehiHzreSzNTczkc9d"?>
<x:xmpmeta xmlns:x="adobe:ns:meta/" x:xmptk="Adobe XMP Core 5.6-c067 79.157747, 2015/03/30-23:40:42        ">
   <rdf:RDF xmlns:rdf="http://www.w3.org/1999/02/22-rdf-syntax-ns#">
      <rdf:Description rdf:about=""/>
   </rdf:RDF>
</x:xmpmeta>
                                                                                                    
                                                                                                    
                                                                                                    
                                                                                                    
                                                                                                    
                                                                                                    
                                                                                                    
                                                                                                    
                                                                                                    
                                                                                                    
                                                                                                    
                                                                                                    
                                                                                                    
                                                                                                    
                                                                                                    
                                                                                                    
                                                                                                    
                                                                                                    
                                                                                                    
                                                                                                    
                           
<?xpacket end="w"?></metadata>
<style type="text/css">
	.st0{fill:#243E8F;}
	.st1{fill:#CA2027;}
	.st2{fill:#FFFFFF;}
</style>
<g>
	<polygon class="st0" points="47.1,38.7 47.1,61.1 72,61.1 72,51.1 	"/>
	<polygon class="st0" points="72,-1 72,-10.9 47.1,-10.9 47.1,11.5 	"/>
	<polygon class="st0" points="0,51.1 0,61.1 23.1,61.1 23.1,39.6 	"/>
	<polygon class="st0" points="23.1,-10.9 0,-10.9 0,-1 23.1,10.6 	"/>
	<polygon class="st1" points="17.4,37.1 12,37.1 0,43.1 0,48.5 22.7,37.1 	"/>
	<polygon class="st1" points="54.6,13.1 60,13.1 72,7.1 72,1.7 49.3,13.1 	"/>
	<polygon class="st1" points="6.6,13.1 12,13.1 0,7.1 0,12.5 1.3,13.1 	"/>
	<polygon class="st1" points="65.4,37.1 60,37.1 72,43.1 72,37.7 70.7,37.1 	"/>
	<polygon class="st2" points="27.9,-10.9 23.1,-10.9 23.1,10.6 0,-1 0,7.1 12,13.1 6.6,13.1 1.3,13.1 0,12.5 0,17.9 27.9,17.9 	"/>
	<polygon class="st2" points="0,32.3 0,43.1 12,37.1 17.4,37.1 22.7,37.1 0,48.5 0,51.1 23.1,39.6 23.1,61.1 27.9,61.1 27.9,32.3 	
		"/>
	<polygon class="st2" points="72,17.9 72,7.1 60,13.1 54.6,13.1 49.3,13.1 72,1.7 72,-1 47.1,11.5 47.1,-10.9 42.3,-10.9 42.3,17.9 
			"/>
	<polygon class="st2" points="72,51.1 72,43.1 60,37.1 65.4,37.1 70.7,37.1 72,37.7 72,32.3 42.3,32.3 42.3,61.1 47.1,61.1 
		47.1,38.7 	"/>
	<polygon class="st1" points="72,32.3 72,17.9 42.3,17.9 42.3,-10.9 27.9,-10.9 27.9,17.9 0,17.9 0,32.3 27.9,32.3 27.9,61.1 
		42.3,61.1 42.3,32.3 	"/>
</g>
</svg>
