<?xml version="1.0" encoding="utf-8"?>
<!-- Generator: Adobe Illustrator 19.1.0, SVG Export Plug-In . SVG Version: 6.00 Build 0)  -->
<svg version="1.1" id="Layer_1" xmlns="http://www.w3.org/2000/svg" xmlns:xlink="http://www.w3.org/1999/xlink" x="0px" y="0px"
	 viewBox="0 0 72 19.2" style="enable-background:new 0 0 72 19.2;" xml:space="preserve">
<style type="text/css">
	.st0{fill:#FFFFFF;}
</style>
<g>
	<path class="st0" d="M0.3,15C0.3,15,0.3,15,0.3,15l-0.1,0c0,0-0.1,0-0.2-0.1c0.1,0,0.1,0,0.2-0.1c0,0,0.1,0,0.1,0c0,0,0.1,0,0.1,0
		c0,0,0,0,0.1,0l0,0c0,0,0,0,0,0C0.4,14.9,0.4,14.9,0.3,15C0.3,14.9,0.3,15,0.3,15C0.3,15,0.3,15,0.3,15z M7.2,15.5
		c0,0.1,0,0.2,0.1,0.4c0,0.2,0,0.1-0.1-0.1c-0.1,0.1-0.1,0.2-0.1,0.4c0,0,0,0.1,0.1,0.4c0,0.1,0,0.1,0,0.1c0,0.1-0.1,0.1-0.2,0.1
		c0,0,0,0.3,0.2,0.9c0.1,0.5,0.1,0.8,0.1,0.9c-0.1-0.1-0.1-0.1-0.1-0.1c0,0-0.1-0.3-0.2-0.8c-0.1-0.5-0.2-0.7-0.2-0.7c0,0,0,0,0,0
		c0,0,0-0.1,0-0.1c0-0.1,0-0.2-0.1-0.4c0-0.2-0.1-0.3-0.1-0.4c0,0,0-0.1-0.1-0.3c0,0.1,0,0.3,0,0.4c0,0.1,0.1,0.2,0.1,0.4
		c0,0.2,0.1,0.3,0.1,0.3c0,0.1,0,0.1,0.1,0.2c0,0.1,0.1,0.4,0.3,1.1c0.1,0.7,0.2,1,0.2,1.1c0,0-0.1-0.4-0.3-1.1
		C6.9,18.5,7,18.7,7,18.8c0,0-0.1-0.4-0.3-1c-0.1-0.3-0.1-0.5-0.1-0.5c0,0,0,0.2,0.1,0.5c0,0,0,0.1,0.1,0.2c0,0.1,0,0.2,0.1,0.2
		c-0.3-1-0.5-1.7-0.6-1.9c-0.1,0.2-0.1,0.3,0,0.4c0,0,0.1,0.1,0.1,0.2c0,0.1,0.1,0.1,0.1,0.2c-0.1,0-0.1,0-0.2-0.1
		c0-0.1,0-0.1-0.1-0.1c0-0.1,0-0.2-0.1-0.3C6,16.3,6,16.2,6,16.1C6,16.1,6,16,6,16c-0.1,0-0.1-0.1-0.1-0.3c0-0.1,0-0.2-0.1-0.3
		c0-0.1,0-0.2-0.1-0.3c0,0,0-0.1,0-0.2c0-0.1,0-0.2,0-0.2c0,0,0,0.1,0,0.2c0,0.1,0,0.1,0,0.2c0,0,0,0.1,0,0.1c0,0.1,0,0.1,0,0.1
		c0,0.1,0,0.1,0,0.2c0,0.1-0.1,0.2-0.1,0.2c0-0.1,0-0.1-0.1-0.2c0-0.1,0-0.1-0.1-0.1c0,0-0.1,0-0.1-0.1c0,0,0-0.1,0-0.1
		c0-0.1,0-0.1,0-0.1c0-0.2,0-0.3,0-0.4c0,0,0.1,0.1,0.1,0.2c0,0.1,0,0.2,0,0.2c0,0,0,0,0-0.1c0,0,0-0.1,0-0.1c0,0,0,0,0,0.1
		c0,0,0,0.1,0,0.1c0-0.1,0-0.1,0-0.2c0,0,0-0.1,0-0.1c0-0.1,0-0.1,0-0.1c0,0,0-0.1,0-0.1c0.1,0,0.1-0.1,0-0.1c0,0,0-0.1,0-0.1
		c0-0.1,0-0.2,0-0.2c0,0,0,0,0,0c0,0,0,0,0,0c0,0,0.1-0.1,0.1,0c0-0.1,0-0.1,0-0.1c0-0.1,0-0.1,0-0.2c0-0.2,0-0.4-0.1-0.6
		c-0.1-0.3-0.1-0.5-0.1-0.6c0-0.1,0-0.1,0-0.2c0-0.1,0-0.2-0.1-0.2c0-0.3-0.1-0.5-0.1-0.5c0,0,0-0.1,0-0.2c0-0.1,0-0.1,0-0.2
		c0-0.1,0-0.2-0.1-0.2c0-0.1,0-0.1,0-0.2c0,0,0-0.1-0.1-0.2C5,10.7,5,10.7,4.9,10.8c0-0.1-0.1-0.2-0.2-0.2c0,0-0.2,0-0.4,0
		c-0.5,0.1-0.9,0.1-1.1,0.2c-0.1,0-0.2,0-0.2,0.1c-0.1,0-0.1,0.1,0,0.1c0,0,0,0,0,0c-0.1,0-0.1,0.1-0.1,0.2c0,0.1,0,0.3,0,0.4
		c0,0,0,0,0-0.1c0,0,0-0.1,0-0.1c0,0-0.1,0.2-0.1,0.5c0,0.1-0.1,0.3-0.1,0.6c0,0.3-0.1,0.5-0.1,0.6c-0.1,0.8-0.2,1.2-0.2,1.2
		c0-0.1,0.1-0.1,0.2-0.1l0,0c0,0,0,0,0,0c0,0,0,0-0.1,0.1c0,0,0,0,0,0c0,0,0,0,0,0c0,0,0,0,0,0c0,0,0,0,0,0l0,0c0,0,0,0,0,0
		c0,0-0.1,0.1-0.1,0.1c0,0,0,0-0.1,0c0,0.1,0,0.2,0,0.3c0,0,0,0,0,0c0,0,0,0,0,0c0,0,0,0,0,0c0,0,0,0,0.1,0c0.1,0,0.1,0,0.1,0
		c0,0,0.1,0,0.1,0c0,0,0,0,0.1,0c0,0,0,0,0,0c0,0,0,0,0,0c0,0,0,0-0.1,0c-0.1,0-0.1,0-0.1,0.1l0,0c-0.1,0-0.1,0-0.2,0
		c0,0.1,0,0.2-0.1,0.3c0,0,0,0,0.1,0c0.1,0,0.1,0,0.2,0c0,0,0,0,0,0c0,0,0,0,0,0c0,0,0,0,0,0c0,0,0,0,0,0c0,0,0,0,0,0c0,0,0,0,0,0
		c0,0,0,0,0,0c0,0-0.1,0-0.1-0.1l0,0c0,0,0,0,0,0c0,0,0,0-0.1,0c0,0,0,0,0,0c0,0,0,0,0,0c0,0,0,0,0,0c0,0,0,0,0,0c0,0,0,0,0,0v0
		c0,0,0,0,0,0c0,0,0.1,0,0.1,0c0,0,0,0,0.1,0.1c0,0,0,0,0,0c-0.1,0-0.1,0-0.2,0c0,0.1-0.1,0.1-0.2,0c0,0-0.1,0-0.1,0
		c-0.1,0-0.1,0-0.1-0.1c0,0,0,0,0,0l0,0c0,0,0,0,0,0l0,0c0,0.1,0,0.1,0,0.1c0,0,0,0,0,0c0,0,0,0,0,0c0,0.1,0,0.1,0,0.1l0,0
		c0,0-0.1,0-0.1,0c0,0,0,0,0,0c0,0,0,0,0-0.1c0,0,0,0.1-0.1,0.1c0,0,0,0-0.1,0c0,0,0,0,0,0c0,0,0,0,0,0.1c0,0,0,0,0,0.1l0,0
		c0,0,0,0,0,0v0h0c0,0,0,0,0,0c0,0,0,0,0,0c0,0,0,0,0,0c0,0,0,0,0,0l0,0c0,0,0,0,0,0h0v0c-0.1,0-0.2,0-0.2,0c0,0,0,0-0.1,0
		c0,0,0,0.1,0,0.1c0,0,0,0-0.1-0.1c0,0,0,0,0,0c0,0,0,0,0,0c0,0,0,0,0,0h0c0,0,0-0.1,0-0.1H0.5c0,0,0,0-0.1,0c0,0,0,0,0-0.1
		c0,0,0,0,0.1-0.1c0,0,0,0,0,0c0,0,0,0,0,0c0,0,0,0,0,0c0,0,0,0,0,0c0,0,0,0,0-0.1c0,0-0.1,0-0.2,0c0,0,0,0,0,0l0,0
		c0-0.1,0-0.1,0-0.1c0,0,0,0,0,0c0,0,0.1,0,0.1,0c0,0-0.1-0.1,0,0c0,0,0,0,0,0c0,0,0,0,0,0c-0.1,0-0.1,0-0.1,0c0,0,0,0,0,0
		c0.1,0,0.1,0,0.1-0.1c0,0,0,0,0.1,0c0,0,0-0.1,0.1-0.2c0,0,0,0,0-0.1c0,0,0,0,0-0.1c0,0,0,0,0-0.1c0,0,0,0,0-0.1c0,0,0,0,0-0.1
		c0,0,0,0,0-0.1c0,0,0,0,0-0.1c0,0,0-0.1,0.1-0.2c0,0,0,0,0,0c0,0,0.1,0,0.1-0.1c0,0,0,0,0.1-0.1c0,0,0,0,0,0c0,0,0,0,0,0
		c0,0,0-0.1,0-0.1c0,0,0-0.1,0-0.1c0.2-0.9,0.2-1.3,0.2-1.3c0-0.1,0.1-0.3,0.1-0.6c0.1-0.2,0.1-0.4,0.1-0.6c0-0.1,0-0.1,0.1-0.2
		c0-0.1,0-0.1,0-0.1c0-0.1-0.1-0.1-0.1-0.1c-0.4,0.1-0.5,0.1-0.4,0.1c-0.1,0-0.4,0-0.8,0c0,0-0.1,0-0.1-0.1c0-0.2,0.1-0.3,0.1-0.3
		c0,0,0.1-0.1,0.2-0.2c0.1-0.1,0.1-0.2,0.2-0.2c0.1-0.1,0.3-0.2,0.5-0.3c0.1,0,0.1,0,0.1,0c0.2,0,0.3-0.1,0.2-0.2c0,0,0,0,0,0
		c0,0.1,0,0.1,0.1,0.1c0,0,0.1,0,0.1-0.1c0-0.1,0-0.1,0.1-0.2c0-0.1,0-0.2,0-0.3c0-0.1,0-0.1,0-0.1c0,0,0-0.1,0-0.2c0,0,0-0.2,0-0.3
		c0,0,0-0.1-0.1-0.1c0,0,0,0,0,0c0,0,0,0,0,0c0,0,0,0,0-0.2c0-0.1,0-0.1,0-0.1c0,0,0,0,0-0.1C1.8,8,1.8,8,1.9,7.9
		C2,7.8,2,7.8,1.9,7.8c0,0,0,0,0-0.1c0-0.1,0-0.1,0-0.2c0,0,0,0,0.1-0.1c0,0,0,0,0-0.1c0-0.1,0-0.1,0-0.1c-0.1,0-0.1,0-0.1-0.1
		C1.9,7,1.9,7,1.9,6.9c0.1,0,0.1-0.1,0.2-0.3c0-0.1,0-0.1,0-0.1c0,0-0.1,0.1-0.1,0.2C2,6.8,2,6.8,2,6.9c0-0.1-0.1-0.2-0.1-0.3
		c0,0,0-0.1,0.1-0.1c0-0.1,0-0.1,0.1-0.1c0,0-0.1,0-0.1,0c-0.1,0-0.1,0-0.1,0c0-0.1,0-0.1,0.1-0.1C2,6.2,2,6.2,2.1,6.1
		c0,0,0,0,0-0.1c0,0,0-0.1,0-0.1C2.1,5.9,2,6,2,6S2,6.1,1.9,6.2c0-0.2,0-0.2,0-0.3c0,0,0-0.1,0.1-0.2c0-0.1,0-0.1,0.1-0.2
		c0,0,0,0,0-0.1c0,0,0-0.1,0-0.1C2.1,5,2.2,4.8,2.2,4.6c0,0,0,0,0,0c0,0,0,0,0,0c0,0,0-0.1,0-0.1c0,0,0,0-0.1,0c-0.1,0-0.1,0-0.1,0
		c0,0,0,0,0-0.1c0,0,0-0.1,0-0.1c0-0.1,0-0.1,0.1-0.1c0.1,0,0.2,0,0.2-0.1C2.4,4.1,2.4,4,2.4,4c0-0.1,0-0.2,0.1-0.4
		c0-0.1,0.1-0.2,0.1-0.4c0-0.1,0-0.2,0-0.4c0-0.2,0-0.3,0.1-0.4c0-0.1,0-0.1,0-0.2c0-0.1,0-0.2,0-0.2c0-0.2,0-0.3-0.1-0.4
		c-0.1-0.1-0.1-0.1,0-0.2c0,0,0-0.1,0-0.2c0,0-0.1,0-0.1,0.1c0,0.1,0,0.2-0.1,0.3c0,0.1-0.1,0.2-0.1,0.3c0,0,0,0,0,0
		c0,0,0,0.1-0.1,0c0,0,0,0,0-0.1c0,0,0,0,0,0c0,0,0-0.2,0-0.5c0-0.1,0-0.2,0.1-0.3C2.4,0.9,2.5,0.9,2.7,1C2.7,1,2.8,1,2.8,1.1
		c0,0,0,0.1,0,0.1c0,0.1-0.1,0.2-0.1,0.3c0,0.1,0,0.1,0.1,0.1c0.1,0,0.1-0.1,0.1-0.1c0,0,0-0.1,0.1-0.1c0,0,0,0,0,0.1
		c0,0,0,0.1,0,0.1c0,0,0-0.1,0-0.1c0-0.1,0-0.1,0-0.1c0,0,0,0,0,0c0,0,0,0,0,0c0,0,0,0,0,0C3,1,3,0.9,3.1,0.9c0,0.1,0,0.1,0,0.1
		c0,0,0.1,0,0.1,0c0,0,0.1,0,0.1,0c0,0.1,0.1,0.1,0.1,0.1C3.4,1.1,3.4,1,3.5,1c0,0,0,0,0.1-0.1c0-0.1,0-0.1,0.1-0.1
		c0.1,0,0.1,0,0.1-0.1c0,0,0-0.1,0.1-0.1C3.9,0.6,4,0.6,4,0.7c0,0,0,0.1,0,0.3C4,1.1,4,1.1,4,1.1c0,0,0-0.1,0-0.3
		c0-0.1,0-0.2,0.1-0.2c0,0,0-0.1,0-0.1c0-0.1,0-0.1,0-0.1c0.1,0,0.1,0,0.1,0.1c0,0,0,0.1,0,0.1c0,0,0,0.2,0,0.4c0,0,0,0.1,0.1,0.1
		c0,0,0,0,0.1,0c0,0,0,0,0.1,0c0.1,0,0.1,0.1,0.1,0.2c0,0.1,0.1,0.2,0.2,0.3c0,0,0,0.1,0,0.1c0,0,0,0-0.1,0c0,0-0.1,0-0.1,0
		c0,0,0,0.1,0.1,0.3c0.1,0.1,0.1,0.2,0.1,0.3c0,0-0.1-0.1-0.1-0.2C4.6,2,4.6,2,4.5,2c0,0.1,0.1,0.2,0.1,0.2c0.1,0.2,0.2,0.6,0.4,1.1
		c0,0,0,0.1,0.1,0.2c0,0.1,0,0.2,0.1,0.2c0,0.1,0.1,0.3,0.1,0.5c0,0,0,0.1,0,0.1c0,0.1,0,0.1,0,0.2c0,0.3,0,0.4,0,0.3
		c0,0.1,0,0.1,0,0.1c0,0,0,0.3,0.1,0.8c0.1,0.6,0.2,1,0.2,1.2c0,0.1,0,0.2,0,0.3c0,0.1,0,0.2,0,0.3c0,0.1,0.1,0.5,0.2,1.3
		C6,9.1,6,9.2,6.1,9.2c0,0,0,0,0,0.1C6,9.4,6,9.6,6.2,9.6c0,0,0.1,0.1,0.1,0.1c0,0,0,0-0.1-0.1c0,0-0.1,0-0.1,0c0,0.1,0,0.2,0.1,0.2
		c0,0,0.1,0.1,0,0.1c0,0-0.1,0.1-0.1,0.2c0,0.1,0,0.1,0.1,0.1c0,0,0,0-0.1,0.1c0,0,0,0,0,0.1c0,0.1,0,0.1,0,0.1
		c0.1,0.3,0.1,0.5,0.1,0.5c0,0,0,0.1,0,0.1c0,0.1,0,0.1,0,0.1l0,0.1c0,0,0,0,0,0.1c0.1,0,0.1,0.1,0,0.2c0,0,0,0.1,0,0.1l0.1,0.4
		c0,0,0,0,0,0.1c0,0.1,0,0.2,0,0.4c0,0.2,0.1,0.3,0.1,0.4c0,0.1,0,0.1,0.1,0.2c0,0.1,0,0.2,0.1,0.2c0,0.1,0.1,0.5,0.2,1.2
		c0,0.1,0,0.2,0.1,0.3c0,0.2,0.1,0.2,0.1,0.3C7.2,15.4,7.2,15.5,7.2,15.5C7.2,15.5,7.2,15.5,7.2,15.5z M0.2,15.4
		C0.2,15.4,0.2,15.4,0.2,15.4L0.2,15.4C0.3,15.4,0.3,15.4,0.2,15.4C0.2,15.4,0.2,15.4,0.2,15.4C0.2,15.4,0.2,15.4,0.2,15.4z
		 M0.4,14.5C0.4,14.4,0.4,14.4,0.4,14.5c0-0.3,0-0.5,0-0.5C0.5,14.1,0.5,14.2,0.4,14.5C0.5,14.4,0.4,14.5,0.4,14.5z M0.6,15.8
		C0.6,15.8,0.5,15.8,0.6,15.8L0.6,15.8l-0.1,0c0,0,0,0,0,0c0,0,0,0,0,0C0.5,15.7,0.5,15.7,0.6,15.8C0.6,15.7,0.6,15.7,0.6,15.8
		C0.6,15.7,0.6,15.7,0.6,15.8C0.6,15.7,0.6,15.7,0.6,15.8z M0.5,15.9C0.5,15.9,0.5,15.8,0.5,15.9L0.5,15.9
		C0.6,15.9,0.6,15.9,0.5,15.9C0.6,15.9,0.5,15.9,0.5,15.9z M0.7,14.7c0-0.1,0-0.1,0-0.1c0,0,0,0,0,0c0,0,0,0,0,0c0,0,0,0,0,0
		C0.7,14.6,0.7,14.6,0.7,14.7C0.7,14.7,0.7,14.7,0.7,14.7z M0.9,15.8C0.9,15.9,0.9,15.9,0.9,15.8c0,0.1,0,0.1-0.1,0.1
		C0.8,15.9,0.8,15.9,0.9,15.8C0.8,15.8,0.9,15.8,0.9,15.8z M0.8,15.7C0.8,15.7,0.8,15.7,0.8,15.7C0.8,15.7,0.8,15.7,0.8,15.7
		C0.8,15.7,0.8,15.7,0.8,15.7z M0.9,15.6C0.9,15.6,0.9,15.6,0.9,15.6C0.9,15.6,0.9,15.6,0.9,15.6C0.9,15.6,0.9,15.7,0.9,15.6
		C0.9,15.6,0.9,15.6,0.9,15.6z M1,15.9C1,15.9,1,15.9,1,15.9C1,15.9,1,15.9,1,15.9C1,15.9,1,15.9,1,15.9C1,15.9,1,15.9,1,15.9z
		 M1,12.2c0-0.1,0-0.3,0.1-0.6C1.1,11.9,1.1,12.1,1,12.2z M1.1,16C1.1,16,1.1,16,1.1,16C1.1,16,1.1,16,1.1,16C1.1,16,1.1,16,1.1,16
		L1.1,16C1.1,16,1.1,16,1.1,16z M1.2,15.8L1.2,15.8C1.2,15.8,1.2,15.8,1.2,15.8C1.2,15.8,1.2,15.8,1.2,15.8
		C1.2,15.8,1.1,15.8,1.2,15.8C1.1,15.8,1.1,15.8,1.2,15.8L1.2,15.8L1.2,15.8C1.2,15.8,1.2,15.8,1.2,15.8z M1.9,11.1c0,0,0,0,0-0.1
		c0,0,0,0-0.1,0c-0.1,0.1-0.2,0.1-0.2,0.3c0,0.3-0.1,0.5-0.1,0.5c0,0.3-0.1,0.7-0.2,1c0,0.1,0,0.2,0,0.3c0.1,0.1,0.1,0.2,0,0.3
		c0,0,0,0,0,0c-0.1-0.1-0.1-0.1-0.1-0.1c-0.1,0.2-0.1,0.3-0.1,0.4c0,0,0,0,0.1-0.1c0,0,0-0.1,0.1-0.1c0,0,0,0.1,0,0.2
		c0,0.1,0,0.1,0,0.2c0,0,0-0.1,0-0.1c0.1-0.5,0.2-0.9,0.2-1.1c0-0.1,0-0.2,0.1-0.2c0,0,0,0,0-0.1c0,0,0,0,0-0.1c0-0.2,0-0.4,0-0.4
		c0-0.2,0-0.3,0.1-0.4c0,0,0,0,0-0.1C1.7,11.3,1.8,11.2,1.9,11.1z M1.2,15.5L1.2,15.5C1.2,15.5,1.2,15.5,1.2,15.5L1.2,15.5
		C1.2,15.5,1.2,15.5,1.2,15.5C1.2,15.5,1.2,15.5,1.2,15.5z M1.3,15.8C1.3,15.8,1.3,15.8,1.3,15.8c0,0.1,0,0.1-0.1,0.1
		C1.2,15.9,1.2,15.8,1.3,15.8C1.2,15.8,1.2,15.8,1.3,15.8z M1.3,15.7L1.3,15.7C1.3,15.8,1.3,15.8,1.3,15.7
		C1.3,15.8,1.3,15.8,1.3,15.7C1.3,15.8,1.3,15.8,1.3,15.7C1.3,15.8,1.3,15.7,1.3,15.7z M1.5,15.8L1.5,15.8
		C1.5,15.9,1.5,15.9,1.5,15.8L1.5,15.8L1.5,15.8L1.5,15.8L1.5,15.8C1.4,15.8,1.4,15.8,1.5,15.8z M1.8,8.8C1.7,9,1.6,9.1,1.6,9.1
		c0-0.1-0.1-0.1,0-0.2c0,0,0-0.1,0.1-0.2c0,0,0,0,0.1,0c0,0,0,0,0.1,0.1C1.8,8.8,1.8,8.8,1.8,8.8z M1.8,15.6
		C1.8,15.6,1.8,15.6,1.8,15.6L1.8,15.6C1.8,15.7,1.8,15.7,1.8,15.6C1.7,15.6,1.7,15.6,1.8,15.6z M1.9,9.8c0.1,0,0.2-0.1,0.2-0.2
		c0-0.1-0.1-0.1-0.2-0.1C1.9,9.6,2,9.7,2,9.7C2,9.7,1.9,9.7,1.9,9.8z M2.1,9.4c0-0.1,0-0.1,0-0.2c0-0.1,0-0.2,0-0.2
		c0,0.1-0.1,0.2-0.1,0.4C2,9.4,2.1,9.4,2.1,9.4z M2.2,3.9c0,0.1,0,0.2-0.1,0.3c0,0,0-0.1,0-0.2c0-0.1,0.1-0.3,0.1-0.6
		c0,0,0-0.1,0-0.1c0,0,0,0,0-0.1c0,0,0,0,0,0c0,0,0,0,0-0.1c0,0,0,0,0.1-0.1c0,0,0-0.1,0-0.1c0-0.2,0-0.2,0-0.2c0,0,0,0,0,0
		c0,0,0-0.1,0-0.1c0,0,0.1-0.1,0.1-0.1c0-0.1,0-0.2,0-0.3c0-0.1,0-0.2,0-0.3c0-0.1,0-0.2,0.2-0.2c0,0.1-0.1,0.2,0,0.3
		c0,0,0,0.1,0,0.1C2.4,2.3,2.4,2.5,2.4,2.7c0,0,0,0.1,0,0.2c0,0,0,0,0,0c0,0,0,0,0,0c0,0,0,0.1,0.1,0.1c0,0,0,0,0,0c0,0,0,0.1,0,0.2
		c0,0.1,0,0.2-0.1,0.2c0,0-0.1,0-0.1,0.1c0,0,0,0.1,0,0.1c0,0,0,0,0,0c0,0,0,0,0,0c0,0,0,0.1,0,0.1C2.3,3.7,2.2,3.8,2.2,3.9z
		 M2.2,15.2C2.3,15.2,2.3,15.2,2.2,15.2C2.2,15.2,2.2,15.2,2.2,15.2C2.2,15.2,2.2,15.2,2.2,15.2C2.2,15.2,2.2,15.2,2.2,15.2z
		 M2.4,12.2c0-0.1,0-0.1,0-0.2c0-0.1,0-0.2,0-0.2c0,0-0.1,0.1-0.1,0.2C2.4,12,2.4,12.1,2.4,12.2c-0.1-0.1-0.1-0.1-0.1-0.1h0
		c0,0,0-0.1,0-0.1c0,0,0-0.1,0-0.1c-0.1,0.1-0.1,0.3-0.1,0.5c0.1-0.1,0.1-0.2,0.1-0.2c0,0,0,0,0,0h0h0L2.4,12.2L2.4,12.2
		c-0.1,0-0.1,0.2-0.1,0.4c0,0,0,0.2-0.1,0.6c0-0.1,0.1-0.1,0.1-0.2c0-0.1,0-0.2,0.1-0.2c0-0.1,0-0.1,0-0.3
		C2.4,12.3,2.4,12.3,2.4,12.2C2.4,12.3,2.4,12.2,2.4,12.2z M2.3,14.5l0.1-0.1h0l0,0l0,0C2.4,14.6,2.4,14.6,2.3,14.5
		C2.4,14.6,2.4,14.6,2.3,14.5C2.4,14.6,2.3,14.6,2.3,14.5C2.3,14.6,2.3,14.6,2.3,14.5C2.3,14.6,2.3,14.6,2.3,14.5z M2.3,12.1
		 M2.5,11.6C2.6,11.6,2.6,11.5,2.5,11.6c0-0.1,0-0.1,0-0.1c0,0-0.1,0-0.1,0l0,0c0,0.1,0,0.1,0,0.1C2.5,11.6,2.5,11.6,2.5,11.6
		C2.5,11.6,2.5,11.6,2.5,11.6z M2.4,15.3c0.1,0,0.1,0,0.1,0.1C2.5,15.4,2.5,15.4,2.4,15.3C2.5,15.4,2.5,15.4,2.4,15.3
		C2.4,15.4,2.4,15.4,2.4,15.3C2.4,15.3,2.4,15.3,2.4,15.3z M2.5,15L2.5,15C2.4,15,2.4,15,2.5,15L2.5,15C2.5,15,2.5,15,2.5,15z
		 M4.7,9.3c0.1,0,0.1-0.1,0.1-0.2c0-0.1,0-0.2-0.1-0.5c0,0,0-0.1,0-0.1c0,0-0.1-0.1-0.1-0.2c0-0.3,0-0.5,0-0.5
		C4.6,7.6,4.5,7.6,4.5,7.6c0-0.2-0.1-0.5-0.1-0.9c0-0.1,0-0.2-0.1-0.2c0,0-0.1-0.1-0.1-0.1C4.2,6.1,4.2,6,4.2,6c0,0,0-0.1,0-0.1
		C4.1,5.7,4,5.5,4,5.5C4,5.6,3.9,5.8,3.9,5.9C4,6,4,6.1,4,6.2c0,0,0,0,0,0L3.9,6.1c0,0,0,0.1-0.1,0.2C3.8,6.7,3.7,6.9,3.7,7
		c0,0.2-0.1,0.4-0.1,0.7C3.5,8.1,3.5,8.3,3.4,8.4C3.3,9,3.3,9.3,3.3,9.3c0,0.1,0,0.2,0,0.2c0,0,0.1,0,0.2,0c0,0,0.1,0,0.1,0
		c0,0,0.1,0,0.2,0c0.1,0,0.1,0,0.2,0c0.2,0,0.3,0,0.3,0c0,0,0.1,0,0.2,0c0.1,0,0.1,0,0.1,0c0,0,0.1,0,0.1,0S4.6,9.3,4.7,9.3z
		 M4.2,1.3c0-0.1-0.1-0.1-0.2,0c0.1,0.2,0.2,0.3,0.2,0.2C4.3,1.4,4.3,1.3,4.2,1.3z M5.6,16.2c0,0.1,0,0.2,0.1,0.3
		c-0.1,0-0.2,0-0.2-0.1c0-0.1,0-0.2,0-0.3C5.6,16,5.6,16.1,5.6,16.2z"/>
	<path class="st0" d="M19,0.5c0,0.1,0,0.2,0,0.3c0,0.1,0,0.1,0,0.1c0,0.1,0,0.2,0,0.5c0,0.1,0,0.2,0,0.3c0,0.1,0,0.2,0,0.3
		c-0.1,0.1-0.1,0.2,0,0.3c0,0,0,0.1,0,0.1c0,0-0.1,0.2-0.1,0.4c0,0.3,0,0.7-0.1,1c-0.1,0.2-0.1,0.3-0.2,0.4c0,0,0,0.1,0,0.1
		c0,0.1,0,0.2-0.1,0.4c0,0,0,0.1,0,0.1c0,0.1,0,0.2-0.1,0.2c0,0-0.1,0,0,0.1c0,0.1,0,0.2,0,0.2c-0.1,0.1-0.1,0.1,0,0.2
		c0.1,0.1,0.1,0.2,0,0.3c-0.1,0.2-0.1,0.3-0.2,0.3c0,0,0,0,0,0.1c0,0,0,0.1,0,0.2c0,0.1,0,0.1,0,0.1c0,0.1,0,0.2-0.1,0.3
		c-0.1,0.1-0.1,0.2-0.1,0.3c0,0.1,0,0.2-0.1,0.3c0,0-0.1,0.1-0.1,0.2c0,0.1-0.1,0.1-0.1,0.2c0,0,0,0.1,0,0.1c0,0.1,0,0.2,0,0.2
		c-0.1,0.1-0.1,0.2-0.1,0.2c0,0,0,0.1,0,0.1c0,0.1-0.1,0.1-0.1,0.1c0,0,0,0-0.1,0.1c-0.1,0-0.1,0-0.1,0.1c0,0,0,0,0.1,0.1
		c0,0.1,0,0.1,0,0.2c0,0,0,0.1,0,0.1c0,0.2,0,0.3-0.1,0.3c0,0-0.1,0.1-0.1,0.2c0,0.2-0.1,0.3-0.1,0.4c-0.1,0.1-0.1,0.2,0,0.4
		c0,0,0,0.1,0,0.1c0,0-0.1,0-0.1,0c0,0-0.1,0-0.1,0.2c0,0.1,0,0.1-0.1,0.2c0,0.1,0,0.2-0.1,0.2c0,0.1,0,0.1,0,0.2c0,0.1,0,0.1,0,0.1
		c0,0.1,0,0.1-0.1,0.1c0,0,0,0,0,0.1c0,0.1,0,0.2-0.1,0.3c-0.1,0.4-0.1,0.6-0.1,0.5c0,0.1-0.1,0.1-0.1,0.2c-0.1,0-0.2,0.1-0.1,0.3
		c0,0,0,0.1-0.1,0.3c0,0,0,0.1,0,0.2c0,0.1,0,0.1,0,0.1c-0.1,0-0.1,0.1-0.1,0.2c0,0.1,0,0.1,0,0.1c0,0.1-0.1,0.1-0.1,0.1l-0.1,0
		c-0.1,0.1-0.2,0.1-0.4,0C15.2,14,15.2,14,15.1,14c-0.1,0-0.2,0-0.2-0.1c-0.1-0.1-0.1-0.1-0.3-0.1c0,0-0.1,0-0.1,0
		c-0.1,0-0.2,0-0.3-0.1c0-0.1-0.1-0.1-0.1-0.1c-0.1,0-0.1-0.1-0.2-0.2c-0.1-0.1-0.1-0.3-0.2-0.6c0-0.2-0.1-0.5-0.3-0.9
		c0,0,0-0.1-0.1-0.1c-0.2,0.5-0.3,0.8-0.3,0.8c0,0,0,0.1,0,0.1C13,12.8,13,12.9,13,13.1c0,0,0,0.1,0,0.2c0,0.1,0,0.1,0,0.2
		c0,0,0,0.1-0.1,0.1c0,0,0,0.1,0,0.1c0,0.1,0,0.2,0,0.3c0,0,0,0.1,0,0.1c0,0.1,0,0.1-0.1,0.1c0,0-0.1,0.1-0.1,0.1c0,0,0,0.1-0.1,0.1
		c-0.1,0-0.2,0.1-0.2,0.2c0,0.3,0.1,0.4,0.1,0.4c0,0.1-0.1,0.3-0.2,0.5c0,0-0.1,0.1-0.2,0.1c-0.1,0-0.2,0-0.2-0.1v0
		c0-0.1,0-0.2,0-0.2c0,0-0.1,0-0.2,0c-0.1,0-0.2,0-0.3,0c-0.1,0-0.2,0.1-0.2,0.1c0,0.1-0.1,0.1-0.2,0.1c-0.1,0-0.1,0-0.2-0.1
		c-0.2-0.2-0.3-0.3-0.3-0.3c-0.1-0.2-0.3-0.4-0.4-0.6c0,0-0.1-0.1-0.2-0.2l0-0.1l-0.1,0c-0.1,0-0.1,0-0.1,0
		c-0.1-0.1-0.1-0.1-0.1-0.2c0,0,0-0.2-0.1-0.4c0,0,0-0.1,0-0.1c0.1,0,0.1-0.1,0.1-0.2c0-0.1-0.1-0.1-0.2-0.2c0,0,0,0,0,0
		c0,0,0,0,0,0c0,0,0,0,0,0c0,0,0,0,0,0h0v0c0,0,0,0,0,0c0,0.1,0,0.1,0,0.2c-0.1,0.1-0.1,0-0.1-0.1c-0.1-0.5-0.2-0.8-0.2-0.9
		c0,0,0-0.1,0.1-0.1c0,0,0,0,0,0.1c0-0.1,0-0.1,0-0.1c0-0.1,0-0.2,0-0.2c0,0,0-0.1,0-0.1c0-0.1-0.1-0.1-0.1-0.3
		c0-0.1-0.1-0.2-0.1-0.3c0,0,0,0,0,0.1c0,0,0,0,0,0c0,0,0,0,0,0c0,0,0,0,0-0.1c0-0.1,0-0.2,0-0.4c0,0,0-0.1,0-0.1
		c0.1-0.1,0-0.1,0-0.2c-0.1,0-0.1-0.1,0-0.3c0,0,0,0,0,0c0,0,0,0,0,0c0.1-0.1,0-0.1,0-0.1c-0.1,0-0.1,0-0.1-0.1
		C8.7,9.9,8.7,9.6,8.7,9.4c0,0-0.1-0.2-0.2-0.6c0-0.2-0.1-0.3-0.1-0.3c0,0,0-0.1,0-0.1c0-0.1-0.1-0.2-0.1-0.3c0-0.1-0.1-0.2-0.1-0.3
		c0,0,0-0.1-0.1-0.4c-0.2-0.7-0.3-1-0.4-1.2C7.5,6,7.5,5.8,7.4,5.6c0-0.2-0.1-0.3-0.1-0.4c0,0,0-0.1,0-0.2c0-0.2,0-0.3,0.1-0.5
		c0,0,0-0.1,0.1-0.2c0-0.1,0.1-0.1,0.1-0.1c0,0,0.1,0,0.1-0.1c0-0.2,0.1-0.3,0.1-0.4c0,0,0-0.1-0.1-0.2c0,0,0,0,0-0.1c0,0,0,0,0,0
		c0.1,0,0.1,0,0.2-0.1c0,0,0,0,0,0c0.1,0,0.1,0,0.1,0C8,3.5,8,3.6,8,3.6c0,0,0,0.1-0.1,0.1c0,0.1,0,0.1-0.1,0.1c0,0,0,0.1,0,0.1
		C8,4,8.1,4,8.1,4c0.1-0.2,0.1-0.3,0.1-0.4c0,0,0-0.1,0-0.1c0-0.1,0-0.2,0.1-0.3c0,0,0.1-0.1,0.3-0.2C8.6,3,8.7,3.1,8.8,3.1
		c0.1,0,0.1,0.1,0.1,0.2c0,0.1,0,0.1,0,0.1c-0.1,0-0.1,0-0.1,0.1c0,0.1,0,0.2,0,0.2c0,0,0,0,0,0c0,0,0,0,0,0c0,0,0,0,0,0
		c0-0.1,0.1-0.1,0.1-0.1C9,3.6,9,3.6,9,3.7c0,0.1,0,0.2,0,0.3c0.1,0.2,0.1,0.3,0.1,0.4c0,0.4,0.1,0.8,0.3,1.2C9.7,6.4,10,6.9,10,7.1
		c0.2,0.6,0.4,1,0.5,1.4c0.2,0.7,0.3,1.2,0.3,1.3c0.2,0.5,0.2,0.8,0.3,1.2c0,0.1,0,0.1,0,0.1c0,0.1,0,0.2,0.1,0.6c0,0,0,0.1,0,0.1
		c0,0,0,0.1,0,0.1c0,0,0,0.1,0.1,0.2c0,0,0,0,0,0c0,0,0,0,0,0c0-0.1,0-0.3,0.1-0.5c0,0,0,0,0.1-0.2c0-0.1,0-0.1,0-0.1
		c0.1-0.1,0.2-0.3,0.3-0.7c0,0.1,0.1-0.1,0.2-0.4c0,0,0-0.1,0-0.2c0-0.1,0-0.2,0.1-0.2c0,0,0-0.1,0-0.1c0-0.1,0-0.2,0.1-0.2
		c0,0,0,0,0.1-0.1l0-0.1c0,0.1,0.1-0.2,0.4-1c0,0,0-0.1,0.1-0.2c0.1-0.2,0.3-0.3,0.6-0.2c0,0,0.1,0,0.1,0c0.1,0,0.2,0,0.3,0
		c0,0,0-0.1,0.1-0.1c0.1-0.1,0.1-0.1,0.1-0.1c0.1,0,0.2,0.1,0.2,0.2c0,0.1,0,0.2,0,0.2c0,0.1,0,0.2,0,0.3c0.2,0.4,0.2,0.6,0.2,0.5
		c0,0,0,0,0,0c0,0,0,0-0.1,0c0,0,0,0-0.1-0.1c0,0,0,0,0,0.1c0,0.1,0.2,0.4,0.3,0.9c0.1,0.3,0.2,0.5,0.2,0.6c0,0.1,0,0.1,0,0.1
		c0,0,0.1,0,0.1-0.1c0,0,0-0.1,0-0.2c0-0.1,0-0.2,0-0.2c0.1-0.2,0.2-0.4,0.2-0.6c0-0.1,0-0.2,0.1-0.3c0,0,0.1-0.1,0.1-0.2
		c0-0.1,0-0.1,0-0.2c0-0.1,0-0.2,0.1-0.3c0.2-0.3,0.3-0.5,0.3-0.7c0,0,0-0.1,0.1-0.2C16,7.3,16,7.3,16,7.2c0,0,0,0,0.1-0.1
		c0.1-0.1,0.1-0.2,0-0.2C16,6.8,16,6.7,16.1,6.6c0.1-0.1,0.2-0.2,0.2-0.3c0,0,0-0.1,0-0.1c0.1-0.1,0.1-0.1,0-0.2c0,0,0,0,0-0.1
		c0-0.3,0-0.4,0-0.3c0,0,0,0,0-0.1c0,0,0.1,0,0.1,0c0.1,0,0.1,0,0.1-0.1c0-0.1,0-0.1,0-0.1c-0.1-0.1-0.1-0.1,0-0.2c0,0,0-0.1,0-0.1
		c0-0.2,0-0.3,0.2-0.4c0,0,0,0,0-0.1l-0.1-0.1c0-0.1,0-0.1,0.1-0.2c0.1,0,0.1-0.1,0-0.1c0,0-0.1-0.1,0-0.1c0,0,0-0.1,0.1-0.3
		c0-0.1,0.1-0.2,0.1-0.2c0,0,0,0,0.1-0.1c0,0,0-0.1,0.1-0.1c-0.1,0-0.2-0.1-0.2-0.2c0,0,0-0.1,0-0.1c-0.1-0.1-0.1-0.1,0-0.2l0,0
		c0.2-0.1,0.3-0.3,0.3-0.7c0-0.1,0-0.2,0.1-0.3c0,0,0-0.1,0-0.1c0,0,0-0.1,0-0.1c0.1-0.2,0.1-0.4,0.1-0.6c0,0.1,0-0.1,0.1-0.4
		c0,0,0-0.1,0.1-0.2c0,0,0.1-0.1,0.1,0c0,0,0.1,0,0.2,0c0.1-0.1,0.2-0.1,0.3,0h0.1c0.2,0,0.3,0.1,0.3,0.3c0,0,0,0,0,0c0,0,0,0,0,0
		c0,0,0,0,0.1,0C18.6,0.7,18.7,0.6,19,0.5C18.9,0.4,19,0.4,19,0.5C19,0.4,19,0.4,19,0.5z M9.1,11.6L9.1,11.6c0,0.1,0.1,0.1,0,0.2
		c0,0,0,0,0,0c0,0,0,0,0,0C9.1,11.8,9.1,11.7,9.1,11.6C9.1,11.7,9.1,11.7,9.1,11.6C9.1,11.7,9.1,11.7,9.1,11.6z M9.3,12.4
		C9.3,12.4,9.3,12.4,9.3,12.4C9.3,12.4,9.3,12.4,9.3,12.4C9.3,12.4,9.3,12.4,9.3,12.4C9.3,12.4,9.3,12.4,9.3,12.4z M9.3,13.6
		c0,0,0,0,0.1,0.2c0,0,0,0.1,0.1,0.2C9.3,13.9,9.3,13.8,9.3,13.6z M9.3,12.6C9.3,12.6,9.3,12.6,9.3,12.6C9.3,12.6,9.3,12.6,9.3,12.6
		z M9.5,13.1c0-0.1-0.1-0.2-0.1-0.2C9.4,12.9,9.4,13,9.5,13.1z M9.5,12.9C9.5,12.9,9.5,12.9,9.5,12.9C9.5,12.9,9.5,12.9,9.5,12.9z
		 M14.7,8.6c-0.1,0-0.1-0.1-0.1-0.2l0,0h0C14.7,8.5,14.7,8.6,14.7,8.6z M15.2,10.3C15.2,10.3,15.2,10.3,15.2,10.3
		C15.2,10.3,15.2,10.3,15.2,10.3z M15.3,14.3C15.4,14.3,15.4,14.4,15.3,14.3c0,0.1,0,0.1,0,0.1C15.3,14.4,15.3,14.4,15.3,14.3
		C15.3,14.3,15.3,14.3,15.3,14.3z M16.7,9.5c0-0.1,0.1-0.2,0.1-0.2l0,0l0,0C16.7,9.3,16.7,9.4,16.7,9.5C16.7,9.5,16.7,9.5,16.7,9.5
		C16.7,9.5,16.7,9.5,16.7,9.5z M18.5,1.3C18.5,1.3,18.5,1.3,18.5,1.3L18.5,1.3L18.5,1.3C18.5,1.2,18.5,1.2,18.5,1.3
		C18.5,1.3,18.5,1.3,18.5,1.3L18.5,1.3z M18.7,1.5C18.7,1.5,18.7,1.5,18.7,1.5c0-0.1,0-0.1,0-0.1c0,0,0,0,0,0
		C18.7,1.4,18.7,1.4,18.7,1.5C18.7,1.5,18.7,1.5,18.7,1.5C18.7,1.5,18.7,1.5,18.7,1.5z M18.7,1.2c0-0.1,0-0.2,0-0.3
		C18.7,1,18.7,1.1,18.7,1.2z"/>
	<path class="st0" d="M26.7,2.1c0,0,0,0.1,0,0.1c0,0.1,0,0.3-0.1,0.6c-0.1,0.2-0.1,0.4-0.1,0.5c0,0.1,0,0.1-0.1,0.1
		c-0.1,0-0.1,0-0.2,0.1C26,3.8,25.9,4,25.8,4.1c-0.1,0.1-0.2,0.2-0.2,0.3c-0.1,0.1-0.2,0.4-0.4,0.7c-0.1,0.1-0.2,0.2-0.4,0.2
		c-0.3,0-0.5,0.1-0.6,0.4c-0.1,0.2-0.2,0.3-0.4,0.5c0,0-0.1,0.1-0.1,0.1c-0.1,0.2-0.3,0.4-0.4,0.5c-0.1,0-0.1,0.1-0.2,0.2
		C23,7,22.9,7.1,22.9,7.1c-0.4,0.4-0.6,0.7-0.8,0.8c-0.2,0.2-0.4,0.5-0.6,0.9c0,0.1,0,0.1,0.1,0.1c0,0,0,0,0,0c0,0,0,0,0,0
		c0.1,0,0.1,0,0.1,0.1c-0.1,0.1-0.1,0.2-0.1,0.3c0,0.1,0,0.2,0,0.3c0.1,0.1,0.1,0.2,0.1,0.3c0,0.2,0,0.3,0,0.5c0,0.2,0,0.3-0.1,0.4
		c-0.1,0.2-0.1,0.3,0,0.4c0,0,0.1,0.1,0,0.2c0,0.3-0.1,0.6-0.1,0.8c0,0.1,0,0.2,0,0.2c0,0.1,0,0.2,0,0.4c0,0.2,0,0.4,0.1,0.6
		c0,0.1,0,0.1,0,0.2c-0.1,0.3-0.3,0.5-0.4,0.5c-0.2,0.4-0.3,0.6-0.2,0.7c0,0,0,0.1,0,0.1C21,15.1,21,15.2,21,15.2
		c0,0.1,0,0.2-0.2,0.2c-0.2,0.1-0.2,0.1-0.2,0.1c-0.2,0.1-0.3,0-0.4-0.1C20.1,15.3,20,15.2,20,15c-0.1-0.2-0.1-0.4-0.1-0.6
		c0-0.2,0-0.5,0-0.9c0-0.4,0-0.8,0-0.9c0-0.1,0-0.6,0.1-1.5c0,0,0-0.1,0-0.1c0,0,0-0.1,0-0.1c0-0.1,0-0.2-0.1-0.2
		c-0.1,0-0.1,0-0.1-0.1c-0.1-0.1-0.2-0.2-0.4-0.1c-0.1,0-0.1,0.1-0.2,0c-0.1-0.1-0.1-0.2-0.1-0.2c0.1-0.1,0.1-0.3,0.1-0.3
		c0-0.1,0.1-0.1,0.1-0.2c0-0.1,0-0.2,0-0.2c0-0.1,0.1-0.3,0.3-0.5c0,0,0.1-0.1,0.2-0.3c0,0,0-0.1,0-0.1c0-0.1,0-0.2,0.1-0.2
		c0.2-0.1,0.3-0.3,0.3-0.5c0-0.7,0.1-1.2,0.1-1.4c0-0.1,0-0.2,0-0.3c0-0.2,0-0.3,0-0.3c0.1-0.5,0.2-1.3,0.4-2.4c0,0,0.1-0.2,0.1-0.5
		l0-0.1c0-0.1,0-0.1,0-0.1c0,0-0.1,0-0.1,0c-0.1,0.1-0.2,0.1-0.2,0.2c-0.2,0.2-0.4,0.3-0.6,0.5c-0.2,0.2-0.4,0.4-0.5,0.7
		c0,0.1,0,0.1-0.1,0.1c0,0.1-0.1,0.1-0.2,0.1c0,0-0.1,0-0.1,0c-0.1,0-0.2,0-0.2-0.1c0-0.2,0-0.4,0.1-0.6c0.1-0.1,0.1-0.2,0.2-0.3
		c0.2-0.2,0.3-0.5,0.4-0.8c0.1-0.2,0.2-0.5,0.5-0.8c0,0,0,0,0.1-0.1c0,0,0.1,0,0.1,0c0,0,0,0,0,0.1c-0.2,0.2-0.2,0.3-0.2,0.3
		c0,0,0,0.1,0,0.1c0,0,0,0,0.1,0c0.1,0,0.3-0.1,0.4-0.2c0.1-0.1,0.1-0.1,0.2-0.2c0,0,0.3-0.2,0.9-0.5c0.1,0,0.2-0.1,0.2-0.2
		c0,0,0.1-0.1,0.2-0.3c0.1-0.1,0.1-0.2,0.1-0.3c0,0,0.1-0.1,0.1-0.1C22.9,0,23.2,0,23.5,0c-0.2,0-0.3,0.1-0.3,0.1
		c-0.2,0-0.2,0.1-0.3,0.2c0,0,0,0.1-0.1,0.1c0,0.1-0.1,0.1-0.2,0c0,0-0.1,0-0.1,0c0,0,0,0,0,0.1c0,0.1,0,0.2,0.1,0.2
		c0.1,0,0.2,0,0.2,0c0.1,0,0.2,0,0.4,0c0.2,0,0.3,0,0.4,0c0.2,0,0.5,0,0.7,0c0.2,0,0.3,0,0.4,0.1l0.2,0c0.5,0.1,0.8,0.2,1.1,0.4
		c0,0,0.1,0.1,0.4,0.2c0,0,0-0.1,0-0.2c0-0.1,0-0.1,0-0.1c0.1,0.1,0.1,0.2,0.1,0.3c0,0.1,0,0.2,0.1,0.3c0.1,0.2,0.2,0.2,0.2,0.2
		S26.8,1.9,26.7,2.1z M21.1,11.7c0.1-0.1,0.1-0.4,0-0.7c0,0,0,0,0,0c0,0-0.1,0-0.1,0c-0.1,0.1-0.1,0.2,0,0.4c0,0,0,0.1,0.1,0.2
		C21,11.5,21.1,11.6,21.1,11.7L21.1,11.7C21,11.8,20.9,12,21,12.3c0,0,0,0,0,0.1c0,0,0,0.1,0.1,0c0,0,0,0,0.1-0.1c0,0,0-0.1,0-0.1
		c0-0.1,0-0.2,0-0.4C21.1,11.8,21.1,11.8,21.1,11.7L21.1,11.7z M21,10.5c-0.1,0-0.1,0-0.1,0.1c0,0.1,0,0.1,0.1,0.1
		c0.1,0,0.1,0,0.1-0.1C21.1,10.5,21.1,10.5,21,10.5z M21.1,9.8C21,9.9,21,10,21,10c0,0,0,0.1,0,0.1c0,0,0,0.1,0,0.1c0,0,0.1,0,0.1,0
		C21.1,10,21.2,10,21.1,9.8L21.1,9.8L21.1,9.8L21.1,9.8c0-0.1,0-0.2,0-0.2c0,0,0,0,0,0c0,0,0,0-0.1,0C21,9.7,21,9.8,21.1,9.8
		L21.1,9.8z M24.8,2.5C25,2.5,25,2.4,25,2.3c0-0.1,0-0.2-0.1-0.2C24.7,2,24.6,2,24.5,1.9c-0.3-0.1-0.7-0.2-1.1-0.2
		c-0.2,0-0.4,0-0.9,0.1c0,0-0.1,0-0.1,0.1c0,0.1,0,0.2,0,0.2c0,0,0,0.1,0,0.1c-0.1,0-0.1,0.1-0.2,0.1c-0.1,0-0.2,0.1-0.2,0.3
		c0,0.1,0,0.2,0,0.2c0,0,0,0.1-0.1,0.1c-0.1,0-0.2,0.2-0.2,0.4c0,0,0,0,0,0c0,0,0,0,0,0c0,0,0.1-0.1,0.1-0.1C22,3.1,22,3,22,3
		c0,0,0.1,0,0.1,0c0,0,0.1,0,0.1,0c0,0,0.1,0,0.1-0.1c0.1,0,0.1,0,0.1-0.1c0.1,0,0.2-0.1,0.2-0.1c0,0,0,0,0.1,0c0,0,0,0,0,0.1
		c0,0,0,0-0.1,0c-0.2,0.1-0.5,0.3-0.9,0.5c-0.1,0.1-0.2,0.2-0.2,0.3c0,0.2,0,0.3,0,0.2c-0.1,0.5-0.1,0.9-0.2,1.3c0,0.1,0,0.1,0,0.1
		c-0.1,0.6-0.1,1.1-0.2,1.5c0,0.1,0,0.1,0,0.2c0,0,0,0.1,0,0.1c0,0,0.1,0,0.1-0.1c0-0.1,0-0.1,0-0.2c0-0.2,0.1-0.4,0.2-0.6
		c0.1-0.2,0.1-0.3,0.1-0.5c0-0.2,0.1-0.3,0.3-0.2c0.1,0,0.1,0.1,0.1,0.1C21.9,5.9,21.9,6,21.9,6c0,0.1,0,0.2,0,0.3
		c0,0.1-0.1,0.2-0.1,0.3c0,0.2,0,0.3,0,0.3l0.1,0c0.2-0.3,0.4-0.4,0.6-0.5c0.1,0,0.2-0.1,0.2-0.2c0.1-0.2,0.1-0.2,0.2-0.3
		c0,0,0.1-0.1,0.1-0.2c0-0.1,0.1-0.2,0.2-0.3c0.5-0.4,0.9-0.9,1.2-1.4c0.2-0.3,0.2-0.4,0.2-0.4c0.1-0.1,0.2-0.3,0.2-0.5
		c0.1-0.2,0-0.3-0.1-0.4c0,0,0,0,0,0S24.8,2.5,24.8,2.5z M21.7,14.7C21.7,14.7,21.7,14.7,21.7,14.7l0,0.1
		C21.6,14.7,21.6,14.7,21.7,14.7C21.6,14.7,21.7,14.6,21.7,14.7z M22.9,2C22.9,1.9,22.9,1.9,22.9,2c0.1,0.2,0,0.2-0.1,0.2
		c0,0-0.1,0,0,0C22.8,2,22.8,2,22.9,2z M23.5,2.6c-0.1,0.1-0.2,0.1-0.4,0.1C23.2,2.7,23.3,2.6,23.5,2.6z M25,1.7
		c0,0.1,0.2,0.1,0.4,0.2c-0.1-0.2-0.2-0.3-0.3-0.3C25.1,1.6,25.1,1.6,25,1.7C25,1.6,25,1.7,25,1.7z M25.5,4c0.1,0,0.2-0.1,0.2-0.2
		l0,0c0,0,0,0,0,0C25.6,3.8,25.5,3.9,25.5,4C25.5,4,25.5,4,25.5,4C25.5,4,25.5,4,25.5,4C25.5,4,25.5,4,25.5,4z M25.8,3.6
		c0.1,0,0.1-0.1,0.1-0.2l0,0c0,0,0,0,0,0C25.8,3.4,25.8,3.5,25.8,3.6C25.8,3.5,25.8,3.5,25.8,3.6C25.8,3.6,25.8,3.6,25.8,3.6
		C25.8,3.6,25.8,3.6,25.8,3.6z"/>
	<path class="st0" d="M38.2,13.1C38.2,13.1,38.3,13.1,38.2,13.1C38.3,13.2,38.3,13.2,38.2,13.1c0.1,0.1,0,0.1,0,0.1l0,0
		c0,0-0.1,0.1-0.1,0.1c0,0,0,0,0,0c0,0,0,0,0,0c0,0,0,0,0,0c0,0-0.1,0.1-0.1,0.2c0,0,0,0.1-0.1,0.2c0,0,0,0,0,0.1c0,0,0,0,0.1,0
		c0,0,0,0,0.1-0.1c0,0,0-0.1,0.1-0.1c0,0,0,0,0.1,0c0,0,0,0,0,0.1c0,0.1,0,0.1-0.1,0.1c-0.1,0.1-0.1,0.1-0.2,0.2
		c-0.1,0.1-0.1,0.1-0.2,0.2c0,0.1-0.2,0.3-0.4,0.6c-0.4,0.5-0.8,1-1.3,1.4c-0.2,0.2-0.5,0.3-0.7,0.5c-0.1,0-0.1,0.1-0.2,0.1
		c-0.1,0-0.1,0.1-0.2,0.1l-0.1,0c0,0-0.1,0-0.1,0c-0.1,0-0.2,0.1-0.3,0.1c-0.3,0.1-0.7,0.1-1,0c-0.3,0-0.6-0.1-0.9-0.3
		c-0.2-0.1-0.4-0.2-0.4-0.2c-0.1,0-0.1-0.1-0.2-0.1c0,0-0.1-0.1-0.2-0.1c-0.1,0-0.2-0.1-0.3-0.2c0,0,0.1,0,0.1,0.1
		c-0.1-0.1-0.2-0.2-0.4-0.3c-0.1-0.1-0.2-0.2-0.2-0.3c-0.1-0.3-0.2-0.5-0.2-0.5c0,0-0.1-0.1-0.1-0.1c0,0,0,0,0-0.1v0l0,0
		c-0.1-0.4-0.2-0.7-0.3-0.8c0,0,0-0.1-0.1-0.2c0,0,0-0.1,0-0.1c0,0,0-0.1,0-0.1c0,0,0,0,0,0c0,0,0,0,0,0c0,0,0-0.1,0-0.2
		c0-0.1-0.1-0.2-0.1-0.3c0,0,0-0.3-0.1-1c0-0.1,0-0.1-0.1-0.2c0-0.1,0-0.2-0.1-0.2c0,0,0,0,0,0c0,0,0,0,0,0.1c0,0.3,0,0.5,0,0.5
		c0,0.1,0,0.3,0,0.5c0,0,0,0,0,0s0,0-0.1,0c0,0,0-0.1,0-0.1c0-0.1,0-0.1,0-0.2c0-0.1,0-0.2,0-0.2c0-0.1,0-0.1-0.1-0.2
		c0.1,0.1,0.1,0.2,0,0.3c0,0,0,0.1-0.1,0.1c0,0-0.1,0-0.1-0.1c0-0.1,0-0.1,0-0.1c0.1,0,0.1-0.1,0.1-0.2l0,0c0,0-0.1-0.1-0.1-0.1
		c0,0,0,0,0.1,0c0.1,0,0.1,0,0.1-0.1c0-0.1,0-0.1,0-0.2c0-0.1,0-0.1-0.1-0.1c0,0,0,0-0.1,0c0-0.1,0-0.1,0-0.1c0,0,0,0,0.1,0
		c0,0,0.1,0,0.1-0.1c0-0.1,0-0.1,0-0.2c0-0.1,0-0.2-0.1-0.1c0,0,0,0.1,0,0.1c0,0,0,0.1,0,0.1c0,0,0,0,0,0s0,0,0,0c0,0,0-0.1,0-0.1v0
		l0-0.1l0-0.2c0-0.1,0-0.3,0-0.4c0,0,0-0.1,0-0.2c0,0,0,0,0-0.1c0,0,0,0,0-0.1c0,0,0-0.1,0.1-0.1c0,0,0-0.1,0-0.1c0-0.1,0-0.1,0-0.2
		c0-0.1,0-0.2,0.1-0.2c0.1-0.1,0.1-0.1,0-0.2c0-0.1,0-0.1,0-0.2c0,0,0-0.1,0-0.1c0-0.1,0-0.2,0.1-0.3c0,0,0-0.1,0-0.1
		c0-0.1,0.1-0.2,0.1-0.3l0-0.1l0,0l0,0c0,0,0,0,0,0c0,0,0,0,0,0c0,0,0,0,0,0c0,0,0-0.1,0.1-0.1c0.1-0.1,0.2-0.3,0.3-0.5
		c0,0,0-0.1,0.1-0.2c0,0,0,0,0.1,0c0,0.1,0.1,0,0.1,0C31,7.2,31,7.1,31,7c0.1-0.1,0.1-0.2,0.1-0.2c0-0.1,0-0.1,0.1-0.1
		c0.1,0,0.1-0.1,0.1-0.2c0.1-0.2,0.1-0.4,0.2-0.5c0-0.1,0.1-0.3,0.3-0.8c0,0,0-0.1,0.1-0.2c0-0.1,0-0.1,0.1-0.2
		c0.2-0.7,0.5-1.2,0.7-1.6c0,0,0-0.1,0.1-0.2C32.8,3,32.8,3,32.8,3c0,0,0.1-0.1,0.1-0.1C33,2.8,33,2.7,33.1,2.7
		c0.2-0.3,0.5-0.6,0.7-0.8c0,0,0.1-0.1,0.1-0.1c0-0.1,0.1-0.1,0.1-0.2c0.1,0,0.1-0.1,0.2-0.1c0.1,0,0.2-0.1,0.3-0.1
		c0.2-0.1,0.3-0.1,0.3-0.1l-0.1,0c0,0,0,0-0.1,0c0,0,0-0.1,0.1-0.1c0.2-0.1,0.3-0.1,0.4-0.1c0,0,0.1,0,0.1,0c0.1,0,0.1,0,0.1,0
		c0,0,0.1,0,0.1,0c0.1,0,0.1,0,0.1,0h0v0V0.9c-0.3,0-0.4,0-0.4,0c-0.2,0-0.3,0.1-0.4,0.1c-0.4,0.2-0.6,0.3-0.6,0.2
		c0,0,0.1-0.1,0.1-0.1c0.2-0.1,0.4-0.2,0.5-0.2c0.2-0.1,0.4-0.1,0.6-0.1c0,0,0.1,0,0.1,0h0h0h0l0,0h0.1c0.1,0,0.1,0,0.2,0
		c0.2,0,0.3,0,0.4,0c0.1,0,0.2,0,0.3,0.1c0.1,0,0.2,0.1,0.3,0.2L37,1l0,0l0,0c0.1,0.1,0.2,0.2,0.2,0.3c0,0,0,0.1,0,0.1
		c0,0,0,0-0.1,0c-0.1,0-0.1-0.1-0.2-0.2l0,0l-0.1-0.1c-0.1-0.1-0.2-0.1-0.4-0.2c-0.1,0-0.2,0-0.3-0.1c0,0-0.2,0-0.5,0l0,0.1l0,0.1h0
		c0,0,0,0,0,0c0,0,0,0,0,0c0,0,0,0,0.1,0c0,0,0,0,0.1,0c0,0,0.1,0,0.3,0c0.1,0,0.3,0.1,0.4,0.1c0,0,0,0,0.2,0.1l0,0l0,0
		c0.1,0,0.1,0.1,0.2,0.1c0.1,0.1,0.2,0.3,0.2,0.4c0,0.1,0,0.2,0,0.4c0,0,0,0.1,0,0.1c0,0.1-0.1,0.1-0.1,0c0,0,0,0-0.1,0
		c0,0-0.1,0.1-0.1,0.1c0,0,0,0,0,0c0,0,0,0,0,0c0-0.1,0-0.2,0-0.1c0-0.1,0-0.1-0.1-0.1c0,0,0,0,0,0c0,0,0,0,0,0c0,0-0.1,0-0.1,0
		c0-0.1,0-0.1-0.1-0.1c0,0,0,0-0.1-0.1l0-0.1c0-0.1,0-0.1-0.1,0c0,0,0,0,0,0c0,0,0,0,0,0c0,0,0,0-0.1,0l0,0c0,0-0.1,0-0.3,0
		c0,0-0.1,0-0.2,0l0,0l0,0h0h0c-0.1,0-0.1,0-0.2,0c0,0,0,0-0.1,0c0,0,0,0-0.1,0l0,0c0,0,0,0,0,0.1l0,0c0,0,0,0,0,0c0,0,0,0,0,0
		c0,0,0,0.1-0.1,0.1l0,0c0,0,0,0,0,0c0,0,0,0,0,0h0c0,0,0,0,0,0c0,0.1-0.1,0.1-0.1,0.1c0,0,0,0,0,0c0,0,0,0.1,0,0.1
		c0,0-0.1,0.1-0.1,0.2c0,0-0.1,0.1-0.2,0.2c0,0,0,0,0,0c0,0-0.1,0-0.1,0.1c0,0,0,0.1-0.1,0.3c0,0,0,0.1-0.1,0
		c-0.1,0-0.1-0.1-0.1-0.2c0,0,0,0,0.1-0.1c0,0,0.1,0,0.1-0.1c0-0.1,0.1-0.3,0.3-0.4c0.1,0,0.1-0.1,0.1-0.1c0,0,0,0,0,0
		c0,0,0,0,0-0.1c0,0,0,0,0,0c0,0,0,0,0,0c0,0,0,0-0.1,0l-0.1,0.1c0,0,0,0-0.1,0.1c0,0.1-0.1,0.1-0.1,0.2c0,0,0,0-0.1,0.1
		c-0.1,0.1-0.1,0.1-0.1,0.2c0,0.1-0.1,0.1-0.1,0.2c0,0-0.1,0-0.1,0.1c0,0,0,0.1-0.1,0.2c0,0.1-0.1,0.1-0.1,0.1c0,0,0,0.1-0.1,0.1
		c0,0-0.1,0-0.1,0.1c0,0.1-0.1,0.2-0.1,0.2c0,0.1,0,0.2-0.1,0.2c0,0,0,0,0,0l0,0c0,0.1-0.1,0.1-0.1,0.2c0,0.1,0,0.2-0.1,0.2
		c0,0,0,0.1,0,0.1c0.1,0.1,0.1,0.1,0.1,0.1c0,0,0,0,0,0c0,0,0,0,0,0c0,0,0.1-0.1,0.1-0.1c0,0,0,0,0,0c0,0,0,0,0,0.1
		c0,0.1,0,0.2-0.1,0.3c0,0,0,0-0.1,0c0,0,0,0-0.1,0c0,0,0,0-0.1,0c0,0,0,0,0,0c0,0.1,0,0.1,0.1,0.2c0,0,0.1,0.1,0.1,0.1
		c0,0,0,0.1-0.1,0.2l-0.1,0c-0.1,0-0.1,0.1,0,0.1c0.1,0.1,0.1,0.2,0,0.2c0,0,0,0.1-0.1,0.1c-0.1,0-0.1,0-0.1,0.1
		c0,0.1,0,0.1-0.1,0.2c-0.1,0.1,0,0.1,0,0.1c0,0,0,0,0,0.1c0,0,0,0-0.1,0.1c0,0,0,0,0,0.1l0,0.2c0,0,0,0.1,0,0.1c0,0,0,0.1,0,0.1
		C33,6.9,33,7,33,7.1c0,0.1,0,0.1-0.1,0.2c0,0.1-0.1,0.1-0.1,0.1c0,0.1-0.1,0.1-0.1,0.1c0,0.1,0.1,0.2,0.1,0.1c0,0,0,0.1-0.1,0.1
		c0,0-0.1,0-0.1,0c0,0,0,0-0.1,0c0,0,0,0,0-0.1c0-0.1,0.1-0.2,0.1-0.2c0,0,0,0,0-0.1c0,0,0,0-0.1,0c0,0-0.1,0.1-0.1,0.1
		c0,0,0,0.1,0,0.1c0,0-0.1,0-0.1,0.1c0,0.1,0,0.1,0,0.1c0,0,0,0,0.1,0c0,0,0,0,0.1,0c0.1,0,0.2,0.1,0.2,0.2c0,0.1,0,0.1-0.1,0.1
		c-0.1,0-0.2,0-0.2-0.1c0,0,0,0,0-0.1c0,0,0,0,0-0.1c0,0,0-0.1-0.1-0.1h0c0,0,0,0,0,0c0,0,0,0,0,0c0,0,0,0.1,0.1,0.4
		c0.1,0,0.1,0.1,0.2,0.1c0.1,0,0.1,0.1,0.1,0.1l0,0.1l0,0.1c0,0,0,0.1,0,0.1c0,0.1,0,0.1-0.1,0.2c0,0,0,0.1,0,0.2
		c0,0.1,0,0.1-0.1,0.1c-0.1,0.1-0.1,0-0.2,0c-0.1-0.1-0.1-0.1-0.1-0.2c0,0,0,0,0,0c0,0,0,0,0,0c0,0,0-0.1-0.1-0.1c0,0,0,0-0.1,0l0,0
		c0,0,0,0.1,0,0.1c0,0.1,0,0.1-0.1,0.2l0,0C32,9,32,9,32,9c0,0,0,0.1-0.1,0.1c-0.1,0-0.1,0-0.1,0.1c0,0,0,0.1,0,0.2c0,0,0,0.1,0,0.1
		c0.1,0.1,0.1,0.1,0,0.2c-0.1,0.1-0.1,0.1,0,0.2c0,0,0,0,0,0.1c0,0,0,0,0,0c0,0,0.1,0,0.1,0c0,0,0,0,0.1,0c0,0,0,0-0.1,0.1
		c0,0,0,0,0,0c0,0.1,0.1,0.1,0.2,0c0.1,0,0.1,0,0.1,0c0,0,0,0.1,0,0.1c0,0,0,0.1-0.1,0.1c0,0-0.1,0.1-0.1,0.1c0,0-0.1,0-0.1-0.1
		c0-0.1-0.1-0.1-0.1-0.1c0,0,0,0-0.1-0.1c0,0,0-0.1-0.1-0.1c0,0.1,0,0.2,0,0.2c0,0,0,0,0,0c0,0,0,0,0,0c0.1,0.1,0.1,0.2,0.2,0.2
		c0,0,0.1,0.1,0.1,0.1v0.1c0,0,0,0,0.1,0c0,0,0.1,0,0.1,0c0,0.1,0,0.1-0.1,0.1c-0.1,0-0.1,0-0.1,0.1c0,0,0,0,0,0.1c0,0,0,0.1,0,0.1
		c0,0,0,0.1,0.1,0.1c0.1,0.1,0.1,0.1,0.1,0.3c0,0.1,0,0.3,0,0.6c0,0.1,0,0.1,0,0.1c0,0.1,0,0.1,0,0.2c0,0.1,0,0.1,0,0.2
		c0,0,0,0.1,0,0.1c0.1,0.1,0.1,0.1,0,0.2c0,0,0,0.1,0,0.1l0,0c0,0,0,0,0,0c0,0,0,0,0,0l0,0h0c0,0,0,0.1,0,0.1c0,0.1,0,0.1,0.1,0.2
		c0,0,0,0.1,0,0.1c0,0.1,0,0.1,0,0.2c0,0.1,0,0.2,0,0.2c0,0,0,0,0,0c0.1,0.1,0.1,0.3,0.1,0.3c0,0,0,0,0,0c0,0,0.1,0.1,0.1,0.2
		c0,0,0,0.1,0,0.1c0,0,0,0-0.1,0c0,0,0,0-0.1,0c-0.1,0-0.1,0-0.2-0.1l0,0c0,0-0.1,0.1,0,0.1c0,0.1,0.1,0.1,0.2,0.1c0,0,0,0,0,0
		c0,0,0,0,0,0c0.1,0,0.1,0,0.2,0c0,0.1,0.1,0.1,0.1,0.1c0,0,0,0,0,0l0,0v0c0,0.1,0.1,0.1,0.2,0.1c0.1,0,0.2,0.1,0.3,0.2
		c0.1,0.1,0.1,0.1,0.2,0.1c0,0,0,0,0,0c0.1,0,0.2,0.1,0.2,0.1l0,0c0,0.1,0,0.1,0.1,0.1c0,0,0.1,0,0.1,0l0,0h0h0l0,0l0,0v0
		c0.1,0,0.1,0,0.2,0c0,0,0,0,0.1,0c0,0,0,0,0.1,0c0,0,0,0,0.1,0c0.1,0,0.1,0,0.2,0c0,0,0.1,0,0.1,0c0.1-0.1,0.3-0.1,0.4-0.2
		c0.1-0.1,0.2-0.2,0.2-0.2c0,0,0,0,0.1-0.1c0.1,0,0.2-0.1,0.3-0.2c0-0.1,0.1-0.1,0.2-0.3c0.1-0.2,0.2-0.3,0.2-0.4c0,0,0-0.1,0-0.1
		c0,0,0.1-0.1,0.2-0.2c0,0,0-0.1,0-0.2c0-0.1,0-0.1,0.1-0.2c0.1,0,0.1-0.1,0.1-0.1c0-0.1,0-0.1,0-0.2c0,0,0,0,0-0.1c0,0,0,0,0-0.1
		c0,0,0,0,0-0.1c0,0,0,0-0.1,0.1c0,0,0,0,0,0.1l-0.1,0.1L36.5,13c0,0,0,0-0.1,0c0,0,0,0,0-0.1c0,0,0-0.1,0.1-0.1c0,0,0-0.1,0.1-0.1
		c0.1-0.1,0.1-0.1,0-0.2c-0.1-0.1-0.1-0.2,0-0.4c0.1-0.1,0.1-0.2,0-0.4c0-0.1,0-0.1,0.1-0.1c0,0,0.1,0,0.1-0.1c0-0.1,0-0.3,0-0.4
		c0-0.1,0-0.1,0-0.2c0,0,0,0,0-0.1c0,0,0,0,0.1,0c0,0,0,0,0,0c0,0,0,0.1,0,0.1c0,0.1,0,0.1,0.1,0.2l0,0c0,0,0-0.1,0-0.2
		c0-0.1,0-0.2,0-0.2c0,0,0-0.1,0-0.2c0,0,0,0,0,0c0,0,0,0,0.1,0c0,0,0,0.1,0.1,0.3c0,0.2,0,0.2,0.1,0.2c0,0,0-0.1,0-0.3l0-0.4
		c0-0.1,0-0.3-0.1-0.4c0-0.1,0-0.2,0-0.2h0c0,0,0,0,0,0L36.9,10c0,0-0.1,0.1-0.2,0.1c0,0-0.1,0.1-0.3,0.1c0,0,0,0-0.1,0c0,0,0,0,0,0
		c0,0,0,0,0,0c0,0,0,0,0,0c0,0,0,0,0,0c0,0-0.1,0-0.1,0c0,0,0,0,0,0l0,0c0,0,0,0-0.1,0c0,0,0,0-0.1,0c0,0,0,0,0,0c0,0,0,0,0,0
		c0,0-0.1,0-0.1,0c0,0-0.1,0.1-0.1,0.1c0,0-0.1,0-0.1,0c0,0,0,0,0,0.1v0c-0.1,0-0.1,0.1-0.2,0c0,0,0,0,0,0l0,0.1c0,0,0,0-0.1,0
		c0,0,0,0,0,0c0,0,0,0,0,0c-0.1,0-0.1,0-0.1,0l0,0c-0.1,0-0.1,0-0.1,0c0,0,0,0-0.1,0c0,0,0,0,0,0c0,0,0,0,0,0c0,0-0.1,0-0.1,0.1
		c0,0-0.1,0-0.1,0.1c0,0-0.1,0-0.1,0.1c0,0,0,0-0.1,0c0,0-0.1,0-0.1,0c0,0-0.1,0.1-0.1,0.1h0h0c-0.1,0-0.1,0.1-0.2,0.1
		c0,0-0.1,0-0.2,0.1l0,0c0,0,0,0,0,0c0,0,0,0-0.1,0h0c0,0,0,0,0,0c0,0-0.1,0-0.1,0.1c0,0,0,0-0.1,0.1c-0.1,0-0.1,0.1-0.1,0.1
		c0,0,0,0,0,0c0,0,0,0,0,0c0,0,0,0,0,0c0,0,0,0,0,0c0,0,0.1-0.1,0.2-0.2c0,0,0.1-0.1,0.2-0.1c0.1,0,0.1-0.1,0.2-0.1c0,0,0,0,0.1,0
		c0,0,0,0,0.1,0l0,0c0,0,0,0,0.1,0c0,0,0,0,0,0v0c0,0,0,0,0,0c0,0,0,0,0.1,0c0,0,0,0,0,0c0,0,0,0,0.1,0c0,0,0,0,0.1,0c0,0,0,0,0.1,0
		c0,0,0,0,0,0c0,0,0,0,0,0c0,0,0,0,0,0c0,0,0.1-0.1,0.1-0.1c0,0,0,0,0.1,0h0c0,0,0,0,0,0c0,0,0,0,0,0c0,0,0,0,0-0.1c0,0,0.1,0,0.1,0
		c0,0,0,0,0,0c0,0,0,0,0.1,0c0.1,0,0.2-0.1,0.2-0.1c0,0,0.1-0.1,0.1-0.1c0,0,0,0,0,0c0,0,0,0,0.1,0c0,0,0,0,0,0c0,0,0.1,0,0.1,0
		c0,0,0.1,0,0.1,0c0,0,0,0,0.1,0c0,0,0,0,0,0c0,0,0.1,0,0.1,0c0,0,0,0,0,0c0,0,0,0,0,0c0,0,0,0,0,0c0,0,0-0.1,0-0.1c0,0,0,0,0,0
		c0,0,0,0,0,0c0,0,0,0,0,0c0,0,0,0,0.1,0l0.1,0c0,0,0,0,0,0c0,0,0,0,0,0l0,0c0,0,0,0,0,0c0,0-0.1,0-0.1,0l0,0c0,0-0.1,0-0.1,0
		c0,0,0,0-0.1,0c0,0,0,0,0,0c0,0.1,0,0-0.1-0.1c0,0.1,0,0.1,0,0.1h0c0,0.1,0,0.1-0.1,0.1c0,0,0,0,0,0c0,0-0.1,0-0.1,0
		c0,0,0,0-0.1-0.1c0,0-0.1-0.1-0.1,0c0,0,0,0,0,0c0,0,0,0,0,0c0,0,0,0,0,0c0,0,0,0,0,0c0,0,0,0,0,0c0,0,0,0,0,0c0,0,0,0.1,0.1,0.1
		c0,0,0,0.1,0,0.1c0,0-0.1,0-0.1,0.1c0,0,0,0-0.1,0c0,0,0,0-0.1,0c0,0-0.1,0-0.1,0c0,0,0,0,0,0c0,0,0,0,0,0c0,0,0,0,0,0s0,0-0.1,0
		c0,0,0,0,0,0c0,0,0,0,0,0c0,0-0.1,0-0.1,0l0,0c0,0-0.1,0-0.1,0c0,0,0,0-0.1,0.1c0,0,0,0,0,0c0,0,0,0,0-0.1c0,0,0,0,0,0c0,0,0,0,0,0
		c0,0,0,0,0,0.1c0,0,0,0,0,0.1l-0.1,0c0,0,0,0-0.1,0l0,0c-0.1,0-0.1,0,0,0.1c0,0.1,0,0.1,0,0.1c0,0,0,0-0.1,0c0,0,0,0,0,0
		c0,0,0,0,0,0c0,0,0,0,0,0c0,0,0,0,0,0c0,0,0,0,0,0c0,0,0,0,0,0c0,0,0,0,0,0c0,0,0,0,0,0v0c0,0,0,0,0,0c0,0,0,0,0,0l0,0c0,0,0,0,0,0
		c0,0,0,0,0,0c0,0,0,0,0,0c0,0,0,0,0,0c0,0-0.1,0-0.1,0.1c0,0,0,0,0,0.1c0,0,0,0,0,0c0,0,0,0,0,0v0c0,0,0,0,0,0c0,0,0,0,0,0l0-0.1
		c0,0,0,0,0,0c0,0-0.1,0-0.1,0.1c0,0,0,0,0,0.1c0,0,0,0,0,0c0,0,0,0,0,0c0,0,0,0,0,0c0,0-0.1,0-0.1,0v0l0,0c0,0,0,0,0,0.1
		c0,0,0,0,0,0c0,0,0,0,0,0l0,0c0,0,0,0,0,0c0,0,0,0,0,0c0,0-0.1-0.1-0.1-0.1c0,0,0,0,0,0.1c0,0,0,0,0,0.1c0,0,0,0.1,0,0.1l0,0
		c0,0,0,0-0.1,0c0,0,0,0,0,0c0,0,0,0.1,0,0.1c0,0,0,0,0,0c0,0,0,0,0,0c0,0,0,0,0,0l0,0c0,0,0,0,0,0c0,0,0,0,0,0c0,0,0,0,0,0
		c0,0,0,0,0,0v0c0,0,0,0,0,0c0,0,0,0,0,0l0,0c0,0,0,0,0,0c0,0,0,0,0,0c0,0,0,0,0,0c0,0,0,0,0,0c0,0,0,0,0,0c0,0,0,0,0,0c0,0,0,0,0,0
		c0,0,0,0,0,0c0,0,0,0,0,0.1c0,0,0,0,0,0c0,0,0,0,0,0v0c0,0,0,0,0,0l0,0.1c0,0,0,0,0,0c0,0,0,0,0,0c0,0,0,0,0-0.1c0,0,0,0,0,0
		c0,0,0,0,0-0.1c0,0,0,0,0,0c0,0,0,0,0,0c0,0,0,0,0,0v0c0,0,0-0.1,0-0.1c0,0,0,0,0,0c0,0,0,0,0,0v0l0,0c0,0,0,0.1,0,0.1c0,0,0,0,0,0
		c0,0,0,0,0,0c0,0,0,0,0-0.1c0,0,0,0,0,0c0,0,0,0,0,0c0,0,0-0.1,0-0.1h-0.1v0c0,0,0,0,0,0c0,0,0,0,0,0c0,0,0,0,0,0l0,0c0,0,0,0,0,0
		l0,0c0,0,0,0,0,0l0,0c0-0.1,0-0.1,0-0.1c0,0,0,0,0,0c0-0.1,0,0,0.1,0c0,0,0,0,0,0.1c0,0,0,0,0-0.1c0,0,0,0,0,0c0,0,0,0,0,0
		c0,0,0,0-0.1,0c0,0,0,0,0,0l0,0c0,0,0.1,0,0.1,0.1c0,0,0,0,0,0c0,0,0,0,0,0v0c0,0,0-0.1,0-0.1c0,0,0,0,0,0c0,0,0,0,0,0c0,0,0,0,0,0
		l0,0c0,0,0-0.1,0,0c0,0,0,0,0,0v0l0,0c0,0,0,0,0,0c0,0,0,0,0,0l0,0c0,0,0,0,0,0l0,0c0,0,0,0,0,0l0,0c0,0,0-0.1,0,0c0,0,0,0,0,0
		c0,0,0,0,0,0c0,0,0,0,0,0c0,0,0,0,0-0.1l0,0c0,0,0,0,0,0c0,0,0,0,0-0.1c0,0,0,0,0.1,0c0,0,0.1,0.1,0.1,0.1c0,0,0,0,0,0c0,0,0,0,0,0
		c0,0.1,0,0.1-0.1,0.1c0,0,0,0,0,0.1c0,0,0,0,0,0c0,0,0,0,0,0c0,0,0,0,0,0c0,0,0,0,0,0c0,0,0-0.1,0,0c0,0,0,0,0,0c0,0,0,0,0-0.1
		c0,0,0,0,0,0h0l0,0c0,0,0,0,0,0c0,0,0,0,0-0.1c0,0,0,0,0,0c0,0,0,0,0,0c0,0,0,0,0,0c0,0,0,0,0-0.1c0-0.1,0-0.1,0-0.1c0,0,0,0,0,0
		l0,0c0,0,0,0,0,0c0,0,0-0.1,0-0.1c0,0,0,0,0-0.1c0,0,0,0-0.1-0.1c0-0.1-0.1-0.1,0-0.1c0,0,0,0,0,0c0,0,0,0,0,0c0,0,0,0,0-0.1
		c0-0.1,0-0.1,0-0.1c0,0,0,0,0,0c0,0,0,0,0.1,0.1c0,0,0,0,0,0c0,0,0-0.1,0-0.1c0,0,0-0.1,0-0.1c0,0,0,0,0,0l0.1,0c0,0,0,0,0,0
		c0-0.1,0-0.1,0-0.1c0,0,0,0,0,0c0.1,0.1,0.1,0.1,0.1,0c0,0,0,0,0,0c0,0,0,0,0-0.1c0,0,0,0,0,0c0,0,0.1,0,0.1,0l0-0.1c0,0,0,0,0,0
		c0,0,0,0,0,0c0,0,0.1,0,0.1,0c0,0,0,0,0,0c0,0,0,0,0.1,0c0,0,0,0,0.1,0.1c0-0.1,0-0.1,0-0.1c0,0,0,0,0,0c0,0,0,0,0.1,0.1
		c0,0,0,0,0,0c0,0,0,0,0,0c0,0,0,0,0,0.1c0,0,0,0,0,0c0,0,0,0,0,0c0,0,0,0,0,0c0,0,0,0,0,0c0,0,0,0,0,0c0,0,0,0,0,0c0,0,0-0.1,0-0.1
		c0,0,0,0,0-0.1c0,0,0,0,0-0.1c-0.1-0.1-0.1-0.2-0.1-0.2c0,0,0,0,0.1,0c0.1,0.1,0.1,0.1,0.1,0.2c0,0,0,0,0,0c0,0,0,0,0,0
		c0,0,0,0.1,0.1,0.1c0,0,0,0,0,0l0,0c0,0,0,0,0,0c0,0,0.1,0,0.1,0c0,0,0,0,0,0c0,0,0,0,0,0c0,0,0,0,0,0c0-0.1-0.1-0.2-0.2-0.3
		c0-0.1-0.1-0.1,0-0.1c0,0,0.1,0,0.1,0c0,0,0,0,0,0c0,0,0,0,0,0c0.1,0,0.1,0.1,0.1,0.2c0,0.1,0,0.1,0,0.1c0,0,0,0,0,0c0,0,0,0,0,0
		c0,0,0,0,0,0.1c0,0,0,0,0,0.1c0,0,0,0,0,0c0,0,0,0,0,0c0,0,0,0,0,0v0c0,0,0,0,0,0c0,0.1,0.1,0.1,0.1,0c0,0,0,0,0,0c0,0,0,0,0-0.1
		c0-0.1,0-0.1,0,0c0.1,0,0.1,0,0,0c0,0,0,0,0,0c0,0,0,0,0,0c0,0,0,0-0.1-0.1l0-0.1c0,0,0,0,0,0c0,0,0,0,0,0c0,0,0-0.1-0.1-0.1
		c0,0-0.1-0.1-0.1-0.1c0,0,0,0,0,0c0,0,0,0,0.1,0c0,0,0,0,0.1,0.1c0,0,0,0.1,0,0.1c0,0,0,0.1,0,0.1c0,0,0,0,0,0.1c0,0,0,0.1,0,0.1
		c0,0,0,0,0,0c0,0,0,0,0,0c0-0.1,0-0.1-0.1-0.2c0,0,0-0.1,0-0.1l0,0c0,0,0,0,0-0.1c0,0,0-0.1,0-0.1c0,0,0,0,0.1,0
		c0,0,0.1,0.1,0.1,0.1c0,0,0,0,0,0c0,0,0,0,0,0c0,0,0,0,0-0.1c0,0,0-0.1,0-0.1c0,0,0,0,0,0c0,0,0.1,0,0.1,0c0,0,0.1,0,0.1-0.1
		c0,0,0,0,0,0c0,0,0,0,0,0c0,0,0.1,0,0.1,0c0,0,0,0,0.1,0c0,0,0,0,0,0c0,0,0,0,0.1,0c0,0,0,0,0,0c0,0,0,0,0-0.1c0,0,0,0,0,0
		c0,0,0,0,0.1,0c0,0,0,0,0.1,0h0c0,0,0-0.1,0.1,0c0,0,0,0,0,0c0,0,0,0,0,0c0,0,0,0,0.1,0c0,0,0,0,0,0.1c0,0,0,0,0,0
		c0,0.1,0.1,0.1,0.1,0.2l0,0c0,0,0.1,0.1,0.1,0.1c0,0,0-0.1-0.1-0.2c0,0,0,0,0-0.1C36.2,9.1,36.2,9,36.2,9c0,0,0,0,0-0.1
		c0,0,0,0,0,0c0,0,0,0,0,0c0,0,0-0.1,0.1-0.1c0,0,0.1,0,0,0v0c0,0,0,0,0.1-0.1c0,0,0,0,0,0c0,0,0.1,0,0.1,0c0,0,0,0,0,0
		c0.1,0,0.1,0,0.1,0c0,0,0,0,0.1,0c0,0,0,0,0.1,0c0,0,0,0,0,0c0,0,0.1,0,0.1,0c0,0,0,0,0,0c0,0,0.1,0,0.2,0c0,0,0.1,0,0.1,0
		c0,0,0.1,0,0.1,0c0,0,0,0,0,0c0,0,0,0,0.1,0l0,0c0,0,0,0,0.1,0c0,0,0,0,0,0c0,0,0,0,0,0l0,0v0c0,0,0,0-0.1,0c0,0,0,0.1,0.1,0.1v0
		c0,0,0,0,0,0c0,0,0,0,0,0h0v0C37.7,9,37.8,9,37.8,9c0,0,0,0,0,0c0,0,0,0,0,0c0,0,0,0,0,0c0,0,0,0,0,0l-0.1-0.1v0v0
		c0-0.1,0-0.1,0-0.1v0l0,0l0.1,0c0,0,0,0,0,0c0,0,0,0,0,0c0,0,0,0,0,0c0,0,0,0,0,0c0,0,0,0,0,0c0,0,0,0,0,0c0,0,0,0,0,0c0,0,0,0,0,0
		c0,0,0,0,0,0c0,0,0,0,0.1,0c0,0,0,0,0,0l0,0c0,0,0,0,0,0c0,0,0,0,0,0l0,0c0,0,0,0,0,0c0,0,0,0,0,0c0,0,0,0,0-0.1c0,0,0,0,0,0
		c0,0,0,0,0,0c0,0,0,0,0,0h0c0,0,0,0,0,0c0,0,0,0,0,0c0,0,0,0,0,0c0,0,0,0,0,0c0,0,0,0,0,0c0,0,0,0,0,0c0.2-0.1,0.3-0.1,0.3-0.1
		c0,0,0,0,0.1,0c0,0,0,0,0,0c0,0,0,0,0,0c0,0,0,0,0,0v0c0,0,0,0,0,0c0,0,0,0,0,0c0,0,0,0,0,0v0c0,0,0,0,0,0c0,0,0,0.1,0,0
		c0,0,0,0.1,0,0.1c0,0.1,0,0.1,0,0.2c0,0,0,0,0,0c0,0,0,0,0,0c0,0,0,0,0,0c0,0,0,0,0-0.1c0,0,0,0,0,0.1c0,0,0,0,0,0c0,0,0,0,0,0
		c0,0,0,0.1,0,0.1c0,0,0,0.1,0,0.1c0,0,0,0.1,0,0.1c0,0,0,0,0,0c0,0.1,0,0.1,0,0.1c0,0,0,0,0,0c0,0,0,0-0.1,0c0,0,0,0,0,0
		c0,0,0,0,0,0.1c0,0,0,0,0,0c0,0,0,0,0,0c0,0,0,0-0.1-0.1c0,0,0,0,0,0c0,0,0,0,0,0c0,0,0,0,0,0.1c0,0,0,0,0,0c0,0,0,0,0,0
		c0,0,0,0,0,0.1c0.1,0.1,0.1,0.1,0.1,0.1c0,0,0,0.1,0,0.1l-0.1,0c0.1,0.1,0.1,0.2,0.1,0.3c0.1,0.2,0.1,0.3,0.1,0.4c0,0,0,0.1,0,0.2
		c0,0,0,0.1,0,0.1c0,0.1,0,0.3,0,0.5c0,0.4,0,0.8-0.1,1.2c0,0.2-0.1,0.4-0.1,0.5c0,0,0,0.1,0,0.2L38.2,13.1
		C38.1,13.1,38.1,13.1,38.2,13.1C38.2,13.1,38.2,13.1,38.2,13.1C38.2,13.1,38.2,13.1,38.2,13.1z M29.7,11.7
		C29.7,11.7,29.7,11.7,29.7,11.7C29.6,11.7,29.6,11.7,29.7,11.7C29.6,11.6,29.6,11.6,29.7,11.7C29.7,11.6,29.7,11.6,29.7,11.7z
		 M29.8,13.3C29.9,13.3,29.9,13.3,29.8,13.3c0.1,0.1,0.1,0.2,0,0.3l0,0c0,0,0,0,0,0c0,0,0,0,0,0C29.8,13.5,29.8,13.4,29.8,13.3
		C29.8,13.3,29.8,13.3,29.8,13.3C29.8,13.3,29.8,13.3,29.8,13.3z M29.8,10.5C29.8,10.5,29.8,10.5,29.8,10.5
		C29.8,10.5,29.8,10.5,29.8,10.5C29.8,10.5,29.8,10.5,29.8,10.5C29.8,10.5,29.8,10.5,29.8,10.5z M30,13.3c0,0,0-0.1-0.1-0.1
		c0-0.1,0-0.1,0-0.1c0,0,0-0.1,0.1-0.1c0,0,0.1,0,0.1,0.1c0,0,0,0.1,0,0.1C30.1,13.2,30.1,13.3,30,13.3z M30.1,10c0-0.1,0-0.1,0-0.1
		C30.1,9.9,30.1,9.9,30.1,10C30.1,10,30.1,10.1,30.1,10c-0.1,0.1-0.1,0.3-0.1,0.6c0,0.1,0,0.2,0,0.3c0,0.1,0,0.1,0,0.2
		c0,0,0,0.1,0,0.2c0,0.1,0,0.2,0,0.2c0,0,0,0,0.1,0c0,0,0,0,0,0c0,0,0-0.1,0-0.2c0,0,0-0.1,0-0.1c0,0,0-0.1,0-0.1
		C30.1,10.7,30.1,10.4,30.1,10z M30,14.4C30.1,14.4,30.1,14.4,30,14.4c0.1,0.1,0,0.1,0,0.1l0,0l0,0C30,14.5,30,14.5,30,14.4
		C30,14.5,30,14.4,30,14.4z M30.3,14.3C30.2,14.3,30.2,14.3,30.3,14.3c-0.1-0.1-0.1-0.1-0.1-0.2c0,0,0-0.1-0.1-0.1c0,0,0,0,0-0.1
		c0,0,0-0.1,0-0.1c0,0,0,0,0-0.1l0,0v0c0,0,0,0,0-0.1c0,0,0-0.1,0-0.1c0,0,0-0.1,0-0.1c0,0,0,0,0.1,0c0,0,0,0.1,0,0.1l0,0.1l0,0
		l0,0.1c0,0,0,0,0,0.1l0,0.1c0,0.1,0,0.2,0.1,0.2c0,0,0,0,0,0.1C30.3,14.2,30.3,14.3,30.3,14.3z M30.2,7.9L30.2,7.9L30.2,7.9
		c-0.1-0.1-0.1-0.1,0-0.2c0,0,0,0,0.1,0C30.2,7.8,30.3,7.8,30.2,7.9C30.3,7.8,30.2,7.8,30.2,7.9z M30.2,15.1
		C30.3,15.1,30.3,15.1,30.2,15.1c0.1,0.2,0.2,0.3,0.2,0.5c-0.1-0.1-0.1-0.2-0.2-0.3C30.2,15.2,30.2,15.1,30.2,15.1z M30.4,14.6
		C30.3,14.6,30.3,14.6,30.4,14.6c0,0-0.1-0.1-0.1-0.1c0,0,0,0,0,0c0,0,0,0,0,0L30.4,14.6C30.4,14.5,30.4,14.6,30.4,14.6
		C30.4,14.6,30.4,14.6,30.4,14.6C30.4,14.6,30.4,14.6,30.4,14.6z M30.5,14.9c0,0,0.1,0.1,0.1,0.1l0,0c0,0,0,0,0,0
		C30.5,15,30.5,15,30.5,14.9C30.5,15,30.5,14.9,30.5,14.9C30.5,14.9,30.5,14.9,30.5,14.9C30.5,14.9,30.5,14.9,30.5,14.9z M30.5,7.5
		C30.5,7.5,30.5,7.5,30.5,7.5C30.5,7.5,30.5,7.5,30.5,7.5C30.5,7.5,30.5,7.4,30.5,7.5c0-0.1,0.2-0.4,0.6-1c0,0,0,0,0-0.1
		c0-0.1,0.1-0.1,0.1-0.1c0,0,0,0,0,0c0,0,0,0,0,0c0,0,0,0,0,0l0,0c0,0,0,0,0,0c0,0,0,0,0,0c0,0,0,0,0,0.1c0,0,0,0.1-0.1,0.1
		C31.1,6.6,31,6.7,31,6.8c0,0.1-0.1,0.2-0.2,0.3C30.8,7.1,30.7,7.2,30.5,7.5C30.6,7.4,30.6,7.4,30.5,7.5C30.6,7.4,30.6,7.5,30.5,7.5
		z M30.9,15.8C30.9,15.8,30.9,15.9,30.9,15.8c0,0.1,0.1,0.1,0.1,0.1c0,0,0,0,0,0C30.9,16,30.9,15.9,30.9,15.8
		c-0.1,0-0.1-0.1-0.1-0.1c0,0,0,0,0,0C30.8,15.7,30.8,15.7,30.9,15.8z M31,7.3C31,7.3,31,7.3,31,7.3L31,7.3L31,7.3
		C31.1,7.3,31.1,7.3,31,7.3C31.1,7.3,31.1,7.3,31,7.3z M31.4,11.7c0,0,0,0.1,0,0.1c0,0,0,0.1,0,0.2C31.4,11.8,31.4,11.7,31.4,11.7
		C31.4,11.7,31.4,11.7,31.4,11.7z M31.5,16.4c0.1,0,0.2,0.2,0.4,0.3c0,0,0,0,0,0.1c0,0,0,0,0,0c-0.1,0-0.1-0.1-0.2-0.1
		c0,0-0.1,0-0.1-0.1C31.5,16.5,31.5,16.5,31.5,16.4C31.4,16.5,31.4,16.4,31.5,16.4C31.5,16.5,31.5,16.5,31.5,16.4
		C31.5,16.5,31.5,16.5,31.5,16.4C31.5,16.4,31.5,16.4,31.5,16.4C31.5,16.4,31.5,16.4,31.5,16.4C31.5,16.4,31.4,16.4,31.5,16.4
		C31.5,16.4,31.5,16.4,31.5,16.4C31.5,16.4,31.5,16.4,31.5,16.4z M31.5,10.6C31.5,10.6,31.5,10.6,31.5,10.6
		C31.5,10.6,31.5,10.6,31.5,10.6L31.5,10.6L31.5,10.6L31.5,10.6c0,0,0,0.1,0.1,0.1C31.6,10.7,31.6,10.6,31.5,10.6L31.5,10.6z
		 M31.7,10C31.7,10,31.7,9.9,31.7,10C31.7,9.9,31.7,10,31.7,10z M32.1,11.5C32.1,11.5,32.2,11.5,32.1,11.5c0.1-0.1,0-0.1,0-0.1
		C32,11.3,32,11.3,32,11.3c-0.1,0-0.1-0.1-0.2-0.2c0,0.1,0,0.1,0,0.1c0,0.1,0,0.1,0.1,0.1c0,0,0.1,0,0.1,0.1
		C32,11.4,32,11.5,32.1,11.5C32,11.5,32,11.5,32.1,11.5z M31.8,10.6c0,0.1,0,0.2,0,0.3c0,0,0,0,0,0.1c0,0,0,0,0.1,0.1
		c0,0,0.1,0.1,0.2,0.1c0,0,0,0,0-0.1c0,0,0-0.1,0-0.1c0,0,0,0,0-0.2c0-0.1,0-0.1-0.1-0.1c0,0,0,0-0.1,0.1c0,0,0,0-0.1,0
		C31.9,10.8,31.9,10.7,31.8,10.6C31.8,10.7,31.8,10.6,31.8,10.6z M32,10.9C31.9,10.9,31.9,10.9,32,10.9C31.9,10.8,32,10.8,32,10.9
		C32,10.8,32,10.8,32,10.9L32,10.9z M32,12.3C32,12.3,32,12.3,32,12.3C32,12.3,32,12.3,32,12.3C32,12.2,32,12.2,32,12.3
		C31.9,12.2,31.9,12.3,32,12.3C31.9,12.3,32,12.3,32,12.3C32,12.3,32,12.3,32,12.3z M32.2,12.8c0,0-0.1,0-0.1,0c0,0-0.1,0-0.1,0
		c0,0,0,0,0.1,0C32.1,12.9,32.1,12.8,32.2,12.8C32.2,12.8,32.2,12.8,32.2,12.8z M32.4,9.4c0,0.1,0,0.1-0.1,0.2c-0.1,0-0.1,0-0.1,0.1
		c0,0,0,0-0.1,0c0,0-0.1,0-0.1,0c0-0.1,0-0.1,0-0.2c0,0,0,0,0,0c0.1-0.1,0.1-0.1,0.1-0.2C32.3,9.4,32.4,9.4,32.4,9.4z M32.2,8
		c0,0-0.1,0.1-0.1,0.2l0,0C32.2,8.2,32.2,8.1,32.2,8C32.2,8.1,32.2,8.1,32.2,8z M32.2,13.7C32.2,13.7,32.2,13.7,32.2,13.7
		c0,0.1,0,0.2,0,0.3l0,0C32.3,13.9,32.3,13.8,32.2,13.7C32.3,13.7,32.2,13.7,32.2,13.7z M32.2,9.9C32.2,9.8,32.2,9.8,32.2,9.9
		c0.1-0.1,0.1-0.1,0.1,0C32.3,9.9,32.3,9.9,32.2,9.9L32.2,9.9C32.2,9.9,32.2,9.9,32.2,9.9z M34.4,2.4C34.4,2.4,34.5,2.4,34.4,2.4
		C34.5,2.3,34.5,2.3,34.4,2.4C34.4,2.4,34.4,2.4,34.4,2.4L34.4,2.4C34.4,2.4,34.4,2.4,34.4,2.4c-0.1,0-0.1,0-0.1,0.1c0,0,0,0,0,0
		c0,0-0.1,0-0.1,0.1c-0.1,0.1-0.1,0.1-0.2,0.2h0c0,0,0,0,0,0.1c-0.1,0.2-0.2,0.3-0.2,0.3c0,0,0,0-0.1,0c0,0,0,0-0.1,0
		c0,0,0,0.1-0.1,0.1c-0.1,0.1-0.1,0.1-0.2,0.3c0,0.1-0.1,0.1-0.1,0.1c-0.1,0.2-0.2,0.4-0.3,0.6C33,4.3,33,4.4,33,4.4l-0.1,0.1
		c0,0.1,0,0.2-0.1,0.2c0,0,0,0,0,0.1c-0.1,0.2-0.1,0.3-0.1,0.5c0,0.1,0,0.2-0.1,0.2c0,0,0,0,0,0c0,0,0,0.1,0,0.2
		c0,0.1-0.1,0.1-0.1,0.2c0,0.1,0,0.2-0.1,0.3c-0.1,0.2-0.1,0.3-0.1,0.3c0,0,0,0,0,0c0,0,0,0,0,0.1c0,0,0,0,0,0.1c0,0,0,0.1,0,0.1
		c0,0,0-0.1,0-0.1c0,0,0,0,0-0.1c0-0.1,0.1-0.2,0.1-0.3c0,0,0.1-0.2,0.2-0.6c0,0,0,0,0,0c0,0,0,0.1,0,0.1c0,0,0,0,0-0.1
		c0,0,0,0,0-0.1c0,0,0,0,0,0c0,0-0.1,0-0.1-0.1c0,0,0-0.1,0.1-0.3c0-0.1,0.1-0.1,0.1-0.1l0,0c0.1-0.1,0.1-0.1,0-0.2
		c0-0.1-0.1-0.1,0-0.2c0-0.1,0.1-0.1,0.1-0.2c0,0,0,0,0.1,0c0,0,0,0,0.1,0c0,0,0,0,0,0.1c0,0,0,0,0,0.1c0,0,0,0,0,0.1c0,0,0,0,0,0
		c0.1,0,0.1-0.1,0.1-0.2V4.4c0,0,0,0,0,0c0,0,0,0,0.1,0c0,0,0,0,0,0c0,0,0,0-0.1,0h0c0,0,0,0,0,0c0,0-0.1,0-0.1,0c0-0.1,0-0.1,0-0.1
		c0.1-0.1,0.1-0.2,0.1-0.3c0-0.1,0-0.1,0.1-0.2c0,0,0,0,0,0c0,0,0,0,0,0c0,0,0,0,0,0.1c0,0,0,0,0,0.1c0,0,0,0,0,0.1
		c0,0.1,0,0.1,0,0.1c0,0,0,0.1,0,0.1c0.1-0.2,0.2-0.3,0.2-0.3c0-0.1,0-0.1,0-0.2c0,0,0,0,0-0.1v0l0,0c0,0,0,0,0,0c0,0,0,0,0,0
		c0,0,0,0,0,0c0-0.1,0.1-0.1,0.1-0.1c0,0.1,0,0.1-0.1,0.1c0,0,0,0,0,0c0.1,0,0.1,0,0.1-0.1c0-0.1,0.1-0.1,0-0.2c0-0.1-0.1-0.1,0-0.1
		c0,0,0,0,0,0c0,0,0,0,0,0c0,0,0,0,0,0c0,0,0.1,0,0.1,0c0,0,0-0.1,0.1-0.1l0,0c0,0,0,0,0,0c0-0.1,0.1-0.2,0.1-0.2c0,0,0,0,0-0.1
		C34.2,2.6,34.3,2.5,34.4,2.4C34.4,2.5,34.4,2.5,34.4,2.4C34.4,2.5,34.4,2.4,34.4,2.4z M32.5,14c-0.1,0.1-0.2,0.2-0.2,0.3
		c0,0,0,0.1,0.1,0.1c0.1,0,0.1,0,0.1,0.1c0,0,0,0,0,0c0,0,0,0,0.1,0c0,0,0-0.1,0-0.1c0,0,0,0,0-0.1c-0.1,0-0.1,0-0.1,0c0,0,0,0,0,0
		c0,0,0,0,0,0c0,0,0.1,0,0.1,0c0,0,0,0,0.1,0.1C32.5,14.1,32.5,14,32.5,14C32.5,14,32.5,14,32.5,14C32.5,13.9,32.5,13.9,32.5,14z
		 M32.5,17C32.5,17.1,32.5,17.1,32.5,17C32.5,17.1,32.5,17.1,32.5,17c-0.1,0-0.1,0-0.1,0c0,0-0.1,0-0.1-0.1c0,0,0,0,0,0
		c0,0,0,0,0.1,0C32.3,16.9,32.4,17,32.5,17z M32.3,8.4C32.3,8.4,32.3,8.4,32.3,8.4C32.3,8.3,32.3,8.4,32.3,8.4
		C32.3,8.4,32.3,8.4,32.3,8.4C32.3,8.4,32.3,8.4,32.3,8.4z M32.6,3.5c-0.1,0.2-0.2,0.4-0.3,0.6C32.4,4,32.5,3.8,32.6,3.5
		C32.9,3.2,33,3,33,2.9C32.9,3.1,32.8,3.3,32.6,3.5z M32.4,13.1L32.4,13.1L32.4,13.1L32.4,13.1L32.4,13.1L32.4,13.1z M32.5,13.2
		C32.5,13.2,32.5,13.2,32.5,13.2L32.5,13.2C32.5,13.1,32.5,13.1,32.5,13.2L32.5,13.2L32.5,13.2z M32.6,7.2c0.1,0,0.1-0.1,0.1-0.2
		c0,0,0,0,0-0.1c0,0,0,0-0.1,0c0,0-0.1,0.1-0.1,0.1c0,0-0.1,0-0.1,0C32.5,7.1,32.5,7.2,32.6,7.2C32.6,7.2,32.6,7.2,32.6,7.2
		C32.6,7.2,32.6,7.2,32.6,7.2z M32.8,6.9C32.8,6.9,32.8,6.8,32.8,6.9c-0.1,0-0.1,0-0.1-0.1l0,0c0,0,0,0,0,0c0,0,0,0,0,0
		C32.7,6.9,32.7,6.9,32.8,6.9C32.8,6.9,32.8,6.9,32.8,6.9C32.8,6.9,32.8,6.9,32.8,6.9z M32.7,5.9C32.7,6,32.7,6,32.7,5.9
		C32.7,6,32.7,6,32.7,5.9C32.7,5.9,32.7,5.9,32.7,5.9C32.7,5.9,32.7,5.9,32.7,5.9C32.7,5.9,32.7,5.9,32.7,5.9z M32.8,17.2
		C32.9,17.2,32.9,17.2,32.8,17.2C32.9,17.2,32.9,17.2,32.8,17.2C32.8,17.2,32.8,17.2,32.8,17.2C32.8,17.2,32.8,17.1,32.8,17.2z
		 M32.9,6.7c0-0.1,0-0.1,0-0.1C32.9,6.6,32.9,6.6,32.9,6.7l-0.1-0.1c0,0,0,0.1,0,0.1C32.9,6.7,32.9,6.7,32.9,6.7z M33,6.4
		C33,6.3,33,6.3,33,6.3c0,0,0,0,0,0c0,0,0,0,0,0C33,6.3,33,6.3,33,6.4L33,6.4z M33,17.5c0.1,0,0.1,0.1,0.2,0.1c0,0,0,0,0,0
		c0,0-0.1,0-0.1,0C33,17.6,33,17.6,33,17.5C32.9,17.6,33,17.5,33,17.5C33,17.5,33,17.5,33,17.5z M33.1,6.1c0-0.2,0-0.3,0-0.3
		C33.1,6,33,6,33.1,6.1C33,6.1,33,6.1,33.1,6.1C33,6.1,33,6.2,33.1,6.1C33.1,6.2,33.1,6.2,33.1,6.1z M33.1,15.2
		C33.1,15.2,33,15.2,33.1,15.2C33,15.3,33.1,15.3,33.1,15.2C33.1,15.3,33.1,15.3,33.1,15.2C33.1,15.2,33.1,15.2,33.1,15.2
		C33.1,15.2,33.1,15.2,33.1,15.2z M33.4,5C33.4,5,33.4,5,33.4,5c-0.1,0-0.1,0.1-0.1,0.1c0,0.1,0,0.1-0.1,0.2c-0.1,0-0.1,0.1-0.1,0.2
		c0,0.1,0,0.1,0,0.2h0c0,0,0,0,0,0c0,0-0.1,0-0.1,0c0,0-0.1,0.1,0,0.1c0,0,0,0.1,0.1,0.1c0,0,0,0,0,0c0,0,0,0,0,0c0-0.1,0-0.1,0-0.1
		h0c0,0,0,0,0,0c0,0,0,0,0,0c0-0.1,0.1-0.2,0.1-0.3C33.4,5.1,33.4,5.1,33.4,5C33.4,5,33.4,5,33.4,5z M33.5,17.3c0.2,0,0.2,0,0.2,0
		C33.7,17.4,33.6,17.4,33.5,17.3c-0.1,0.1-0.1,0.1-0.2,0.1c-0.1,0-0.1,0-0.1-0.1c0,0,0,0,0.1,0c0,0,0.1,0,0.1,0
		C33.4,17.3,33.5,17.3,33.5,17.3z M33.4,5.5C33.4,5.5,33.4,5.5,33.4,5.5C33.4,5.4,33.4,5.4,33.4,5.5C33.4,5.4,33.3,5.4,33.4,5.5
		C33.3,5.5,33.3,5.5,33.4,5.5z M33.4,4.2C33.5,4.2,33.5,4.2,33.4,4.2C33.4,4.2,33.4,4.1,33.4,4.2C33.4,4.1,33.3,4.2,33.4,4.2
		L33.4,4.2C33.4,4.2,33.4,4.2,33.4,4.2z M33.5,11.4C33.5,11.4,33.5,11.4,33.5,11.4C33.5,11.4,33.5,11.4,33.5,11.4
		C33.5,11.4,33.5,11.4,33.5,11.4C33.5,11.4,33.5,11.4,33.5,11.4z M33.5,11.6L33.5,11.6L33.5,11.6L33.5,11.6L33.5,11.6L33.5,11.6
		C33.5,11.6,33.5,11.6,33.5,11.6z M33.5,4.7C33.5,4.7,33.5,4.6,33.5,4.7C33.6,4.6,33.6,4.7,33.5,4.7L33.5,4.7
		C33.6,4.7,33.6,4.7,33.5,4.7C33.5,4.7,33.5,4.7,33.5,4.7C33.5,4.7,33.5,4.7,33.5,4.7z M33.5,11.1L33.5,11.1L33.5,11.1L33.5,11.1
		C33.6,11.1,33.5,11.1,33.5,11.1C33.5,11.1,33.5,11.1,33.5,11.1z M33.6,15.5C33.6,15.5,33.5,15.5,33.6,15.5
		C33.6,15.5,33.6,15.5,33.6,15.5L33.6,15.5L33.6,15.5C33.6,15.5,33.6,15.5,33.6,15.5z M33.6,4.5L33.6,4.5
		C33.6,4.5,33.6,4.5,33.6,4.5C33.6,4.5,33.6,4.5,33.6,4.5C33.6,4.5,33.6,4.6,33.6,4.5C33.6,4.6,33.6,4.6,33.6,4.5z M33.6,11.4
		C33.6,11.5,33.6,11.5,33.6,11.4L33.6,11.4C33.6,11.5,33.6,11.4,33.6,11.4C33.6,11.4,33.6,11.4,33.6,11.4
		C33.6,11.4,33.6,11.4,33.6,11.4z M33.7,11.2C33.7,11.1,33.7,11.1,33.7,11.2C33.7,11.1,33.7,11.1,33.7,11.2
		C33.7,11.1,33.7,11.1,33.7,11.2C33.7,11.1,33.7,11.1,33.7,11.2C33.6,11.1,33.6,11.1,33.7,11.2C33.7,11.1,33.7,11.2,33.7,11.2
		C33.7,11.2,33.7,11.2,33.7,11.2z M33.9,3.9c0,0-0.1,0-0.1,0.1c0,0.1-0.1,0.2-0.1,0.2c0,0,0,0.1,0,0.1c0,0.1,0,0.1,0,0.1
		c0,0,0,0,0,0c0,0,0,0,0,0c-0.1-0.1-0.1-0.2,0-0.3c0,0,0,0,0-0.1c0,0,0-0.1,0.1-0.2C33.9,3.9,33.9,3.9,33.9,3.9
		C33.9,3.9,34,3.9,33.9,3.9C34,3.9,34,4,33.9,3.9C33.9,4,33.9,4,33.9,3.9z M33.7,3.3C33.8,3.3,33.8,3.3,33.7,3.3L33.7,3.3
		C33.7,3.4,33.7,3.3,33.7,3.3C33.7,3.3,33.7,3.3,33.7,3.3C33.7,3.3,33.7,3.3,33.7,3.3z M33.7,11C33.7,11.1,33.7,11.1,33.7,11
		C33.7,11,33.7,11,33.7,11L33.7,11C33.7,11,33.7,11,33.7,11C33.7,11,33.7,11,33.7,11L33.7,11L33.7,11C33.7,11,33.7,11,33.7,11
		C33.7,11,33.7,11,33.7,11z M33.9,10.6C33.9,10.6,33.9,10.6,33.9,10.6C33.9,10.6,33.8,10.5,33.9,10.6C33.9,10.5,33.9,10.5,33.9,10.6
		C33.9,10.6,33.9,10.6,33.9,10.6z M34,10.7C34,10.7,34,10.7,34,10.7C34,10.7,34,10.7,34,10.7L34,10.7C34,10.7,33.9,10.7,34,10.7
		C33.9,10.7,33.9,10.7,34,10.7C33.9,10.7,33.9,10.7,34,10.7C33.9,10.7,33.9,10.7,34,10.7C33.9,10.6,33.9,10.6,34,10.7
		C33.9,10.7,33.9,10.7,34,10.7C34,10.7,34,10.7,34,10.7z M34.1,10.6L34.1,10.6C34,10.7,34,10.6,34.1,10.6c-0.1,0-0.1,0-0.1-0.1
		c0,0,0,0,0,0l0,0C34,10.6,34,10.6,34.1,10.6c0,0,0-0.1-0.1-0.1c0,0,0,0,0-0.1c0,0,0,0,0-0.1c0,0,0,0,0,0c0,0,0,0,0,0
		C34.1,10.5,34.1,10.6,34.1,10.6C34.1,10.6,34.1,10.6,34.1,10.6C34.1,10.6,34.1,10.6,34.1,10.6z M33.9,11.2L33.9,11.2L33.9,11.2
		C33.9,11.1,33.9,11.1,33.9,11.2C33.9,11.1,33.9,11.1,33.9,11.2L33.9,11.2C33.9,11.2,33.9,11.2,33.9,11.2
		C33.9,11.2,33.9,11.2,33.9,11.2z M34.1,3.5C34.1,3.5,34.1,3.5,34.1,3.5c0,0.1,0,0.1,0,0.1c0,0,0,0.1,0,0.1c0,0-0.1,0-0.1,0.1
		c0,0,0,0,0,0c0,0,0,0,0,0c0,0,0-0.1,0.1-0.1C34,3.5,34,3.5,34.1,3.5C34.1,3.5,34.1,3.5,34.1,3.5C34.1,3.5,34.1,3.5,34.1,3.5z
		 M34,17.3C34.1,17.3,34.1,17.3,34,17.3c0.1,0,0.1,0,0.1,0C34.1,17.4,34.1,17.4,34,17.3C34,17.4,34,17.4,34,17.3z M34,3.7
		C34,3.7,34.1,3.7,34,3.7C34.1,3.7,34.1,3.8,34,3.7C34.1,3.8,34.1,3.8,34,3.7C34,3.8,34,3.8,34,3.7z M34.1,11.8
		C34.1,11.8,34.1,11.8,34.1,11.8C34.1,11.7,34.1,11.7,34.1,11.8C34.1,11.7,34.1,11.8,34.1,11.8C34.1,11.8,34.1,11.8,34.1,11.8z
		 M34.1,10.5C34.1,10.5,34.1,10.5,34.1,10.5L34.1,10.5C34.1,10.5,34.1,10.5,34.1,10.5C34.1,10.5,34.1,10.5,34.1,10.5z M34.1,10.5
		C34.1,10.5,34.1,10.5,34.1,10.5C34.1,10.5,34.1,10.4,34.1,10.5L34.1,10.5C34.1,10.4,34.1,10.4,34.1,10.5
		C34.1,10.4,34.1,10.5,34.1,10.5C34.1,10.5,34.1,10.5,34.1,10.5z M34.2,11.8C34.1,11.8,34.1,11.8,34.2,11.8
		C34.1,11.8,34.2,11.8,34.2,11.8C34.2,11.8,34.2,11.8,34.2,11.8C34.2,11.8,34.2,11.8,34.2,11.8C34.2,11.9,34.2,11.9,34.2,11.8z
		 M34.2,11C34.2,11.1,34.2,11,34.2,11C34.1,11,34.1,11,34.2,11L34.2,11C34.2,11,34.2,11,34.2,11C34.2,11,34.2,11,34.2,11z
		 M34.2,10.2C34.2,10.3,34.2,10.3,34.2,10.2C34.2,10.3,34.2,10.3,34.2,10.2C34.2,10.3,34.2,10.3,34.2,10.2
		C34.2,10.2,34.2,10.2,34.2,10.2z M34.4,10.4C34.4,10.4,34.4,10.4,34.4,10.4C34.4,10.4,34.4,10.4,34.4,10.4c0-0.1,0-0.1,0-0.1
		c0,0,0,0,0,0C34.3,10.3,34.3,10.3,34.4,10.4L34.4,10.4c0-0.1-0.1,0-0.2,0c0,0,0,0,0,0c0,0,0,0,0,0C34.3,10.5,34.3,10.5,34.4,10.4
		C34.3,10.4,34.3,10.4,34.4,10.4C34.3,10.5,34.4,10.5,34.4,10.4C34.3,10.4,34.3,10.4,34.4,10.4L34.4,10.4L34.4,10.4
		C34.3,10.4,34.4,10.4,34.4,10.4C34.4,10.4,34.4,10.4,34.4,10.4z M34.3,10.8C34.3,10.8,34.3,10.8,34.3,10.8L34.3,10.8
		C34.2,10.7,34.2,10.7,34.3,10.8C34.2,10.8,34.2,10.8,34.3,10.8C34.3,10.8,34.3,10.8,34.3,10.8C34.3,10.8,34.3,10.8,34.3,10.8z
		 M34.4,10.3C34.4,10.3,34.4,10.3,34.4,10.3C34.4,10.2,34.4,10.2,34.4,10.3L34.4,10.3C34.4,10.2,34.4,10.3,34.4,10.3
		C34.4,10.3,34.4,10.3,34.4,10.3C34.4,10.3,34.4,10.3,34.4,10.3z M34.4,10.2L34.4,10.2L34.4,10.2C34.4,10.2,34.4,10.2,34.4,10.2
		C34.4,10.2,34.4,10.2,34.4,10.2C34.4,10.2,34.4,10.2,34.4,10.2C34.4,10.2,34.4,10.2,34.4,10.2z M34.5,10.1
		C34.5,10.1,34.5,10.1,34.5,10.1C34.5,10.1,34.4,10.1,34.5,10.1C34.4,10.1,34.4,10.1,34.5,10.1C34.5,10.1,34.5,10.1,34.5,10.1z
		 M34.5,2.5L34.5,2.5C34.5,2.5,34.5,2.5,34.5,2.5L34.5,2.5C34.5,2.5,34.5,2.5,34.5,2.5C34.5,2.5,34.5,2.5,34.5,2.5
		C34.5,2.5,34.5,2.5,34.5,2.5C34.4,2.5,34.4,2.5,34.5,2.5C34.4,2.5,34.4,2.5,34.5,2.5z M35.2,17C35.2,16.9,35.3,16.9,35.2,17
		C35.3,17,35.3,17,35.2,17c0,0.1-0.1,0.1-0.1,0.2c0,0-0.1,0-0.1,0l-0.1,0l0,0l0,0h0h0l-0.1,0c0,0-0.1,0-0.1,0c-0.1,0-0.1,0-0.2,0
		c0,0,0,0-0.1,0c0,0,0,0,0-0.1c0,0,0,0,0.1,0c0.1,0,0.1,0,0.2-0.1l0.1-0.1l0.1,0l0.1,0C35.1,17,35.2,17,35.2,17z M34.6,10.1
		C34.5,10.1,34.6,10.1,34.6,10.1C34.6,10.2,34.6,10.2,34.6,10.1L34.6,10.1C34.6,10.2,34.6,10.2,34.6,10.1
		C34.6,10.2,34.6,10.2,34.6,10.1C34.5,10.1,34.5,10.1,34.6,10.1C34.5,10.1,34.5,10.1,34.6,10.1z M35,2c-0.1,0-0.2,0.1-0.2,0.1
		c-0.1,0.1-0.2,0.1-0.2,0.2l0,0c0,0,0,0,0,0l0.1,0c0-0.1,0.1-0.1,0.1-0.2c0,0,0,0,0.1-0.1C34.9,2,35,2,35,2C35,2,35,2,35,2
		C35,2,35,2,35,2C35,2,35,2,35,2C35,2,35,2,35,2z M34.7,10.2C34.7,10.2,34.7,10.2,34.7,10.2C34.7,10.2,34.7,10.2,34.7,10.2
		C34.6,10.1,34.6,10.1,34.7,10.2C34.6,10.1,34.6,10.1,34.7,10.2C34.6,10.1,34.6,10.1,34.7,10.2C34.6,10.1,34.6,10.2,34.7,10.2
		C34.6,10.2,34.7,10.2,34.7,10.2z M34.6,10.6C34.6,10.6,34.6,10.6,34.6,10.6C34.6,10.6,34.6,10.5,34.6,10.6
		C34.6,10.5,34.6,10.5,34.6,10.6C34.6,10.5,34.6,10.5,34.6,10.6C34.6,10.5,34.6,10.6,34.6,10.6z M34.7,17.4c0.1,0,0.1,0,0.1,0
		C34.8,17.4,34.8,17.5,34.7,17.4C34.7,17.5,34.6,17.5,34.7,17.4C34.6,17.4,34.6,17.4,34.7,17.4z M34.9,2.5
		C34.9,2.4,34.9,2.4,34.9,2.5C34.8,2.4,34.8,2.4,34.9,2.5C34.8,2.5,34.8,2.5,34.9,2.5L34.9,2.5c-0.1,0.1-0.1,0.1,0,0.1
		C34.8,2.6,34.8,2.6,34.9,2.5L34.9,2.5C34.8,2.5,34.9,2.5,34.9,2.5z M34.8,2.1L34.8,2.1L34.8,2.1z M34.9,9.9L34.9,9.9
		C34.9,9.9,34.9,9.9,34.9,9.9C34.9,9.9,34.8,9.9,34.9,9.9L34.9,9.9z M35,9.6C35,9.6,35,9.6,35,9.6C35,9.6,35,9.6,35,9.6
		c0.1,0.1,0.1,0.1,0.1,0.2c0,0,0,0,0,0l0,0c0,0-0.1-0.1-0.1,0C34.9,9.6,34.9,9.6,35,9.6c-0.1-0.1-0.1-0.1-0.1-0.1S34.9,9.5,35,9.6z
		 M34.9,17.2L34.9,17.2L34.9,17.2z M34.9,17.2L34.9,17.2L34.9,17.2L34.9,17.2L34.9,17.2z M35,9.5L35,9.5C35.1,9.6,35.1,9.6,35,9.5
		C35.1,9.6,35.1,9.6,35,9.5C35,9.5,35,9.5,35,9.5C35,9.5,35,9.5,35,9.5C35,9.5,35,9.5,35,9.5z M35.1,2.2C35.1,2.2,35.2,2.2,35.1,2.2
		c0,0,0,0-0.1,0c0,0,0,0,0,0C35,2.3,35,2.3,35.1,2.2C35.1,2.2,35.1,2.2,35.1,2.2z M35,2.5C35,2.5,35,2.5,35,2.5L35,2.5
		C35,2.5,35,2.5,35,2.5z M35.1,15C35.1,15.1,35.1,15.1,35.1,15C35,15,35,15,35.1,15c-0.1,0-0.1-0.1,0-0.1l0.1,0
		C35.2,14.9,35.2,14.9,35.1,15C35.2,15,35.2,15,35.1,15C35.2,15,35.1,15,35.1,15z M35.5,9.8C35.5,9.8,35.5,9.8,35.5,9.8
		c0-0.2,0-0.2-0.1-0.3c0,0,0,0-0.1,0c0,0,0,0,0,0c0,0,0,0,0,0.1c0,0,0,0,0.1,0.1C35.4,9.7,35.4,9.7,35.5,9.8
		C35.4,9.7,35.4,9.7,35.5,9.8C35.5,9.8,35.5,9.8,35.5,9.8z M35.4,9.6L35.4,9.6C35.4,9.7,35.4,9.7,35.4,9.6
		C35.4,9.7,35.4,9.7,35.4,9.6C35.4,9.6,35.4,9.6,35.4,9.6z M35.4,10.1C35.5,10.1,35.5,10.1,35.4,10.1C35.5,10.1,35.4,10.1,35.4,10.1
		C35.4,10,35.4,10,35.4,10.1C35.4,10.1,35.4,10.1,35.4,10.1z M35.5,9.6c0,0,0,0.1,0.1,0.2h0C35.6,9.8,35.6,9.7,35.5,9.6
		C35.5,9.6,35.5,9.6,35.5,9.6C35.5,9.6,35.5,9.6,35.5,9.6c0-0.1,0-0.1,0-0.1c0,0,0-0.1-0.1,0c0,0,0,0,0,0
		C35.5,9.5,35.5,9.6,35.5,9.6C35.5,9.6,35.5,9.6,35.5,9.6z M35.5,1.3C35.5,1.3,35.5,1.3,35.5,1.3C35.5,1.3,35.5,1.3,35.5,1.3
		C35.5,1.3,35.6,1.3,35.5,1.3C35.6,1.3,35.6,1.3,35.5,1.3L35.5,1.3L35.5,1.3C35.6,1.3,35.5,1.3,35.5,1.3C35.5,1.3,35.5,1.3,35.5,1.3
		z M35.5,16.8C35.5,16.8,35.6,16.8,35.5,16.8C35.6,16.8,35.6,16.8,35.5,16.8C35.5,16.9,35.5,16.9,35.5,16.8
		C35.5,16.8,35.5,16.8,35.5,16.8z M35.5,11.4c0,0,0.1,0,0.1,0.1c0,0,0,0,0,0C35.6,11.5,35.6,11.5,35.5,11.4
		C35.5,11.4,35.5,11.4,35.5,11.4z M35.5,2C35.5,2,35.5,2,35.5,2L35.5,2z M35.5,14.6c0,0,0,0,0-0.1c0,0,0-0.1,0.1-0.1c0,0,0,0,0,0
		c0,0,0,0,0,0c0,0,0,0,0,0C35.7,14.4,35.6,14.5,35.5,14.6C35.6,14.6,35.6,14.6,35.5,14.6z M35.6,12.2C35.6,12.2,35.6,12.2,35.6,12.2
		c-0.1-0.1-0.1-0.2-0.1-0.2c0,0,0,0,0,0C35.6,12,35.6,12.1,35.6,12.2L35.6,12.2z M35.6,2C35.7,2,35.7,2,35.6,2C35.7,2,35.7,2,35.6,2
		C35.7,2,35.7,2,35.6,2C35.7,2,35.7,2,35.6,2C35.7,2,35.6,2,35.6,2L35.6,2C35.6,2,35.6,2,35.6,2L35.6,2z M35.6,10
		C35.6,10,35.6,10,35.6,10C35.6,10,35.6,10,35.6,10z M35.8,2.3C35.8,2.4,35.8,2.4,35.8,2.3C35.8,2.3,35.8,2.3,35.8,2.3z M35.8,9.5
		C35.8,9.5,35.8,9.5,35.8,9.5L35.8,9.5C35.8,9.5,35.8,9.5,35.8,9.5L35.8,9.5L35.8,9.5C35.8,9.5,35.8,9.5,35.8,9.5
		C35.8,9.5,35.8,9.5,35.8,9.5z M35.9,9.4C35.9,9.5,35.9,9.5,35.9,9.4L35.9,9.4C35.9,9.4,35.9,9.4,35.9,9.4
		C35.8,9.3,35.8,9.3,35.9,9.4C35.8,9.4,35.8,9.4,35.9,9.4C35.8,9.4,35.8,9.4,35.9,9.4z M36,2.3L36,2.3C36,2.3,36,2.3,36,2.3
		C36,2.3,36,2.3,36,2.3C36,2.3,36,2.3,36,2.3C36,2.4,36,2.4,36,2.3C36,2.4,35.9,2.4,36,2.3L36,2.3L36,2.3c-0.1,0-0.1,0-0.1,0
		c0,0,0,0,0,0c0,0,0,0,0,0L36,2.3L36,2.3C35.9,2.3,35.9,2.3,36,2.3C36,2.3,36,2.3,36,2.3C36,2.3,36,2.3,36,2.3z M36,14
		C36,14,35.9,14.1,36,14C35.9,14,35.9,14,36,14C35.9,14,35.9,13.9,36,14C36,14,36,14,36,14z M36.4,10C36.4,10,36.5,10,36.4,10
		L36.4,10C36.5,9.9,36.4,9.9,36.4,10c-0.1-0.1-0.1,0-0.1,0c0,0-0.1,0-0.1,0c0,0-0.1,0-0.1,0c0,0,0,0-0.1,0c0,0,0,0,0,0c0,0,0,0,0,0
		c0,0,0,0,0,0c0,0,0,0,0,0c0,0,0,0,0,0c0,0,0.1,0,0.1,0c0,0,0,0,0,0C36.3,10,36.4,10,36.4,10C36.4,10,36.4,10,36.4,10z M36.1,9.2
		C36,9.2,36,9.2,36.1,9.2C36.1,9.2,36.1,9.2,36.1,9.2c0.1,0.2,0.2,0.3,0.2,0.3c0,0,0,0,0,0c0,0,0-0.1,0-0.1c0,0,0,0,0,0
		c0,0,0,0,0-0.1c0,0,0-0.1-0.1-0.1L36.1,9.2c0.1,0.1,0.1,0.1,0.1,0.1c0,0,0,0,0,0c0,0,0,0,0,0c0,0,0,0,0,0
		C36.2,9.3,36.1,9.3,36.1,9.2C36.1,9.3,36.1,9.3,36.1,9.2C36.1,9.2,36.1,9.2,36.1,9.2z M36.3,14.3c-0.1,0.1-0.2,0.2-0.2,0.3l0,0
		c0,0,0,0,0,0C36.2,14.5,36.3,14.4,36.3,14.3c0.1,0,0.1,0,0.2-0.1c0-0.1,0.1-0.1,0.2-0.2c0-0.1,0.1-0.2,0.1-0.3c0-0.1,0-0.1,0-0.1
		c0,0-0.1,0-0.1,0.1c0,0.1-0.1,0.2-0.1,0.2c-0.1,0-0.1,0.1-0.1,0.1c0,0.1,0,0.1,0,0.1S36.4,14.2,36.3,14.3z M36.2,9.5L36.2,9.5
		c0-0.1-0.1-0.1-0.1-0.1L36.2,9.5C36.1,9.4,36.1,9.5,36.2,9.5C36.1,9.4,36.1,9.4,36.2,9.5C36.1,9.4,36.2,9.4,36.2,9.5z M36.1,1.3
		C36.1,1.3,36.1,1.3,36.1,1.3C36.1,1.3,36.1,1.3,36.1,1.3L36.1,1.3C36.2,1.3,36.2,1.3,36.1,1.3C36.2,1.3,36.2,1.3,36.1,1.3z
		 M36.2,16.3C36.3,16.2,36.3,16.2,36.2,16.3C36.3,16.3,36.3,16.3,36.2,16.3L36.2,16.3C36.2,16.3,36.2,16.3,36.2,16.3
		C36.2,16.3,36.2,16.3,36.2,16.3z M36.5,9.2L36.5,9.2C36.5,9.2,36.5,9.2,36.5,9.2c0-0.1,0-0.1-0.1-0.1C36.5,9.2,36.5,9.2,36.5,9.2
		C36.5,9.2,36.5,9.2,36.5,9.2z M36.6,16C36.6,16,36.6,16,36.6,16l0,0.1C36.5,16.1,36.5,16.1,36.6,16C36.5,16,36.5,16,36.6,16
		C36.5,16,36.6,16,36.6,16z M36.6,15.9c0-0.1,0.1-0.1,0.1-0.2C36.7,15.7,36.6,15.8,36.6,15.9z M36.6,9L36.6,9
		C36.6,9.1,36.6,9.1,36.6,9C36.6,9.1,36.6,9.1,36.6,9C36.6,9.1,36.6,9.1,36.6,9C36.6,9,36.6,9,36.6,9z M36.7,9.8
		C36.6,9.8,36.6,9.8,36.7,9.8C36.6,9.9,36.6,9.9,36.7,9.8C36.7,9.9,36.7,9.9,36.7,9.8L36.7,9.8z M36.8,10.8
		C36.8,10.8,36.8,10.8,36.8,10.8C36.8,10.8,36.8,10.8,36.8,10.8C36.7,10.7,36.8,10.7,36.8,10.8C36.8,10.7,36.8,10.7,36.8,10.8z
		 M36.8,12.2C36.8,12.2,36.8,12.2,36.8,12.2C36.8,12.3,36.8,12.3,36.8,12.2C36.8,12.2,36.8,12.2,36.8,12.2c0.1-0.1,0.1-0.2,0.1-0.3
		l0,0C36.8,12,36.8,12.1,36.8,12.2z M36.8,12.4C36.8,12.4,36.8,12.4,36.8,12.4C36.8,12.4,36.8,12.4,36.8,12.4c-0.1,0.1,0,0.1,0,0.1
		c0,0,0,0,0,0C36.9,12.5,36.9,12.5,36.8,12.4z M37.1,15.4C37.1,15.4,37.1,15.4,37.1,15.4C37.1,15.4,37.1,15.4,37.1,15.4
		c0,0.1,0,0.1-0.1,0.2c-0.1,0.1-0.1,0.2-0.2,0.2c0,0,0,0-0.1,0c0,0,0,0,0,0c0-0.1,0-0.1,0.1-0.1L37.1,15.4z M36.8,15.6
		C36.8,15.6,36.8,15.6,36.8,15.6C36.8,15.6,36.8,15.6,36.8,15.6c0-0.1,0-0.1,0.1-0.2C36.9,15.5,36.9,15.6,36.8,15.6z M37,13
		c0,0.1-0.1,0.2-0.1,0.4c0-0.1,0.1-0.1,0.1-0.2c0,0,0-0.1,0-0.1C37,13.1,37.1,13,37,13c0.1-0.1,0.1-0.2,0.1-0.4
		C37.1,12.7,37,12.8,37,13z M37.1,15.2C37.1,15.2,37.1,15.2,37.1,15.2C37.1,15.3,37.1,15.3,37.1,15.2L37.1,15.2
		C37.1,15.2,37.1,15.2,37.1,15.2z M37.2,12c0,0.1,0,0.2,0,0.2C37.2,12.2,37.2,12.1,37.2,12z M37.3,15C37.3,15,37.3,15.1,37.3,15
		C37.2,15.1,37.2,15.1,37.3,15C37.2,15.1,37.2,15.1,37.3,15C37.2,15,37.3,15,37.3,15L37.3,15C37.3,15,37.3,15,37.3,15z M37.4,14.9
		C37.4,14.9,37.5,14.9,37.4,14.9c0.1,0,0.1,0.1,0.1,0.1c0,0-0.1,0.1-0.2,0.1c0,0-0.1,0-0.1,0l0-0.1c0,0,0-0.1,0-0.1
		S37.3,15,37.4,14.9z M37.2,11.5C37.2,11.6,37.2,11.6,37.2,11.5C37.3,11.6,37.3,11.6,37.2,11.5C37.3,11.5,37.3,11.5,37.2,11.5
		C37.3,11.4,37.3,11.4,37.2,11.5C37.3,11.5,37.2,11.5,37.2,11.5z M37.3,10.9c0-0.1,0-0.2,0-0.3h0C37.3,10.7,37.3,10.8,37.3,10.9
		L37.3,10.9z M37.7,14.6C37.7,14.6,37.7,14.7,37.7,14.6c0,0.1,0,0.1-0.1,0.1c0,0,0,0,0-0.1C37.6,14.6,37.6,14.6,37.7,14.6z
		 M37.6,9.7c0.1,0.2,0.1,0.3,0.2,0.4C37.8,10.1,37.8,10,37.6,9.7C37.7,9.8,37.7,9.7,37.6,9.7C37.6,9.7,37.6,9.7,37.6,9.7z M37.8,9
		C37.8,9,37.8,9,37.8,9L37.8,9C37.8,8.9,37.8,8.9,37.8,9L37.8,9L37.8,9C37.8,9,37.8,9,37.8,9C37.8,9,37.8,9,37.8,9z M37.8,8.8
		C37.8,8.8,37.9,8.8,37.8,8.8L37.8,8.8c0,0.1,0,0.1,0,0.1c0,0,0,0,0,0C38,8.9,38,8.9,37.8,8.8C37.9,8.9,37.9,8.9,37.8,8.8
		C37.8,8.8,37.8,8.8,37.8,8.8C37.8,8.8,37.8,8.8,37.8,8.8z M38.1,10.9C38.1,10.9,38.1,10.9,38.1,10.9c0,0.1,0,0.1,0.1,0.1
		c0,0,0,0,0.1,0c0-0.2,0-0.3,0-0.4c0,0,0-0.1,0-0.1c0,0,0-0.1,0-0.1c0-0.1,0-0.1,0-0.2c0-0.2-0.1-0.4-0.2-0.5l-0.1,0v0
		c-0.1,0.1-0.1,0.1-0.1,0.1c0,0,0,0,0,0c0.1,0.2,0.1,0.3,0.2,0.4c0,0.1,0,0.1,0,0.2c0,0,0,0.1,0,0.1l0,0.1c0,0.1,0,0.2,0,0.2
		S38.1,10.7,38.1,10.9z M37.9,8.7L37.9,8.7L37.9,8.7C37.8,8.7,37.9,8.7,37.9,8.7C37.9,8.8,38,8.8,38,8.8c0,0,0,0,0,0
		C38,8.7,37.9,8.7,37.9,8.7C37.9,8.7,37.9,8.7,37.9,8.7C37.9,8.7,37.9,8.7,37.9,8.7L37.9,8.7C37.9,8.7,37.9,8.7,37.9,8.7
		C37.9,8.7,37.9,8.7,37.9,8.7z M37.9,9.8L37.9,9.8C37.9,9.8,37.9,9.8,37.9,9.8C37.9,9.8,37.9,9.8,37.9,9.8L37.9,9.8z M37.9,9.7
		L37.9,9.7L37.9,9.7C37.9,9.8,37.9,9.8,37.9,9.7C37.9,9.8,37.9,9.8,37.9,9.7L37.9,9.7C37.9,9.7,37.9,9.7,37.9,9.7z M37.9,8.6
		L37.9,8.6L37.9,8.6C37.9,8.6,37.9,8.6,37.9,8.6C37.9,8.6,37.9,8.6,37.9,8.6C37.9,8.6,37.9,8.6,37.9,8.6C37.9,8.6,37.9,8.6,37.9,8.6
		z M37.9,8.6L37.9,8.6C37.9,8.6,37.9,8.6,37.9,8.6C38,8.7,38,8.7,37.9,8.6C38,8.7,38,8.7,37.9,8.6C38,8.7,38,8.7,38,8.6
		C38,8.6,38,8.6,37.9,8.6C38,8.6,38,8.6,37.9,8.6C37.9,8.6,37.9,8.6,37.9,8.6C37.9,8.6,37.9,8.6,37.9,8.6z M38,9.2
		C38,9.2,38,9.2,38,9.2L38,9.2C38.1,9.2,38.1,9.2,38,9.2C38,9.2,38,9.2,38,9.2C38,9.2,38,9.2,38,9.2z M38.1,8.5
		C38,8.5,38,8.5,38.1,8.5C38.1,8.5,38.1,8.5,38.1,8.5C38.1,8.5,38.1,8.5,38.1,8.5C38.1,8.5,38.1,8.5,38.1,8.5z M38.1,8.9
		C38.1,8.9,38.1,8.9,38.1,8.9L38.1,8.9L38.1,8.9L38.1,8.9C38.1,8.9,38.1,8.9,38.1,8.9C38.1,8.9,38.1,8.9,38.1,8.9L38.1,8.9
		C38.1,8.9,38.1,8.9,38.1,8.9z M38.1,8.5C38.1,8.5,38.1,8.5,38.1,8.5C38.1,8.5,38.1,8.5,38.1,8.5C38.1,8.5,38.1,8.5,38.1,8.5z
		 M38.2,9.1C38.2,9.1,38.2,9.1,38.2,9.1C38.2,9.1,38.2,9.1,38.2,9.1L38.2,9.1C38.2,9.2,38.2,9.2,38.2,9.1L38.2,9.1L38.2,9.1
		C38.2,9.1,38.2,9.1,38.2,9.1z M38.2,9L38.2,9C38.2,9,38.2,9,38.2,9C38.2,9,38.2,9,38.2,9C38.2,9,38.2,9,38.2,9L38.2,9z M38.4,12.1
		c0,0.1,0,0.1,0,0.2c0,0.1,0,0.2,0.1,0.2c0,0,0,0.1-0.1,0.1c0,0-0.1,0.1-0.1,0.1c0,0.1,0,0.1,0,0.2c0,0,0,0.1-0.1,0.1c0,0,0,0,0-0.1
		c0,0,0-0.1,0-0.2h0C38.3,12.5,38.3,12.4,38.4,12.1C38.4,12.2,38.4,12.1,38.4,12.1C38.4,12.1,38.4,12.1,38.4,12.1
		C38.4,12.1,38.4,12.1,38.4,12.1z M38.3,9L38.3,9C38.3,9,38.3,9,38.3,9L38.3,9C38.3,9,38.3,9,38.3,9L38.3,9z M38.3,8.7
		C38.3,8.7,38.3,8.7,38.3,8.7C38.3,8.7,38.3,8.7,38.3,8.7L38.3,8.7C38.3,8.7,38.3,8.7,38.3,8.7C38.3,8.7,38.3,8.7,38.3,8.7z
		 M38.3,8.6C38.3,8.6,38.3,8.6,38.3,8.6C38.3,8.6,38.3,8.6,38.3,8.6L38.3,8.6C38.3,8.6,38.3,8.6,38.3,8.6
		C38.3,8.6,38.3,8.6,38.3,8.6z M38.3,8.5C38.3,8.5,38.3,8.5,38.3,8.5C38.3,8.5,38.3,8.5,38.3,8.5C38.3,8.5,38.3,8.5,38.3,8.5
		C38.3,8.5,38.3,8.5,38.3,8.5z M38.3,8.8L38.3,8.8L38.3,8.8z M38.4,8.7L38.4,8.7C38.3,8.7,38.3,8.7,38.4,8.7L38.4,8.7z M38.4,8.6
		C38.4,8.7,38.4,8.7,38.4,8.6C38.3,8.7,38.3,8.6,38.4,8.6z M38.4,8.3L38.4,8.3L38.4,8.3C38.4,8.3,38.4,8.2,38.4,8.3L38.4,8.3z
		 M38.4,11.8C38.4,11.7,38.4,11.7,38.4,11.8c0.1,0,0.1,0.1,0,0.1c0,0,0,0,0,0L38.4,11.8C38.4,11.8,38.4,11.8,38.4,11.8z M38.4,11.5
		L38.4,11.5L38.4,11.5L38.4,11.5C38.5,11.5,38.5,11.5,38.4,11.5C38.5,11.5,38.5,11.5,38.4,11.5z M38.8,12.6
		C38.8,12.6,38.8,12.6,38.8,12.6C38.8,12.7,38.8,12.7,38.8,12.6C38.8,12.7,38.8,12.7,38.8,12.6C38.8,12.6,38.8,12.6,38.8,12.6z"/>
	<path class="st0" d="M46.5,0.8c0,0,0,0.1,0.1,0.2c0,0.1,0.1,0.1,0,0.2c0,0.1,0,0.2,0,0.4c-0.1,0.2-0.1,0.3-0.1,0.4
		c0,0,0,0.2-0.1,0.8c0,0.1,0,0.2,0,0.3c0,0.1,0,0.2,0,0.3c0,0-0.1,0.1-0.1,0.3c-0.1,0.3-0.1,0.5-0.1,0.6c-0.1,0.3-0.2,0.6-0.2,0.9
		c0,0.1,0,0.2-0.1,0.3c0,0.2-0.1,0.3-0.1,0.3c0,0.2,0,0.3,0,0.3c0,0,0,0.1,0,0.2c0,0,0,0.1,0,0.3c0,0.1,0,0.2-0.1,0.3
		c0,0.1,0,0.2,0.1,0.3c0,0,0,0.1,0,0.1c-0.1,0.2-0.1,0.3,0,0.5c0,0,0,0.1,0,0.1c0,0.1-0.1,0.3-0.1,0.6c0,0,0,0.2-0.1,0.3
		c0.1,0,0.1,0,0.1,0.1l-0.2,0.6c0,0,0,0.1,0,0.3c0,0.1,0,0.2,0.1,0.2c0,0,0,0,0,0.1c0,0,0,0.1-0.1,0.1c0,0-0.1,0.1-0.1,0.1
		c0,0,0,0.1,0.1,0.1c0.1,0,0.1,0.1,0.1,0.2l0,0.1c-0.1,0.1-0.1,0.2,0.1,0.2c-0.1,0-0.1,0.1-0.2,0.2c-0.1,0.1-0.1,0.2-0.1,0.3
		s0,0.2,0,0.2c0,0,0,0.1,0,0.1c0,0,0.1,0.1,0.1,0.1c0,0.2,0,0.3,0,0.4c0,0.1,0,0.3,0,0.5c0,0.1,0,0.1,0,0.2c0,0.1,0,0.1-0.1,0.1
		c-0.1,0-0.1,0-0.1,0.1c0,0.1,0,0.1-0.1,0c-0.1,0-0.1,0-0.1,0.1c0,0.1,0,0.1,0,0.2c0,0.1-0.1,0.2-0.2,0.2c-0.1,0-0.1,0-0.1,0
		c0,0,0,0.1,0,0.1c0,0.1,0,0.2,0.1,0.3c0,0,0,0.1,0,0.1c0,0,0,0,0,0.1c0,0,0,0-0.1,0c0,0-0.1-0.1-0.2-0.2c-0.1-0.1-0.1-0.2-0.1-0.2
		c0,0,0-0.1-0.1-0.1c0,0-0.1,0-0.1,0c-0.1,0-0.1,0-0.2-0.1c0,0,0-0.1,0-0.2c0-0.1,0-0.2,0-0.2c0,0-0.1,0-0.1,0.1
		c0,0.1,0,0.2-0.1,0.2c0,0,0,0,0,0.1c0,0,0,0-0.1,0c-0.1,0-0.1-0.1-0.1-0.1c0,0,0-0.1,0-0.3c0-0.1,0-0.2,0-0.3c0,0,0-0.1,0.1-0.1
		c0,0,0-0.1,0.1-0.1c-0.1,0-0.1-0.1,0-0.1c0,0,0-0.1,0-0.1c0,0,0-0.1,0.1-0.2c-0.1,0-0.1,0-0.1-0.1c0-0.4,0.1-0.7,0.2-0.8
		c0,0.1,0,0.3,0,0.5c0,0.1,0,0.2,0,0.4c0,0.1,0,0.2,0,0.3c0,0.1,0,0.1,0,0.2c0,0,0.1-0.1,0.1-0.2c0-0.3,0.1-0.9,0.2-1.7
		c0.1-0.5,0.1-0.9,0.1-1.1c0,0.1,0,0.2-0.1,0.3c0,0.1,0,0.2-0.1,0.3c0,0,0,0.1-0.1,0.3c0,0.1-0.1,0.2-0.1,0.3c0-0.1,0-0.2,0-0.3
		c0,0,0-0.1,0-0.2c0-0.1,0-0.1,0-0.2c0,0,0-0.1-0.1-0.2c0-0.1,0-0.2,0-0.2c0.1-0.1,0.1-0.2,0-0.3c0-0.1,0-0.1,0-0.2c0,0,0-0.1,0-0.1
		c-0.1-0.1-0.1-0.2-0.1-0.2c0,0,0-0.1,0-0.1c0,0-0.1,0-0.1,0c0,0,0,0-0.1,0.1l0,0.1c-0.1-0.1-0.2-0.1-0.3-0.1c-0.2,0-0.3,0.1-0.4,0
		c-0.1,0-0.1,0-0.2,0c-0.1,0-0.2,0.1-0.2,0.1c-0.1,0-0.1,0-0.2-0.1c0,0,0,0,0,0c0,0-0.1,0.1-0.1,0.1c-0.1,0-0.1,0-0.1,0.1
		c0,0.1-0.1,0.1-0.2,0c-0.1-0.1-0.3-0.1-0.6,0c-0.1,0-0.2,0.1-0.3,0.1c0,0,0,0,0,0.1c0,0,0,0.1-0.1,0.1c0,0,0,0,0,0.1
		c0,0,0,0.1,0,0.1c0,0.1,0,0.1,0,0.1c0,0-0.1,0.1,0,0.1c0,0,0,0,0,0c0,0,0,0,0,0l0,0c-0.1,0-0.1,0.1-0.1,0.2c0,0,0,0,0,0
		c0,0,0,0,0,0.1c0,0.1,0,0.2-0.1,0.2c0,0-0.1,0,0,0.1c0,0,0,0.1,0,0.1c0,0.1,0,0.1,0,0.1c0,0,0,0.1,0,0.1c-0.1,0.1-0.1,0.2,0,0.4
		c0,0.1,0,0.2,0,0.3c0,0.1-0.1,0.1-0.1,0.1c0,0,0,0.1,0.1,0.1c0,0.1,0,0.1,0,0.1c-0.1,0.1-0.1,0.1,0,0.2c0.1,0.1,0.1,0.1,0.1,0.1
		c0,0,0,0.1-0.1,0.2c0,0.1-0.1,0.1-0.1,0.1c0,0,0,0.1,0.1,0.1c0,0,0,0,0,0.1c0,0.3,0,0.5-0.1,0.6c0,0,0,0.1,0,0.2c0,0.1,0,0.1,0,0.2
		c0,0,0,0,0,0.1c-0.1,0,0,0.1,0.1,0.5c0,0,0,0.1-0.1,0.1c-0.1,0-0.2,0-0.2,0.1c0,0.2,0,0.2,0,0.2c0,0,0,0,0,0.1c0,0.1,0,0.1-0.1,0.1
		l-0.1,0c0,0,0,0-0.1,0.1c0,0,0,0.1-0.1,0.1c0,0,0,0-0.1,0c0,0-0.1,0-0.1,0c-0.1,0.1-0.2,0-0.3-0.1c-0.1-0.1-0.1-0.2-0.3-0.3
		c0,0.1,0.1,0.2,0,0.3c0,0.2,0,0.3,0,0.3c0,0,0,0.1,0,0.1c0,0.1,0,0.1-0.1,0.1c0,0,0-0.1,0-0.1c0-0.1,0-0.2,0-0.3c0,0,0,0-0.1,0
		c-0.1,0.1-0.1,0.1-0.1,0.1c-0.1,0-0.1,0-0.1-0.1c0-0.1,0-0.2,0-0.4c0-0.2,0-0.3,0-0.4c0-0.1,0-0.3,0.1-0.5c0-0.3,0.1-0.4,0.1-0.5
		c0-0.1,0-0.4,0.1-0.6c0-0.3,0-0.5,0.1-0.7c0.1-1,0.2-1.6,0.2-1.6c0,0,0-0.2,0.1-0.6c0-0.1,0-0.1,0-0.1c-0.1,0-0.1,0-0.1,0
		c0,0.1-0.1,0.1-0.1,0c0,0-0.1,0-0.2,0c-0.2,0-0.3,0-0.4,0.1c-0.1,0-0.1,0-0.1,0c0,0,0,0,0,0c0,0,0,0,0,0c0,0,0,0-0.1,0
		c-0.3,0.1-0.4,0.1-0.4,0.1c-0.1,0-0.2,0-0.3,0c-0.1-0.1-0.2-0.1-0.2,0c0,0-0.1,0-0.1,0c0,0,0-0.1,0-0.1c0,0,0,0,0,0
		C38,9.7,38,9.7,38,9.6c0-0.1,0-0.2-0.1-0.3c0,0,0.1,0,0.1,0c0.1,0,0.1,0,0.1,0c0.1,0,0.1-0.1,0.1-0.2c0-0.1,0-0.1,0-0.2
		c0.1-0.1,0.1-0.2,0.1-0.4c0.1,0.1,0.2,0.1,0.4,0c0.4-0.2,0.7-0.3,1-0.3c0.1,0,0.2-0.1,0.2-0.3c0-0.1,0-0.3,0.1-0.6
		c0-0.2,0-0.4,0.1-0.6c0-0.4,0.1-0.8,0.1-1.4c0-0.1,0-0.3,0.1-0.6c0-0.2,0-0.4,0.1-0.6c0.1-0.5,0.1-1,0.1-1.4c0-0.3,0.1-0.6,0.1-0.9
		c0-0.3,0.1-0.5,0-0.5c0,0,0-0.1,0.1-0.2c0-0.1,0.1-0.1,0.1-0.2C41,1,41,1,41.1,0.9c0.1-0.1,0.1-0.1,0.2,0c0.1,0.1,0.2,0.2,0.2,0.2
		c0.1,0,0.1,0,0.1,0c0,0,0.1,0,0.1-0.1c0-0.1,0.1-0.2,0.1-0.2c0.1,0,0.1,0,0.1,0.1c0,0.2,0,0.3,0,0.3c0,0.2,0,0.3,0.1,0.3
		c0,0,0,0.1,0,0.2C42,2.4,42,2.8,42,2.9c0,0.1,0,0.3-0.1,0.6c0,0.3-0.1,0.5-0.1,0.6c0,0.4-0.1,0.7-0.2,0.9c-0.1,0.2-0.1,0.4,0,0.6
		c0,0.1,0,0.1,0,0.1c0,0,0,0-0.1,0c0,0,0,0,0,0c0,0,0,0.1,0,0.1c0,0,0,0.1,0,0.1c0,0.1-0.1,0.1-0.1,0.2c0,0.1,0,0.2,0,0.2
		c0,0.1,0,0.1,0,0.2c0,0,0,0.1,0,0.2c-0.1,0.1-0.1,0.2,0,0.2c0.1,0.1,0.1,0.1,0,0.1c0,0,0,0,0,0.1c0,0.1,0,0.2-0.1,0.3
		c0,0,0,0.1,0,0.1c0,0,0.1,0,0.1,0c0,0,0.1,0,0.2,0c0.1,0,0.2,0,0.2,0c0,0,0.1,0,0.2,0c0.2,0,0.4,0,0.6-0.1c0.1,0,0.1,0,0.2,0
		c0,0,0,0,0.1,0c0.1-0.1,0.3-0.2,0.6-0.2c0,0,0.1,0,0.2,0c0.1,0,0.2,0,0.2,0c0,0,0.1,0,0.1,0c0-0.1,0.1-0.1,0.2-0.1
		c0.2,0,0.3-0.1,0.3-0.4c0.1-1.1,0.2-1.8,0.2-2.1c0-0.2,0.1-0.4,0.1-0.8c0.1-0.3,0.1-0.6,0.1-0.8c0-0.4,0.2-0.9,0.4-1.4
		c0,0,0-0.1,0.1-0.1c0.2-0.2,0.3-0.4,0.4-0.6c0.1,0.1,0.1,0.1,0.2,0c0,0,0.1-0.1,0.1-0.2c0,0,0.1,0,0.1,0.1
		C46.4,0.8,46.4,0.8,46.5,0.8C46.4,0.8,46.4,0.8,46.5,0.8z M42.1,1.5c0.1,0.1,0.1,0.2,0,0.4C42.1,1.7,42.1,1.6,42.1,1.5z M45,3.4
		c0,0,0,0.1,0,0.1c0,0.1,0,0.1,0,0.1c0,0.1-0.1,0.2-0.2,0.2C44.9,3.6,44.9,3.4,45,3.4C44.9,3.4,44.9,3.3,45,3.4
		C45,3.4,45,3.4,45,3.4z"/>
	<path class="st0" d="M54.6,6.8c0,0,0,0.1,0,0.3c0,0.1,0,0.1,0,0.2c0,0,0,0.1,0,0.2c0,0.2,0,0.5-0.1,0.7c0,0.1-0.1,0.2-0.1,0.2
		c0,0.1,0,0.1,0,0.2c0,0,0,0,0,0.1c0,0,0,0,0,0.1c0,0,0,0.1,0,0.1c0,0.1-0.1,0.3-0.2,0.5C54,9.6,54,9.8,53.9,9.9
		c-0.2,0.3-0.3,0.4-0.3,0.4c0,0-0.1,0.1-0.1,0.1c0,0.1-0.1,0.1-0.1,0.3c-0.1,0.1-0.2,0.3-0.3,0.4c-0.1,0.1-0.2,0.3-0.3,0.4
		c0,0-0.1,0.1-0.2,0.2c-0.1,0.1-0.1,0.2-0.2,0.2c0,0,0,0,0,0c0,0,0.1,0,0.1,0c0.2-0.2,0.4-0.3,0.4-0.4c0,0,0,0,0-0.1c0,0,0,0,0,0
		c0,0,0.1-0.1,0.1-0.1c0.1-0.1,0.1-0.1,0.2-0.2c0,0,0,0,0.1,0c0,0,0,0,0,0.1c0,0,0,0.1,0,0.1c0,0-0.1,0.1-0.2,0.2l0,0l0,0l0,0.1
		c0,0,0,0,0,0c0,0,0,0,0,0C53,11.7,53,11.8,53,11.8c0,0,0,0.1,0.1,0.2c0-0.1,0-0.1,0.1-0.2c0.1-0.1,0.1-0.1,0.1-0.1
		c0,0,0.1-0.1,0.1-0.1c0,0,0.1,0,0.1,0c0,0,0.1,0.1,0,0.1c0,0,0,0-0.1,0.1c0,0,0,0,0,0c0,0-0.1,0-0.2,0c-0.1,0-0.1,0.1-0.1,0.1
		L53,12c0,0-0.1,0.1-0.1,0.1c0,0-0.1,0-0.1,0c0-0.1-0.1-0.1-0.1,0l-0.2,0.2c-0.1,0.1-0.1,0.1-0.1,0.2c0,0,0,0,0,0.1
		c0,0.1-0.1,0.1-0.1,0.1c0,0,0,0-0.1-0.1c0,0-0.1,0-0.1,0c-0.1,0-0.1,0.1-0.1,0.1c-0.1,0.1-0.1,0.1-0.1,0.1c0,0,0.1,0,0.1,0
		c0,0,0.1,0,0.1-0.1c0,0,0,0,0,0c0,0,0,0,0,0c-0.1,0-0.1,0.1-0.3,0.2c0,0-0.1,0.1-0.1,0.1l0,0l0,0c-0.1,0-0.1,0.1-0.1,0.1
		c0,0,0,0-0.1,0l0,0l0,0l0,0c0,0,0,0,0,0c0,0,0,0-0.1,0c-0.1,0-0.1,0.1-0.1,0c0,0-0.1,0-0.1,0c0,0-0.1,0-0.1,0
		c-0.1,0-0.1,0.1-0.2,0.1c-0.1,0-0.2,0.1-0.3,0c-0.1,0-0.2,0-0.4,0.1c-0.1,0.1-0.2,0.1-0.3,0c0,0,0,0,0.1,0h0l0,0c0,0-0.1,0-0.1,0
		c-0.1,0-0.2,0-0.4,0c0,0-0.1,0-0.2,0c-0.2,0-0.5-0.1-0.7-0.2c-0.1,0-0.1-0.1-0.1-0.1c-0.1-0.1-0.3-0.3-0.6-0.5
		c-0.1-0.1-0.1-0.1-0.2-0.2c0,0,0-0.1,0-0.1c0.1,0,0.1,0,0-0.1c-0.1-0.1-0.2-0.1-0.2-0.3c-0.2-0.3-0.2-0.4-0.2-0.3
		c0-0.1-0.1-0.1-0.1-0.2c0,0,0-0.1,0-0.2c0,0,0-0.1-0.1-0.1c-0.1-0.2-0.2-0.4-0.2-0.6c0-0.1-0.1-0.2-0.1-0.4c0-0.2-0.1-0.3-0.1-0.4
		c0-0.2-0.1-0.3-0.1-0.4c0-0.2,0-0.5,0-0.8c0-0.3,0-0.6,0-0.8c0,0,0-0.1,0-0.2c0-0.1,0-0.1,0-0.1c0,0,0-0.1,0-0.2c0-0.1,0-0.1,0-0.1
		l0-0.2c0-0.1,0-0.2,0-0.3l0-0.1l0-0.1l0-0.1l0-0.3c0,0,0-0.1,0-0.1c0-0.1,0-0.2,0-0.3c0-0.1,0.1-0.2,0.1-0.2c0,0,0-0.1,0-0.1
		c0-0.1,0-0.1,0-0.2l-0.1,0.1c0,0,0,0,0,0c0,0,0,0,0-0.1c0,0,0,0,0-0.1l0-0.1c0-0.1,0-0.1,0.1-0.1c0.1-0.2,0.1-0.4,0.2-0.6
		c0,0,0-0.1,0.1-0.3c0-0.1,0.1-0.2,0.1-0.3l0,0c0,0,0,0,0-0.1c0,0,0,0,0-0.1c0,0,0-0.1,0-0.1c0.1-0.1,0.1-0.2,0.2-0.4l0.3,0.1
		c-0.1,0-0.1-0.1-0.2-0.1l0,0l0,0h0.1v0h-0.1c0,0,0,0,0,0c0,0,0,0,0,0c0,0,0,0,0,0c0.1-0.1,0.1,0,0.1,0c0,0,0,0,0.1,0
		c-0.1,0,0,0,0.2-0.1c0,0,0,0,0,0c0,0,0,0,0,0c0,0-0.1,0.1-0.1,0.1c0,0.1,0,0.1,0.1,0.1c0,0,0,0,0,0c0,0,0,0,0,0c0,0,0.1,0,0,0.1
		c0,0,0,0,0,0.1c0,0,0,0,0,0c0,0,0,0,0,0.1c0,0,0,0,0,0c0,0,0,0,0,0.1c0,0,0,0.1,0,0.1c0,0.1,0,0.1-0.1,0.1c-0.1,0.1-0.1,0.2,0,0.2
		l0,0c0,0,0,0.1,0,0.1c0,0,0,0,0,0c0,0,0,0,0,0c0,0,0,0,0,0.1c0,0,0,0,0,0.1c0,0,0,0,0,0.1c0,0,0,0.1-0.1,0.2c0,0,0,0.1,0,0.2
		c0,0.2,0,0.3,0,0.3c0,0,0,0,0,0.1c0,0,0,0.1,0,0.1c0,0-0.1,0.1-0.1,0.2c0,0,0,0,0,0.1c0,0,0,0.1,0,0.1l0,0.1c0,0.1,0,0.2-0.1,0.1
		c0,0-0.1-0.1-0.1-0.2c0,0,0-0.1,0-0.1c0,0,0-0.1,0-0.1c0,0,0,0,0-0.1c0,0,0,0,0,0c0,0,0,0,0,0c0,0,0,0,0,0.1c0,0.2,0,0.3-0.1,0.5
		c0,0.1,0,0.1,0.1,0.1c0,0,0,0,0,0c0.1,0,0.1,0,0.2,0c0,0.1,0,0.1,0,0.2c0,0,0,0-0.1,0c0-0.1,0-0.1,0-0.1c0,0-0.1,0-0.1,0
		c0,0,0,0,0,0.1c0,0,0,0,0,0l0,0.2c0,0,0,0.1-0.1,0.2c0,0,0,0,0,0.1s0,0,0,0c0,0,0,0,0,0.1v0.2c0,0.1,0,0.1,0,0.2c0,0,0,0.1,0,0.1
		c0,0-0.1,0.1-0.1,0.2c0,0,0,0.1,0,0.3c0,0.1,0,0.2,0,0.3c0,0.3,0,0.6,0,0.7c0,0,0,0.3,0,0.9c0,0.1,0,0.3,0.1,0.6c0,0,0,0,0,0.1
		c0,0,0,0.1,0,0.1c0.1,0,0.1,0.2,0.2,0.4c0,0,0,0.1,0.1,0.1c0,0,0.1,0,0.1,0.1c0.1,0.1,0.2,0.3,0.4,0.5c0,0,0.1,0.1,0.1,0.1
		c0.1,0,0.1,0.1,0.2,0.1c0,0,0,0,0.1,0c0,0,0.1,0,0.1,0c0,0.1,0.1,0.1,0.2,0.1c0-0.1,0-0.1,0.1-0.2c0.1,0,0.2,0,0.3,0
		c0,0,0,0-0.1,0.1c0,0,0,0.1,0,0.1c0.1,0,0.3,0.1,0.4,0.1h0c0,0,0.1,0,0.1,0c0,0,0,0,0.1,0c0.1,0,0.1-0.1,0.2-0.1c0,0,0.1,0,0.3-0.1
		c0.1,0,0.2,0,0.2,0c0,0,0,0,0.1,0c0,0,0,0,0.1,0c0,0,0,0,0,0c0,0,0,0,0,0c0,0,0,0,0.1,0c0.2-0.1,0.4-0.2,0.6-0.5
		c0.1-0.1,0.1-0.1,0.2,0c0.1,0,0.1,0,0.2,0c0,0,0.1-0.1,0.1-0.2c0.1-0.1,0.1-0.1,0.1-0.2c-0.1,0-0.1,0.1-0.2,0.1s-0.1,0.1-0.1,0.1
		c0,0,0,0,0,0c0,0,0,0-0.1,0c0,0,0,0,0-0.1c0-0.1,0-0.1,0-0.1c0,0,0.1-0.1,0.1-0.1c0,0,0.1-0.1,0.1-0.1c0,0,0-0.1,0.1-0.1
		c0,0,0.1,0,0.1,0c0,0,0,0.1,0,0.2c0.1-0.1,0.1-0.1,0.1-0.2c0,0,0-0.1,0-0.1c0,0,0-0.1,0-0.1c0,0,0,0,0,0c0-0.1,0.1-0.3,0.2-0.5
		c0,0,0,0,0.1,0c0,0,0,0,0,0.1c0,0.1,0,0.1,0,0.2c0,0,0,0,0,0c0,0,0,0,0,0c0,0,0-0.1,0-0.2c0-0.1,0-0.2,0-0.2c0,0,0-0.1,0-0.1
		c0,0,0.1-0.1,0.2-0.4c0,0,0-0.1,0-0.1c0,0,0,0,0.1,0c0,0,0,0,0,0c0,0,0,0.1,0,0.2c0,0.1-0.1,0.2-0.1,0.2c0,0,0,0.1,0,0.1
		c0,0,0,0,0.1,0C53,9.2,53,9.1,53,9c0.1-0.2,0.1-0.2,0.1-0.2c0-0.1,0-0.1,0-0.2c0,0-0.1-0.1-0.1-0.2c0,0,0-0.1,0-0.1
		c0-0.1,0.1-0.1,0.1,0c0.1,0.1,0.1,0.1,0,0.1c0,0,0.1,0,0.1,0c0,0,0,0,0-0.1c0.1-0.3,0.1-0.4,0.1-0.5c0,0,0,0,0-0.1c0,0,0-0.1,0-0.1
		c-0.1,0-0.1,0-0.1-0.1c0-0.1,0-0.1-0.1-0.2c0,0,0-0.1-0.1-0.1C53,7.2,53,7.1,53,7c0,0,0,0,0,0c0-0.1,0-0.2,0.1-0.1
		c0,0,0.1,0.1,0.1,0.1c0,0,0,0.1,0,0.1c0,0.1,0,0.1,0.1,0.1c0.1,0,0.1,0,0.1-0.1c0-0.2,0-0.4,0-0.5c0-0.1,0-0.2,0-0.3
		c0-0.1,0-0.1,0-0.1c0-0.1,0-0.2,0-0.4c0-0.1,0-0.2,0-0.4c0-0.1,0-0.2-0.1-0.3c0,0,0-0.2-0.1-0.4c0-0.2-0.1-0.3-0.1-0.3
		C53.1,4.1,53,4,53,3.9c0,0,0,0,0,0c0,0,0,0,0,0h0c0,0,0-0.1,0-0.1c0-0.1,0-0.2-0.1-0.3c0,0,0,0-0.1,0l0,0c-0.1-0.1-0.1-0.2-0.1-0.2
		c-0.1-0.1-0.2-0.2-0.4-0.3c0,0,0,0,0,0l0,0c0,0-0.1-0.1-0.2-0.3c0,0-0.1-0.1-0.2-0.1c-0.1,0-0.1,0-0.2-0.1
		c-0.1-0.1-0.2-0.2-0.3-0.2c-0.2,0-0.3,0-0.2,0c0,0,0.1,0.1,0.1,0.1c0.1,0,0.1,0.1,0.1,0.1c0,0,0,0,0,0.1c0,0,0,0-0.1,0
		c-0.1,0-0.1-0.1-0.2-0.2c0,0,0,0,0,0c0-0.1-0.1-0.1-0.1,0c0,0-0.1,0.1-0.1,0.1c0,0,0,0-0.1,0c0,0,0,0-0.1,0c-0.1,0-0.2,0-0.3,0.1
		c-0.1,0-0.1,0-0.1,0c0,0,0-0.1-0.1-0.1c-0.1,0-0.2,0-0.3,0.1c-0.1,0-0.1,0.1-0.2,0.1c0,0-0.1,0-0.1,0c0,0,0,0-0.1,0c0,0,0,0,0,0
		c0,0,0.1,0,0.1-0.1c0.1,0,0.1-0.1,0.2-0.1l0,0c0,0-0.1,0-0.2,0.1c-0.1,0-0.2,0.1-0.2,0.1c0,0-0.1,0-0.2,0.1c0,0,0,0-0.1,0
		c0,0,0,0,0-0.1c0,0,0.1-0.1,0.2-0.2c0.1-0.1,0.2-0.1,0.2-0.2c0,0-0.1,0-0.2,0.1c-0.1,0-0.2,0.1-0.5,0.3c-0.1,0-0.1,0.1-0.2,0.1
		c-0.2,0.1-0.3,0.2-0.4,0.2L48.2,3c-0.1,0.1-0.1,0.1-0.1,0.1c0,0,0,0,0-0.1c0,0,0-0.1,0-0.1c0,0,0,0,0-0.1c0,0,0-0.1,0.1-0.2
		c0-0.1,0.1-0.1,0.1-0.2c-0.1,0-0.2,0.1-0.4,0.3c0-0.1,0.1-0.3,0.3-0.4c0.1-0.1,0.2-0.2,0.2-0.2c0.1-0.1,0.1-0.1,0.2-0.2
		c-0.1,0-0.1,0.1-0.2,0.1c0,0,0,0.1-0.1,0.1c0,0,0,0-0.1,0.1c0,0-0.1,0.1-0.1,0c0,0-0.1-0.1,0-0.1c0.1-0.1,0.1-0.1,0.2-0.2
		c0.1-0.1,0.2-0.1,0.2-0.2h0l0.1-0.1l0.1,0l0.1-0.1c0.1-0.1,0.2-0.1,0.3-0.2c0,0,0.1,0,0.1-0.1c0,0,0,0,0-0.1c0,0,0,0-0.1,0
		c-0.2,0.1-0.3,0.1-0.4,0.2c0,0-0.1,0.1-0.1,0.1c0,0,0,0-0.1,0l-0.1,0l0,0c-0.1,0-0.1,0.1-0.2,0.1c0,0-0.1,0-0.1,0.1
		C48.1,2,48.1,2,48,2c-0.1,0.1-0.2,0.1-0.2,0.2c0,0-0.1,0.1-0.1,0.1c0,0,0,0-0.1,0c0,0,0,0,0-0.1c0.1-0.1,0.1-0.1,0.2-0.2
		c0,0,0.1-0.1,0.1-0.1L48,1.9l0.1-0.1c0,0,0.1-0.1,0.3-0.2c0,0,0.1-0.1,0.1-0.1c0,0,0.1-0.1,0.2-0.1c0.1,0,0.2-0.1,0.4-0.2
		c0.1-0.1,0.2-0.1,0.3-0.1c0.1,0,0.3-0.1,0.4-0.1c0,0,0.1,0,0.1,0L50,1h0l0.1,0c0.1,0,0.2,0,0.3,0c0.1,0,0.2,0,0.3,0
		c0,0,0.1,0,0.2,0c0,0,0.1,0,0.1,0c0,0,0.1,0,0.1,0c0.1,0,0.2,0,0.3,0l0.1,0c0.1,0,0.1,0,0.1-0.1c0,0,0,0,0,0c0,0,0.1,0,0.1,0l0,0
		c0,0.1,0.2,0.2,0.4,0.4c0,0,0.1,0,0.2,0.1c0,0,0,0,0.1,0c0,0,0,0,0-0.1c0,0,0,0-0.1-0.1c0,0-0.1-0.1-0.1-0.1c0,0,0,0,0-0.1
		c0,0,0,0,0.1,0c0.1,0,0.1,0,0.2,0.1c0.1,0.1,0.1,0.2,0.2,0.2c0,0.1,0.1,0.2,0.2,0.2c0.1,0.1,0.1,0.1,0.2,0.2L53.3,2
		c0,0,0,0.1,0.1,0.2c0.2,0.2,0.3,0.4,0.4,0.5l0,0c0,0,0.1,0.1,0.1,0.2C53.9,3,54,3,54,3.1c0,0.1,0.1,0.3,0.1,0.4v0l0,0l0,0.1l0,0.1
		c0,0.1,0.1,0.2,0.1,0.2c0.1,0.2,0.1,0.5,0.2,0.7l0,0.2c0,0.1,0,0.1,0,0.2l0,0.4c0,0.4,0.1,0.6,0.1,0.6S54.6,6.4,54.6,6.8z M46.7,8
		c0-0.3,0-0.5,0-0.7C46.7,7.6,46.6,7.9,46.7,8c-0.1,0.1-0.1,0.2-0.1,0.4c0,0.1,0,0.2,0,0.3c0-0.1,0-0.2,0-0.3
		C46.7,8.1,46.7,8,46.7,8z M47,4.6C47,4.5,47,4.5,47,4.6C47,4.5,47,4.5,47,4.6C47,4.6,47,4.6,47,4.6C47,4.6,47,4.6,47,4.6z M47.1,4
		C47.1,3.9,47.1,3.9,47.1,4C47.1,3.9,47.1,3.9,47.1,4C47.1,4,47.1,4,47.1,4L47.1,4z M47.5,3L47.5,3C47.5,3,47.5,3,47.5,3
		C47.5,3,47.5,3,47.5,3C47.5,3,47.5,3,47.5,3z M47.5,5C47.5,5,47.5,5,47.5,5C47.6,5.1,47.6,5,47.5,5C47.6,4.9,47.6,4.9,47.5,5
		C47.5,4.9,47.5,4.9,47.5,5z M47.6,12.2C47.6,12.2,47.6,12.2,47.6,12.2L47.6,12.2C47.6,12.1,47.6,12.1,47.6,12.2
		C47.6,12.1,47.6,12.2,47.6,12.2z M47.7,4.4c0,0.1-0.1,0.2,0,0.3C47.7,4.6,47.7,4.5,47.7,4.4z M47.9,2.5C47.9,2.5,47.9,2.5,47.9,2.5
		c0,0.1-0.1,0.1-0.2,0.2C47.8,2.5,47.9,2.5,47.9,2.5z M48,13.1c0.1,0,0.1,0,0.2,0.1l0,0l-0.1,0C48,13.3,48,13.2,48,13.1
		C47.9,13.1,47.9,13.1,48,13.1C47.9,13.1,47.9,13.1,48,13.1z M48,4.4C48,4.4,48,4.3,48,4.4c0-0.1,0-0.1,0-0.1
		C48.1,4.3,48.1,4.3,48,4.4C48.1,4.3,48.1,4.4,48,4.4L48,4.4L48,4.4z M48.5,3.2C48.6,3.2,48.6,3.2,48.5,3.2
		C48.6,3.2,48.6,3.2,48.5,3.2c0,0.2-0.1,0.2-0.1,0.3c0,0,0,0,0,0c0,0,0,0,0,0C48.4,3.4,48.4,3.3,48.5,3.2
		C48.5,3.2,48.5,3.2,48.5,3.2z M48.6,11.3C48.6,11.2,48.6,11.2,48.6,11.3c0.1,0,0.1-0.1,0.2-0.1c0.1,0,0.1,0,0.1,0
		c0.1,0,0.1,0,0,0.1c0,0.1-0.1,0.1-0.1,0.1C48.7,11.3,48.7,11.3,48.6,11.3C48.6,11.3,48.6,11.3,48.6,11.3
		C48.5,11.3,48.5,11.3,48.6,11.3z M49.1,2.4c0.1-0.1,0.2-0.1,0.3-0.1v0C49.3,2.2,49.2,2.3,49.1,2.4L49.1,2.4z M49.3,4.1
		C49.3,4.1,49.3,4.1,49.3,4.1C49.3,4.1,49.3,4.1,49.3,4.1C49.2,4.1,49.2,4.1,49.3,4.1C49.3,4.1,49.3,4.1,49.3,4.1
		C49.3,4.1,49.3,4.1,49.3,4.1C49.3,4.1,49.3,4.1,49.3,4.1C49.3,4.1,49.3,4.1,49.3,4.1L49.3,4.1C49.3,4.1,49.3,4.1,49.3,4.1
		C49.3,4.1,49.3,4.1,49.3,4.1C49.3,4.1,49.3,4.1,49.3,4.1z M49.5,2.7C49.5,2.7,49.5,2.7,49.5,2.7C49.4,2.7,49.4,2.7,49.5,2.7
		L49.5,2.7C49.5,2.7,49.5,2.7,49.5,2.7z M49.5,1L49.5,1L49.5,1L49.5,1L49.5,1z M50,2C50,2,50,2,50,2C50,2,50,2,50,2
		C50,2,49.9,2,50,2C49.9,2,49.9,2,50,2C50,2,50,2,50,2z M50,0.9C49.9,0.9,49.9,0.8,50,0.9C49.9,0.8,50,0.8,50,0.9
		C50,0.8,50,0.8,50,0.9c0.1-0.1,0.1-0.1,0.1-0.1c0,0,0,0,0,0L50,0.9L50,0.9L50,0.9z M50.3,0.8C50.3,0.8,50.3,0.8,50.3,0.8
		C50.3,0.8,50.3,0.8,50.3,0.8c0.1-0.1,0.1-0.1,0.2-0.1c0.1,0,0.2-0.1,0.2-0.1c0,0,0.1,0,0.2,0c0.1,0,0.1,0,0.2,0c0.1,0,0.2,0,0.3,0
		c0.1,0,0.1,0,0.1,0.1c0,0-0.1,0-0.1,0c-0.1,0-0.2,0-0.3,0v0C50.9,0.8,50.6,0.8,50.3,0.8C50.4,0.8,50.3,0.8,50.3,0.8z M50.8,2.3
		C50.8,2.3,50.8,2.3,50.8,2.3C50.8,2.2,50.8,2.2,50.8,2.3c-0.1-0.1-0.2,0-0.4,0v0C50.6,2.3,50.7,2.3,50.8,2.3z M50.7,1.9
		c-0.1,0-0.2,0-0.3,0C50.6,1.9,50.7,1.9,50.7,1.9z M52.2,12.2C52.3,12.2,52.3,12.2,52.2,12.2C52.2,12.1,52.2,12.1,52.2,12.2
		c-0.1,0-0.2,0-0.2,0c-0.1,0-0.2,0.1-0.2,0.1c-0.1,0-0.1,0.1-0.2,0.1l-0.2,0.1l-0.3,0.1c-0.1,0-0.2,0.1-0.2,0.1
		c-0.1,0-0.1,0.1-0.1,0.1c-0.1,0,0,0,0.3-0.1c0.1,0,0.1,0,0.2-0.1l0.1,0l0.1-0.1l0,0l0.1,0l0,0h0c0,0,0,0,0.1,0c0,0,0.1-0.1,0.1-0.1
		c0.1-0.1,0.2-0.1,0.3-0.2C52.1,12.4,52.2,12.3,52.2,12.2z M51,0.3C51,0.3,51,0.3,51,0.3l-0.1,0C50.8,0.3,50.8,0.3,51,0.3
		C50.9,0.3,51,0.3,51,0.3z M50.9,3.4C50.9,3.5,50.9,3.5,50.9,3.4C50.9,3.5,50.9,3.5,50.9,3.4C50.8,3.5,50.8,3.5,50.9,3.4
		C50.8,3.5,50.9,3.4,50.9,3.4L50.9,3.4C50.9,3.4,50.9,3.4,50.9,3.4L50.9,3.4C50.9,3.4,50.9,3.4,50.9,3.4z M51,2.3
		C51,2.2,51.1,2.2,51,2.3C51.1,2.2,51.1,2.2,51,2.3C51,2.1,51,2.1,51,2.3C50.9,2.2,50.9,2.3,51,2.3z M51.6,2.1
		c0.1,0,0.2,0.1,0.3,0.1C51.8,2.1,51.7,2.1,51.6,2.1c-0.1-0.1-0.2-0.1-0.3-0.2c-0.1,0-0.1,0-0.2,0c0.1,0,0.2,0.1,0.2,0.1
		C51.4,2,51.5,2,51.6,2.1z M51.5,12.9C51.6,12.9,51.6,12.9,51.5,12.9L51.5,12.9C51.5,12.8,51.5,12.9,51.5,12.9
		C51.5,12.9,51.5,12.9,51.5,12.9C51.5,12.9,51.5,12.9,51.5,12.9L51.5,12.9z M52,2.1C52,2.1,52,2.1,52,2.1C52,2.1,52,2,52,2.1L52,2.1
		L52,2.1z M53.4,3.8c0,0,0,0.1,0.1,0.1C53.5,3.9,53.5,3.9,53.4,3.8L53.4,3.8L53.4,3.8L53.4,3.8c0-0.2,0-0.3-0.1-0.4
		c-0.1-0.1-0.1-0.2-0.2-0.3l0,0C53.1,3,53,2.9,52.8,2.7h0c0,0,0,0,0,0.1c0.1,0.1,0.2,0.3,0.3,0.4l0,0c0,0,0.1,0.1,0.2,0.3
		c0,0,0,0.1,0,0.1c0,0,0,0-0.1,0c0,0-0.1-0.1-0.1-0.1c0-0.1-0.1-0.1-0.1-0.1C53,3.1,52.9,3,52.8,3l-0.1-0.1
		c-0.1-0.1-0.2-0.2-0.2-0.3l0,0c0,0,0,0-0.1-0.1c-0.1-0.1-0.2-0.2-0.3-0.2c-0.1,0-0.1,0-0.1,0c0,0,0,0,0.1,0.1
		c0.1,0.1,0.1,0.1,0.2,0.2s0.1,0.1,0.1,0.1c0,0,0,0,0.1,0c0.1,0.1,0.1,0.1,0.2,0.2c0,0.1,0.1,0.2,0.3,0.3h0v0c0.1,0,0.1,0.1,0.1,0.2
		c0,0.1,0,0.1,0.1,0.2l0,0.1v0l0,0c0,0.1,0,0.2,0.1,0.2c0.1,0.1,0.1,0.2,0.1,0.2c0,0,0-0.1,0-0.2c0-0.1,0-0.2-0.1-0.2c0,0,0,0,0,0
		c0,0,0,0,0,0c0,0,0,0,0,0C53.3,3.7,53.3,3.7,53.4,3.8C53.3,3.7,53.3,3.7,53.4,3.8L53.4,3.8L53.4,3.8L53.4,3.8z M52.3,3.3
		C52.3,3.3,52.3,3.3,52.3,3.3C52.2,3.2,52.2,3.2,52.3,3.3C52.3,3.2,52.3,3.2,52.3,3.3C52.3,3.2,52.3,3.2,52.3,3.3z M52.3,2.9
		L52.3,2.9C52.3,2.9,52.3,2.9,52.3,2.9C52.3,2.9,52.3,2.9,52.3,2.9z M52.7,3.5L52.7,3.5l-0.2,0.1c0,0,0,0,0,0c0,0,0,0,0,0L52.7,3.5z
		 M52.6,3.6C52.6,3.6,52.6,3.6,52.6,3.6L52.6,3.6L52.6,3.6L52.6,3.6L52.6,3.6C52.6,3.6,52.7,3.6,52.6,3.6c0.1,0.1,0.1,0.1,0.1,0.1
		c0,0-0.1,0-0.1,0C52.6,3.7,52.5,3.7,52.6,3.6C52.5,3.7,52.5,3.7,52.6,3.6L52.6,3.6C52.5,3.6,52.6,3.6,52.6,3.6
		C52.6,3.6,52.6,3.6,52.6,3.6C52.6,3.6,52.6,3.6,52.6,3.6z M52.6,12.2C52.6,12.2,52.7,12.2,52.6,12.2C52.7,12.3,52.7,12.3,52.6,12.2
		C52.6,12.4,52.6,12.4,52.6,12.2C52.5,12.3,52.5,12.3,52.6,12.2z M52.9,4.3C52.9,4.3,52.9,4.3,52.9,4.3l-0.1-0.1c0,0,0-0.1,0-0.1
		c0,0,0,0,0.1,0C52.9,4.2,52.9,4.3,52.9,4.3C52.9,4.3,52.9,4.3,52.9,4.3z M52.9,7.9C53,7.8,53,7.8,52.9,7.9C53,7.8,53,7.9,52.9,7.9
		C53,8,53,8,52.9,7.9C52.9,7.9,52.9,7.9,52.9,7.9z M53,5.3C53,5.3,53,5.3,53,5.3c0.1,0.1,0.1,0.2,0.1,0.2c0,0,0,0,0,0
		C53,5.4,53,5.4,53,5.3L53,5.3L53,5.3z M53.1,5.8c0.1,0,0.1,0.1,0.1,0.2c0,0.1,0,0.1,0,0.2c0,0.1,0,0.1,0,0.2c0,0,0,0.1,0,0.1
		c0,0,0,0-0.1-0.1C53,6.2,53,6,53.1,5.8C53,5.8,53.1,5.8,53.1,5.8z M53.4,7.3L53.4,7.3C53.4,7.3,53.3,7.3,53.4,7.3
		C53.3,7.3,53.3,7.3,53.4,7.3L53.4,7.3C53.4,7.4,53.4,7.4,53.4,7.3L53.4,7.3z M53.6,5.2c0,0,0,0,0.1,0.1c0-0.1,0-0.2,0-0.3
		c0,0,0,0-0.1,0c0,0-0.1,0-0.1-0.1c0,0,0,0,0-0.1c0-0.1,0-0.2-0.1-0.4c0,0,0,0,0,0c0,0,0,0,0,0c0,0.1,0,0.1,0,0.1
		c0,0.2,0.1,0.4,0.1,0.5C53.5,5.2,53.5,5.2,53.6,5.2z M53.5,4.1C53.5,4.1,53.5,4.1,53.5,4.1c0,0.3,0.1,0.5,0.1,0.7l0,0
		c0-0.1,0-0.2-0.1-0.3C53.6,4.3,53.6,4.2,53.5,4.1C53.5,4.1,53.5,4.1,53.5,4.1z"/>
	<path class="st0" d="M59,16.4C59.1,16.4,59.1,16.3,59,16.4c0.3-0.3,0.3-0.5,0.2-0.6c0,0,0,0,0-0.1c0,0,0,0,0.1,0c0,0,0,0,0.1,0
		c0,0,0.1,0,0.1-0.1c0,0,0-0.1,0-0.1l0-0.1c0-0.1,0-0.2,0-0.2c0,0-0.1,0-0.1,0h-0.1c0,0,0,0,0-0.1c0,0,0-0.1,0-0.1c0,0,0.1,0,0.1,0
		c0.1,0,0.1,0,0.1-0.1c0,0,0-0.1,0-0.1c0-0.1,0-0.1,0-0.2c0-0.1,0-0.1,0-0.1c0,0,0-0.1,0-0.2c0-0.1,0-0.2,0-0.2c0,0,0,0,0-0.1
		c0,0,0-0.1,0-0.1c0,0,0-0.1-0.1-0.2c0-0.1,0-0.1-0.1-0.1c0,0-0.1-0.1-0.1-0.1c-0.1,0-0.2-0.1-0.3-0.3c-0.1-0.2-0.1-0.4-0.2-0.6
		c0-0.1-0.1-0.1-0.1-0.2c0-0.1-0.1-0.3-0.2-0.5c-0.1-0.2-0.2-0.4-0.2-0.5c0-0.1-0.1-0.3-0.2-0.6c-0.1-0.2-0.2-0.3-0.2-0.5
		c-0.1-0.2-0.1-0.4-0.1-0.5c0,0,0-0.1-0.1-0.3l-0.1-0.1l0-0.1v0h0l-0.1-0.2c-0.1-0.2-0.2-0.4-0.2-0.4c-0.1-0.1-0.2-0.5-0.5-1
		c-0.1-0.3-0.3-0.5-0.4-0.8c0-0.1-0.1-0.2-0.1-0.2C56,6.6,56,6.5,56,6.5c-0.1-0.2-0.1-0.3-0.2-0.5c0-0.2,0-0.3-0.1-0.3
		c0,0,0-0.1-0.1-0.2l0-0.1l0-0.1c0,0,0,0,0-0.1V5c0,0,0-0.1,0-0.2c0-0.2,0-0.4,0.1-0.7c0,0,0-0.1,0-0.1c0-0.1,0-0.1,0-0.1
		c0-0.1,0-0.2,0-0.2c0-0.1,0-0.2,0.1-0.3c0,0,0.1-0.1,0.1-0.2c0-0.2,0.1-0.4,0.2-0.7c0-0.1,0.1-0.2,0.1-0.2c0-0.1,0.1-0.1,0.2-0.2
		c0.1-0.1,0.1-0.1,0.1-0.2c0-0.1,0-0.2,0.1-0.3c0,0,0-0.1,0.1-0.1c0,0,0,0,0.1-0.1c0.1-0.1,0.1-0.1,0.1-0.1c0.3-0.3,0.6-0.4,0.9-0.5
		c0,0,0.1,0,0.2-0.1c0.2-0.1,0.5-0.2,0.8-0.2c0.2,0,0.5,0,0.7,0c0.2,0,0.4,0.1,0.7,0.1l0.2,0c0,0,0.1,0,0.1,0l0.1,0
		c0,0,0.1,0,0.2,0.1C60.9,1,61,1,61,1c0.3,0.1,0.6,0.4,0.8,0.6l0.1,0.1l0.1,0.1l0.1,0.2c0,0,0,0.1,0.1,0.2l0.1,0.1c0,0,0,0,0,0l0,0
		l0,0l0,0l0,0l0,0l0,0.1l0.1,0.1c0,0,0,0.1,0.1,0.1c0,0,0,0.1,0.1,0.1c0,0,0,0.1,0,0.1l0,0.1l0,0v0h0v0v0l0,0l0,0l0,0
		c0,0.1,0,0.1,0.1,0.1c0,0.1,0,0.2,0,0.3c0,0.1,0,0.1-0.1,0.1c-0.1-0.1-0.2-0.1-0.3,0c0,0-0.1,0-0.2-0.1L62,3.3l-0.1,0l0,0
		c0,0,0,0,0,0h0c-0.1,0-0.1,0-0.1,0c0,0,0,0-0.1,0.1v0c0,0,0,0,0,0v0c0,0,0,0,0,0.1c0,0,0,0.1,0,0.1c-0.1,0.1-0.1,0.1-0.2,0
		c0,0,0,0,0,0l0,0l0,0v0l0-0.1c0,0,0-0.1-0.1-0.1l0-0.1l0-0.1l0-0.1l0-0.1l-0.1-0.1l-0.1-0.1c0,0,0,0,0,0c0,0,0,0,0-0.1
		c0,0-0.1-0.1-0.1-0.1c0,0,0,0.1,0,0.1c0,0,0,0,0,0c0,0,0,0,0,0l0,0l0.1,0.1c0.1,0.1,0.1,0.1,0.1,0.1c0,0,0,0,0,0.1c0,0,0,0,0,0.1
		c0,0,0,0,0,0.1l0,0v0v0c0,0,0,0.1,0,0.1c0,0,0,0,0,0c0,0,0,0,0,0c0,0,0,0,0,0.1l0,0v0v0c0,0,0,0,0,0l0,0c0,0,0,0-0.1,0
		c0,0,0,0,0-0.1c0,0,0,0,0-0.1l0-0.1l0,0l0,0c0,0,0,0,0,0c0,0,0,0,0,0c0,0,0,0,0,0l0,0c0,0,0,0,0,0c0,0,0,0-0.1-0.1c0,0,0,0,0-0.1
		l0,0l0,0c0,0,0,0,0-0.1c0,0,0,0,0,0c0,0,0,0,0,0c-0.1-0.1-0.2-0.2-0.4-0.3C60.1,2.5,60,2.5,60,2.4c0,0,0,0,0,0c0,0,0,0,0,0v0
		c0,0,0,0,0,0l0,0c0,0,0,0-0.1,0c0,0-0.1,0-0.2-0.1c-0.1,0-0.1,0-0.2-0.1c0,0-0.1,0-0.1,0c0,0-0.1,0-0.1,0c-0.1,0-0.1,0-0.2,0
		c0,0-0.1,0-0.1,0c-0.1,0-0.1,0-0.1,0c-0.1,0-0.1,0-0.2,0c-0.1,0-0.1,0-0.1-0.1l0,0l-0.1,0c0,0,0,0-0.1,0c0,0-0.1,0-0.2,0.1
		c0,0,0,0,0,0.1c0,0,0,0.1,0,0.1c0,0-0.1,0-0.1,0.1c0,0-0.1,0-0.1,0.1c0,0,0,0,0,0.1c0,0,0,0,0,0c0,0,0,0,0,0c0,0-0.1,0-0.1,0
		c-0.1,0-0.1,0-0.1,0.1c0,0,0,0.1,0,0.1c0,0,0,0.1,0,0.1c0,0,0,0.1-0.1,0.1l0,0.1l0,0.1c0,0.1-0.1,0.1-0.1,0.2
		c0,0.1-0.1,0.2-0.1,0.3c0,0,0,0,0,0.1c-0.1,0.1-0.1,0.3-0.1,0.6L57.1,5c0,0,0,0,0,0.1v0c0,0,0,0,0,0c0,0,0,0,0,0c0,0,0,0.1,0,0.1
		c0,0,0,0.1,0,0.1c0,0,0,0.1,0,0.1c0,0,0,0.1,0.1,0.1l0,0.1l0,0.1l0.1,0.1L57.4,6c0,0,0.1,0.1,0.1,0.3c0.2,0.3,0.3,0.5,0.3,0.6
		c0,0.1,0.1,0.2,0.2,0.4c0.2,0.2,0.3,0.5,0.5,0.7c0.1,0.1,0.2,0.3,0.2,0.4c0,0.1,0.1,0.1,0.1,0.2l0.1,0.1l0,0.1c0,0,0,0,0,0.1l0,0
		l0,0c0,0,0,0.1,0,0.1C59,9,59,9,59.1,9.1c0.1,0.3,0.2,0.5,0.3,0.6c0.1,0.2,0.2,0.5,0.2,0.6c0,0.1,0.1,0.2,0.1,0.3
		c0.1,0.1,0.1,0.3,0.2,0.5c0.1,0.3,0.2,0.4,0.2,0.5c0,0.1,0.1,0.2,0.1,0.3c0,0.1,0,0.2,0.1,0.3c0.2,0.4,0.2,0.5,0.2,0.5
		c0,0.1,0.1,0.2,0.1,0.3c0,0,0,0.1,0.1,0.2c0,0.1,0.1,0.2,0.1,0.2l0.1,0.2c0,0,0,0.1,0,0.2c0,0.1,0,0.2,0.1,0.4
		c0.1,0.8,0,1.6-0.3,2.3c0,0-0.1,0.1-0.1,0.3c-0.1,0.1-0.1,0.2-0.2,0.3c-0.1,0.2-0.2,0.3-0.2,0.3c0,0-0.1,0.1-0.1,0.1
		c0,0-0.1,0.1-0.1,0.1c-0.1,0.1-0.1,0.1-0.1,0.1c0,0,0,0-0.1,0.1c-0.1,0.1-0.1,0.1-0.1,0.1c-0.1,0-0.1,0.1-0.1,0.1
		C59.1,18,59,18,58.9,18c0,0-0.1,0-0.1,0c-0.2,0.1-0.5,0.2-0.7,0.2c-0.2,0-0.2,0-0.2,0c-0.1,0-0.1,0-0.2,0l-0.1,0l-0.1,0
		c-0.1,0-0.1,0-0.2,0c-0.1,0-0.3,0-0.3,0c-0.1,0-0.2,0-0.4-0.1c-0.3,0-0.7-0.1-1.1-0.2l-0.1,0c0,0,0,0,0,0l0,0l-0.1,0
		c-0.1,0-0.2-0.1-0.3-0.1c-0.1,0-0.3-0.1-0.5-0.2c-0.1,0-0.5-0.2-1-0.5l-0.3-0.1c-0.1,0-0.2-0.1-0.3-0.1c-0.1,0-0.2-0.1-0.3-0.1
		c-0.1-0.1-0.2-0.1-0.2-0.2c0-0.1-0.1-0.1,0-0.2c0,0,0,0,0,0c0,0,0,0,0,0l0,0c0,0,0,0.1,0.1,0.1c0.1,0.1,0.2,0.1,0.3,0.2
		c0.1,0,0.1,0,0.2,0.1c0.1,0,0.1,0,0.2,0.1c0.1,0,0.2,0.1,0.3,0.1c0.2,0.1,0.3,0.1,0.4,0.1c0.6,0.2,1,0.4,1.4,0.5
		c0.5,0.1,1,0.2,1.6,0.2c0,0-0.1,0-0.3-0.1c-0.1,0-0.2-0.1-0.2-0.1c0,0,0,0,0,0c0,0,0,0,0.1,0c0.2,0,0.3,0,0.3-0.1
		c0,0-0.1,0-0.3-0.1c-0.1,0-0.1,0-0.2,0.1c0,0,0-0.1,0-0.1c0-0.1-0.1-0.1-0.1,0c-0.1,0-0.1,0-0.2,0c-0.1,0-0.1-0.1-0.2-0.1
		c0,0,0,0,0,0c0,0,0,0,0,0l0,0l0,0v0h0c0,0,0,0,0,0l0,0l0,0h0l0,0l-0.1,0c-0.1,0-0.2-0.1-0.4-0.2c-0.2-0.1-0.3-0.1-0.4-0.2
		c0,0,0.1,0,0.2,0c0.2,0,0.3,0.1,0.3,0.1c0.1,0,0.2,0,0.2,0l0.2,0h0l0.1,0l0,0l0.1,0c0.2,0,0.2,0,0.2,0c0.2,0,0.3,0.1,0.3,0.1
		c0,0,0.2,0,0.3,0.1c0.2,0,0.3,0,0.3,0c0.2,0,0.4,0,0.7,0c0.1,0,0.2-0.1,0.2-0.1c0,0,0,0,0-0.1c0,0,0,0,0,0c0,0-0.1,0-0.1,0
		c-0.1,0-0.1,0-0.1,0c-0.1,0-0.1,0-0.1-0.1c0,0,0-0.1,0.1-0.1c0,0,0,0,0.1-0.1l0.1,0c0,0,0.1,0,0.1,0c0.1,0,0.1,0.1,0.2,0.1
		c0,0.1,0.1,0.1,0.1,0.1c0.1,0,0.1-0.1,0.2-0.1c0-0.1,0-0.1,0-0.1c0-0.1,0-0.1,0.1-0.2c0.1,0,0.1-0.1,0.1-0.1c0.1,0,0.1,0,0.1,0.1
		c0,0,0.1,0,0.1-0.1l0.1-0.2C59,16.5,59,16.4,59,16.4z M55.5,17.8C55.6,17.8,55.6,17.8,55.5,17.8C55.6,17.8,55.6,17.7,55.5,17.8
		C55.5,17.7,55.5,17.7,55.5,17.8L55.5,17.8L55.5,17.8L55.5,17.8C55.5,17.7,55.5,17.7,55.5,17.8C55.5,17.8,55.4,17.8,55.5,17.8
		C55.5,17.8,55.5,17.8,55.5,17.8C55.5,17.8,55.5,17.8,55.5,17.8C55.5,17.8,55.5,17.8,55.5,17.8z M56.2,17.8c-0.1,0-0.1,0-0.1,0
		c0,0-0.1,0,0,0.1c0,0,0,0,0.1,0C56.2,17.9,56.2,17.9,56.2,17.8C56.2,17.9,56.2,17.9,56.2,17.8z M57.6,17.9L57.6,17.9L57.6,17.9
		c0.1-0.1,0-0.1-0.2-0.1c-0.1,0-0.2,0-0.2,0c0,0,0,0,0,0c0,0,0,0,0,0c0,0,0,0,0.1,0c0.1,0,0.1,0,0.1,0
		C57.4,17.9,57.5,17.9,57.6,17.9C57.5,17.9,57.5,17.9,57.6,17.9z M57.3,18.1c0.2,0,0.5,0,0.8-0.2c0,0-0.1,0-0.1,0L58,18
		c0,0-0.1,0-0.2,0c-0.1,0-0.2,0-0.4,0C57.4,18,57.3,18.1,57.3,18.1z M58.3,2.3C58.3,2.3,58.4,2.3,58.3,2.3
		C58.4,2.3,58.3,2.3,58.3,2.3C58.3,2.3,58.3,2.3,58.3,2.3C58.3,2.3,58.3,2.3,58.3,2.3z M58.6,17.8C58.6,17.8,58.6,17.7,58.6,17.8
		c0.1-0.1,0.1-0.1,0.1-0.1c0,0,0,0,0-0.1C58.7,17.6,58.6,17.6,58.6,17.8C58.5,17.8,58.6,17.8,58.6,17.8z M59,16.4
		c0-0.1,0-0.1,0.1-0.1c0,0,0-0.1,0-0.1c0,0,0,0-0.1,0c0,0-0.1,0.1-0.1,0.2c0,0,0,0-0.1,0.1c0,0,0,0.1-0.1,0.1c0,0,0,0,0,0
		c0,0,0,0,0,0c0,0,0.1-0.1,0.1-0.1C59,16.5,59,16.4,59,16.4z M59,12.9C59,13,59.1,13,59.1,13c0,0.1,0,0.2,0,0.2c0,0.1,0,0.1,0.1,0.1
		c0,0,0,0,0-0.1c0,0,0-0.1-0.1-0.3C59.1,12.9,59.1,12.9,59,12.9C59,12.8,59,12.8,59,12.9C58.9,12.8,58.9,12.8,59,12.9z M59.2,14
		c0,0,0-0.1,0-0.1c0-0.1,0-0.1-0.1-0.1c0,0,0,0,0,0C59.1,13.9,59.1,13.9,59.2,14C59.2,14,59.2,14,59.2,14z M59.3,17.1
		C59.4,17.1,59.4,17.1,59.3,17.1c0.1-0.1,0.1-0.1,0.1-0.2c0.1-0.1,0.1-0.1,0.1-0.2c-0.1,0.2-0.2,0.3-0.4,0.3c0,0,0,0,0,0.1
		c0,0,0,0,0,0C59.2,17.2,59.3,17.2,59.3,17.1z M59.3,14.8C59.4,14.8,59.4,14.8,59.3,14.8c0.1-0.1,0.1-0.1,0.1-0.1c0,0,0,0-0.1,0
		C59.3,14.7,59.3,14.7,59.3,14.8L59.3,14.8z M59.8,16.5c0,0,0-0.1,0-0.1L59.8,16.5C59.8,16.4,59.8,16.4,59.8,16.5
		C59.8,16.5,59.8,16.5,59.8,16.5C59.8,16.5,59.8,16.5,59.8,16.5z"/>
	<path class="st0" d="M72,1.6c0,0.1,0,0.1,0,0.1c-0.1,0.1-0.1,0.2,0,0.3c0,0.1,0,0.1-0.1,0.2c-0.3,0.2-0.4,0.2-0.4,0.2
		c0,0,0,0-0.1,0.1c0,0,0,0.1-0.1,0.1C71.2,2.9,71,3,70.7,2.9c-0.3-0.1-0.7-0.1-1.3,0c-0.5,0-0.8,0.1-0.9,0.1c-0.3,0-0.4,0.2-0.3,0.4
		c0,0.1,0,0.1,0.1,0.2c0,0.1,0,0.1,0,0.1c0,0,0,0-0.1-0.1l0-0.1c0,0,0,0,0,0.1c0,0,0,0.2,0.1,0.7c0,0.2,0,0.3,0.1,0.4
		c0,0,0,0.1,0,0.1c0,0,0,0.2,0,0.5c0,0.5,0,1,0,1.3c0,0,0,0.1,0,0.3c0,0.1,0,0.2,0,0.3c0,0,0,0,0,0c0,0.1,0.1,0.2,0.1,0.3
		c0,0.2,0,0.3,0,0.3v0c0,0,0,0.1-0.1,0.2c0,0.1,0,0.2,0,0.2c0,0.1,0,0.3,0,0.4c0,0.1,0,0.1,0,0.2c0,0,0,0.1,0,0.2
		c0,0.3-0.1,0.6,0,0.7c0,0,0,0.1,0,0.2c0,0.1,0,0.1,0,0.2c0,0.4,0,0.5,0,0.5c0,0,0,0.2,0,0.5c0,0.2,0,0.3,0,0.3c0-0.1,0,0.4,0,1.4
		c0,0.3,0,0.5,0,0.7c0,0.1,0,0.4,0,0.7c0,0.1,0,0.2-0.1,0.4c0,0.1,0,0.1,0,0.1c0,0,0,0.1,0,0.1c-0.1,0.1-0.1,0.2-0.1,0.3
		c0,0.1-0.1,0.3-0.2,0.5c0,0,0,0,0,0c0,0,0,0,0,0c0,0-0.1,0-0.1-0.1c-0.1,0-0.1,0-0.1-0.1c0,0,0,0-0.1-0.1c0,0,0-0.1-0.1-0.1
		c0-0.1,0-0.1,0-0.2c0,0,0-0.1,0-0.3c0,0-0.1,0.1-0.1,0.2c0,0.1-0.1,0.1-0.1,0c0,0-0.1,0-0.2,0c0,0,0,0-0.1,0.1c0,0,0,0,0,0
		c0,0,0,0,0,0c0-0.1,0-0.2,0-0.3c0-0.1,0-0.2,0-0.3c0,0,0-0.1,0-0.1c0,0,0,0,0,0c0,0,0,0,0,0c0,0,0,0.1,0,0.2c0,0.1,0,0.2,0,0.4
		c0,0.1,0,0.1-0.1,0.2c0,0-0.1-0.2-0.1-0.3c0-0.1-0.1-0.1-0.1-0.1c0,0-0.1,0-0.1-0.1c0-0.1,0-0.1,0-0.1c0,0,0-0.2,0-0.5
		c0-0.2,0-0.3,0-0.3c0,0,0,0,0-0.1c0-0.1,0-0.1,0.1-0.1c0.1,0,0.1-0.1,0.1-0.2c0-0.1,0-0.2,0-0.2c0-0.1,0-0.1-0.1-0.2
		c-0.1,0-0.1-0.1,0-0.1c0.1-0.1,0.1-0.1,0.1-0.3c0,0,0-0.1,0.1-0.1c0,0,0,0,0,0c0,0,0,0,0,0c0,0,0,0.2,0,0.5c0,0.2,0,0.4,0,0.6
		c0.1,0.3,0.1,0.4,0.1,0.5c0,0,0,0.1,0.1,0.1c0,0,0.1,0,0.1-0.1l0-0.1c0.1-0.2,0.2-0.3,0.2-0.2c0,0,0-0.1,0-0.1c0-0.1,0-0.1,0-0.1
		c0,0,0-0.1,0-0.2c0,0,0-0.1,0-0.1c0,0,0,0,0-0.1c0,0,0-0.1,0-0.2c0-0.1,0-0.2,0-0.2c0-0.1,0-0.2,0-0.2c0,0,0,0,0.1-0.1
		c0-0.1,0-0.2-0.1-0.2c-0.1,0-0.1-0.1-0.1-0.1c0-0.1,0-0.2,0-0.3c0,0,0-0.1,0-0.2c0-0.1,0-0.2,0.1-0.2c0.1-0.1,0.1-0.1,0.1-0.1
		c0.1,0,0.1,0,0.2,0.1c0,0,0,0,0,0.1c0,0,0,0.1,0,0.1c0,0,0.1,0,0.1-0.1c0-0.1,0-0.2-0.1-0.2c0-0.1-0.1-0.1-0.1,0c0,0,0,0,0,0
		c0,0-0.1,0-0.1,0c-0.1,0-0.1,0-0.1,0c0,0,0,0,0-0.1c0,0.1,0,0,0-0.1c0.1-0.2,0-0.3-0.1-0.5c0,0,0,0-0.1,0c-0.1,0.1-0.1,0.1-0.2,0.1
		c0,0-0.1,0-0.1-0.1c0,0,0-0.1,0.1-0.1c0,0,0.1,0,0.1,0c0,0,0-0.1,0.1-0.2c0-0.1,0.1-0.1,0.1-0.2c0.1,0,0.1-0.1,0.1-0.2
		c0-0.1,0-0.1,0.1-0.2c0.1-0.1,0.1-0.1,0.2,0c0,0,0,0.1,0.1,0.2c0,0,0-0.1,0-0.2c0-0.1,0-0.2,0-0.3c0,0,0-0.1-0.1-0.1
		c0,0-0.1,0-0.1,0c0,0.1-0.1,0.1-0.1,0.1c0,0,0,0-0.1,0c-0.1,0-0.1-0.1-0.1-0.2c0-0.1,0-0.2,0-0.2c0,0,0-0.1,0-0.2
		c0-0.1,0-0.1-0.1-0.2c0,0,0,0-0.1,0c0,0,0,0,0-0.1c0,0,0,0,0,0c0,0,0,0,0.1,0c0.1,0,0.2-0.1,0.1-0.2c0,0,0,0,0-0.1
		c-0.1,0.1-0.2,0.1-0.2,0.1c-0.1,0-0.1,0-0.1-0.1c0,0,0-0.1,0-0.2c0-0.1,0.1-0.1,0.1-0.1c0.1,0,0.1,0,0.2,0c0.1,0,0.1-0.1,0.1-0.2
		c0,0,0,0-0.1-0.1c0.1-0.1,0.2-0.2,0.2-0.3c0,0,0,0,0-0.1c0,0,0,0-0.1,0c-0.1,0-0.1,0.1-0.1,0.2c0,0.1,0,0.1-0.1,0.2
		c0,0-0.1,0-0.1,0c0,0,0,0,0-0.1c0.1-0.1,0.1-0.3,0-0.4c0-0.1-0.1-0.1-0.1-0.2c0,0,0-0.1,0-0.1c0.1-0.1,0.1-0.2,0-0.2c0,0,0,0,0-0.1
		c0-0.2,0-0.3,0-0.4c0-0.1,0-0.1,0-0.2c0,0,0-0.1,0-0.2c0-0.1,0-0.2,0-0.2c0-0.1,0-0.1,0-0.1c0,0,0.1-0.1,0-0.2c0,0,0,0,0-0.1
		c0,0,0,0,0-0.1c0-0.1-0.1-0.2,0-0.2c0,0,0-0.1,0-0.2c0-0.1,0-0.1,0-0.2c0-0.2,0-0.3-0.1-0.4c0,0,0-0.1,0-0.2c0,0,0-0.1,0-0.2
		c0-0.1,0-0.2,0-0.2c0-0.1,0-0.1-0.1-0.1c0,0-0.1,0-0.2,0l-0.1,0.1c-0.2-0.1-0.3-0.1-0.3-0.1c0,0-0.1-0.1-0.1-0.1c0,0-0.1,0-0.1,0
		c-0.1,0-0.3,0-0.6,0.1c0,0,0,0-0.2,0.2c0-0.1-0.1-0.2-0.1-0.2c0,0-0.1,0-0.2,0c-0.1,0-0.3,0.1-0.5,0.1c-0.1,0-0.2,0.1-0.2,0.2
		c0,0.1,0,0.1-0.1,0.1C63,3.5,63,3.4,62.9,3.2c0,0,0,0,0-0.1l0,0c0,0.1-0.1,0.2-0.2,0.3c-0.1,0-0.2,0-0.2-0.1c0-0.1-0.1-0.1-0.2-0.2
		c-0.1,0-0.1-0.1,0-0.1c0,0,0.1-0.1,0.3-0.2c0.1,0,0.1-0.1,0.1-0.1c0-0.1,0-0.1,0.1-0.1c0,0,0.1,0,0.1,0c0-0.1,0.2-0.2,0.5-0.3
		c0.1-0.1,0.4-0.2,0.7-0.3c-0.1,0,0.1,0,0.7-0.2c0.5-0.2,0.7-0.2,0.6-0.2c0,0,0.1,0,0.1,0c0,0,0,0,0,0c0,0,0,0,0,0
		c0,0-0.1,0-0.1,0.1c-0.1,0-0.2,0.1-0.4,0.2l0.2,0c0,0,0,0,0,0c0,0,0,0,0,0.1c0,0,0,0-0.1,0c0,0,0,0,0,0c0,0,0,0,0,0c0,0,0,0,0,0
		c0.1,0,0.1,0,0.2,0c0.1,0,0.3-0.1,0.5-0.1c0.2-0.1,0.4-0.1,0.5-0.1c0.1,0,0.2,0,0.2,0h0v0l0,0v0c-0.1,0-0.2,0-0.2,0
		c-0.1,0-0.1,0-0.1-0.1c0-0.1,0-0.1,0-0.1c0.1-0.1,0.1-0.1,0.2-0.1c0,0,0.1,0,0.1,0c0,0,0,0.1,0,0.1l-0.1,0.1l0,0c0,0,0,0,0,0
		C66.7,1.3,67,1.3,67,1.3c0,0,0.1,0,0.2-0.1c0-0.1,0.1-0.1,0.3-0.1c0,0,0,0.1-0.1,0.1c0,0-0.1,0.1-0.1,0.1h0c0,0,0.1,0,0.1,0.1
		c0,0,0,0,0,0.1c0,0-0.1,0-0.3,0.1c0.2,0.1,0.4,0.1,0.7,0.1c0,0,0,0-0.1,0c0,0-0.1-0.1,0-0.1c0.1-0.1,0.2-0.1,0.4-0.1
		c0.1,0,0.1,0,0.2,0c0,0,0.1,0,0.4-0.1C68.9,1.1,69,1.1,69,1C69.1,1,69.2,1,69.3,1c0,0,0.1,0,0.1,0c0.4-0.2,0.5-0.2,0.4-0.2
		c0.1,0,0.2-0.1,0.3-0.1c0.1,0,0.2,0,0.2-0.1c0,0,0.1,0,0.2,0c0.1,0,0.1,0,0.1,0c0.1-0.1,0.2-0.2,0.5-0.1c0,0,0.1,0,0.2,0.1
		c0,0.2,0,0.3,0,0.3c0,0.1,0,0.1,0.1,0.2c0,0,0.1,0.1,0.2,0.1c0.2,0.1,0.3,0.1,0.3,0.1S71.9,1.4,72,1.6z M64.1,3.5L64.1,3.5
		L64.1,3.5c0,0.1-0.1,0.1-0.2,0.2c0,0,0,0,0,0c0,0,0,0,0,0C63.9,3.5,64,3.5,64.1,3.5z M65.8,3.5C65.8,3.5,65.8,3.5,65.8,3.5
		c0.1,0.1,0.1,0.1,0.1,0.1c0,0.1,0,0.1-0.1,0.1c0,0,0,0,0,0C65.8,3.6,65.8,3.6,65.8,3.5C65.8,3.5,65.8,3.5,65.8,3.5z M65.9,1.4
		c0,0-0.1,0.1-0.1,0.1c0,0,0,0,0,0C65.8,1.4,65.8,1.4,65.9,1.4C65.9,1.4,65.9,1.4,65.9,1.4z M66.1,8.5C66.1,8.5,66.1,8.5,66.1,8.5
		C66.2,8.6,66.1,8.6,66.1,8.5L66.1,8.5C66.1,8.5,66.1,8.5,66.1,8.5C66.1,8.5,66.1,8.5,66.1,8.5z M66.1,9.5
		C66.1,9.5,66.1,9.5,66.1,9.5c0.1-0.1,0.1-0.1,0.1-0.1c0,0,0.1,0,0.1,0c0,0,0,0-0.1,0.1C66.3,9.5,66.2,9.6,66.1,9.5
		C66.1,9.6,66.1,9.5,66.1,9.5z M66.3,9.1C66.3,9.1,66.3,9.2,66.3,9.1C66.2,9.1,66.2,9.1,66.3,9.1C66.2,9.1,66.2,9.1,66.3,9.1
		C66.3,9.1,66.3,9.1,66.3,9.1z M66.3,11.1C66.3,11.1,66.3,11.1,66.3,11.1c0-0.1,0-0.1,0-0.2c0,0,0.1,0.1,0.1,0.1
		C66.4,11.1,66.4,11.1,66.3,11.1C66.4,11.2,66.3,11.2,66.3,11.1z M66.4,8.8C66.4,8.8,66.3,8.8,66.4,8.8C66.3,8.8,66.3,8.8,66.4,8.8
		C66.3,8.7,66.3,8.7,66.4,8.8C66.4,8.7,66.4,8.7,66.4,8.8z M67,1.2C66.9,1.2,66.9,1.2,67,1.2C66.9,1.2,66.9,1.1,67,1.2
		C67,1.1,67,1.2,67,1.2C67,1.2,67,1.2,67,1.2z M68.2,8.6C68.2,8.6,68.2,8.6,68.2,8.6c0,0,0.1,0.1,0,0.2c0,0,0,0.1-0.1,0.1
		c0,0,0,0,0-0.1C68.2,8.7,68.2,8.6,68.2,8.6z M68.3,0.8C68.3,0.9,68.3,0.9,68.3,0.8C68.2,0.8,68.2,0.8,68.3,0.8
		C68.3,0.8,68.3,0.8,68.3,0.8C68.3,0.8,68.4,0.8,68.3,0.8C68.4,0.8,68.4,0.8,68.3,0.8z"/>
</g>
</svg>
