<?xml version="1.0" encoding="utf-8"?>
<!-- Generator: Adobe Illustrator 19.1.0, SVG Export Plug-In . SVG Version: 6.00 Build 0)  -->
<svg version="1.1" id="Layer_1" xmlns="http://www.w3.org/2000/svg" xmlns:xlink="http://www.w3.org/1999/xlink" x="0px" y="0px"
	 viewBox="0 0 72 72" style="enable-background:new 0 0 72 72;" xml:space="preserve">
<style type="text/css">
	.st0{fill:#EC1C24;}
	.st1{fill:#FFFFFF;}
	.st2{fill:#224099;}
</style>
<g>
	<rect x="0" y="66.5" class="st0" width="72" height="5.5"/>
	<rect x="0" y="60.9" class="st1" width="72" height="5.5"/>
	<rect x="0" y="55.4" class="st0" width="72" height="5.5"/>
	<rect x="0" y="49.8" class="st1" width="72" height="5.5"/>
	<rect x="0" y="44.3" class="st0" width="72" height="5.5"/>
	<polygon class="st1" points="72,38.8 54.7,38.8 0,38.8 0,44.3 72,44.3 	"/>
	<rect x="54.7" y="33.2" class="st0" width="17.3" height="5.5"/>
	<rect x="54.7" y="27.7" class="st1" width="17.3" height="5.5"/>
	<rect x="54.7" y="22.2" class="st0" width="17.3" height="5.5"/>
	<rect x="54.7" y="16.6" class="st1" width="17.3" height="5.5"/>
	<rect x="54.7" y="11.1" class="st0" width="17.3" height="5.5"/>
	<rect x="54.7" y="5.5" class="st1" width="17.3" height="5.5"/>
	<rect x="54.7" y="0" class="st0" width="17.3" height="5.5"/>
	<path class="st2" d="M54.7,33.2v-5.5v-5.5v-5.5v-5.5V5.5V0H0v5.5v5.5v5.5v5.5v5.5v5.5v5.5h54.7V33.2z M51.6,28.7L50.3,28L49,28.7
		l0.2-1.4l-1.1-1l1.5-0.2l0.7-1.3l0.7,1.3l1.5,0.2l-1.1,1L51.6,28.7z M8.6,29.9l0.7-1.3l0.7,1.3l1.5,0.2l-1.1,1l0.2,1.4l-1.3-0.7
		L8,32.5l0.2-1.4l-1.1-1L8.6,29.9z M12.8,27.3l-1.1-1l1.5-0.2l0.7-1.3l0.7,1.3l1.5,0.2l-1.1,1l0.2,1.4L13.8,28l-1.3,0.7L12.8,27.3z
		 M11.7,10.8l1.5-0.2l0.7-1.3l0.7,1.3l1.5,0.2l-1.1,1l0.2,1.4l-1.3-0.7l-1.3,0.7l0.2-1.4L11.7,10.8z M20.8,10.8l1.5-0.2L23,9.3
		l0.7,1.3l1.5,0.2l-1.1,1l0.2,1.4L23,12.5l-1.3,0.7l0.2-1.4L20.8,10.8z M30,10.8l1.5-0.2l0.7-1.3l0.7,1.3l1.5,0.2l-1.1,1l0.2,1.4
		l-1.3-0.7l-1.3,0.7l0.2-1.4L30,10.8z M39.1,10.8l1.5-0.2l0.7-1.3l0.7,1.3l1.5,0.2l-1.1,1l0.3,1.4l-1.3-0.7l-1.3,0.7l0.2-1.4
		L39.1,10.8z M37.3,22.2l1.5,0.2l-1.1,1l0.2,1.4l-1.3-0.7l-1.3,0.7l0.2-1.4l-1.1-1l1.5-0.2l0.7-1.3L37.3,22.2z M37.9,32.5l-1.3-0.7
		l-1.3,0.7l0.2-1.4l-1.1-1l1.5-0.2l0.7-1.3l0.7,1.3l1.5,0.2l-1.1,1L37.9,32.5z M28.2,22.2l1.5,0.2l-1.1,1l0.2,1.4l-1.3-0.7l-1.3,0.7
		l0.2-1.4l-1.1-1l1.5-0.2l0.7-1.3L28.2,22.2z M28.8,32.5l-1.3-0.7l-1.3,0.7l0.2-1.4l-1.1-1l1.5-0.2l0.7-1.3l0.7,1.3l1.5,0.2l-1.1,1
		L28.8,32.5z M25.4,14.6l1.5-0.2l0.7-1.3l0.7,1.3l1.5,0.2l-1.1,1l0.2,1.4l-1.3-0.7L26.2,17l0.2-1.4L25.4,14.6z M33.4,20.9l-1.3-0.7
		l-1.3,0.7l0.2-1.4l-1.1-1l1.5-0.2l0.7-1.3l0.7,1.3l1.5,0.2l-1.1,1L33.4,20.9z M22.3,18.3L23,17l0.7,1.3l1.5,0.2l-1.1,1l0.2,1.4
		L23,20.2l-1.3,0.7l0.2-1.4l-1.1-1L22.3,18.3z M42.5,20.9l-1.3-0.7l-1.3,0.7l0.2-1.4l-1.1-1l1.5-0.2l0.7-1.3l0.7,1.3l1.5,0.2l-1.1,1
		L42.5,20.9z M37.9,17l-1.3-0.7L35.3,17l0.2-1.4l-1.1-1l1.5-0.2l0.7-1.3l0.7,1.3l1.5,0.2l-1.1,1L37.9,17z M16.3,14.6l1.5-0.2
		l0.7-1.3l0.7,1.3l1.5,0.2l-1.1,1l0.2,1.4l-1.3-0.7L17.1,17l0.2-1.4L16.3,14.6z M13.2,18.3l0.7-1.3l0.7,1.3l1.5,0.2l-1.1,1l0.2,1.4
		l-1.3-0.7l-1.3,0.7l0.2-1.4l-1.1-1L13.2,18.3z M18.4,20.9l0.7,1.3l1.5,0.2l-1.1,1l0.2,1.4l-1.3-0.7l-1.3,0.7l0.2-1.4l-1.1-1
		l1.5-0.2L18.4,20.9z M19.7,32.5l-1.3-0.7l-1.3,0.7l0.2-1.4l-1.1-1l1.5-0.2l0.7-1.3l0.7,1.3l1.5,0.2l-1.1,1L19.7,32.5z M21.9,27.3
		l-1.1-1l1.5-0.2l0.7-1.3l0.7,1.3l1.5,0.2l-1.1,1l0.2,1.4L23,28l-1.3,0.7L21.9,27.3z M31,27.3l-1.1-1l1.5-0.2l0.7-1.3l0.7,1.3
		l1.5,0.2l-1.1,1l0.2,1.4L32.1,28l-1.3,0.7L31,27.3z M40.1,27.3l-1.1-1l1.5-0.2l0.7-1.3l0.7,1.3l1.5,0.2l-1.1,1l0.3,1.4L41.2,28
		l-1.3,0.7L40.1,27.3z M47,32.5l-1.3-0.7l-1.3,0.7l0.2-1.4l-1.1-1l1.5-0.2l0.7-1.3l0.7,1.3l1.5,0.2l-1.1,1L47,32.5z M46.4,22.2
		l1.5,0.2l-1.1,1l0.2,1.4l-1.3-0.7l-1.3,0.7l0.2-1.4l-1.1-1l1.5-0.2l0.7-1.3L46.4,22.2z M51.6,20.9l-1.3-0.7L49,20.9l0.2-1.4l-1.1-1
		l1.5-0.2l0.7-1.3l0.7,1.3l1.5,0.2l-1.1,1L51.6,20.9z M47,17l-1.3-0.7L44.4,17l0.2-1.4l-1.1-1l1.5-0.2l0.7-1.3l0.7,1.3l1.5,0.2
		l-1.1,1L47,17z M51.6,13.2l-1.3-0.7L49,13.2l0.2-1.4l-1.1-1l1.5-0.2l0.7-1.3l0.7,1.3l1.5,0.2l-1.1,1L51.6,13.2z M49.7,2.8l0.7-1.3
		L51,2.8L52.4,3l-1.1,1l0.2,1.4l-1.3-0.7L49,5.4L49.2,4l-1.1-1L49.7,2.8z M46.4,6.7l1.5,0.2l-1.1,1L47,9.3l-1.3-0.7l-1.3,0.7
		l0.2-1.4l-1.1-1l1.5-0.2l0.7-1.3L46.4,6.7z M40.5,2.8l0.7-1.3l0.7,1.3L43.3,3l-1.1,1l0.3,1.4l-1.3-0.7l-1.3,0.7L40.1,4l-1.1-1
		L40.5,2.8z M37.3,6.7l1.5,0.2l-1.1,1l0.2,1.4l-1.3-0.7l-1.3,0.7l0.2-1.4l-1.1-1L36,6.7l0.7-1.3L37.3,6.7z M31.4,2.8l0.7-1.3
		l0.7,1.3L34.2,3l-1.1,1l0.2,1.4l-1.3-0.7l-1.3,0.7L31,4L30,3L31.4,2.8z M28.2,6.7l1.5,0.2l-1.1,1l0.2,1.4l-1.3-0.7l-1.3,0.7
		l0.2-1.4l-1.1-1l1.5-0.2l0.7-1.3L28.2,6.7z M22.3,2.8L23,1.5l0.7,1.3L25.1,3L24,4l0.2,1.4L23,4.8l-1.3,0.7L21.9,4l-1.1-1L22.3,2.8z
		 M19.1,6.7l1.5,0.2l-1.1,1l0.2,1.4l-1.3-0.7l-1.3,0.7l0.2-1.4l-1.1-1l1.5-0.2l0.7-1.3L19.1,6.7z M13.2,2.8l0.7-1.3l0.7,1.3L16,3
		l-1.1,1l0.2,1.4l-1.3-0.7l-1.3,0.7L12.8,4l-1.1-1L13.2,2.8z M4.1,2.8l0.7-1.3l0.7,1.3L6.8,3L5.8,4L6,5.4L4.7,4.8L3.4,5.4L3.7,4
		L2.6,3L4.1,2.8z M9.3,5.4l0.7,1.3l1.5,0.2l-1.1,1l0.2,1.4L9.3,8.6L8,9.3l0.2-1.4l-1.1-1l1.5-0.2L9.3,5.4z M2.6,10.8l1.5-0.2
		l0.7-1.3l0.7,1.3l1.5,0.2l-1.1,1L6,13.2l-1.3-0.7l-1.3,0.7l0.2-1.4L2.6,10.8z M7.2,14.6l1.5-0.2l0.7-1.3l0.7,1.3l1.5,0.2l-1.1,1
		l0.2,1.4l-1.3-0.7L8,17l0.2-1.4L7.2,14.6z M6,20.9l-1.3-0.7l-1.3,0.7l0.2-1.4l-1.1-1l1.5-0.2L4.7,17l0.7,1.3l1.5,0.2l-1.1,1L6,20.9
		z M9.3,20.9l0.7,1.3l1.5,0.2l-1.1,1l0.2,1.4l-1.3-0.7L8,24.8l0.2-1.4l-1.1-1l1.5-0.2L9.3,20.9z M2.6,26.3l1.5-0.2l0.7-1.3l0.7,1.3
		l1.5,0.2l-1.1,1L6,28.7L4.7,28l-1.3,0.7l0.2-1.4L2.6,26.3z M6,36.4l-1.3-0.7l-1.3,0.7L3.7,35l-1.1-1l1.5-0.2l0.7-1.3l0.7,1.3
		L6.8,34l-1.1,1L6,36.4z M15.1,36.4l-1.3-0.7l-1.3,0.7l0.2-1.4l-1.1-1l1.5-0.2l0.7-1.3l0.7,1.3L16,34l-1.1,1L15.1,36.4z M24.3,36.4
		L23,35.7l-1.3,0.7l0.2-1.4l-1.1-1l1.5-0.2l0.7-1.3l0.7,1.3l1.5,0.2L24,35L24.3,36.4z M33.4,36.4l-1.3-0.7l-1.3,0.7L31,35L30,34
		l1.5-0.2l0.7-1.3l0.7,1.3l1.5,0.2l-1.1,1L33.4,36.4z M42.5,36.4l-1.3-0.7l-1.3,0.7l0.2-1.4l-1.1-1l1.5-0.2l0.7-1.3l0.7,1.3l1.5,0.2
		l-1.1,1L42.5,36.4z M51.6,36.4l-1.3-0.7L49,36.4l0.2-1.4l-1.1-1l1.5-0.2l0.7-1.3l0.7,1.3l1.5,0.2l-1.1,1L51.6,36.4z"/>
	<polygon class="st1" points="51,33.8 50.3,32.5 49.7,33.8 48.2,34 49.2,35 49,36.4 50.3,35.7 51.6,36.4 51.4,35 52.4,34 	"/>
	<polygon class="st1" points="41.8,33.8 41.2,32.5 40.5,33.8 39.1,34 40.1,35 39.9,36.4 41.2,35.7 42.5,36.4 42.2,35 43.3,34 	"/>
	<polygon class="st1" points="32.7,33.8 32.1,32.5 31.4,33.8 30,34 31,35 30.8,36.4 32.1,35.7 33.4,36.4 33.1,35 34.2,34 	"/>
	<polygon class="st1" points="23.6,33.8 23,32.5 22.3,33.8 20.8,34 21.9,35 21.7,36.4 23,35.7 24.3,36.4 24,35 25.1,34 	"/>
	<polygon class="st1" points="14.5,33.8 13.8,32.5 13.2,33.8 11.7,34 12.8,35 12.5,36.4 13.8,35.7 15.1,36.4 14.9,35 16,34 	"/>
	<polygon class="st1" points="5.4,33.8 4.7,32.5 4.1,33.8 2.6,34 3.7,35 3.4,36.4 4.7,35.7 6,36.4 5.8,35 6.8,34 	"/>
	<polygon class="st1" points="52.4,26.3 51,26.1 50.3,24.8 49.7,26.1 48.2,26.3 49.2,27.3 49,28.7 50.3,28 51.6,28.7 51.4,27.3 	"/>
	<polygon class="st1" points="42.5,28.7 42.2,27.3 43.3,26.3 41.8,26.1 41.2,24.8 40.5,26.1 39.1,26.3 40.1,27.3 39.9,28.7 41.2,28 
			"/>
	<polygon class="st1" points="33.4,28.7 33.1,27.3 34.2,26.3 32.7,26.1 32.1,24.8 31.4,26.1 30,26.3 31,27.3 30.8,28.7 32.1,28 	"/>
	<polygon class="st1" points="24.3,28.7 24,27.3 25.1,26.3 23.6,26.1 23,24.8 22.3,26.1 20.8,26.3 21.9,27.3 21.7,28.7 23,28 	"/>
	<polygon class="st1" points="15.1,28.7 14.9,27.3 16,26.3 14.5,26.1 13.8,24.8 13.2,26.1 11.7,26.3 12.8,27.3 12.5,28.7 13.8,28 	
		"/>
	<polygon class="st1" points="3.4,28.7 4.7,28 6,28.7 5.8,27.3 6.8,26.3 5.4,26.1 4.7,24.8 4.1,26.1 2.6,26.3 3.7,27.3 	"/>
	<polygon class="st1" points="51,18.3 50.3,17 49.7,18.3 48.2,18.5 49.2,19.5 49,20.9 50.3,20.2 51.6,20.9 51.4,19.5 52.4,18.5 	"/>
	<polygon class="st1" points="41.8,18.3 41.2,17 40.5,18.3 39.1,18.5 40.1,19.5 39.9,20.9 41.2,20.2 42.5,20.9 42.2,19.5 43.3,18.5 
			"/>
	<polygon class="st1" points="32.7,18.3 32.1,17 31.4,18.3 30,18.5 31,19.5 30.8,20.9 32.1,20.2 33.4,20.9 33.1,19.5 34.2,18.5 	"/>
	<polygon class="st1" points="21.7,20.9 23,20.2 24.3,20.9 24,19.5 25.1,18.5 23.6,18.3 23,17 22.3,18.3 20.8,18.5 21.9,19.5 	"/>
	<polygon class="st1" points="12.5,20.9 13.8,20.2 15.1,20.9 14.9,19.5 16,18.5 14.5,18.3 13.8,17 13.2,18.3 11.7,18.5 12.8,19.5 	
		"/>
	<polygon class="st1" points="5.4,18.3 4.7,17 4.1,18.3 2.6,18.5 3.7,19.5 3.4,20.9 4.7,20.2 6,20.9 5.8,19.5 6.8,18.5 	"/>
	<polygon class="st1" points="52.4,10.8 51,10.6 50.3,9.3 49.7,10.6 48.2,10.8 49.2,11.8 49,13.2 50.3,12.5 51.6,13.2 51.4,11.8 	
		"/>
	<polygon class="st1" points="39.9,13.2 41.2,12.5 42.5,13.2 42.2,11.8 43.3,10.8 41.8,10.6 41.2,9.3 40.5,10.6 39.1,10.8 
		40.1,11.8 	"/>
	<polygon class="st1" points="30.8,13.2 32.1,12.5 33.4,13.2 33.1,11.8 34.2,10.8 32.7,10.6 32.1,9.3 31.4,10.6 30,10.8 31,11.8 	
		"/>
	<polygon class="st1" points="21.7,13.2 23,12.5 24.3,13.2 24,11.8 25.1,10.8 23.6,10.6 23,9.3 22.3,10.6 20.8,10.8 21.9,11.8 	"/>
	<polygon class="st1" points="13.8,12.5 15.1,13.2 14.9,11.8 16,10.8 14.5,10.6 13.8,9.3 13.2,10.6 11.7,10.8 12.8,11.8 12.5,13.2 	
		"/>
	<polygon class="st1" points="3.4,13.2 4.7,12.5 6,13.2 5.8,11.8 6.8,10.8 5.4,10.6 4.7,9.3 4.1,10.6 2.6,10.8 3.7,11.8 	"/>
	<polygon class="st1" points="46.4,29.9 45.7,28.6 45.1,29.9 43.6,30.1 44.7,31.1 44.4,32.5 45.7,31.9 47,32.5 46.8,31.1 47.9,30.1 
			"/>
	<polygon class="st1" points="37.3,29.9 36.6,28.6 36,29.9 34.5,30.1 35.6,31.1 35.3,32.5 36.6,31.9 37.9,32.5 37.7,31.1 38.7,30.1 
			"/>
	<polygon class="st1" points="28.2,29.9 27.5,28.6 26.9,29.9 25.4,30.1 26.5,31.1 26.2,32.5 27.5,31.9 28.8,32.5 28.6,31.1 
		29.6,30.1 	"/>
	<polygon class="st1" points="19.1,29.9 18.4,28.6 17.7,29.9 16.3,30.1 17.3,31.1 17.1,32.5 18.4,31.9 19.7,32.5 19.5,31.1 
		20.5,30.1 	"/>
	<polygon class="st1" points="8,32.5 9.3,31.9 10.6,32.5 10.3,31.1 11.4,30.1 9.9,29.9 9.3,28.6 8.6,29.9 7.2,30.1 8.2,31.1 	"/>
	<polygon class="st1" points="45.1,22.2 43.6,22.4 44.7,23.4 44.4,24.8 45.7,24.1 47,24.8 46.8,23.4 47.9,22.4 46.4,22.2 45.7,20.9 
			"/>
	<polygon class="st1" points="36,22.2 34.5,22.4 35.6,23.4 35.3,24.8 36.6,24.1 37.9,24.8 37.7,23.4 38.7,22.4 37.3,22.2 36.6,20.9 
			"/>
	<polygon class="st1" points="26.9,22.2 25.4,22.4 26.5,23.4 26.2,24.8 27.5,24.1 28.8,24.8 28.6,23.4 29.6,22.4 28.2,22.2 
		27.5,20.9 	"/>
	<polygon class="st1" points="16.3,22.4 17.3,23.4 17.1,24.8 18.4,24.1 19.7,24.8 19.5,23.4 20.5,22.4 19.1,22.2 18.4,20.9 
		17.7,22.2 	"/>
	<polygon class="st1" points="7.2,22.4 8.2,23.4 8,24.8 9.3,24.1 10.6,24.8 10.3,23.4 11.4,22.4 9.9,22.2 9.3,20.9 8.6,22.2 	"/>
	<polygon class="st1" points="47.9,14.6 46.4,14.4 45.7,13.2 45.1,14.4 43.6,14.6 44.7,15.6 44.4,17 45.7,16.4 47,17 46.8,15.6 	"/>
	<polygon class="st1" points="38.7,14.6 37.3,14.4 36.6,13.2 36,14.4 34.5,14.6 35.6,15.6 35.3,17 36.6,16.4 37.9,17 37.7,15.6 	"/>
	<polygon class="st1" points="26.2,17 27.5,16.4 28.8,17 28.6,15.6 29.6,14.6 28.2,14.4 27.5,13.2 26.9,14.4 25.4,14.6 26.5,15.6 	
		"/>
	<polygon class="st1" points="17.1,17 18.4,16.4 19.7,17 19.5,15.6 20.5,14.6 19.1,14.4 18.4,13.2 17.7,14.4 16.3,14.6 17.3,15.6 	
		"/>
	<polygon class="st1" points="8,17 9.3,16.4 10.6,17 10.3,15.6 11.4,14.6 9.9,14.4 9.3,13.2 8.6,14.4 7.2,14.6 8.2,15.6 	"/>
	<polygon class="st1" points="45.1,6.7 43.6,6.9 44.7,7.9 44.4,9.3 45.7,8.6 47,9.3 46.8,7.9 47.9,6.9 46.4,6.7 45.7,5.4 	"/>
	<polygon class="st1" points="36,6.7 34.5,6.9 35.6,7.9 35.3,9.3 36.6,8.6 37.9,9.3 37.7,7.9 38.7,6.9 37.3,6.7 36.6,5.4 	"/>
	<polygon class="st1" points="26.9,6.7 25.4,6.9 26.5,7.9 26.2,9.3 27.5,8.6 28.8,9.3 28.6,7.9 29.6,6.9 28.2,6.7 27.5,5.4 	"/>
	<polygon class="st1" points="17.7,6.7 16.3,6.9 17.3,7.9 17.1,9.3 18.4,8.6 19.7,9.3 19.5,7.9 20.5,6.9 19.1,6.7 18.4,5.4 	"/>
	<polygon class="st1" points="7.2,6.9 8.2,7.9 8,9.3 9.3,8.6 10.6,9.3 10.3,7.9 11.4,6.9 9.9,6.7 9.3,5.4 8.6,6.7 	"/>
	<polygon class="st1" points="49,5.4 50.3,4.8 51.6,5.4 51.4,4 52.4,3 51,2.8 50.3,1.5 49.7,2.8 48.2,3 49.2,4 	"/>
	<polygon class="st1" points="39.9,5.4 41.2,4.8 42.5,5.4 42.2,4 43.3,3 41.8,2.8 41.2,1.5 40.5,2.8 39.1,3 40.1,4 	"/>
	<polygon class="st1" points="30.8,5.4 32.1,4.8 33.4,5.4 33.1,4 34.2,3 32.7,2.8 32.1,1.5 31.4,2.8 30,3 31,4 	"/>
	<polygon class="st1" points="21.7,5.4 23,4.8 24.3,5.4 24,4 25.1,3 23.6,2.8 23,1.5 22.3,2.8 20.8,3 21.9,4 	"/>
	<polygon class="st1" points="12.5,5.4 13.8,4.8 15.1,5.4 14.9,4 16,3 14.5,2.8 13.8,1.5 13.2,2.8 11.7,3 12.8,4 	"/>
	<polygon class="st1" points="3.4,5.4 4.7,4.8 6,5.4 5.8,4 6.8,3 5.4,2.8 4.7,1.5 4.1,2.8 2.6,3 3.7,4 	"/>
</g>
</svg>
