<?xml version="1.0" encoding="utf-8"?>
<!-- Generator: Adobe Illustrator 19.1.0, SVG Export Plug-In . SVG Version: 6.00 Build 0)  -->
<svg version="1.1" id="Layer_1" xmlns="http://www.w3.org/2000/svg" xmlns:xlink="http://www.w3.org/1999/xlink" x="0px" y="0px"
	 viewBox="0 0 72 21.1" style="enable-background:new 0 0 72 21.1;" xml:space="preserve">
<style type="text/css">
	.st0{fill:#FFFFFF;}
</style>
<g>
	<path class="st0" d="M8,3.7c0,0,0,0.1,0.1,0.2c0,0.1,0.1,0.1,0,0.2c0,0.1,0,0.2,0,0.4C8,4.6,8,4.7,8,4.7c0,0,0,0.2-0.1,0.7
		c0,0.1,0,0.2,0,0.3c0,0.1,0,0.2,0,0.3c0,0-0.1,0.1-0.1,0.3C7.7,6.6,7.7,6.8,7.6,6.9C7.5,7.2,7.5,7.4,7.5,7.7c0,0.1,0,0.2,0,0.3
		c0,0.1-0.1,0.2-0.1,0.3c0,0.2,0,0.3,0,0.3c0,0,0,0.1,0,0.2c0,0,0,0.1,0,0.3c0,0.1,0,0.2-0.1,0.3c0,0.1,0,0.2,0.1,0.3
		c0,0,0,0.1,0,0.1c-0.1,0.1-0.1,0.3,0,0.5c0,0,0,0.1,0,0.1c0,0.1-0.1,0.3-0.1,0.6c0,0,0,0.1-0.1,0.3c0.1,0,0.1,0,0.1,0.1L7,11.9
		c0,0,0,0.1,0,0.2c0,0.1,0,0.2,0.1,0.2c0,0,0,0,0,0.1c0,0,0,0.1-0.1,0.1c0,0-0.1,0.1-0.1,0.1c0,0,0,0.1,0.1,0.1
		c0.1,0,0.1,0.1,0.1,0.2l0,0.1C7,13.2,7,13.3,7.1,13.3c-0.1,0-0.1,0.1-0.1,0.2c-0.1,0.1-0.1,0.2,0,0.3c0,0.1,0,0.2,0,0.2
		c0,0,0,0.1,0,0.1c0,0,0.1,0.1,0.1,0.1c0,0.2,0,0.3,0,0.3c0,0.1,0,0.3,0,0.5c0,0.1,0,0.1,0,0.2c0,0.1,0,0.1-0.1,0.1
		c-0.1,0-0.1,0-0.1,0.1c0,0.1,0,0.1-0.1,0c-0.1,0-0.1,0-0.1,0.1c0,0.1,0,0.1,0,0.2c0,0.1-0.1,0.2-0.2,0.2c-0.1,0-0.1,0-0.1,0
		c0,0,0,0,0,0.1c0,0.1,0,0.2,0.1,0.3c0,0,0,0.1,0,0.1c0,0,0,0,0,0c0,0,0,0,0,0c0,0-0.1-0.1-0.1-0.2c-0.1-0.1-0.1-0.1-0.1-0.2
		c0,0,0-0.1-0.1-0.1c0,0-0.1,0-0.1,0c-0.1,0-0.1,0-0.2-0.1c0,0,0-0.1,0-0.2c0-0.1,0-0.2,0-0.2c0,0-0.1,0-0.1,0.1
		c0,0.1,0,0.2-0.1,0.2c0,0,0,0,0,0.1c0,0,0,0-0.1,0c-0.1,0-0.1-0.1-0.1-0.1c0,0,0-0.1,0-0.3c0-0.1,0-0.2,0-0.3c0,0,0-0.1,0.1-0.1
		c0,0,0,0,0-0.1c-0.1,0-0.1-0.1,0-0.1c0,0,0-0.1,0-0.1c0,0,0-0.1,0.1-0.2c-0.1,0-0.1,0-0.1-0.1c0-0.4,0.1-0.6,0.2-0.7
		c0,0.1,0,0.3,0,0.5c0,0.1,0,0.2,0,0.3c0,0.1,0,0.2,0,0.3c0,0.1,0,0.1,0,0.1c0,0,0.1-0.1,0.1-0.2c0-0.3,0.1-0.8,0.2-1.6
		C6,12.7,6,12.4,6,12.2c0,0.1,0,0.2-0.1,0.3c0,0.1,0,0.2-0.1,0.3c0,0,0,0.1,0,0.3c0,0.1-0.1,0.2-0.1,0.3c0-0.1,0-0.2,0-0.3
		c0,0,0-0.1,0-0.2c0-0.1,0-0.1,0-0.2c0,0,0-0.1,0-0.2c0-0.1,0-0.1,0-0.2c0.1-0.1,0.1-0.1,0-0.3c0-0.1,0-0.1,0-0.2c0,0,0-0.1,0-0.1
		c-0.1-0.1-0.1-0.2-0.1-0.2c0,0,0-0.1,0-0.1c0,0-0.1,0-0.1,0c0,0,0,0-0.1,0.1l0,0.1c-0.1-0.1-0.2-0.1-0.3-0.1c-0.1,0-0.3,0.1-0.3,0
		c-0.1,0-0.1,0-0.2,0c-0.1,0-0.2,0.1-0.2,0.1c-0.1,0-0.1,0-0.1-0.1c0,0,0,0,0,0c0,0-0.1,0-0.1,0c-0.1,0-0.1,0-0.1,0.1
		c0,0.1-0.1,0.1-0.2,0c-0.1-0.1-0.3-0.1-0.5,0c-0.1,0-0.2,0-0.3,0.1c0,0,0,0,0,0.1C3,12,3,12,3,12c0,0,0,0,0,0.1c0,0,0,0.1,0,0.1
		c0,0.1,0,0.1,0,0.1c0,0-0.1,0.1,0,0.1c0,0,0,0,0,0c0,0,0,0,0,0l0,0c-0.1,0-0.1,0.1-0.1,0.2c0,0,0,0,0,0c0,0,0,0,0,0
		c0,0.1,0,0.2-0.1,0.2c0,0-0.1,0,0,0.1c0,0,0,0.1,0,0.1c0,0.1,0,0.1,0,0.1c0,0,0,0.1,0,0.1c-0.1,0.1-0.1,0.2,0,0.4
		c0,0.1,0,0.2,0,0.3c0,0.1-0.1,0.1-0.1,0.1c0,0,0,0.1,0.1,0.1c0,0.1,0,0.1,0,0.1c-0.1,0.1-0.1,0.1,0,0.2c0.1,0.1,0.1,0.1,0.1,0.1
		c0,0,0,0.1-0.1,0.1c0,0.1-0.1,0.1-0.1,0.1c0,0,0,0.1,0,0.1c0,0,0,0,0,0.1c0,0.3,0,0.4,0,0.6c0,0,0,0.1,0,0.2c0,0.1,0,0.1,0,0.2
		c0,0,0,0,0,0c-0.1,0,0,0.1,0.1,0.4c0,0,0,0.1,0,0c-0.1,0-0.1,0-0.2,0.1c0,0.1,0,0.2,0,0.2c0,0,0,0,0,0.1c0,0.1,0,0.1-0.1,0.1l0,0
		c0,0,0,0-0.1,0c0,0,0,0.1,0,0.1c0,0,0,0-0.1,0c0,0,0,0-0.1,0c-0.1,0.1-0.2,0-0.3-0.1c-0.1-0.1-0.1-0.2-0.3-0.3c0,0.1,0,0.2,0,0.3
		c0,0.2,0,0.3,0,0.3c0,0,0,0,0,0.1c0,0.1,0,0.1-0.1,0.1c0,0,0,0,0-0.1c0-0.1,0-0.2,0-0.3c0,0,0,0,0,0c-0.1,0.1-0.1,0.1,0,0.1
		c-0.1,0-0.1,0-0.1-0.1c0-0.1,0-0.2,0-0.4c0-0.2,0-0.3,0-0.4c0-0.1,0-0.3,0.1-0.5c0-0.2,0.1-0.4,0.1-0.5c0-0.1,0-0.3,0.1-0.6
		c0-0.3,0-0.5,0.1-0.6c0.1-1,0.2-1.5,0.2-1.5c0,0,0-0.2,0.1-0.6c0-0.1,0-0.1,0-0.1c-0.1,0-0.1,0-0.1,0c0,0.1,0,0.1-0.1,0
		c0,0-0.1,0-0.2,0c-0.2,0-0.3,0-0.4,0C1,11.9,1,12,1,12c0,0,0,0,0,0c0,0,0,0,0,0c0,0,0,0,0,0c-0.3,0.1-0.4,0.1-0.4,0.1
		c-0.1,0-0.2,0-0.3,0c-0.1-0.1-0.2-0.1-0.2,0c0,0-0.1,0-0.1,0c0,0,0-0.1,0-0.1c0,0,0,0,0,0c0.1,0,0.1-0.1,0.1-0.2
		c0-0.1,0-0.2-0.1-0.2c0,0,0.1,0,0.1,0c0.1,0,0.1,0,0.1,0c0.1,0,0.1-0.1,0.1-0.1c0-0.1,0-0.1,0-0.2c0.1-0.1,0.1-0.2,0.1-0.4
		c0.1,0.1,0.2,0.1,0.3,0c0.4-0.2,0.7-0.3,0.9-0.3c0.1,0,0.2-0.1,0.2-0.2c0-0.1,0-0.3,0.1-0.5c0-0.2,0-0.4,0.1-0.5
		c0-0.3,0.1-0.8,0.1-1.3c0-0.1,0-0.3,0-0.5c0-0.2,0-0.4,0-0.5C2.5,6.4,2.5,6,2.6,5.6c0-0.2,0.1-0.5,0.1-0.9c0-0.3,0.1-0.5,0-0.4
		c0,0,0-0.1,0.1-0.2C2.8,4.1,2.8,4,2.8,4C2.9,3.9,2.9,3.8,3,3.8c0.1-0.1,0.1-0.1,0.2,0c0.1,0.1,0.2,0.2,0.2,0.2c0.1,0,0.1,0,0.1,0
		c0,0,0,0,0.1-0.1c0-0.1,0.1-0.1,0.1-0.2c0.1,0,0.1,0,0.1,0.1c0,0.2,0,0.3,0,0.3c0,0.1,0,0.2,0.1,0.3c0,0,0,0.1,0,0.2
		c-0.1,0.7-0.1,1-0.1,1.2c0,0.1,0,0.3-0.1,0.5c0,0.3-0.1,0.4-0.1,0.5c0,0.4-0.1,0.7-0.1,0.8C3.5,7.7,3.4,7.9,3.5,8
		c0,0.1,0,0.1,0,0.1c0,0,0,0,0,0c0,0,0,0,0,0c0,0,0,0.1,0,0.1c0,0,0,0.1,0,0.1c0,0.1-0.1,0.1,0,0.2c0,0.1,0,0.2,0,0.2
		c0,0.1,0,0.1,0,0.2c0,0,0,0.1,0,0.2c-0.1,0.1-0.1,0.1,0,0.2c0.1,0.1,0.1,0.1,0,0.1c0,0,0,0,0,0.1c0,0.1,0,0.2,0,0.2
		c0,0,0,0.1,0,0.1c0,0,0.1,0,0.1,0c0,0,0.1,0,0.2,0c0.1,0,0.2,0,0.2,0c0,0,0.1,0,0.2,0c0.2,0,0.3,0,0.5-0.1c0.1,0,0.1,0,0.1,0
		c0,0,0,0,0.1,0c0.1-0.1,0.3-0.2,0.5-0.1c0,0,0.1,0,0.2,0c0.1,0,0.2,0,0.2,0c0,0,0.1,0,0.1,0c0-0.1,0.1-0.1,0.2-0.1
		c0.2,0,0.3-0.1,0.3-0.3c0.1-1,0.2-1.7,0.2-2c0-0.1,0.1-0.4,0.1-0.7c0.1-0.3,0.1-0.5,0.1-0.7c0-0.4,0.2-0.8,0.4-1.3
		c0,0,0-0.1,0.1-0.1C7.3,4.2,7.5,4,7.5,3.8c0.1,0.1,0.1,0.1,0.2,0c0,0,0.1-0.1,0.1-0.2c0,0,0.1,0,0.1,0.1C7.9,3.7,7.9,3.7,8,3.7
		C7.9,3.7,8,3.7,8,3.7z M3.9,4.3C4,4.4,4,4.5,4,4.7C3.9,4.5,3.9,4.4,3.9,4.3z M6.6,6.1c0,0,0,0.1,0,0.1c0,0.1,0,0.1,0,0.1
		c0,0.1-0.1,0.1-0.1,0.2C6.5,6.3,6.5,6.1,6.6,6.1C6.5,6.1,6.6,6,6.6,6.1C6.6,6.1,6.6,6.1,6.6,6.1z"/>
	<path class="st0" d="M7.7,16.9C7.7,16.9,7.7,16.9,7.7,16.9l-0.1,0c0,0-0.1,0-0.2-0.1c0.1,0,0.1,0,0.2,0c0,0,0.1,0,0.1,0
		c0,0,0.1,0,0.1,0c0,0,0,0,0.1,0l0,0c0,0,0,0,0,0C7.8,16.7,7.8,16.8,7.7,16.9C7.7,16.8,7.7,16.8,7.7,16.9
		C7.7,16.8,7.7,16.8,7.7,16.9z M14.1,17.3c0,0.1,0,0.2,0,0.4c0,0.2,0,0.1-0.1-0.1C14,17.7,14,17.8,14,17.9c0,0,0,0.1,0,0.3
		c0,0.1,0,0.1,0,0.1c0,0.1,0,0.1-0.1,0.1c0,0,0,0.3,0.1,0.8c0.1,0.5,0.1,0.8,0.1,0.8C14.1,20,14,20,14,20c0,0-0.1-0.2-0.2-0.7
		c-0.1-0.5-0.2-0.7-0.2-0.7c0,0,0,0,0,0c0,0,0,0,0-0.1c0-0.1,0-0.2-0.1-0.3c0-0.2-0.1-0.3-0.1-0.3c0,0,0-0.1-0.1-0.3
		c0,0.1,0,0.3,0,0.4c0,0.1,0.1,0.2,0.1,0.3c0,0.2,0.1,0.3,0.1,0.3c0,0.1,0,0.1,0,0.1c0,0.1,0.1,0.4,0.2,1c0.1,0.6,0.2,1,0.2,1
		c0,0-0.1-0.3-0.3-1c0.1,0.3,0.1,0.4,0.2,0.5c0,0-0.1-0.3-0.3-0.9c-0.1-0.3-0.1-0.5-0.1-0.5c0,0,0,0.2,0.1,0.5c0,0,0,0.1,0,0.2
		c0,0.1,0,0.2,0,0.2c-0.3-0.9-0.5-1.5-0.6-1.8c-0.1,0.2-0.1,0.3,0,0.4c0,0,0.1,0.1,0.1,0.2c0,0.1,0,0.1,0.1,0.2c-0.1,0-0.1,0-0.2,0
		c0-0.1,0-0.1,0-0.1c0-0.1,0-0.2-0.1-0.3c0-0.1-0.1-0.2-0.1-0.3c0-0.1,0-0.1,0-0.1c-0.1,0-0.1-0.1-0.1-0.3c0-0.1,0-0.2-0.1-0.3
		c0-0.1,0-0.2,0-0.3c0,0,0-0.1,0-0.2c0-0.1,0-0.1,0-0.2c0,0,0,0.1,0,0.2c0,0.1,0,0.1,0,0.2c0,0,0,0.1,0,0.1c0,0.1,0,0.1,0,0.1
		c0,0.1,0,0.1,0,0.2c0,0.1-0.1,0.2-0.1,0.2c0-0.1,0-0.1,0-0.2c0-0.1,0-0.1-0.1-0.1c0,0-0.1,0-0.1-0.1c0,0,0-0.1,0-0.1
		c0-0.1,0-0.1,0-0.1c0-0.2,0-0.3,0-0.3c0,0,0.1,0.1,0.1,0.2c0,0.1,0,0.2,0,0.2c0,0,0,0,0-0.1c0,0,0-0.1,0-0.1c0,0,0,0,0,0.1
		c0,0,0,0.1,0,0.1c0-0.1,0-0.1,0-0.2c0,0,0-0.1,0-0.1c0-0.1,0-0.1,0-0.1c0,0,0-0.1,0-0.1c0.1,0,0.1-0.1,0-0.1c0,0,0-0.1,0-0.1
		c0-0.1,0-0.1,0-0.2c0,0,0,0,0,0c0,0,0,0,0,0c0,0,0-0.1,0,0c0-0.1,0-0.1,0-0.1c0-0.1,0-0.1,0-0.2c0-0.1,0-0.3-0.1-0.6
		c-0.1-0.3-0.1-0.5-0.1-0.6c0-0.1,0-0.1,0-0.2c0-0.1,0-0.2,0-0.2c0-0.3-0.1-0.4-0.1-0.5c0,0,0-0.1,0-0.2c0-0.1,0-0.1,0-0.2
		c0-0.1,0-0.2,0-0.2c0-0.1,0-0.1,0-0.2c0,0,0-0.1,0-0.1c-0.1-0.1-0.1-0.1-0.2,0c0-0.1-0.1-0.2-0.2-0.2c0,0-0.1,0-0.4,0
		c-0.5,0.1-0.8,0.1-1.1,0.2c-0.1,0-0.2,0-0.2,0.1c-0.1,0-0.1,0.1,0,0.1c0,0,0,0,0,0c-0.1,0-0.1,0.1-0.1,0.2c0,0.1,0,0.3,0,0.4
		c0,0,0,0,0-0.1c0,0,0-0.1,0-0.1c0,0-0.1,0.2-0.1,0.4c0,0.1-0.1,0.3-0.1,0.6c0,0.3-0.1,0.5-0.1,0.6c-0.1,0.7-0.2,1.1-0.2,1.1
		c0-0.1,0.1-0.1,0.2-0.1l0,0c0,0,0,0,0,0c0,0,0,0-0.1,0.1c0,0,0,0,0,0c0,0,0,0,0,0c0,0,0,0,0,0c0,0,0,0,0,0l0,0c0,0,0,0,0,0
		c0,0-0.1,0-0.1,0c0,0,0,0,0,0c0,0.1,0,0.2,0,0.3c0,0,0,0,0,0c0,0,0,0,0,0c0,0,0,0,0,0c0,0,0,0,0,0c0.1,0,0.1,0,0.1,0c0,0,0,0,0.1,0
		c0,0,0,0,0,0c0,0,0,0,0,0c0,0,0,0,0,0c0,0,0,0-0.1,0c-0.1,0-0.1,0-0.1,0.1l0,0c-0.1,0-0.1,0-0.2,0c0,0.1,0,0.2-0.1,0.3
		c0,0,0,0,0.1,0c0.1,0,0.1,0,0.1,0c0,0,0,0,0,0c0,0,0,0,0,0c0,0,0,0,0,0c0,0,0,0,0,0c0,0,0,0,0,0c0,0,0,0,0,0c0,0,0,0,0,0
		c0,0-0.1,0-0.1-0.1l0,0c0,0,0,0,0,0c0,0,0,0,0,0c0,0,0,0,0,0c0,0,0,0,0,0c0,0,0,0,0,0c0,0,0,0,0,0c0,0,0,0,0,0v0c0,0,0,0,0,0
		c0,0,0.1,0,0.1,0c0,0,0,0,0,0c0,0,0,0,0,0c-0.1,0-0.1,0-0.2,0c0,0.1-0.1,0.1-0.2,0c0,0-0.1,0-0.1,0c-0.1,0-0.1,0-0.1-0.1
		c0,0,0,0,0,0l0,0c0,0,0,0,0,0l0,0c0,0.1,0,0.1,0,0.1c0,0,0,0,0,0c0,0,0,0,0,0c0,0.1,0,0.1,0,0.1l0,0c0,0-0.1,0-0.1,0c0,0,0,0,0,0
		c0,0,0,0,0-0.1c0,0,0,0.1-0.1,0.1c0,0,0,0-0.1,0c0,0,0,0,0,0c0,0,0,0,0,0c0,0,0,0,0,0l0,0c0,0,0,0,0,0v0h0c0,0,0,0,0,0c0,0,0,0,0,0
		c0,0,0,0,0,0c0,0,0,0,0,0l0,0c0,0,0,0,0,0h0v0c-0.1,0-0.2,0-0.2,0c0,0,0,0-0.1,0c0,0,0,0.1,0,0.1c0,0,0,0-0.1-0.1c0,0,0,0,0,0
		c0,0,0,0,0,0c0,0,0,0,0,0h0c0,0,0-0.1,0-0.1H7.8c0,0,0,0-0.1,0c0,0,0,0,0,0c0,0,0,0,0.1-0.1c0,0,0,0,0,0c0,0,0,0,0,0c0,0,0,0,0,0
		c0,0,0,0,0,0c0,0,0,0,0-0.1c0,0-0.1,0-0.1,0c0,0,0,0,0,0l0,0c0-0.1,0-0.1,0-0.1c0,0,0,0,0,0c0,0,0.1,0,0.1,0c0,0,0-0.1,0,0
		c0,0,0,0,0,0c0,0,0,0,0,0c-0.1,0-0.1,0-0.1,0c0,0,0,0,0,0c0.1,0,0.1,0,0.1-0.1c0,0,0,0,0,0c0,0,0-0.1,0.1-0.2c0,0,0,0,0,0
		c0,0,0,0,0-0.1c0,0,0,0,0-0.1c0,0,0,0,0,0c0,0,0,0,0-0.1c0,0,0,0,0-0.1c0,0,0,0,0,0c0,0,0-0.1,0-0.2c0,0,0,0,0,0c0,0,0.1,0,0.1-0.1
		c0,0,0,0,0.1-0.1c0,0,0,0,0,0c0,0,0,0,0,0c0,0,0-0.1,0-0.1c0,0,0-0.1,0-0.1c0.1-0.8,0.2-1.2,0.2-1.2c0-0.1,0.1-0.3,0.1-0.5
		c0.1-0.2,0.1-0.4,0.1-0.5c0-0.1,0-0.1,0.1-0.2c0-0.1,0-0.1,0-0.1c0-0.1-0.1-0.1-0.1-0.1c-0.3,0.1-0.5,0.1-0.4,0.1
		c-0.1,0-0.3,0-0.7,0c0,0-0.1,0,0-0.1c0-0.1,0.1-0.3,0.1-0.3c0,0,0.1-0.1,0.2-0.2c0.1-0.1,0.1-0.1,0.2-0.2c0.1-0.1,0.3-0.2,0.5-0.3
		c0.1,0,0.1,0,0.1,0c0.2,0,0.2-0.1,0.2-0.2c0,0,0,0,0,0c0,0.1,0,0.1,0.1,0.1c0,0,0.1,0,0.1-0.1c0-0.1,0-0.1,0-0.2c0-0.1,0-0.2,0-0.2
		c0-0.1,0-0.1,0-0.1c0,0,0-0.1,0-0.2c0,0,0-0.1,0-0.3c0,0,0-0.1-0.1-0.1c0,0,0,0,0,0c0,0,0,0,0,0c0,0,0,0,0-0.1c0-0.1,0-0.1,0-0.1
		c0,0,0,0,0-0.1c0-0.1,0.1-0.2,0.1-0.3c0.1-0.1,0.1-0.1,0-0.1c0,0,0,0,0-0.1c0-0.1,0-0.1,0-0.2c0,0,0,0,0.1,0c0,0,0,0,0,0
		c0-0.1,0-0.1,0-0.1c-0.1,0-0.1,0-0.1-0.1c0-0.1,0-0.2,0.1-0.2c0.1,0,0.1-0.1,0.1-0.3c0-0.1,0-0.1,0-0.1c0,0-0.1,0.1-0.1,0.1
		c0,0.1,0,0.1,0,0.2c0-0.1-0.1-0.1-0.1-0.3c0,0,0,0,0.1-0.1c0-0.1,0-0.1,0.1-0.1c0,0-0.1,0-0.1,0c-0.1,0-0.1,0-0.1,0
		c0-0.1,0-0.1,0.1-0.1c0.1,0,0.1-0.1,0.1-0.1c0,0,0,0,0-0.1c0,0,0-0.1,0-0.1c0,0,0,0.1-0.1,0.1c0,0.1,0,0.1-0.1,0.1
		c0-0.1,0-0.2,0-0.3c0,0,0-0.1,0.1-0.1c0-0.1,0-0.1,0.1-0.2c0,0,0,0,0-0.1c0,0,0-0.1,0-0.1c0.1-0.4,0.1-0.6,0.1-0.7c0,0,0,0,0,0
		c0,0,0,0,0,0c0,0,0-0.1,0-0.1c0,0,0,0-0.1,0c-0.1,0-0.1,0-0.1,0c0,0,0,0,0-0.1c0,0,0-0.1,0-0.1c0-0.1,0-0.1,0.1,0
		c0.1,0,0.1,0,0.2-0.1c0-0.1,0.1-0.2,0.1-0.2c0-0.1,0-0.2,0.1-0.3c0-0.1,0.1-0.2,0.1-0.4c0-0.1,0-0.2,0-0.3c0-0.1,0-0.3,0-0.3
		c0-0.1,0-0.1,0-0.2c0-0.1,0-0.2,0-0.2c0-0.2,0-0.3-0.1-0.3c-0.1-0.1-0.1-0.1,0-0.2c0,0,0-0.1,0-0.2c0,0-0.1,0-0.1,0.1
		c0,0.1,0,0.1-0.1,0.3c0,0.1-0.1,0.2-0.1,0.3c0,0,0,0,0,0c0,0,0,0.1,0,0c0,0,0,0,0,0c0,0,0,0,0,0c0,0,0-0.2,0-0.5
		c0-0.1,0-0.2,0.1-0.3c0.1-0.2,0.2-0.2,0.3-0.1c0.1,0,0.1,0.1,0.1,0.1c0,0,0,0.1,0,0.1c0,0.1-0.1,0.2-0.1,0.3c0,0.1,0,0.1,0.1,0.1
		c0.1,0,0.1-0.1,0.1-0.1c0,0,0-0.1,0-0.1c0,0,0,0,0,0c0,0,0,0.1,0,0.1c0,0,0-0.1,0-0.1c0-0.1,0-0.1,0-0.1c0,0,0,0,0,0c0,0,0,0,0,0
		c0,0,0,0,0,0c0.1-0.2,0.1-0.3,0.2-0.3c0,0.1,0,0.1,0,0.1c0,0,0.1,0,0.1,0c0,0,0.1,0,0.1,0C10.5,4,10.5,4,10.5,4
		c0-0.1,0.1-0.1,0.1-0.2c0,0,0,0,0-0.1c0-0.1,0-0.1,0.1-0.1c0.1,0,0.1,0,0.1-0.1c0,0,0-0.1,0.1-0.1c0.1-0.1,0.2,0,0.2,0.1
		c0,0,0,0.1,0,0.3c0,0.1,0,0.1,0,0.1c0,0,0-0.1,0-0.3c0-0.1,0-0.2,0.1-0.2c0,0,0-0.1,0-0.1c0-0.1,0-0.1,0-0.1c0.1,0,0.1,0,0.1,0.1
		c0,0,0,0.1,0,0.1c0,0,0,0.2,0,0.4c0,0,0,0,0.1,0.1c0,0,0,0,0.1,0c0,0,0,0,0.1,0c0.1,0,0.1,0.1,0.1,0.2c0,0.1,0.1,0.2,0.2,0.3
		c0,0,0,0.1,0,0.1c0,0,0,0-0.1,0c0,0-0.1,0-0.1,0c0,0,0,0.1,0.1,0.2c0.1,0.1,0.1,0.2,0.1,0.3c0,0,0-0.1-0.1-0.2
		c0-0.1-0.1-0.1-0.1-0.1c0,0.1,0,0.1,0,0.2c0.1,0.2,0.2,0.5,0.3,1c0,0,0,0.1,0.1,0.2c0,0.1,0,0.2,0.1,0.2c0,0.1,0.1,0.3,0.1,0.5
		c0,0,0,0.1,0,0.1c0,0.1,0,0.1,0,0.1c0,0.3,0,0.3,0,0.3c0,0.1,0,0.1,0,0.1c0,0,0,0.2,0.1,0.8c0.1,0.5,0.2,0.9,0.2,1.1
		c0,0.1,0,0.2,0,0.3c0,0.1,0,0.2,0,0.3c0,0.1,0.1,0.5,0.2,1.2c0,0.2,0.1,0.3,0.1,0.4c0,0,0,0,0,0.1c-0.1,0.1,0,0.2,0.1,0.3
		c0,0,0.1,0.1,0.1,0.1c0,0,0,0-0.1,0c0,0-0.1,0-0.1,0c0,0.1,0,0.2,0.1,0.2c0,0,0.1,0.1,0,0.1c0,0-0.1,0.1-0.1,0.2
		c0,0.1,0,0.1,0.1,0.1c0,0,0,0,0,0c0,0,0,0,0,0c0,0.1,0,0.1,0,0.1c0.1,0.3,0.1,0.4,0.1,0.5c0,0,0,0.1,0,0.1c0,0.1,0,0.1,0,0.1l0,0
		c0,0,0,0,0,0.1c0.1,0,0.1,0.1,0,0.2c0,0,0,0.1,0,0.1l0.1,0.3c0,0,0,0,0,0c0,0.1,0,0.2,0,0.3c0,0.2,0.1,0.3,0.1,0.3
		c0,0.1,0,0.1,0,0.2c0,0.1,0,0.2,0,0.2c0,0.1,0.1,0.4,0.2,1.1c0,0.1,0,0.2,0.1,0.3C14,16.9,14,17,14,17
		C14.1,17.2,14.1,17.3,14.1,17.3C14.1,17.3,14.1,17.3,14.1,17.3z M7.6,17.2C7.6,17.2,7.6,17.2,7.6,17.2L7.6,17.2
		C7.7,17.2,7.6,17.2,7.6,17.2C7.6,17.2,7.6,17.2,7.6,17.2C7.6,17.2,7.6,17.2,7.6,17.2z M7.8,16.3C7.8,16.3,7.8,16.3,7.8,16.3
		c0-0.3,0-0.5,0-0.5C7.9,16,7.9,16.1,7.8,16.3C7.8,16.3,7.8,16.3,7.8,16.3z M7.9,17.5C7.9,17.6,7.9,17.6,7.9,17.5L7.9,17.5L7.9,17.5
		c-0.1,0-0.1,0-0.1,0c0,0,0,0,0,0C7.8,17.5,7.9,17.5,7.9,17.5C7.9,17.5,7.9,17.5,7.9,17.5C7.9,17.5,7.9,17.5,7.9,17.5
		C7.9,17.5,7.9,17.5,7.9,17.5z M7.9,17.7C7.9,17.6,7.9,17.6,7.9,17.7L7.9,17.7C8,17.7,7.9,17.7,7.9,17.7C7.9,17.7,7.9,17.7,7.9,17.7
		z M8.1,16.6C8.1,16.5,8.1,16.4,8.1,16.6c0-0.1,0-0.1,0-0.1c0,0,0,0,0,0c0,0,0,0,0,0C8,16.5,8,16.5,8.1,16.6
		C8.1,16.6,8.1,16.6,8.1,16.6z M8.2,17.6C8.2,17.6,8.3,17.7,8.2,17.6c0,0.1,0,0.1-0.1,0.1C8.1,17.7,8.1,17.7,8.2,17.6
		C8.2,17.6,8.2,17.6,8.2,17.6z M8.1,17.5C8.2,17.5,8.2,17.5,8.1,17.5C8.2,17.5,8.2,17.5,8.1,17.5C8.2,17.5,8.2,17.5,8.1,17.5z
		 M8.3,17.4C8.3,17.4,8.3,17.4,8.3,17.4C8.3,17.4,8.2,17.4,8.3,17.4C8.2,17.4,8.2,17.5,8.3,17.4C8.3,17.4,8.3,17.4,8.3,17.4z
		 M8.3,17.6C8.3,17.6,8.4,17.6,8.3,17.6C8.4,17.7,8.3,17.7,8.3,17.6C8.3,17.7,8.3,17.7,8.3,17.6C8.3,17.6,8.3,17.6,8.3,17.6z
		 M8.4,14.3c0-0.1,0-0.3,0.1-0.5C8.4,14,8.4,14.2,8.4,14.3z M8.4,17.7C8.5,17.7,8.5,17.8,8.4,17.7C8.5,17.8,8.5,17.8,8.4,17.7
		C8.4,17.8,8.4,17.8,8.4,17.7L8.4,17.7C8.4,17.8,8.4,17.7,8.4,17.7z M8.5,17.6L8.5,17.6C8.5,17.6,8.5,17.6,8.5,17.6
		C8.5,17.6,8.5,17.6,8.5,17.6C8.5,17.6,8.5,17.6,8.5,17.6C8.5,17.6,8.5,17.6,8.5,17.6L8.5,17.6L8.5,17.6C8.5,17.6,8.5,17.6,8.5,17.6
		z M9.1,13.3c0,0,0,0,0-0.1c0,0,0,0-0.1,0c-0.1,0.1-0.2,0.1-0.2,0.2c0,0.3-0.1,0.4-0.1,0.5c0,0.3-0.1,0.6-0.2,1c0,0.1,0,0.2,0,0.3
		c0.1,0.1,0.1,0.2,0,0.3c0,0,0,0,0,0c-0.1-0.1-0.1-0.1,0-0.1c-0.1,0.2-0.1,0.3-0.1,0.3c0,0,0,0,0-0.1c0,0,0-0.1,0.1-0.1
		c0,0,0,0.1,0,0.2c0,0.1,0,0.1,0,0.2c0,0,0-0.1,0-0.1c0.1-0.5,0.2-0.8,0.2-1c0-0.1,0-0.2,0.1-0.2c0,0,0,0,0-0.1c0,0,0,0,0-0.1
		c0-0.2,0-0.3,0-0.4c0-0.2,0-0.3,0.1-0.4c0,0,0,0,0-0.1C9,13.4,9,13.3,9.1,13.3z M8.5,17.3L8.5,17.3C8.5,17.3,8.5,17.3,8.5,17.3
		L8.5,17.3C8.5,17.3,8.5,17.3,8.5,17.3C8.5,17.3,8.5,17.3,8.5,17.3z M8.6,17.6C8.6,17.6,8.6,17.6,8.6,17.6c0,0.1,0,0.1,0,0.1
		C8.5,17.7,8.6,17.6,8.6,17.6C8.6,17.6,8.6,17.6,8.6,17.6z M8.6,17.5L8.6,17.5C8.6,17.5,8.6,17.6,8.6,17.5
		C8.6,17.6,8.6,17.6,8.6,17.5C8.6,17.6,8.6,17.6,8.6,17.5C8.6,17.5,8.6,17.5,8.6,17.5z M8.8,17.6L8.8,17.6
		C8.8,17.6,8.8,17.7,8.8,17.6L8.8,17.6L8.8,17.6L8.8,17.6L8.8,17.6C8.7,17.6,8.7,17.6,8.8,17.6z M9.1,11.1c-0.1,0.1-0.1,0.2-0.1,0.3
		c0-0.1-0.1-0.1,0-0.2c0,0,0-0.1,0.1-0.2c0,0,0,0,0.1,0c0,0,0,0,0.1,0.1C9.1,11.1,9.1,11.1,9.1,11.1z M9,17.4
		C9.1,17.4,9.1,17.4,9,17.4L9,17.4C9.1,17.5,9,17.4,9,17.4C9,17.4,9,17.4,9,17.4z M9.2,12c0.1,0,0.2-0.1,0.2-0.1
		c0-0.1-0.1-0.1-0.2-0.1c0,0.1,0.1,0.1,0.1,0.1C9.2,11.9,9.2,12,9.2,12z M9.4,11.7c0-0.1,0-0.1,0-0.2c0-0.1,0-0.2,0-0.2
		C9.4,11.3,9.3,11.4,9.4,11.7C9.3,11.6,9.3,11.7,9.4,11.7z M9.4,6.5c0,0.1,0,0.2-0.1,0.3c0,0,0-0.1,0-0.2c0-0.1,0.1-0.3,0.1-0.5
		c0,0,0-0.1,0-0.1c0,0,0,0,0-0.1c0,0,0,0,0,0c0,0,0,0,0-0.1c0,0,0,0,0.1-0.1c0,0,0-0.1,0-0.1c0-0.1,0-0.2,0-0.2c0,0,0,0,0,0
		c0,0,0-0.1,0-0.1c0,0,0-0.1,0-0.1c0-0.1,0-0.2,0-0.3c0-0.1,0-0.2,0-0.3c0-0.1,0-0.1,0.1-0.2c0,0.1-0.1,0.2,0,0.3c0,0,0,0,0,0.1
		C9.7,5.1,9.6,5.3,9.7,5.5c0,0,0,0.1,0,0.2c0,0,0,0,0,0c0,0,0,0,0,0c0,0,0,0.1,0,0.1c0,0,0,0,0,0c0,0,0,0.1,0,0.2
		c0,0.1,0,0.2-0.1,0.2c0,0-0.1,0-0.1,0c0,0,0,0.1,0,0.1c0,0,0,0,0,0c0,0,0,0,0,0c0,0,0,0.1,0,0.1C9.5,6.4,9.5,6.4,9.4,6.5z M9.5,17
		C9.5,17,9.5,17,9.5,17C9.5,17,9.5,17,9.5,17C9.4,17,9.4,17,9.5,17C9.4,17,9.5,17,9.5,17z M9.7,14.2c0-0.1,0-0.1,0-0.2
		c0-0.1,0-0.2,0-0.2c0,0-0.1,0.1-0.1,0.1C9.7,14.1,9.6,14.1,9.7,14.2c-0.1-0.1-0.1-0.1-0.1-0.1h0c0,0,0-0.1,0-0.1c0,0,0-0.1,0-0.1
		c-0.1,0.1-0.1,0.3-0.1,0.4c0.1-0.1,0.1-0.2,0.1-0.2c0,0,0,0,0,0h0h0L9.7,14.2L9.7,14.2c-0.1,0-0.1,0.2-0.1,0.4c0,0,0,0.2-0.1,0.5
		c0-0.1,0.1-0.1,0.1-0.2c0-0.1,0-0.2,0-0.2c0-0.1,0-0.1,0-0.2C9.6,14.4,9.6,14.3,9.7,14.2C9.6,14.3,9.6,14.3,9.7,14.2z M9.6,16.4
		l0.1,0h0l0,0l0,0C9.7,16.4,9.7,16.5,9.6,16.4C9.6,16.5,9.6,16.5,9.6,16.4C9.6,16.5,9.6,16.5,9.6,16.4C9.5,16.4,9.5,16.4,9.6,16.4
		C9.5,16.4,9.5,16.4,9.6,16.4z M9.5,14.1 M9.8,13.7C9.8,13.7,9.8,13.6,9.8,13.7c0-0.1,0-0.1,0-0.1c0,0-0.1,0-0.1,0l0,0
		c0,0.1,0,0.1,0,0.1C9.7,13.7,9.7,13.7,9.8,13.7C9.7,13.7,9.7,13.7,9.8,13.7z M9.6,17.1c0.1,0,0.1,0,0.1,0.1
		C9.7,17.2,9.7,17.2,9.6,17.1C9.7,17.2,9.7,17.2,9.6,17.1C9.7,17.2,9.7,17.2,9.6,17.1C9.6,17.1,9.6,17.1,9.6,17.1z M9.7,16.8
		L9.7,16.8C9.7,16.8,9.7,16.8,9.7,16.8L9.7,16.8C9.7,16.8,9.7,16.8,9.7,16.8z M11.8,11.6c0.1,0,0.1-0.1,0.1-0.2c0-0.1,0-0.2-0.1-0.4
		c0,0,0-0.1,0-0.1c0,0,0-0.1,0-0.2c0-0.3,0-0.4,0-0.5c-0.1-0.2-0.1-0.3-0.1-0.3c0-0.2-0.1-0.4-0.1-0.9c0-0.1,0-0.2-0.1-0.2
		c0,0-0.1-0.1-0.1-0.1c-0.1-0.2-0.1-0.3-0.1-0.3c0,0,0-0.1,0-0.1c0-0.2-0.1-0.3-0.1-0.4c-0.1,0.2-0.1,0.3-0.1,0.4c0,0.1,0,0.2,0,0.3
		c0,0,0,0,0,0L11,8.6c0,0,0,0.1-0.1,0.2c-0.1,0.3-0.1,0.6-0.1,0.7c0,0.2-0.1,0.4-0.1,0.6c-0.1,0.3-0.1,0.6-0.1,0.6
		c-0.1,0.6-0.2,0.9-0.2,0.9c0,0.1,0,0.1,0,0.2c0,0,0.1,0,0.2,0c0,0,0.1,0,0.1,0c0,0,0.1,0,0.1,0c0.1,0,0.1,0,0.1,0
		c0.1,0,0.2,0,0.3,0c0,0,0.1,0,0.1,0c0.1,0,0.1,0,0.1,0c0,0,0,0,0,0S11.7,11.6,11.8,11.6z M11.3,4.1c0-0.1-0.1-0.1-0.2,0
		c0.1,0.2,0.2,0.2,0.2,0.2C11.4,4.2,11.4,4.2,11.3,4.1z M12.6,17.9c0,0.1,0,0.2,0.1,0.3c-0.1,0-0.1,0-0.2-0.1c0-0.1,0-0.2,0-0.3
		C12.6,17.8,12.6,17.9,12.6,17.9z"/>
	<path class="st0" d="M22.5,10.1c0.1,0,0.1,0,0.1,0.1c-0.1,0.1-0.3,0.2-0.7,0.4c0,0-0.1,0-0.1,0c0-0.1-0.1-0.1-0.2-0.1
		c-0.1,0-0.2-0.1-0.2-0.1c0,0,0,0.2,0,0.6c0,0-0.1,0-0.1-0.1c0-0.1,0-0.1,0-0.1c-0.2,0.2-0.3,0.3-0.2,0.3c-0.1,0-0.1,0.1,0,0.1
		c0,0,0,0.1-0.1,0.3c0,0,0,0,0.3-0.1c0,0.2-0.1,0.3-0.1,0.4c-0.1,0.1-0.2,0.2-0.4,0.1c0,0,0,0,0-0.1c0,0,0,0,0.1-0.1c0,0,0,0-0.1,0
		c-0.1,0-0.1-0.1,0-0.1c0,0,0,0,0,0c0,0,0,0,0,0c0.1-0.1,0.1-0.2,0-0.3c-0.1-0.1-0.1-0.1-0.2,0c0,0,0,0.1,0,0c0,0,0,0,0,0
		c0,0,0,0-0.1-0.1c0,0-0.1-0.1-0.1,0c0,0,0,0,0,0.1c0.1,0.1,0,0.3-0.2,0.4c-0.2,0.1-0.2,0.3-0.2,0.4c0,0.1,0,0.1-0.1,0.1
		c0-0.1,0-0.1,0-0.1c0,0-0.1,0-0.1,0c-0.1,0.2-0.2,0.2-0.2,0.3c0,0,0,0.1,0,0.2c-0.1,0-0.3,0.1-0.4,0.3c0,0,0,0.1,0,0.1
		c0,0,0,0.1,0,0.1c0,0,0,0,0.1,0c0,0,0-0.1,0.1-0.1c0,0,0-0.1,0.1-0.1c0-0.1,0.1-0.1,0.2,0c0.1,0,0.1,0.1,0.1,0.1
		c0,0.1,0,0.2-0.1,0.2c0,0,0,0-0.2,0.1c-0.1,0-0.1,0.1,0,0.1c0,0,0,0.1,0,0.1c-0.2,0.2-0.3,0.3-0.4,0.2c0,0.2-0.1,0.3-0.3,0.5
		c-0.1,0.1-0.2,0.1-0.2,0.2c0,0,0,0.1,0,0.1c-0.1,0-0.2,0.1-0.3,0.3c-0.1,0.2-0.2,0.3-0.3,0.3c0,0,0,0.1-0.1,0.2
		c0,0.1,0,0.2-0.1,0.2c0,0,0-0.1,0-0.1c0-0.1,0-0.2,0-0.2c0,0,0,0-0.1,0c0,0-0.1,0-0.1-0.1c0,0,0,0-0.1,0.1
		c-0.1,0.1-0.2,0.2-0.2,0.2c-0.1,0-0.1,0.1-0.1,0.3c-0.1,0-0.1,0-0.1,0.1c0,0.1,0,0.2,0,0.2c0.1,0,0.1,0.1,0.1,0.2
		c-0.1,0-0.2,0-0.1-0.1c-0.1,0-0.1,0.1,0,0.1c0,0,0,0,0,0.1c-0.1,0.1-0.1,0.2-0.2,0.6c0,0.1,0,0.1,0,0.1c0,0.1-0.1,0.1-0.1,0.1
		c-0.1-0.1-0.1-0.1-0.1-0.1c-0.1,0.1-0.1,0.1-0.2,0.2c0,0,0,0,0,0.1c0,0-0.1-0.1-0.1-0.2c-0.1-0.1-0.1-0.1-0.2-0.1
		c-0.2,0.1-0.2,0.3-0.1,0.6c0,0-0.1,0-0.1,0c0,0-0.1,0-0.3,0c-0.1,0-0.1,0-0.1,0.1c0,0.1,0,0.1,0.1,0c0,0,0,0,0,0c0-0.1,0,0-0.1,0.1
		c0,0.1-0.1,0.1-0.1,0.1s-0.1,0-0.1-0.1c-0.1-0.2-0.2-0.3-0.2-0.4c0,0.1-0.1,0-0.3-0.3c-0.1-0.2-0.2-0.3-0.1-0.5c0,0,0-0.3,0-0.8
		c0-0.1,0-0.3,0-0.6c0-0.3,0-0.5,0-0.6c0-0.1,0-0.3,0-0.4c0-0.2,0-0.3,0-0.4c0-0.1,0-0.2,0-0.3c0-0.2,0-0.3,0-0.3c0-0.1,0-0.2,0-0.1
		c0,0,0-0.3,0-1c0-0.2,0-0.4,0-0.4c0,0,0,0,0-0.1c0-0.1,0-0.4-0.1-1.1c0-0.8,0-1.3,0-1.6c0,0.1,0-0.1,0-0.7c0-0.3,0-0.7,0-1.3
		c0-0.3,0-0.7,0.1-1.1c0-0.6,0.1-1.1,0.2-1.6c0-0.1,0-0.3,0.1-0.5c0-0.2,0.1-0.4,0.1-0.5c0.1-0.4,0.2-0.7,0.3-0.9
		c0.2-0.3,0.5-0.6,0.8-0.8c0.1-0.1,0.2-0.1,0.4-0.1c0.1,0,0.2,0,0.3,0.1c0,0.1,0.1,0.1,0.2,0.2l0.1-0.3c0.1-0.1,0.1-0.1,0.2,0
		c0,0.1,0.1,0.2,0,0.3c-0.1,0.5-0.1,0.8-0.1,0.9c0,0.1,0,0.2,0,0.4c0,0.2,0,0.3,0,0.4c0-0.1,0,0.2-0.1,0.8c0,0-0.1,0.8-0.3,2.6
		C16.2,6.8,16.2,7,16.2,7c0,0,0,0.1,0,0.2c0,0.1,0,0.1,0,0.2c0,0,0,0,0,0.1c0,0,0,0,0,0.1c0,0,0,0.1-0.1,0c-0.1,0-0.1,0,0,0
		c0,0,0.1,0.1,0,0.2c0,0.1,0,0.1,0,0.2c0,0,0,0,0,0c0.1,0,0.1,0.1,0,0.1c-0.1,0-0.1,0.1-0.1,0.3c0,0,0,0.1-0.1,0.2
		c0,0,0-0.1-0.1-0.3c-0.1,0.1-0.1,0.2-0.1,0.3c0,0.1,0,0.1,0,0.2c0,0,0,0.1,0,0.2c0,0.1,0,0.2-0.1,0.2c0,0,0,0-0.1,0.1
		c0,0.1-0.1,0.1-0.1,0.1c0,0-0.1,0-0.1,0c0,0,0-0.1,0.1-0.1c0,0,0,0,0.1,0c0.1-0.1,0.1-0.1,0.1-0.1c0,0,0-0.1,0-0.3c0,0,0,0,0,0
		c0,0,0,0,0,0c0,0,0,0,0,0.1c0,0.1,0,0.1,0,0.1c0,0,0,0,0-0.1s0-0.1-0.1-0.1c0,0,0,0,0-0.1c0-0.3,0-0.5,0-0.5c0-0.1,0-0.2,0.1-0.3
		c0-0.1,0.1-0.2,0.1-0.5c0,0,0-0.1-0.1-0.1c-0.1,0.2-0.1,0.6-0.1,1.1c0,0.3,0,0.4,0,0.5c0,0.1,0,0.1,0,0.2c0,0.2,0,0.4,0,0.6
		c0,0.3,0,0.5,0,0.6c0,0.4,0,0.7,0,0.7c0,0.1,0,0.2,0,0.3c0,0.1,0,0.1,0,0.1c0,0,0,0,0-0.1c0-0.3,0-0.7,0-1.1c0-0.1,0-0.2,0-0.3
		c0-0.1,0-0.2,0-0.3c0-0.8,0-1.4,0-1.8c0-0.4,0-0.5,0-0.5c-0.1,0.1-0.1,0.3-0.1,0.5c0,0.5,0,0.7,0,0.7c0,0.5,0,0.7,0,0.7
		c0-0.1,0,0.2,0,1c0,0.2,0,0.4,0.1,0.4c0,0,0,0.1,0,0.2c0,0.1,0,0.4,0,0.7c0,0.2,0,0.3,0.1,0.2c0,0,0,0,0,0.1c0,0.1,0,0.1,0.1,0.1
		c0,0.1,0,0.2,0,0.2c0,0.1,0,0.2,0,0.3c0,0.1,0.1,0.1,0.1,0.1c0,0,0,0,0,0c-0.1,0.1-0.2,0.2-0.2,0.3c0,0-0.1-0.1-0.1-0.1
		c0-0.1,0-0.1,0-0.1c0,0.1,0,0.2,0,0.5c0,0,0,0,0.1,0c0.1,0,0.1,0,0.1,0.1c0,0.1,0,0.2,0,0.2c0.1,0,0.1-0.1,0.1-0.2
		c0-0.1,0.1-0.2,0.1-0.2c0.2,0,0.2,0,0.2,0.1c0,0,0,0,0.1,0c0.1,0.2,0.1,0.2,0.1,0.2c0.1-0.1,0.1-0.1,0-0.1c-0.1,0-0.1-0.1,0-0.2
		c0-0.1,0.1-0.3,0.2-0.6c0-0.1,0-0.1,0.1-0.1c0,0,0.1,0.1,0,0.1c0-0.1,0,0-0.1,0.1c0,0.1,0,0.2,0.1,0.2c0,0,0,0,0,0.1
		c-0.1,0.4-0.1,0.6-0.1,0.6c0,0.1-0.1,0.1-0.1,0c-0.1-0.1-0.1-0.1-0.2,0c-0.1,0.2,0,0.2,0.1,0.3c0.1,0,0.1,0,0.2,0.1l0,0
		c0-0.1,0.1-0.2,0.1-0.2c0,0,0.1,0.1,0.1,0.2c0,0,0,0.1,0,0.1c0,0,0,0.1,0,0.1c0,0,0.1-0.1,0.3-0.2c0.1-0.1,0.1-0.1,0.2-0.1
		c0,0,0.1,0,0.1-0.1c0.1-0.2,0.2-0.3,0.3-0.3c0,0,0.1,0,0.1-0.1c0.1-0.1,0.3-0.3,0.5-0.5c0.2-0.2,0.4-0.4,0.5-0.5
		c0-0.1,0.1-0.1,0.2-0.2c0.1,0,0.2-0.2,0.4-0.4c0.2-0.3,0.5-0.6,0.9-0.9c0.3-0.2,0.4-0.4,0.5-0.5c0.1-0.1,0.3-0.3,0.7-0.6
		c0.2-0.1,0.4-0.2,0.6-0.3c0.1,0,0.1,0,0.2-0.1c0.1-0.1,0.1-0.1,0.2-0.1c0,0,0.1,0,0.5,0c0.1,0,0.1,0,0.2,0.1c0,0-0.1,0-0.2,0
		c-0.1,0-0.1,0-0.2,0c0.1,0.2,0.2,0.3,0.1,0.4c0,0,0,0,0,0c0.1,0.1,0.1,0.2,0.1,0.5c0,0.1,0,0.1,0,0.1S22.4,10.1,22.5,10.1z
		 M14.4,6.7C14.4,6.8,14.4,6.8,14.4,6.7c0.1,0.1,0.1,0,0.1,0c0,0,0-0.2,0-0.4c0,0-0.1,0-0.1,0C14.5,6.3,14.4,6.4,14.4,6.7z M14.4,10
		c0,0.1,0,0.1,0,0.2l0,0.7c0-0.1,0.1-0.2,0.1-0.4c0-0.1,0-0.3,0-0.8c0,0,0,0,0,0c0,0,0,0,0,0c0,0.1,0,0.2,0,0.2S14.4,10,14.4,10z
		 M14.5,8.7c-0.1,0-0.1,0.1-0.1,0.1c0,0.1,0,0.2,0,0.3c0,0.2,0,0.3,0,0.3c0,0.1,0,0.1,0,0.1c0,0,0-0.1,0-0.1c0-0.3,0-0.6,0-0.7
		C14.5,8.7,14.5,8.7,14.5,8.7z M14.5,11.8c0.1-0.2,0.1-0.4,0-0.6C14.5,11.3,14.5,11.5,14.5,11.8z M15.5,10.7
		C15.4,10.8,15.4,10.7,15.5,10.7c-0.1-0.1-0.1-0.1-0.1-0.1c0,0.1,0.1-0.2,0.2-0.9c0-0.1,0-0.1,0.1-0.1c0-0.1-0.1-0.1-0.1,0
		c0,0.1-0.1,0.1-0.1,0.1c-0.1,0-0.1-0.1,0-0.1c0.2-0.1,0.3-0.2,0.2-0.2c0.1,0,0.1,0,0.1-0.1c0,0,0.1-0.1,0.3-0.3c0,0,0.1,0,0.1,0
		c0,0,0,0.1,0,0.1C16,9,16,9.1,16,9.1c-0.1,0-0.1,0.1-0.1,0.1c0,0,0,0.1,0,0.2c0,0.1-0.1,0.1-0.1,0.2c0,0-0.1,0.1-0.1,0.1
		c0-0.1,0,0,0,0.3c0,0.1,0,0.2,0,0.2c0.1,0.1,0,0.2-0.1,0.3c0,0,0.1,0,0.2,0c0.1,0,0.1,0,0.2,0c0,0,0,0.1-0.1,0.1
		c0,0.1-0.1,0.1-0.1,0.1c0,0.2,0,0.3,0,0.4c0-0.1-0.1-0.1-0.1-0.2C15.6,10.8,15.5,10.8,15.5,10.7C15.5,10.7,15.5,10.7,15.5,10.7z
		 M15.5,11.7c0-0.1,0-0.1-0.1-0.1c0-0.1,0-0.2,0-0.3c0.1-0.1,0.1-0.1,0.1,0c0,0.1,0.2,0.2,0.4,0.3c0,0,0.1,0,0.1,0c0,0,0.1,0,0.1,0
		C16,11.9,15.9,12,15.8,12c-0.1,0-0.2,0.1-0.2,0.2c0,0.1,0,0.1,0,0.2c0,0,0,0-0.1-0.1c0,0,0,0,0,0C15.5,12,15.5,11.9,15.5,11.7z
		 M15.8,7.3c0,0.3,0,0.6,0,0.7c0.1,0,0.2-0.1,0.2-0.2c0-0.4,0-0.5,0-0.5c0-0.1,0-0.1-0.1-0.1C15.9,7.2,15.8,7.2,15.8,7.3z M17,15.3
		C16.9,15.3,16.9,15.3,17,15.3C17,15.1,17,15.1,17,15.1c0.1-0.1,0.1-0.1,0.1-0.1c0-0.1,0.1-0.1,0.1,0c0,0,0.1,0.1,0,0.1
		c0,0.1,0,0.1,0,0.2c0,0,0,0,0,0.1C17.2,15.4,17.1,15.4,17,15.3C17.1,15.3,17,15.3,17,15.3z M19.6,12.4c0-0.1,0.1-0.2,0.3-0.4
		c0,0.1,0.1,0.2,0.2,0.1c-0.1,0.2-0.1,0.3-0.1,0.4c0,0,0-0.1-0.2-0.2C19.8,12.4,19.7,12.4,19.6,12.4z M19.9,12L19.9,12L19.9,12z
		 M20.5,11.4c0,0.2,0,0.3,0.2,0.3c-0.2,0.3-0.3,0.4-0.2,0.3c0,0.1-0.1,0.1-0.2,0c-0.1-0.1,0-0.1,0-0.1c0.1,0,0.1-0.1,0-0.1
		c0,0,0-0.1,0-0.1C20.4,11.5,20.4,11.5,20.5,11.4C20.5,11.4,20.5,11.4,20.5,11.4z"/>
	<path class="st0" d="M31,10.1c0.1,0,0.1,0,0.1,0.1c-0.1,0.1-0.3,0.2-0.7,0.4c0,0-0.1,0-0.1,0c0-0.1-0.1-0.1-0.2-0.1
		c-0.1,0-0.2-0.1-0.2-0.1c0,0,0,0.2,0,0.6c0,0-0.1,0-0.1-0.1c0-0.1,0-0.1,0-0.1c-0.2,0.2-0.3,0.3-0.2,0.3c-0.1,0-0.1,0.1,0,0.1
		c0,0,0,0.1-0.1,0.3c0,0,0,0,0.3-0.1c0,0.2-0.1,0.3-0.1,0.4c-0.1,0.1-0.2,0.2-0.4,0.1c0,0,0,0,0-0.1c0,0,0,0,0.1-0.1c0,0,0,0-0.1,0
		c-0.1,0-0.1-0.1,0-0.1c0,0,0,0,0,0c0,0,0,0,0,0c0.1-0.1,0.1-0.2,0-0.3c-0.1-0.1-0.1-0.1-0.2,0c0,0,0,0.1,0,0c0,0,0,0,0,0
		c0,0,0,0-0.1-0.1c0,0-0.1-0.1-0.1,0c0,0,0,0,0,0.1c0.1,0.1,0,0.3-0.2,0.4c-0.2,0.1-0.2,0.3-0.2,0.4c0,0.1,0,0.1-0.1,0.1
		c0-0.1,0-0.1,0-0.1c0,0-0.1,0-0.1,0c-0.1,0.2-0.2,0.2-0.2,0.3c0,0,0,0.1,0,0.2c-0.1,0-0.3,0.1-0.4,0.3c0,0,0,0.1,0,0.1
		c0,0,0,0.1,0,0.1c0,0,0,0,0.1,0c0,0,0-0.1,0.1-0.1c0,0,0-0.1,0.1-0.1c0-0.1,0.1-0.1,0.2,0c0.1,0,0.1,0.1,0.1,0.1
		c0,0.1,0,0.2-0.1,0.2c0,0,0,0-0.2,0.1c-0.1,0-0.1,0.1,0,0.1c0,0,0,0.1,0,0.1c-0.2,0.2-0.3,0.3-0.4,0.2c0,0.2-0.1,0.3-0.3,0.5
		c-0.1,0.1-0.2,0.1-0.2,0.2c0,0,0,0.1,0,0.1c-0.1,0-0.2,0.1-0.3,0.3c-0.1,0.2-0.2,0.3-0.3,0.3c0,0,0,0.1-0.1,0.2
		c0,0.1,0,0.2-0.1,0.2c0,0,0-0.1,0-0.1c0-0.1,0-0.2,0-0.2c0,0,0,0-0.1,0c0,0-0.1,0-0.1-0.1c0,0,0,0-0.1,0.1
		c-0.1,0.1-0.2,0.2-0.2,0.2c-0.1,0-0.1,0.1-0.1,0.3c-0.1,0-0.1,0-0.1,0.1c0,0.1,0,0.2,0,0.2c0.1,0,0.1,0.1,0.1,0.2
		c-0.1,0-0.2,0-0.1-0.1c-0.1,0-0.1,0.1,0,0.1c0,0,0,0,0,0.1c-0.1,0.1-0.1,0.2-0.2,0.6c0,0.1,0,0.1,0,0.1c0,0.1-0.1,0.1-0.1,0.1
		c-0.1-0.1-0.1-0.1-0.1-0.1c-0.1,0.1-0.1,0.1-0.2,0.2c0,0,0,0,0,0.1c0,0-0.1-0.1-0.1-0.2c-0.1-0.1-0.1-0.1-0.2-0.1
		C24,16.5,24,16.7,24,17c0,0-0.1,0-0.1,0c0,0-0.1,0-0.3,0c-0.1,0-0.1,0-0.1,0.1c0,0.1,0,0.1,0.1,0c0,0,0,0,0,0c0-0.1,0,0-0.1,0.1
		c0,0.1-0.1,0.1-0.1,0.1s-0.1,0-0.1-0.1c-0.1-0.2-0.2-0.3-0.2-0.4c0,0.1-0.1,0-0.3-0.3c-0.1-0.2-0.2-0.3-0.1-0.5c0,0,0-0.3,0-0.8
		c0-0.1,0-0.3,0-0.6c0-0.3,0-0.5,0-0.6c0-0.1,0-0.3,0-0.4c0-0.2,0-0.3,0-0.4c0-0.1,0-0.2,0-0.3c0-0.2,0-0.3,0-0.3c0-0.1,0-0.2,0-0.1
		c0,0,0-0.3,0-1c0-0.2,0-0.4,0-0.4c0,0,0,0,0-0.1c0-0.1,0-0.4-0.1-1.1c0-0.8,0-1.3,0-1.6c0,0.1,0-0.1,0-0.7c0-0.3,0-0.7,0-1.3
		c0-0.3,0-0.7,0.1-1.1c0-0.6,0.1-1.1,0.2-1.6c0-0.1,0-0.3,0.1-0.5c0-0.2,0.1-0.4,0.1-0.5c0.1-0.4,0.2-0.7,0.3-0.9
		c0.2-0.3,0.5-0.6,0.8-0.8c0.1-0.1,0.2-0.1,0.4-0.1c0.1,0,0.2,0,0.3,0.1c0,0.1,0.1,0.1,0.2,0.2l0.1-0.3c0.1-0.1,0.1-0.1,0.2,0
		c0,0.1,0.1,0.2,0,0.3c-0.1,0.5-0.1,0.8-0.1,0.9c0,0.1,0,0.2,0,0.4c0,0.2,0,0.3,0,0.4c0-0.1,0,0.2-0.1,0.8c0,0-0.1,0.8-0.3,2.6
		C24.7,6.8,24.7,7,24.7,7c0,0,0,0.1,0,0.2c0,0.1,0,0.1,0,0.2c0,0,0,0,0,0.1c0,0,0,0,0,0.1c0,0,0,0.1-0.1,0c-0.1,0-0.1,0,0,0
		c0,0,0.1,0.1,0,0.2c0,0.1,0,0.1,0,0.2c0,0,0,0,0,0c0.1,0,0.1,0.1,0,0.1c-0.1,0-0.1,0.1-0.1,0.3c0,0,0,0.1-0.1,0.2
		c0,0,0-0.1-0.1-0.3c-0.1,0.1-0.1,0.2-0.1,0.3c0,0.1,0,0.1,0,0.2c0,0,0,0.1,0,0.2c0,0.1,0,0.2-0.1,0.2c0,0,0,0-0.1,0.1
		c0,0.1-0.1,0.1-0.1,0.1c0,0-0.1,0-0.1,0c0,0,0-0.1,0.1-0.1c0,0,0,0,0.1,0c0.1-0.1,0.1-0.1,0.1-0.1c0,0,0-0.1,0-0.3c0,0,0,0,0,0
		c0,0,0,0,0,0c0,0,0,0,0,0.1c0,0.1,0,0.1,0,0.1c0,0,0,0,0-0.1s0-0.1-0.1-0.1c0,0,0,0,0-0.1c0-0.3,0-0.5,0-0.5c0-0.1,0-0.2,0.1-0.3
		c0-0.1,0.1-0.2,0.1-0.5c0,0,0-0.1-0.1-0.1c-0.1,0.2-0.1,0.6-0.1,1.1c0,0.3,0,0.4,0,0.5c0,0.1,0,0.1,0,0.2c0,0.2,0,0.4,0,0.6
		c0,0.3,0,0.5,0,0.6c0,0.4,0,0.7,0,0.7c0,0.1,0,0.2,0,0.3c0,0.1,0,0.1,0,0.1c0,0,0,0,0-0.1c0-0.3,0-0.7,0-1.1c0-0.1,0-0.2,0-0.3
		c0-0.1,0-0.2,0-0.3c0-0.8,0-1.4,0-1.8c0-0.4,0-0.5,0-0.5c-0.1,0.1-0.1,0.3-0.1,0.5c0,0.5,0,0.7,0,0.7c0,0.5,0,0.7,0,0.7
		c0-0.1,0,0.2,0,1c0,0.2,0,0.4,0.1,0.4c0,0,0,0.1,0,0.2c0,0.1,0,0.4,0,0.7c0,0.2,0,0.3,0.1,0.2c0,0,0,0,0,0.1c0,0.1,0,0.1,0.1,0.1
		c0,0.1,0,0.2,0,0.2c0,0.1,0,0.2,0,0.3c0,0.1,0.1,0.1,0.1,0.1c0,0,0,0,0,0c-0.1,0.1-0.2,0.2-0.2,0.3c0,0-0.1-0.1-0.1-0.1
		c0-0.1,0-0.1,0-0.1c0,0.1,0,0.2,0,0.5c0,0,0,0,0.1,0c0.1,0,0.1,0,0.1,0.1c0,0.1,0,0.2,0,0.2c0.1,0,0.1-0.1,0.1-0.2
		c0-0.1,0.1-0.2,0.1-0.2c0.2,0,0.2,0,0.2,0.1c0,0,0,0,0.1,0c0.1,0.2,0.1,0.2,0.1,0.2c0.1-0.1,0.1-0.1,0-0.1c-0.1,0-0.1-0.1,0-0.2
		c0-0.1,0.1-0.3,0.2-0.6c0-0.1,0-0.1,0.1-0.1c0,0,0.1,0.1,0,0.1c0-0.1,0,0-0.1,0.1c0,0.1,0,0.2,0.1,0.2c0,0,0,0,0,0.1
		c-0.1,0.4-0.1,0.6-0.1,0.6c0,0.1-0.1,0.1-0.1,0c-0.1-0.1-0.1-0.1-0.2,0c-0.1,0.2,0,0.2,0.1,0.3c0.1,0,0.1,0,0.2,0.1l0,0
		c0-0.1,0.1-0.2,0.1-0.2c0,0,0.1,0.1,0.1,0.2c0,0,0,0.1,0,0.1c0,0,0,0.1,0,0.1c0,0,0.1-0.1,0.3-0.2c0.1-0.1,0.1-0.1,0.2-0.1
		c0,0,0.1,0,0.1-0.1c0.1-0.2,0.2-0.3,0.3-0.3c0,0,0.1,0,0.1-0.1c0.1-0.1,0.3-0.3,0.5-0.5c0.2-0.2,0.4-0.4,0.5-0.5
		c0-0.1,0.1-0.1,0.2-0.2c0.1,0,0.2-0.2,0.4-0.4c0.2-0.3,0.5-0.6,0.9-0.9c0.3-0.2,0.4-0.4,0.5-0.5c0.1-0.1,0.3-0.3,0.7-0.6
		c0.2-0.1,0.4-0.2,0.6-0.3c0.1,0,0.1,0,0.2-0.1c0.1-0.1,0.1-0.1,0.2-0.1c0,0,0.1,0,0.5,0c0.1,0,0.1,0,0.2,0.1c0,0-0.1,0-0.2,0
		c-0.1,0-0.1,0-0.2,0c0.1,0.2,0.2,0.3,0.1,0.4c0,0,0,0,0,0c0.1,0.1,0.1,0.2,0.1,0.5c0,0.1,0,0.1,0,0.1S30.9,10.1,31,10.1z M22.9,6.7
		C22.9,6.8,22.9,6.8,22.9,6.7c0.1,0.1,0.1,0,0.1,0c0,0,0-0.2,0-0.4c0,0-0.1,0-0.1,0C22.9,6.3,22.9,6.4,22.9,6.7z M22.9,10
		c0,0.1,0,0.1,0,0.2l0,0.7c0-0.1,0.1-0.2,0.1-0.4c0-0.1,0-0.3,0-0.8c0,0,0,0,0,0c0,0,0,0,0,0c0,0.1,0,0.2,0,0.2S22.9,10,22.9,10z
		 M22.9,8.7c-0.1,0-0.1,0.1-0.1,0.1c0,0.1,0,0.2,0,0.3c0,0.2,0,0.3,0,0.3c0,0.1,0,0.1,0,0.1c0,0,0-0.1,0-0.1c0-0.3,0-0.6,0-0.7
		C23,8.7,23,8.7,22.9,8.7z M23,11.8c0.1-0.2,0.1-0.4,0-0.6C22.9,11.3,23,11.5,23,11.8z M23.9,10.7C23.9,10.8,23.8,10.7,23.9,10.7
		c-0.1-0.1-0.1-0.1-0.1-0.1c0,0.1,0.1-0.2,0.2-0.9c0-0.1,0-0.1,0.1-0.1c0-0.1-0.1-0.1-0.1,0c0,0.1-0.1,0.1-0.1,0.1
		c-0.1,0-0.1-0.1,0-0.1c0.2-0.1,0.3-0.2,0.2-0.2c0.1,0,0.1,0,0.1-0.1c0,0,0.1-0.1,0.3-0.3c0,0,0.1,0,0.1,0c0,0,0,0.1,0,0.1
		c0,0-0.1,0.1-0.1,0.1c-0.1,0-0.1,0.1-0.1,0.1c0,0,0,0.1,0,0.2c0,0.1-0.1,0.1-0.1,0.2c0,0-0.1,0.1-0.1,0.1c0-0.1,0,0,0,0.3
		c0,0.1,0,0.2,0,0.2c0.1,0.1,0,0.2-0.1,0.3c0,0,0.1,0,0.2,0c0.1,0,0.1,0,0.2,0c0,0,0,0.1-0.1,0.1c0,0.1-0.1,0.1-0.1,0.1
		c0,0.2,0,0.3,0,0.4c0-0.1-0.1-0.1-0.1-0.2C24,10.8,24,10.8,23.9,10.7C24,10.7,23.9,10.7,23.9,10.7z M23.9,11.7c0-0.1,0-0.1-0.1-0.1
		c0-0.1,0-0.2,0-0.3c0.1-0.1,0.1-0.1,0.1,0c0,0.1,0.2,0.2,0.4,0.3c0,0,0.1,0,0.1,0c0,0,0.1,0,0.1,0c-0.1,0.2-0.2,0.3-0.3,0.3
		c-0.1,0-0.2,0.1-0.2,0.2c0,0.1,0,0.1,0,0.2c0,0,0,0-0.1-0.1c0,0,0,0,0,0C23.9,12,23.9,11.9,23.9,11.7z M24.3,7.3c0,0.3,0,0.6,0,0.7
		c0.1,0,0.2-0.1,0.2-0.2c0-0.4,0-0.5,0-0.5c0-0.1,0-0.1-0.1-0.1C24.3,7.2,24.3,7.2,24.3,7.3z M25.5,15.3
		C25.4,15.3,25.4,15.3,25.5,15.3c-0.1-0.2-0.1-0.2-0.1-0.2c0.1-0.1,0.1-0.1,0.1-0.1c0-0.1,0.1-0.1,0.1,0c0,0,0.1,0.1,0,0.1
		c0,0.1,0,0.1,0,0.2c0,0,0,0,0,0.1C25.6,15.4,25.6,15.4,25.5,15.3C25.5,15.3,25.5,15.3,25.5,15.3z M28.1,12.4c0-0.1,0.1-0.2,0.3-0.4
		c0,0.1,0.1,0.2,0.2,0.1c-0.1,0.2-0.1,0.3-0.1,0.4c0,0,0-0.1-0.2-0.2C28.2,12.4,28.2,12.4,28.1,12.4z M28.4,12L28.4,12L28.4,12z
		 M29,11.4c0,0.2,0,0.3,0.2,0.3C29,12,28.9,12.1,28.9,12c0,0.1-0.1,0.1-0.2,0c-0.1-0.1,0-0.1,0-0.1c0.1,0,0.1-0.1,0-0.1
		c0,0,0-0.1,0-0.1C28.9,11.5,28.9,11.5,29,11.4C28.9,11.4,29,11.4,29,11.4z"/>
	<path class="st0" d="M38.4,9.3c0,0,0,0.1,0,0.3c0,0.1,0,0.1,0,0.2c0,0,0,0.1,0,0.2c0,0.2,0,0.5-0.1,0.7c0,0.1-0.1,0.2-0.1,0.2
		c0,0.1,0,0.1,0,0.2c0,0,0,0,0,0c0,0,0,0,0,0.1c0,0,0,0.1,0,0.1c0,0.1-0.1,0.2-0.2,0.5c-0.1,0.2-0.1,0.3-0.2,0.5
		c-0.2,0.2-0.3,0.4-0.2,0.3c0,0-0.1,0.1-0.1,0.1c0,0.1-0.1,0.1-0.1,0.2c-0.1,0.1-0.2,0.2-0.3,0.4c-0.1,0.1-0.2,0.2-0.3,0.4
		c0,0-0.1,0.1-0.2,0.2c-0.1,0.1-0.1,0.1-0.2,0.2c0,0,0,0,0,0c0,0,0.1,0,0.1,0c0.2-0.2,0.3-0.3,0.4-0.4c0,0,0,0,0-0.1c0,0,0,0,0,0
		c0,0,0.1-0.1,0.1-0.1c0.1-0.1,0.1-0.1,0.2-0.1c0,0,0,0,0,0c0,0,0,0,0,0.1c0,0,0,0,0,0.1c0,0-0.1,0.1-0.1,0.2l0,0l0,0l0,0
		c0,0,0,0,0,0c0,0,0,0,0,0c-0.1,0.1-0.1,0.1-0.1,0.1c0,0,0,0.1,0.1,0.1c0-0.1,0-0.1,0.1-0.2c0.1-0.1,0.1-0.1,0-0.1
		c0,0,0.1-0.1,0.1-0.1c0,0,0.1,0,0.1,0c0,0,0.1,0.1,0,0.1c0,0,0,0,0,0.1c0,0,0,0,0,0c0,0-0.1,0-0.1,0C37.1,13.9,37,14,37,14L37,14
		c0,0-0.1,0.1-0.1,0.1c0,0-0.1,0-0.1,0c0-0.1-0.1-0.1-0.1,0l-0.2,0.2c-0.1,0.1-0.1,0.1-0.1,0.2c0,0,0,0,0,0.1c0,0.1-0.1,0.1-0.1,0.1
		c0,0,0,0-0.1,0c0,0-0.1,0-0.1,0c-0.1,0-0.1,0.1-0.1,0.1c-0.1,0.1-0.1,0.1-0.1,0.1c0,0,0.1,0,0.1,0c0,0,0.1,0,0.1,0c0,0,0,0,0,0
		c0,0,0,0,0,0c-0.1,0-0.1,0.1-0.2,0.2c0,0-0.1,0.1-0.1,0.1l0,0l0,0c-0.1,0-0.1,0.1-0.1,0.1c0,0,0,0-0.1,0l0,0l0,0l0,0c0,0,0,0,0,0
		c0,0,0,0-0.1,0c-0.1,0-0.1,0.1-0.1,0c0,0-0.1,0-0.1,0c0,0-0.1,0-0.1,0c-0.1,0-0.1,0.1-0.2,0.1c-0.1,0-0.2,0-0.3,0
		c-0.1,0-0.2,0-0.3,0.1c-0.1,0.1-0.2,0.1-0.3,0c0,0,0,0,0,0h0l0,0c0,0-0.1,0-0.1,0c-0.1,0-0.2,0-0.3,0c0,0-0.1,0-0.1,0
		c-0.2,0-0.4-0.1-0.6-0.2c-0.1,0-0.1-0.1-0.1-0.1c-0.1-0.1-0.3-0.2-0.5-0.4c-0.1-0.1-0.1-0.1-0.2-0.2c0,0,0-0.1,0-0.1
		c0.1,0,0.1,0,0-0.1c-0.1-0.1-0.1-0.1-0.2-0.2c-0.2-0.3-0.2-0.3-0.2-0.3c0-0.1-0.1-0.1-0.1-0.2c0,0,0-0.1,0-0.1c0,0,0-0.1,0-0.1
		c-0.1-0.2-0.1-0.4-0.2-0.5c0-0.1,0-0.2-0.1-0.4c0-0.2-0.1-0.3-0.1-0.4c0-0.2,0-0.3,0-0.3c0-0.2,0-0.5,0-0.8c0-0.3,0-0.5,0-0.8
		c0,0,0-0.1,0-0.1c0-0.1,0-0.1,0-0.1c0,0,0-0.1,0-0.1c0-0.1,0-0.1,0-0.1l0-0.2c0-0.1,0-0.1,0-0.3L31,9l0-0.1l0-0.1l0-0.2
		c0,0,0-0.1,0-0.1c0-0.1,0-0.2,0-0.3c0-0.1,0.1-0.1,0.1-0.2c0,0,0-0.1,0-0.1c0-0.1,0-0.1,0-0.1l-0.1,0.1c0,0,0,0,0,0c0,0,0,0,0-0.1
		c0,0,0,0,0-0.1l0-0.1c0-0.1,0-0.1,0-0.1c0.1-0.2,0.1-0.4,0.1-0.6c0,0,0-0.1,0.1-0.3c0-0.1,0.1-0.2,0.1-0.3l0,0c0,0,0,0,0-0.1
		c0,0,0,0,0-0.1c0,0,0-0.1,0-0.1c0.1-0.1,0.1-0.2,0.2-0.3l0.3,0.1c-0.1,0-0.1-0.1-0.2-0.1l0,0l0,0h0v0h-0.1c0,0,0,0,0,0c0,0,0,0,0,0
		c0,0,0,0,0,0c0.1-0.1,0.1,0,0.1,0c0,0,0,0,0.1,0c-0.1,0,0,0,0.2,0c0,0,0,0,0,0c0,0,0,0,0,0c0,0-0.1,0.1-0.1,0.1c0,0.1,0,0.1,0,0.1
		c0,0,0,0,0,0c0,0,0,0,0,0c0,0,0.1,0,0,0.1c0,0,0,0,0,0.1c0,0,0,0,0,0c0,0,0,0,0,0c0,0,0,0,0,0c0,0,0,0,0,0.1c0,0,0,0,0,0.1
		c0,0.1,0,0.1,0,0.1c-0.1,0.1-0.1,0.1,0,0.2l0,0c0,0,0,0,0,0.1c0,0,0,0,0,0c0,0,0,0,0,0c0,0,0,0,0,0c0,0,0,0,0,0.1c0,0,0,0,0,0.1
		c0,0,0,0.1-0.1,0.1c0,0,0,0.1,0,0.2c0,0.2,0,0.3,0,0.3c0,0,0,0,0,0.1c0,0,0,0.1,0,0.1c0,0-0.1,0.1-0.1,0.2c0,0,0,0,0,0.1
		c0,0,0,0.1,0,0.1l0,0.1c0,0.1,0,0.1-0.1,0.1c0,0,0-0.1,0-0.2c0,0,0,0,0-0.1c0,0,0-0.1,0-0.1c0,0,0,0,0-0.1c0,0,0,0,0,0c0,0,0,0,0,0
		c0,0,0,0,0,0.1c0,0.1,0,0.3-0.1,0.5c0,0.1,0,0.1,0,0.1c0,0,0,0,0,0c0.1,0,0.1,0,0.1,0c0,0.1,0,0.1,0,0.2c0,0,0,0,0,0
		c0-0.1,0-0.1,0-0.1c0,0-0.1,0-0.1,0c0,0,0,0,0,0.1c0,0,0,0,0,0l0,0.2c0,0,0,0.1,0,0.2c0,0,0,0,0,0.1c0,0,0,0,0,0c0,0,0,0,0,0v0.1
		c0,0.1,0,0.1,0,0.2c0,0,0,0.1,0,0.1c0,0-0.1,0.1-0.1,0.2c0,0,0,0.1,0,0.3c0,0.1,0,0.2,0,0.3c0,0.3,0,0.5,0,0.6c0,0,0,0.3,0,0.8
		c0,0.1,0,0.3,0.1,0.6c0,0,0,0,0,0.1c0,0,0,0.1,0,0.1c0.1,0,0.1,0.2,0.2,0.4c0,0,0,0.1,0.1,0.1c0,0,0.1,0,0.1,0.1
		c0.1,0.1,0.2,0.3,0.3,0.4c0,0,0.1,0.1,0.1,0.1c0.1,0,0.1,0.1,0.1,0.1c0,0,0,0,0.1,0c0,0,0.1,0,0.1,0c0,0.1,0.1,0.1,0.2,0.1
		c0-0.1,0-0.1,0.1-0.1c0.1,0,0.2,0,0.3,0c0,0,0,0-0.1,0.1c0,0,0,0.1,0,0.1c0.1,0,0.2,0.1,0.4,0.1h0c0,0,0.1,0,0.1,0c0,0,0,0,0.1,0
		c0.1,0,0.1,0,0.2,0c0,0,0.1,0,0.3-0.1c0.1,0,0.1,0,0.2,0c0,0,0,0,0.1,0c0,0,0,0,0,0c0,0,0,0,0,0c0,0,0,0,0,0c0,0,0,0,0,0
		c0.2-0.1,0.4-0.2,0.5-0.4c0.1-0.1,0.1-0.1,0.2,0c0.1,0,0.1,0,0.2,0c0,0,0.1-0.1,0.1-0.2c0.1-0.1,0.1-0.1,0.1-0.2
		c-0.1,0-0.1,0.1-0.1,0.1s-0.1,0.1-0.1,0.1c0,0,0,0,0,0c0,0,0,0-0.1,0c0,0,0,0,0,0c0-0.1,0-0.1,0-0.1c0,0,0.1-0.1,0.1-0.1
		c0,0,0.1-0.1,0.1-0.1c0,0,0,0,0.1,0c0,0,0.1,0,0.1,0c0,0,0,0.1,0,0.1c0.1-0.1,0.1-0.1,0.1-0.2c0,0,0-0.1,0-0.1c0,0,0-0.1,0-0.1
		c0,0,0,0,0,0c0-0.1,0.1-0.3,0.2-0.5c0,0,0,0,0,0c0,0,0,0,0,0c0,0.1,0,0.1,0,0.2c0,0,0,0,0,0c0,0,0,0,0,0c0,0,0-0.1,0-0.2
		c0-0.1,0-0.1,0-0.2c0,0,0-0.1,0-0.1c0,0,0.1-0.1,0.2-0.3c0,0,0,0,0-0.1c0,0,0,0,0,0c0,0,0,0,0,0c0,0,0,0.1,0,0.2c0,0.1,0,0.2,0,0.2
		c0,0,0,0,0,0c0,0,0,0,0,0c0-0.1,0.1-0.1,0.1-0.2c0.1-0.2,0.1-0.2,0.1-0.2c0-0.1,0-0.1,0-0.2c0,0-0.1-0.1-0.1-0.2c0,0,0-0.1,0-0.1
		c0-0.1,0.1-0.1,0.1,0c0.1,0.1,0.1,0.1,0,0.1c0,0,0.1,0,0.1,0c0,0,0,0,0-0.1c0.1-0.3,0.1-0.4,0.1-0.4c0,0,0,0,0,0c0,0,0,0,0,0
		c-0.1,0-0.1,0-0.1-0.1c0-0.1,0-0.1,0-0.2c0,0,0,0-0.1-0.1C37,9.6,36.9,9.5,37,9.4c0,0,0,0,0,0c0-0.1,0-0.1,0.1-0.1
		c0,0,0.1,0.1,0.1,0.1c0,0,0,0,0,0.1c0,0.1,0,0.1,0,0.1c0.1,0,0.1,0,0.1-0.1c0-0.2,0-0.3,0-0.5c0-0.1,0-0.2,0-0.3c0-0.1,0-0.1,0-0.1
		c0-0.1,0-0.2,0-0.3c0-0.1,0-0.2,0-0.3c0-0.1,0-0.2,0-0.3c0,0,0-0.2-0.1-0.4C37.1,7,37,6.9,37,6.9c0-0.2-0.1-0.3-0.1-0.3
		c0,0,0,0,0,0c0,0,0,0,0,0h0c0,0,0,0,0-0.1c0-0.1,0-0.2-0.1-0.3c0,0,0,0,0,0l0,0c-0.1-0.1-0.1-0.2-0.1-0.1c-0.1-0.1-0.2-0.2-0.3-0.3
		c0,0,0,0,0,0l0,0c0,0-0.1-0.1-0.2-0.2c0,0-0.1-0.1-0.2-0.1c-0.1,0-0.1,0-0.1-0.1c-0.1-0.1-0.1-0.2-0.3-0.2c-0.2,0-0.2,0-0.2,0
		c0,0,0.1,0.1,0.1,0.1c0.1,0,0.1,0.1,0.1,0.1c0,0,0,0,0,0c0,0,0,0-0.1,0c-0.1,0-0.1-0.1-0.2-0.1c0,0,0,0,0,0c0-0.1-0.1-0.1-0.1,0
		c0,0-0.1,0.1-0.1,0.1c0,0,0,0-0.1,0c0,0,0,0-0.1,0c-0.1,0-0.2,0-0.3,0.1c-0.1,0-0.1,0-0.1,0c0,0,0-0.1-0.1-0.1
		c-0.1,0-0.2,0-0.3,0.1c-0.1,0-0.1,0.1-0.2,0.1c0,0-0.1,0-0.1,0c0,0,0,0,0,0c0,0,0,0,0,0c0,0,0.1,0,0.1,0c0.1,0,0.1-0.1,0.2-0.1l0,0
		c0,0-0.1,0-0.2,0.1c-0.1,0-0.1,0.1-0.2,0.1c0,0-0.1,0-0.2,0.1c0,0,0,0-0.1,0c0,0,0,0,0-0.1c0,0,0.1-0.1,0.2-0.2
		C33.8,5.1,33.8,5,33.8,5c0,0-0.1,0-0.2,0.1c-0.1,0-0.2,0.1-0.5,0.2c-0.1,0-0.1,0.1-0.2,0.1c-0.2,0.1-0.3,0.2-0.4,0.2l-0.1,0.1
		c-0.1,0.1-0.1,0.1-0.1,0.1c0,0,0,0,0-0.1c0,0,0-0.1,0-0.1c0,0,0,0,0-0.1c0,0,0,0,0.1-0.1c0-0.1,0.1-0.1,0.1-0.2
		c-0.1,0-0.2,0.1-0.3,0.3c0-0.1,0.1-0.2,0.2-0.4C32.5,5.1,32.6,5,32.6,5c0.1-0.1,0.1-0.1,0.2-0.2c-0.1,0-0.1,0.1-0.2,0.1
		c0,0,0,0-0.1,0.1c0,0,0,0-0.1,0.1c0,0-0.1,0.1-0.1,0c0,0-0.1-0.1,0-0.1c0.1-0.1,0.1-0.1,0.2-0.2c0.1-0.1,0.2-0.1,0.2-0.2h0l0.1,0
		l0.1,0L33,4.5c0.1-0.1,0.2-0.1,0.3-0.2c0,0,0,0,0.1,0c0,0,0,0,0,0c0,0,0,0,0,0C33.1,4.3,33,4.3,33,4.4c0,0-0.1,0.1-0.1,0.1
		c0,0,0,0-0.1,0l-0.1,0l0,0c-0.1,0-0.1,0.1-0.2,0.1c0,0-0.1,0-0.1,0.1c0,0,0,0-0.1,0.1c-0.1,0.1-0.1,0.1-0.2,0.2
		c0,0-0.1,0.1-0.1,0.1c0,0,0,0-0.1,0c0,0,0,0,0-0.1c0.1-0.1,0.1-0.1,0.2-0.2c0,0,0.1-0.1,0.1-0.1l0.1,0l0.1-0.1c0,0,0.1-0.1,0.3-0.2
		c0,0,0-0.1,0.1-0.1c0,0,0.1-0.1,0.2-0.1c0.1,0,0.2-0.1,0.4-0.2C33.4,4.1,33.5,4,33.6,4c0.1,0,0.3-0.1,0.4-0.1c0,0,0.1,0,0.1,0
		l0.1,0h0l0.1,0c0.1,0,0.2,0,0.3,0c0.1,0,0.2,0,0.3,0c0,0,0.1,0,0.2,0c0,0,0.1,0,0.1,0c0,0,0.1,0,0.1,0c0.1,0,0.2,0,0.3,0l0,0
		c0.1,0,0.1,0,0.1,0c0,0,0,0,0,0c0,0,0.1,0,0.1,0l0,0c0,0.1,0.2,0.2,0.4,0.4c0,0,0.1,0,0.2,0.1c0,0,0,0,0,0c0,0,0,0,0-0.1
		c0,0,0,0-0.1-0.1c0,0-0.1-0.1-0.1-0.1c0,0,0,0,0-0.1c0,0,0,0,0,0c0.1,0,0.1,0,0.2,0.1c0.1,0.1,0.1,0.2,0.2,0.2
		c0,0.1,0.1,0.2,0.1,0.2C37,4.6,37,4.6,37.1,4.7l0.1,0.1c0,0,0,0.1,0.1,0.2c0.2,0.2,0.3,0.3,0.4,0.5l0,0c0,0,0.1,0.1,0.1,0.2
		c0,0.1,0.1,0.1,0.1,0.2c0,0.1,0.1,0.2,0.1,0.4v0l0,0l0,0.1l0,0.1c0,0.1,0,0.2,0.1,0.2c0.1,0.2,0.1,0.4,0.1,0.7l0,0.2
		c0,0.1,0,0.1,0,0.2l0,0.3c0,0.4,0.1,0.6,0.1,0.6S38.4,8.8,38.4,9.3z M31.1,10.3c0-0.3,0-0.5,0-0.6C31.1,10,31.1,10.2,31.1,10.3
		c0,0.1,0,0.2,0,0.3c0,0.1,0,0.2,0,0.3c0-0.1,0-0.2,0-0.3C31.1,10.4,31.1,10.3,31.1,10.3z M31.4,7.2C31.4,7.2,31.4,7.1,31.4,7.2
		C31.4,7.1,31.4,7.1,31.4,7.2C31.4,7.2,31.4,7.2,31.4,7.2C31.4,7.2,31.4,7.2,31.4,7.2z M31.5,6.6C31.5,6.6,31.5,6.6,31.5,6.6
		C31.5,6.6,31.5,6.6,31.5,6.6C31.5,6.6,31.5,6.7,31.5,6.6L31.5,6.6z M31.8,5.7L31.8,5.7C31.8,5.7,31.8,5.7,31.8,5.7
		C31.9,5.7,31.9,5.7,31.8,5.7C31.9,5.7,31.9,5.7,31.8,5.7z M31.9,7.5C31.9,7.6,31.9,7.6,31.9,7.5C31.9,7.6,31.9,7.6,31.9,7.5
		C32,7.5,31.9,7.5,31.9,7.5C31.9,7.5,31.9,7.5,31.9,7.5z M31.9,14.2C31.9,14.2,31.9,14.2,31.9,14.2L31.9,14.2
		C31.9,14.2,31.9,14.2,31.9,14.2C31.9,14.2,31.9,14.2,31.9,14.2z M32,7c0,0.1-0.1,0.2,0,0.3C32,7.2,32,7.1,32,7z M32.2,5.2
		C32.2,5.2,32.2,5.2,32.2,5.2c0,0.1,0,0.1-0.1,0.2C32.1,5.3,32.2,5.2,32.2,5.2z M32.3,15.1c0.1,0,0.1,0,0.2,0.1l0,0l0,0
		C32.3,15.2,32.3,15.2,32.3,15.1C32.2,15.1,32.2,15.1,32.3,15.1C32.2,15.1,32.3,15.1,32.3,15.1z M32.3,7C32.3,7,32.3,7,32.3,7
		C32.4,6.9,32.4,6.9,32.3,7C32.4,6.9,32.4,6.9,32.3,7C32.4,7,32.4,7,32.3,7L32.3,7L32.3,7z M32.8,5.9C32.8,5.9,32.8,5.9,32.8,5.9
		C32.9,5.9,32.9,5.9,32.8,5.9c0,0.1-0.1,0.2-0.1,0.2c0,0,0,0,0,0c0,0,0,0,0,0C32.7,6.1,32.7,6,32.8,5.9C32.8,5.9,32.8,5.9,32.8,5.9z
		 M32.8,13.4C32.8,13.4,32.8,13.3,32.8,13.4c0.1,0,0.1,0,0.2,0c0.1,0,0.1,0,0.1,0c0.1,0,0.1,0,0,0.1c0,0.1-0.1,0.1-0.1,0.1
		C33,13.5,32.9,13.4,32.8,13.4C32.9,13.4,32.8,13.4,32.8,13.4C32.8,13.4,32.8,13.4,32.8,13.4z M33.4,5.1C33.4,5.1,33.5,5,33.6,5v0
		C33.5,5,33.4,5.1,33.4,5.1L33.4,5.1z M33.5,6.7C33.5,6.7,33.5,6.7,33.5,6.7C33.5,6.7,33.5,6.7,33.5,6.7C33.5,6.7,33.5,6.7,33.5,6.7
		C33.5,6.7,33.5,6.7,33.5,6.7C33.5,6.7,33.5,6.7,33.5,6.7C33.5,6.7,33.5,6.7,33.5,6.7C33.5,6.8,33.6,6.8,33.5,6.7L33.5,6.7
		C33.5,6.8,33.5,6.8,33.5,6.7C33.5,6.7,33.5,6.7,33.5,6.7C33.5,6.7,33.5,6.7,33.5,6.7z M33.7,5.4C33.7,5.5,33.7,5.5,33.7,5.4
		C33.7,5.5,33.6,5.5,33.7,5.4L33.7,5.4C33.7,5.4,33.7,5.4,33.7,5.4z M33.7,3.8L33.7,3.8L33.7,3.8L33.7,3.8L33.7,3.8z M34.2,4.8
		C34.2,4.8,34.2,4.8,34.2,4.8C34.2,4.8,34.2,4.8,34.2,4.8C34.1,4.8,34.1,4.8,34.2,4.8C34.1,4.8,34.1,4.8,34.2,4.8
		C34.1,4.8,34.1,4.8,34.2,4.8z M34.1,3.7C34.1,3.7,34.1,3.7,34.1,3.7C34.1,3.7,34.1,3.7,34.1,3.7C34.1,3.7,34.2,3.7,34.1,3.7
		c0.1-0.1,0.1-0.1,0.1,0c0,0,0,0,0,0L34.1,3.7L34.1,3.7L34.1,3.7z M34.4,3.7C34.4,3.7,34.4,3.7,34.4,3.7C34.4,3.7,34.4,3.7,34.4,3.7
		c0.1-0.1,0.1-0.1,0.2-0.1c0.1,0,0.2-0.1,0.2-0.1c0,0,0.1,0,0.2,0c0.1,0,0.1,0,0.2,0c0.1,0,0.2,0,0.3,0c0.1,0,0.1,0,0.1,0.1
		c0,0-0.1,0-0.1,0c-0.1,0-0.2,0-0.3,0v0C35,3.7,34.8,3.7,34.4,3.7C34.5,3.7,34.5,3.7,34.4,3.7z M34.9,5.1
		C34.9,5.1,34.9,5.1,34.9,5.1C34.9,5,34.9,5,34.9,5.1c-0.1,0-0.2,0-0.3,0v0C34.7,5.1,34.8,5.1,34.9,5.1z M34.9,4.7
		c-0.1,0-0.2,0-0.2,0C34.7,4.7,34.8,4.7,34.9,4.7z M36.2,14.3C36.3,14.3,36.3,14.2,36.2,14.3C36.2,14.2,36.2,14.2,36.2,14.3
		c-0.1,0-0.1,0-0.2,0c-0.1,0-0.1,0.1-0.2,0.1c-0.1,0-0.1,0.1-0.2,0.1l-0.2,0.1l-0.2,0.1c-0.1,0-0.2,0.1-0.2,0.1
		c-0.1,0-0.1,0.1-0.1,0.1c-0.1,0,0,0,0.2-0.1c0.1,0,0.1,0,0.2-0.1l0.1,0l0.1,0l0,0l0,0l0,0h0c0,0,0,0,0.1,0c0,0,0.1-0.1,0.1-0.1
		c0.1-0.1,0.2-0.1,0.3-0.1C36.1,14.4,36.2,14.4,36.2,14.3z M35.1,3.2C35.1,3.2,35,3.2,35.1,3.2l-0.1,0C34.9,3.2,34.9,3.2,35.1,3.2
		C35,3.2,35.1,3.2,35.1,3.2z M35,6.1C35,6.2,35,6.2,35,6.1C35,6.2,35,6.2,35,6.1C34.9,6.2,34.9,6.2,35,6.1C34.9,6.1,35,6.1,35,6.1
		L35,6.1C35,6.1,35,6.1,35,6.1L35,6.1C35,6.1,35,6.1,35,6.1z M35.1,5C35.1,5,35.1,5,35.1,5C35.1,5,35.1,4.9,35.1,5
		C35.1,4.9,35.1,4.9,35.1,5C35,5,35,5,35.1,5z M35.7,4.9c0.1,0,0.2,0.1,0.3,0.1C35.8,4.9,35.8,4.9,35.7,4.9
		c-0.1-0.1-0.2-0.1-0.3-0.2c-0.1,0-0.1,0-0.2,0c0.1,0,0.2,0.1,0.2,0.1C35.5,4.8,35.6,4.8,35.7,4.9z M35.6,14.9
		C35.6,14.9,35.6,14.9,35.6,14.9L35.6,14.9C35.6,14.9,35.6,14.9,35.6,14.9C35.5,14.9,35.5,14.9,35.6,14.9
		C35.5,14.9,35.5,14.9,35.6,14.9L35.6,14.9z M36,4.9C36,4.9,36.1,4.9,36,4.9C36,4.8,36,4.8,36,4.9L36,4.9L36,4.9z M37.3,6.5
		c0,0,0,0.1,0.1,0.1C37.4,6.6,37.4,6.5,37.3,6.5L37.3,6.5L37.3,6.5L37.3,6.5c0-0.2,0-0.2-0.1-0.3c-0.1-0.1-0.1-0.2-0.2-0.3l0,0
		c-0.1-0.1-0.2-0.2-0.3-0.4h0c0,0,0,0,0,0.1c0.1,0.1,0.2,0.2,0.3,0.4l0,0c0,0,0.1,0.1,0.2,0.3c0,0,0,0.1,0,0.1c0,0,0,0,0,0
		s0-0.1-0.1-0.1C37,6,37,6,37,5.9c-0.1-0.1-0.1-0.2-0.2-0.2l0,0c-0.1-0.1-0.2-0.2-0.2-0.3l0,0c0,0,0,0-0.1-0.1
		c-0.1-0.1-0.2-0.2-0.3-0.2c-0.1,0-0.1,0-0.1,0c0,0,0,0,0,0.1c0.1,0.1,0.1,0.1,0.2,0.2c0,0.1,0.1,0.1,0.1,0.1c0,0,0,0,0.1,0
		c0.1,0.1,0.1,0.1,0.2,0.2c0,0.1,0.1,0.2,0.2,0.3h0v0c0.1,0,0.1,0.1,0.1,0.2c0,0.1,0,0.1,0.1,0.2l0,0.1v0l0,0c0,0.1,0,0.2,0.1,0.2
		c0.1,0.1,0.1,0.2,0.1,0.2c0,0,0-0.1,0-0.2c0-0.1,0-0.1-0.1-0.2c0,0,0,0,0,0c0,0,0,0,0,0c0,0,0,0,0,0C37.2,6.4,37.2,6.4,37.3,6.5
		C37.2,6.4,37.2,6.4,37.3,6.5L37.3,6.5L37.3,6.5L37.3,6.5z M36.3,6C36.3,6,36.3,6,36.3,6C36.2,5.9,36.2,5.9,36.3,6
		C36.3,5.9,36.3,5.9,36.3,6C36.3,5.9,36.3,6,36.3,6z M36.3,5.6L36.3,5.6C36.3,5.6,36.3,5.6,36.3,5.6C36.3,5.6,36.3,5.6,36.3,5.6z
		 M36.7,6.2L36.7,6.2l-0.2,0c0,0,0,0,0,0c0,0,0,0,0,0L36.7,6.2z M36.6,6.3C36.6,6.3,36.6,6.3,36.6,6.3L36.6,6.3L36.6,6.3L36.6,6.3
		L36.6,6.3C36.6,6.3,36.6,6.3,36.6,6.3c0.1,0.1,0.1,0.1,0.1,0.1c0,0,0,0-0.1,0C36.5,6.4,36.5,6.3,36.6,6.3
		C36.5,6.3,36.5,6.3,36.6,6.3L36.6,6.3C36.5,6.3,36.5,6.3,36.6,6.3C36.6,6.3,36.6,6.3,36.6,6.3C36.6,6.3,36.6,6.3,36.6,6.3z
		 M36.6,14.3C36.6,14.3,36.6,14.3,36.6,14.3C36.7,14.3,36.6,14.4,36.6,14.3C36.6,14.4,36.6,14.4,36.6,14.3
		C36.5,14.3,36.5,14.3,36.6,14.3z M36.8,7C36.8,7,36.8,7,36.8,7L36.8,7c-0.1-0.1-0.1-0.1-0.1-0.1c0,0,0,0,0.1,0
		C36.8,6.9,36.8,6.9,36.8,7C36.8,6.9,36.8,6.9,36.8,7z M36.9,10.2C36.9,10.2,36.9,10.2,36.9,10.2C37,10.2,37,10.2,36.9,10.2
		C37,10.3,36.9,10.3,36.9,10.2C36.9,10.3,36.9,10.3,36.9,10.2z M37,7.8C37,7.8,37,7.8,37,7.8C37.1,7.9,37.1,8,37,8c0,0,0,0,0,0
		C36.9,8,36.9,7.9,37,7.8L37,7.8L37,7.8z M37,8.3c0.1,0,0.1,0.1,0.1,0.2c0,0.1,0,0.1,0,0.2c0,0.1,0,0.1,0,0.2c0,0,0,0.1,0,0.1
		c0,0,0,0-0.1,0C36.9,8.7,36.9,8.5,37,8.3C37,8.3,37,8.3,37,8.3z M37.3,9.7L37.3,9.7C37.3,9.7,37.3,9.7,37.3,9.7
		C37.3,9.7,37.3,9.7,37.3,9.7L37.3,9.7C37.3,9.8,37.3,9.8,37.3,9.7L37.3,9.7z M37.5,7.8c0,0,0,0,0.1,0.1c0-0.1,0-0.2,0-0.3
		c0,0,0,0-0.1,0c0,0-0.1,0-0.1,0c0,0,0,0,0-0.1c0-0.1,0-0.2-0.1-0.3c0,0,0,0,0,0c0,0,0,0,0,0c0,0.1,0,0.1,0,0.1
		c0,0.2,0.1,0.3,0.1,0.4C37.4,7.7,37.4,7.8,37.5,7.8z M37.4,6.7C37.4,6.7,37.4,6.8,37.4,6.7c0,0.2,0.1,0.4,0.1,0.6l0,0
		c0-0.1,0-0.2,0-0.3C37.5,6.9,37.5,6.9,37.4,6.7C37.4,6.7,37.4,6.7,37.4,6.7z"/>
	<path class="st0" d="M49.3,3.4c0,0.1,0,0.2,0,0.2c0,0.1,0,0.1,0,0.1c0,0.1,0,0.2,0,0.5c0,0.1,0,0.2,0,0.3c0,0.1,0,0.2,0,0.3
		c-0.1,0.1-0.1,0.2,0,0.3c0,0,0,0,0,0.1c0,0,0,0.2,0,0.3c0,0.3,0,0.6-0.1,1C49,6.6,49,6.8,48.9,6.8c0,0,0,0.1,0,0.1
		c0,0.1,0,0.2,0,0.3c0,0,0,0.1,0,0.1c0,0.1,0,0.2-0.1,0.2c0,0-0.1,0,0,0.1c0,0.1,0,0.2,0,0.2c-0.1,0.1-0.1,0.1,0,0.2
		c0.1,0.1,0.1,0.2,0,0.3c-0.1,0.2-0.1,0.3-0.2,0.3c0,0,0,0,0,0.1c0,0,0,0.1,0,0.2c0,0.1,0,0.1,0,0.1c0,0.1,0,0.2-0.1,0.3
		c-0.1,0.1-0.1,0.2-0.1,0.3c0,0.1,0,0.2-0.1,0.3c0,0,0,0.1-0.1,0.2c0,0.1,0,0.1-0.1,0.2c0,0,0,0.1,0,0.1c0,0.1,0,0.1,0,0.2
		c-0.1,0.1-0.1,0.1-0.1,0.2c0,0,0,0.1,0,0.1c0,0.1-0.1,0.1-0.1,0.1c0,0,0,0-0.1,0c-0.1,0-0.1,0,0,0.1c0,0,0,0,0.1,0.1
		c0,0.1,0,0.1,0,0.2c0,0,0,0.1,0,0.1c0,0.1,0,0.2-0.1,0.3c0,0-0.1,0.1-0.1,0.2c0,0.2-0.1,0.3-0.1,0.4c-0.1,0.1-0.1,0.2,0,0.3
		c0,0,0,0.1,0,0.1c0,0-0.1,0-0.1,0c0,0,0,0-0.1,0.2c0,0.1,0,0.1,0,0.2c0,0.1,0,0.2,0,0.2c0,0.1,0,0.1,0,0.2c0,0.1,0,0.1,0,0.1
		c0,0.1,0,0.1-0.1,0.1c0,0,0,0,0,0.1c0,0.1,0,0.2,0,0.3c-0.1,0.4-0.1,0.5-0.1,0.5c0,0.1-0.1,0.1-0.1,0.2c-0.1,0-0.1,0.1-0.1,0.2
		c0,0,0,0.1,0,0.3c0,0,0,0.1,0,0.2c0,0.1,0,0.1,0,0.1c-0.1,0-0.1,0.1-0.1,0.2c0,0.1,0,0.1,0,0.1c0,0.1-0.1,0.1-0.1,0.1l-0.1,0
		c-0.1,0.1-0.2,0.1-0.4,0c-0.1-0.1-0.2-0.1-0.2-0.1c-0.1,0-0.2,0-0.2-0.1c-0.1-0.1-0.1-0.1-0.2-0.1c0,0-0.1,0-0.1,0
		c-0.1,0-0.2,0-0.2-0.1c0-0.1-0.1-0.1-0.1-0.1c-0.1,0-0.1,0-0.2-0.1c-0.1-0.1-0.1-0.3-0.2-0.5c0-0.2-0.1-0.5-0.2-0.9
		c0,0,0-0.1-0.1-0.1c-0.2,0.5-0.3,0.7-0.3,0.8c0,0,0,0.1,0,0.1c-0.1,0.1-0.1,0.2-0.1,0.3c0,0,0,0.1,0,0.2c0,0.1,0,0.1,0,0.2
		c0,0,0,0.1,0,0.1c0,0,0,0.1,0,0.1c0,0.1,0,0.2,0,0.3c0,0,0,0.1,0,0.1c0,0.1,0,0.1-0.1,0.1c0,0-0.1,0.1-0.1,0.1c0,0,0,0-0.1,0.1
		c-0.1,0-0.2,0.1-0.1,0.2c0,0.3,0,0.4,0,0.4c0,0.1-0.1,0.3-0.2,0.5c0,0-0.1,0.1-0.2,0.1c-0.1,0-0.2,0-0.2-0.1v0c0-0.1,0-0.2,0-0.2
		c0,0-0.1,0-0.2,0c-0.1,0-0.2,0-0.3,0c-0.1,0-0.2,0-0.2,0.1c0,0.1-0.1,0.1-0.2,0c-0.1,0-0.1,0-0.2-0.1c-0.2-0.2-0.2-0.3-0.3-0.3
		c-0.1-0.2-0.3-0.4-0.4-0.5c0,0-0.1-0.1-0.1-0.2l0-0.1l0,0c-0.1,0-0.1,0-0.1,0c-0.1-0.1-0.1-0.1-0.1-0.2c0,0,0-0.2-0.1-0.3
		c0,0,0-0.1,0-0.1c0.1,0,0.1-0.1,0.1-0.2c0-0.1-0.1-0.1-0.1-0.2c0,0,0,0,0,0c0,0,0,0,0,0c0,0,0,0,0,0c0,0,0,0,0,0h0v0c0,0,0,0,0,0
		c0,0.1,0,0.1,0,0.1c-0.1,0.1-0.1,0-0.1-0.1c-0.1-0.5-0.2-0.8-0.2-0.9c0,0,0-0.1,0.1-0.1c0,0,0,0,0,0c0-0.1,0-0.1,0,0
		c0-0.1,0-0.2,0-0.2c0,0,0-0.1,0-0.1c0-0.1-0.1-0.1-0.1-0.3c0-0.1-0.1-0.2-0.1-0.3c0,0,0,0,0,0.1c0,0,0,0,0,0c0,0,0,0,0,0
		c0,0,0,0,0-0.1c0-0.1,0-0.2,0-0.4c0,0,0-0.1,0-0.1c0.1-0.1,0-0.1,0-0.2c-0.1,0-0.1-0.1,0-0.2c0,0,0,0,0,0c0,0,0,0,0,0
		c0.1-0.1,0-0.1,0-0.1c-0.1,0-0.1,0-0.1-0.1c-0.1-0.3-0.1-0.6-0.1-0.7c0,0-0.1-0.2-0.2-0.5c0-0.2-0.1-0.3-0.1-0.3c0,0,0-0.1,0-0.1
		c0-0.1-0.1-0.2-0.1-0.3c0-0.1-0.1-0.2-0.1-0.3c0,0,0-0.1-0.1-0.3c-0.2-0.6-0.3-1-0.3-1.1c-0.1-0.3-0.2-0.5-0.2-0.6
		c0-0.1-0.1-0.3,0-0.3c0,0,0-0.1,0-0.2c0-0.2,0-0.3,0-0.4c0,0,0-0.1,0.1-0.2c0-0.1,0.1-0.1,0.1-0.1c0,0,0.1,0,0.1-0.1
		c0-0.2,0.1-0.3,0.1-0.3c0,0,0-0.1-0.1-0.1c0,0,0,0,0-0.1c0,0,0,0,0,0c0.1,0,0.1,0,0.2-0.1c0,0,0,0,0,0c0.1,0,0.1,0,0.1,0
		c0.1,0,0.1,0.1,0.1,0.1c0,0,0,0.1,0,0.1c0,0.1,0,0.1,0,0.1c0,0,0,0.1,0,0.1c0.1,0,0.1,0,0.1,0c0.1-0.2,0.1-0.3,0.1-0.4
		c0,0,0-0.1,0-0.1c0-0.1,0-0.2,0.1-0.3c0,0,0.1-0.1,0.2-0.2c0.1,0.1,0.1,0.2,0.2,0.2c0.1,0,0.1,0.1,0.1,0.1c0,0.1,0,0.1,0,0.1
		c-0.1,0-0.1,0-0.1,0.1c0,0.1,0,0.1,0,0.2c0,0,0,0,0,0c0,0,0,0,0,0c0,0,0,0,0,0c0-0.1,0.1-0.1,0.1-0.1C40,6.2,40,6.3,40,6.3
		c0,0.1,0,0.2,0,0.3c0.1,0.1,0.1,0.3,0.1,0.4c0,0.4,0.1,0.7,0.3,1.1c0.3,0.7,0.5,1.2,0.6,1.4c0.2,0.5,0.3,1,0.4,1.3
		c0.2,0.7,0.3,1.1,0.3,1.2c0.1,0.4,0.2,0.8,0.3,1.1c0,0.1,0,0.1,0,0.1c0,0.1,0,0.2,0.1,0.5c0,0,0,0.1,0,0.1c0,0,0,0.1,0,0.1
		c0,0,0,0.1,0.1,0.2c0,0,0,0,0,0c0,0,0,0,0,0c0-0.1,0-0.3,0.1-0.5c0,0,0,0,0-0.2c0-0.1,0-0.1,0-0.1c0.1-0.1,0.2-0.3,0.3-0.6
		c0,0.1,0.1-0.1,0.2-0.4c0,0,0-0.1,0-0.2c0-0.1,0-0.2,0.1-0.2c0,0,0-0.1,0-0.1c0-0.1,0-0.2,0.1-0.2c0,0,0,0,0-0.1l0-0.1
		c0,0.1,0.1-0.2,0.4-1c0,0,0-0.1,0.1-0.2c0.1-0.2,0.3-0.3,0.5-0.2c0,0,0.1,0,0.1,0c0.1,0,0.2,0,0.2,0c0,0,0-0.1,0-0.1
		c0.1-0.1,0.1-0.1,0.1-0.1c0.1,0,0.2,0.1,0.2,0.2c0,0.1,0,0.2,0,0.2c0,0.1,0,0.2,0,0.3c0.1,0.4,0.2,0.5,0.2,0.5c0,0,0,0,0,0
		c0,0,0,0-0.1,0c0,0,0,0-0.1-0.1c0,0,0,0,0,0.1c0,0.1,0.1,0.4,0.3,0.9c0.1,0.3,0.2,0.5,0.2,0.6c0,0.1,0,0.1,0,0.1c0,0,0.1,0,0.1-0.1
		c0,0,0-0.1,0-0.1c0-0.1,0-0.1,0-0.2c0.1-0.1,0.2-0.3,0.2-0.6c0-0.1,0-0.2,0.1-0.3c0,0,0.1-0.1,0.1-0.2c0-0.1,0-0.1,0-0.2
		c0-0.1,0-0.2,0.1-0.3c0.2-0.3,0.2-0.5,0.2-0.6c0,0,0-0.1,0-0.2c0-0.1,0-0.2,0-0.2c0,0,0,0,0.1-0.1c0.1-0.1,0.1-0.1,0-0.2
		c-0.1-0.1,0-0.2,0-0.3c0.1-0.1,0.2-0.2,0.1-0.3c0,0,0-0.1,0-0.1c0.1-0.1,0.1-0.1,0-0.2c0,0,0,0,0-0.1c0-0.3,0-0.3,0-0.3
		c0,0,0,0,0,0c0,0,0.1,0,0.1,0c0.1,0,0.1,0,0.1,0c0-0.1,0-0.1,0-0.1C47,7.8,47,7.8,47,7.7c0,0,0,0,0-0.1c0-0.2,0-0.3,0.2-0.4
		c0,0,0,0,0-0.1l0-0.1c0-0.1,0-0.1,0-0.1c0.1,0,0.1-0.1,0-0.1c0,0-0.1-0.1,0-0.1c0,0,0-0.1,0.1-0.3c0-0.1,0.1-0.2,0.1-0.2
		c0,0,0,0,0.1-0.1c0,0,0-0.1,0.1-0.1c-0.1,0-0.2-0.1-0.2-0.2c0,0,0-0.1,0-0.1c-0.1-0.1-0.1-0.1,0-0.2l0,0c0.2-0.1,0.2-0.3,0.3-0.6
		c0-0.1,0-0.2,0.1-0.2c0,0,0,0,0-0.1c0,0,0-0.1,0-0.1c0.1-0.2,0.1-0.3,0.1-0.5c0,0.1,0-0.1,0.1-0.4c0,0,0-0.1,0.1-0.1
		c0,0,0.1,0,0.1,0c0,0,0.1,0,0.1,0c0.1-0.1,0.2-0.1,0.3,0h0.1c0.1,0,0.2,0.1,0.3,0.2c0,0,0,0,0,0c0,0,0,0,0,0c0,0,0,0,0,0
		C48.9,3.6,49,3.5,49.3,3.4C49.3,3.3,49.3,3.3,49.3,3.4C49.3,3.3,49.3,3.3,49.3,3.4z M40.1,13.7L40.1,13.7c0,0,0.1,0.1,0,0.1
		c0,0,0,0,0,0c0,0,0,0,0,0C40.1,13.8,40.1,13.8,40.1,13.7C40.1,13.8,40.1,13.7,40.1,13.7C40.1,13.7,40.1,13.7,40.1,13.7z M40.3,14.4
		C40.3,14.4,40.3,14.4,40.3,14.4C40.3,14.4,40.3,14.4,40.3,14.4C40.3,14.4,40.3,14.4,40.3,14.4C40.3,14.4,40.3,14.4,40.3,14.4z
		 M40.3,15.6c0,0,0,0,0.1,0.2c0,0,0,0.1,0.1,0.2C40.4,15.8,40.3,15.7,40.3,15.6z M40.3,14.6C40.3,14.6,40.3,14.6,40.3,14.6
		C40.3,14.6,40.3,14.6,40.3,14.6z M40.5,15.1c0-0.1-0.1-0.1-0.1-0.2C40.4,14.9,40.4,15,40.5,15.1z M40.5,14.9
		C40.5,14.9,40.5,14.9,40.5,14.9C40.5,14.9,40.5,14.9,40.5,14.9z M45.3,10.9c-0.1,0-0.1-0.1-0.1-0.2l0,0h0
		C45.3,10.8,45.3,10.9,45.3,10.9z M45.8,12.5C45.8,12.5,45.8,12.5,45.8,12.5C45.8,12.5,45.8,12.5,45.8,12.5z M45.9,16.2
		C45.9,16.2,46,16.2,45.9,16.2c0,0.1,0,0.1,0,0.1C45.9,16.3,45.9,16.3,45.9,16.2C45.9,16.2,45.9,16.2,45.9,16.2z M47.2,11.8
		c0-0.1,0.1-0.2,0.1-0.2l0,0l0,0C47.2,11.6,47.1,11.7,47.2,11.8C47.2,11.8,47.2,11.8,47.2,11.8C47.2,11.8,47.2,11.8,47.2,11.8z
		 M48.8,4.2C48.8,4.2,48.8,4.1,48.8,4.2L48.8,4.2L48.8,4.2C48.8,4.1,48.8,4.1,48.8,4.2C48.8,4.1,48.8,4.1,48.8,4.2L48.8,4.2z
		 M49.1,4.4C49.1,4.4,49.1,4.3,49.1,4.4c0-0.1,0-0.1,0-0.1c0,0,0,0,0,0C49,4.2,49,4.3,49.1,4.4C49,4.3,49,4.3,49.1,4.4
		C49,4.4,49,4.4,49.1,4.4z M49,4.1c0-0.1,0-0.2,0-0.3C49,3.9,49.1,4,49,4.1z"/>
	<path class="st0" d="M56.1,4.1c0,0,0,0.1,0,0.2c0,0.1,0,0.2,0,0.2c0,0,0,0.1-0.1,0.1c-0.1,0-0.2,0.1-0.2,0.2c0,0,0,0,0,0.1
		c0,0,0,0.1,0,0.1c0,0.1,0,0.1,0.1,0.1l0,0c0,0-0.1,0.1-0.1,0.1c-0.1,0-0.1,0.1-0.1,0.2c0,0,0,0.1-0.1,0.5c0,0.1-0.1,0.1-0.1,0.2
		c-0.1,0-0.1,0.1-0.2,0C55.1,6,55,6,54.8,6c0,0-0.2,0-0.6,0c-0.1,0-0.1,0-0.1,0c-0.2,0-0.5,0-1,0.1c0,0-0.1,0-0.2,0
		c-0.1,0-0.1,0-0.2,0c-0.3,0.1-0.5,0.1-0.6,0.2C52.1,6.4,52,6.4,52,6.4c-0.1,0-0.2,0-0.5,0.2c-0.1,0-0.1,0.1-0.1,0.1
		c0,0.2,0,0.5-0.1,0.8c0,0.3-0.1,0.5-0.1,0.5c0,0,0,0.1,0,0.1c0,0,0,0.4-0.1,1.2c0,0.2,0,0.3,0,0.3c0,0.1,0,0.1,0.1,0.1
		c0.4-0.1,0.8-0.1,1.1-0.2c0.2-0.1,0.3-0.1,0.5,0c0,0,0.1,0,0.3,0c0.1,0,0.1,0,0.1,0c0,0,0,0.1-0.1,0.1c0,0,0,0,0,0
		c0.1,0,0.1,0.1,0.1,0.3c0,0.1,0,0.1,0,0.1c0,0.1,0,0.1,0,0.1c0,0,0.1,0.1,0.1,0.2c0,0.1,0,0.1,0,0.1c0,0,0,0.1,0,0.1
		c-0.1,0.1-0.1,0.1,0,0.2c0,0.1,0.1,0.1,0.2,0.1c0,0,0.1,0,0.1,0c-0.1,0-0.1,0.1-0.2,0.1c-0.1,0-0.1,0.1-0.3,0.1
		c-0.1,0.1-0.2,0.1-0.3,0.1c-0.1,0-0.3,0.1-0.7,0.3c-0.1,0.1-0.3,0.1-0.3,0.1c-0.1,0-0.1,0-0.2,0c-0.1,0.1-0.2,0.1-0.3,0.1
		c-0.1,0-0.1,0.1-0.1,0.2C51,12.6,51,13,51,13c0,0.1,0,0.2,0,0.4c0,0.2,0,0.3,0,0.4c0,0.1,0,0.3,0,0.5c0,0.1,0,0.2,0.1,0.2
		c0,0,0,0,0,0c0,0.1,0,0.1,0.1,0.2c0.1,0.1,0.1,0.1,0.2,0.1c0.7-0.1,1.2-0.3,1.6-0.5c0.1,0,0.2-0.1,0.2,0c0,0,0.1,0,0.1,0
		c0.1-0.1,0.3-0.1,0.4-0.2c0,0,0.1,0,0.2,0c0.1,0,0.2,0,0.2,0c0,0,0,0.1,0,0.1c0,0,0,0,0,0l0,0c0.2-0.1,0.3-0.1,0.4-0.1
		c0,0,0,0,0.1-0.1c0,0-0.1,0-0.1,0c0,0-0.1,0-0.1,0c0,0,0,0,0-0.1c0,0,0-0.1,0-0.1c0,0,0,0-0.1,0c0-0.1,0-0.1,0.1-0.3c0,0,0,0,0,0
		c0,0,0.1,0,0.1,0c0.1-0.1,0.1-0.1,0.3-0.1c0-0.1,0-0.2,0.1-0.2c0,0,0.1,0,0.2,0.1c0,0,0,0-0.1,0c-0.1,0-0.1,0-0.1,0
		c0.1,0.1,0.1,0.1,0.2,0.1l0.1,0.1c0.1,0,0.1,0.1,0,0.2c0,0.1,0,0.1,0.1,0.1c0,0,0.2,0,0.5,0.1c0.1,0,0.1,0.1,0.1,0.2
		c0,0,0,0.1,0,0.1c0,0.1,0,0.1,0,0.1c0,0.1-0.1,0.1-0.1,0c0-0.1-0.1-0.1-0.1-0.2c0,0.1-0.1,0.1-0.1,0.2l0,0c0,0,0,0,0.1,0
		c0,0,0,0,0,0.1c0,0,0,0-0.1,0.1c0,0,0,0,0.1,0c0,0,0.1,0,0.1,0c0,0.1-0.1,0.1-0.1,0.1c0,0-0.1,0-0.1,0c0,0-0.1,0-0.1,0
		c-0.1,0-0.2,0-0.2,0.1c0,0-0.1,0-0.1,0c-0.1,0-0.1,0-0.1,0.1c0,0,0,0,0,0c0,0,0,0,0,0c0,0,0,0,0,0c0,0,0.1,0,0.1,0
		c-0.1,0-0.2,0.1-0.5,0.2c0,0,0-0.1,0-0.1c0,0,0,0,0-0.1c-0.1,0-0.2,0-0.2,0c0,0-0.2,0-0.4,0.1c-0.3,0.1-0.6,0.2-0.7,0.2
		c0,0-0.1,0-0.1,0c0,0-0.1,0-0.1,0c0,0-0.1,0.1-0.2,0.1c-0.1,0-0.1,0-0.2,0c-0.1,0-0.1,0-0.2,0c-0.1,0-0.2,0-0.3,0.1
		c-0.2,0.1-0.3,0.1-0.4,0c0,0-0.1,0-0.1,0.1c0,0.1-0.1,0.1-0.1,0.1c-0.1,0-0.1,0-0.2,0c-0.1,0.1-0.1,0.1-0.2,0.1c0,0,0,0-0.1,0
		c-0.2,0.1-0.3,0.1-0.3,0.1c0,0,0,0-0.1,0c0,0,0,0.1,0,0.1c0,0,0.1,0,0.1,0c0,0,0,0,0,0c0,0,0,0,0,0c0.1,0,0.1,0,0.1,0
		c0,0,0,0-0.1,0.1c-0.1,0.1-0.2,0.1-0.3,0.2c0,0.1-0.1,0.1-0.1,0.2c-0.1,0-0.1,0.1-0.1,0.1c0,0,0.1,0,0.2,0c0.1,0,0.1-0.1,0.2,0l0,0
		c-0.1,0.1-0.3,0.2-0.4,0.3c0,0,0,0,0,0c0,0,0,0,0,0c0,0-0.2,0.1-0.5,0.3c-0.1,0.1-0.2,0.1-0.2,0.1c-0.1,0-0.1,0-0.1-0.1
		c0-0.1-0.1-0.1-0.1,0c0,0-0.1,0-0.1,0c0,0,0-0.1,0-0.1c0-0.1,0-0.1,0.1-0.2c0-0.1,0-0.1,0-0.1c0,0,0,0.1-0.2,0.2c0,0,0,0,0,0
		c0,0,0,0,0,0c0,0,0,0.1,0,0.1c0,0.1,0,0.1-0.1,0.1c0,0-0.1,0-0.2,0c0,0,0,0,0.1-0.1c0-0.1,0-0.1,0-0.2c0,0,0,0-0.1,0.1
		c0,0.1-0.1,0.1-0.2,0.1c-0.1,0-0.1,0-0.1-0.1c0,0,0,0,0-0.1c0,0,0,0,0-0.1c0,0,0,0-0.1,0c0,0-0.1,0-0.1-0.1c0-0.1,0-0.2,0-0.2
		c0-0.1,0.1-0.1,0.1-0.2c0,0,0,0,0-0.1c0,0,0.1,0,0.1,0l0,0c0,0,0,0-0.1,0c0,0-0.1,0-0.1,0c0-0.1,0-0.2,0.1-0.2
		c0.1-0.1,0.2-0.2,0.3-0.3c0.1,0,0.1-0.1,0.1-0.2c0.1-0.2,0.2-0.4,0.2-0.6c0,0,0-0.1,0-0.2c0-0.1,0-0.1,0-0.1c0-0.1,0-0.2-0.1-0.2
		c0,0,0-0.1,0-0.2c0,0,0,0,0-0.1c0,0,0,0,0-0.1c0-0.1,0-0.1,0-0.1c0,0,0,0,0,0c0,0,0,0,0-0.1c0.1-0.1,0.1-0.2,0.1-0.4
		c0-0.1,0-0.3,0-0.5c0-0.1,0-0.3,0.1-0.6c0-0.3,0.1-0.5,0.1-0.6c0-0.2,0-0.3-0.1-0.4l-0.1-0.3c0-0.1,0-0.1,0.1-0.1
		c0.1,0,0.2,0,0.2-0.1l-0.1-0.1c-0.1-0.1-0.1-0.1,0-0.3c0-0.1,0.1-0.1,0.1-0.1c0,0,0-0.1-0.1-0.1l0,0c0,0,0,0,0.1-0.1c0,0,0,0,0-0.1
		c0-0.1,0-0.1,0.1-0.1c0.1,0,0.1-0.1,0.1-0.2c0-0.4,0.1-0.7,0.1-0.8c0-0.1,0.1-0.3,0.1-0.5c0-0.2,0-0.4,0.1-0.5c0,0,0-0.1,0-0.1
		c0-0.1,0-0.2,0-0.3C50,7.8,50,7.5,50.1,7c0,0,0-0.1,0-0.2c0-0.1,0-0.1,0-0.2c0-0.1,0-0.1-0.1-0.2c-0.1,0-0.2,0-0.2,0
		c0,0-0.2,0-0.5,0c-0.1,0-0.1,0-0.1-0.1c0-0.1,0-0.1,0-0.2c0,0,0,0,0-0.1c0.1-0.1,0.1-0.3,0.2-0.7c0-0.2,0.1-0.4,0.3-0.6
		c0.1,0,0.1-0.1,0.2-0.1c0.1-0.1,0.2-0.1,0.3-0.1c0.1-0.1,0.1-0.1,0.2-0.1c0,0,0.1,0,0.2,0c0.1,0,0.1,0,0.1-0.1c0,0,0-0.1,0-0.1
		c0-0.1,0-0.1,0-0.1c0,0,0,0,0.1,0c0,0,0,0,0,0c0-0.1,0-0.1,0.1-0.2C50.9,4,51,4,51,4c0,0,0,0,0.1,0c0,0,0.1,0.1,0.1,0.1
		c0,0,0-0.1,0-0.1c0-0.1,0-0.1,0.1-0.1c0,0,0,0,0.1,0c0,0,0,0,0.1,0c0,0,0,0,0,0.1c0,0,0,0.1,0,0.1c0,0,0,0,0,0c0,0,0,0,0,0.1
		c0,0.1,0,0.1,0.1,0.1c0,0,0.1,0,0.2,0c0.9-0.2,1.4-0.3,1.5-0.3c0.2,0,0.6-0.1,1.2-0.2c0.4-0.1,0.6-0.1,0.8-0.1c0.2,0,0.3,0,0.4,0.1
		C55.8,3.8,56,3.9,56,3.9S56,4,56.1,4.1z M49.2,15.7C49.2,15.7,49.2,15.7,49.2,15.7c0,0.1-0.1,0.1-0.2,0.2c-0.1,0-0.1,0.1-0.2,0
		C48.9,15.8,49,15.7,49.2,15.7z M49.7,14.5C49.7,14.5,49.7,14.5,49.7,14.5C49.6,14.4,49.6,14.4,49.7,14.5L49.6,15
		c0-0.1,0.1-0.2,0-0.2C49.6,14.6,49.6,14.6,49.7,14.5z M49.7,13.9c0-0.2,0-0.3-0.1-0.4c0,0.1,0,0.3,0,0.5c0,0,0,0.1,0,0.2L49.7,13.9
		z M50,9.9c0.1-0.8,0.2-1.2,0.1-1.4C50,9.1,50,9.5,50,9.6C49.9,9.7,50,9.8,50,9.9z M50.3,7.1C50.3,7.1,50.3,7.1,50.3,7.1
		c-0.1,0.5-0.2,0.9-0.2,1.2c0,0,0.1-0.1,0.1-0.1C50.2,7.9,50.3,7.5,50.3,7.1z M53.9,15.6c0,0,0.1,0,0.3-0.1c0,0.1-0.1,0.1-0.1,0.1
		C54,15.6,54,15.6,53.9,15.6C53.9,15.6,53.9,15.6,53.9,15.6z M55.2,15.1C55.3,15.1,55.3,15.1,55.2,15.1c0,0.1,0,0.1-0.1,0.1
		c-0.1,0-0.2,0-0.2,0.1c0,0,0.1,0,0.1,0c0,0,0.1,0,0.1,0l0,0c-0.1,0.1-0.3,0.1-0.5,0.1c0,0-0.1,0-0.1,0c0,0,0-0.1,0.1-0.1
		c0.1,0,0.1,0,0.1-0.1c0,0,0,0,0,0c0,0,0,0,0,0c0,0,0,0,0,0c0.1,0,0.1,0,0.3-0.1C55.1,15.1,55.2,15.1,55.2,15.1z M54.9,13.9
		c0,0-0.1,0-0.3-0.2c0,0,0,0.1,0.1,0.1c0,0,0,0,0,0.1c0,0.1,0,0.1,0,0.1C54.8,14,54.8,14,54.9,13.9C54.9,13.9,55,13.9,54.9,13.9z"/>
	<path class="st0" d="M63.2,4.1c0,0,0,0.1,0,0.2c0,0.1,0,0.2,0,0.2c0,0,0,0.1-0.1,0.1C63,4.6,63,4.7,63,4.8c0,0,0,0,0,0.1
		c0,0,0,0.1,0,0.1c0,0.1,0,0.1,0.1,0.1l0,0c0,0-0.1,0.1-0.1,0.1c-0.1,0-0.1,0.1-0.1,0.2c0,0,0,0.1-0.1,0.5c0,0.1-0.1,0.1-0.1,0.2
		c-0.1,0-0.1,0.1-0.2,0C62.3,6,62.1,6,61.9,6c0,0-0.2,0-0.6,0c-0.1,0-0.1,0-0.1,0c-0.2,0-0.5,0-1,0.1c0,0-0.1,0-0.2,0
		c-0.1,0-0.1,0-0.2,0c-0.3,0.1-0.5,0.1-0.6,0.2c-0.1,0.1-0.1,0.1-0.2,0.1c-0.1,0-0.2,0-0.5,0.2c-0.1,0-0.1,0.1-0.1,0.1
		c0,0.2,0,0.5-0.1,0.8c0,0.3-0.1,0.5-0.1,0.5c0,0,0,0.1,0,0.1c0,0,0,0.4-0.1,1.2c0,0.2,0,0.3,0,0.3c0,0.1,0,0.1,0.1,0.1
		c0.4-0.1,0.8-0.1,1.1-0.2c0.2-0.1,0.3-0.1,0.5,0c0,0,0.1,0,0.3,0c0.1,0,0.1,0,0.1,0c0,0,0,0.1-0.1,0.1c0,0,0,0,0,0
		c0.1,0,0.1,0.1,0.1,0.3c0,0.1,0,0.1,0,0.1c0,0.1,0,0.1,0,0.1c0,0,0.1,0.1,0.1,0.2c0,0.1,0,0.1,0,0.1c0,0,0,0.1,0,0.1
		c-0.1,0.1-0.1,0.1,0,0.2c0,0.1,0.1,0.1,0.2,0.1c0,0,0.1,0,0.1,0c-0.1,0-0.1,0.1-0.2,0.1c-0.1,0-0.1,0.1-0.3,0.1
		c-0.1,0.1-0.2,0.1-0.3,0.1c-0.1,0-0.3,0.1-0.7,0.3c-0.1,0.1-0.3,0.1-0.3,0.1c-0.1,0-0.1,0-0.2,0c-0.1,0.1-0.2,0.1-0.3,0.1
		c-0.1,0-0.1,0.1-0.1,0.2c-0.1,0.6-0.1,1-0.1,1c0,0.1,0,0.2,0,0.4c0,0.2,0,0.3,0,0.4c0,0.1,0,0.3,0,0.5c0,0.1,0,0.2,0.1,0.2
		c0,0,0,0,0,0c0,0.1,0,0.1,0.1,0.2c0.1,0.1,0.1,0.1,0.2,0.1c0.7-0.1,1.2-0.3,1.6-0.5c0.1,0,0.2-0.1,0.2,0c0,0,0.1,0,0.1,0
		c0.1-0.1,0.3-0.1,0.4-0.2c0,0,0.1,0,0.2,0c0.1,0,0.2,0,0.2,0c0,0,0,0.1,0,0.1c0,0,0,0,0,0l0,0c0.2-0.1,0.3-0.1,0.4-0.1
		c0,0,0,0,0.1-0.1c0,0-0.1,0-0.1,0c0,0-0.1,0-0.1,0c0,0,0,0,0-0.1c0,0,0-0.1,0-0.1c0,0,0,0-0.1,0c0-0.1,0-0.1,0.1-0.3c0,0,0,0,0,0
		c0,0,0.1,0,0.1,0c0.1-0.1,0.1-0.1,0.3-0.1c0-0.1,0-0.2,0.1-0.2c0,0,0.1,0,0.2,0.1c0,0,0,0-0.1,0c-0.1,0-0.1,0-0.1,0
		c0.1,0.1,0.1,0.1,0.2,0.1l0.1,0.1c0.1,0,0.1,0.1,0,0.2c0,0.1,0,0.1,0.1,0.1c0,0,0.2,0,0.5,0.1c0.1,0,0.1,0.1,0.1,0.2
		c0,0,0,0.1,0,0.1c0,0.1,0,0.1,0,0.1c0,0.1-0.1,0.1-0.1,0c0-0.1-0.1-0.1-0.1-0.2c0,0.1-0.1,0.1-0.1,0.2l0,0c0,0,0,0,0.1,0
		c0,0,0,0,0,0.1c0,0,0,0-0.1,0.1c0,0,0,0,0.1,0c0,0,0.1,0,0.1,0c0,0.1-0.1,0.1-0.1,0.1c0,0-0.1,0-0.1,0c0,0-0.1,0-0.1,0
		c-0.1,0-0.2,0-0.2,0.1c0,0-0.1,0-0.1,0c-0.1,0-0.1,0-0.1,0.1c0,0,0,0,0,0c0,0,0,0,0,0c0,0,0,0,0,0c0,0,0.1,0,0.1,0
		c-0.1,0-0.2,0.1-0.5,0.2c0,0,0-0.1,0-0.1c0,0,0,0,0-0.1c-0.1,0-0.2,0-0.2,0c0,0-0.2,0-0.4,0.1c-0.3,0.1-0.6,0.2-0.7,0.2
		c0,0-0.1,0-0.1,0c0,0-0.1,0-0.1,0c0,0-0.1,0.1-0.2,0.1c-0.1,0-0.1,0-0.2,0c-0.1,0-0.1,0-0.2,0c-0.1,0-0.2,0-0.3,0.1
		c-0.2,0.1-0.3,0.1-0.4,0c0,0-0.1,0-0.1,0.1c0,0.1-0.1,0.1-0.1,0.1c-0.1,0-0.1,0-0.2,0c-0.1,0.1-0.1,0.1-0.2,0.1c0,0,0,0-0.1,0
		c-0.2,0.1-0.3,0.1-0.3,0.1c0,0,0,0-0.1,0c0,0,0,0.1,0,0.1c0,0,0.1,0,0.1,0c0,0,0,0,0,0c0,0,0,0,0,0c0.1,0,0.1,0,0.1,0
		c0,0,0,0-0.1,0.1c-0.1,0.1-0.2,0.1-0.3,0.2c0,0.1-0.1,0.1-0.1,0.2c-0.1,0-0.1,0.1-0.1,0.1c0,0,0.1,0,0.2,0c0.1,0,0.1-0.1,0.2,0l0,0
		c-0.1,0.1-0.3,0.2-0.4,0.3c0,0,0,0,0,0c0,0,0,0,0,0c0,0-0.2,0.1-0.5,0.3c-0.1,0.1-0.2,0.1-0.2,0.1c-0.1,0-0.1,0-0.1-0.1
		c0-0.1-0.1-0.1-0.1,0c0,0-0.1,0-0.1,0c0,0,0-0.1,0-0.1c0-0.1,0-0.1,0.1-0.2c0-0.1,0-0.1,0-0.1c0,0,0,0.1-0.2,0.2c0,0,0,0,0,0
		c0,0,0,0,0,0c0,0,0,0.1,0,0.1c0,0.1,0,0.1-0.1,0.1c0,0-0.1,0-0.2,0c0,0,0,0,0.1-0.1c0-0.1,0-0.1,0-0.2c0,0,0,0-0.1,0.1
		c0,0.1-0.1,0.1-0.2,0.1c-0.1,0-0.1,0-0.1-0.1c0,0,0,0,0-0.1c0,0,0,0,0-0.1c0,0,0,0-0.1,0c0,0-0.1,0-0.1-0.1c0-0.1,0-0.2,0-0.2
		c0-0.1,0.1-0.1,0.1-0.2c0,0,0,0,0-0.1c0,0,0.1,0,0.1,0l0,0c0,0,0,0-0.1,0c0,0-0.1,0-0.1,0c0-0.1,0-0.2,0.1-0.2
		c0.1-0.1,0.2-0.2,0.3-0.3c0.1,0,0.1-0.1,0.1-0.2c0.1-0.2,0.2-0.4,0.2-0.6c0,0,0-0.1,0-0.2c0-0.1,0-0.1,0-0.1c0-0.1,0-0.2-0.1-0.2
		c0,0,0-0.1,0-0.2c0,0,0,0,0-0.1c0,0,0,0,0-0.1c0-0.1,0-0.1,0-0.1c0,0,0,0,0,0c0,0,0,0,0-0.1c0.1-0.1,0.1-0.2,0.1-0.4
		c0-0.1,0-0.3,0-0.5c0-0.1,0-0.3,0.1-0.6c0-0.3,0.1-0.5,0.1-0.6c0-0.2,0-0.3-0.1-0.4l-0.1-0.3c0-0.1,0-0.1,0.1-0.1
		c0.1,0,0.2,0,0.2-0.1l-0.1-0.1c-0.1-0.1-0.1-0.1,0-0.3c0-0.1,0.1-0.1,0.1-0.1c0,0,0-0.1-0.1-0.1l0,0c0,0,0,0,0.1-0.1c0,0,0,0,0-0.1
		c0-0.1,0-0.1,0.1-0.1c0.1,0,0.1-0.1,0.1-0.2c0-0.4,0.1-0.7,0.1-0.8C57,9.2,57,9,57,8.8c0-0.2,0-0.4,0.1-0.5c0,0,0-0.1,0-0.1
		c0-0.1,0-0.2,0-0.3c0-0.1,0.1-0.4,0.1-0.9c0,0,0-0.1,0-0.2c0-0.1,0-0.1,0-0.2c0-0.1,0-0.1-0.1-0.2c-0.1,0-0.2,0-0.2,0
		c0,0-0.2,0-0.5,0c-0.1,0-0.1,0-0.1-0.1c0-0.1,0-0.1,0-0.2c0,0,0,0,0-0.1c0.1-0.1,0.1-0.3,0.2-0.7c0-0.2,0.1-0.4,0.3-0.6
		c0.1,0,0.1-0.1,0.2-0.1c0.1-0.1,0.2-0.1,0.3-0.1c0.1-0.1,0.1-0.1,0.2-0.1c0,0,0.1,0,0.2,0c0.1,0,0.1,0,0.1-0.1c0,0,0-0.1,0-0.1
		c0-0.1,0-0.1,0-0.1c0,0,0,0,0.1,0c0,0,0,0,0,0c0-0.1,0-0.1,0.1-0.2C58.1,4,58.1,4,58.1,4c0,0,0,0,0.1,0c0,0,0.1,0.1,0.1,0.1
		c0,0,0-0.1,0-0.1c0-0.1,0-0.1,0.1-0.1c0,0,0,0,0.1,0c0,0,0,0,0.1,0c0,0,0,0,0,0.1c0,0,0,0.1,0,0.1c0,0,0,0,0,0c0,0,0,0,0,0.1
		c0,0.1,0,0.1,0.1,0.1c0,0,0.1,0,0.2,0c0.9-0.2,1.4-0.3,1.5-0.3c0.2,0,0.6-0.1,1.2-0.2c0.4-0.1,0.6-0.1,0.8-0.1c0.2,0,0.3,0,0.4,0.1
		c0.2,0.2,0.3,0.2,0.3,0.2S63.2,4,63.2,4.1z M56.3,15.7C56.4,15.7,56.4,15.7,56.3,15.7c0,0.1-0.1,0.1-0.2,0.2c-0.1,0-0.1,0.1-0.2,0
		C56.1,15.8,56.2,15.7,56.3,15.7z M56.8,14.5C56.9,14.5,56.9,14.5,56.8,14.5C56.8,14.4,56.8,14.4,56.8,14.5L56.8,15
		c0-0.1,0.1-0.2,0-0.2C56.8,14.6,56.8,14.6,56.8,14.5z M56.9,13.9c0-0.2,0-0.3-0.1-0.4c0,0.1,0,0.3,0,0.5c0,0,0,0.1,0,0.2L56.9,13.9
		z M57.2,9.9c0.1-0.8,0.2-1.2,0.1-1.4c-0.1,0.7-0.2,1.1-0.2,1.2C57.1,9.7,57.1,9.8,57.2,9.9z M57.5,7.1C57.5,7.1,57.5,7.1,57.5,7.1
		c-0.1,0.5-0.2,0.9-0.2,1.2c0,0,0.1-0.1,0.1-0.1C57.4,7.9,57.5,7.5,57.5,7.1z M61,15.6c0,0,0.1,0,0.3-0.1c0,0.1-0.1,0.1-0.1,0.1
		C61.2,15.6,61.1,15.6,61,15.6C61.1,15.6,61.1,15.6,61,15.6z M62.4,15.1C62.4,15.1,62.5,15.1,62.4,15.1c0,0.1,0,0.1-0.1,0.1
		c-0.1,0-0.2,0-0.2,0.1c0,0,0.1,0,0.1,0c0,0,0.1,0,0.1,0l0,0c-0.1,0.1-0.3,0.1-0.5,0.1c0,0-0.1,0-0.1,0c0,0,0-0.1,0.1-0.1
		c0.1,0,0.1,0,0.1-0.1c0,0,0,0,0,0c0,0,0,0,0,0c0,0,0,0,0,0c0.1,0,0.1,0,0.3-0.1C62.2,15.1,62.3,15.1,62.4,15.1z M62.1,13.9
		c0,0-0.1,0-0.3-0.2c0,0,0,0.1,0.1,0.1c0,0,0,0,0,0.1c0,0.1,0,0.1,0,0.1C62,14,62,14,62.1,13.9C62.1,13.9,62.1,13.9,62.1,13.9z"/>
	<path class="st0" d="M66.3,7.9C66.3,7.9,66.2,8,66.3,7.9c-0.1,0.3-0.1,0.4,0.1,0.5c0,0,0,0,0,0.1c0,0,0,0,0,0c0,0,0,0-0.1,0
		c-0.1,0-0.1,0-0.1,0.1c0,0,0,0.1,0,0.2c0,0.1,0,0.1,0,0.1c0,0,0.1,0,0.1,0c0,0,0.1,0,0,0c0,0,0,0,0,0.1c0,0,0,0,0,0.1
		c0,0-0.1,0-0.1,0c-0.1,0-0.1,0-0.1,0.1c0,0,0,0.1,0,0.1c0,0.1,0,0.2,0,0.2c0,0,0,0.1,0,0.2c0,0.1,0,0.2,0,0.2c0,0.1,0,0.1,0.1,0.2
		c0.1,0.1,0.1,0.1,0.1,0.3c0,0.1,0,0.3,0,0.4c0,0.1,0,0.1,0,0.2c0,0.1,0,0.2,0,0.3c0,0.1,0,0.2,0,0.3c0,0.1,0,0.2,0,0.4
		c0,0.3,0,0.5-0.1,0.6c0,0,0,0.1,0,0.2c0,0.3-0.1,0.6-0.1,0.7c0,0-0.1,0.2-0.2,0.6c-0.1,0.4-0.1,0.5-0.1,0.5c0,0.1,0,0.2,0,0.3
		c0,0.1,0,0.2-0.1,0.3c0,0.1,0,0.1,0,0.2c0,0.1,0,0.3-0.1,0.8c0,0.1,0,0.2,0,0.3c0,0.1,0,0.1,0,0.2c0,0,0,0.1,0,0.1l0,0.2
		c0,0.1,0,0.1,0,0.2c0,0.1,0,0.2,0,0.2c0,0,0,0.1,0,0.1c0,0,0.1,0.1,0.1,0.1c0,0,0,0.1,0,0.2c0,0.3,0,0.5,0,0.4c0,0,0,0.1,0,0.1
		c0,0.1,0,0.2,0,0.4c0,0.1,0,0.2,0,0.4l0,0.2c0,0.1,0,0.2,0,0.2c0,0,0,0.1,0,0.1l0,0v0l0,0c0,0,0,0,0,0.1v0.1c0,0.1,0,0.1,0,0.2
		l0,0.1l0,0.1l0,0l0,0.1v0c0,0,0,0.1,0,0.1c0,0,0,0.1,0,0.1c0,0,0,0.1,0,0.1c0,0.1,0,0.3,0,0.3v0.1l0,0.1c0,0,0,0.1,0,0.1
		c0,0,0,0,0,0.1c0,0.1-0.1,0.1-0.1,0.1c0,0-0.1,0-0.1,0c-0.1-0.1-0.1-0.1-0.2-0.2c0,0-0.1-0.1-0.1-0.1l-0.1-0.2c0-0.1-0.1-0.1-0.2,0
		c-0.1,0-0.1,0-0.1,0.1c-0.1,0-0.1,0-0.1,0c0,0,0-0.1,0-0.1c0,0,0,0,0-0.1c0,0,0-0.1,0-0.2c0-0.1,0-0.2,0-0.2c0-0.1,0-0.2,0-0.2v0
		c0,0,0,0,0,0h0c0,0,0,0,0,0c0,0,0,0,0,0c0,0,0,0,0,0c0,0,0,0,0,0c0,0,0,0.1,0,0.1c0,0.2,0,0.4,0,0.4c0,0,0,0.1-0.1,0c0,0,0,0-0.1,0
		c0,0,0,0,0,0c0-0.1-0.1-0.1-0.1-0.2c0-0.1,0-0.2,0-0.3c0,0,0,0,0,0c0,0,0,0,0,0c0,0,0,0,0,0v0v0c0,0,0,0,0,0v-0.1
		c0-0.1,0-0.1,0-0.2c0-0.1,0-0.2,0-0.2c0,0,0-0.1,0-0.1c0,0,0-0.1,0.1-0.1c0,0,0-0.1,0.1-0.1c0,0,0-0.1,0,0c0,0,0,0,0-0.1
		c0,0,0-0.1,0-0.1c0-0.1,0-0.2,0-0.2c0,0,0-0.1,0-0.1c0,0,0-0.1,0-0.2l0-0.2c0-0.1,0-0.1,0.1,0h0c0-0.1,0-0.2,0-0.3c0,0,0-0.1,0-0.1
		c-0.1,0-0.1-0.1-0.1-0.2c0-0.1,0-0.1,0-0.2c0-0.1,0-0.1,0-0.1c0.1,0,0.1-0.1,0-0.1c0,0-0.1-0.1-0.1-0.2c0-0.1,0-0.2,0-0.3
		c0,0,0-0.1,0-0.2c0-0.1,0-0.1,0-0.2c0,0,0,0,0,0c0-0.1,0.1-0.2,0.1-0.5c0-0.2,0-0.3,0.1-0.4c0-0.1,0-0.2,0-0.3c0-0.1,0-0.4,0.1-0.8
		c0-0.2,0.1-0.4,0.1-0.4c0,0,0-0.1,0-0.2c0-0.3,0.1-0.6,0.1-0.9c0,0,0-0.1,0-0.2c0-0.3,0.1-0.6,0.1-0.8c0-0.1,0-0.1,0-0.2
		c0,0.1,0-0.1,0-0.6c0,0,0-0.1,0-0.2c0-0.1,0-0.1,0-0.2c0-0.3,0-0.4,0-0.3c0,0,0-0.3,0.1-0.8c0-0.1,0.1-0.5,0.2-1.2
		C65,8.1,65,8,65,7.9c0-0.1,0-0.2,0-0.2c0-0.1,0.1-0.2,0.1-0.3c0-0.2,0.1-0.3,0.1-0.3c0,0,0,0,0,0c0.1-0.5,0.1-0.8,0.1-0.8
		c0-0.1,0-0.1,0-0.2c0,0,0.1-0.1,0.1-0.2c0.1-0.7,0.2-1.2,0.2-1.3c0-0.1,0-0.3,0.1-0.7c0-0.2,0.1-0.4,0.1-0.6h0l0,0.1
		c0,0,0,0.1,0,0.1c0,0,0,0,0,0c0,0,0,0,0,0c0-0.1,0-0.1,0-0.2l0,0c0.2,0,0.2,0,0.2,0c0,0.2-0.1,0.5-0.1,0.9c0,0.4-0.1,0.7-0.1,0.9
		c0,0,0,0.4-0.1,1c0,0,0.1-0.1,0.1-0.2c0-0.1,0-0.1,0.1-0.1c0,0,0,0,0,0c0,0,0,0,0,0c0,0.1,0,0.2,0.1,0.2c0,0,0-0.1,0.1-0.2
		c0,0,0-0.1,0-0.2c0,0,0.1,0,0.1,0c0.1,0,0.1-0.1,0-0.1c-0.1,0-0.1-0.1,0-0.1c0-0.1,0.1-0.2,0.1-0.3c0-0.1,0-0.1,0.1-0.3
		c0-0.1,0.1-0.2,0.1-0.3c0,0,0.1,0,0.1,0.1c0,0.3,0,0.6-0.1,0.9c0,0.1-0.1,0.4-0.1,0.9c0,0.1,0,0.1,0,0.2c0,0,0,0,0,0c0,0,0,0,0,0
		c0,0,0-0.1,0-0.1c0,0,0-0.1,0-0.1c0-0.1,0-0.1,0.1-0.1c0,0,0,0,0,0.1c0,0,0,0,0,0.1c0,0.2-0.1,0.3-0.2,0.3c-0.1,0-0.1,0-0.1,0
		c0,0.1,0,0.1,0,0.2c0.1,0,0.1,0.1,0.1,0.1c0.1,0,0.1,0,0.1,0.1c0,0.1-0.1,0.2-0.2,0.2c0,0-0.1,0-0.1,0.1L66.3,7.9L66.3,7.9z
		 M63.8,17.9L63.8,17.9C63.9,17.9,63.9,17.9,63.8,17.9C63.9,17.8,63.9,17.8,63.8,17.9L63.8,17.9z M64.7,5.8c0-0.1-0.1-0.2-0.1-0.1
		c0,0,0,0,0,0C64.5,5.7,64.6,5.7,64.7,5.8L64.7,5.8C64.7,5.8,64.7,5.8,64.7,5.8z M65.6,8.1C65.6,8.1,65.6,8.1,65.6,8.1L65.6,8.1
		C65.6,8.1,65.6,8.1,65.6,8.1C65.6,8,65.6,8,65.6,8.1C65.6,8,65.6,8,65.6,8.1z M65.6,7.6c0,0.1,0,0.2,0,0.3c0-0.1,0-0.2,0.1-0.3
		c0,0,0,0,0,0C65.7,7.5,65.7,7.5,65.6,7.6C65.7,7.5,65.6,7.6,65.6,7.6z M65.7,7C65.7,7,65.6,7,65.7,7c0,0,0,0.1,0,0.1c0,0,0,0,0,0
		C65.7,7.1,65.7,7.1,65.7,7C65.7,7,65.7,7,65.7,7C65.7,7,65.7,7,65.7,7z M67.8,10.8C67.8,10.8,67.8,10.8,67.8,10.8
		c0-0.1,0-0.1,0-0.1c0,0,0,0-0.1,0c-0.1,0-0.1,0-0.1,0c0,0,0,0,0,0c0,0-0.1,0-0.1,0l0,0c0,0-0.1-0.1-0.1-0.2c0,0,0,0,0,0
		c0,0,0.1,0,0.1,0c0,0,0.1,0,0.2,0c0,0,0,0,0,0c0,0,0,0,0,0c0,0-0.1,0-0.2-0.1c-0.1,0-0.1,0-0.2,0c0,0-0.1,0,0,0c0,0,0-0.1,0-0.1
		l0-0.1c0,0,0,0,0-0.1c0,0,0,0,0,0c0,0,0,0,0,0c0,0,0,0,0,0c0,0,0.1,0,0.1,0.1c0,0.1,0.1,0.1,0.1,0.1c0,0,0,0,0.1,0c0,0,0,0,0,0
		c0-0.1,0-0.1,0-0.1c0-0.1,0-0.1,0-0.1c0,0,0,0-0.1,0c0,0-0.1,0-0.1,0c0,0,0,0-0.1,0c0,0-0.1,0-0.1,0c0,0,0-0.1,0.1-0.1c0,0,0,0,0,0
		h0c0,0,0.1,0,0.1,0c0,0,0,0,0,0c-0.1-0.1-0.1-0.2-0.1-0.2c0,0,0,0,0,0c0,0,0,0,0,0c-0.1,0-0.1,0-0.1,0c0-0.1-0.1-0.1-0.1-0.1
		c0,0-0.1,0-0.1,0c-0.1,0-0.2-0.1-0.2-0.1c0,0,0,0,0,0c0-0.1,0-0.1,0-0.1c0,0,0.1,0,0.1,0c0,0,0,0,0,0c0,0,0.1,0,0.1,0
		c0.1,0,0.1-0.1,0.1-0.1c0-0.1-0.1-0.2-0.1-0.3c0,0-0.1-0.1-0.1-0.1c0,0,0-0.1,0-0.1c-0.1,0-0.1-0.1-0.1-0.2c0-0.1,0-0.2,0-0.2
		c0-0.1-0.1-0.1-0.1-0.2c0,0,0,0-0.1-0.2c0,0,0-0.1-0.1-0.2c0-0.1-0.1-0.2-0.1-0.2c0,0,0,0,0-0.1c0.1-0.1,0.1-0.1,0-0.2
		c0,0,0-0.1-0.1-0.2c0-0.1-0.1-0.2-0.1-0.3c0,0,0,0,0,0c0,0,0,0,0-0.2c0,0,0-0.1-0.1-0.1c-0.1,0-0.1-0.1,0-0.1
		c0.1-0.1,0.1-0.2,0-0.2c0,0,0,0,0-0.1c0,0,0-0.1-0.1-0.1c0,0,0,0.1-0.1,0.2c0,0,0,0,0,0c0,0,0,0,0,0c0-0.1,0-0.1,0.1-0.2
		c0.1-0.1,0.1-0.1,0-0.1c-0.1,0-0.2-0.1-0.1-0.2c0-0.1,0-0.2-0.1-0.2c0,0,0-0.1,0-0.1c0,0,0.1,0,0.1-0.1c0,0,0-0.1,0-0.1
		c0,0,0-0.1,0-0.1c0,0,0,0,0-0.1c0,0,0,0,0,0c0,0,0,0,0,0c0,0,0,0,0.1,0c0,0,0,0,0,0c0,0,0,0,0,0.1c0,0,0,0,0,0.1c0,0,0,0,0,0.1l0,0
		l0-0.2c0,0,0,0,0-0.1c0,0,0,0,0,0c0,0,0,0,0.1,0c0,0,0.1,0.1,0.1,0.1c0,0.1,0,0.1,0.1,0.1c0,0,0-0.1,0-0.1c0-0.1,0-0.1,0-0.2
		c0-0.1,0-0.2,0-0.2c0-0.1,0-0.1,0-0.1c0,0,0-0.1,0-0.1c0,0,0,0,0-0.1c0,0,0-0.1,0-0.1c0,0,0,0,0,0c0,0,0,0,0.1,0c0,0,0,0,0.1,0
		c0,0,0,0,0.1,0c0.1,0,0.1,0.1,0.1,0.1c0,0,0,0,0,0c0,0,0,0,0,0c0,0,0,0,0,0c0,0,0,0,0,0c0,0,0,0,0,0c0,0,0,0,0,0c0,0,0,0,0,0.1
		c0,0,0,0.1,0.1,0.1c0,0,0,0,0,0c0,0,0,0,0,0c0,0,0,0,0,0c0,0,0-0.1,0-0.1l0-0.1c0,0,0,0,0.1,0c0.1,0,0.1,0,0.1,0l0,0l0,0l0,0l0,0.1
		c0,0.1,0,0.1,0,0.1l0,0.1c0,0,0,0.1,0.1,0.2c0,0,0,0,0,0.1c0,0,0,0,0,0c0,0,0,0,0,0c0-0.1,0-0.2,0-0.3c0,0,0-0.1,0-0.1
		c0,0,0-0.1,0-0.1l0,0c0,0,0,0,0,0c0,0,0,0,0-0.1c0,0,0,0,0,0c0,0,0,0,0,0c0,0,0,0,0,0c0,0,0,0,0,0c0,0,0,0,0,0l0,0l0,0l0,0l0,0
		c0,0,0,0,0,0l0,0c0,0,0,0.1,0.1,0.1c0,0,0,0,0,0.1c0,0,0,0.1,0,0.1c0,0.1,0,0.2,0,0.4c0,0,0,0,0,0.1c0,0,0,0,0,0.1v0v0.1
		c0,0,0,0.1,0,0.1c0,0,0,0.1,0,0.1c0,0,0,0.1,0,0.1c0,0,0,0,0,0c0,0,0,0,0,0c0,0,0,0,0,0.1c0,0,0.1,0,0.1,0c0,0,0,0,0,0
		c0.1,0,0.1,0,0,0l0,0c-0.1,0-0.1,0.1-0.1,0.1c0,0,0,0.1,0,0.1c0,0,0,0,0,0c0,0,0,0,0,0c0,0,0,0,0,0c0,0,0,0,0,0c0,0,0,0,0-0.1
		c0,0,0,0,0,0c0,0,0,0,0.1,0c0,0,0,0,0,0c0,0,0,0,0,0c0,0,0,0,0,0c0,0.1-0.1,0.1-0.1,0.2c0,0,0,0,0,0.1c0,0,0,0,0,0.1
		c0,0.2,0,0.3,0,0.3c0,0.1,0,0.3,0.1,0.4l0,0.1l0,0.1c0,0.1,0,0.1,0.1,0.2c0,0.1,0.1,0.2,0.1,0.4l0,0.2c0,0,0,0,0,0.1l0,0.1
		c0.1,0.2,0.2,0.4,0.2,0.5c0,0,0,0.1,0.1,0.1c0,0,0,0.1,0,0.1c0,0,0,0.1,0,0.1c0.1,0.1,0.2,0.2,0.2,0.3c0,0.1,0,0.1,0,0.1
		c0,0,0,0,0,0c0,0,0,0,0,0c0,0,0,0,0,0c0,0,0.1,0.1,0.1,0.2c0,0,0,0,0,0.2c0,0.1,0,0.1,0,0.1c0,0,0,0.1,0,0.1c0,0,0,0,0,0
		c0,0,0,0,0,0l0,0c0,0.2,0,0.3,0,0.3c0,0,0,0.1,0,0.1c0,0,0.1,0.1,0.1,0.2c0,0,0,0,0,0c0,0,0,0,0,0v0c0,0,0,0.1,0,0.2l0,0
		c0,0,0,0,0,0c0,0,0,0.1,0,0.1c0,0,0,0,0.1,0.1c0,0,0.1,0.1,0.1,0.1c0,0,0,0,0,0c0,0,0,0,0,0c0,0,0,0,0-0.1l0,0c0,0,0-0.1,0-0.1
		c0,0,0,0,0-0.1c0,0,0-0.1,0-0.1c0,0,0,0,0,0c0,0,0,0,0.1,0c0,0,0,0,0,0c0,0,0,0,0,0c0,0,0,0,0,0c0,0,0,0.1,0,0.1c0,0,0.1,0,0.2,0
		l0,0h0c0,0,0.1,0,0.1,0c0,0,0,0-0.1,0c-0.1,0-0.1,0-0.1,0.1c0,0,0,0.1,0,0.1c0,0,0.1,0,0.1,0c0,0,0,0,0.1,0c0.1,0,0.1,0,0,0.1
		c0,0,0,0-0.1,0.1c0,0-0.1,0,0,0.1c0,0,0,0.1,0,0.1c0,0.1,0.1,0.1,0.1,0c0,0,0,0,0-0.1c0,0,0,0,0-0.1c0,0,0,0,0,0c0,0,0,0,0,0
		c0,0,0.1,0.1,0.1,0.2c0,0,0,0,0,0c0,0,0,0,0,0c0,0,0,0.1,0,0.1l0,0.1c0,0,0,0.1,0,0c0,0,0,0,0,0.1c0,0,0,0.1,0,0.1c0,0,0,0.1,0,0.1
		c0,0.1,0,0.1,0,0.1c0,0.1,0,0.1,0,0.1c0.1,0,0.1,0,0,0.1c0,0,0,0,0,0c0,0,0,0.1,0,0.2c0,0,0,0,0,0.1c0,0.1,0,0.2,0,0.3
		c0,0,0,0.1,0,0.1c-0.1,0.1-0.1,0.2-0.1,0.3c0,0,0,0.1,0,0.1c0,0,0,0-0.1,0c-0.1,0-0.1,0-0.1,0c0,0,0,0.1,0,0.2c0,0.1,0,0.1,0,0.2
		c0,0,0,0.1,0,0.1c0,0,0,0.1,0,0.1c0,0,0,0,0,0.1l0,0.1c0,0,0,0,0,0.1c0,0,0,0.1,0,0.1c0,0.1,0,0.2,0.1,0.4c0,0,0,0,0,0.1
		c0,0,0,0.1,0,0.1l0.1,0.2c0,0.1,0,0.1,0,0.1l0,0.1c0,0.1,0.1,0.2,0.1,0.4c0,0,0,0,0,0.1c0,0,0,0,0,0.1c0,0,0,0,0,0.1
		c0,0,0,0.1,0,0.1c0,0,0,0,0,0.1l0,0l0,0.1c0,0.1,0.1,0.1,0.1,0.2l0,0.2c0,0,0,0,0,0.1c0.1,0,0.1,0.1,0,0.2c0,0.1,0,0.1,0,0.1
		c0,0,0,0.1,0,0.1l0-0.1c0,0,0,0,0,0c0,0,0,0,0,0c0,0.1,0,0.2,0,0.2c0,0.1,0,0.1,0,0.2c0,0.1,0,0.1,0.1,0.2c0,0,0,0.1,0,0.1
		c0,0.1,0,0.1,0,0.1c0,0,0,0,0,0.1c0,0.2,0.1,0.3,0,0.3c0,0,0,0,0,0c0,0.1-0.1,0.1-0.1,0.1c0,0-0.1,0-0.1,0c0,0,0,0.1-0.1,0.1
		c0,0,0,0,0,0c0,0,0,0,0,0c0,0,0,0,0,0c0,0,0,0,0,0c0,0,0,0-0.1,0c0,0,0,0,0,0c0,0,0,0,0,0c0,0-0.1,0-0.1,0c0-0.1,0-0.1-0.1-0.1
		c0,0-0.1,0-0.1,0c0,0,0-0.1,0-0.1c0-0.1,0-0.1-0.1-0.1c-0.1,0-0.1,0-0.1-0.1c0,0,0,0,0,0c0,0-0.1-0.1,0-0.2c0,0,0-0.1-0.1-0.1
		c-0.1-0.1-0.1-0.1-0.1-0.1c0,0,0-0.1,0-0.1c0,0,0,0,0,0c0,0,0,0,0,0c0,0,0-0.1,0-0.2c0,0,0,0,0-0.1c0-0.1,0-0.1,0-0.1
		c0,0,0.1,0,0.1,0.1c0,0,0,0,0,0.1c0,0,0,0,0,0.1c0,0,0,0,0,0c0,0,0,0,0,0c0,0,0,0,0,0c0,0,0,0,0,0c0-0.1-0.1-0.2-0.1-0.3
		c0,0,0,0-0.1,0c0,0,0,0,0,0c-0.1,0-0.2,0.1-0.2,0.1c-0.1,0-0.1-0.1,0-0.1c0,0,0,0,0.1,0c0.1,0,0.1,0,0.1,0c0,0,0.1,0,0.1,0
		c0,0,0,0,0,0c0,0,0,0,0,0l0-0.1c0,0,0,0,0-0.1c0,0,0,0-0.1,0c0,0,0,0,0,0c0,0,0,0,0-0.1c0,0,0-0.1,0-0.1c0,0,0,0,0-0.1
		c0,0,0.1-0.1,0-0.2c-0.1-0.2-0.2-0.3-0.2-0.3c0-0.1-0.1-0.2-0.1-0.3l0-0.1l0-0.1c0-0.1-0.1-0.2-0.1-0.3c0,0.1,0,0-0.1-0.3
		c0,0,0,0,0-0.1c0,0,0,0,0,0c-0.1,0-0.1,0-0.1-0.1c0,0,0,0,0-0.2c0,0,0,0-0.1,0c-0.1,0-0.1,0-0.1,0c0,0,0-0.1,0-0.1c0,0,0-0.1,0-0.1
		c0-0.1-0.1-0.1-0.1-0.2c0,0,0-0.1-0.1-0.1c0-0.1,0-0.1,0-0.1c0,0,0,0,0,0c0,0,0,0,0,0c0-0.1,0-0.1-0.1-0.2c-0.1,0-0.2,0-0.2,0
		c-0.1,0-0.2-0.1-0.1-0.2c0,0,0,0,0.1,0c0,0,0.1,0,0.1,0c0-0.2,0-0.3,0-0.4c0,0,0,0,0-0.1c0,0-0.1-0.1,0-0.1c0,0,0-0.1-0.1-0.2
		c0-0.1,0-0.1,0.1-0.1c0.1,0,0.1-0.1,0-0.1c0,0,0,0,0-0.1c0-0.1,0-0.1-0.1-0.2c0,0,0-0.1-0.1-0.1c0,0-0.1,0-0.1-0.1
		c-0.1,0,0-0.1,0.1-0.2c0.1-0.1,0.1-0.1,0.1-0.1C68,11.1,68,11,67.8,10.8L67.8,10.8z M65.7,6.2c-0.1,0.1-0.1,0.2-0.1,0.5
		C65.7,6.5,65.8,6.4,65.7,6.2C65.8,6.3,65.8,6.2,65.7,6.2z M65.9,3.9l0-0.1c0,0,0,0,0,0c0,0,0,0,0,0C65.7,3.8,65.8,3.9,65.9,3.9
		C65.8,3.9,65.8,3.9,65.9,3.9C65.8,3.9,65.9,3.9,65.9,3.9C65.9,3.9,65.9,3.9,65.9,3.9z M65.8,4.5L65.8,4.5
		C65.8,4.5,65.8,4.5,65.8,4.5C65.8,4.5,65.8,4.5,65.8,4.5C65.8,4.5,65.8,4.5,65.8,4.5C65.8,4.5,65.8,4.5,65.8,4.5z M65.9,6.4
		L65.9,6.4L65.9,6.4C66,6.4,66,6.3,66,6.2c0,0,0,0,0,0c0,0,0,0,0,0C65.9,6.4,65.9,6.5,65.9,6.4C65.9,6.5,65.9,6.4,65.9,6.4z M66,5.6
		C66,5.5,66,5.5,66,5.6C66,5.5,66,5.4,65.9,5.5c0,0,0,0,0,0C65.9,5.5,65.9,5.6,66,5.6C65.9,5.6,66,5.6,66,5.6z M66,6.6
		C65.9,6.6,65.9,6.6,66,6.6C65.9,6.6,65.9,6.6,66,6.6C66,6.6,66,6.6,66,6.6C66,6.6,66,6.5,66,6.6z M66,5.3c0,0,0-0.1,0-0.2h0
		C65.9,5.3,65.9,5.3,66,5.3C65.9,5.4,65.9,5.4,66,5.3C66,5.4,66,5.4,66,5.3z M66,5.1C66,5.2,66,5.2,66,5.1C66,5.2,66,5.2,66,5.1
		C66,5.1,66,5.1,66,5.1C66,5.1,66,5.1,66,5.1z M66,7C66,7,66,7,66,7C66,7,66.1,7,66.1,7c0,0,0,0,0-0.1C66.1,6.9,66.1,6.9,66,7
		C66,6.9,66,6.9,66,7C66,6.9,66,6.9,66,7C66,6.9,66,6.9,66,7z M66.1,5.5C66.2,5.5,66.1,5.5,66.1,5.5c-0.1,0-0.1,0-0.1,0
		C66,5.5,66.1,5.5,66.1,5.5C66.1,5.5,66.1,5.5,66.1,5.5z M66.1,10.5c0,0,0-0.1,0-0.1c0.1,0,0.1-0.1,0.1-0.1c0,0,0-0.1,0-0.1
		c0,0,0,0-0.1,0c0,0,0,0.1,0,0.2C66,10.4,66,10.4,66.1,10.5C66,10.5,66.1,10.5,66.1,10.5C66.1,10.5,66.1,10.5,66.1,10.5z M66.1,7.4
		L66.1,7.4c0.1,0,0.1,0,0.1,0c0,0,0,0,0,0C66.2,7.4,66.2,7.4,66.1,7.4C66.1,7.3,66.1,7.3,66.1,7.4C66.1,7.4,66.1,7.4,66.1,7.4
		C66.1,7.4,66.1,7.4,66.1,7.4z M66.3,9.7C66.2,9.8,66.2,9.8,66.3,9.7c-0.1,0.1-0.1,0.1,0,0.2c0,0,0,0,0,0
		C66.3,9.9,66.4,9.8,66.3,9.7C66.3,9.8,66.3,9.7,66.3,9.7z M66.3,9.1C66.3,9.2,66.3,9.2,66.3,9.1C66.2,9.2,66.2,9.2,66.3,9.1
		C66.3,9.3,66.3,9.3,66.3,9.1C66.3,9.2,66.3,9.2,66.3,9.1L66.3,9.1z M66.3,8L66.3,8C66.3,8,66.3,8,66.3,8C66.3,8,66.3,8,66.3,8
		c0,0.1,0,0.1,0.1,0.1c0,0,0,0,0,0c0,0,0,0,0,0C66.4,8,66.4,8,66.3,8L66.3,8L66.3,8z M66.3,7.9c0,0.1,0,0.1,0,0.1c0,0,0,0.1,0,0
		c0,0,0,0,0,0c0-0.1,0-0.2,0-0.4c0,0,0,0.1,0,0.2C66.3,7.8,66.3,7.8,66.3,7.9L66.3,7.9z M66.3,4.4c0,0,0,0.1,0,0.2h0
		C66.3,4.4,66.3,4.4,66.3,4.4L66.3,4.4z M66.3,4.9C66.4,4.9,66.4,4.9,66.3,4.9C66.4,4.9,66.4,4.9,66.3,4.9
		C66.4,4.9,66.4,4.9,66.3,4.9L66.3,4.9C66.3,4.9,66.3,4.9,66.3,4.9C66.3,4.9,66.3,4.9,66.3,4.9z M66.6,8.4
		C66.6,8.4,66.6,8.4,66.6,8.4c0-0.1-0.1-0.2-0.2-0.2c0,0-0.1,0-0.1,0c0,0.2,0,0.3,0.2,0.3c0,0,0.1,0,0.1,0
		C66.6,8.6,66.7,8.6,66.6,8.4C66.6,8.5,66.6,8.5,66.6,8.4z M66.4,5.1c0,0.1,0,0.1,0,0.1C66.4,5.2,66.4,5.2,66.4,5.1z M66.4,5.4
		c0,0.1,0,0.3,0,0.5C66.5,5.7,66.5,5.6,66.4,5.4z M66.8,6.4L66.8,6.4C66.7,6.4,66.7,6.4,66.8,6.4c0,0.3,0.1,0.4,0.1,0.4c0,0,0,0,0,0
		c0,0,0,0,0,0c0,0,0,0,0-0.1c0-0.1-0.1-0.2-0.1-0.3v0c0-0.1,0-0.2,0-0.3c0,0,0-0.1,0-0.2c0,0,0,0-0.1,0c0,0,0,0,0,0.1
		c0,0.1,0,0.1,0,0.2c0,0,0,0.1,0,0.1c0,0,0.1,0.1,0,0.2c0,0.1,0,0.2,0,0.2c0,0.1,0.1,0.2,0.1,0.3c0,0.1,0,0.2,0,0.2
		c0.1,0.1,0.1,0.1,0.1,0.1c0,0,0-0.1,0-0.1c0,0,0-0.1-0.1-0.1c0,0,0-0.1,0.1-0.1c0,0,0,0,0.1,0c0,0,0,0,0.1,0.1c0,0,0,0,0,0
		L66.8,6.4z M66.7,5.8C66.7,5.8,66.7,5.8,66.7,5.8L66.7,5.8C66.7,5.9,66.7,5.9,66.7,5.8C66.7,5.8,66.7,5.8,66.7,5.8z M67,7.8
		c0,0,0,0,0.1,0c0-0.1,0-0.1,0-0.1c0,0,0,0-0.1,0c0,0-0.1,0-0.1,0c0,0,0,0,0-0.1c0,0,0-0.1-0.1-0.2h0c0,0,0,0,0,0l0,0
		c0.1,0.2,0.1,0.3,0.1,0.2C66.9,7.8,66.9,7.8,67,7.8C66.9,7.8,66.9,7.8,67,7.8z M67,7.5L67,7.5V7.3c0,0,0-0.1,0-0.1c0,0,0,0-0.1,0
		c0,0,0,0,0,0L67,7.5z M67,3.7C67,3.8,66.9,3.8,67,3.7C66.9,3.8,66.9,3.8,67,3.7C66.9,3.8,67,3.8,67,3.7C67,3.8,67,3.8,67,3.7
		C67,3.8,67,3.8,67,3.7z M67.1,9.4C67,9.4,67,9.4,67.1,9.4c-0.1,0-0.1,0-0.1,0C66.9,9.5,67,9.5,67.1,9.4C67,9.5,67.1,9.5,67.1,9.4z
		 M67.2,9C67.2,9,67.2,9,67.2,9L67.2,9C67.2,8.9,67.1,8.9,67.2,9L67.2,9C67.1,9,67.1,9,67.2,9C67.1,9,67.2,9,67.2,9
		C67.2,9,67.2,9,67.2,9z M67.8,10.8C67.8,10.8,67.8,10.8,67.8,10.8c-0.1,0-0.1,0-0.1,0c0,0-0.1,0-0.1,0c0,0,0,0.1,0,0.1
		c0,0,0.1,0,0.1,0.1c0,0.1,0,0.1,0.1,0.1c0,0,0,0,0.1,0c0,0,0,0,0,0s0,0,0,0C67.8,11,67.8,10.9,67.8,10.8L67.8,10.8z M67.7,4.8
		L67.7,4.8L67.7,4.8L67.7,4.8L67.7,4.8z M67.7,4.9L67.7,4.9C67.7,4.9,67.7,4.9,67.7,4.9C67.8,4.8,67.8,4.8,67.7,4.9
		C67.7,4.8,67.7,4.8,67.7,4.9C67.7,4.8,67.7,4.8,67.7,4.9z M67.7,5.1C67.7,5.2,67.7,5.2,67.7,5.1C67.7,5.2,67.7,5.2,67.7,5.1
		c0.1,0.1,0.1,0.1,0.1,0s0,0,0-0.1c0,0,0,0,0,0c0,0,0.1,0,0.1,0c-0.1,0-0.1,0-0.1,0c0,0,0,0,0,0h0c0,0,0,0,0,0l0,0v0L67.7,5.1
		L67.7,5.1L67.7,5.1z M67.9,6C67.9,6,68,5.9,67.9,6C67.9,5.9,67.9,5.9,67.9,6C67.8,5.9,67.8,5.9,67.9,6C67.8,6,67.9,6,67.9,6z
		 M67.8,6.2L67.8,6.2C67.9,6.2,67.9,6.2,67.8,6.2C68,6.1,68,6,68,6.1c0,0,0,0-0.1,0c0,0,0,0,0,0C67.8,6.1,67.8,6.1,67.8,6.2z
		 M68,6.4C68,6.3,68,6.3,68,6.4C68,6.3,67.9,6.3,68,6.4C67.9,6.3,67.9,6.3,68,6.4c-0.1,0-0.1,0.1-0.1,0.1c0,0,0,0,0,0c0,0,0,0,0,0
		C68,6.5,68,6.5,68,6.4C68,6.5,68,6.4,68,6.4z M68,13.2c-0.1,0-0.2,0.1-0.1,0.1c0.1,0.1,0.2,0.1,0.3,0.1c0,0,0,0,0,0c0,0,0,0,0,0
		c0,0,0,0,0,0c0,0-0.1-0.1,0-0.1C68.2,13.1,68.2,13.1,68,13.2z M68,6.6C68,6.6,68,6.6,68,6.6C68,6.6,68,6.6,68,6.6
		C68,6.7,68,6.7,68,6.6C68,6.7,68,6.6,68,6.6z M68.1,6.8C68.1,6.8,68,6.8,68.1,6.8C68,6.8,68,6.8,68.1,6.8C68,6.8,68,6.8,68.1,6.8
		C68.1,6.8,68.1,6.8,68.1,6.8z M68.2,7.2C68.2,7.2,68.2,7.2,68.2,7.2C68.1,7.2,68.1,7.2,68.2,7.2C68.1,7.2,68.1,7.2,68.2,7.2
		C68.2,7.2,68.2,7.2,68.2,7.2z M68.3,7.5c0-0.1-0.1-0.1-0.1-0.1c0,0,0,0-0.1,0c0,0,0,0,0,0l0,0.1L68.3,7.5l-0.1,0.1l0,0c0,0,0,0,0,0
		C68.3,7.6,68.3,7.6,68.3,7.5C68.3,7.6,68.3,7.5,68.3,7.5C68.3,7.5,68.3,7.5,68.3,7.5L68.3,7.5L68.3,7.5z M68.2,5
		C68.2,5,68.2,5,68.2,5C68.3,5,68.3,4.9,68.2,5C68.3,4.9,68.3,4.9,68.2,5L68.2,5z M68.3,7.7L68.3,7.7C68.3,7.7,68.3,7.7,68.3,7.7
		C68.3,7.7,68.3,7.7,68.3,7.7C68.4,7.7,68.3,7.7,68.3,7.7z M68.5,7.8L68.5,7.8c0,0-0.1-0.1-0.1,0c0,0,0,0,0,0.1
		C68.4,7.8,68.4,7.8,68.5,7.8C68.4,7.8,68.4,7.8,68.5,7.8C68.5,7.8,68.5,7.8,68.5,7.8C68.5,7.8,68.5,7.8,68.5,7.8z M68.4,8
		C68.4,8,68.5,8,68.4,8C68.5,8,68.5,7.9,68.4,8C68.5,7.9,68.5,7.9,68.4,8C68.4,7.9,68.4,7.9,68.4,8z M68.5,7.5
		C68.5,7.5,68.5,7.5,68.5,7.5C68.5,7.5,68.5,7.5,68.5,7.5C68.6,7.5,68.6,7.5,68.5,7.5C68.6,7.5,68.6,7.5,68.5,7.5z M68.6,8.1
		L68.6,8.1C68.5,8,68.5,8,68.6,8.1C68.5,8,68.5,8,68.6,8.1C68.5,8.1,68.5,8.1,68.6,8.1C68.5,8.1,68.5,8.1,68.6,8.1
		C68.6,8.1,68.6,8.1,68.6,8.1C68.6,8.1,68.6,8.1,68.6,8.1C68.6,8.1,68.6,8.1,68.6,8.1z M68.7,8.3L68.7,8.3
		C68.7,8.2,68.7,8.2,68.7,8.3c-0.1-0.1-0.1-0.1-0.1-0.1c0,0,0,0,0,0c0,0.1,0.1,0.1,0.1,0.2c0,0,0,0,0,0C68.8,8.4,68.8,8.4,68.7,8.3
		C68.8,8.4,68.7,8.3,68.7,8.3L68.7,8.3z M68.7,18.5C68.7,18.5,68.7,18.5,68.7,18.5C68.6,18.5,68.6,18.5,68.7,18.5
		C68.6,18.5,68.6,18.6,68.7,18.5C68.7,18.5,68.7,18.5,68.7,18.5z M68.8,7.7L68.8,7.7C68.7,7.7,68.7,7.8,68.8,7.7
		C68.7,7.8,68.7,7.8,68.8,7.7C68.7,7.8,68.8,7.8,68.8,7.7C68.8,7.7,68.8,7.7,68.8,7.7L68.8,7.7z M68.8,8.6
		C68.8,8.6,68.8,8.6,68.8,8.6C68.9,8.6,68.9,8.6,68.8,8.6C68.9,8.6,68.9,8.6,68.8,8.6C68.9,8.5,68.9,8.5,68.8,8.6
		C68.8,8.5,68.8,8.5,68.8,8.6C68.8,8.5,68.8,8.6,68.8,8.6z M69,8.9L69,8.9C69,9,69,9,69.1,9c0,0,0,0,0,0C69.2,8.9,69.1,8.9,69,8.9z
		 M70.8,7.2c0,0,0,0,0-0.1c0.1-0.1,0.1-0.1,0.1-0.2c0,0,0-0.1,0.1-0.1c0.1-0.1,0.1-0.1,0.1-0.2c0,0,0-0.1,0-0.1c0,0,0.1-0.1,0-0.1
		c0-0.1-0.1-0.1-0.2-0.1c0,0-0.1,0,0-0.1c0,0,0-0.1,0.1-0.1c0,0,0.1,0,0-0.1c0,0,0-0.1,0-0.2c0-0.1,0-0.2,0-0.3c0-0.2,0-0.3,0-0.3
		c0,0,0,0,0.1,0c0,0,0,0,0,0.1c0,0,0,0,0,0c0,0,0,0,0,0c0,0,0,0,0,0c0,0,0-0.1,0-0.1l0-0.2V4.8V4.7v0c0,0,0-0.1,0-0.2V4.5l0-0.1
		c0-0.1,0-0.2,0-0.3c0-0.1,0-0.3,0-0.3c0-0.1,0-0.2,0.1-0.2c0.1,0,0.1-0.1,0.1-0.2c0,0,0,0,0-0.1c0,0,0,0,0-0.1c0,0,0-0.1,0-0.1
		c0,0,0-0.1,0-0.1c0,0,0-0.1,0-0.1c0,0,0-0.1,0-0.1c0,0,0-0.1,0-0.1c0-0.1,0.1-0.2,0.1-0.3c0,0,0,0.1,0,0.3c0,0.3-0.1,0.4,0,0.3
		l0,0.2l0,0v0v0l0,0.1c-0.1,0.4-0.1,0.6-0.1,0.7c0,0,0,0.1,0,0.2c0,0,0,0.1,0,0.1c0,0.1,0,0.1,0,0.2c0,0,0,0,0,0.1l0,0.1v0.1
		c0,0,0,0.1,0,0.2c0,0.1,0,0.2,0,0.2c0,0.1,0,0.3-0.1,0.5c0,0,0,0,0,0c0,0,0,0,0,0c0-0.1,0-0.1,0-0.1c0,0,0,0,0,0c0,0,0.1,0,0.1,0
		c0,0,0,0,0,0.1c0,0,0,0.1,0.1,0.1c0,0,0,0,0,0.1c-0.1,0.1-0.1,0.1,0,0.2c0,0.1,0,0.1,0,0.1c0,0-0.1,0.1,0,0.1c0,0,0,0.1-0.1,0.3
		c0,0.1,0,0.2-0.1,0.4c0,0.1,0,0.1,0.1,0.1c0,0,0,0,0.1,0c0.1,0,0.1,0,0.1,0.1c0,0,0,0.1,0,0.1c0,0,0,0-0.1,0c0,0-0.1,0-0.1,0
		c-0.1,0.1-0.1,0.1-0.1,0.2c0,0,0,0.1,0,0.1c0,0,0,0,0,0.1v0c0,0,0,0.1,0.1,0.1c0,0,0,0,0.1,0c0,0,0,0,0,0.1c0,0-0.1,0.1-0.1,0.1
		c0,0,0,0,0,0c0,0,0,0,0,0c0,0,0,0,0,0c0,0,0,0,0,0c0,0,0,0,0,0c0,0,0,0.1,0,0.1l0.1,0.1c0.1,0.1,0,0.1,0,0.1c0,0,0,0,0.1,0
		c0,0,0.1,0,0.1,0c0,0,0,0,0,0c-0.1,0.1-0.2,0.1-0.2,0.1c0,0,0,0,0,0c-0.1,0-0.1,0.1-0.1,0.1c0,0,0,0.1,0,0.1c0,0,0,0.1,0,0.1
		c0,0,0,0,0,0.1l0,0h0h0v0l0,0C71,9,71,9,71,9c0,0,0,0.1,0,0.1c0,0,0,0,0,0c0,0,0,0,0,0c0.1,0,0.1,0.1,0,0.1c0,0,0,0,0,0
		c0,0,0,0-0.1,0c0,0,0.1,0,0.1,0.1c0,0,0,0.1,0,0.1c0,0,0,0-0.1,0c0,0,0,0,0,0c0,0,0,0,0,0c0,0-0.1,0-0.1,0c0,0,0,0.1,0,0.1
		c0,0,0,0,0,0c0,0,0,0,0.1,0c0,0,0.1,0,0.1,0c0,0,0,0,0,0.1c0,0,0,0.1-0.1,0.1c0,0-0.1,0-0.1,0c0,0,0,0.1,0,0.2c0,0.1,0,0.2,0,0.2
		c0,0,0,0.1,0,0.1l-0.1,0.5c0,0,0,0,0,0.1c0,0,0,0,0,0c0,0,0,0.1,0,0.2c0,0.1,0,0.1,0,0.2c0,0.1,0,0.2-0.1,0.3c0,0,0,0.1,0,0.1
		c0,0.1,0,0.2,0,0.4c0,0.2,0,0.4,0,0.5c0,0,0,0,0,0.1c0,0.1,0,0.2,0.1,0.3c0,0,0,0,0.1,0.1c0,0,0,0.1,0,0.1c0.1,0,0.1,0.1,0,0.1
		c0,0,0,0,0,0c0,0,0,0,0,0.1c0,0,0,0,0,0.1c0,0,0,0-0.1,0c0,0,0,0,0,0c0,0.1,0,0.1,0,0.2c0,0,0,0.1,0,0.1c0,0,0,0.1,0,0.1
		c0,0,0,0.1,0,0.1c0,0,0,0.1-0.1,0.1c0,0,0,0.1,0,0.1c0,0.1,0.1,0.1,0.1,0.2c0,0,0,0,0,0c0,0,0,0,0,0c0,0,0,0,0,0.1c0,0,0,0,0,0v0
		c0,0,0,0,0,0c0,0,0,0.1,0.1,0.1c0,0,0,0.1,0,0.1c0,0,0,0,0,0c0,0,0,0,0,0c-0.1,0.1-0.1,0.1-0.1,0.2c0,0,0,0.1,0,0.1c0,0,0,0,0,0
		l0,0l0,0h0c0,0,0,0,0,0c0,0,0,0,0,0.1c0,0,0,0.1,0,0.1l0,0c0,0,0,0.1,0,0.1c0,0,0,0.1,0,0.1c0,0,0,0.1,0.1,0.2c0,0.1,0,0.1-0.1,0
		c-0.1,0-0.1,0-0.1,0c0,0,0,0.1,0,0.1c0,0.1,0,0.1,0,0.1c0,0,0,0,0,0c0,0,0.1,0.1,0.1,0.1c0,0,0,0,0,0c0,0,0,0,0-0.1c0,0,0,0,0,0
		c0,0,0,0,0,0c0-0.1,0.1-0.1,0.1-0.1c0,0,0,0,0.1,0.1c0,0,0,0.1,0,0.1c0,0,0,0.1,0,0.1c0,0,0,0.1,0.1,0.1c0,0,0,0.1-0.1,0.1
		c0,0-0.1,0-0.1,0c-0.1,0-0.2,0-0.2,0.1c0,0.1-0.1,0.1-0.3,0c-0.1-0.1-0.3-0.1-0.4-0.1c-0.1,0-0.2,0-0.3-0.1
		c-0.1-0.1-0.2-0.4-0.2-0.7c0,0,0,0,0-0.1c0,0,0-0.1,0-0.1c0,0,0-0.1,0-0.1c0,0,0-0.1,0-0.1c0-0.1,0-0.1,0-0.1c0,0,0,0,0,0v0v0v0
		l0-0.1v-0.1l0-0.1v0v0c0,0,0-0.1,0-0.1c0,0,0,0,0,0c0,0,0,0,0-0.1c0-0.1,0-0.2,0-0.3c0,0,0-0.1,0-0.1c0,0,0-0.1,0-0.1l0,0
		c0,0,0-0.1,0-0.1v0l0,0c0,0,0,0,0,0l0,0c0,0,0,0,0,0c0-0.2,0-0.3,0.1-0.4c0,0,0-0.1,0-0.1c0-0.1-0.1-0.1,0-0.2c0-0.1,0-0.1,0-0.2
		c0-0.2,0-0.4,0.1-0.6c0,0,0,0,0,0c0-0.1,0-0.2,0-0.3c0,0,0,0,0-0.1c0-0.1,0-0.2,0.1-0.4c0.1-0.2,0.1-0.2,0.1-0.2c0,0,0-0.1,0-0.1
		c0-0.1,0-0.2,0-0.3c0,0,0-0.1,0-0.2c0-0.2,0-0.3,0.1-0.4c0,0,0-0.1,0-0.1c-0.1-0.1,0-0.2,0.1-0.3c0,0,0-0.1,0-0.1c0,0,0-0.1,0-0.2
		l0-0.1l0-0.1c0,0,0-0.1,0-0.1c0,0,0,0,0,0c0,0,0,0,0-0.1c0,0,0-0.1,0-0.1c0-0.1,0-0.1,0-0.1c0,0,0-0.1,0-0.1v0l0,0l0-0.1
		c0,0,0,0,0-0.1l0,0l0,0c0-0.1,0.1-0.1,0.2-0.1c-0.1-0.1-0.1-0.1-0.1-0.2c0-0.1,0-0.1,0-0.2c0,0,0-0.1,0-0.2c0,0,0,0,0-0.1
		c0,0,0-0.1,0-0.1l0-0.2c0-0.1,0-0.2,0.1-0.3C70,7.2,70,7.1,70.1,7c0,0,0-0.1,0-0.2c0-0.1,0-0.1,0.1-0.1c0.1,0,0.2-0.1,0.2-0.2
		c0,0,0,0-0.1,0c0,0,0,0,0,0c-0.1,0-0.1,0-0.1,0c0,0,0-0.1,0-0.1c0,0,0.1-0.1,0.1-0.1c0,0,0-0.1,0.1-0.1c0.1,0,0.1,0,0.1-0.1v0
		c0-0.1,0-0.2-0.2-0.3c0,0,0-0.1,0-0.1s0-0.1,0-0.1c0,0,0,0,0.1,0c0.1,0,0.1,0,0.1-0.1c0,0,0-0.1,0-0.3c0,0,0-0.1,0-0.2
		c0-0.1,0-0.1,0-0.2V4.8c0,0,0,0,0,0v0v0l0-0.1l0-0.1c0-0.2,0-0.4,0.1-0.7c0-0.1,0-0.2,0.1-0.3c0-0.1,0-0.1,0-0.2l0-0.1V3.1l0,0v0
		c0,0,0-0.1,0-0.1c0-0.1,0-0.1,0-0.2c0,0,0,0,0-0.1c0,0,0-0.1,0-0.1c0,0,0,0,0.1-0.1C71,2.3,71,2.2,71,2.1c0-0.1,0-0.2,0-0.3l0,0
		l0-0.1c0-0.1,0.1-0.2,0.1-0.2c0,0,0,0,0-0.1l0-0.1c0,0,0,0,0.1,0c0,0,0.1,0,0.1,0c0,0,0,0,0,0.1l0,0.4v0c0,0.2,0,0.4-0.1,0.5
		c0,0.1,0,0.1,0,0.2c0,0.1,0,0.1,0,0.2c0,0.1,0,0.2,0,0.2l0,0.2c0,0.1,0,0.1,0,0.2C71,3.4,71,3.5,71,3.5c-0.1,0.2-0.1,0.4-0.1,0.6
		c0,0,0,0.1,0,0.1c0,0-0.1,0.1-0.1,0.3c0,0,0,0.1,0,0.2l0,0.2c0,0,0,0,0,0.1c0,0,0,0,0.1-0.1c0,0,0.1,0,0.1,0c0,0,0,0,0,0.1
		c0,0,0,0,0,0c0,0-0.1,0.1-0.2,0.2c-0.1,0.1-0.1,0.1,0,0.2c0,0.1,0,0.1,0,0.2c0,0,0,0.1-0.1,0.2c0,0.1,0,0.1,0.1,0.1
		c0,0.1,0,0.2,0,0.2c0,0,0,0,0,0.1c0,0,0.1,0.1,0,0.1l-0.1,0.2c0,0,0,0.1,0,0.1c0,0,0,0,0,0c0.1,0,0.1,0,0.1,0.1l0,0.3
		c0,0-0.1,0-0.1-0.1c0,0,0,0,0,0c0,0,0,0,0,0c0,0,0,0.1,0.1,0.2C70.7,7.2,70.7,7.2,70.8,7.2C70.8,7.2,70.8,7.2,70.8,7.2
		C70.8,7.2,70.8,7.2,70.8,7.2z M69.1,9.3L69.1,9.3C69.2,9.3,69.2,9.3,69.1,9.3C69.2,9.3,69.2,9.3,69.1,9.3
		C69.2,9.3,69.2,9.3,69.1,9.3L69.1,9.3C69.2,9.2,69.1,9.3,69.1,9.3C69.1,9.3,69.1,9.3,69.1,9.3C69.1,9.3,69.1,9.3,69.1,9.3z
		 M69.3,9.5C69.3,9.4,69.3,9.4,69.3,9.5C69.3,9.4,69.2,9.4,69.3,9.5c-0.1-0.1-0.1-0.1-0.1,0c0,0,0,0,0,0c0,0,0,0.1,0.1,0.1
		c0,0,0,0,0,0.1v0l0,0c0,0,0,0.1,0,0.1c0,0,0,0,0.1,0c0,0,0,0,0,0c0-0.1,0-0.1,0-0.1v0l0,0C69.4,9.6,69.3,9.5,69.3,9.5z M69.2,8.5
		C69.2,8.5,69.2,8.6,69.2,8.5C69.2,8.6,69.2,8.6,69.2,8.5C69.2,8.6,69.2,8.6,69.2,8.5c0,0.1,0,0.2,0.1,0.2c0,0,0.1,0.1,0.1,0
		c0,0,0,0,0-0.1C69.3,8.7,69.3,8.6,69.2,8.5C69.2,8.6,69.2,8.6,69.2,8.5C69.2,8.6,69.2,8.6,69.2,8.5C69.2,8.5,69.2,8.5,69.2,8.5z
		 M69.4,9.9C69.4,9.9,69.4,9.9,69.4,9.9C69.4,10,69.4,10,69.4,9.9C69.4,10,69.4,10,69.4,9.9C69.4,10,69.4,10,69.3,10c0,0,0,0,0,0
		c0,0,0,0,0-0.1c0,0,0,0,0,0c0,0,0,0,0,0C69.3,10,69.3,10,69.4,9.9C69.4,10,69.4,10,69.4,9.9L69.4,9.9z M69.4,15.8c0,0,0-0.1,0-0.2
		C69.4,15.8,69.4,15.8,69.4,15.8z M69.7,11.4C69.7,11.5,69.7,11.5,69.7,11.4C69.7,11.5,69.7,11.5,69.7,11.4
		C69.7,11.4,69.7,11.4,69.7,11.4c0,0,0-0.1,0-0.3c0,0,0-0.1,0-0.1c0,0,0-0.1-0.1-0.1c-0.1,0-0.1-0.1-0.1-0.2c0,0,0-0.1,0-0.1
		c0,0,0,0,0-0.1c0,0,0,0-0.1,0c0,0,0,0,0,0s0,0.1,0,0.1c0,0.1,0,0.1,0,0.1c0,0.1,0,0.1,0.1,0.1c0,0,0,0,0,0.1l0,0.1L69.7,11.4z
		 M69.4,16.5c0,0.1,0,0.1,0.1,0.1C69.5,16.6,69.5,16.5,69.4,16.5z M69.5,9.2L69.5,9.2C69.5,9.2,69.4,9.2,69.5,9.2
		C69.5,9.3,69.5,9.3,69.5,9.2C69.5,9.2,69.6,9.2,69.5,9.2L69.5,9.2z M69.5,16.2L69.5,16.2C69.6,16.3,69.6,16.3,69.5,16.2
		C69.6,16.3,69.6,16.3,69.5,16.2C69.6,16.3,69.6,16.2,69.5,16.2C69.6,16.2,69.6,16.2,69.5,16.2L69.5,16.2z M69.6,9.7L69.6,9.7
		c-0.1,0.1-0.1,0.2,0,0.2c0,0,0,0,0,0c0,0,0,0,0,0C69.7,9.8,69.7,9.8,69.6,9.7C69.7,9.7,69.7,9.6,69.6,9.7z M69.7,10.2
		c0-0.1,0.1-0.1,0.1-0.1c0,0,0.1,0,0-0.1c0,0-0.1,0-0.1,0c0,0-0.1,0-0.1,0.1C69.6,10.2,69.6,10.2,69.7,10.2L69.7,10.2z M69.6,17.5
		L69.6,17.5C69.6,17.5,69.6,17.5,69.6,17.5C69.6,17.5,69.7,17.5,69.6,17.5C69.7,17.5,69.7,17.5,69.6,17.5
		C69.7,17.5,69.7,17.5,69.6,17.5L69.6,17.5z M69.7,13C69.7,13,69.7,13,69.7,13C69.7,13,69.7,13,69.7,13C69.7,13,69.7,13,69.7,13
		L69.7,13z M69.7,10.4C69.7,10.4,69.7,10.4,69.7,10.4C69.7,10.4,69.7,10.4,69.7,10.4C69.8,10.4,69.8,10.4,69.7,10.4
		C69.8,10.4,69.8,10.4,69.7,10.4z M69.9,11.1C69.9,11,69.9,11,69.9,11.1L69.9,11.1C69.8,11.1,69.8,11.1,69.9,11.1
		C69.9,11.1,69.9,11.1,69.9,11.1C69.9,11.1,69.9,11.1,69.9,11.1z M70,17C70,17,70,17,70,17C70,16.9,70,16.9,70,17
		C69.9,16.9,69.9,17,70,17C69.9,17,69.9,17,70,17z M70,17.3c0-0.1,0-0.1-0.1-0.2C70,17.2,70,17.3,70,17.3z M70,13.6L70,13.6
		C70,13.6,70,13.6,70,13.6C70.1,13.5,70.1,13.5,70,13.6c0.1-0.1,0.1-0.1,0.1-0.2c0-0.1,0-0.1,0-0.1c0-0.1,0-0.2,0-0.2
		c0-0.2,0-0.3,0.1-0.4c0,0,0,0,0,0c0,0,0,0,0,0c0,0,0,0,0,0c0,0,0,0.1,0,0.1L70,13c0,0.1-0.1,0.2,0,0.2c0,0,0,0.1,0,0.1L70,13.6
		L70,13.6z M70,15.9L70,15.9c0,0.1,0,0.2,0,0.2c0,0,0,0,0,0c0,0,0,0,0,0C70.2,16,70.1,15.9,70,15.9C70.1,15.9,70.1,15.9,70,15.9
		C70.1,15.9,70,15.9,70,15.9z M70.1,14.8c0.1,0.4,0.2,0.6,0.2,0.7c0-0.1-0.1-0.2-0.1-0.3L70.1,15C70.1,14.9,70.1,14.8,70.1,14.8z
		 M70.4,9C70.4,8.9,70.4,8.9,70.4,9c-0.1-0.1-0.2-0.1-0.2,0C70.2,9,70.3,9,70.4,9C70.4,9,70.4,9,70.4,9z M70.3,12.3
		C70.3,12.4,70.3,12.4,70.3,12.3C70.3,12.4,70.3,12.4,70.3,12.3C70.3,12.4,70.4,12.4,70.3,12.3C70.4,12.4,70.4,12.4,70.3,12.3
		L70.3,12.3z M70.5,8.4C70.5,8.3,70.5,8.3,70.5,8.4c-0.1-0.1-0.1-0.1-0.1,0C70.4,8.4,70.4,8.4,70.5,8.4C70.5,8.4,70.5,8.4,70.5,8.4z
		 M70.5,5.5c0-0.1,0-0.1,0-0.1l0,0l0,0C70.4,5.4,70.5,5.5,70.5,5.5z M70.5,7.8c0,0.1,0,0.1,0,0.1c0,0.1,0,0.2,0,0.2c0,0,0,0,0,0
		c0,0,0,0,0,0c0-0.1,0.1-0.2,0.2-0.5c0-0.1,0-0.1,0-0.2c0,0-0.1,0-0.2,0c-0.1,0-0.1,0,0,0.1C70.6,7.6,70.6,7.7,70.5,7.8z M70.6,12.5
		c0,0,0.1,0,0.1,0c0,0,0,0,0,0C70.8,12.5,70.8,12.5,70.6,12.5C70.7,12.5,70.7,12.5,70.6,12.5L70.6,12.5z M70.7,16.9
		C70.7,16.9,70.7,16.9,70.7,16.9C70.7,16.9,70.7,16.9,70.7,16.9C70.7,16.9,70.7,16.9,70.7,16.9C70.7,16.9,70.7,16.9,70.7,16.9z
		 M70.7,6.7L70.7,6.7L70.7,6.7C70.7,6.8,70.7,6.8,70.7,6.7L70.7,6.7z M70.8,12.8C70.8,12.8,70.8,12.8,70.8,12.8
		C70.8,12.7,70.8,12.7,70.8,12.8C70.7,12.7,70.7,12.7,70.8,12.8C70.7,12.8,70.7,12.8,70.8,12.8z M70.8,17.2L70.8,17.2L70.8,17.2
		C70.8,17.2,70.8,17.2,70.8,17.2C70.8,17.2,70.8,17.2,70.8,17.2C70.8,17.2,70.8,17.2,70.8,17.2z M70.8,6.5L70.8,6.5
		C70.8,6.5,70.8,6.5,70.8,6.5c0.1,0,0.1,0,0.1,0C70.9,6.4,70.9,6.4,70.8,6.5C70.9,6.4,70.9,6.4,70.8,6.5C70.8,6.4,70.8,6.4,70.8,6.5
		C70.8,6.4,70.8,6.4,70.8,6.5z M70.8,12L70.8,12C70.9,12,70.9,12,70.8,12C70.9,11.9,70.9,11.9,70.8,12C70.8,11.9,70.8,11.9,70.8,12z
		 M71,10.3C70.9,10.3,70.9,10.3,71,10.3C70.9,10.4,70.9,10.4,71,10.3C71,10.4,71,10.4,71,10.3C71,10.3,71,10.3,71,10.3z M71,16.3
		c0,0.1,0,0.2,0.1,0.2c0.1,0.1,0.1,0.1,0.1,0.1c0,0,0,0.1,0,0.1c0,0,0,0.1,0,0.1c0.1,0.2,0.1,0.3,0.1,0.4c0,0,0,0,0,0c0,0,0,0,0,0
		c0,0,0,0,0,0c0,0,0,0,0-0.1c0,0,0,0,0-0.1c0,0,0-0.1,0-0.1c0-0.1-0.1-0.3-0.1-0.3C71.3,16.7,71.2,16.5,71,16.3
		C71.1,16.3,71.1,16.3,71,16.3z M71.5,8.8L71.5,8.8c-0.1-0.1-0.2,0-0.2,0c0,0-0.1,0.1-0.1,0.1c0,0,0,0,0,0c0,0,0,0,0.1,0
		c0,0,0,0,0,0h0C71.3,8.9,71.3,8.9,71.5,8.8c-0.1,0.1-0.1,0.1,0,0.1v0h0L71.5,8.8C71.5,8.8,71.5,8.8,71.5,8.8
		C71.5,8.8,71.5,8.8,71.5,8.8z M71.2,5.8L71.2,5.8C71.2,5.8,71.2,5.8,71.2,5.8L71.2,5.8C71.2,5.8,71.2,5.8,71.2,5.8
		C71.2,5.8,71.2,5.8,71.2,5.8z M71.2,0L71.2,0L71.2,0l0.1,0h0L71.2,0L71.2,0C71.3,0,71.3,0,71.2,0l0.1,0L71.2,0L71.2,0
		C71.3,0,71.3,0,71.2,0C71.2,0,71.2,0,71.2,0z M71.3,6.6c0,0,0,0.1,0,0.1C71.3,6.7,71.3,6.7,71.3,6.6C71.3,6.6,71.3,6.6,71.3,6.6
		C71.3,6.6,71.3,6.6,71.3,6.6z M71.3,8.6L71.3,8.6C71.3,8.7,71.3,8.7,71.3,8.6C71.4,8.6,71.3,8.6,71.3,8.6
		C71.3,8.6,71.3,8.6,71.3,8.6C71.3,8.6,71.3,8.6,71.3,8.6z M71.3,9.3L71.3,9.3C71.3,9.4,71.3,9.4,71.3,9.3c-0.1,0.1-0.1,0.1-0.1,0.1
		s0,0,0.1,0C71.4,9.4,71.4,9.4,71.3,9.3C71.4,9.4,71.3,9.3,71.3,9.3z M71.4,6.4c0-0.1,0-0.1,0-0.1C71.3,6.3,71.3,6.3,71.4,6.4
		C71.3,6.4,71.3,6.4,71.4,6.4C71.4,6.4,71.4,6.4,71.4,6.4z M71.4,6L71.4,6C71.4,5.9,71.4,5.9,71.4,6C71.4,5.9,71.3,6,71.4,6
		C71.3,6,71.3,6,71.4,6z M71.5,0.8L71.5,0.8L71.5,0.8c0-0.1,0-0.1,0-0.1V0.6V0.4c0,0,0-0.1,0-0.1c0,0,0,0,0,0c0,0,0,0,0,0
		c0,0,0,0.1,0,0.1c0,0,0,0.1,0,0.1v0.1v0v0L71.5,0.8L71.5,0.8C71.4,0.8,71.4,0.8,71.5,0.8L71.5,0.8z M71.4,2.4
		C71.4,2.4,71.4,2.4,71.4,2.4C71.5,2.4,71.5,2.4,71.4,2.4C71.5,2.4,71.5,2.3,71.4,2.4L71.4,2.4z M71.6,6.8
		C71.6,6.8,71.6,6.8,71.6,6.8C71.7,6.9,71.7,6.8,71.6,6.8C71.7,6.8,71.7,6.8,71.6,6.8C71.6,6.8,71.6,6.8,71.6,6.8z M71.7,6.5
		C71.7,6.5,71.7,6.6,71.7,6.5C71.7,6.6,71.7,6.6,71.7,6.5C71.7,6.5,71.7,6.5,71.7,6.5L71.7,6.5z M71.7,1C71.7,1.1,71.7,1.1,71.7,1
		C71.7,1.1,71.8,1.1,71.7,1C71.8,1.1,71.8,1.1,71.7,1C71.8,1.1,71.8,1.1,71.7,1C71.8,1,71.8,1,71.7,1L71.7,1z M71.8,2.7
		C71.8,2.6,71.8,2.6,71.8,2.7c0-0.1,0-0.1,0-0.1c0,0,0,0,0,0C71.7,2.7,71.7,2.7,71.8,2.7z M71.8,2.1c0-0.1,0-0.1,0-0.2l0,0
		c0,0,0,0,0-0.1c0,0,0,0,0,0c0,0,0,0,0,0c0,0,0,0,0,0v0C71.8,1.9,71.8,2,71.8,2.1z M71.9,3.8C71.9,3.8,71.9,3.8,71.9,3.8
		C71.9,3.7,71.9,3.7,71.9,3.8C71.9,3.7,71.9,3.7,71.9,3.8C71.8,3.8,71.9,3.8,71.9,3.8z M71.9,3.3C71.9,3.3,71.9,3.3,71.9,3.3
		c0,0,0,0.1,0,0.1c0,0,0,0,0,0.1c0,0,0,0.1,0,0.1c0,0,0,0,0.1-0.1l0,0c0,0,0,0,0,0C72,3.4,72,3.4,71.9,3.3L71.9,3.3L71.9,3.3
		C72,3.2,72,3.1,72,3.1C71.9,3.1,71.9,3.1,71.9,3.3z"/>
</g>
</svg>
