<?xml version="1.0" encoding="utf-8"?>
<!-- Generator: Adobe Illustrator 18.1.1, SVG Export Plug-In . SVG Version: 6.00 Build 0)  -->
<!DOCTYPE svg PUBLIC "-//W3C//DTD SVG 1.1//EN" "http://www.w3.org/Graphics/SVG/1.1/DTD/svg11.dtd">
<svg version="1.1" id="Layer_1" xmlns="http://www.w3.org/2000/svg" xmlns:xlink="http://www.w3.org/1999/xlink" x="0px" y="0px"
	 width="963.9px" height="2783.2px" viewBox="-24.3 1176.7 963.9 2783.2" enable-background="new -24.3 1176.7 963.9 2783.2"
	 xml:space="preserve">
<g>
	<circle fill="#FFFFFF" cx="459.6" cy="1575.4" r="108.4"/>
	<path fill="#FFFFFF" d="M459.6,1176.7c-263.2,0-480,216.8-480,480v774.2c0,263.2,216.8,480,480,480s480-216.8,480-483.9v-774.2
		C939.6,1389.6,722.8,1176.7,459.6,1176.7z M459.6,2818c-212.9,0-387.1-174.2-387.1-387.1v-774.2c0-212.9,174.2-387.1,387.1-387.1
		s387.1,174.2,387.1,387.1v774.2C846.7,2643.8,672.5,2818,459.6,2818z"/>
	<path fill="#FFFFFF" d="M862.2,3015.4L459.6,3418L57,3015.4c-19.4-19.4-46.5-19.4-65.8,0c-7.7,7.7-15.5,19.4-15.5,31
		c0,11.6,3.9,23.2,15.5,31l433.5,433.5c7.7,7.7,19.4,15.5,31,15.5c11.6,0,23.2-3.9,31-15.5l437.4-429.7c19.4-19.4,19.4-46.5,0-65.8
		C908.6,2996.1,877.7,2996.1,862.2,3015.4z"/>
	<path fill="#FFFFFF" d="M862.2,3449l-402.6,402.6L57,3449c-19.4-19.4-46.5-19.4-65.8,0c-7.7,7.7-15.5,19.4-15.5,31
		s3.9,23.2,15.5,31l433.5,433.5c7.7,7.7,19.4,15.5,31,15.5c11.6,0,23.2-3.9,31-15.5l437.4-429.7c19.4-19.4,19.4-46.5,0-65.8
		C908.6,3429.6,877.7,3429.6,862.2,3449z"/>
</g>
</svg>
