<?xml version="1.0" encoding="utf-8"?>
<!-- Generator: Adobe Illustrator 19.1.0, SVG Export Plug-In . SVG Version: 6.00 Build 0)  -->
<svg version="1.1" id="Layer_1" xmlns="http://www.w3.org/2000/svg" xmlns:xlink="http://www.w3.org/1999/xlink" x="0px" y="0px"
	 viewBox="0 0 72 49.2" style="enable-background:new 0 0 72 49.2;" xml:space="preserve">
<style type="text/css">
	.st0{fill:#FFFFFF;}
</style>
<g>
	<path class="st0" d="M6.3,18.3c-0.1,0.1-0.1,0.2-0.1,0.2c-0.2,0.4-0.1,0.7,0.3,0.9c0.1,0,0.1,0.1,0,0.2c0,0,0,0.1-0.1,0.1
		c0.1,0,0,0-0.2,0c-0.1,0-0.2,0.1-0.2,0.2c0,0,0,0.2,0,0.4c0,0.2,0,0.3,0,0.3c0,0,0.1,0.1,0.3,0c0.1,0,0.1,0,0.1,0
		c0.1,0,0.1,0.1,0.1,0.1c0,0.1,0,0.1-0.1,0.1c0,0-0.1,0.1-0.3,0c-0.1,0-0.2,0-0.3,0.2c0,0.1-0.1,0.2-0.1,0.2c0,0.3,0,0.5,0,0.5
		c0,0,0,0.2,0,0.6c0,0.2,0,0.4,0,0.5c0,0.2,0.1,0.3,0.2,0.4c0.2,0.1,0.3,0.3,0.2,0.6c-0.1,0.3-0.1,0.6,0,0.9c0,0.1,0,0.3,0,0.4
		c0,0.2-0.1,0.4-0.1,0.7c0,0.3-0.1,0.6-0.1,0.7C6,26.9,6,27.1,6,27.5c0,0.6-0.1,1.1-0.3,1.5c0,0.1-0.1,0.2-0.1,0.5
		c-0.1,0.8-0.2,1.3-0.2,1.5c0-0.1-0.1,0.4-0.4,1.5c-0.2,0.9-0.3,1.3-0.3,1.2c-0.1,0.3-0.1,0.5-0.1,0.7c0,0.2,0,0.4-0.1,0.7
		c-0.1,0.1-0.1,0.3-0.1,0.4c0,0.2-0.1,0.8-0.3,1.8C4,37.5,4,37.7,4,37.8c0.1,0.2,0.1,0.3-0.1,0.4c0,0-0.1,0.1-0.1,0.3l0,0.4
		c0,0.2,0,0.3,0,0.4c0,0.2,0,0.4-0.1,0.5c-0.1,0.1-0.1,0.2,0,0.3c0.1,0.1,0.2,0.2,0.2,0.3c0,0.1,0,0.2,0,0.4c0,0.7-0.1,1.1,0,1
		c0,0.1,0,0.1,0,0.2c0,0.3,0.1,0.6,0.1,0.9c0,0.2,0,0.5,0,0.9l0,0.4c0,0.3,0,0.5,0,0.5c0,0.1,0,0.1,0,0.2L4,45v0l0,0.1
		c0,0,0,0.1,0,0.1v0.2c0,0.2,0,0.3,0,0.4l0,0.2l0,0.1l0,0l0,0.1v0c0,0.1,0,0.2-0.1,0.3c0,0.1,0,0.2-0.1,0.2c0,0,0,0.2,0,0.3
		c0,0.3,0,0.6,0,0.8v0.2l0,0.2c0,0.1,0,0.2,0,0.2c0,0,0,0.1-0.1,0.2c-0.1,0.2-0.2,0.3-0.3,0.3c-0.1,0.1-0.2,0.1-0.2,0
		c-0.1-0.2-0.3-0.3-0.5-0.4c-0.1,0-0.2-0.1-0.3-0.3l-0.1-0.4C2,47.9,1.9,47.9,1.7,48c-0.1,0.1-0.2,0.1-0.3,0.1c-0.1,0-0.2,0-0.3-0.1
		c0,0-0.1-0.1-0.1-0.2c0,0,0-0.1,0-0.2c0-0.1,0-0.2,0-0.4c0-0.2-0.1-0.4-0.1-0.5c0-0.3,0-0.5,0-0.4v0c0,0,0,0,0,0h0c0,0,0,0,0,0
		c0,0,0,0,0,0c0,0.1,0,0.1,0,0c0,0,0,0,0,0c0,0,0,0.1,0,0.3c0,0.6-0.1,0.9-0.1,0.9c0,0.1-0.1,0.1-0.2,0.1c0,0-0.1,0-0.1,0
		c0,0,0,0-0.1-0.1C0.1,47.3,0.1,47.2,0,47c0-0.2,0-0.5,0-0.7c0,0,0-0.1,0-0.1c0,0,0-0.1,0-0.1s0,0,0,0v0v0c0,0,0,0,0-0.1v-0.2
		c0-0.1,0-0.3,0-0.4c0-0.2,0-0.4,0-0.5c0-0.1,0.1-0.2,0.1-0.2c0-0.1,0.1-0.2,0.1-0.2c0-0.1,0.1-0.1,0.1-0.2c0.1-0.1,0.1-0.1,0,0
		c0,0,0-0.1,0-0.1c0-0.1,0-0.1,0-0.2c0.1-0.3,0.1-0.4,0-0.6c0-0.1-0.1-0.2-0.1-0.3c0-0.1,0-0.2,0-0.4l0-0.4c0-0.1,0.1-0.1,0.2,0h0.1
		c0-0.3,0-0.5,0-0.6c0-0.1,0-0.2-0.1-0.2c-0.2,0-0.3-0.2-0.2-0.4c0-0.1,0-0.3-0.1-0.5c-0.1-0.1,0-0.3,0.1-0.3c0.1-0.1,0.1-0.1,0-0.2
		c-0.1-0.1-0.1-0.2-0.1-0.4c0-0.3,0-0.5,0-0.6c0,0,0-0.1,0-0.5c0-0.2,0-0.3,0-0.5c0,0,0-0.1,0-0.1c0.1-0.2,0.1-0.6,0.2-1.1
		c0-0.4,0.1-0.8,0.2-1C1,35.4,1.1,35.2,1.1,35c0-0.3,0.1-0.9,0.2-1.9c0.1-0.5,0.2-0.8,0.3-1c0-0.1,0.1-0.3,0.1-0.6
		c0-0.7,0.1-1.5,0.3-2.2c0-0.1,0-0.2,0-0.5c0-0.7,0.1-1.3,0.2-1.8c0-0.2,0.1-0.3,0-0.4c0,0.2,0-0.3,0-1.4c0-0.1,0-0.2,0.1-0.4
		c0.1-0.2,0.1-0.3,0.1-0.4c0-0.6,0-0.8,0-0.7c0-0.1,0.1-0.7,0.2-1.8c0-0.2,0.1-1.1,0.4-2.7c0.1-0.3,0.1-0.6,0.1-0.8
		c0-0.3,0.1-0.4,0.1-0.5c0.1-0.2,0.2-0.4,0.3-0.8c0.1-0.4,0.2-0.6,0.3-0.8c0,0,0-0.1,0-0.1c0.1-1.2,0.2-1.8,0.2-1.8
		c0-0.2,0-0.3,0.1-0.4c0.1-0.1,0.1-0.3,0.2-0.5c0.2-1.7,0.4-2.7,0.4-3C4.9,10.4,5,9.9,5.2,9c0.1-0.4,0.2-0.9,0.3-1.4h0l0,0.2
		c0,0.1-0.1,0.2-0.1,0.3c0,0,0,0.1-0.1,0c0,0,0,0,0-0.1c0-0.1,0-0.3,0-0.4l0,0c0.4,0,0.6,0,0.6,0C5.7,8.1,5.6,8.8,5.5,9.7
		c-0.1,1-0.2,1.7-0.2,2.1c0,0.1-0.1,0.8-0.2,2.2c0.1-0.1,0.2-0.2,0.2-0.4c0.1-0.2,0.1-0.3,0.1-0.3c0,0,0.1,0,0.1,0
		c0.1,0,0.1,0,0.1,0.1c0,0.3,0.1,0.5,0.1,0.5c-0.1,0,0-0.2,0.2-0.4c0.1-0.1,0-0.2-0.1-0.4c0.1,0,0.1,0,0.2,0C6,12.9,6.1,12.8,6,12.8
		c-0.1-0.1-0.2-0.2-0.1-0.3c0.1-0.1,0.2-0.4,0.3-0.8c0-0.1,0.1-0.3,0.2-0.6c0.1-0.2,0.2-0.4,0.2-0.6c0.1,0,0.1,0.1,0.1,0.2
		c0,0.8-0.1,1.5-0.2,2.1c0,0.2-0.1,0.9-0.3,2.1c0,0.2,0,0.3,0.1,0.4c0,0,0.1,0,0.1,0c0,0,0.1,0,0.1-0.1c0,0,0-0.1,0-0.2
		c0-0.1,0-0.2,0-0.2c0-0.1,0.1-0.2,0.2-0.2c0.1,0,0.1,0.1,0.1,0.2c0,0,0,0.1,0,0.3c0,0.4-0.1,0.6-0.5,0.6c-0.1,0-0.2,0-0.2,0.1
		c0,0.2,0,0.3,0.1,0.4c0.1,0.1,0.2,0.2,0.2,0.2c0.2,0,0.3,0.1,0.2,0.3c-0.1,0.3-0.2,0.5-0.4,0.4c-0.1,0-0.1,0.1-0.1,0.2L6.3,18.3
		L6.3,18.3z M0.6,41.6L0.6,41.6c0.1,0.1,0.1,0.1,0.2,0C0.7,41.5,0.7,41.5,0.6,41.6L0.6,41.6z M2.6,13.4c-0.1-0.2-0.2-0.4-0.3-0.3
		c0,0,0,0,0,0C2.2,13.2,2.3,13.3,2.6,13.4L2.6,13.4C2.6,13.4,2.6,13.4,2.6,13.4z M4.7,18.8c0,0.1,0,0.1,0,0.2l0.1,0
		C4.8,18.8,4.8,18.8,4.7,18.8C4.7,18.7,4.7,18.7,4.7,18.8C4.7,18.7,4.7,18.7,4.7,18.8z M4.8,17.7c-0.1,0.2-0.1,0.4,0,0.6
		c0-0.3,0.1-0.5,0.3-0.6c0,0,0,0,0-0.1c0,0-0.1,0-0.1,0C4.9,17.5,4.8,17.6,4.8,17.7z M4.9,16.3c0,0,0,0.1,0,0.1c0,0,0,0,0,0.1
		c0,0,0,0.1,0.1,0c0,0,0.1-0.1,0.1-0.1C5,16.4,5,16.3,4.9,16.3C4.9,16.3,4.9,16.3,4.9,16.3z M10,25.2c0,0,0-0.1,0-0.1
		c0-0.1,0-0.1,0-0.1c0-0.1-0.1-0.1-0.2-0.1c-0.1,0-0.2,0-0.3-0.1c0,0,0,0,0,0c-0.1,0-0.2-0.1-0.3-0.1l0-0.1C9,24.4,9,24.3,8.9,24
		c0,0,0-0.1,0-0.1c0.1,0,0.1,0,0.1,0c0.1,0.1,0.2,0.1,0.4,0.1c0,0,0.1,0,0.1,0c0,0,0,0,0,0c-0.1,0-0.2-0.1-0.4-0.1
		c-0.1-0.1-0.3-0.1-0.4-0.1c-0.1,0-0.1,0-0.1-0.1c0-0.1,0-0.2,0-0.3l0-0.1c0-0.1,0-0.1,0-0.1c0,0,0-0.1,0-0.1c0,0,0-0.1,0.1-0.1
		c0,0,0.1,0,0.1,0c0.1,0,0.1,0.1,0.2,0.2c0.1,0.1,0.2,0.2,0.3,0.3c0,0,0.1,0,0.1,0c0.1,0,0.1-0.1,0.1-0.1c0-0.1,0-0.2-0.1-0.3
		c-0.1-0.2-0.1-0.3-0.1-0.3c0-0.1-0.1-0.1-0.2-0.1c-0.1,0-0.2,0-0.3,0c0.1,0,0,0-0.3,0c-0.1,0-0.1,0-0.1-0.1c0-0.1,0.1-0.2,0.3-0.2
		c0,0,0,0,0.1,0h0.1c0.1,0,0.1,0,0.2-0.1c0,0,0-0.1,0-0.1c-0.1-0.3-0.2-0.5-0.2-0.6c0,0,0,0,0,0c0,0-0.1,0-0.1,0
		c-0.2,0.1-0.3,0.1-0.3,0c0-0.1-0.1-0.2-0.3-0.2c-0.1,0-0.1,0-0.2,0c-0.3,0-0.5-0.1-0.5-0.3c0,0,0,0,0,0c-0.1-0.1,0-0.2,0.1-0.3
		c0.1,0,0.2,0,0.3,0c0,0,0.1,0.1,0.1,0.1c0.1,0.1,0.1,0.1,0.2,0c0.2-0.1,0.3-0.2,0.2-0.2C8.1,20.3,8,20.1,7.8,20
		c-0.1-0.1-0.2-0.2-0.2-0.3c0-0.1-0.1-0.1-0.1-0.2c-0.1-0.1-0.2-0.2-0.2-0.5c0.1-0.2,0-0.4-0.1-0.5c-0.1-0.1-0.1-0.3-0.2-0.4
		c0,0.1-0.1-0.1-0.2-0.5c0-0.1-0.1-0.2-0.1-0.4c-0.1-0.3-0.1-0.5-0.2-0.5c0,0,0-0.1,0-0.2c0.1-0.2,0.1-0.3,0-0.5
		c-0.1-0.1-0.1-0.2-0.1-0.4c0-0.3-0.1-0.5-0.2-0.6c-0.1,0-0.1-0.1,0-0.1c-0.1,0.1,0-0.1,0.1-0.5c0-0.1,0-0.1-0.2-0.2
		c-0.1-0.1-0.1-0.1,0-0.2c0.2-0.2,0.2-0.4,0-0.5c0,0-0.1-0.1-0.1-0.1c0-0.1-0.1-0.1-0.2-0.1c0,0-0.1,0.2-0.2,0.5
		c0,0-0.1,0.1-0.1,0.1c-0.1,0-0.1,0-0.1-0.1c0-0.2,0-0.3,0.2-0.4c0.1-0.1,0.1-0.2,0-0.3C5,13,5,12.9,5.1,12.6c0.1-0.2,0-0.4-0.2-0.5
		C4.8,12,4.8,11.9,5,11.9c0.1,0,0.2-0.1,0.2-0.2c0-0.1,0-0.2,0-0.3c0-0.1,0-0.2,0-0.3c0,0,0-0.1,0-0.1c0,0,0-0.1,0-0.1
		c0,0,0-0.1,0-0.1c0,0,0.1,0,0.1,0c0,0,0.1,0,0.1,0c0,0,0,0.1,0,0.2c0,0,0,0.1,0,0.1c0,0,0.1,0.1,0.1,0.2l0.1-0.1l0-0.5
		c0,0,0-0.1-0.1-0.3c0,0,0-0.1,0.1-0.1c0,0,0.1,0,0.1,0c0.1,0,0.1,0.1,0.2,0.3c0.1,0.2,0.1,0.3,0.2,0.3c0.1-0.1,0.1-0.2,0.1-0.3
		c0-0.1,0-0.3,0-0.5c0-0.2,0-0.4,0-0.5c0-0.1,0-0.2,0-0.3c0-0.1,0-0.2,0.1-0.3c0,0,0-0.1,0-0.2c0-0.1,0-0.1,0.1-0.1
		c0,0,0.1,0,0.1,0.1c0,0,0.1,0.1,0.2,0c0.1,0,0.1,0,0.1,0C6.8,8.9,6.9,9,6.9,9C7,9.1,7.1,9.1,7.1,9.1c0,0,0.1-0.1,0.1-0.1
		c0,0,0-0.1,0-0.1c0,0,0-0.1,0-0.1c0,0,0,0,0-0.1c0,0,0.1,0,0.1,0.1c0,0,0.1,0,0.1,0.1c0,0,0.1,0.1,0.1,0.2c0,0.1,0.1,0.1,0.1,0.2
		c0,0,0,0.1,0.1,0.1c0,0,0,0,0,0c0,0,0.1,0.1,0.1,0.1c0-0.1,0-0.1-0.1-0.2L7.8,9.1c0,0,0-0.1,0.2-0.1C8,9,8.1,9,8.1,9l0,0.1l0.1,0.1
		l0,0.1l0,0.1c0.1,0.1,0.1,0.2,0.1,0.2l0.1,0.2c0,0,0.1,0.2,0.2,0.5c0,0.1,0,0.1,0.1,0.1c0,0,0,0,0.1,0c0.1,0,0.1,0,0.1-0.1
		c0-0.3,0-0.5,0-0.7c0-0.1-0.1-0.2-0.1-0.3c0-0.1,0-0.1,0-0.2l0-0.1c0,0,0,0,0-0.1c0,0,0-0.1,0-0.1c0,0,0-0.1,0-0.1
		c0,0,0-0.1-0.1-0.1c0,0,0,0,0,0c0,0,0,0,0.1,0c0.1,0,0.1,0,0.1,0l0,0l0,0.1l0.1,0.1l0,0.1c0,0,0,0.1,0,0.1l0,0.1
		c0,0.1,0.1,0.1,0.2,0.2c0.1,0,0.1,0.1,0.1,0.2c0,0,0,0.1,0,0.2c0,0.2,0,0.4,0,0.8c0,0,0,0.1,0,0.1c0,0.1,0,0.1,0,0.1V11v0.2
		c0,0.1,0,0.1,0,0.2c0,0.1,0,0.1,0,0.2c0,0.1,0,0.1,0,0.2c0,0,0,0.1,0,0.1c0,0,0,0.1,0.1,0.1c0,0,0.1,0.1,0.1,0.2c0,0,0.1,0.1,0.3,0
		c0,0,0.1,0,0.1,0c0.1,0,0.1,0,0.1,0.1l0,0c-0.2,0.1-0.3,0.2-0.3,0.3c0,0,0,0.1,0,0.3c0,0,0,0.1,0,0.1c0,0,0,0.1,0,0.1
		c0,0,0,0,0.1,0c0.1,0,0.1,0,0.1-0.1c0,0,0-0.1,0-0.1c0,0,0-0.1,0-0.1c0,0,0.1-0.1,0.1-0.1c0,0,0.1,0,0.1,0c0,0,0,0.1,0,0.1
		c0,0,0,0.1,0,0.1c-0.1,0.1-0.1,0.3-0.2,0.4c0,0.1-0.1,0.1-0.1,0.2c0,0.1,0,0.1,0,0.1c0,0.4,0,0.7,0,0.7c0,0.3,0.1,0.6,0.1,0.9
		l0,0.2l0,0.2c0,0.2,0.1,0.3,0.2,0.5c0,0.2,0.1,0.5,0.3,0.9l0.1,0.4c0,0,0,0.1,0.1,0.2l0,0.2c0.2,0.5,0.4,0.9,0.5,1.1
		c0,0.1,0.1,0.1,0.2,0.3c0.1,0.1,0.1,0.1,0,0.2c-0.1,0.1,0,0.1,0.1,0.2c0.2,0.2,0.4,0.4,0.4,0.7c0,0.1,0,0.2,0,0.2
		c0,0,0,0.1,0.1,0.1c0,0,0,0,0.1,0c0,0,0.1,0.1,0.1,0.1c0.1,0.1,0.2,0.2,0.2,0.4c0-0.1,0,0,0.1,0.4c0,0.1,0.1,0.2,0.1,0.3
		c0,0.1,0.1,0.1,0.1,0.2c0,0,0,0.1,0,0.1c0,0,0,0,0,0.1l0,0c0,0.5,0,0.7,0.1,0.6c0,0.1,0,0.2,0.1,0.2c0.1,0.1,0.2,0.2,0.2,0.4
		c0,0,0-0.1,0-0.1c0,0,0-0.1,0-0.1v0c0,0,0,0.2,0.1,0.4l0,0.1c0,0,0,0.1,0,0.1c0,0.1,0.1,0.2,0.1,0.2c0,0,0.1,0.1,0.1,0.2
		c0.1,0.1,0.2,0.1,0.2,0.2c0,0,0,0,0.1,0c0,0,0.1-0.1,0.1-0.1c0,0,0-0.1,0-0.1l0-0.1c0-0.1,0-0.2-0.1-0.2c-0.1,0-0.1-0.1-0.1-0.2
		c0-0.1,0-0.1,0.1-0.2c0,0,0.1-0.1,0.1-0.1c0,0,0.1,0,0.1,0c0,0,0,0,0,0c0,0,0,0.1,0,0.1c0,0,0,0.1,0,0.1c0,0.1,0,0.2,0,0.2
		c0,0.1,0.1,0.1,0.4,0l0,0h0c0.1,0,0.2,0,0.2,0c0,0-0.1,0.1-0.2,0.1c-0.1,0-0.2,0.1-0.2,0.2c0,0.1,0,0.1,0.1,0.2
		c0,0.1,0.1,0.1,0.2,0c0,0,0.1,0,0.2,0c0.1,0,0.1,0.1,0,0.1c0,0-0.1,0.1-0.2,0.1c-0.1,0-0.1,0.1-0.1,0.2c0,0.1,0,0.2,0,0.2
		c0.1,0.2,0.1,0.2,0.2,0.1c0,0,0-0.1,0-0.2c0,0,0-0.1,0-0.1c0,0,0-0.1,0.1-0.1c0.1,0,0.1,0,0.1,0c0,0.1,0.1,0.2,0.3,0.5
		c0,0,0.1,0.1,0.1,0.1c0,0,0,0.1,0,0.1c0,0.1,0.1,0.1,0.1,0.2l0,0.2c0,0.1,0,0.1,0,0.1c0,0,0,0.1-0.1,0.2c0,0.1-0.1,0.1,0,0.2
		c0,0,0.1,0.1,0.1,0.2c0,0.1,0,0.2-0.1,0.3C15,27,15,27.1,15.2,27.1c0.1,0,0.2,0.1,0.1,0.2c0,0.1,0,0.1,0,0.1c0.1,0,0.1,0.2,0,0.4
		c0,0,0,0.1,0,0.2c0,0.2,0,0.5-0.1,0.7c0,0.1,0,0.1,0,0.2c-0.2,0.3-0.3,0.5-0.3,0.8c0,0.1,0,0.2,0,0.3c0,0,0,0.1-0.1,0.1
		c-0.2,0-0.2,0-0.2,0.1c0,0.1,0.1,0.2,0,0.4c0,0.2,0,0.3,0,0.4c0,0.1,0,0.1,0,0.2c-0.1,0.1-0.1,0.1-0.1,0.2c0,0,0,0.1,0,0.2l0.1,0.2
		c0,0.1,0,0.1,0,0.1c0,0.1,0,0.2,0,0.3c0,0.1,0.1,0.4,0.3,0.9c0,0,0,0.1,0.1,0.2c0,0.1,0.1,0.1,0.1,0.2l0.2,0.4
		c0.1,0.2,0.1,0.3,0.1,0.2l0.1,0.2c0.1,0.2,0.2,0.6,0.3,1c0,0,0,0.1,0.1,0.2c0,0.1,0.1,0.1,0.1,0.2c0,0,0,0.1,0,0.2
		c0,0.1,0,0.1,0,0.2c0,0,0,0.1,0.1,0.3l0.1,0.1l0.1,0.2c0.1,0.2,0.1,0.3,0.2,0.4l0.1,0.4c0,0.1,0.1,0.1,0.1,0.2
		c0.1,0.1,0.2,0.2,0.1,0.4c0,0.1,0,0.2,0,0.3c0,0,0,0.1,0.1,0.3l0.1-0.1c0,0,0.1,0,0.1,0c0.1,0,0.1,0,0.1,0c0,0.2,0,0.4,0,0.4
		c0,0.2,0,0.3,0,0.4c0,0.1,0.1,0.3,0.2,0.4c0,0.1,0,0.2,0.1,0.3c0,0.1,0,0.2,0,0.3c0,0,0,0.1,0,0.3c0.1,0.5,0.1,0.7,0.1,0.6
		c0,0,0,0.1,0,0.1c0,0.1-0.1,0.2-0.3,0.2c-0.1,0-0.1,0-0.2,0.1c0,0-0.1,0.1-0.2,0.3c0,0,0,0-0.1,0c0,0-0.1,0-0.1,0c0,0,0,0,0-0.1
		c0,0,0-0.1,0-0.1c0-0.1-0.1-0.1-0.2,0c0,0,0,0-0.1,0.1c0,0-0.1,0.1-0.1,0.1c-0.1,0.1-0.2,0.1-0.2,0c0-0.1-0.1-0.2-0.2-0.2
		c-0.1,0-0.1,0-0.2-0.1c0-0.1,0-0.1,0-0.2c0-0.1-0.1-0.2-0.3-0.2c-0.2,0-0.3,0-0.3-0.2c0,0,0-0.1,0-0.1c-0.1-0.1-0.1-0.2-0.1-0.5
		c0-0.1,0-0.2-0.2-0.3c-0.1-0.1-0.2-0.2-0.2-0.2c-0.1-0.1-0.1-0.2,0-0.2c0,0,0,0-0.1-0.1c0,0-0.1-0.1,0-0.1c0,0,0.1-0.2,0-0.5
		c0,0,0,0,0-0.2c0-0.1,0-0.2,0.1-0.2c0.1,0,0.2,0,0.2,0.1c0,0,0,0.1,0,0.1c0,0.1,0.1,0.1,0.1,0.1c0,0,0.1,0.1,0.1,0.1c0,0,0,0,0.1,0
		c0,0,0.1,0,0.1-0.1c0,0,0-0.1,0-0.1c-0.1-0.2-0.1-0.4-0.1-0.7c0-0.1-0.1-0.1-0.2,0c-0.1,0-0.1,0-0.1,0c-0.2,0.1-0.4,0.2-0.4,0.2
		c-0.1,0-0.2-0.1-0.1-0.3c0-0.1,0.1-0.1,0.1,0c0.1,0.1,0.2,0.1,0.1,0.1c0.1,0,0.2,0,0.3-0.1c0.1,0,0.1-0.1,0-0.1c0,0,0,0,0,0l0-0.3
		c0,0,0-0.1,0-0.2c0-0.1,0-0.1-0.2-0.1c0,0-0.1,0-0.1,0c0,0,0-0.1-0.1-0.2c0-0.1-0.1-0.2-0.1-0.2c0,0,0-0.1,0-0.1
		c0.1-0.1,0.1-0.2,0-0.4c-0.2-0.4-0.4-0.7-0.4-0.7c-0.1-0.2-0.2-0.5-0.3-0.8l-0.1-0.3l-0.1-0.3c-0.1-0.2-0.1-0.4-0.2-0.6
		c0,0.2,0-0.1-0.2-0.8c0,0,0-0.1,0-0.2c0-0.1,0-0.1,0-0.1c-0.2,0-0.3-0.1-0.3-0.2c0,0,0-0.1,0-0.4c0-0.1-0.1-0.1-0.2-0.1
		c-0.1,0-0.2,0-0.2-0.1C12,32.1,12,32,12,32c0-0.1-0.1-0.1-0.1-0.2c-0.1-0.1-0.1-0.3-0.2-0.4c0-0.1-0.1-0.1-0.1-0.3
		c-0.1-0.1-0.1-0.2-0.1-0.3c0,0,0,0-0.1-0.1c-0.1,0-0.1-0.1-0.1-0.1c0.1-0.1,0-0.2-0.2-0.4c-0.2,0.1-0.4,0.1-0.5,0.1
		c-0.3-0.1-0.4-0.3-0.3-0.5c0,0,0,0,0.3,0c0.1,0,0.1,0,0.1-0.1c0-0.4-0.1-0.7-0.1-0.9c0,0,0-0.1-0.1-0.1c-0.1-0.1-0.1-0.2-0.1-0.3
		c0-0.1,0-0.2-0.1-0.4c-0.1-0.1,0-0.2,0.1-0.3c0.1-0.1,0.2-0.2,0.1-0.2c-0.1-0.1-0.1-0.1-0.1-0.1c0-0.2,0-0.3-0.1-0.4
		c0-0.1-0.1-0.1-0.2-0.2c-0.1,0-0.1-0.1-0.2-0.2c-0.1-0.1-0.1-0.2,0.2-0.4c0.2-0.1,0.2-0.2,0.2-0.3C10.3,25.8,10.2,25.6,10,25.2
		L10,25.2z M5,14.5c-0.1,0.2-0.2,0.6-0.1,1.2c0.2-0.5,0.2-0.8,0.2-1C5.1,14.6,5.1,14.6,5,14.5z M5.4,9L5.3,8.7c0,0-0.1,0-0.1,0
		c0,0-0.1,0-0.1,0c0,0.1,0,0.3,0.1,0.4c0,0,0,0,0.1,0c0,0,0.1,0,0.1,0C5.4,9.1,5.4,9.1,5.4,9z M5.2,10.5L5.2,10.5
		c-0.1,0-0.1,0-0.1,0C5.1,10.6,5.1,10.6,5.2,10.5C5.2,10.6,5.2,10.6,5.2,10.5C5.2,10.6,5.2,10.6,5.2,10.5z M5.4,14.9L5.4,14.9
		L5.6,15c0-0.1,0-0.3,0.1-0.5c0,0,0,0,0,0c0,0,0,0,0,0c0,0.4-0.1,0.7-0.1,0.7S5.5,15,5.4,14.9z M5.8,13c-0.1-0.1-0.1-0.2-0.1-0.2
		c0-0.1-0.1-0.1-0.1-0.1c0,0-0.1,0.1,0,0.1c0,0.1,0,0.1,0.1,0.1C5.5,13,5.6,13,5.8,13z M5.6,15.3C5.5,15.3,5.5,15.3,5.6,15.3
		c-0.1,0.1-0.1,0.1,0,0.1c0.1,0,0.1,0,0.1-0.1C5.7,15.3,5.6,15.2,5.6,15.3z M5.7,12.5c0,0,0-0.1,0-0.5H5.6c0,0.3,0,0.5,0,0.5
		C5.5,12.6,5.5,12.6,5.7,12.5C5.7,12.5,5.7,12.5,5.7,12.5z M5.6,12c0,0.1,0.1,0.1,0.1,0.1c0,0,0-0.1,0-0.1c0-0.1,0-0.1-0.1-0.1
		C5.6,11.9,5.6,11.9,5.6,12z M5.6,16.2c0,0.1,0,0.1,0.1,0.2c0.1,0,0.2,0,0.3,0c0,0,0-0.1,0-0.2c-0.1-0.1-0.1-0.1-0.2-0.1
		c0,0-0.1,0-0.1,0C5.6,16.1,5.6,16.1,5.6,16.2C5.6,16.1,5.6,16.2,5.6,16.2z M6,12.8c0.1-0.1,0-0.1-0.1-0.1c-0.1,0-0.2,0-0.2,0.1
		C5.7,12.9,5.8,12.9,6,12.8C5.9,12.8,5.9,12.8,6,12.8z M5.8,24.4c0,0-0.1-0.1-0.1-0.3C5.9,24,6,24,6,23.9c0-0.1,0-0.2-0.1-0.2
		c0,0-0.1,0-0.1,0.1c0,0-0.1,0.2-0.1,0.4c-0.1,0.1-0.1,0.2,0,0.3C5.8,24.5,5.8,24.5,5.8,24.4C5.9,24.5,5.9,24.5,5.8,24.4z M5.9,17.2
		L6,17.3c0,0,0.1,0,0.2,0c0,0,0,0,0-0.1c0,0,0-0.1-0.1-0.1C6,17.1,6,17.1,5.9,17.2C5.9,17.1,5.9,17.1,5.9,17.2
		C5.9,17.1,5.9,17.2,5.9,17.2z M6.3,22.7c-0.1,0-0.1,0.1-0.1,0.2c0,0.1,0,0.2,0.1,0.2c0,0,0.1,0,0.1,0c0.1-0.1,0.1-0.2,0.1-0.3
		C6.4,22.7,6.4,22.7,6.3,22.7z M6.4,21.3c-0.1,0.1-0.1,0.1-0.1,0.1c0,0,0,0.1,0,0.1c0,0.1,0.1,0.1,0.1,0C6.4,21.5,6.4,21.4,6.4,21.3
		L6.4,21.3z M6.3,18.5L6.3,18.5c-0.1,0.1-0.1,0.1-0.1,0.1c0,0,0,0.1,0,0.1c0,0.1,0.1,0.1,0.2,0.1c0,0,0.1,0,0.1,0c0,0,0.1-0.1,0-0.1
		c0-0.1-0.1-0.1-0.2-0.2H6.3L6.3,18.5z M6.3,18.3c0,0.1,0,0.2,0,0.2c0,0.1,0,0.1,0.1,0.1c0.1,0,0.1-0.1,0.1-0.1
		c0.1-0.2,0.1-0.5,0-0.9c0,0.1-0.1,0.2-0.1,0.4C6.4,18.2,6.3,18.3,6.3,18.3L6.3,18.3z M6.4,10.2c0,0,0,0.1,0.1,0.4h0
		C6.5,10.4,6.5,10.2,6.4,10.2L6.4,10.2z M6.5,11.5C6.5,11.5,6.5,11.4,6.5,11.5c0.1-0.1,0.1-0.1,0.1-0.1c0,0,0,0,0,0h0
		C6.5,11.4,6.4,11.4,6.5,11.5C6.4,11.4,6.4,11.5,6.5,11.5z M7.1,19.7c0,0-0.1-0.1-0.1-0.2c0-0.1-0.1-0.2-0.3-0.2c-0.1,0-0.1,0-0.1,0
		c-0.1,0.4,0.1,0.6,0.4,0.7c0.1,0,0.1,0,0.2,0c0.1,0,0.1-0.1,0.1-0.1C7.2,19.9,7.1,19.8,7.1,19.7z M6.6,12c0,0.1,0,0.2,0.1,0.3
		C6.6,12.2,6.6,12.1,6.6,12z M6.7,12.7c-0.1,0.3-0.1,0.7,0.1,1.1C6.8,13.4,6.8,13,6.7,12.7z M7.4,14.9L7.4,14.9
		c-0.1,0-0.1,0.1-0.1,0.1c0.1,0.6,0.2,0.9,0.2,0.9c0,0.1,0,0.1-0.1,0.1c0,0-0.1,0-0.1,0c-0.1,0-0.1-0.1-0.1-0.2
		c-0.1-0.3-0.1-0.5-0.2-0.6v-0.1c0-0.3,0-0.5,0-0.6c0-0.1,0-0.3-0.1-0.5C6.9,14,6.9,14,6.8,14c-0.1,0-0.1,0.1-0.1,0.1
		c0,0.1,0,0.3,0,0.4c0,0.1,0,0.2,0,0.2c0.1,0.1,0.1,0.2,0.1,0.5c0,0.2,0,0.4,0.1,0.6c0.1,0.2,0.1,0.4,0.1,0.6c0,0.2,0,0.4,0.1,0.5
		C7.3,16.9,7.4,17,7.4,17c0,0,0-0.1,0-0.3c0-0.1-0.1-0.2-0.1-0.2c-0.1-0.1,0-0.1,0.1-0.2c0.1,0,0.1,0,0.1,0c0,0,0.1,0.1,0.2,0.2
		c0.1,0,0.1,0,0.1-0.1L7.4,14.9z M7.3,13.6C7.3,13.6,7.3,13.5,7.3,13.6l-0.1,0C7.2,13.7,7.2,13.7,7.3,13.6
		C7.3,13.6,7.3,13.6,7.3,13.6z M7.9,18.2c0,0,0.1,0,0.3,0.1c0-0.2-0.1-0.3-0.1-0.3c0,0-0.1,0-0.2,0c-0.1,0-0.1,0-0.2,0
		c0,0,0-0.1,0-0.2c0,0-0.1-0.2-0.2-0.4h0c0,0,0,0,0,0l0,0.1c0.2,0.4,0.2,0.6,0.2,0.6c0,0.1,0,0.2,0,0.2S7.8,18.2,7.9,18.2z M8,17.5
		L8,17.5v-0.4c0-0.1,0-0.2-0.1-0.3c0-0.1-0.1-0.1-0.1-0.1c0,0-0.1,0,0,0.1L8,17.5z M7.9,8.7C7.9,8.7,7.9,8.8,7.9,8.7
		C7.9,8.8,7.8,8.8,7.9,8.7c-0.1,0.1,0,0.1,0,0.1c0,0,0,0,0,0C8.1,8.8,8,8.8,7.9,8.7z M8.1,22c0-0.1-0.1-0.1-0.2,0
		c-0.1,0-0.1,0.1-0.1,0.1c0,0.1,0.1,0.1,0.2,0.1C8.1,22.1,8.2,22.1,8.1,22z M8.4,21C8.4,21,8.4,20.9,8.4,21v-0.1c0,0,0,0-0.1,0
		l0,0.1C8.3,20.9,8.3,20.9,8.4,21C8.3,21,8.4,21,8.4,21C8.4,21,8.4,21,8.4,21z M10,25.2c0,0-0.1,0-0.2,0c-0.1,0-0.1,0-0.2,0
		c-0.1,0-0.1,0-0.2,0.1c-0.1,0.1-0.1,0.1,0,0.1c0.1,0,0.1,0.1,0.1,0.2c0,0.2,0.1,0.3,0.3,0.3c0,0,0.1,0,0.2,0c0,0,0.1-0.1,0.1-0.1
		c0,0,0-0.1,0-0.1C10,25.6,9.9,25.4,10,25.2L10,25.2z M9.6,11.1L9.6,11.1L9.6,11.1L9.6,11.1L9.6,11.1z M9.5,11.3L9.5,11.3
		c0.1,0,0.1,0,0.2,0c0.1,0,0.1-0.1,0-0.1C9.6,11.2,9.6,11.2,9.5,11.3C9.6,11.3,9.6,11.3,9.5,11.3z M9.6,11.9c0,0.1,0,0.2,0,0.2
		c0,0,0,0,0.1,0c0.1,0,0.1,0,0.1-0.1c0,0,0-0.1,0-0.2c0,0,0-0.1,0.1-0.1c0.1-0.1,0.1-0.1,0.1-0.1c-0.2,0-0.3,0-0.3-0.1
		c0,0,0-0.1-0.1-0.1H9.6c0,0,0,0,0,0l0,0v0.1l0,0.1L9.6,11.9L9.6,11.9z M10.1,13.9c0.1,0,0.1-0.1,0.1-0.1c0,0-0.1-0.1-0.2,0
		c-0.2,0-0.2,0.1-0.2,0.1C9.9,13.9,10,13.9,10.1,13.9z M10,14.4L10,14.4c0.1,0,0.2,0,0.2,0c0.1-0.3,0.2-0.4,0.1-0.2
		c0-0.1,0-0.1-0.2,0c-0.1,0-0.1,0-0.1,0.1C10,14.2,10,14.3,10,14.4z M10.3,14.9c0-0.1,0-0.1,0-0.1c0,0,0,0-0.1,0
		c-0.1,0-0.1,0-0.1,0.1c0,0.1,0,0.2,0,0.3c0,0,0,0.1,0.1,0.1c0,0,0.1,0,0.1,0c0.1,0,0.1,0,0.1-0.1C10.3,15,10.3,15,10.3,14.9z
		 M10.4,30.7c-0.3,0.1-0.4,0.2-0.2,0.2c0.3,0.2,0.5,0.3,0.6,0.3c0,0,0.1,0,0.1,0c0,0,0,0,0-0.1c0-0.1,0-0.1,0-0.1
		c-0.1-0.1-0.1-0.1-0.1-0.3C10.8,30.6,10.7,30.6,10.4,30.7z M10.4,15.4c0,0-0.1,0-0.2,0c0,0,0,0,0,0C10.3,15.5,10.3,15.5,10.4,15.4
		C10.4,15.5,10.4,15.5,10.4,15.4z M10.5,15.9c0-0.1-0.1-0.1-0.1-0.1c0,0-0.1,0.1,0,0.1C10.4,15.9,10.4,15.9,10.5,15.9
		C10.4,15.9,10.5,15.9,10.5,15.9z M10.8,16.7c0,0-0.1-0.1-0.1,0c0,0-0.1,0,0,0.1C10.6,16.8,10.6,16.8,10.8,16.7
		C10.8,16.8,10.8,16.7,10.8,16.7z M11.1,17.4c-0.1-0.2-0.1-0.3-0.2-0.3c0,0-0.1,0-0.1,0c-0.1,0-0.1,0-0.1,0.1l0.1,0.3l0,0.1l0,0.1
		l0,0c0,0,0.1,0,0.1,0c0,0,0.1,0,0.1,0c0,0,0-0.1,0-0.1C11.1,17.5,11.1,17.5,11.1,17.4L11.1,17.4L11.1,17.4z M10.8,11.5
		C10.8,11.5,10.9,11.5,10.8,11.5c0.1,0,0.1,0,0.1,0C11,11.5,10.9,11.5,10.8,11.5L10.8,11.5z M11.1,17.8L11.1,17.8
		C11,17.9,11,17.9,11.1,17.8C11.1,17.9,11.1,17.9,11.1,17.8C11.1,17.8,11.1,17.8,11.1,17.8z M11.4,18.2L11.4,18.2
		C11.3,18,11.3,18,11.2,18c-0.1,0-0.1,0.1,0,0.1c0,0,0.1,0.1,0.1,0.1C11.3,18.3,11.3,18.3,11.4,18.2C11.4,18.2,11.5,18.2,11.4,18.2
		C11.5,18.2,11.4,18.2,11.4,18.2z M11.3,18.5c0,0,0.1,0,0.1,0c0,0,0,0,0-0.1C11.5,18.4,11.4,18.4,11.3,18.5
		C11.3,18.5,11.3,18.5,11.3,18.5z M11.5,17.4c-0.1,0-0.1,0.1-0.1,0.1C11.4,17.5,11.5,17.5,11.5,17.4c0.1,0.1,0.1,0,0.1,0
		C11.7,17.4,11.6,17.4,11.5,17.4z M11.7,18.8L11.7,18.8c-0.1-0.1-0.1-0.1-0.2-0.1c0,0,0,0,0,0c0,0.1,0,0.1,0,0.2c0,0,0.1,0,0.1,0
		C11.6,18.9,11.6,18.9,11.7,18.8C11.7,18.8,11.7,18.8,11.7,18.8C11.7,18.8,11.7,18.8,11.7,18.8z M12,19.3l0-0.1c0,0-0.1-0.1-0.1-0.1
		c0,0,0,0-0.1,0c0,0,0,0,0,0c0,0.2,0.1,0.3,0.2,0.4c0,0,0.1,0,0.1,0c0,0,0.1-0.1,0.1-0.1C12.1,19.5,12.1,19.4,12,19.3L12,19.3z
		 M11.9,43C11.9,43,11.9,43,11.9,43c-0.2,0.1-0.2,0.1-0.2,0.2c0,0,0,0,0.1,0C12,43.2,12,43.1,11.9,43z M12.2,17.9L12.2,17.9
		C12,18,12,18.1,12,18.1c0,0,0,0,0,0c0,0,0.1,0,0.1,0C12.2,18,12.2,18,12.2,17.9L12.2,17.9z M12.2,20C12.2,20,12.3,20.1,12.2,20
		c0.1,0.1,0.1,0.1,0.2,0c0,0,0.1-0.1,0-0.2c0,0-0.1-0.1-0.2,0C12.2,19.9,12.2,19.9,12.2,20C12.2,19.9,12.2,19.9,12.2,20z M12.7,20.7
		L12.7,20.7c-0.1,0.2-0.1,0.3,0.1,0.3c0,0,0.1,0,0.1,0C13,20.8,13,20.7,12.7,20.7z M16.9,16.7c0,0,0-0.1,0-0.3
		c0.1-0.2,0.2-0.3,0.2-0.4c0-0.1,0.1-0.2,0.2-0.3c0.2-0.2,0.2-0.3,0.2-0.4c0-0.1,0-0.2,0.1-0.3c0.1-0.1,0.1-0.2,0.1-0.3
		c0-0.1-0.2-0.2-0.4-0.2c-0.1,0-0.1-0.1-0.1-0.1c0-0.1,0.1-0.1,0.2-0.2c0.1,0,0.1-0.1,0.1-0.2c0-0.1-0.1-0.2-0.1-0.5
		c0-0.2,0-0.5,0-0.8c0-0.4,0-0.7,0-0.8c0-0.1,0-0.1,0.1-0.1c0.1,0,0.1,0,0.1,0.1c0,0,0,0.1,0,0.1c0,0,0,0,0,0c0,0,0,0,0,0
		c0-0.1,0-0.1,0-0.2l0-0.4v-0.1V11v-0.1c0-0.1,0-0.2,0-0.4v-0.2l0-0.2c0-0.1,0-0.4,0-0.8C18,9.1,18,8.8,18,8.6
		c0-0.2,0.1-0.4,0.2-0.4c0.2-0.1,0.3-0.3,0.2-0.5c0,0.1,0,0,0-0.2c0,0,0-0.1,0-0.1c0-0.1,0-0.2,0.1-0.2c0-0.1,0-0.1,0.1-0.2
		c0-0.1,0-0.1,0-0.2c0,0,0-0.1,0-0.2c0-0.1,0-0.2,0-0.2c0.1-0.3,0.1-0.5,0.2-0.6c0.1,0.1,0.1,0.3,0,0.6c-0.1,0.7-0.1,0.9-0.1,0.8
		l0,0.4l0,0.1v0v0.1l0,0.2c-0.1,0.9-0.2,1.5-0.2,1.6c0,0.1,0,0.2,0,0.4c0,0.1,0,0.2,0,0.3c0,0.1,0,0.3,0,0.5c0,0,0,0.1,0,0.2l0,0.2
		v0.3c0,0.1,0,0.3,0,0.5c0,0.2,0,0.4,0,0.5c0,0.2,0,0.6-0.1,1.1c0,0.1,0,0.1,0.1,0.1c0,0,0.1,0,0.1,0c0.1-0.1,0.1-0.2,0.1-0.3
		c0-0.1,0-0.1,0.1-0.1c0.1,0,0.1,0,0.1,0.1c0,0,0.1,0.1,0.1,0.2c0,0.1,0.1,0.1,0.2,0.2c0.1,0,0,0.1-0.1,0.2
		c-0.2,0.1-0.2,0.3-0.1,0.4c0.1,0.1,0.1,0.2,0,0.3c-0.1,0.1-0.1,0.1-0.1,0.2c0,0.1,0,0.3-0.1,0.7c0,0.1-0.1,0.5-0.2,1
		c0,0.1,0.1,0.2,0.2,0.2c0,0,0.1,0,0.2,0c0.1,0,0.2,0,0.2,0.1c0,0.1,0,0.1-0.1,0.2c0,0-0.1,0-0.1,0c-0.1,0-0.1,0-0.2,0.1
		c-0.1,0.1-0.2,0.3-0.3,0.5c0,0.1-0.1,0.2-0.1,0.3c0,0,0,0.1,0,0.1V18c0,0.1,0.1,0.1,0.2,0.1c0,0,0.1,0,0.2,0c0,0,0,0.1,0,0.2
		c-0.1,0.1-0.1,0.2-0.1,0.2c0,0.1,0,0.1-0.1,0.1c-0.1,0-0.1,0-0.1-0.1c0-0.1,0-0.1,0-0.1c0,0,0,0-0.1,0c0,0,0,0,0,0
		c-0.1,0.1-0.1,0.1,0,0.2l0.2,0.3c0.1,0.1,0.1,0.3,0,0.3c0,0,0.1,0,0.3,0c0.1,0,0.1,0,0.2,0c0,0,0,0.1,0,0.1
		c-0.2,0.1-0.4,0.2-0.4,0.3c0,0-0.1,0.1-0.1,0.1c-0.1,0-0.3,0.1-0.3,0.2c-0.1,0.1-0.1,0.2-0.1,0.3c0,0.1,0,0.2,0,0.2
		c0,0,0,0.1,0,0.1l0,0h0h0v0l0,0.1c0,0.1-0.1,0.2-0.1,0.2c-0.1,0.1,0,0.2,0.1,0.2c0,0,0,0,0.1,0c0,0,0.1,0,0.1,0
		c0.1,0.1,0.2,0.2,0.1,0.3c0,0-0.1,0.1-0.1,0.1c0,0-0.1,0.1-0.2,0.1c0,0,0.1,0.1,0.3,0.2c0.1,0.1,0.1,0.1,0,0.2c0,0-0.1,0.1-0.2,0
		c0,0-0.1,0-0.1,0c0,0-0.1,0-0.1,0c-0.1,0-0.1,0-0.2,0.1c0,0.1-0.1,0.2-0.1,0.3c0,0,0,0.1,0.1,0.1c0,0,0.1,0,0.2,0
		c0.1,0,0.1-0.1,0.2,0c0,0,0.1,0.1,0.1,0.1c0,0.1-0.1,0.2-0.2,0.3c-0.1,0.1-0.2,0.1-0.3,0c0,0.1,0,0.2-0.1,0.5
		c0,0.2-0.1,0.4-0.1,0.5c0,0.1,0,0.2,0,0.2l-0.3,1.1c0,0,0,0.1,0,0.2c0,0,0,0,0,0c0,0.1,0,0.2,0,0.4c-0.1,0.2-0.1,0.3,0,0.4
		c0.1,0.2,0,0.4-0.2,0.8c0,0.1-0.1,0.1,0,0.2c0,0.2,0,0.4-0.1,0.8c-0.1,0.5-0.1,0.9,0.1,1.2c0,0,0,0.1,0,0.2c-0.1,0.3,0,0.4,0.1,0.6
		c0.1,0,0.1,0.1,0.1,0.2c0,0.1,0.1,0.2,0.1,0.2c0.1,0.1,0.1,0.2,0,0.2c0,0-0.1,0.1-0.1,0.1c0,0,0,0.1,0,0.1c0,0.1,0.1,0.1,0,0.2
		c0,0-0.1,0-0.2,0.1c-0.1,0-0.1,0.1-0.1,0.1c0,0.1,0,0.2,0,0.4c0,0.1,0.1,0.2,0.1,0.2c0,0.1,0,0.2,0,0.3c0,0.1,0,0.2-0.1,0.2
		c0,0.1-0.1,0.1-0.2,0.2c-0.1,0.1-0.1,0.2,0,0.3c0.1,0.1,0.2,0.3,0.2,0.4c0,0,0,0.1,0,0.1c0,0,0,0.1,0,0.1c0,0.1,0,0.1,0,0.2
		c0,0,0,0.1,0,0.1v0c0,0,0,0.1,0,0.1c0,0.1,0.1,0.2,0.2,0.2c0,0.1,0.1,0.1,0.1,0.2c0,0,0,0.1,0,0.1c0,0,0,0.1-0.1,0.1
		c-0.2,0.1-0.2,0.3-0.2,0.5c0,0.1,0,0.1,0,0.2c0,0.1,0,0.1,0,0.1l0,0l0.1,0h0c0,0,0,0,0,0c0,0,0,0.1,0,0.1c0,0.1,0,0.1,0,0.2l0,0
		c0,0.1,0,0.2,0,0.2c0,0.1,0,0.1,0.1,0.2c0,0,0.1,0.2,0.1,0.4c0,0.1,0,0.1-0.2,0.1c-0.2,0-0.3-0.1-0.2-0.1c0,0-0.1,0.2-0.1,0.3
		c0,0.1,0,0.3-0.1,0.3c0,0,0,0,0,0c0.1,0,0.2,0.1,0.3,0.3c0,0,0.1,0,0.1,0c0,0,0.1-0.1,0.1-0.1c0,0,0,0,0-0.1c0,0,0-0.1,0-0.1
		c0.1-0.2,0.1-0.3,0.1-0.3c0,0,0.1,0.1,0.2,0.3c0,0.1,0.1,0.1,0,0.2c0,0.1,0,0.2,0,0.2c0,0.1,0.1,0.1,0.1,0.2c0,0.1,0,0.1-0.2,0.1
		c-0.1,0-0.2,0-0.3,0c-0.3,0-0.4,0.1-0.5,0.2c-0.1,0.2-0.3,0.2-0.6,0.1c-0.3-0.2-0.7-0.3-1-0.2c-0.3,0.1-0.6-0.1-0.8-0.3
		c-0.2-0.3-0.4-0.8-0.5-1.6c0,0,0-0.1,0-0.1c0-0.1,0-0.1,0-0.2c0-0.1,0-0.1,0-0.2c0-0.1,0-0.2,0-0.2c0-0.1,0-0.2,0-0.2c0,0,0,0,0,0
		v0v0v-0.1l0-0.1v-0.2l0-0.2v-0.1v-0.1c0-0.1,0-0.2,0-0.2c0,0,0,0,0-0.1c0,0,0-0.1,0-0.1c0-0.2,0-0.4-0.1-0.6c0-0.1,0-0.2,0-0.3
		c0-0.1,0-0.1,0-0.2l0-0.1c0-0.1,0-0.1,0-0.2v-0.1l0-0.1c0,0,0-0.1,0-0.1l0-0.1c0,0,0-0.1,0-0.1c-0.1-0.4,0-0.7,0.1-0.9
		c0.1-0.1,0.1-0.1,0-0.2c-0.1-0.1-0.1-0.3-0.1-0.5c0-0.1,0-0.3,0-0.6c-0.1-0.5,0-0.9,0.2-1.3c0-0.1,0-0.1,0-0.1
		c-0.1-0.2-0.1-0.4,0.1-0.7c0-0.1,0-0.1,0-0.1c-0.1-0.2,0-0.5,0.1-0.9c0.1-0.4,0.2-0.5,0.1-0.4c0-0.1,0-0.2,0-0.2
		c-0.1-0.2-0.1-0.4,0-0.6c0-0.1,0.1-0.2,0.1-0.4c0-0.4,0.1-0.7,0.2-0.9c0-0.1,0.1-0.1,0-0.2c-0.1-0.2-0.1-0.4,0.1-0.7
		c0.1-0.1,0.1-0.1,0-0.2c-0.1-0.1-0.1-0.3,0-0.5l0-0.3l0-0.3c0-0.1,0.1-0.2,0.1-0.3c0,0,0-0.1,0.1-0.1c0-0.1,0.1-0.1,0.1-0.1
		c0,0,0-0.1,0-0.2c0-0.1-0.1-0.2-0.1-0.2c0-0.1,0.1-0.1,0.1-0.2v0l0-0.1l0-0.1c0,0,0-0.1,0-0.1l0,0l0,0c0.1-0.1,0.2-0.2,0.4-0.3
		c-0.2-0.2-0.3-0.3-0.3-0.5c0-0.1,0.1-0.3,0.1-0.4c0-0.1,0.1-0.3,0.1-0.4c0,0,0-0.1,0-0.2c0-0.1,0-0.2,0-0.2l0.1-0.5
		c0.1-0.3,0.1-0.5,0.2-0.7c0.1-0.2,0.2-0.4,0.3-0.6c0.1-0.1,0.1-0.3,0-0.5c0-0.2,0.1-0.3,0.2-0.3c0.3,0,0.5-0.2,0.5-0.6
		c-0.1,0-0.1,0-0.1,0.1c0,0-0.1,0.1-0.1,0.1c-0.1,0-0.2,0-0.3-0.1c-0.1-0.1-0.1-0.1,0-0.2c0.1,0,0.1-0.1,0.2-0.3
		c0-0.1,0.1-0.1,0.2-0.1c0.1,0,0.2,0,0.2-0.1v0c0.1-0.3-0.1-0.4-0.4-0.6c0-0.1,0-0.1,0.1-0.2c0.1-0.1,0.1-0.2,0.1-0.2
		c0,0,0-0.1,0.1-0.1c0.2,0,0.3,0,0.3-0.2c0-0.1,0-0.3,0-0.7c0-0.1,0-0.3,0-0.4c0-0.2,0.1-0.3,0.1-0.4v-0.3c0,0,0-0.1,0-0.1v0v-0.1
		l0-0.3l0-0.3c0-0.4,0.1-0.9,0.2-1.6c0-0.2,0.1-0.5,0.2-0.8c0-0.1,0-0.3,0-0.4l0-0.2V7.3l0-0.1V7.1c0-0.1,0-0.2,0-0.2
		c0-0.2,0-0.3,0-0.4c0,0,0-0.1,0.1-0.2c0-0.1,0-0.2,0-0.2c0,0,0.1-0.1,0.1-0.3c0.1-0.3,0.2-0.6,0.2-0.9c0-0.2,0-0.5,0.1-0.8l0,0.1
		l0-0.2c0-0.2,0.1-0.4,0.2-0.4c0,0,0-0.1,0-0.2l-0.1-0.1c0-0.1,0-0.1,0.1-0.1c0.1,0,0.1,0,0.1,0.1c0,0,0,0.1,0,0.1l0,0.9V4.2
		c0,0.5-0.1,0.9-0.2,1.3c0,0.1-0.1,0.3-0.1,0.4c0,0.1-0.1,0.3-0.1,0.4c0,0.2,0,0.4,0,0.4l0,0.4c0,0.1-0.1,0.3-0.1,0.5
		c-0.1,0.3-0.1,0.4-0.2,0.5c-0.1,0.5-0.2,1-0.2,1.4c0,0.1,0,0.1,0,0.2C17.1,9.8,17,10,17,10.3c0,0.1,0,0.2,0,0.4l0,0.4
		c0,0,0,0,0,0.3c0,0,0.1,0,0.2-0.1c0.1-0.1,0.2-0.1,0.3-0.1c0.1,0,0.1,0.1,0.1,0.2c0,0.1,0,0.1-0.1,0.1c-0.1,0-0.3,0.1-0.5,0.4
		c-0.1,0.1-0.1,0.3,0,0.5c0.1,0.1,0.1,0.3-0.1,0.4c0,0-0.1,0.2-0.1,0.6c0,0.2,0,0.3,0.1,0.3c0,0.3-0.1,0.5-0.1,0.5
		c-0.1,0.1-0.1,0.1,0,0.2c0.1,0,0.1,0.1,0.1,0.3L16.6,15c0.1,0.1,0.1,0.2,0,0.3c0,0.1,0,0.1,0.1,0.1c0.1,0,0.2,0.1,0.2,0.2l-0.1,0.8
		c-0.1,0-0.2-0.1-0.3-0.2c0,0-0.1,0-0.1,0c0,0,0,0,0,0.1c0,0.1,0,0.3,0.2,0.5c0.1,0.1,0.1,0.2,0.2,0.1c0.1,0,0.1,0,0.1,0
		S16.9,16.8,16.9,16.7z M13,21.7L13,21.7c0,0.1,0.1,0.1,0.1,0c0,0,0.1,0,0-0.1c0,0,0-0.1,0-0.1H13C13,21.5,13,21.6,13,21.7
		C13,21.6,13,21.6,13,21.7C13,21.6,13,21.6,13,21.7z M13.4,22.1c0-0.1,0-0.1,0-0.1c0-0.1-0.1-0.1-0.2-0.1c-0.1,0-0.1,0.1-0.1,0.1
		c0,0,0,0.1,0,0.1c0.1,0.1,0.1,0.2,0.1,0.3c0,0,0,0.1,0,0.2v0.1l0,0.1c0,0.1,0,0.1,0,0.2c0,0,0.1,0.1,0.1,0c0.1,0,0.1,0,0.1-0.1
		c0-0.1,0-0.2,0-0.3v-0.1l0-0.1C13.5,22.3,13.4,22.2,13.4,22.1z M13.1,19.9c0,0,0,0.1,0,0.1c0,0,0,0,0,0c0,0,0,0,0,0.1
		c0,0.1,0.1,0.1,0.1,0.2c0.1,0.1,0.1,0.1,0.2,0.1c0,0,0-0.1,0-0.2c0-0.1-0.1-0.2-0.1-0.2c0,0,0,0,0,0C13.2,19.9,13.2,19.9,13.1,19.9
		C13.2,19.9,13.1,19.9,13.1,19.9z M13.7,23.1C13.6,23.1,13.6,23.1,13.7,23.1c0,0.1,0,0.2,0,0.2c0,0-0.1,0-0.1,0
		c-0.1,0-0.1,0-0.1,0.1c0,0,0-0.1,0-0.1c0-0.1,0-0.1,0-0.1c0,0,0,0.1,0,0.1c0,0.1,0,0.1,0,0.1c0,0,0.1,0,0.2,0
		c0.1,0,0.1-0.1,0.1-0.1V23.1z M13.6,36.9c0-0.1,0-0.2,0-0.4C13.5,36.7,13.5,36.8,13.6,36.9z M14.2,26.7c0,0.1,0.1,0.1,0.2,0.1
		c0,0,0-0.1,0-0.2c-0.1-0.1-0.1-0.1-0.1-0.1c0,0.1,0-0.1-0.1-0.6c0-0.1,0-0.2,0-0.2c0-0.1-0.1-0.1-0.1-0.2c-0.1-0.1-0.2-0.3-0.1-0.4
		c0-0.1,0-0.1,0-0.2c0,0,0-0.1-0.1-0.1c0,0-0.1,0-0.1,0c-0.1,0-0.1,0-0.1,0.1c0,0,0,0.1,0,0.3c0,0.1,0,0.2,0.1,0.3
		c0,0.1,0.1,0.2,0.2,0.3c0,0,0,0.1,0.1,0.2l0,0.1L14.2,26.7z M13.6,38.4c0,0.2,0.1,0.3,0.3,0.3C13.8,38.6,13.7,38.5,13.6,38.4z
		 M13.9,21.4L13.9,21.4c-0.2,0.1-0.2,0.2-0.2,0.2c0,0,0,0,0.1,0C13.9,21.5,14,21.4,13.9,21.4L13.9,21.4z M13.9,37.8l0,0.2
		c0,0,0,0,0.1,0c0,0,0.1,0,0.1,0c0-0.1,0-0.1,0-0.2c0,0-0.1-0.1-0.2-0.1L13.9,37.8z M14.1,22.6L14.1,22.6c-0.1,0.2-0.1,0.4-0.1,0.5
		c0,0,0,0,0.1,0c0.1,0,0.1,0,0.1,0c0-0.1,0.1-0.3,0.1-0.4C14.3,22.5,14.2,22.5,14.1,22.6z M14.2,23.8c0-0.1,0.1-0.2,0.3-0.3
		c0.1-0.1,0.1-0.1,0-0.1c-0.1,0-0.2,0-0.3,0.1c-0.1,0-0.1,0.1-0.2,0.1C14,23.7,14,23.8,14.2,23.8L14.2,23.8z M14.1,40.7L14.1,40.7
		c-0.1,0.1-0.1,0.2,0,0.2c0,0,0.1,0,0.1,0c0,0,0,0,0,0c0-0.1,0-0.1,0-0.1H14.1z M14.3,30.3C14.3,30.3,14.3,30.3,14.3,30.3
		C14.4,30.3,14.4,30.3,14.3,30.3C14.3,30.3,14.3,30.3,14.3,30.3L14.3,30.3z M14.4,24.1c-0.1,0-0.1,0.1-0.1,0.1c0,0.1,0,0.1,0.2,0
		c0.1,0,0.1-0.1,0.1-0.1C14.5,24.1,14.5,24.1,14.4,24.1z M14.7,25.8C14.7,25.7,14.7,25.7,14.7,25.8l-0.1,0
		C14.6,25.8,14.6,25.8,14.7,25.8C14.7,25.8,14.7,25.8,14.7,25.8C14.7,25.8,14.7,25.8,14.7,25.8z M15,39.6C15,39.6,15,39.5,15,39.6
		c0.1-0.2,0-0.2-0.1-0.2c-0.1,0-0.1,0.1-0.1,0.1C14.8,39.6,14.9,39.7,15,39.6z M15,40.3c0-0.2,0-0.3-0.2-0.4
		C14.9,40.1,14.9,40.2,15,40.3z M15,31.6L15,31.6c0.1,0,0.1,0,0.2,0c0,0,0,0,0-0.1c0-0.1,0-0.2,0-0.3c0-0.1,0-0.2,0-0.2
		c0-0.2,0-0.4,0-0.4c0-0.4,0.1-0.7,0.2-0.9c0,0,0,0,0,0c0,0,0,0,0,0c0,0-0.1,0-0.1,0c0,0.1-0.1,0.1-0.1,0.1L15,30.2
		c-0.1,0.2-0.1,0.4-0.1,0.5c0,0.1,0,0.2,0,0.3v0.4L15,31.6z M15.1,36.9L15.1,36.9c0,0.3,0,0.4,0,0.4c0,0,0,0,0.1,0s0.1,0,0.1,0
		C15.3,37.2,15.3,37.1,15.1,36.9C15.1,36.9,15.1,36.9,15.1,36.9C15.1,36.9,15.1,36.9,15.1,36.9z M15.2,34.4c0.2,1,0.4,1.5,0.5,1.7
		c0-0.1-0.1-0.4-0.2-0.8l-0.1-0.4C15.2,34.6,15.2,34.5,15.2,34.4z M15.9,20.9c0-0.1-0.1-0.2-0.2-0.2c-0.1,0-0.2,0-0.2,0.1
		c0,0.1,0.1,0.2,0.2,0.2C15.9,21,15.9,21,15.9,20.9z M15.8,28.7C15.7,28.8,15.7,28.8,15.8,28.7c-0.1,0.1-0.1,0.2,0,0.2
		c0,0,0.1,0,0.1,0C15.9,28.9,15.9,28.8,15.8,28.7L15.8,28.7z M16.2,19.5c0-0.1,0-0.1-0.1-0.2c-0.1,0-0.1,0-0.1,0.1
		c0,0.1,0,0.1,0.1,0.2C16.1,19.6,16.2,19.6,16.2,19.5z M16.1,12.8c0-0.2,0-0.3,0-0.3l-0.1,0l0,0.1C16,12.7,16,12.7,16.1,12.8z
		 M16.2,18.2c-0.1,0.1-0.1,0.2-0.1,0.3c0,0.2,0,0.4,0,0.4c0,0,0.1,0.1,0.1,0.1c0.1,0,0.1,0,0.1-0.1c0-0.1,0.1-0.5,0.4-1.2
		c0.1-0.2,0.1-0.3,0-0.4c0,0-0.2,0-0.4,0.1c-0.1,0-0.1,0.1-0.1,0.2C16.4,17.7,16.4,17.9,16.2,18.2z M16.5,29.1
		c0.1,0.1,0.1,0.1,0.2,0.1c0,0,0,0,0,0c0,0,0-0.1-0.1-0.1C16.6,29.1,16.5,29.1,16.5,29.1L16.5,29.1z M16.6,39.5
		C16.7,39.5,16.7,39.4,16.6,39.5c0-0.1,0-0.1,0-0.1C16.6,39.4,16.6,39.4,16.6,39.5C16.6,39.5,16.6,39.5,16.6,39.5z M16.6,15.6
		L16.6,15.6v0.2C16.7,15.8,16.7,15.8,16.6,15.6L16.6,15.6z M16.8,29.8c0.1,0,0.1,0,0.1-0.1c0-0.1,0-0.1-0.2-0.1
		c-0.1,0-0.1,0-0.1,0.1C16.6,29.8,16.7,29.8,16.8,29.8z M16.8,40L16.8,40L16.8,40C16.9,40.1,16.9,40.1,16.8,40
		C16.9,40,16.9,40,16.8,40C16.9,40,16.9,40,16.8,40z M16.9,15.1L16.9,15.1c0.1,0.1,0.1,0.1,0.1,0.1c0.1,0,0.2-0.1,0.2-0.2
		c0,0,0-0.1-0.1-0.1c0,0-0.1,0-0.1,0c-0.1,0-0.1,0.1-0.1,0.1S16.9,15,16.9,15.1z M16.9,27.8L16.9,27.8c0.2,0,0.2,0,0.2-0.1
		c0-0.1,0-0.1-0.1-0.1C16.9,27.7,16.9,27.8,16.9,27.8z M17.2,24c-0.1,0-0.2,0.1-0.2,0.2c0,0,0.1,0.1,0.1,0.1c0.1,0,0.2-0.1,0.2-0.2
		C17.4,24,17.3,24,17.2,24z M17.4,38c0,0.2,0.1,0.4,0.2,0.5c0.1,0.2,0.2,0.3,0.2,0.3c0,0.1,0.1,0.1,0.1,0.2c0,0.1,0.1,0.1,0.1,0.2
		c0.1,0.4,0.2,0.8,0.1,1c0,0.1,0,0.1,0.1,0.1c0,0,0.1,0,0.1,0c0,0,0.1,0,0.1-0.1c0,0,0-0.1,0-0.2c0,0,0-0.1,0-0.2c0-0.1,0-0.1,0-0.2
		c-0.1-0.3-0.2-0.6-0.3-0.8c-0.1-0.1-0.2-0.4-0.5-0.9C17.6,38,17.5,38,17.4,38z M18.4,20.5L18.4,20.5c-0.2-0.1-0.4-0.1-0.5,0
		c-0.1,0.1-0.1,0.1-0.2,0.2c0,0,0,0,0,0c0,0.1,0.1,0.1,0.1,0.1c0,0,0.1,0,0.1,0H18c0.1,0,0.1,0,0.2,0c0.1,0,0.1,0,0.1,0v0h0l0-0.1
		C18.4,20.6,18.4,20.5,18.4,20.5C18.4,20.5,18.4,20.5,18.4,20.5z M17.8,13.5l0-0.2C17.8,13.4,17.7,13.4,17.8,13.5L17.8,13.5
		C17.8,13.5,17.8,13.5,17.8,13.5C17.8,13.5,17.8,13.5,17.8,13.5z M17.8,0L17.8,0L17.8,0L18,0h0h0h0c0,0,0.1,0,0,0h0l-0.1,0l0,0
		C17.9,0.1,17.9,0.1,17.8,0C17.8,0.1,17.8,0.1,17.8,0z M18,15.4c-0.1,0.1-0.1,0.2,0,0.3C18,15.6,18.1,15.5,18,15.4
		C18.1,15.4,18,15.4,18,15.4C18,15.4,18,15.4,18,15.4z M17.9,20.1L17.9,20.1c0.1,0.1,0.1,0.1,0.2,0.1c0.1,0,0-0.1,0-0.1
		C18,20,18,20,17.9,20.1C18,20,17.9,20,17.9,20.1z M18.1,21.7L18.1,21.7c-0.1,0.1-0.2,0.1-0.2,0.2c0,0,0,0.1,0,0.1
		c0,0,0.1,0.1,0.1,0C18.2,22,18.2,21.9,18.1,21.7C18.1,21.8,18.1,21.8,18.1,21.7z M18.2,14.8c0-0.1,0-0.2-0.1-0.2
		c0,0-0.1,0.1-0.1,0.2C18,14.9,18,14.9,18.2,14.8C18.2,14.9,18.2,14.9,18.2,14.8z M18.2,14L18.2,14c0-0.1,0-0.1-0.1-0.1
		c0,0-0.1,0-0.1,0C18.1,14,18.1,14,18.2,14z M18.4,1.9L18.4,1.9l0-0.2c0-0.1,0-0.1,0-0.1V1.3V1c0-0.1,0-0.1,0-0.2
		c0-0.1,0-0.1-0.1-0.1c-0.1,0-0.1,0-0.1,0.1c0,0,0,0.1,0,0.2c0,0.1,0,0.2,0,0.3v0.3v0v0l0,0l0,0.1C18.3,1.9,18.3,1.9,18.4,1.9
		L18.4,1.9z M18.3,5.5c0,0.1,0,0.2,0.1,0.2c0,0,0.1,0,0.1-0.1C18.4,5.5,18.4,5.4,18.3,5.5L18.3,5.5z M18.7,15.8c0,0.1,0,0.1,0.1,0.1
		c0.1,0,0.1,0,0.1-0.1C18.9,15.8,18.8,15.8,18.7,15.8C18.8,15.8,18.7,15.8,18.7,15.8z M18.9,15.1c0,0.1,0,0.2,0,0.2
		c0.1,0,0.1,0,0.1-0.1C19,15.2,19,15.2,18.9,15.1L18.9,15.1z M19,2.4c0,0.1,0,0.1,0,0.1c0,0,0,0,0.1,0c0,0,0.1,0,0.1,0
		c0,0,0-0.1,0-0.1C19.1,2.4,19.1,2.3,19,2.4L19,2.4z M19.1,6.3c0-0.2,0.1-0.2,0-0.2c0-0.1,0-0.1,0-0.1c0,0-0.1,0-0.1,0.1
		C19,6.2,19.1,6.3,19.1,6.3z M19.2,5c0.1-0.1,0.1-0.3,0.1-0.4l0,0c0,0,0-0.1-0.1-0.1c0,0,0-0.1-0.1-0.1c-0.1,0-0.1,0-0.1,0.1
		c0,0,0,0.1,0,0.1v0C19.1,4.4,19.1,4.6,19.2,5z M19.4,8.8c0.1,0,0.1-0.1,0.1-0.1c0,0,0,0,0,0C19.3,8.7,19.3,8.7,19.4,8.8
		C19.3,8.8,19.3,8.8,19.4,8.8z M19.4,7.6c0,0.1,0,0.2,0,0.1c0,0,0,0,0,0.2c0,0,0,0.1,0,0.2c0,0.1,0,0.1,0.1,0.2c0.1,0,0.1,0,0.1-0.1
		l0-0.1c0,0,0-0.1,0-0.1c0-0.1,0-0.1,0-0.2l0,0v0c0-0.2,0-0.4-0.1-0.4C19.5,7.2,19.5,7.3,19.4,7.6z"/>
	<path class="st0" d="M35.2,9.5c0.1,0.1,0.1,0.3,0.1,0.5c0,0.3,0,0.4-0.1,0.5c0,0.1-0.1,0.1-0.2,0.1c-0.3,0.1-0.4,0.2-0.4,0.4
		c0,0,0,0.1,0,0.2c0,0.1,0,0.2,0,0.2c0,0.2,0.1,0.3,0.3,0.3L35,12c0,0.1-0.2,0.2-0.3,0.2c-0.2,0-0.3,0.2-0.3,0.4
		c0-0.1-0.1,0.3-0.2,1.1c0,0.2-0.1,0.3-0.3,0.4c-0.2,0.1-0.3,0.1-0.5,0.1c-0.3-0.1-0.7-0.1-1.2-0.2c-0.1,0-0.5,0-1.4,0.1
		c-0.2,0-0.3,0-0.3,0c-0.5,0-1.2,0.1-2.3,0.2c-0.1,0-0.2,0-0.4,0c-0.2,0-0.3,0-0.4,0c-0.7,0.2-1.1,0.3-1.3,0.4
		c-0.2,0.1-0.3,0.2-0.4,0.2c-0.1,0-0.5,0.1-1.1,0.4c-0.1,0.1-0.2,0.2-0.2,0.3c0,0.5-0.1,1.1-0.2,1.8c-0.1,0.8-0.1,1.2-0.1,1.2
		c0,0.1,0,0.2,0,0.3c0-0.1-0.1,0.8-0.3,2.8c-0.1,0.5-0.1,0.7-0.1,0.7c0,0.2,0.1,0.3,0.2,0.3c1-0.1,1.9-0.3,2.5-0.4
		c0.4-0.1,0.8-0.2,1.1-0.1c0,0,0.2,0,0.7-0.1c0.1,0,0.2,0,0.2,0.1c0,0.1,0,0.1-0.1,0.2c-0.1,0-0.1,0.1-0.1,0.1
		c0.2,0.1,0.3,0.3,0.2,0.6c-0.1,0.1-0.1,0.3-0.1,0.3c0,0.1,0,0.2,0,0.2c0.1,0.1,0.2,0.2,0.2,0.5c0,0.1,0,0.2,0,0.3
		c0,0.1,0,0.2,0,0.3c-0.1,0.2-0.2,0.3-0.1,0.5c0.1,0.1,0.2,0.2,0.4,0.2c0.1,0,0.1,0,0.2,0.1c-0.1,0.1-0.3,0.2-0.6,0.2
		c-0.1,0-0.3,0.1-0.6,0.3c-0.3,0.1-0.5,0.2-0.6,0.3c-0.2,0-0.7,0.3-1.5,0.6c-0.3,0.1-0.6,0.2-0.8,0.3c-0.2,0-0.3,0.1-0.4,0.1
		c-0.2,0.1-0.4,0.2-0.7,0.2c-0.2,0-0.3,0.2-0.3,0.4c-0.1,1.5-0.2,2.3-0.2,2.4c0,0.2,0,0.6,0,1c0,0.4,0,0.8,0,1c0,0.3,0,0.7-0.1,1.3
		c0,0.2,0,0.4,0.2,0.4c0.1,0,0.1,0.1,0.1,0.1c-0.1,0.1,0,0.3,0.1,0.5c0.1,0.2,0.3,0.2,0.5,0.2c1.5-0.3,2.8-0.7,3.8-1.1
		c0.2-0.1,0.4-0.1,0.5-0.1c0.1,0,0.1,0,0.2,0c0.3-0.2,0.6-0.3,1-0.4c0.1,0,0.2-0.1,0.5-0.1c0.2,0,0.4-0.1,0.5-0.1
		c0,0.1-0.1,0.1-0.1,0.1c-0.1,0-0.1,0.1-0.1,0.1l0,0.1c0.4-0.2,0.8-0.3,1-0.3c0,0,0.1,0,0.2-0.1c-0.1,0-0.1-0.1-0.2,0
		c-0.1,0-0.1,0-0.2,0c0,0,0-0.1,0-0.1c0-0.1,0-0.1,0-0.2c0,0,0,0.1-0.2,0.1c0-0.1,0.1-0.3,0.3-0.7c0,0,0.1,0,0.1,0
		c0.1,0.1,0.1,0.1,0.2,0c0.1-0.2,0.3-0.3,0.6-0.3c0-0.3,0.1-0.5,0.2-0.6c0.1,0,0.2,0,0.5,0.2c0,0-0.1,0-0.2,0c-0.1,0-0.2,0-0.2,0.1
		c0.1,0.2,0.3,0.2,0.5,0.2l0.3,0.2c0.1,0.1,0.2,0.2,0.1,0.4c0,0.1,0,0.2,0.2,0.1c0,0,0.4,0,1.1,0.1c0.2,0,0.3,0.2,0.2,0.5
		c0,0,0,0.2-0.1,0.3c0,0.1-0.1,0.2-0.1,0.3c-0.1,0.2-0.1,0.2-0.2,0c-0.1-0.1-0.1-0.3-0.3-0.4c-0.1,0.2-0.2,0.3-0.2,0.4l0,0.1
		c0,0,0.1,0,0.2,0.1c0.1,0,0.1,0.1,0.1,0.1c0,0-0.1,0-0.3,0.2c0,0.1,0.1,0.1,0.2,0.1c0.1,0,0.2,0,0.2,0c0,0.1-0.1,0.2-0.3,0.2
		c0,0-0.1,0-0.2,0c-0.1,0-0.2,0-0.2,0c-0.2,0-0.4,0.1-0.5,0.2c-0.1,0.1-0.2,0.1-0.3,0.1c-0.2,0-0.2,0-0.2,0.1c0,0.1,0,0.1,0.1,0.1
		c0,0,0,0,0,0c0,0,0.1,0,0.1,0c0.1,0,0.2,0,0.2,0c-0.1,0.1-0.5,0.2-1.2,0.4c0-0.1,0-0.1,0-0.2c0-0.1,0-0.1,0-0.1
		c-0.2-0.1-0.4-0.1-0.4,0c0,0-0.4,0.1-1,0.3c-0.8,0.2-1.3,0.4-1.6,0.4c0,0-0.1,0-0.2-0.1c-0.1,0-0.2,0-0.2,0
		c-0.1,0.1-0.2,0.2-0.5,0.2c-0.1,0-0.3,0.1-0.5,0.1c-0.1,0-0.3,0.1-0.4,0.1c-0.2,0-0.5,0.1-0.7,0.2c-0.5,0.2-0.8,0.2-1,0.1
		c-0.1-0.1-0.1,0-0.2,0.1c0,0.2-0.1,0.2-0.3,0.1c-0.1-0.1-0.3-0.1-0.4,0.1C24.3,37,24.1,37,24,37c0,0,0,0-0.2,0.1
		c-0.4,0.2-0.6,0.3-0.6,0.3c0,0-0.1,0-0.2,0.1c-0.1,0.1,0,0.1,0,0.2c0.1,0,0.1,0,0.2,0c0,0,0.1,0,0.1-0.1c0,0,0.1,0,0.1,0
		c0.1,0,0.2,0,0.3,0c0,0-0.1,0.1-0.2,0.2c-0.3,0.2-0.5,0.3-0.6,0.5c-0.1,0.2-0.2,0.3-0.3,0.4c-0.1,0-0.2,0.1-0.2,0.3
		c0.1,0,0.2,0,0.4-0.1c0.1-0.1,0.3-0.1,0.4-0.1l0,0.1c-0.3,0.1-0.6,0.4-0.9,0.7c0,0,0,0,0,0c0,0,0,0,0,0c0,0.1-0.4,0.3-1.2,0.8
		c-0.2,0.1-0.4,0.2-0.5,0.2c-0.2-0.1-0.3-0.1-0.3-0.1c-0.1-0.1-0.2-0.2-0.3-0.1c-0.1,0.1-0.1,0.1-0.2,0c-0.1-0.1-0.1-0.2,0-0.3
		c0-0.2,0.1-0.3,0.1-0.4c0-0.1,0-0.2,0-0.3c0,0-0.1,0.1-0.4,0.6c0,0,0,0,0.1,0c0.1,0,0.1,0,0.1,0c0,0.1,0,0.2-0.1,0.3
		c0,0.1-0.1,0.2-0.1,0.2c-0.1,0-0.2,0-0.5-0.1c0,0,0-0.1,0.1-0.3c0.1-0.1,0-0.2,0-0.4c0,0-0.1,0.1-0.2,0.2c-0.1,0.1-0.2,0.2-0.4,0.3
		c-0.2,0-0.2,0-0.2-0.2c0,0,0-0.1,0.1-0.2c0.1-0.1,0.1-0.1,0.1-0.1c0,0-0.1,0-0.2,0c-0.1,0-0.1,0-0.1-0.1c0-0.2,0-0.4,0.1-0.6
		c0.1-0.1,0.1-0.3,0.1-0.4c0-0.1,0-0.1,0.1-0.2c0.1,0,0.1-0.1,0.2-0.1l0,0c0,0-0.1,0-0.2,0c-0.1,0-0.1,0-0.1-0.1
		c0-0.2,0-0.4,0.1-0.5c0.3-0.3,0.5-0.5,0.6-0.6c0.2-0.1,0.3-0.2,0.3-0.4c0.3-0.5,0.4-0.9,0.4-1.4c0-0.1,0-0.2,0-0.4
		c0-0.2,0-0.3,0-0.3c0-0.3,0-0.4-0.1-0.5c-0.1-0.1-0.1-0.2,0-0.5c0,0,0-0.1,0.1-0.2c0-0.1,0.1-0.1,0.1-0.1c0.1-0.1,0-0.2-0.1-0.1
		c0,0,0,0,0-0.1c0-0.1,0-0.1,0-0.1c0.1-0.2,0.2-0.5,0.2-0.9c0-0.2,0-0.6,0-1.2c0-0.3,0.1-0.8,0.1-1.4c0.1-0.6,0.1-1.1,0.1-1.4
		c0-0.4-0.1-0.7-0.3-0.9l-0.3-0.6c-0.1-0.1,0-0.2,0.2-0.3c0.2,0,0.4-0.1,0.4-0.2l-0.2-0.1c-0.3-0.1-0.3-0.3-0.1-0.6
		c0.1-0.1,0.2-0.2,0.2-0.2c0,0-0.1-0.1-0.2-0.2l0-0.1c0,0,0.1-0.1,0.3-0.2c0.1,0,0.1-0.1,0.1-0.2c-0.1-0.1,0-0.2,0.1-0.3
		c0.1-0.1,0.2-0.2,0.2-0.5c0.1-1,0.1-1.6,0.2-1.8c0.1-0.3,0.1-0.7,0.2-1.2c0-0.5,0.1-0.9,0.2-1.1c0,0,0-0.1,0-0.2
		c0-0.3,0-0.5,0.1-0.7c0.1-0.3,0.2-1,0.3-2.1c0-0.1,0-0.2,0-0.4c0-0.2,0-0.3,0-0.4c0-0.2-0.1-0.3-0.2-0.4c-0.2-0.1-0.4-0.1-0.5,0
		c-0.1,0-0.5,0-1.1,0c-0.1,0-0.2-0.1-0.3-0.2c-0.1-0.1-0.1-0.3,0-0.5c0-0.1,0-0.1,0.1-0.2c0.2-0.2,0.3-0.8,0.4-1.6
		c0.1-0.5,0.3-0.9,0.8-1.3c0.1-0.1,0.3-0.2,0.6-0.3c0.3-0.1,0.5-0.2,0.6-0.2c0.2-0.1,0.3-0.2,0.4-0.3c0,0,0.2-0.1,0.4-0.1
		c0.2,0,0.2-0.1,0.2-0.3c0-0.1,0-0.2,0-0.3c0-0.1,0-0.2,0-0.2c0,0,0.1,0,0.1,0c0,0,0.1,0.1,0.1,0.1c0-0.2,0.1-0.3,0.3-0.4
		c0.2-0.1,0.3-0.2,0.4-0.2c0,0,0.1,0,0.1,0.1c0.1,0.1,0.1,0.2,0.1,0.2c0.1,0,0.1-0.1,0.1-0.3C23.7,9,23.8,9,23.8,9
		c0,0,0.1,0,0.2-0.1c0.1-0.1,0.1-0.1,0.2,0c0,0,0.1,0.1,0.1,0.2c0,0.1,0,0.1,0.1,0.2c0,0,0,0.1,0,0.1c0,0,0.1,0.1,0.1,0.2
		c0,0.1,0.1,0.2,0.2,0.2c0,0,0.2,0,0.5-0.1c2-0.4,3.2-0.6,3.6-0.7c0.5-0.1,1.4-0.2,2.9-0.4c0.9-0.1,1.5-0.2,1.8-0.2
		c0.4,0,0.7,0.1,0.8,0.2C34.7,8.9,35,9.1,35,9.1S35,9.3,35.2,9.5z M19.1,36.5c0.1,0,0.1,0,0.2,0.1c-0.2,0.1-0.4,0.2-0.6,0.4
		c-0.1,0.1-0.3,0.1-0.4,0.1C18.5,36.8,18.8,36.6,19.1,36.5z M20.3,33.8c0-0.1,0-0.1,0-0.1c-0.1,0-0.1,0-0.1,0.1v1.1
		c0.1-0.3,0.1-0.5,0.1-0.5C20.3,34.1,20.3,33.9,20.3,33.8z M20.4,32.4c0.1-0.4,0-0.7-0.2-0.8c0,0.3,0,0.7,0,1.3c0,0,0,0.1,0,0.4
		L20.4,32.4z M21.1,23c0.3-1.8,0.4-2.8,0.3-3.3c-0.2,1.6-0.4,2.5-0.4,2.7C21,22.6,21,22.8,21.1,23z M21.9,16.6c0-0.1,0-0.2-0.1-0.2
		c-0.1,1.4-0.3,2.4-0.4,2.9c0.1-0.1,0.2-0.2,0.2-0.3C21.7,18.4,21.8,17.6,21.9,16.6z M30.1,36.3c0,0,0.2,0,0.6-0.2
		c-0.1,0.1-0.1,0.2-0.3,0.2c0,0-0.1,0-0.2,0C30.2,36.3,30.2,36.3,30.1,36.3z M33.3,35.2c0.1,0,0.1,0,0.2,0.1
		c-0.1,0.1-0.3,0.1-0.5,0.2c-0.3,0-0.4,0.1-0.5,0.2c0,0,0.1,0,0.3,0c0.1,0,0.2,0,0.2,0.1l0,0.1c-0.3,0.1-0.7,0.2-1.2,0.2
		c-0.1,0-0.1,0-0.1-0.1c0-0.1,0-0.1,0.1-0.1c0.1,0,0.2,0,0.3-0.1c0,0-0.1,0-0.1-0.1c0,0-0.1,0-0.1-0.1c0-0.1,0-0.1,0.1-0.1
		c0.1,0,0.3-0.1,0.7-0.1C32.9,35.2,33.1,35.2,33.3,35.2z M32.6,32.5c0,0-0.2-0.1-0.7-0.4c0,0.1,0.1,0.1,0.1,0.2
		c0.1,0.1,0.1,0.1,0.1,0.2c0,0.1,0.1,0.2,0.1,0.2c0,0,0.1,0,0.1,0C32.6,32.5,32.6,32.5,32.6,32.5z"/>
	<path class="st0" d="M61.4,7.8c0.1,0.3,0.1,0.5,0,0.6c0,0.1,0,0.2,0,0.3c0,0.1,0,0.5,0,1.1c0,0.3,0,0.5,0,0.6
		c0.1,0.2,0.1,0.4,0,0.7c-0.1,0.3-0.1,0.5-0.1,0.7c0,0.1,0,0.1,0,0.2c-0.1,0.1-0.1,0.4-0.1,0.8c0,0.7-0.1,1.5-0.3,2.3
		c-0.1,0.5-0.2,0.7-0.3,0.8c-0.1,0.1-0.1,0.2-0.1,0.3c0.1,0.3,0,0.5-0.1,0.8c0,0.1-0.1,0.2-0.1,0.3c0,0.3,0,0.4-0.3,0.5
		c-0.1,0-0.1,0.1-0.1,0.2c0.1,0.2,0.1,0.4,0,0.5c-0.2,0.1-0.2,0.3-0.1,0.5c0.1,0.2,0.1,0.4,0,0.7c-0.2,0.4-0.3,0.7-0.4,0.7
		c0,0-0.1,0.1,0,0.1c0,0.1,0,0.2,0,0.4c0,0.2,0,0.3,0,0.3c0,0.2-0.1,0.4-0.2,0.7c-0.1,0.2-0.2,0.4-0.2,0.7c0,0.2,0,0.4-0.2,0.6
		c-0.1,0.1-0.1,0.2-0.2,0.4c-0.1,0.2-0.1,0.3-0.2,0.4c0,0.1,0,0.1,0,0.2c0.1,0.2,0.1,0.3-0.1,0.5c-0.1,0.2-0.2,0.3-0.2,0.4
		c0,0.1,0,0.2-0.1,0.3C58,25.5,58,25.5,58,25.6c0,0-0.1,0.1-0.2,0.1c-0.1,0-0.2,0.1-0.1,0.2c0,0,0.1,0.1,0.1,0.2
		c0.1,0.1,0.1,0.2-0.1,0.4c-0.1,0.1-0.1,0.2-0.1,0.3c0,0.3-0.1,0.6-0.2,0.7c-0.1,0.1-0.1,0.2-0.2,0.4c-0.1,0.4-0.2,0.7-0.3,0.9
		c-0.2,0.2-0.2,0.5,0,0.8c0.1,0.1,0,0.2-0.1,0.2c-0.1,0-0.1,0.1-0.1,0.1c0-0.1-0.1,0-0.2,0.4c0,0.1-0.1,0.3-0.1,0.4
		c-0.1,0.2-0.1,0.4-0.1,0.4c0,0.1,0,0.3,0,0.4c0.1,0.1,0.1,0.2,0.1,0.3c0,0.1-0.1,0.2-0.2,0.2c0,0-0.1,0-0.1,0.1
		c0,0.1-0.1,0.4-0.1,0.6c-0.2,0.9-0.2,1.3-0.2,1.1c0,0.2-0.1,0.3-0.3,0.4c-0.2,0.1-0.3,0.3-0.3,0.6c0,0.1,0,0.3-0.1,0.6
		c0,0.1,0,0.2,0,0.5c0,0.1,0,0.2-0.1,0.2c-0.1,0-0.2,0.2-0.2,0.4c0,0.1,0,0.2,0,0.3c0,0.2-0.1,0.3-0.3,0.3l-0.2,0
		c-0.2,0.2-0.5,0.2-0.9,0c-0.2-0.1-0.4-0.2-0.5-0.1c-0.2,0-0.4-0.1-0.5-0.2c-0.1-0.2-0.3-0.3-0.6-0.2c-0.1,0-0.1,0-0.2,0
		c-0.3,0-0.5-0.1-0.6-0.3c-0.1-0.1-0.2-0.2-0.3-0.2c-0.1,0-0.3-0.1-0.4-0.3c-0.1-0.3-0.2-0.7-0.4-1.3c-0.1-0.4-0.3-1.1-0.6-2
		c0-0.1-0.1-0.1-0.2-0.2c-0.5,1.1-0.7,1.7-0.7,1.8c0,0.1,0,0.2-0.1,0.2c-0.1,0.1-0.2,0.4-0.2,0.7c0,0.1,0,0.2-0.1,0.4
		c0,0.1,0,0.3,0,0.4c0,0,0,0.1-0.1,0.3c-0.1,0.1-0.1,0.2-0.1,0.2c0.1,0.2,0,0.4-0.1,0.7c0,0.1-0.1,0.1,0,0.2c0,0.1,0,0.2-0.1,0.2
		c-0.1,0-0.1,0.1-0.1,0.2c0,0.1-0.1,0.1-0.2,0.2c-0.3,0.1-0.4,0.2-0.3,0.5c0.1,0.6,0.1,0.9,0.1,0.9c0,0.3-0.1,0.7-0.4,1.1
		c-0.1,0.1-0.2,0.2-0.4,0.2c-0.3,0-0.4-0.1-0.4-0.3v0c0-0.3,0-0.4-0.1-0.5c0,0-0.2-0.1-0.5-0.1c-0.3,0-0.5,0-0.6,0.1
		c-0.2,0-0.4,0.1-0.4,0.2C44.4,40,44.2,40.1,44,40c-0.2,0-0.3-0.1-0.4-0.2c-0.4-0.4-0.6-0.6-0.6-0.7c-0.3-0.5-0.6-0.9-0.9-1.3
		c0,0-0.1-0.2-0.3-0.5l-0.1-0.2l-0.1,0c-0.1,0.1-0.2,0.1-0.3,0c-0.1-0.2-0.2-0.3-0.2-0.4c0-0.1-0.1-0.4-0.2-0.8c0-0.1,0-0.1,0.1-0.2
		c0.2-0.1,0.3-0.2,0.3-0.4c0-0.2-0.1-0.3-0.3-0.4c0,0,0,0,0-0.1c0,0,0,0,0,0c0,0,0,0,0,0c0,0,0,0.1,0,0.1h0v0c0,0,0,0,0,0
		c0,0.2,0,0.3,0,0.3c-0.1,0.1-0.2,0-0.3-0.2c-0.2-1.1-0.4-1.8-0.4-2c0-0.1,0-0.2,0.2-0.2c0,0,0,0,0,0.1c0-0.1,0-0.2,0-0.1
		c0-0.2,0.1-0.4,0.1-0.4c0-0.1,0-0.1,0-0.2c-0.1-0.1-0.1-0.3-0.2-0.6c-0.1-0.3-0.1-0.4-0.2-0.6c0.1,0,0.1,0.1,0,0.2
		c0,0-0.1,0.1-0.1,0.1c0,0-0.1,0-0.1,0c0,0-0.1-0.1-0.1-0.1c0-0.2-0.1-0.5-0.1-0.9c0-0.1,0-0.1,0-0.2c0.1-0.2,0.1-0.3-0.1-0.4
		c-0.2-0.1-0.2-0.3,0-0.6c0,0,0,0,0,0c0,0,0.1-0.1,0.1-0.1c0.1-0.1,0.1-0.2-0.1-0.2c-0.2,0-0.3-0.1-0.3-0.2
		c-0.1-0.7-0.2-1.3-0.3-1.7c0,0-0.1-0.5-0.4-1.2c-0.1-0.4-0.1-0.6-0.1-0.7c0-0.1,0-0.1-0.1-0.2c-0.1-0.1-0.2-0.4-0.2-0.7
		c-0.1-0.3-0.2-0.5-0.3-0.6c0,0-0.1-0.2-0.2-0.8c-0.5-1.4-0.7-2.3-0.8-2.5c-0.2-0.7-0.4-1.1-0.5-1.5c-0.1-0.3-0.1-0.6-0.1-0.8
		c0-0.1,0-0.2,0-0.4c-0.1-0.4-0.1-0.7,0.1-1c0,0,0.1-0.2,0.1-0.5c0-0.2,0.1-0.2,0.2-0.2c0.1,0,0.1-0.1,0.1-0.2
		c0.1-0.4,0.2-0.6,0.2-0.8c0-0.1-0.1-0.2-0.2-0.3c0,0,0-0.1,0-0.1c0-0.1,0-0.1,0.1-0.1c0.1,0,0.3-0.1,0.4-0.2c0,0,0,0,0,0
		c0.2-0.1,0.3-0.1,0.3-0.1c0.1,0.1,0.2,0.2,0.1,0.3c0,0.1-0.1,0.2-0.1,0.3c-0.1,0.1-0.1,0.3-0.1,0.3c0,0.1,0,0.2,0.1,0.2
		c0.1,0,0.2,0,0.2-0.1c0.2-0.4,0.2-0.7,0.2-0.9c0,0,0-0.1,0-0.3c0-0.3,0.1-0.5,0.2-0.7c0,0,0.2-0.2,0.6-0.5c0.2,0.2,0.3,0.4,0.5,0.5
		c0.2,0.1,0.3,0.2,0.3,0.3c0,0.1,0,0.2-0.1,0.2c-0.1,0-0.2,0.1-0.3,0.2c-0.1,0.2-0.1,0.3,0,0.5c0,0,0,0,0,0c0,0,0.1,0,0.1,0
		c0,0.1,0,0,0-0.1c0-0.1,0.1-0.2,0.2-0.2c0.2,0.1,0.3,0.2,0.2,0.3c-0.1,0.1-0.1,0.4,0.1,0.7c0.1,0.3,0.2,0.6,0.2,0.9
		c0.1,0.9,0.3,1.7,0.6,2.5c0.7,1.7,1.2,2.8,1.3,3.2c0.5,1.2,0.8,2.2,1,3c0.4,1.6,0.7,2.6,0.7,2.8c0.3,1,0.5,1.8,0.6,2.5
		c0,0.2,0,0.2,0,0.2c0,0.1,0.1,0.5,0.2,1.2c0,0,0,0.1,0,0.2c0,0.1,0,0.2,0,0.2c0,0.1,0.1,0.2,0.1,0.4c0,0,0,0,0.1,0c0,0,0,0,0,0
		c0-0.2,0.1-0.6,0.3-1.1c0,0,0-0.1,0.1-0.4c0-0.1,0.1-0.2,0.1-0.3c0.2-0.2,0.4-0.7,0.6-1.4c0,0.1,0.1-0.2,0.5-1
		c0-0.1,0.1-0.2,0.1-0.5c0-0.2,0.1-0.4,0.2-0.5c0.1-0.1,0.1-0.2,0.1-0.3c0-0.2,0.1-0.4,0.3-0.4c0.1,0,0.1-0.1,0.1-0.2l0-0.2
		c-0.1,0.3,0.2-0.5,0.9-2.2c0,0,0.1-0.2,0.3-0.4c0.3-0.5,0.7-0.6,1.2-0.5c0.1,0,0.2,0,0.2,0c0.2-0.1,0.4-0.1,0.6,0.1
		c0-0.1,0.1-0.1,0.1-0.2c0.1-0.2,0.2-0.3,0.3-0.3c0.3,0,0.5,0.2,0.5,0.4c0,0.2,0,0.4,0,0.5c-0.1,0.2-0.1,0.4,0,0.7
		c0.3,0.9,0.5,1.2,0.4,1.1c0,0,0,0.1,0,0.1c0,0-0.1,0-0.1,0c0,0-0.1-0.1-0.2-0.2c0,0,0,0.1,0,0.2c0.1,0.2,0.3,0.9,0.7,2
		c0.2,0.6,0.4,1.1,0.4,1.4c0,0.2,0.1,0.3,0.1,0.3c0,0,0.1-0.1,0.2-0.3c0.1-0.1,0.1-0.2,0-0.3c-0.1-0.2-0.1-0.3,0.1-0.5
		c0.3-0.3,0.5-0.8,0.5-1.3c0-0.2,0.1-0.4,0.2-0.6c0.1-0.1,0.1-0.2,0.2-0.4c0.1-0.1,0.1-0.3,0-0.4c-0.1-0.2,0-0.4,0.2-0.7
		c0.4-0.6,0.5-1.1,0.6-1.4c0-0.1,0.1-0.3,0.1-0.5c0.1-0.2,0.1-0.4,0.1-0.5c0,0,0.1-0.1,0.2-0.2c0.1-0.2,0.2-0.3,0-0.5
		c-0.1-0.2-0.1-0.4,0.1-0.6c0.3-0.2,0.4-0.4,0.3-0.6c0-0.1,0-0.2,0.1-0.2c0.1-0.1,0.1-0.3,0-0.4c0,0,0-0.1,0-0.2
		c0-0.6,0.1-0.8,0.1-0.7c0,0,0-0.1,0.1-0.1c0.1,0,0.1-0.1,0.2,0c0.1,0.1,0.2,0,0.2-0.1c0-0.1,0-0.2-0.1-0.3
		c-0.1-0.1-0.1-0.3-0.1-0.5c0-0.1,0-0.1,0-0.2c-0.1-0.4,0.1-0.7,0.4-0.9c0.1,0,0.1-0.1,0-0.2l-0.1-0.2c0-0.1,0-0.2,0.1-0.3
		c0.1-0.1,0.1-0.2,0-0.3c-0.1-0.1-0.1-0.1-0.1-0.2c0,0,0.1-0.2,0.2-0.7c0.1-0.2,0.1-0.4,0.2-0.4c0.1,0,0.1-0.1,0.1-0.2
		c0-0.1,0.1-0.2,0.1-0.2c-0.3-0.1-0.4-0.3-0.4-0.5c0-0.1,0-0.2,0-0.2c-0.1-0.1-0.1-0.3,0-0.5l0,0c0.4-0.3,0.6-0.7,0.6-1.5
		c0-0.3,0.1-0.5,0.1-0.6c0,0,0.1-0.1,0.1-0.2c0-0.1,0-0.2,0-0.2c0.1-0.4,0.3-0.8,0.3-1.3c0,0.2,0-0.1,0.2-0.9c0-0.1,0.1-0.2,0.2-0.3
		c0.1-0.1,0.1-0.1,0.2,0c0.1,0.1,0.2,0.1,0.3,0c0.2-0.1,0.4-0.1,0.6,0h0.2c0.3,0,0.6,0.2,0.6,0.6c0,0,0,0,0,0c0,0,0.1,0.1,0.1,0.1
		c0.1,0,0.1,0,0.1-0.1c0-0.1,0.3-0.3,0.7-0.8c0.1-0.1,0.1-0.1,0.1-0.1S61.3,7.7,61.4,7.8z M40,32L40,32c0.1,0.1,0.1,0.2,0.1,0.3
		c0,0-0.1,0.1-0.1,0.1c0,0,0,0,0,0C40,32.2,39.9,32.1,40,32C39.9,32,39.9,32,40,32C39.9,32,40,32,40,32z M40.4,33.5
		C40.4,33.6,40.4,33.6,40.4,33.5c0,0.1,0,0.1,0,0.1C40.4,33.6,40.4,33.6,40.4,33.5C40.4,33.6,40.4,33.6,40.4,33.5z M40.4,36.2
		c-0.1-0.1,0,0,0.2,0.4c0,0,0.1,0.1,0.2,0.4C40.6,36.8,40.4,36.6,40.4,36.2z M40.5,34.1c0-0.1,0,0,0,0.2C40.5,34,40.5,34,40.5,34.1z
		 M40.8,35.1c-0.1-0.2-0.1-0.3-0.2-0.5C40.7,34.7,40.7,34.9,40.8,35.1z M40.8,34.8C40.8,34.8,40.9,34.7,40.8,34.8
		C40.9,34.7,40.8,34.8,40.8,34.8z M52.1,25.5c-0.1,0-0.2-0.1-0.2-0.4l0,0h0C52.1,25.2,52.1,25.3,52.1,25.5z M53.2,29.1
		C53.3,29.1,53.3,29.1,53.2,29.1C53.3,29.1,53.3,29.1,53.2,29.1z M53.5,37.8c0.1,0,0.1,0.1,0.1,0.2c0,0.1,0,0.1-0.1,0.1
		c-0.1,0-0.1-0.1-0.1-0.2C53.4,37.8,53.4,37.8,53.5,37.8z M56.5,27.4c0.1-0.3,0.1-0.5,0.1-0.5l-0.1-0.1l-0.1,0
		C56.4,27,56.4,27.2,56.5,27.4C56.4,27.4,56.4,27.4,56.5,27.4C56.4,27.4,56.5,27.4,56.5,27.4z M60.3,9.7c0,0,0-0.1,0-0.1v0l0,0
		c0,0-0.1,0,0,0.1C60.3,9.6,60.3,9.7,60.3,9.7L60.3,9.7z M60.8,10.2C60.8,10.2,60.8,10.1,60.8,10.2c0-0.2,0-0.2,0-0.2
		c0,0,0-0.1-0.1-0.1c0,0-0.1,0-0.1,0.1C60.7,10,60.7,10.1,60.8,10.2C60.7,10.1,60.8,10.2,60.8,10.2z M60.8,9.4
		c0.1-0.3,0.1-0.5,0-0.6C60.8,9,60.8,9.3,60.8,9.4z"/>
	<path class="st0" d="M68.5,36.7c0,0,0,0.1-0.1,0.3c0.1,0.6-0.1,1-0.5,1.4c-0.3,0.2-0.4,0.5-0.6,1c-0.1,0.2-0.1,0.3-0.1,0.4
		c-0.1,0.1-0.2,0.2-0.3,0.4c-0.1,0.2-0.2,0.3-0.3,0.4c0.1,0-0.2-0.1-0.9-0.3c-0.2,0-0.4-0.1-0.4-0.1c-0.3,0-0.7-0.1-1.1-0.3
		c-0.3-0.1-0.5-0.1-0.7,0c-0.2,0.1-0.4,0.1-0.6,0c-0.1-0.1-0.4-0.3-0.7-0.5c-0.3-0.2-0.5-0.4-0.7-0.5c0,0-0.1-0.1-0.2-0.2
		c-0.1-0.1,0-0.2,0.1-0.2c0.5-0.2,0.8-0.7,1-1.5c0.1-0.4,0.2-0.7,0.2-0.7c0,0,0-0.2,0.1-0.5c0,0,0.1-0.1,0.1-0.2
		c0.1-0.1,0.1-0.1,0.1-0.2c0-0.2,0.3-0.6,0.7-1.1c0.2-0.3,0.5-0.4,0.8-0.4c0.1,0,0.2,0,0.4-0.2c0.1-0.2,0.3-0.2,0.6,0
		c0,0,0.1,0.1,0.4,0.3c-0.1-0.1,0.4,0.3,1.5,1.2c0.1,0.1,0.2,0.1,0.2,0c0.2-0.2,0.3-0.2,0.3,0.1c0,0.3,0.2,0.7,0.4,1.3
		c0,0,0.1,0.1,0.1,0.2C68.5,36.6,68.5,36.7,68.5,36.7z M70.2,2.2C70,2.8,70,3.4,70.1,4c0,0.2,0,0.3-0.1,0.5
		c-0.3,0.4-0.4,0.8-0.3,1.2c0,0.1,0,0.3-0.1,0.4c-0.2,0.3-0.3,0.6-0.2,1c0,0.1,0,0.3,0,0.4c0.1-0.2-0.1,0.5-0.4,2l0,0.1
		c0,0.6-0.1,1.2-0.3,1.8c0,0,0,0.1,0,0.2c0,0.1,0,0.2,0,0.2c-0.1,0.3-0.3,0.7-0.6,1c-0.1,0.1-0.1,0.2,0.1,0.3c0.2,0,0.3,0.1,0.3,0.2
		c0,0.2,0,0.3-0.2,0.5c-0.1,0-0.2,0.1-0.3,0.1c-0.1,0-0.2,0.1-0.2,0.3c0,0.1,0.1,0.2,0.2,0.2c0.2,0.1,0.3,0.3,0.3,0.5
		C68,15.6,68,16,68,16c0,0.3-0.1,0.5-0.4,0.5c-0.1,0-0.1,0.1-0.1,0.2c0,0,0.1,0.1,0.1,0.1c0.2,0,0.3,0.1,0.2,0.2
		c0,0.1-0.1,0.3-0.1,0.5c0,0.3,0,0.4-0.1,0.5c0,0.1,0,0.2-0.1,0.3c0,0.1-0.1,0.3-0.1,0.3c-0.1,0.4-0.2,0.7,0,1c0.1,0.2,0,0.5-0.1,1
		c-0.1,0.4-0.2,0.6-0.2,0.6c-0.1,0.3-0.4,0.4-0.7,0.1c0,0.4,0,0.7,0,0.7c0,0.2,0.1,0.3,0.3,0.3c0.1,0,0.2,0,0.2,0
		c0.2,0,0.2,0.1,0.1,0.3c-0.1,0.1-0.1,0.2-0.1,0.2c-0.1,0.1-0.2,0.3-0.2,0.6c0,0.3,0,0.6-0.1,1.2c0,0.3,0,0.5,0,0.7
		c0.1,0.3,0.1,0.6-0.2,0.9l-0.2,0.2c0.3,0.4,0.4,0.6,0.4,0.7c0.1,0,0.1-0.1,0.2-0.2c0-0.2,0.1-0.5,0.1-0.9c0-0.2,0.1-0.4,0.2-0.6
		c0.1-0.2,0.2-0.2,0.3-0.1c0.1,0.1,0.1,0.2,0,0.3c-0.1,0.1-0.1,0.3-0.1,0.6c0,0.1,0,0.2-0.1,0.4c0,0.2-0.1,0.4,0,0.5
		c0,0.1-0.1,0.2-0.2,0.3c-0.1,0-0.3,0-0.4-0.2l0,0l0,0c-0.1,0.2-0.2,0.3-0.2,0.2c-0.1,0.1-0.1,0.1-0.2,0.1c0,0-0.1,0-0.2-0.1
		c-0.1,0-0.1-0.1-0.2-0.1c-0.2-0.1-0.3-0.1-0.3,0.2c0,0.2,0,0.5-0.1,0.9c-0.1,0.4-0.1,0.7-0.1,0.9c0,0.2-0.1,0.3-0.2,0.4
		c-0.3,0-0.6,0.2-0.8,0.6c-0.1,0.2-0.3,0.3-0.6,0.1c-0.1-0.1-0.3-0.1-0.5-0.3c-0.3-0.1-0.4-0.2-0.5-0.3c-0.3-0.2-0.5-0.5-0.4-1
		c0-0.1,0-0.2,0.1-0.2c0.2-0.3,0.4-1,0.6-2.1c0.1-0.4,0.2-0.6,0.3-0.7c0.1,0,0.1-0.1,0-0.2c-0.1-0.2,0-0.4,0.1-0.7
		c0.2-0.4,0.2-0.7,0.2-0.8c-0.1-0.1,0-0.3,0.2-0.5c0.3-0.4,0.4-0.8,0.2-1.2c-0.1-0.1-0.1-0.2,0-0.4c0.2-0.4,0.3-0.8,0.2-1.1
		c-0.1-0.3-0.1-0.5,0-0.8c0-0.1,0.1-0.3,0.2-0.7c0.1-0.1,0-0.3,0-0.4c-0.1-0.1-0.1-0.3,0.1-0.4c0.1,0,0.1-0.1,0.2-0.2
		c0.1-1.3,0.2-1.9,0.2-2l0.1-1.1c0-0.4,0-0.7,0.1-1c0.1-0.2,0.1-0.3,0-0.4c0-0.3,0-0.7,0.1-1.3c0.3-2,0.5-3.1,0.6-3.5
		c0-0.2,0.1-0.3,0-0.2c0.1-0.3,0.3-1,0.7-2.1c0.3-0.8,0.5-1.5,0.7-2c0.1-0.4,0.3-0.7,0.6-0.9c0.1-0.1,0.3-0.3,0.4-0.5
		C68.4,3.1,68.5,3,68.7,3c0.1,0,0.2-0.1,0.2-0.2c0.1-0.1,0.2-0.2,0.2-0.3c0.1,0,0.1,0.1,0.2,0.2c0,0.1,0.1,0.2,0.1,0.2
		c0.3-0.2,0.5-0.6,0.5-1.1c0-0.1,0.1-0.2,0.2-0.2c0.1,0,0.2,0.1,0.2,0.2c0,0.1,0,0.2,0,0.2S70.3,2.2,70.2,2.2z M62.9,30.7
		c-0.1,0-0.2,0-0.2-0.1c-0.1-0.1,0-0.2,0.1-0.2c0.1,0,0.2,0.1,0.2,0.2C63,30.7,63,30.7,62.9,30.7z M66.6,21.9c0.1-0.1,0.1-0.1,0.3,0
		l0,0.1c-0.1,0.1-0.2,0.2-0.2,0.1c-0.1,0-0.1-0.1-0.1-0.1S66.6,22,66.6,21.9z M67,20.1c0-0.1,0-0.2-0.1-0.2c-0.1,0-0.2,0.1-0.2,0.2
		c0,0.1,0,0.2,0.1,0.2C66.8,20.3,66.9,20.2,67,20.1z M67.2,28.3c0,0.2-0.1,0.3-0.2,0.2c-0.2-0.1-0.3-0.3-0.2-0.5
		c0-0.1,0.1-0.1,0.2-0.1c0.1,0,0.1,0,0.2,0.1C67.1,28,67.1,28.1,67.2,28.3z M67.1,39.3c0.1,0,0.1-0.1,0.1-0.2c0-0.1,0-0.2-0.2-0.2
		c-0.1,0-0.2,0-0.2,0.2C66.8,39.3,66.9,39.4,67.1,39.3z M67.4,24.4c0-0.1,0.1-0.1,0.2-0.1l0,0.1c0,0.1-0.1,0.1-0.2,0.1
		C67.4,24.5,67.3,24.5,67.4,24.4z M70.3,3.1c0.1,0,0.1,0,0.1,0.1c0,0.1,0,0.1-0.1,0.1c-0.1,0-0.1-0.1-0.1-0.2
		C70.2,3.1,70.3,3.1,70.3,3.1z M70.4,8.4c0-0.2,0.1-0.4,0.2-0.7c0.1,0.3,0.1,0.5-0.1,0.7C70.5,8.4,70.5,8.5,70.4,8.4
		C70.5,8.4,70.4,8.4,70.4,8.4z M70.9,6.8c0,0,0.1,0,0.1,0l0,0.1l-0.1,0.2c0,0-0.1,0-0.1,0c0,0,0,0,0-0.1C70.8,6.9,70.9,6.9,70.9,6.8
		C70.9,6.9,70.9,6.9,70.9,6.8z M71.8,2.1c0.1,0,0.1,0,0.2,0.2c-0.1,0.2-0.1,0.5-0.2,1c0,0.5-0.1,0.8-0.1,1c-0.1,0.6-0.2,1.1-0.3,1.5
		c0,0.3-0.1,0.5-0.3,0.7c0,0-0.1,0.1-0.1,0c-0.1,0-0.1-0.1-0.1-0.1c-0.1,0.3,0-0.2,0.3-1.6c0.2-0.9,0.4-1.6,0.4-2.3
		c0-0.1,0-0.2,0.1-0.2C71.7,2.1,71.8,2.1,71.8,2.1z"/>
</g>
</svg>
