<svg xmlns="http://www.w3.org/2000/svg" xmlns:xlink="http://www.w3.org/1999/xlink" preserveAspectRatio="xMidYMid" width="373" height="10" viewBox="0 0 373 10">
  <defs>
    <style>
      .cls-1 {
        fill: #d4b67a;
        fill-rule: evenodd;
      }
    </style>
  </defs>
  <path d="M367.897,9.822 C364.208,9.376 361.955,6.174 354.463,5.113 C354.408,6.034 353.683,6.764 352.791,6.764 C351.863,6.764 351.113,5.974 351.113,5.000 C351.113,4.018 351.863,3.228 352.791,3.228 C353.683,3.228 354.408,3.959 354.463,4.888 C361.955,3.826 364.208,0.624 367.897,0.171 C371.229,-0.236 372.960,2.438 373.001,5.000 C372.960,7.555 371.229,10.246 367.897,9.822 ZM344.740,9.758 C344.274,9.758 344.259,8.521 342.789,6.916 C341.423,5.432 338.370,5.543 338.370,5.000 C338.370,4.465 341.423,4.577 342.789,3.084 C344.259,1.479 344.274,0.242 344.740,0.242 C345.206,0.242 345.221,1.479 346.686,3.084 C348.054,4.577 351.113,4.465 351.113,5.000 C351.113,5.543 348.054,5.432 346.686,6.916 C345.221,8.521 345.206,9.758 344.740,9.758 ZM335.142,5.671 L237.174,5.678 C236.865,8.006 235.159,10.208 232.121,9.822 C228.432,9.376 226.179,6.174 218.687,5.113 C218.632,6.034 217.906,6.764 217.015,6.764 C216.087,6.764 215.337,5.974 215.337,5.000 C215.337,4.018 216.087,3.228 217.015,3.228 C217.906,3.228 218.632,3.959 218.687,4.888 C226.179,3.826 228.432,0.624 232.121,0.171 C235.159,-0.201 236.865,1.990 237.174,4.322 L335.143,4.322 C335.395,3.679 335.996,3.228 336.696,3.228 C337.620,3.228 338.370,4.018 338.370,5.000 C338.370,5.974 337.620,6.764 336.696,6.764 C335.995,6.764 335.394,6.312 335.142,5.671 ZM208.964,9.758 C208.498,9.758 208.483,8.521 207.013,6.916 C205.646,5.424 202.594,5.543 202.594,5.000 C202.594,4.457 205.646,4.569 207.013,3.084 C208.483,1.479 208.498,0.242 208.964,0.242 C209.429,0.242 209.444,1.479 210.910,3.084 C212.277,4.569 215.337,4.457 215.337,5.000 C215.337,5.543 212.277,5.424 210.910,6.916 C209.444,8.521 209.429,9.758 208.964,9.758 ZM199.244,5.118 C194.731,6.460 191.180,9.890 186.492,10.006 C181.807,9.890 178.253,6.460 173.743,5.118 C173.685,6.037 172.957,6.764 172.064,6.764 C171.144,6.764 170.394,5.974 170.394,5.000 C170.394,4.018 171.144,3.228 172.064,3.228 C172.957,3.228 173.685,3.956 173.743,4.882 C178.253,3.533 181.807,0.111 186.492,-0.006 C191.180,0.111 194.731,3.534 199.244,4.882 C199.302,3.956 200.030,3.228 200.920,3.228 C201.844,3.228 202.594,4.018 202.594,5.000 C202.594,5.974 201.844,6.764 200.920,6.764 C200.030,6.764 199.302,6.037 199.244,5.118 ZM164.024,9.758 C163.554,9.758 163.543,8.521 162.078,6.916 C160.710,5.424 157.647,5.543 157.647,5.000 C157.647,4.457 160.710,4.569 162.078,3.084 C163.543,1.479 163.554,0.242 164.024,0.242 C164.490,0.242 164.501,1.479 165.971,3.084 C167.338,4.569 170.394,4.457 170.394,5.000 C170.394,5.543 167.338,5.424 165.971,6.916 C164.501,8.521 164.490,9.758 164.024,9.758 ZM154.297,5.113 C146.808,6.175 144.555,9.376 140.867,9.822 C137.829,10.208 136.123,8.006 135.813,5.678 L37.846,5.671 C37.594,6.312 36.993,6.764 36.291,6.764 C35.367,6.764 34.617,5.974 34.617,5.000 C34.617,4.018 35.367,3.228 36.291,3.228 C36.992,3.228 37.592,3.679 37.845,4.322 L135.813,4.322 C136.123,1.990 137.829,-0.201 140.867,0.171 C144.555,0.624 146.808,3.825 154.297,4.888 C154.352,3.959 155.078,3.228 155.969,3.228 C156.897,3.228 157.647,4.018 157.647,5.000 C157.647,5.974 156.897,6.764 155.969,6.764 C155.078,6.764 154.353,6.034 154.297,5.113 ZM28.248,9.758 C27.778,9.758 27.767,8.521 26.301,6.916 C24.934,5.432 21.871,5.543 21.871,5.000 C21.871,4.465 24.934,4.577 26.301,3.084 C27.767,1.479 27.778,0.242 28.248,0.242 C28.714,0.242 28.729,1.479 30.194,3.084 C31.565,4.577 34.617,4.465 34.617,5.000 C34.617,5.543 31.565,5.432 30.194,6.916 C28.729,8.521 28.714,9.758 28.248,9.758 ZM18.521,5.113 C11.032,6.175 8.779,9.376 5.091,9.822 C1.758,10.246 0.028,7.555 -0.014,5.000 C0.028,2.438 1.758,-0.236 5.091,0.171 C8.779,0.624 11.032,3.825 18.521,4.887 C18.576,3.959 19.301,3.228 20.193,3.228 C21.121,3.228 21.871,4.018 21.871,5.000 C21.871,5.974 21.121,6.764 20.193,6.764 C19.301,6.764 18.576,6.034 18.521,5.113 Z" class="cls-1"/>
</svg>
