<?xml version="1.0" encoding="UTF-8" standalone="no"?>
<!DOCTYPE svg  PUBLIC '-//W3C//DTD SVG 1.1//EN'  'http://www.w3.org/Graphics/SVG/1.1/DTD/svg11.dtd'>
<svg xmlns="http://www.w3.org/2000/svg">
<defs>
<font id="ShepiaScript-Regular" horiz-adv-x="447">
<font-face underline-position="-50" font-weight="400" descent="-200" panose-1="2 0 5 5 0 0 0 2 0 4" units-per-em="1000" unicode-range="U+000D-20AC" bbox="-395 -271 1304 952" x-height="510" underline-thickness="50" font-family="ShepiaScript" ascent="800" cap-height="763"/>
<missing-glyph horiz-adv-x="1000"/>
<glyph glyph-name=".notdef" horiz-adv-x="1000"/>
<glyph glyph-name=".null" horiz-adv-x="0"/>
<glyph glyph-name="nonmarkingreturn" horiz-adv-x="1000" unicode=""/>
<glyph glyph-name="space" horiz-adv-x="300" unicode=" "/>
<glyph glyph-name="exclam" horiz-adv-x="327" unicode="!" d="M66 -1q-16 -1 -20 15q-1 5 -2 11q0 12 7 25q9 22 27 38t35 15q16 1 20 -15q1 -5 1 -11q0 -12 -6 -27q-11 -20 -28 -36t-34 -15zM549 736q0 -10 -13 -34q-14 -26 -38 -61t-54 -77t-62 -82q-20 -27 -39 -53q-19 -27 -35 -49t-30 -40q-12 -18 -18 -29q-24 -45 -36 -67 t-18 -32q-6 -12 -12 -22q-5 -10 -15 -31q-4 -9 -14 -13l-8 -2l-12 3q-10 5 -13 15q-1 4 -1 8q0 5 2 11q7 15 11 23t8 14t6 14q4 6 10 18t17 30q10 19 27 49h1q2 6 4 9q32 58 63 112t61 105q27 43 52 81t48 64q23 28 42 44t34 18q4 1 8 1q24 -1 24 -27z"/>
<glyph glyph-name="quotedbl" horiz-adv-x="309" unicode='&quot;' d="M397 762q9 -1 11 -9.5t2 -11.5q0 -13 -11 -29v-1l-1 -1q-11 -15 -19.5 -28t-16.5 -24q-16 -25 -28 -42q-5 -8 -10 -9.5t-7 -1.5q-5 0 -10 4q-11 8 -11 17q0 5 4 11q5 7 10.5 15t12.5 19q-12 4 -12 21q0 13 10 29q12 20 31 31t33 11q3 0 12 -1zM298 711q-1 0 -1 -1 q-11 -15 -19.5 -28t-15.5 -24q-8 -12 -15.5 -23t-13.5 -19q-5 -8 -10.5 -9.5t-7.5 -1.5q-5 0 -9 4q-11 8 -11 17q0 5 4 11q5 7 10.5 15t12.5 19q-12 4 -12 21q0 13 10 29q12 20 30 31t33 11q2 0 12 -1t11.5 -9.5t1.5 -11.5q0 -13 -10 -29v-1z"/>
<glyph glyph-name="numbersign" horiz-adv-x="802" unicode="#" d="M269 282q38 0 76 -2l76 -4q3 5 5 10t5 10l1 1q2 2 4 5t3 7q6 11 12 21t11 22q-35 2 -71 3t-71 2q-15 -20 -27 -38l-20 -30q-1 -1 -1 -3t-3 -4zM704 381q9 0 15 -7q5 -6 5 -13q0 -10 -8 -17q-6 -6 -14 -5l-43 2q-29 2 -65 4t-76 4q-14 -17 -24 -33t-18 -27q-2 -5 -4 -8 t-4 -7q38 -2 72 -4t60 -4l43 -1q9 -3 15 -9t4 -14q0 -9 -6 -15t-15 -5l-43 3q-30 1 -69 3t-83 5q-33 -62 -59 -113t-41 -82q-4 -8 -12 -11q-3 -1 -6 -1l-10 3q-6 3 -10 11t1 15q13 29 37 77t53 103q-39 1 -77 3l-76 4q-34 -64 -61 -118l-43 -86q-4 -8 -12 -11q-3 -1 -6 -1 l-10 3q-8 3 -11 11t1 15q14 30 39 79t57 108q-29 1 -54 1q-13 -1 -24 -1q-35 0 -59 -2q-8 -1 -15 4t-7 15q-1 2 -1 4q0 5 5 11q6 6 16 7q26 3 68 3h29q30 0 63 -1q1 3 3 6l4 6q0 1 1 2q1 2 3 5t4 8q8 12 14 24t12 25q-42 -1 -78 -1t-60 -2q-20 0 -22 20q-2 8 4 14t14 8 q29 4 72 4h18q36 0 78 -2q12 24 24 44t23 39q22 37 43 67q22 30 40 53t34 37t27 14h6q13 0 19 -12q2 -4 2 -9q0 -9 -11 -29q-11 -22 -31 -50q-20 -29 -45 -63l-50 -68q-5 -6 -9 -12t-9 -13q33 -1 67 -2t68 -3q14 25 26 47t27 43q22 37 43 67q22 30 40 53t34 37t27 14h6 q21 0 21 -21q0 -9 -10 -29q-12 -22 -32 -50q-20 -29 -44 -63l-50 -68q-7 -9 -13 -17l-12 -16q32 -2 60 -4t52 -3z"/>
<glyph glyph-name="dollar" horiz-adv-x="585" unicode="$" d="M338 164q22 35 22 81q0 28 -8 58.5t-25 61.5q-11 -18 -20.5 -31t-13.5 -21q0 -2 -1 -2.5t-1 -1.5q-35 -61 -66 -119t-58 -109q33 1 61.5 7t49.5 17q20 13 35 27.5t25 31.5zM306 587q-5 -16 -5 -32q0 -14 6 -37t20 -53q16 27 31 54t31 53q15 26 30 50t30 47 q-58 -1 -94 -22q-36 -22 -49 -60zM544 678q7 -3 9 -8q32 -35 32 -81v-10t-2 -10q-1 -9 -9 -14.5t-18 -3.5q-8 2 -14 9.5t-4 16.5q0 3 0.5 6.5t0.5 5.5q0 29 -19 50l-2 2q-24 -36 -51 -75t-53 -75q-15 -23 -29.5 -43.5t-27.5 -39.5q2 -5 4 -9t4 -9h2q19 -38 29 -74t10 -71 q0 -58 -28 -103q-26 -47 -79 -76q-28 -14 -62 -22.5t-75 -8.5h-9.5t-9.5 1q-17 -33 -30 -60t-20 -43q-8 -12 -20 -12q-5 0 -12 2q-9 3 -12 12.5t2 17.5q7 15 18.5 38t27.5 53q-59 16 -81 59q-15 28 -15 59q0 16 3.5 31.5t9.5 30.5q17 38 49 65t74 30q10 2 16.5 -4.5 t6.5 -16.5q2 -9 -4 -16t-15 -8q-28 -2 -50 -22t-34 -46q-10 -23 -10 -44q0 -17 10 -35v-2q8 -14 22.5 -24.5t38.5 -15.5q36 69 83.5 156t96.5 176q-23 44 -33 77t-10 56q0 24 7 50q8 26 24.5 49t44.5 38q48 28 125 28q5 0 10.5 -0.5t9.5 -0.5h1q35 50 61.5 79.5t43.5 31.5h6 q20 0 24 -20q1 -12 -18 -45.5t-50 -81.5z"/>
<glyph glyph-name="percent" horiz-adv-x="427" unicode="%" d="M313 187q8 18 8 28q0 7 -3 12q-2 3 -3 3q0 1 -3 1q-6 0 -14.5 -4.5t-16.5 -12.5q-9 -9 -17 -20t-13 -25q-7 -14 -7 -28q0 -9 2 -13l2 -1h1h3q14 0 31 15q10 9 17.5 20t12.5 25zM341 268q5 -5 9.5 -9t8.5 -10q8 -13 8 -34q0 -10 -2.5 -21.5t-8.5 -24.5q-7 -17 -18 -33.5 t-25 -27.5q-30 -28 -61 -28q-11 0 -21 3q-18 8 -25 24q-8 13 -8 34q0 10 2 21.5t8 24.5q16 38 43 62q14 13 30 20.5t31 7.5q11 0 21 -5q4 0 8 -4zM192 568q-4 -8 -5 -15t-1 -13q0 -9 1 -12q3 -3 4 -3l2 -1q13 0 31 18q10 8 18 19t13 25q7 17 7 28q0 7 -3 12q0 3 -2 3h-3 q-13 0 -31 -16q-20 -17 -31 -45zM173 482q-15 7 -27 24q-7 14 -7 34q0 18 10 46q8 18 19 33.5t24 27.5q14 13 30 20.5t32 7.5q11 0 20 -3q5 -1 8 -6q11 -6 19 -18q3 -8 5 -16t2 -18q0 -22 -10 -46q-16 -37 -43 -61q-14 -13 -30 -20.5t-32 -7.5q-13 0 -20 3zM354 468 q-34 -46 -63.5 -85.5t-43.5 -62.5q-23 -42 -44.5 -82.5t-40 -76.5t-33.5 -66l-25 -50q-4 -8 -10.5 -11t-10.5 -3q-5 0 -9 3q-9 5 -11.5 11.5t-2.5 9.5q0 5 3 10q15 32 43 86.5t62.5 119.5t73 133.5t75.5 128.5q24 39 46.5 72.5t43 59t38 40t30.5 16.5h5q24 0 24 -24 q0 -9 -12.5 -32t-34 -54.5t-49 -68.5t-54.5 -74z"/>
<glyph glyph-name="ampersand" horiz-adv-x="861" unicode="&amp;" d="M278 53q59 0 113.5 11t105.5 30q-11 26 -20 52.5t-17 53.5q-23 81 -29 163q-47 -24 -96.5 -52.5t-88 -60t-57 -61.5t-18.5 -56q0 -10 2 -19q6 -27 33 -43q25 -18 72 -18zM495 549q-5 -24 -8.5 -50t-4.5 -54q15 8 28.5 14t22.5 11q42 23 80 45t65 45q24 22 37.5 43.5 t13.5 42.5q0 15 -6 26.5t-14 19.5q-20 17 -54 17q-63 0 -102.5 -44t-57.5 -116zM957 -78q4 -7 4 -14q0 -3 -1.5 -10t-10.5 -12q-35 -21 -72 -31q-19 -6 -38 -8.5t-38 -2.5q-46 0 -86.5 15t-76 42t-65 64.5t-53.5 81.5q-55 -22 -115.5 -34.5t-126.5 -12.5q-31 0 -55.5 7 t-44.5 19q-45 29 -56 77q-4 15 -4 30q0 19 8 44t30.5 54.5t54.5 56t68.5 50.5t75 44.5t74.5 38.5q0 37 4 72t12 68q11 44 29 81t44.5 63.5t60.5 41.5t76 15q52 0 88 -31q16 -14 26 -34t12 -46v-7q0 -33 -17.5 -63.5t-51.5 -58.5q-31 -27 -70.5 -51t-84.5 -47 q-13 -6 -26.5 -12.5t-28.5 -14.5l-20 -9q2 -43 9 -87.5t19 -86.5q8 -26 16 -51t19 -49q103 50 170 117q60 57 76 101q7 19 2 28q-3 9 -18 15q-5 2 -9.5 3t-10.5 3l-4 -2q-24 -10 -43 -15.5t-33 -8.5q-17 -5 -29.5 -5t-20.5 4q-17 6 -22 17.5t-1 27.5q7 20 30 27 q7 3 15.5 4.5t19.5 3.5q23 2 35.5 2.5t16.5 0.5q16 0 29 -2q21 8 46.5 19t55.5 25q10 5 20 1.5t15 -14.5q5 -9 1 -19t-14 -15q-27 -12 -51 -24q15 -12 21 -29q5 -13 5 -27q0 -17 -7 -37q-9 -27 -31.5 -57.5t-57.5 -64.5q-35 -35 -81.5 -67t-100.5 -58q41 -76 99.5 -123.5 t132.5 -47.5q29 0 61 8q30 7 60 26q10 5 20 2.5t15 -11.5z"/>
<glyph glyph-name="quotesingle" horiz-adv-x="144" unicode="&apos;" d="M257 711q-1 0 -1 -1q-11 -15 -19.5 -28t-15.5 -24q-8 -12 -15.5 -23t-13.5 -19q-5 -8 -10.5 -9.5t-7.5 -1.5q-5 0 -9 4q-11 8 -11 17q0 5 4 11q5 7 10.5 15t12.5 19q-12 4 -12 21q0 13 10 29q12 20 30 31t33 11q2 0 12 -1t11.5 -9.5t1.5 -11.5q0 -13 -10 -29v-1z"/>
<glyph glyph-name="parenleft" horiz-adv-x="388" unicode="(" d="M595 872q11 -2 17 -10q5 -6 5 -15q0 -12 -10 -20q-8 -6 -19 -5q-5 1 -11 1q-22 0 -49 -13q-34 -16 -74 -47q-67 -51 -137 -133t-130 -178q-31 -47 -57 -96t-46 -97q-20 -47 -35 -93q-14 -46 -20 -87q-4 -25 -4 -48q0 -19 3 -37q6 -38 27 -63q7 -9 5 -19t-10 -16 q-7 -6 -15 -6h-3q-10 2 -17 11q-27 35 -35 81q-4 23 -4 49t4 54q6 45 20 93t37 98q22 50 49 101t59 101q31 49 65 96q34 46 70 88t72 78t71 62q48 37 92 56q35 15 65 15q7 0 15 -1z"/>
<glyph glyph-name="parenright" horiz-adv-x="525" unicode=")" d="M-85 -106q-11 2 -17 10t-6 18q2 10 10 16t19 5q5 -1 11 -1q22 0 49 13q34 16 75 48q33 25 68 59t69 74q35 40 67 85t62 92q32 49 58 97t46 96t34 94t20 87q4 25 4 47q0 19 -3 37q-6 38 -26 64q-7 8 -5 18t10 17q7 5 15 5h3q10 -1 17 -10q27 -35 35 -82q4 -24 4 -49 q0 -26 -4 -54q-6 -44 -21 -92t-37 -99q-22 -49 -48 -101q-28 -52 -59 -101t-65 -95t-71 -89q-36 -41 -72 -77t-71 -63q-48 -36 -92 -55q-34 -15 -64 -15q-8 0 -15 1z"/>
<glyph glyph-name="asterisk" horiz-adv-x="416" unicode="*" d="M370 592q5 0 8.5 -4t3.5 -9t-3.5 -8.5t-8.5 -3.5h-93q0 -2 2 -6q13 -29 25 -53t20 -38q5 -9 -5 -16q-11 -5 -16 5q-7 12 -18 33t-23 47q-8 -29 -13 -53.5t-7 -38.5q-2 -10 -11 -10h-3q-5 1 -8 5t-2 9q2 14 7 37.5t12 51.5q-23 -26 -42 -47t-30 -34q-3 -4 -8 -4t-9 3 q-5 5 -5 9t4 8q11 14 32.5 38t47.5 53l1 1h-59q-5 0 -8.5 3.5t-3.5 8.5t3.5 8.5t8.5 4.5h69q-3 6 -5.5 12t-4.5 12q-11 29 -14.5 44.5t-3.5 22.5q0 11 5 16q8 11 19 3q7 -5 13 -25.5t13 -46.5q0 3 1 4q10 32 20 55.5t20 28.5q4 2 8 2q6 0 10 -7q4 -6 -2.5 -26.5t-17.5 -45.5 q26 25 46.5 41.5t30.5 17.5q13 1 15 -12q0 -4 -7 -12.5t-19 -20t-27.5 -25t-30.5 -26.5l-15 -12h78z"/>
<glyph glyph-name="plus" horiz-adv-x="563" unicode="+" d="M498 394q11 0 18 -7t7 -18q0 -10 -7 -17t-17 -7h-203q-10 -27 -18 -59t-15 -61q-6 -29 -9 -49l-3 -21q-3 -11 -11 -17q-7 -5 -16 -4h-3q-10 2 -16 11t-4 19q3 15 5 28t6 29q4 15 8 37t13 54q1 2 3 15t5 18h-151q-8 1 -16 7t-8 17t8 17t16 8h163l12 44t13 43q9 31 16 53 q8 22 14 36t14 23q8 8 17 14q9 4 17 4q14 0 21 -14q3 -6 3 -16q0 -15 -8 -38q-12 -38 -38 -104q-6 -11 -10 -23t-9 -22h183z"/>
<glyph glyph-name="comma" horiz-adv-x="186" unicode="," d="M78 39q-1 0 -1 -1q-11 -15 -19 -28t-16 -24q-8 -12 -16 -23t-13 -19t-13 -10q-2 -1 -5 -1q-5 0 -9 4q-11 8 -11 17q0 5 4 11q5 7 11 15t12 19q-12 4 -12 21q0 13 10 29q12 20 32 32q17 10 31 10h5q18 -3 20 -17v-5q0 -13 -10 -29v-1z"/>
<glyph glyph-name="hyphen" horiz-adv-x="581" unicode="-" d="M497 394q11 0 18 -7t7 -18q0 -10 -7 -17t-17 -7h-105h-55h-151q-9 1 -17 7t-7 17q-1 11 7 17t17 8h163h62h85z"/>
<glyph glyph-name="period" horiz-adv-x="173" unicode="." d="M16 0q-16 0 -20 15q-2 5 -1 11q0 11 6 25q11 22 28 37t34 15t21 -15q2 -5 1 -11q0 -12 -6 -26q-11 -21 -29 -36t-34 -15z"/>
<glyph glyph-name="slash" horiz-adv-x="303" unicode="/" d="M509 739q1 -11 -15 -39t-40 -64t-55 -79t-61 -83q-36 -49 -68 -92t-47 -68q-17 -31 -37 -69q-20 -39 -41 -79l-42 -80t-39 -76l-32 -64l-21 -42q-5 -8 -15 -12q-4 -1 -7 -2q-5 0 -11 3q-9 5 -13 15q-2 4 -2 8q0 5 3 10l20 40q12 26 30 62q18 34 38 72t40 78t40 76 q19 36 35 66q1 2 1 4q4 7 9 14q29 54 59 106t60 101q26 43 52 81t50 68t43 48q20 18 34 20q5 1 9 1q14 0 19 -14q2 -4 4 -10z"/>
<glyph glyph-name="zero" horiz-adv-x="613" unicode="0" d="M450 681l1 1l1 2q-32 -14 -56 -33t-38 -39q-6 -8 -10 -14t-6 -14q2 2 5 2q9 2 21 9t25 17q35 29 57 69zM339 584q-2 0 -1 -1zM659 703q9 -21 9 -48v-5q-1 -30 -9 -66q-14 -66 -55 -146q-40 -76 -96 -152t-122 -139t-136 -104q-71 -41 -138 -45h-11q-31 0 -53 9 q-26 11 -45 31q-19 23 -25 55q-4 22 -5 47q0 11 1 23q2 35 13 75t27 83q27 69 69 140t91 132t102 106t103 62q11 3 21 -1t11 -15q3 -11 -1 -20q-2 -3 -3 -6q27 15 60 26v9q-3 14 -13 25q-6 8 -5 19t9 18q7 6 15 6h3q10 -2 19 -10q8 -11 14 -23t8 -24q1 -2 1 -4v-4q11 2 22 3 t23 1q37 1 61 -15t35 -43zM393 711q-44 -15 -91 -56q-48 -43 -92 -99t-82 -122t-64 -132q-16 -39 -26 -75t-13 -68q-1 -10 -1 -19q0 -18 3 -32q4 -22 16 -36q18 -22 56 -22h10q60 4 124 42t124 97t112 131t88 142q37 72 53 134q7 29 7 53q0 20 -6 34q-11 26 -48 26 q-23 0 -48 -5q-6 -25 -18 -47q-15 -25 -33 -47t-38 -38q-18 -14 -35 -24t-33 -12q-12 -3 -22 -3q-22 0 -34 14q-11 9 -13 22t3 28q5 21 25 48q23 28 61 56q7 5 15 10z"/>
<glyph glyph-name="one" horiz-adv-x="404" unicode="1" d="M449 757q9 -7 9 -19q0 -7 -3 -13v-1l-357 -711q-5 -9 -15 -12q-4 -1 -7 -1q-6 0 -12 3q-10 5 -14 15q-1 4 -1 8q0 6 3 11l286 571q-18 -15 -39 -28q-41 -28 -89 -48t-104 -37q-10 -2 -20 3t-12 15q-3 11 2 19t16 12q52 16 96 34t83 44q38 26 73 58t68 73q7 7 18 9 q2 0 4 1q8 0 15 -6z"/>
<glyph glyph-name="two" horiz-adv-x="616" unicode="2" d="M590 697q33 -45 37 -103v-12q0 -53 -24 -108q-15 -34 -39 -67t-61 -63q-36 -30 -83 -56t-106 -45q-32 -11 -66 -25t-73 -39q-29 -21 -59 -47t-64 -64q62 10 112 10q20 0 38 -2q64 -6 117 -14q25 -4 49 -7q20 -3 38 -3h6q22 0 42 6t40 19q11 5 21 3t16 -11q5 -10 3 -20 t-11 -16q-27 -17 -52 -25t-51 -8h-10q-21 0 -43 3q-27 4 -57 9q-28 4 -62 8t-72 6h-14q-32 0 -70 -4q-46 -5 -99 -20q-14 -5 -24 4q-11 7 -11 21q0 9 6 15q52 66 96 109t87 70q42 29 79 45t72 26q107 35 170 89t89 113q18 45 18 85v12q-3 43 -26 74q-16 21 -41 33t-58 12 q-16 0 -30 -1t-29 -5q-39 -10 -71 -30t-53 -48q-23 -26 -35 -58t-12 -63q0 -20 4 -36q4 -17 16 -24l8 -4t11 0q12 1 25 8q11 6 19 16t11 22q2 9 11 15t20 4q11 -4 17 -12t2 -19q-5 -23 -20 -41t-34 -29q-24 -15 -48 -16h-7q-23 0 -43 12q-13 8 -23 22t-15 34q-6 22 -6 48 q0 41 16 81t43 73q28 34 66 59t85 36q37 8 72 8q46 0 82 -18t58 -47z"/>
<glyph glyph-name="three" horiz-adv-x="634" unicode="3" d="M368 381q12 1 24 3t24 5q-26 8 -55 12q-18 3 -31 3q-10 0 -18 -2q-18 -4 -23 -8q5 -4 23 -10q12 -4 32 -4q11 0 24 1zM526 389q54 -50 54 -122v-10q-4 -47 -32 -93t-76 -84q-48 -36 -114 -58t-142 -23h-6q-66 1 -122 24t-86 64q-29 39 -29 84q0 21 6 44q9 29 33 49t54 20 h3q29 0 53 -19t35 -54q3 -9 -1 -19t-14 -14t-20 0t-14 16q-6 20 -16 30t-24 8q-14 0 -24 -8t-15 -23q-4 -15 -4 -28q0 -30 18 -55q23 -30 69 -48t98 -19h5q66 1 122 19q55 18 97 48t66 67t28 75v9q0 55 -48 89q-47 -23 -108 -29q-14 -1 -26 -1q-32 0 -56 8q-34 10 -47 33 q-7 13 -7 25q0 13 8 27q14 21 46 29q18 5 40 5q18 0 38 -3q64 -9 113 -34q0 1 1 1q38 29 61 59t34 57t12 51v7q0 20 -5 37q-12 38 -48 58t-87 21h-6q-71 1 -111 -21t-51 -50q-7 -14 -5 -25t7 -16q9 -7 19 -4t15 5q9 4 19 0t15 -14t1 -20t-14 -14q-23 -9 -42 -9q-28 0 -49 19 q-17 18 -21 44q-1 6 -1 12q0 20 8 42q4 10 16 28q13 18 37 34q24 18 64 30q37 12 91 11h9q70 -1 118 -31t65 -84q9 -26 9 -53q0 -37 -16 -77q-28 -69 -100 -127z"/>
<glyph glyph-name="four" horiz-adv-x="587" unicode="4" d="M540 685q-76 -35 -142 -79t-124 -94q-56 -50 -108 -104t-101 -115q19 4 37 7t38 5t41 2q19 1 37 -1q40 -4 81 -17l4 -1q7 -3 13 -5t14 -4zM621 746q2 -4 2 -9q0 -6 -3 -11l-237 -458q7 -1 13 -1h13q8 0 15 4q10 5 19 14q2 4 4 7t2 7q0 1 -2 7q-5 10 -1 20t13 14q9 5 19 2 t15 -13q7 -14 7 -30q1 -13 -4 -25t-13 -22q-8 -9 -17 -16t-19 -12q-9 -4 -19 -6t-19 -3q-26 0 -51 5l-108 -207q-4 -10 -14 -13q-4 -1 -9 -1l-11 2q-8 5 -12 15t1 21l101 195q-8 2 -19 7h-4q-37 12 -71 15q-15 1 -29 1q-19 0 -38 -2q-36 -3 -71 -11t-71 -18q-11 -2 -20 3 t-11 16q-1 3 -1 7q1 3 1 5q2 6 5 11h-1q62 78 126 150t139 135q74 64 159 117t188 93q6 3 11 3t9 -2q9 -4 13 -16z"/>
<glyph glyph-name="five" horiz-adv-x="675" unicode="5" d="M717 744q2 -5 2 -9q-1 -5 -3 -11q-4 -10 -15 -13q-57 -20 -97 -29q-36 -8 -71 -8h-8q-35 0 -69 8t-79 23l-132 -237q88 26 151 26h12q66 -3 105 -29q31 -20 47 -51t16 -68q0 -70 -48 -147q-27 -41 -67 -79t-91 -66q-52 -28 -112 -43q-48 -12 -100 -12q-14 0 -29 1 q-63 4 -98 27t-49 55q-9 23 -9 47q0 17 4 34q9 39 41 69q29 30 71 40q14 4 29 3q30 0 62 -14q10 -3 14 -13t0 -20q-5 -10 -14 -14t-20 1q-21 9 -41 9q-10 0 -19 -2q-28 -6 -46 -26q-11 -10 -17 -22t-10 -24q-2 -10 -2 -20q0 -14 5 -27q8 -21 32 -35t70 -17q14 -1 28 -1 q46 0 87 10q54 14 99 39t80 59t59 70q39 62 39 118q0 22 -9 42t-29 34q-32 21 -93 21q-7 -1 -13 -1q-70 -2 -181 -43v1q-9 -4 -22 1q-8 5 -11 15t2 20l175 313q5 7 13 11q5 2 9 2t8 -1q49 -17 85 -26t68 -10h6q29 0 63 8q37 9 89 27q4 2 9 2t11 -3q10 -5 13 -15z"/>
<glyph glyph-name="six" horiz-adv-x="587" unicode="6" d="M582 716q13 -20 13 -47v-6q1 -8 -1 -17q-2 -12 -8 -23q-11 -28 -35 -49t-59 -25q-11 -1 -19 5t-10 17t5 19t18 9q18 3 32 15t20 28q2 8 4 14t2 12q-2 13 -6 22q-5 9 -17 15t-32 6q-65 0 -127 -32q-62 -31 -116 -83t-99 -118q-44 -66 -74 -132q-15 -36 -26 -70t-16 -66 q-6 -29 -6 -54q0 -27 7 -49q8 -27 27 -41t51 -14q44 0 85 18t75 49q34 30 62 68t46 78q10 21 16 43t11 40v1q2 15 2 28q0 20 -5 35q-6 15 -18 24t-32 9q-50 0 -88 -19t-68 -47q-30 -30 -52 -63t-37 -57q-5 -11 -15 -13t-20 4t-12 16t3 20q15 26 39 62t59 68q35 34 83 58 t108 23q40 -1 64 -19t34 -50q8 -19 9 -41v-9q0 -18 -3 -37q-10 -49 -31 -98q-21 -45 -53 -89t-72 -78q-41 -34 -89 -55t-102 -21q-51 0 -81 24t-44 67q-10 27 -10 59v5q0 30 6 64q12 70 47 149q31 72 79 142t109 128q60 56 130 90t144 35q37 1 59 -13t34 -34z"/>
<glyph glyph-name="seven" horiz-adv-x="576" unicode="7" d="M222 673q4 5 8 9t7 10q-5 -2 -9 -3t-8 -3q-32 -11 -52 -27t-30 -30q-3 -6 -3 -9h7q20 0 40 15t40 38zM654 745q2 -5 2 -9q0 -9 -7 -16q-42 -50 -94 -101t-107 -105q-63 -62 -125 -124q-61 -62 -113 -124t-88 -124t-48 -122q-2 -11 -10 -17q-6 -5 -15 -5q-3 0 -5 1 q-11 3 -17 11q-5 6 -5 14q0 3 1 5q12 67 50 133q37 66 91 132t118 130t129 126q38 38 75 74t71 72q-22 -2 -42 -2q-14 0 -28 1q-34 2 -68 6q-29 2 -57 4q-14 1 -27 1q-14 0 -28 -1q-10 -17 -21 -34t-24 -32q-26 -30 -56 -51t-64 -21q-29 0 -46 17q-13 13 -13 33v5 q0 15 11 35q14 19 40 41t67 37q19 8 37 12t36 7q8 14 12 28t5 22q1 10 9 18q7 7 16 7h3q11 -2 19 -10t6 -19q-1 -8 -4 -19t-8 -23q22 0 46 -2t47 -4q49 -5 97 -6h5q46 0 95 15q10 3 20 -1t12 -15z"/>
<glyph glyph-name="eight" horiz-adv-x="497" unicode="8" d="M523 622q6 -22 6 -43q0 -23 -7 -45q-8 -29 -27 -53t-50 -39q-15 -8 -39 -13q-19 -4 -44 -4q-10 -1 -18 7t-8 19t8 19t19 7q17 0 32 3q8 2 15 4t13 6q19 8 31 24t19 35q4 14 4 29t-4 32q-8 31 -31 57q-20 20 -49 32t-69 12q-49 0 -74 -22q-23 -19 -31 -50q-2 -13 -2 -26 q0 -22 6 -44q9 -29 29 -56t48 -47q48 -32 80 -78t47 -94q11 -38 11 -76q0 -28 -6 -55q-14 -68 -69 -110q-31 -25 -75 -39t-103 -14h-9q-72 0 -118 32q-49 34 -71 83q-18 42 -18 90q2 46 20 91q13 30 33 56t50 47q28 19 64 31t81 13q11 0 19 -7t8 -18t-8 -19t-18 -8 q-70 -2 -116 -35t-65 -80q-15 -36 -15 -72q0 -18 2 -35t11 -33q17 -37 53 -61t96 -24q50 1 86 11t60 31q40 32 53 82q4 19 4 39q-1 6 -1 12q-2 26 -9 54q-13 41 -39 78t-68 65q-37 25 -61 59t-35 73q-9 29 -9 58q0 19 4 37q5 24 17 44t31 35q20 16 46 25t61 9q51 0 90 -17 t65 -43q34 -37 44 -81z"/>
<glyph glyph-name="nine" horiz-adv-x="582" unicode="9" d="M576 672q9 -31 9 -69q0 -28 -5 -59q-6 -35 -18.5 -73t-29.5 -76q-31 -73 -79.5 -143.5t-108.5 -126.5t-130 -90.5t-145 -34.5q-35 0 -57.5 13t-35.5 33q-12 22 -12 47q0 23 9 46q11 28 35 49.5t59 26.5q11 1 19 -6t10 -17q2 -11 -5 -19.5t-18 -10.5q-19 -2 -32.5 -14 t-20.5 -28q-5 -15 -5 -26q0 -13 6 -22q5 -8 17 -14t31 -6q66 0 128.5 32t116.5 83.5t98 116.5t74 131q15 36 26 71t17 67q5 27 5 52q0 30 -8 51q-8 26 -26.5 40t-50.5 14q-44 0 -85 -18.5t-75.5 -48.5t-62 -68.5t-45.5 -77.5q-10 -22 -17 -43t-10 -41q-2 -14 -2 -27 q0 -21 6 -36q10 -32 49 -32q50 0 88 19t67 47q31 29 53 61.5t36 58.5q6 8 16.5 11t19.5 -2q10 -5 12 -16t-3 -20q-16 -26 -39.5 -62t-58.5 -68q-35 -35 -82 -58t-109 -23q-40 0 -64.5 18t-35.5 50q-6 23 -6 51q0 17 2 36q4 24 12 48.5t19 49.5q21 45 52.5 88.5t72 78 t89 55.5t101.5 21q52 0 82.5 -24.5t44.5 -65.5z"/>
<glyph glyph-name="colon" horiz-adv-x="264" unicode=":" d="M105 46q-17 0 -21 16q-1 5 -1 10q0 12 7 25q10 21 28 37t34 16t20 -16q1 -5 1 -10q0 -12 -6 -27q-11 -19 -28 -35t-34 -16zM180 242q-16 0 -20 15q-2 5 -1 11q0 11 6 25q11 22 28 37t34 15t21 -15q2 -5 1 -11q0 -12 -6 -26q-11 -21 -29 -36t-34 -15z"/>
<glyph glyph-name="semicolon" horiz-adv-x="266" unicode=";" d="M175 104q-1 0 -1 -1q-12 -15 -20 -28t-15 -24t-15 -22t-14 -20q-6 -7 -14 -9q-2 0 -4 -1q-5 0 -9 3q-8 5 -10 13q-1 2 -1 4q0 6 4 11q4 8 10 16t13 19q-12 4 -12 20q0 13 10 30q11 20 31 32q17 10 32 10h5q17 -2 19 -17q0 -3 1 -5q0 -13 -10 -29v-2zM180 242 q-16 0 -20 15q-2 5 -1 11q0 11 6 25q11 22 28 37t34 15t21 -15q2 -5 1 -11q0 -12 -6 -26q-11 -21 -29 -36t-34 -15z"/>
<glyph glyph-name="less" horiz-adv-x="445" unicode="&lt;" d="M393 414q4 -6 4 -14q-1 -3 -1 -6q-2 -11 -11 -17l-185 -122l114 -91q8 -7 10 -18t-6 -19q-7 -9 -18 -10h-3q-9 0 -16 5l-143 114q-11 8 -11 21q0 9 6 17q2 2 5 4t5 3l213 140q7 5 15 5q3 0 5 -1q11 -2 17 -11z"/>
<glyph glyph-name="equal" horiz-adv-x="486" unicode="=" d="M433 308q11 0 19 -7t7 -18q1 -10 -7 -17t-17 -7h-140h-54h-151q-10 1 -17 7t-7 17t7 17t17 8h163h62h118zM433 432q11 0 19 -7t7 -18q1 -10 -7 -17t-17 -7h-140h-54h-151q-10 1 -17 7t-7 17t7 17t17 8h163h62h118z"/>
<glyph glyph-name="greater" horiz-adv-x="486" unicode="&gt;" d="M168 128q-4 6 -4 14v6q2 12 13 17l184 123l-114 90q-8 6 -9 18t5 20q9 9 19 10h2q9 0 16 -6l144 -114q10 -8 10 -20q0 -9 -5 -17q-3 -3 -11 -7l-212 -140q-7 -5 -16 -5q-2 1 -4 1q-11 2 -18 10z"/>
<glyph glyph-name="question" horiz-adv-x="484" unicode="?" d="M569 723q15 -17 21 -37t7 -42v-1v-5q-2 -49 -24 -90t-56 -77q-34 -35 -76 -67t-84 -62q-14 -11 -29 -22t-29 -22q-15 -12 -27 -22t-29 -30q-15 -18 -25 -34q-7 -13 -7 -23q0 -4 1 -7l1 -2l1 -1q4 -3 14 -4q7 -1 16 2q8 1 16 9q10 8 22 6t17 -12q7 -9 5 -20t-10 -18 q-8 -6 -16 -11t-19 -7q-12 -4 -25 -4q-6 0 -13 1q-25 3 -40 15q-19 13 -22 36q-2 10 -2 20q0 19 8 37q13 28 36 54q19 22 33 34t31 25q13 11 29 22t32 23q38 27 76 56t68 59t50 65q20 34 22 72v5q0 28 -14 42q-15 19 -50 20h-6q-22 0 -42 -10t-37 -24q-22 -20 -36 -42 t-16 -38q-1 -12 -10 -19t-20 -6q-12 3 -19 11t-5 20q2 24 21 56t49 59q24 20 53 34t62 14h8q60 -3 89 -38zM127 1q-15 0 -19 15q-2 5 -2 11q0 11 6 25q11 22 28 37t34 15q16 0 20 -15q2 -5 2 -11q0 -12 -6 -26q-10 -21 -28 -36t-35 -15z"/>
<glyph glyph-name="at" horiz-adv-x="745" unicode="@" d="M344 167q16 1 36 13t43 32t45 44q22 26 43 53q14 31 30 61t33 55q-2 8 -3 11q-2 7 -8 9q-4 4 -14 4q-21 1 -47 -17t-50 -45q-26 -27 -48 -61t-38 -66q-8 -18 -14 -32t-9 -28q-3 -11 -3 -19v-13q0 -1 4 -1zM755 542q9 -20 10 -44v-8q0 -20 -4 -41q-5 -27 -14 -51t-21 -50 q-22 -44 -52 -86t-61 -74t-59 -52t-46 -20q-30 1 -38 33q-2 6 -2 15q0 11 3 26q-33 -32 -65 -52t-60 -22h-4q-18 0 -30 8q-14 10 -19 27q-5 11 -5 27t5 35l11 33t16 36q18 37 46 76t58 70t64 51q32 20 61 20q25 0 39 -10q7 -3 11 -7l8 -8q20 25 31 25q21 0 27 -19q1 -4 1 -8 q0 -15 -13 -38q-5 -11 -13 -25t-17 -30q-15 -22 -31 -46t-36 -49q-4 -9 -7 -17t-7 -16q-6 -17 -10 -31t-9 -28v-2q-2 -6 -3 -11t-1 -10q15 6 35 25q20 18 42 46t45 62q22 34 39 69q12 22 20 44t12 43q4 16 4 30q0 18 -7 32q-8 20 -30 30t-63 10q-52 0 -104 -20t-97 -53 q-51 -37 -93 -87t-66 -102q-16 -32 -24 -63t-7 -60q0 -39 15 -67t46 -43q30 -14 72 -14q41 0 72 7q16 2 32 6t32 11q10 3 19 -1t13 -14t0 -20t-16 -13q-16 -7 -34 -11l-36 -8q-20 -4 -40 -6t-42 -2q-55 0 -93 19q-23 11 -41 27t-29 38q-21 39 -21 91q0 34 9 71t26 75 q27 57 73 111t103 96q53 38 111 60t120 23q58 -1 92 -19t47 -50z"/>
<glyph glyph-name="A" horiz-adv-x="657" unicode="A" d="M444 302q20 -8 38 -16t35 -15q11 20 22 41t24 44q17 28 35 64l36 72t34 71t28 64q11 29 15 51t-1 30q-1 2 -4 2h-4q-39 0 -84 -33q-46 -33 -92 -85t-93 -118q-47 -65 -90 -129q25 -10 51 -21t50 -22zM33 52q17 0 43 24t56 60q30 38 62 84t65 94q-10 2 -20 3t-20 1 q-46 0 -86 -25t-74 -89q-12 -25 -21 -49q-10 -24 -14 -44q-4 -21 -4 -35t4 -20q0 -4 9 -4zM778 340q10 -9 10 -22q0 -9 -6 -15q-9 -11 -24 -30q-62 -79 -107 -131t-78 -84t-55 -44q-22 -14 -41 -14q-17 0 -27 8t-14 12q-8 13 -8 32q0 18 8 40q14 46 57 132q-17 7 -35 15 t-35 16q-29 13 -57 25t-54 20q-46 -68 -85 -124t-73 -94t-64 -60t-57 -22q-37 0 -54 28q-11 19 -11 44v6q2 30 10 59t18 54t17 37q29 53 61 84q32 30 68 44q34 13 70 14h2q38 0 76 -10q51 76 103 148t104 128q51 56 103 92q52 34 102 34q23 0 35 -8t18 -19q9 -16 9 -39 q0 -9 -1 -19q-5 -36 -25 -86t-53 -115t-76 -144q-21 -36 -43 -78t-41 -82t-31 -72t-13 -47q9 3 25 14t42 39q27 28 68 75q41 48 101 124q7 10 13 18t11 13q7 8 18 10t19 -6z"/>
<glyph glyph-name="B" horiz-adv-x="774" unicode="B" d="M579 451q27 0 46 4q-22 14 -52 14q-26 0 -33 -9q4 -4 13 -6.5t26 -2.5zM490 635q7 13 14 26.5t15 27.5q-56 -24 -115 -68t-114 -99.5t-104 -117t-85 -121.5q-21 -36 -37.5 -69t-26.5 -62q-12 -34 -12 -58q0 -13 4 -24q6 -19 35 -20h2q23 0 50.5 19t57.5 54 q33 37 67.5 85.5t66.5 102.5q53 85 95.5 164t86.5 160zM901.5 340.5q8.5 -8.5 8.5 -19.5q0 -10 -8 -17l-19 -20q-46 -48 -79.5 -83t-59.5 -60t-47 -41t-41 -26q-27 -13 -55 -17t-66 -6q-41 -24 -90 -38t-107 -14q-39 0 -59 15q-13 10 -16 27q0 18 15 30q9 7 27.5 12.5 t49.5 8.5q50 5 87.5 7t66.5 3h10q43 27 74 63.5t50 77.5q21 45 24 90q2 14 2 27q0 26 -8 48q0 1 -1 1q-19 -5 -38.5 -8t-42.5 -3q-32 0 -52 9t-30 23q-10 13 -10 30q0 16 10 29q9 14 28.5 23t47.5 9q70 0 109 -47q23 12 38.5 29t25.5 36q13 27 13 54v8q0 24 -10 44 q-14 29 -46 47.5t-85 18.5q-16 0 -29 -3q-29 -48 -53 -97q-45 -82 -88.5 -162t-96.5 -165q-33 -55 -68 -106t-70 -89q-38 -42 -75.5 -66t-72.5 -24h-3q-63 1 -82 54q-6 16 -6 37q0 7 1.5 25t12.5 53q11 32 28.5 67.5t40.5 73.5q42 69 100.5 141t124.5 133.5t136 107.5 t136 63q8 14 15 27.5t15 27.5q5 10 12 12t11 2q6 0 12 -3q10 -6 12.5 -16.5t-2.5 -19.5q-3 -5 -5.5 -10.5t-5.5 -10.5q71 0 115 -27t64 -69q14 -31 14 -64v-11q-2 -40 -18 -76q-13 -26 -34.5 -48t-50.5 -39l2 -4q11 -32 11 -71q0 -13 -1 -27q-6 -51 -31 -106 q-26 -59 -73 -107q9 3 17 7q17 8 35.5 22.5t43.5 38t57 57.5t76 81l19 20q8 8 18.5 8.5t19 -8z"/>
<glyph glyph-name="C" horiz-adv-x="501" unicode="C" d="M520 710q-38 -2 -79 -20t-83 -48q50 -26 112 -31h14q33 0 58 8q30 10 43 30q6 10 6 21q0 8 -4 16q-7 12 -25 18q-15 6 -36 6h-6zM626 339q8 -9 9 -19t-7 -19l-50 -55q-44 -50 -88 -94t-90 -79q-46 -33 -94 -53t-103 -20q-41 0 -71 8t-51 19q-21 12 -35 27t-21 30 q-21 38 -21 89q0 29 7 63q19 92 88 200q33 54 78 107t96 98q-32 33 -36 73q-1 11 6 19t18 10q11 1 19 -6t10 -18q1 -11 7 -23t16 -22q51 38 102 62t102 26h10q33 0 59 -11q30 -13 46 -39q12 -20 12 -43q0 -25 -15 -47q-21 -34 -63 -50q-36 -14 -83 -14h-17q-40 4 -80 16 t-72 34q-49 -42 -93 -94t-78 -106q-29 -47 -49 -91t-28 -83q-8 -34 -9 -62q1 -4 1 -9q2 -32 13 -55q30 -55 132 -55q41 1 79 15t79 42q39 28 83 72q44 43 95 100q9 8 19 20t31 35q7 9 18 9t19 -7z"/>
<glyph glyph-name="D" horiz-adv-x="792" unicode="D" d="M469 670q6 11 9 19q-53 -22 -107.5 -64.5t-105.5 -96t-96 -114.5t-78 -120q-20 -35 -35 -69t-24 -64q-11 -35 -11 -60q0 -15 4 -26q5 -11 14 -17.5t25 -6.5h2q33 0 70.5 36.5t76.5 93.5q42 63 82.5 138t75.5 145q20 38 46 94.5t52 111.5zM908.5 348.5q8.5 -7.5 8.5 -20.5 q0 -9 -6 -16q-51 -57 -88 -97.5t-66 -68.5t-53 -45t-49 -26.5t-53.5 -14t-66.5 -7.5q-38 -25 -79.5 -39.5t-85.5 -14.5q-28 0 -49.5 3.5t-34.5 8.5q-23 9 -23 31q0 19 20 30q11 5 35 10.5t64 9.5q34 4 60.5 5.5t49.5 3.5q7 1 14 1.5t13 0.5q60 42 107.5 108t76.5 140 q14 35 23 70.5t13 69.5q1 16 1 32t-1.5 38.5t-10.5 48.5q-15 45 -53 72.5t-104 27.5q-7 0 -13 -0.5t-13 -1.5q-7 -14 -13.5 -28.5t-14.5 -30.5q-13 -28 -27 -57t-27 -56t-25 -51.5t-21 -43.5q-36 -71 -76.5 -147t-84.5 -141q-23 -34 -47 -62.5t-48 -49t-49 -31.5t-50 -11 q-66 3 -85 59q-6 19 -6 43q0 33 12 75q9 32 25 68.5t38 75.5q38 68 92 138t115.5 130t127.5 104t129 61q8 17 14.5 31t11.5 23q5 10 12 12t10 2q6 0 12 -3q10 -5 13.5 -15t-1.5 -19q-2 -5 -4.5 -10t-6.5 -12q85 0 135.5 -37t70.5 -97q11 -32 13 -57.5t2 -41.5q0 -21 -2 -43 q-3 -38 -13.5 -77t-25.5 -77q-23 -60 -58.5 -115.5t-79.5 -100.5q27 7 51 21.5t52.5 41t65.5 67t90 100.5q8 8 18 9t18.5 -6.5z"/>
<glyph glyph-name="E" horiz-adv-x="492" unicode="E" d="M492 710q-47 0 -83 -20.5t-61 -50.5q22 -11 47.5 -17.5t52.5 -8.5h14q31 0 57.5 8t38.5 27q7 9 7 18q0 8 -5 16q-16 28 -68 28zM393 469q-14 0 -27 -1t-27 -5q9 -4 20.5 -6.5t25.5 -2.5q16 0 24.5 3.5t10.5 5.5q-4 6 -27 6zM613 340q10 -9 10 -22q0 -9 -6 -15 q-125 -157 -229.5 -229.5t-193.5 -72.5q-91 0 -142 41.5t-51 115.5q0 46 20 95t54.5 94t81 83t100.5 62q-3 16 -3 36q0 22 5.5 46.5t17.5 47.5q-25 19 -40.5 42.5t-18.5 50.5q-1 11 6 19t18 9t19 -6t9 -18q3 -27 34 -53q31 42 78.5 69.5t109.5 27.5q40 0 69.5 -15t44.5 -41 q10 -19 10 -40q0 -25 -14 -47q-20 -32 -57.5 -46t-82.5 -14q-9 0 -18 1q-32 3 -63.5 11t-59.5 22q-8 -17 -12.5 -34t-4.5 -32q0 -9 3 -19q40 12 86 12q42 0 61.5 -18.5t19.5 -39.5q0 -27 -28 -46q-25 -14 -61 -14q-65 0 -99 37q-3 2 -6 5q-49 -20 -90.5 -54.5t-72 -74 t-47.5 -81.5t-17 -77q0 -33 13 -53.5t33.5 -32t45.5 -15.5t49 -4q76 0 171.5 68t210.5 214q7 8 17.5 10t19.5 -5z"/>
<glyph glyph-name="F" horiz-adv-x="603" unicode="F" d="M902 770q11 -12 11 -27q0 -16 -11 -25q-8 -8 -22.5 -12t-34.5 -5t-39 -1q-13 0 -39 0.5t-80 2.5q-48 -17 -86 -40.5t-69 -54.5t-57 -68.5t-51 -81.5q17 2 33.5 4.5t34.5 5.5q5 1 9.5 1.5t9.5 1.5q52 52 101 55q7 0 19 0.5t24.5 -2.5t22 -10.5t11.5 -21.5q1 -16 -10.5 -27 t-29 -19t-38.5 -12.5t-37 -7.5q-10 -1 -19 -2l-18 -2q-16 -19 -30 -44t-24 -57q-3 -10 -12.5 -15t-19.5 -2q-11 4 -16 13t-1 20q11 40 33 74q-20 -2 -38.5 -5t-36.5 -6q-8 -15 -15.5 -30t-15.5 -32l-32 -61q-26 -51 -53.5 -101t-58 -89t-65.5 -63.5t-76 -24.5q-62 0 -87 48 q-12 23 -12 54q0 19 8.5 57.5t49.5 94.5q25 32 50.5 58.5t52.5 46.5q8 6 18.5 4.5t17.5 -9.5q6 -9 4.5 -19.5t-9.5 -17.5q-23 -17 -46.5 -41t-45.5 -53q-35 -50 -41 -79t-6 -43q0 -18 6 -29q2 -4 9.5 -12t30.5 -8q29 0 56.5 22t53 57t49.5 80t48 91l31 61q3 6 6 12.5t7 12.5 q-23 -5 -48 -12q-11 -3 -20 2.5t-12 15.5q-3 11 2 20.5t16 11.5q25 8 47.5 12.5t45.5 9.5q22 42 45 79t48.5 70t55.5 60.5t66 50.5q-51 1 -82 1.5t-40 0.5q-44 0 -91 -2.5t-94.5 -8.5t-87.5 -18q-56 -16 -90.5 -47t-39.5 -70q-1 -7 -1 -13q0 -15 6 -31t23 -26q15 -9 34 -9 q7 0 25 3t50 24q8 7 19 4.5t17 -10.5q6 -9 4.5 -19.5t-11.5 -16.5q-45 -32 -70.5 -35t-33.5 -3q-34 0 -61 18q-29 18 -41.5 46.5t-12.5 55.5q0 9 1 19q8 56 52 98t115 63q53 15 117.5 22t111 8t72.5 1q42 0 96.5 -2t112.5 -4q2 0 3 -0.5t3 -0.5q31 11 65.5 17.5t75.5 11.5 q16 2 29 2q19 0 32.5 -5t20.5 -11z"/>
<glyph glyph-name="G" horiz-adv-x="562" unicode="G" d="M26 -218q35 0 65.5 16.5t56 42.5t47.5 59.5t40 67.5q-247 -108 -247 -165q0 -3 1 -5q1 -3 10.5 -9.5t26.5 -6.5zM552 711q-38 0 -80.5 -18t-85.5 -49q23 -12 51.5 -20.5t58.5 -10.5h14q32 0 58.5 8.5t39.5 28.5q7 10 7 20q0 8 -5 16q-14 25 -58 25zM683.5 338.5 q8.5 -8.5 8.5 -20.5q0 -9 -7 -16l-41 -45q-47 -51 -80 -87t-62.5 -62t-61 -45.5t-73.5 -38.5q-8 -3 -19.5 -8t-26.5 -11q-8 -4 -12 -5q-21 -44 -47.5 -92t-61 -87.5t-77.5 -65t-97 -25.5q-36 0 -59.5 16.5t-28.5 41.5q-1 7 -1 15q0 27 23 57t71 61.5t111 61.5t129 57 q2 6 5 11.5t5 10.5l10 21l2 4l2 4q-57 -46 -109.5 -70t-97.5 -24q-55 0 -83 33q-27 28 -27 80q0 33 12 75.5t33.5 89t51.5 96t66 97.5t76.5 93t83.5 82q-32 31 -36 72q-1 11 5.5 19t17.5 9q11 2 19 -5t10 -18q3 -23 25 -45q54 41 107 64.5t103 23.5q36 0 63 -13.5t41 -38.5 q10 -19 10 -41q0 -26 -14 -48q-20 -32 -57.5 -47t-80.5 -15q-11 0 -22 1q-39 3 -78.5 15.5t-71.5 33.5q-60 -52 -116.5 -119.5t-100 -137t-69.5 -134t-26 -109.5q0 -30 13 -46q15 -15 45 -15q12 0 31.5 4t46 16t59.5 34.5t74 59.5q17 16 33.5 33t33.5 35q17 32 34.5 64 t34.5 62q37 64 60.5 98t38 49t22.5 16t16 -1q2 0 6.5 -2t8 -6t6.5 -11.5t2 -18.5q-1 -15 -17 -46t-42 -70t-59.5 -81.5t-67.5 -81.5q-18 -34 -35 -67.5t-32 -64.5q1 1 2 1t2 1q38 17 66.5 34.5t56 42t59.5 58.5t77 85l41 45q8 8 18.5 9t19 -7.5z"/>
<glyph glyph-name="H" horiz-adv-x="691" unicode="H" d="M622 711q-20 1 -42 -15t-45 -42q25 4 45 10t36 10q16 6 24 12q9 6 8 13q0 5 -8 9t-18 3zM780 336q8 8 18 10t19 -6q7 -8 9 -18t-6 -19q-12 -15 -20 -27q-17 -22 -40 -50q-24 -28 -50 -60q-26 -30 -54 -60t-52 -54q-26 -24 -49 -38t-39 -14q-32 0 -43 31q-3 9 -3 21 q0 8 2 18q4 24 13 54q11 27 25 59t32 68q4 8 8 15t8 15q-34 -19 -69 -29t-69 -13q-34 -4 -69 -4q-34 0 -65 1q-29 -50 -58 -93q-28 -43 -58 -75t-61 -50t-63 -18q-20 0 -34 6t-22 12q-8 8 -14 16q-4 8 -5 14q-4 12 -4 25q0 17 7 37q12 34 38 51q10 6 20 4t17 -11 q6 -10 4 -20t-11 -16q-12 -8 -19 -25t-3 -29q1 -2 5 -7t21 -5q31 0 65 32t69 80q35 50 70 112t68 124q26 48 52 94t51 89l-45 -6l-84 -12t-80 -13t-69 -16t-50 -20q-47 -26 -61 -62q-8 -20 -9 -38q0 -13 5 -25q11 -25 37 -33q11 -3 23 -3q18 0 38 7q11 3 20 -2t13 -16 q3 -10 -2 -20t-16 -12q-29 -9 -53 -9q-4 1 -7 1q-27 2 -47 10q-20 10 -33 24t-20 32q-10 23 -10 50q0 24 10 49q9 26 31 50t55 43q23 12 55 22t72 18t84 14t91 12q19 2 42 6t49 7q39 55 79 88t83 33q38 0 57 -18t21 -40q1 -4 1 -8q-1 -19 -13 -34q-14 -18 -42 -31t-69 -23 q-40 -10 -88 -16q-31 -48 -63 -104t-63 -113q-12 -23 -24 -45t-24 -43h22q28 -1 58 1q41 2 81 16q40 12 80 38t75 71q3 3 4 5q40 64 81 126t77 110q37 48 63 78t37 29h2q31 0 31 -32q0 -13 -13 -37t-34 -54t-47 -65q-26 -34 -54 -66q-26 -32 -50 -60t-38 -45 q-17 -18 -18 -21v-1l-1 -1q-23 -39 -43 -77t-40 -75q-17 -35 -31 -65t-23 -55q-12 -38 -12 -54q12 4 30 19t40 37q22 23 44 49q23 26 45 54t42 52q20 25 35 45q8 9 14 17t8 10z"/>
<glyph glyph-name="I" horiz-adv-x="437" unicode="I" d="M55 50q35 0 67 17t60 46h-12h-25q-18 -1 -35 -1q-28 -2 -52 -13t-31 -26q-1 -3 -1 -5v-6t3 -5q9 -7 26 -7zM637 762q29 -5 29 -28q0 -3 -1 -7q-3 -9 -11 -19t-18 -19t-20 -16t-13 -10l-2 -1q-15 -10 -33 -20t-41 -19q-24 -40 -49 -90t-51 -106q-30 -67 -62 -131t-69 -121 q24 6 52 16t57 28t60 46t64 70q7 9 18 10t20 -6q8 -7 9 -17t-5 -19q-47 -59 -90 -95t-83 -54q-40 -20 -75 -28q-36 -8 -70 -11q-43 -53 -91 -85t-107 -32q-38 0 -61 20q-16 16 -19 36q-1 6 -1 12q0 12 5 26q7 16 21 30t35 25q33 15 66 17t69 2q14 -2 28 -2t28 1 q44 59 82 134t73 150q17 39 35 75t36 70q-42 -14 -86 -27t-87 -24q-49 -13 -87 -24t-52 -19q-28 -15 -42 -36t-17 -42q-1 -5 -1 -10q0 -12 5 -24q6 -14 21 -25q18 -13 48 -15h5q28 0 65 13q10 3 20 -1t13 -16q3 -10 -1 -20t-15 -12q-45 -16 -80 -16q-8 0 -15 1q-41 4 -68 22 q-14 11 -24 23t-17 26q-10 22 -10 47q0 6 1 13q4 32 26 64t61 53q19 10 59 22t92 26q56 15 116 33t111 38q32 48 67 76q29 23 62 23q7 0 15 -1z"/>
<glyph glyph-name="J" horiz-adv-x="526" unicode="J" d="M-2 -219q27 0 53 13t52 37t51 57.5t50 73.5q-43 -19 -87.5 -40.5t-80.5 -44t-56 -42.5t-20 -36q0 -3 1 -6t6 -6q12 -6 31 -6zM690 710q-18 0 -38 -17t-41 -46q13 2 25 4.5t22 5.5q38 10 58 23q8 9 5 17q-2 7 -8 8q-10 5 -23 5zM573 588q-33 -56 -67.5 -128.5 t-70.5 -153.5l-56 -120t-58 -119q38 18 66 34.5t55 39t57.5 55t75.5 82.5q5 5 12 13t14.5 16t14.5 16t13 14q8 8 18.5 9t18.5 -7q8 -7 8 -17.5t-6 -18.5l-54 -61q-47 -51 -79.5 -85.5t-61.5 -58.5t-59 -42t-73 -37q-8 -3 -20 -8.5t-27 -11.5q-4 -1 -10 -3q-32 -57 -66 -106 t-69.5 -85t-73 -56t-77.5 -20q-32 0 -54 11q-28 14 -34 43q-1 7 -1 13q0 18 12 39.5t38.5 45t62 45.5t75 42t78.5 37.5t72 31.5q36 67 71 141.5t70 148.5q32 70 61.5 134t59.5 119q-35 -5 -71.5 -10t-71 -12.5t-66 -18t-56.5 -24.5q-32 -18 -49.5 -41.5t-20.5 -46.5 q-1 -5 -1 -11q0 -13 5 -27q3 -7 7.5 -13.5t11.5 -10.5q13 -10 25.5 -11.5t17.5 -1.5q17 0 37 7q11 3 20.5 -2.5t12.5 -15.5q3 -11 -1.5 -20t-15.5 -12q-30 -9 -55 -9q-9 0 -29.5 3t-43.5 20q-13 10 -21.5 21.5t-14.5 25.5q-8 20 -8 42q0 10 2 21q4 34 27.5 68.5t68.5 58.5 q29 16 65 28t75 20.5t79.5 14.5t79.5 11q6 1 12 1.5t13 1.5q36 57 72.5 91t74.5 34q14 0 26.5 -2.5t22.5 -9.5q12 -5 19.5 -15t11.5 -21q5 -13 5 -24q0 -8 -4.5 -21t-21.5 -28q-14 -11 -33 -19t-43 -15q-21 -6 -46 -10t-54 -9z"/>
<glyph glyph-name="K" horiz-adv-x="696" unicode="K" d="M628 712q-20 0 -42 -16t-46 -42q24 5 45 10t37 11t24 12q9 6 8 12q-1 7 -9 10t-17 3zM1039 711q7 -15 7 -30q0 -7 -2 -15q-5 -24 -23 -46q-9 -9 -19 -10t-18 6q-8 8 -9 18t6 19q5 6 11 16t0 20q-4 9 -16 15t-32 6q-19 0 -43 -14q-23 -14 -51 -35q-28 -23 -58 -51t-61 -58 q-37 -36 -75 -72t-78 -68t-82 -60q-42 -27 -85 -44q17 -30 27 -68t17 -72q11 -56 23 -86t38 -30q6 1 20 11t44 39q30 28 76 82q47 54 118 141l19 24q9 8 19 9t18 -6q8 -8 9 -18t-6 -18l-19 -24q-76 -92 -126 -150t-84 -89q-34 -32 -54 -43t-35 -11q-30 0 -49 14t-31 37 q-13 23 -19 51t-12 57q-8 45 -18 79t-27 56q-9 -3 -19 -4l-20 -2q-34 -59 -66 -111t-66 -92t-68 -63t-70 -23q-20 0 -34 6t-22 13q-8 8 -14 16q-4 8 -6 14q-4 12 -4 25q0 18 8 36q12 32 39 51q8 6 19 4t17 -11q6 -8 4 -19t-11 -16q-12 -9 -19 -26t-3 -29q1 -2 5 -7t21 -5 q24 0 50 20t54 52q27 32 54 76t54 92q-19 6 -29 18t-10 24q1 16 9 24t20 13t24 5h22h6t4 -1q4 7 7 13t7 12q26 50 52 96t52 89l-45 -6q-43 -6 -85 -12t-80 -13t-69 -16t-51 -20q-24 -14 -39 -30t-23 -33t-8 -33t6 -30q12 -24 38 -32q11 -3 23 -3q17 0 38 6q9 3 19 -2t13 -15 q3 -11 -1 -20t-16 -13q-30 -9 -53 -9h-7q-26 2 -48 12q-20 10 -34 24q-14 15 -20 32q-10 22 -10 49q0 25 10 50q10 26 32 50q21 24 55 43q23 13 56 23q33 9 73 17t83 14q44 6 91 13q19 2 42 5t49 7q40 56 80 89t83 33q36 0 56 -18t22 -40q1 -4 1 -8q-1 -21 -13 -35 q-14 -18 -42 -30t-69 -22q-40 -10 -88 -17q-32 -48 -64 -105t-63 -114l-4 -8t-4 -7l8 -4t7 -4q41 13 83 39t82 58t78 69t76 73q37 36 71 68q35 32 65 54t58 36t56 14q32 0 58 -14t37 -37z"/>
<glyph glyph-name="L" horiz-adv-x="541" unicode="L" d="M103 42h8q24 0 45 10q-17 9 -34 16.5t-31 12.5q-10 4 -18.5 5t-16.5 1q-20 0 -26 -8q-3 -3 -2 -6q2 -6 19 -16.5t56 -14.5zM736 711q-21 0 -43 -16t-45 -42q24 5 45 10t36.5 11t24.5 12t8 12q0 7 -9 10t-17 3zM602 591q-28 -42 -56 -91t-57 -100q-28 -50 -55.5 -99 t-56.5 -94t-59 -83.5t-62 -67.5q22 -14 44 -27.5t45 -27.5q39 -25 78 -49t75 -43.5t68 -33t56 -16.5q15 -2 29 -2q18 0 37 5.5t27 23.5q5 13 2 25.5t-11 18.5q-9 7 -10 17.5t5 19.5q7 8 18 10t19 -5q23 -17 28 -38t5 -33q0 -18 -7 -35q-3 -8 -10.5 -18.5t-20.5 -20 t-33 -16.5t-48 -7q-18 0 -37 3q-29 4 -63 18t-72 34t-79 45t-84 52q-26 17 -53 33.5t-52 31.5q-49 -31 -103 -31h-10q-48 5 -79.5 21.5t-40.5 43.5q-4 12 -4 22q0 21 16 39q20 19 39 21.5t27 2.5q24 0 51 -9q45 -17 100 -47q31 25 62 63.5t60 84t57.5 95t55.5 98.5 q23 42 46 81.5t44 74.5q-11 -2 -23 -3t-24 -3q-44 -6 -86.5 -12t-80.5 -13t-69.5 -16t-51.5 -21q-24 -13 -39.5 -29.5t-23 -34t-8 -34t5.5 -30.5q11 -24 30 -29.5t31 -5.5q18 0 39 6q10 4 20 -1t13 -16t-2 -20.5t-15 -12.5q-29 -9 -53 -9q-4 0 -20 1t-36 10.5t-34 24.5 t-21 32q-10 23 -10 50q0 25 10.5 50.5t32 50t55.5 43.5q23 13 56 23t73 18t85 14.5t92 12.5q20 2 43 5.5t49 7.5q40 57 80 90t85 33q38 0 57.5 -18.5t21.5 -40.5q1 -4 1 -8q0 -20 -14 -36.5t-42.5 -29.5t-68.5 -22.5t-89 -16.5z"/>
<glyph glyph-name="M" horiz-adv-x="959" unicode="M" d="M513 140l-17 -16q-8 -8 -15 -17q-19 -20 -28.5 -32.5t-14.5 -20.5q14 5 34 25.5t41 60.5zM1056 335q6 8 16.5 10t19.5 -5q9 -6 10.5 -16.5t-4.5 -19.5q-56 -77 -99 -130t-74.5 -86.5t-54 -51.5t-38 -26.5t-24.5 -9.5t-15 -1h-1q-33 0 -49 28q-11 18 -11 48q0 14 5 47.5 t26 94t50 123.5t55 114q-14 -11 -28 -23.5t-30 -25.5q-53 -45 -104.5 -90t-98.5 -87q-21 -64 -48 -113q-9 -16 -22 -36t-29.5 -37.5t-36.5 -29.5t-41 -12q-23 0 -32.5 8.5t-14.5 16.5q-3 8 -3 16q0 14 10.5 35t51.5 66q23 25 53.5 54t65.5 61q13 45 21.5 94t8.5 96.5t-9 91 t-30 78.5q-17 -35 -36.5 -75t-42.5 -85q-5 -8 -9.5 -18.5t-10.5 -22.5q-17 -35 -39.5 -80t-49.5 -92t-58 -92t-66 -80q-42 -43 -82 -61t-75 -18q-23 0 -42 7t-33 19q-16 13 -26 35.5t-10 52t13 66t44 79.5q48 64 102 105q8 6 19 4.5t17 -10.5q7 -9 5 -19.5t-10 -17.5 q-47 -34 -91 -93q-22 -30 -33 -56t-12.5 -39.5t-1.5 -20.5q0 -12 4 -24.5t14 -21.5q11 -10 22.5 -11.5t18.5 -1.5q13 0 30.5 4t41.5 18.5t48 39.5q33 33 62.5 76t55.5 88t47.5 88.5t37.5 77.5q6 13 11 23.5t9 19.5q26 51 49 97t41 84q-5 5 -8 7q-25 20 -54.5 30.5t-50.5 12 t-32 1.5q-18 0 -42 -3t-48 -12q-42 -15 -68 -42t-31 -59q-1 -6 -1 -12q0 -14 6 -30.5t23 -29.5q24 -18 60 -18q2 0 22 0.5t66 20.5q11 5 20.5 1t14.5 -14t1 -19.5t-14 -14.5q-59 -26 -111 -26q-1 0 -27.5 0.5t-63.5 28.5q-28 21 -38.5 48.5t-10.5 52.5q0 10 1 20 q8 47 42.5 84.5t90.5 57.5q27 10 55 14t50 4q13 0 38.5 -2t62.5 -14.5t70 -37.5q2 4 3.5 7.5t3.5 7.5l12 24q5 10 12 13t11 3q5 0 11 -3q11 -5 14.5 -15t-1.5 -20l-12 -24q-3 -8 -6.5 -15.5t-8.5 -16.5q27 -34 42 -75.5t19 -79t4 -66.5q0 -18 -2 -51.5t-11 -81.5 q35 31 72 62.5t75 63.5q40 35 82.5 71t80.5 71q40 67 68 103.5t46 53.5t28 19.5t15 2.5q20 0 27.5 -9t9.5 -14t2 -11q0 -7 -4 -18.5t-21.5 -33.5t-49.5 -53t-81 -74q-36 -62 -73.5 -134.5t-66.5 -141.5t-43 -119t-14 -78q0 -10 2 -19q2 -7 3.5 -8t3.5 -1t15 5t43 32t80 84.5 t126 162.5z"/>
<glyph glyph-name="N" horiz-adv-x="817" unicode="N" d="M1088 733q9 -11 12.5 -24t3.5 -22q0 -14 -5 -32q-3 -11 -12.5 -15.5t-20.5 -2.5q-11 3 -15.5 12.5t-1.5 20.5q3 9 3 16q0 9 -5 16q-10 11 -20 9q-8 0 -23 -9t-35 -32q-39 -44 -78.5 -98t-77 -112t-72 -116.5t-62.5 -110.5q-4 -41 -11 -76t-16 -62q-11 -30 -22.5 -48.5 t-23 -29t-22.5 -14t-20 -3.5q-8 0 -15.5 5t-10.5 12q-4 9 1 30t17 51.5t31 69t42 81.5q3 31 3 63q0 16 -1.5 50t-10.5 83t-25.5 94t-43.5 81q-16 -35 -35.5 -77t-42.5 -87l-11 -22t-12 -26q-17 -35 -39 -79t-48.5 -90t-57 -90t-64.5 -78q-42 -42 -82.5 -60t-74.5 -18 q-23 0 -42.5 7t-33.5 19q-16 13 -26 35t-10 51.5t13 66t44 79.5q49 66 102 104q8 7 18.5 5t17.5 -10q6 -9 4.5 -19.5t-10.5 -17.5q-47 -35 -90 -93q-44 -60 -45.5 -83.5t-1.5 -27.5q0 -35 18 -51q11 -9 23 -11t18 -2q12 0 30 4.5t42 19t49 39.5q31 31 60 73t54.5 86.5 t47 87.5t37.5 76q7 14 13 26.5t11 22.5q26 51 47.5 98t37.5 84q-1 2 -2 2.5t-3 2.5q-25 19 -54.5 29.5t-51 12.5t-33.5 2q-17 0 -40.5 -3t-47.5 -12q-42 -16 -67.5 -42t-30.5 -58q-1 -8 -1 -15q0 -14 6 -29.5t22 -27.5q25 -19 61 -19q2 0 22 0.5t66 20.5q10 5 19.5 1 t14.5 -14t1 -19.5t-14 -14.5q-59 -26 -111 -26q-1 0 -27.5 0.5t-62.5 28.5q-28 21 -38.5 49t-10.5 53q0 10 1 20q8 46 42.5 83.5t89.5 57.5q27 9 55.5 13.5t53.5 4.5q11 0 34.5 -1.5t60 -13.5t69.5 -36q5 11 9 19.5t7 15.5q5 10 14.5 13.5t19.5 -1.5t13.5 -15t-1.5 -20 q-4 -8 -9.5 -20.5t-13.5 -29.5q28 -31 48 -69.5t32.5 -81t19 -88t8.5 -90.5q30 50 61.5 100.5t64 97.5t63.5 88.5t59 73.5q53 58 96 58q12 0 30 -6.5t32 -23.5z"/>
<glyph glyph-name="O" horiz-adv-x="584" unicode="O" d="M478 643q7 14 11.5 26.5t8.5 26.5q-47 -20 -85 -51.5t-61 -63.5q-8 -11 -14.5 -21t-9.5 -19q-4 -12 -3 -16h1q1 0 2 0.5t3 0.5q21 0 42 9t39 24q20 17 36.5 38.5t29.5 45.5zM696 712q10 -24 10 -55q0 -30 -9 -66q-8 -33 -22.5 -70.5t-34.5 -75.5q-39 -76 -96 -154 t-124 -141.5t-138.5 -105.5t-139.5 -46h-3q-71 0 -107 41q-19 23 -24.5 50.5t-5.5 52.5q0 11 1 23q3 36 14 77t28 84q28 70 69.5 141.5t91 133.5t102.5 107.5t104 62.5q11 3 21 -1.5t13 -15.5q3 -10 -1.5 -19t-15.5 -13q-45 -16 -93.5 -58t-93.5 -100t-83.5 -125t-64.5 -133 q-16 -39 -26 -76t-12 -69q-1 -12 -1 -24q0 -15 3 -32.5t15 -31.5q18 -22 57 -22h10q40 2 82.5 21t84.5 49.5t83 70.5t78 85.5t69 94t56 95.5q19 37 32.5 71.5t20.5 65.5q8 29 8 53q0 21 -6 35q-11 27 -49 27q-20 0 -45 -5q-3 -23 -10 -47t-19 -47q-31 -61 -80 -101 q-25 -21 -53.5 -33.5t-60.5 -12.5q-40 1 -54 31q-5 12 -4 25.5t6 29.5q5 13 12.5 26t18.5 27q30 41 80.5 80.5t112.5 60.5q-2 11 -5 20t-9 16q-7 8 -5.5 19t9 17.5t16.5 6.5q1 0 7.5 -0.5t13.5 -9.5q10 -11 16 -25.5t8 -29.5q22 3 45 3q38 0 62 -15.5t35 -42.5z"/>
<glyph glyph-name="P" horiz-adv-x="644" unicode="P" d="M721 555q5 20 5 37q0 39 -23 70t-63 45q-15 4 -40 4h-14t-13 -2q-17 -32 -35 -68q-18 -37 -37 -71q-17 -34 -33 -64t-27 -52h-1l-1 -1v-1q-13 -24 -27 -50t-29 -52q3 -2 5 -3t4 -3q50 4 100 18t94 36q48 26 83 64t52 93zM336 371q16 28 30 55t28 53q10 17 23 41t27 52 t30 58q15 30 30 59q-54 -23 -112 -66t-112 -98t-100 -117q-48 -62 -83 -120q-21 -36 -37 -70t-24 -63q-8 -26 -10 -47q-1 -7 -1 -13q0 -13 3 -23q4 -18 36 -21q24 0 52 19q28 20 56 52t58 75t58 91q-8 2 -14 4t-11 3q-15 7 -23 17t-9 19q-2 19 8 29t27 13q10 2 20 2h18 t16 -1t16 -3zM746 693q16 -22 24 -48t8 -53q0 -25 -8 -52q-18 -66 -60 -112t-100 -75q-41 -21 -86 -35t-93 -21q3 -7 7 -13t6 -13q5 -9 1 -19t-14 -15q-9 -5 -19 -1t-15 13q-9 22 -24 41q-7 -2 -13 -2h-13q-33 -58 -69 -110t-71 -92q-37 -40 -73 -64q-35 -23 -68 -23h-3 q-68 4 -84 57q-6 18 -6 41v11q2 29 13 64q10 32 27 68t40 74q41 69 97 140t122 132q64 61 132 106t134 62q6 12 12 25t15 29q5 10 15 13q4 1 7 1q6 0 12 -3q9 -5 13 -15t-1 -19l-11 -22q15 0 28 -2t27 -5q29 -8 51 -24t40 -39z"/>
<glyph glyph-name="Q" horiz-adv-x="576" unicode="Q" d="M159 54q31 6 61 20t61 34q-5 2 -9 3t-10 1q-22 0 -50 -16t-53 -42zM465 639q7 13 11 25t9 23q-47 -20 -85 -51t-63 -62q-9 -11 -15 -21t-8 -19q-5 -14 -3 -15h4q21 -1 42 9t40 26q21 16 38 38t30 47zM648 -20q8 8 18 8t19 -8q7 -8 7 -18t-8 -18q-59 -58 -117 -58 q-5 0 -7 1q-26 1 -50 13t-44 28q-20 18 -40 40t-39 44q-15 16 -30 34t-31 32q-48 -35 -96 -56t-92 -23h-11q-31 0 -55 9q-28 11 -44 31q-19 23 -26 55q-5 22 -5 48q0 11 1 22q3 35 14 76t28 83q26 69 68 140t91 132t102 106t104 62q9 3 19 -1t13 -15q3 -10 -1 -19t-15 -13 q-45 -16 -93 -58t-93 -99q-45 -58 -83 -124t-64 -131q-32 -79 -38 -143q-1 -11 -1 -21q0 -45 19 -66q9 -13 28 -18q14 23 34 43t42 34t44 23q24 8 46 8q34 0 66 -21q38 31 74 69q36 37 70 79q32 42 60 86t51 86q19 37 31 71t21 64q6 27 7 50v6q0 19 -6 32q-11 27 -48 27 q-11 0 -23 -2t-23 -4q-3 -24 -11 -46t-19 -45q-15 -29 -36 -55t-45 -47q-26 -21 -55 -33t-61 -13q-21 1 -33 9t-19 21q-5 12 -4 26t6 29q5 12 13 26t19 26q29 40 81 80t114 61q-1 22 -13 37q-9 8 -7 18t10 19q7 5 16 5h3q11 -1 17 -9q20 -26 24 -57q11 2 23 3t23 1 q38 0 61 -15t36 -42q9 -22 9 -50q0 -31 -9 -69q-14 -67 -57 -146q-22 -44 -50 -88t-62 -88q-34 -42 -71 -82t-76 -72q14 -14 29 -31t29 -34q17 -19 33 -37t33 -34q17 -14 35 -24t35 -11h5q36 0 80 41z"/>
<glyph glyph-name="R" horiz-adv-x="702" unicode="R" d="M393 345q51 6 100 19t92 36q48 26 83 64t52 91q5 22 5 37q0 40 -23 71q-22 32 -62 44q-10 1 -20 3t-20 2h-14t-14 -2q-17 -32 -35 -68t-36 -70t-34 -66q-16 -30 -27 -51l-1 -1q-13 -25 -27 -50t-28 -51l4 -4t5 -4zM336 373q16 29 30 55l28 52q10 17 22 41t28 52 q14 27 29 57t30 59q-55 -23 -112 -66t-110 -97t-101 -116t-82 -121q-21 -36 -37 -69t-25 -62q-8 -27 -10 -49q-1 -6 -1 -12q0 -14 4 -25q6 -18 36 -21q24 0 51 19q28 19 56 52q28 32 58 76t58 92q-8 2 -14 3t-11 3q-15 8 -23 18t-9 18q-1 4 1 10q2 14 11 22t23 10q10 2 20 2 h18q17 0 32 -3zM822 340q10 -8 10 -21q0 -8 -5 -14q-3 -3 -7 -11t-12 -19q-16 -21 -36 -49t-44 -60q-24 -30 -47 -60q-24 -30 -47 -54q-22 -24 -42 -38t-34 -14h-4q-26 0 -46 12q-20 14 -35 36q-14 22 -24 51t-20 60q-11 37 -24 73t-33 59q-6 -1 -12 -1h-13 q-33 -58 -69 -110t-71 -92q-36 -40 -72 -65q-35 -23 -68 -23h-3q-67 3 -84 56q-6 18 -6 41v12q2 30 13 65q10 32 27 68t39 74q41 70 97 140t121 131q64 61 132 106t133 62q8 13 14 25l14 28q5 10 15 13q3 1 7 1l13 -3q9 -5 13 -15t-2 -19l-10 -22q30 0 54 -7q30 -8 52 -24 t38 -39q32 -43 32 -101q0 -27 -7 -51q-19 -65 -61 -111t-99 -75q-40 -21 -85 -35t-93 -22q17 -27 28 -59t20 -64q7 -25 15 -47t16 -40q9 -18 20 -27q11 -10 26 -9q12 0 38 28t57 70q31 40 62 83t52 73q7 8 11 15t10 13q6 10 17 11t19 -5z"/>
<glyph glyph-name="S" horiz-adv-x="622" unicode="S" d="M449 593q52 3 100 7t84 14q35 8 57 22t22 34q0 15 -20 26q-12 6 -30 10t-41 4q-74 0 -114 -25q-41 -23 -54 -67q-2 -6 -3 -12t-1 -13zM764 670q0 -36 -26 -60t-68 -38q-44 -14 -100 -20t-117 -10q7 -30 21 -60t31 -59q3 -5 7 -12t9 -15q44 -85 44 -160q0 -67 -32 -119 q-15 -25 -37 -47t-51 -37q-31 -17 -69 -26t-84 -9q-74 0 -118 25t-65 62q-9 16 -13 33q-6 21 -5 39q0 32 12 62q14 37 45 63t74 29q12 1 22 0q37 -3 62 -28q28 -23 31 -66v-23q-1 -12 -9 -18t-19 -5q-11 2 -17 10t-6 18v14q-1 21 -15 33q-11 11 -32 14h-13q-26 -2 -46 -19 t-29 -42q-8 -18 -8 -37v-8q2 -23 12 -44q14 -26 47 -44t90 -17q38 0 70 8t59 22q45 24 68 64q24 40 24 93q0 64 -37 135q-4 6 -8 13t-8 15q-20 35 -36 69t-24 71q-11 -1 -21 -1h-21q-40 -2 -78 -4t-72 -4q-34 -4 -60 -8q-28 -4 -46 -11q-34 -13 -54 -35t-26 -46 q-2 -10 -2 -18t2 -16q3 -16 14 -25q10 -11 30 -15q8 -2 19 -2q13 0 29 3q11 3 20 -3t11 -17q3 -11 -3 -19t-17 -11q-22 -5 -42 -5q-17 0 -31 4q-32 8 -52 27q-22 23 -29 51q-3 12 -3 25q0 16 4 34q8 35 36 66t75 50q21 9 51 14t66 9t74 4q40 2 81 4h21t21 1q0 20 6 41 q9 30 28 55t49 43q27 16 62 24t79 8q31 0 55 -6t42 -15q46 -28 46 -71z"/>
<glyph glyph-name="T" horiz-adv-x="414" unicode="T" d="M878 771q13 -11 13 -28q0 -16 -12 -25q-9 -8 -23 -12t-38 -6q-15 -1 -35 0h-27q-38 1 -92 4q-63 -22 -109 -56t-83 -82q-37 -46 -68 -103t-65 -123q-7 -14 -13 -27t-15 -27l-4 -9q-27 -51 -55 -101t-58 -90t-64 -63q-34 -24 -76 -24q-64 0 -88 49q-12 23 -12 52 q0 20 5 42q13 56 53 111q24 32 50 59t53 47q9 6 19 4t18 -10q7 -9 5 -19t-11 -18q-47 -35 -91 -94q-37 -50 -45 -90q-4 -19 -3 -33q0 -17 5 -28q2 -4 10 -12t32 -8q29 0 56 22q26 22 52 57t50 80t48 91l5 9l27 54q28 56 55 106t57 94t66 80t80 64q-51 2 -104 2h-15 q-45 0 -89 -3q-51 -3 -99 -9t-88 -18q-56 -16 -91 -46t-40 -70q-1 -7 -1 -13q-1 -16 5 -29q8 -19 24 -29q15 -9 35 -9q7 0 15 1q29 5 61 27q9 6 19 4t17 -11q6 -9 4 -19t-11 -18q-44 -30 -88 -36q-9 -1 -18 -1q-33 0 -61 18q-29 18 -43 51q-10 23 -11 49q0 11 2 22 q7 55 52 97t117 63q53 15 117 22q63 7 131 9q29 1 58 0q38 0 77 -1q67 -2 126 -5h5q59 19 142 28q16 2 28 2t22 -2q19 -3 30 -13z"/>
<glyph glyph-name="U" horiz-adv-x="574" unicode="U" d="M770 695q-9 -17 -28.5 -45.5t-46.5 -65t-60 -79.5t-69 -89q-29 -55 -56 -110t-48.5 -103.5t-35.5 -87t-17 -59.5q10 7 26.5 21t43.5 42.5t66 75t96 118.5l17 22q7 8 17.5 9.5t18.5 -4.5q9 -7 10.5 -17.5t-5.5 -19.5l-17 -22q-62 -79 -107.5 -132.5t-79 -86.5t-56.5 -47.5 t-41 -15.5h-2q-14 0 -26 10t-12 36q0 25 19.5 80t52.5 130q-47 -52 -92 -98.5t-84.5 -81.5t-72.5 -55.5t-54 -20.5h-2q-30 0 -45 10t-21 21q-9 15 -9 35q0 7 3 25t19.5 56.5t44 86t62.5 105.5q27 46 57.5 98t53 100t30 77.5t7.5 43.5q0 17 -6 28q-13 25 -70 25 q-29 0 -63.5 -6.5t-67 -19.5t-57.5 -31.5t-35 -43.5q-6 -15 -6 -29q0 -12 4 -23q13 -32 37.5 -37t37.5 -5q29 0 64 12q11 4 20 -0.5t13 -14.5q4 -11 -0.5 -20.5t-15.5 -12.5q-41 -15 -58.5 -15.5t-19.5 -0.5q-31 0 -56.5 9.5t-43 27t-26.5 38.5q-8 19 -8 41q0 25 9 49 q14 35 45.5 60t70.5 41.5t80.5 24.5t75.5 8q86 0 115 -51q13 -24 13 -53q0 -11 -4 -38.5t-26 -79.5t-55.5 -110t-70.5 -119q-22 -36 -45.5 -76t-42 -76t-26 -58.5t-7.5 -33.5q0 -7 2 -11q4 -6 22 -5q21 0 64 35t98 90.5t115.5 125.5t117.5 139q33 62 67 119.5t65 102 t56.5 71.5t42.5 29q7 0 14.5 -4t11.5 -10q5 -8 5 -17q0 -4 -2.5 -13.5t-10.5 -23.5z"/>
<glyph glyph-name="V" horiz-adv-x="528" unicode="V" d="M908 719q4 -12 4 -24v-5q-1 -16 -7 -31t-15 -29t-20 -23q-8 -7 -18 -6t-19 9q-7 8 -7 18t9 19q13 11 21 27t3 27q-1 7 -13 9t-18 1q-36 -1 -78 -33t-88 -84t-94 -115q-48 -64 -94 -127q-51 -70 -99 -134q-49 -64 -93 -112t-85 -78q-41 -28 -80 -28h-2q-29 0 -43 10 t-20 21q-8 15 -8 35v12q4 28 20 65t45 85q28 48 65 106q20 31 40 65t39 68t35 67q16 34 27 62t13 51q1 5 0 10q0 16 -6 28q-16 25 -71 25q-29 0 -64 -6t-67 -20q-32 -12 -58 -31t-35 -43q-6 -16 -6 -30q0 -13 5 -24q14 -31 51 -39q11 -2 24 -2q29 0 65 12q10 4 20 -1t13 -15 q3 -9 -1 -19t-15 -14q-44 -15 -78 -15q-33 0 -59 10t-43 27t-25 37q-8 21 -8 43q0 23 9 48q13 35 45 60q32 26 71 42t81 24t75 8q86 0 116 -51q13 -23 13 -52q0 -11 -2 -24q-7 -45 -30 -97q-24 -52 -58 -111t-72 -120q-20 -33 -44 -73t-43 -75q-19 -36 -29 -64 q-7 -18 -7 -28q0 -6 2 -10q2 -5 19 -5q29 0 66 30q36 30 78 78t86 106t86 116q53 73 105 142q51 69 101 122t98 85t92 32q40 0 58 -16t22 -28z"/>
<glyph glyph-name="W" horiz-adv-x="849" unicode="W" d="M1179 725q8 -14 8 -32q0 -34 -32 -80q-7 -9 -17 -11t-19 4t-11 16t4 20q17 23 21 38t1 21q-3 5 -10 7t-12 3q-16 0 -48 -30t-71 -76q-39 -47 -81 -101t-78 -103q-70 -92 -128 -166t-108 -127q-50 -54 -92 -82t-76 -28q-26 0 -44 16t-23 44q-2 10 -2 21q0 23 7 53 q10 44 30 98q-43 -47 -85 -88q-41 -40 -79 -72t-69 -50t-52 -18h-2q-27 0 -41 10t-19 20q-8 14 -8 32q0 7 1 14q4 28 21 64t45 83t65 106q29 47 61 100t58 102q24 49 36 89q6 20 5 36q0 16 -6 27q-13 25 -71 25q-30 0 -64 -6t-66 -20q-32 -12 -58 -31q-25 -19 -35 -43 q-7 -16 -7 -29q0 -12 6 -23q13 -32 50 -40q12 -3 25 -3q28 0 63 12q10 3 20 -1t13 -14t-1 -20t-15 -13q-41 -15 -75 -15q-2 0 -3 -1q-31 -1 -56 9t-43 28t-26 38q-10 19 -10 42q0 25 11 50q15 36 47 61t72 41t80 23t72 7q87 0 116 -51q12 -22 12 -50q0 -13 -2 -27 q-8 -46 -33 -100q-23 -54 -59 -112q-36 -59 -73 -119q-21 -33 -45 -71t-44 -74t-30 -64q-7 -18 -6 -27q0 -6 2 -10q0 -1 3 -2t13 -1q20 0 59 30t89 77q50 49 104 109q56 60 109 122q31 54 63 106t64 93t59 69q28 28 49 35q5 1 10 1q11 0 19 -8q3 -4 6 -12t-3 -21 q-4 -9 -24 -37t-49 -68q-30 -40 -69 -88t-82 -99q-24 -45 -44 -89t-34 -83t-20 -71q-4 -22 -5 -40q0 -8 1 -14q2 -12 6 -14t10 -2q18 0 44 16t54 46q30 28 63 66t67 80t68 86t66 88q58 76 106 138t86 104q40 42 72 66q32 23 56 23q16 -1 36 -9t31 -29z"/>
<glyph glyph-name="X" horiz-adv-x="786" unicode="X" d="M1049 717q13 -21 13 -46q0 -22 -11 -43q-5 -10 -15.5 -13t-20.5 2q-9 5 -12 15.5t2 19.5q4 8 5 18t-5 20q-14 21 -58 21h-11q-47 -2 -99 -29t-101.5 -69t-94.5 -95t-78 -107q-28 -45 -47 -90.5t-26.5 -82.5t-7.5 -66q0 -8 1.5 -30.5t15.5 -47.5q23 -44 83 -44 q21 0 52.5 24t67 60t71.5 78t66 78q8 10 12.5 15.5t8 10t8 9t11.5 12.5q8 8 18.5 9t18.5 -7q8 -7 9 -17.5t-7 -18.5q-7 -8 -11 -12.5t-7.5 -9t-8 -10t-12.5 -15.5q-48 -57 -90 -104t-79 -81.5t-69 -53.5t-59 -19q-28 0 -49 6.5t-36.5 17t-26 23.5t-17.5 25q-17 29 -19.5 56 t-2.5 42q0 27 4 56q-37 -45 -79 -85t-86.5 -70.5t-90 -49t-88.5 -20.5h-11q-29 0 -49 6.5t-32.5 16t-19.5 19.5t-10 17q-7 16 -7 32q0 10 4.5 29t24.5 39q8 8 18.5 7t18.5 -9q7 -8 7 -18.5t-8 -17.5q-9 -8 -12 -20t2 -22q12 -27 61 -27h10q54 3 112 35t112 82.5t101 112 t78 122.5q10 20 27 56.5t30.5 77.5t16.5 65.5t3 33.5q0 26 -11 44q-20 30 -76 30q-29 0 -64 -6.5t-67 -19t-57.5 -31.5t-35.5 -43q-7 -15 -7 -30q0 -12 5 -23q13 -32 38 -37t38 -5q29 0 64 12q11 4 20.5 -0.5t13.5 -15.5q4 -10 -1 -19.5t-15 -13.5q-42 -14 -60 -14.5 t-20 -0.5q-32 0 -57 9t-42.5 26.5t-26.5 38.5q-8 21 -8 44.5t9 46.5q14 35 46 60t71 41.5t80.5 24.5t75.5 8q87 0 120 -55q19 -29 19 -69q0 -37 -11 -78q35 40 74.5 76t81.5 63.5t84.5 44.5t83.5 19h11q20 0 38 -3.5t31.5 -11t22 -16t13.5 -15.5z"/>
<glyph glyph-name="Y" horiz-adv-x="618" unicode="Y" d="M301 -42l3 6l4 8q-244 -108 -244 -164q0 -8 12 -18q11 -9 28 -9q55 -1 102 45t95 132zM717 337q8 9 18 9t18 -8t9 -18t-7 -18l-30 -33q-47 -53 -82 -90t-66 -65t-63 -48t-73 -39q-7 -3 -19 -7t-26 -11q-4 -2 -8 -3t-8 -3q-20 -46 -34 -70q-54 -99 -113 -151t-129 -52 q-36 0 -61 19t-30 43q-1 7 -1 15q0 27 20 53q26 32 73 64t109 62t128 56q10 26 24 56t28 63q14 29 26 57t24 55q-48 -55 -96 -104t-89 -87q-43 -38 -77 -59q-34 -22 -56 -22l-1 -1q-30 0 -45 10t-21 22q-8 15 -8 34q0 7 1 15q4 29 20 67t44 86t62 105q28 45 58 97t53 100 t33 88q5 19 5 33q0 17 -6 28q-16 25 -71 25q-30 0 -64 -6t-66 -20q-32 -12 -58 -31t-34 -43q-6 -15 -6 -29q0 -13 5 -24q11 -31 49 -39q11 -2 25 -2q29 0 64 12q9 4 19 -1t14 -15q4 -11 -1 -20t-15 -13q-40 -15 -74 -15h-4q-31 0 -56 9q-26 9 -44 27t-25 38q-9 19 -9 41 q0 25 9 50q13 34 45 59q32 26 71 42t80 24t75 8q87 0 116 -52q13 -23 13 -52q1 -10 -1 -22q-6 -44 -30 -96q-22 -52 -56 -109q-34 -58 -70 -118q-20 -36 -44 -76t-42 -76t-28 -64q-6 -17 -6 -28q0 -7 2 -11q3 -6 21 -6q15 0 39 17t56 46t70 69t78 84t81 92t80 96 q73 152 125 228t96 78h3q5 0 11 -3q8 -4 13 -9q5 -8 5 -17q0 -5 -2 -9q-4 -14 -12 -28q-10 -16 -28 -44t-44 -64t-58 -77q-32 -42 -67 -86q-39 -79 -73 -155t-57 -130q-8 -18 -15 -36t-15 -33l9 3q38 17 67 36t58 45t62 62t80 87z"/>
<glyph glyph-name="Z" horiz-adv-x="548" unicode="Z" d="M671 694q2 2 2 3t1 2l-1 1q-4 8 -27 8q-22 0 -69 -39h14t15 1q26 2 42 9t23 15zM107 -121q42 25 86 60t90 83q-42 -14 -83 -25t-79 -21q-51 -14 -95 -26t-82 -30q-36 -16 -57 -33t-30 -33q-5 -12 -4 -18q0 -5 5 -10q13 -11 43 -11q43 0 95 15t111 49zM717 731 q9 -13 9 -29v-6q0 -15 -11 -32q-13 -17 -39 -31t-67 -16q-13 -1 -26 -1h-18q-21 2 -42 6q-39 -38 -85 -86t-93 -100q31 7 57 7q14 0 26 -2q29 -5 47 -16q45 -28 48 -81v-10q0 -44 -22 -99q-9 -17 -17 -33t-19 -33q47 30 93 71t90 95q8 9 18 11t19 -7q7 -7 9 -17t-5 -20 q-73 -88 -147 -144t-149 -91q-8 -10 -15 -19t-15 -18q-59 -68 -117 -116t-112 -80q-66 -38 -125 -55t-108 -17q-51 0 -78 24q-20 17 -23 44q-1 4 -1 8q0 19 12 41q12 23 39 46t71 43q43 19 89 32t98 27q60 17 124 35t129 49q31 38 54 75t37 70q19 50 19 81q0 30 -23 42 q-11 7 -29 10q-9 2 -20 2q-22 1 -48 -7q-39 -10 -80 -31q-5 -3 -7 -7t-5 -6q-37 -40 -70 -76t-60 -62t-47 -40q-16 -12 -27 -12q-2 0 -4 1q-14 5 -19 16q-2 5 -2 11q0 9 4 20q6 23 22 46q16 24 36 46q21 22 47 42t55 39q11 7 22 13t23 12q54 60 111 123t112 115 q-28 8 -54 17t-51 18q-45 15 -85 27t-74 12q-25 0 -40 -7t-22 -16q-7 -10 -8 -16q0 -11 2 -16q4 -7 11 -13t17 -8q12 -2 18 -12t4 -19q-3 -11 -12 -17t-20 -4q-25 6 -42 20t-25 32q-3 12 -5 22t1 21q2 23 15 41q14 20 40 32t66 13q42 0 85 -13t91 -30q32 -12 66 -22t69 -18 q43 38 79 61t58 23q26 0 44 -8t27 -23z"/>
<glyph glyph-name="bracketleft" horiz-adv-x="445" unicode="[" d="M634 834q10 0 16.5 -6.5t6.5 -16.5t-6.5 -17t-16.5 -7h-126l-445 -815h101q9 0 16 -6.5t7 -16.5t-7 -17t-16 -7h-140q-13 0 -20 12q-4 6 -4 12q0 5 3 11l471 862q7 12 20 12h140z"/>
<glyph glyph-name="bracketright" horiz-adv-x="468" unicode="]" d="M24 -75q-10 0 -17 7t-7 17t7 16.5t17 6.5h125l446 816h-101q-10 0 -17 6.5t-7 16.5t7 16.5t17 6.5h140q13 0 20 -11q4 -6 4 -12t-4 -11l-470 -863q-9 -12 -21 -12h-139z"/>
<glyph glyph-name="asciicircum" horiz-adv-x="502" unicode="^" d="M429 319q-6 -4 -14 -4q-3 1 -6 1q-11 2 -17 12l-72 111l-91 -114q-7 -7 -18 -9q-2 0 -4 -1q-9 0 -15 6q-10 8 -10 21q0 9 5 16l114 143q7 9 17 11h4q9 0 17 -6q1 -2 3 -5t4 -5l90 -139q4 -7 4 -15v-5q-2 -11 -11 -18z"/>
<glyph glyph-name="underscore" horiz-adv-x="551" unicode="_" d="M420 0q10 0 18 -8t8 -18t-8 -17t-16 -7h-167h-55h-151q-9 0 -17 6t-7 18q-1 11 7 18t17 8h163h62h146z"/>
<glyph glyph-name="grave" horiz-adv-x="246" unicode="`" d="M169 712q-11 16 -11 29q0 3 2 11.5t19 10.5h5q14 0 32.5 -11t30.5 -31q10 -16 10 -29q0 -17 -12 -21q7 -11 12.5 -19t10.5 -15q3 -6 3 -11q0 -10 -10 -17q-4 -4 -10 -4q-2 0 -7.5 1.5t-10.5 9.5q-11 17 -28 42q-7 11 -15.5 24t-19.5 28l-1 1v1z"/>
<glyph glyph-name="a" d="M40 52q22 0 52 18t62 47t66 66t65 76q19 45 40 88t41 78q-2 10 -7 15q-9 19 -36 19q-24 1 -55 -17q-32 -18 -64 -50t-64 -74t-61 -93q-41 -71 -51 -115q-5 -24 -5 -38q0 -12 4 -16q1 0 3 -2t10 -2zM564 339q9 -6 9 -20q0 -10 -6 -17q-15 -18 -33 -40t-36 -45 q-36 -48 -68 -88q-32 -41 -60 -69t-54 -44q-25 -16 -48 -16h-1q-5 0 -13 2t-16 8t-12 18q-6 12 -6 31q1 23 12 62q-48 -51 -98 -85t-92 -36q-40 0 -59 29q-11 18 -11 43v10q2 30 13 62q10 32 24 60t25 47q20 35 52 81t70 86q39 40 82 66q43 27 85 27q51 0 76 -36 q14 17 26 27t20 10q14 0 22 -9t8 -21q1 -11 -11 -37t-32 -61t-49 -76q-28 -41 -60 -83q-13 -29 -23 -57t-16 -50q-6 -23 -10 -40q-3 -17 0 -26q15 3 38 24q22 21 48 50t52 62t45 59q19 23 37 47t34 44q8 6 18 7t18 -6z" unicode="a"/>
<glyph glyph-name="b" horiz-adv-x="430" unicode="b" d="M409 711q-15 -4 -41 -32t-60 -72q-32 -43 -68 -99t-69 -115q41 42 85 91t80 94t57 81q22 36 21 52h-5zM530 341q10 -7 10 -22q0 -8 -4 -14q-29 -38 -51 -63q-21 -25 -41 -40q-20 -16 -38 -22t-39 -6q-7 0 -23 4t-31 24q-22 -34 -49 -70q-28 -36 -58 -66t-64 -48t-69 -18 h-1q-27 0 -41 11t-22 22q-12 20 -12 49q0 12 2 24q5 46 25 98q20 54 49 111t58 109q0 1 15 26t39 63q24 37 54 81t61 81q32 37 60 62t49 25q27 0 39 -10t14 -22q3 -7 3 -16q1 -15 -7 -34q-12 -31 -36 -68q-24 -38 -56 -78t-68 -80t-70 -76t-63 -64q-28 -28 -45 -44t-18 -17 t-1 -2h-1q-26 -57 -40 -103q-10 -36 -10 -62q0 -8 1 -14q2 -14 6 -18t15 -3q30 -1 60 19t60 52t56 70q26 40 49 80q-1 28 7 65t21 70t31 55t38 24q7 -1 14 -4t12 -11q4 -6 4 -17t-4 -26q-8 -30 -22 -63t-28 -62q-15 -29 -21 -40l-1 -1v-1v-1q0 -9 2 -19q5 -12 9 -14t8 -2 q12 0 23 4q12 4 26 16q14 11 32 33t45 57q10 10 21 10q8 0 16 -4z"/>
<glyph glyph-name="c" horiz-adv-x="347" unicode="c" d="M473 338q9 -7 9 -18q0 -9 -7 -17q-51 -57 -107 -111t-112 -96t-112 -70q-56 -26 -106 -26q-24 0 -36 7t-18 15q-15 19 -15 53q0 33 16 79q17 46 43 93t61 95t74 85t79 60t77 23q29 0 45 -8t22 -20q11 -14 14 -32q1 -6 1 -13q0 -13 -4 -28q-2 -11 -11 -16t-19 -3 q-9 3 -15 12t-3 18q2 8 2 15q0 10 -5 16q-4 5 -12 7t-15 2q-27 0 -61 -22t-67 -55q-33 -35 -64 -77t-55 -85t-38 -81t-15 -65q0 -7 2 -12t3 -8l4 -2t10 -1q34 0 70 15t74 40t75 56t71 63t61 60q28 30 48 52q8 7 18 7t18 -7z"/>
<glyph glyph-name="d" d="M36 50q24 0 58 26t75 68t85 96t89 113q7 13 14 27t13 27q0 7 -1 15t-6 15q-5 9 -15 17t-29 8q-24 0 -54 -18q-31 -18 -63 -48q-32 -32 -64 -74t-61 -92q-23 -38 -35 -68t-17 -50q-5 -22 -5 -36t4 -20q0 -2 2 -3t10 -3zM524 336q8 8 18 10t19 -7q10 -9 10 -19q0 -8 -7 -18 q-18 -20 -36 -44t-38 -50q-30 -40 -60 -78t-58 -67t-55 -47t-52 -17q-9 0 -19 5t-15 14q-4 10 -4 25t4 34q8 39 27 92q-32 -36 -63 -67q-31 -32 -59 -54t-54 -34q-25 -12 -44 -13h-7q-34 0 -54 29q-10 18 -10 41q0 6 1 12q4 31 14 63t24 62t25 48q27 48 62 94t73 82t78 58 q39 22 75 22q27 0 49 -12t37 -31q19 37 37 69t34 59q16 26 28 45t17 28q21 34 35 52t22 27q10 9 16 11t14 2q10 0 18 -8t8 -20q0 -16 -20 -56t-53 -95q-35 -55 -79 -121t-93 -130q-23 -46 -43 -90t-35 -80q-15 -37 -25 -65t-10 -43q16 4 37 24t45 46t46 57q24 30 45 57 l39 52t36 46z" unicode="d"/>
<glyph glyph-name="e" horiz-adv-x="352" unicode="e" d="M319 459q-24 1 -52 -15q-29 -16 -57 -42t-56 -60t-53 -70q85 12 143 50t84 82q14 26 14 41q0 5 -2 9t-10 4t-11 1zM477 339q9 -8 9 -18t-8 -18q-282 -303 -442 -303q-22 0 -34 7t-19 15q-16 22 -16 52q0 32 16 78q17 46 43 94t62 96t74 86q40 38 80 60q40 23 77 23 q30 1 45 -11t20 -21q9 -15 9 -36q-1 -5 -1 -9q-2 -26 -20 -55q-17 -28 -46 -56t-68 -51t-87 -38t-102 -16q-24 -42 -37 -80t-13 -64q0 -6 1 -12t4 -7q0 -1 2 -3t10 -1q68 1 170 73t235 213q7 9 17 9t19 -7z"/>
<glyph glyph-name="f" horiz-adv-x="261" unicode="f" d="M16 -193q22 26 38 69t27 93q11 51 17 103t8 96q-7 4 -12 10l-10 12q-31 -62 -57 -122t-44 -112q-19 -52 -27 -94q-5 -26 -5 -45q0 -11 2 -20q1 -13 5 -15t9 -2q23 0 49 27zM413 712q-12 -6 -33 -30t-48 -62t-58 -88t-63 -106q37 39 76 83q39 45 71 85t50 72q15 26 15 40 q0 3 -1 6h-9zM343 335q7 8 17 10t18 -6q8 -6 10 -17t-6 -19q-66 -83 -122 -121q-49 -33 -92 -33q-6 0 -11 1q-1 -48 -9 -102t-20 -105t-32 -95q-18 -44 -42 -73q-20 -25 -42 -35t-45 -10q-38 0 -55 30q-12 20 -12 53q0 15 3 33q7 56 31 125t58 143t69 142q-1 13 -1 28 q0 16 4 28t12 22t20 11q5 3 11 0q33 61 55 100t26 45q62 102 103 158t66 82t37 29q12 4 18 4q30 -1 42 -13t15 -23q2 -7 2 -15q0 -19 -11 -45q-16 -37 -46 -79t-68 -88q-40 -46 -78 -86t-71 -72t-51 -47q2 -6 4 -14t2 -16q4 -14 4 -30t2 -34q8 -2 24 1q16 2 38 16t54 42 q30 28 69 75z"/>
<glyph glyph-name="g" horiz-adv-x="437" unicode="g" d="M40 51q22 1 50 17t58 42t61 60t60 71q34 60 58 104t41 74q-1 5 -2 11t-5 11q-10 21 -36 21q-25 0 -55 -18t-63 -50t-66 -74q-33 -43 -61 -94q-42 -72 -51 -116q-5 -26 -5 -41q0 -10 2 -14q2 -2 4 -3t10 -1zM66 -118q6 8 13 18t12 21q-29 -14 -59 -28t-73 -31 q-37 -16 -49 -33t-11 -28q5 -18 33 -18q22 0 41 9q19 10 35 24t32 32q14 18 26 34zM569 339q9 -9 9 -20q0 -10 -7 -16l-28 -30q-27 -31 -61 -68t-74 -75t-82 -72q-44 -35 -90 -61q-16 -9 -30 -17l-28 -16q-19 -32 -36 -60t-32 -51q-14 -19 -32 -41t-40 -39t-48 -29t-58 -12 t-55 16t-29 43q-1 5 -1 10q0 7 2 17q3 16 13 32t30 32q18 16 47 28q33 13 59 24q26 12 48 22q24 10 46 20t49 25q8 17 17 33t17 32q-35 -29 -69 -48t-64 -19h-5q-37 0 -53 31q-12 18 -12 42v10q2 30 14 62q10 32 24 61t24 47q22 36 54 81t70 85t82 66q43 27 85 27 q52 0 76 -37q18 24 28 32t21 7q11 0 19 -8t9 -22q0 -12 -13 -40t-35 -66q-22 -39 -54 -83q-31 -44 -66 -89l-2 -2q-20 -39 -40 -77t-42 -75q40 25 80 57t76 67t66 69q31 34 57 62l28 31q8 9 18 9t18 -7z"/>
<glyph glyph-name="h" horiz-adv-x="476" unicode="h" d="M597 338q8 -7 8 -18q0 -9 -7 -16q-13 -14 -29 -32t-32 -40q-33 -38 -69 -78t-68 -74q-34 -34 -62 -56t-48 -23h-4q-25 -1 -36 11q-12 12 -14 35q0 17 9 39t25 49t34 57q20 30 40 61t38 61t34 57t24 49q10 22 11 36q0 4 -9 4h-2q-22 0 -55 -20q-34 -20 -73 -54 q-40 -34 -82 -78t-82 -90t-78 -89q-36 -44 -64 -77q-17 -23 -35 -38q-8 -12 -20 -12q-5 0 -11 2q-8 4 -12 14q-2 4 -2 8q0 6 4 13q10 21 25 53t35 69t42 81t46 89q32 55 65 113t65 111q26 43 52 81t48 64q22 28 41 44t34 19q15 1 22 -5t10 -20q1 -11 -13 -37t-38 -61 t-54 -76l-60 -82q-38 -50 -70 -94t-49 -69q-16 -27 -30 -55t-29 -54q46 54 98 108t102 98t96 70q43 26 77 25h2q31 -1 44 -15q11 -13 11 -33v-7q-1 -20 -11 -46q-11 -26 -27 -56t-37 -63l-42 -66q-19 -27 -35 -53t-29 -48t-21 -40t-10 -30q10 0 32 20t52 52q29 30 62 67 t63 72q15 20 31 38t29 34q8 7 19 8t19 -7z"/>
<glyph glyph-name="i" horiz-adv-x="199" unicode="i" d="M250 542q-16 0 -20 16l-2 10q0 12 7 25q9 21 27 37t35 16q16 0 20 -16q1 -5 1 -10q0 -12 -6 -27q-11 -19 -28 -35t-34 -16zM321 340q8 -7 10 -17q1 -2 1 -5q0 -7 -5 -13q-1 -1 -21 -24t-50 -57t-68 -74t-76 -72q-38 -34 -70 -56t-53 -22q-18 0 -27 8t-13 12q-5 11 -5 24 q0 14 6 32q12 33 43 85q47 79 97 165t98 172q5 10 15 12q3 1 7 0q6 0 12 -3q10 -5 12 -15t-2 -19q-48 -87 -98 -172t-98 -166q-20 -35 -28 -54t-12 -29q18 8 52 37t76 69t85 88q43 47 78 89q7 8 17 10t17 -5z"/>
<glyph glyph-name="j" horiz-adv-x="204" unicode="j" d="M252 543q-16 -1 -20 15q-1 4 -1 10q0 13 7 29q10 21 28 37t34 15q17 1 21 -15q1 -4 1 -9q0 -12 -8 -28q-8 -23 -26 -39t-36 -15zM-311 -220q23 0 47 12t46 32t42 46t38 52q-24 -11 -49 -21t-53 -21l-45 -20q-34 -13 -47 -34q-11 -18 -11 -30t14 -14q12 -2 18 -2zM337 339 q9 -9 9 -20q0 -10 -8 -17l-29 -35q-29 -29 -63 -65t-73 -74q-39 -37 -82 -72t-89 -60q-14 -8 -29 -16t-27 -16q-22 -40 -48 -82t-59 -75q-31 -33 -69 -55t-81 -22q-24 0 -40 6t-25 16q-9 8 -13 17t-5 14q-1 7 -1 13q0 11 3 23q5 19 17 35q11 16 29 30t41 22l45 20 q24 10 45 19t41 18t40 19t42 22q4 8 8 15t9 17q5 8 9 16t9 15q17 35 37 70t39 68q1 2 5 9t7 15q49 91 79 146t50 85t30 40t20 11q3 1 6 1q4 0 10 -2q8 -4 14 -11q2 -4 2 -10q0 -9 -6 -25q-8 -24 -25 -56t-39 -66t-43 -66q-21 -30 -39 -54t-24 -33q-17 -33 -36 -69t-38 -70 q40 25 79 57t75 66q36 33 67 67q32 34 58 63l30 34q6 9 17 9t19 -7z"/>
<glyph glyph-name="k" horiz-adv-x="453" unicode="k" d="M550 339q8 -10 8 -19q0 -8 -6 -17q-4 -3 -12 -15t-19 -25q-41 -59 -78 -107t-70 -84q-33 -34 -61 -52t-53 -19q-20 0 -37 10t-28 30q-18 25 -22 61q-3 22 -3 44q0 15 1 30q3 38 12 72t19 56q1 5 5 9t10 4q22 6 43 14q28 9 55 18t50 20t41 26t29 36q8 13 9 19t1 9 q-1 1 -3 2q-4 2 -11 2q-37 0 -77 -19q-41 -19 -81 -52t-80 -77t-76 -94q-38 -49 -72 -103t-62 -105q-9 -14 -25 -14q-2 0 -5 1t-5 2q-11 6 -14 14q-1 4 -1 9t1 10q1 2 12 27q11 24 29 64t44 92q25 52 55 108l1 2l3 6t4 6q25 50 53 101t54 98q28 47 56 87t52 72q26 30 48 47 t41 17q16 0 23 -10q6 -8 6 -16t-12 -28t-41 -60t-83 -116q-22 -30 -46 -62t-44 -60t-36 -52t-25 -39q33 39 69 75t75 62q38 26 78 42t81 16q46 0 61 -34q4 -11 4 -24q0 -24 -15 -51q-16 -27 -38 -47t-50 -32q-26 -14 -56 -24t-59 -17q-11 -5 -19 -7t-14 -5q-8 -23 -14 -52 t-8 -58q-1 -12 -1 -23q0 -17 2 -32q3 -26 14 -41q7 -14 22 -14q52 0 222 240q15 18 21 28t11 14q7 8 18 10t19 -6z"/>
<glyph glyph-name="l" horiz-adv-x="251" unicode="l" d="M296 590q-30 -41 -58 -88t-54 -95q39 42 80 89q41 48 74 90q32 42 52 76q16 28 17 42q0 3 -1 6l-2 1q-2 1 -5 1q1 -1 -5 -4t-18 -15t-32 -36t-48 -67zM333 335q5 8 15 10t19 -5q9 -6 11 -16t-6 -19q-6 -9 -30 -35t-58 -61q-34 -34 -72 -71q-40 -37 -78 -68t-70 -51 t-53 -20h-1q-14 2 -25 12q-10 9 -10 29q-1 12 7 38q6 22 18 52q10 30 26 66t35 76q5 10 7 16t2 7q25 51 54 107q30 56 60 108t61 97q31 47 59 81t52 54t43 20q29 0 40 -12t15 -21q3 -8 3 -18q0 -21 -13 -49q-19 -42 -54 -90q-35 -49 -79 -100q-43 -52 -85 -96t-74 -76 t-44 -43q-32 -66 -54 -120t-26 -81q16 8 42 28t56 46t62 56t60 58l52 52q22 24 33 39z"/>
<glyph glyph-name="m" horiz-adv-x="693" unicode="m" d="M791 338q10 -9 10 -20q0 -8 -7 -15q-25 -31 -52 -62t-50 -61q-30 -36 -57 -69t-51 -57t-47 -40q-21 -14 -39 -13h-2q-26 1 -37 14t-11 38q0 20 11 49t27 63q16 33 38 71q21 38 41 74q11 18 21 36l20 36q18 30 24 49t6 30q-14 1 -31 -7t-34 -19q-29 -17 -55 -39t-43 -39 q-48 -47 -93 -99q-16 -32 -31 -64t-32 -61q-31 -57 -58 -95t-44 -37q-11 0 -19 5q-14 8 -16 21q-1 4 -1 8q0 11 4 25q3 9 10 23t18 31q19 35 53 80t75 92q13 29 25 57t23 52q15 39 15 53q0 8 -2 10t-6 2q-36 0 -78 -30t-87 -78q-43 -48 -87 -104t-83 -109q-29 -39 -55 -73 t-47 -57h-1q-5 -5 -13 -7t-16 3q-11 3 -13 13q-1 3 -1 7q0 7 3 13q8 16 25 46t40 69q23 41 49 89t52 94t48 88q22 41 38 70q4 10 14 14t19 -1t13 -15t-2 -19q-16 -32 -40 -76t-49 -92q33 41 67 78t68 65t69 46q34 17 67 17q6 0 12 -2l12 -4q15 -6 26 -22q4 -7 6 -15t2 -20 q0 -18 -10 -51q20 19 46 41t56 41q22 14 46 23t46 9q15 0 26 -8q25 -13 25 -42q0 -33 -35 -102q-10 -17 -21 -37t-22 -39q-19 -33 -39 -67t-35 -66q-16 -32 -26 -58t-10 -40q9 1 25 14t36 35t44 51t49 61q25 29 51 61t53 62q6 8 16 9t18 -7z"/>
<glyph glyph-name="n" horiz-adv-x="466" unicode="n" d="M575 337q9 -7 9 -19q0 -9 -6 -16q-14 -14 -31 -34t-36 -43q-33 -37 -67 -77t-68 -72q-32 -32 -60 -54t-46 -22h-4q-24 0 -35 10q-12 12 -14 35q0 16 8 38q8 21 22 47t32 54t37 59q18 30 38 60q20 29 35 57t25 51t9 38q1 5 -3 8t-15 3q-18 0 -44 -18t-57 -46 q-30 -29 -64 -67t-68 -79q-34 -42 -66 -82l-60 -75q-20 -26 -37 -48t-30 -35q-9 -10 -19 -10q-5 0 -10 3q-11 3 -14 13q-1 4 -1 8q0 6 3 12q14 32 40 82t55 105q19 39 39 77t40 75q18 36 34 67t28 55q6 9 16 12t20 -2t12 -15t-2 -19q-23 -44 -56 -107t-69 -132q40 50 83 100 t84 88q42 40 78 64t65 25q37 0 53 -17t16 -45q0 -21 -10 -48t-28 -57q-16 -30 -37 -62t-42 -65q-18 -28 -34 -54q-16 -27 -29 -49q-12 -22 -20 -40t-8 -27v0t3 2q10 1 32 21t50 50t60 66t61 72q17 20 35 40t32 38q9 9 19 9z"/>
<glyph glyph-name="o" horiz-adv-x="429" unicode="o" d="M368 450q-12 -14 -24 -40t-23 -57t-19 -63t-10 -62q5 8 9 14t8 15q35 61 49 113q11 43 11 69q0 6 -1 11zM245 181q-4 17 -4 37q0 14 2 28q5 36 15 74t25 75q15 36 32 64q-37 -5 -73 -30t-69 -61t-61 -75q-28 -40 -46 -73q-35 -63 -42 -101q-3 -18 -3 -30q0 -14 4 -22 q10 -16 45 -16q48 0 94 34t85 83q-2 2 -2 6t-2 7zM531 340q8 -6 10 -16q1 -3 1 -6q0 -7 -5 -13l-22 -28q-21 -30 -45 -60t-48 -55q-24 -24 -48 -40t-48 -16q-14 0 -26 4t-23 12q-44 -52 -97 -87t-110 -35q-39 0 -59 14t-28 27q-13 21 -13 49q0 24 7 50q7 28 19 55t26 51 q7 12 23 38q15 26 39 58t54 64t66 58q36 25 74 38q25 8 51 8q14 0 28 -2h1l4 2q8 3 15 3q5 1 11 -1q12 -4 20 -17q13 -22 13 -54t-9 -68q-9 -37 -25 -73t-34 -68q-10 -16 -21 -34t-23 -34q7 -6 17 -6q14 0 34 16t40 38t40 48t35 48l20 27q8 9 18 10t18 -5z"/>
<glyph glyph-name="p" horiz-adv-x="455" unicode="p" d="M149 53q23 1 51 19t57 52q-3 -1 -7 -1l-16 -2q-8 -1 -26 -4t-36 -7t-35 -12q-16 -7 -23 -16q0 -2 -2 -6t-1 -9q2 -10 15 -12t23 -2zM566 338q8 -8 8 -18q0 -9 -7 -17l-3 -4q-41 -46 -69 -75q-28 -28 -52 -46t-50 -28t-64 -16q-16 -22 -36 -46q-19 -24 -43 -43t-49 -31 t-52 -13q-27 1 -43 7t-25 16t-13 18q-4 10 -4 16q-5 14 -1 28t12 26q20 28 62 40t91 19l15 1q16 2 30 4t26 4q9 12 17 27t16 32q42 77 54 137q7 32 7 52q0 18 -5 27q-2 7 -15 6q-15 -1 -45 -23t-77 -72t-109 -128t-142 -190q-28 -56 -58 -112t-66 -111q-30 -47 -52 -71 t-40 -24q-14 0 -23 12q-4 6 -4 14q-1 8 5 24q6 14 18 36t34 51q33 51 69 103t73 105q14 27 27 55t26 54q37 78 77 159t87 156q6 10 16 12q3 1 6 1q7 0 13 -4q8 -6 11 -16t-3 -19q-27 -45 -55 -95t-51 -97q41 49 79 91q37 42 71 72t62 48t49 19h5q36 0 54 -30q13 -21 13 -53 t-9 -68q-8 -36 -24 -75q-16 -38 -34 -71q-2 -4 -4 -9t-6 -10q20 6 36 16q16 11 35 27q18 16 40 40t52 58q9 10 19 10t18 -8z"/>
<glyph glyph-name="q" horiz-adv-x="429" unicode="q" d="M33 51q21 1 48 16t57 40t59 57q30 32 59 67q35 65 60 111t44 77q0 9 -7 20q-9 21 -35 21q-25 0 -56 -18q-32 -18 -64 -50t-64 -74t-61 -91q-41 -75 -51 -118q-6 -26 -5 -41q0 -9 2 -14q2 -1 4 -3t10 0zM540 338q7 -6 7 -17t-7 -19q-26 -26 -58 -62t-64 -73 q-42 -49 -80 -91t-64 -64l-1 -7q-8 -35 -20 -83t-32 -90t-49 -72t-70 -30q-29 0 -45 25q-8 12 -8 36q0 28 18 68q29 59 55 111l49 98q-36 -32 -71 -50t-65 -18h-8q-16 0 -27 6q-14 8 -23 23q-12 19 -12 43q1 4 1 10q2 30 12 62t25 60q14 29 25 47q20 36 52 81t71 85t82 67 t85 27q23 -1 43 -11t32 -30q11 16 19 24t13 12t9 4t6 1q11 0 20 -9t9 -22q1 -12 -13 -40t-37 -67q-23 -38 -54 -83t-66 -89q-41 -78 -89 -171t-98 -195q-10 -21 -12 -35t-1 -18h2q27 0 47 27t35 65t25 76q10 40 15 66l4 15q0 8 9 14q10 9 26 25t34 38q20 21 42 45t43 48 q29 36 63 73t59 64q9 7 19 7t18 -7z"/>
<glyph glyph-name="r" horiz-adv-x="292" unicode="r" d="M163 505q17 27 21 40t4 18h-4q-18 0 -23 -6t-5 -8q-2 -8 -1.5 -20t8.5 -24zM394.5 338.5q8.5 -8.5 8.5 -19.5q0 -10 -8 -17q-6 -8 -19 -22t-27 -33q-105 -123 -168 -185t-97 -62q-18 0 -27.5 7t-11.5 14q-8 5 -8 18q0 7 4.5 24.5t21 51.5t39.5 70.5t43 66.5 q45 66 51.5 88t6.5 30q0 24 -24 42q-2 2 -5 4t-7 4q-21 -27 -52.5 -66t-65.5 -79q-5 -5 -6.5 -8t-5.5 -7q-8 -8 -18.5 -9t-17.5 5q-10 7 -10 22q0 8 4 14q2 2 5.5 6t9.5 11q38 44 70 83.5t52 66.5q-20 25 -24.5 44.5t-4.5 31.5q0 14 4 28q7 25 27.5 38t49.5 13q24 0 35 -9.5 t16 -18.5q4 -9 4 -20q0 -13 -7 -36t-36 -67l5.5 -5.5t7.5 -4.5q34 -24 39 -46t5 -36q0 -16 -6 -39.5t-24.5 -53.5t-34.5 -55q-12 -17 -26.5 -39t-28 -45t-24.5 -45.5t-17 -39.5q17 9 46.5 37t61 63t61.5 70t49 57q16 18 28 32.5t20 24.5q8 7 18 8t18.5 -7.5z"/>
<glyph glyph-name="s" horiz-adv-x="375" unicode="s" d="M64 51q56 1 94 31t61 77q-22 -2 -35 -3l-17 -1q-35 -3 -62 -11t-46 -18t-29 -20t-12 -18q-2 -14 7 -23q12 -14 39 -14zM366 521q-22 1 -34 -13t-19 -42q3 2 6 3t6 3q31 16 41 28t9 14q1 2 -3 4zM488 339q9 -8 9 -20q0 -9 -6 -16q-29 -33 -57 -57t-54 -39t-52 -25t-51 -15 q-12 -35 -31 -65q-20 -30 -46 -53t-60 -36t-76 -13q-24 0 -44 8t-34 24q-19 21 -19 49q0 7 1 15q4 21 20 40q16 20 42 34t60 24t74 13h16q14 2 28 3t29 3l4 20t3 21q2 23 3 46t3 46q1 10 1 20t1 21l-21 -6q-23 -7 -43 -14t-43 -19q-22 -12 -46 -34q-24 -21 -54 -55 q-8 -9 -18 -9t-18 7q-8 9 -9 19t6 18q34 38 62 62t53 38t49 22t47 15q9 3 19 5t21 8q4 26 11 50q8 24 20 42t31 27q17 9 43 9h5q17 0 35 -12t23 -33q2 -9 1 -21t-9 -25q-9 -13 -25 -27t-44 -28l-22 -11t-21 -10q-3 -14 -3 -29t-1 -33q-2 -23 -3 -47t-3 -47q-1 -7 -1 -13 t-3 -12q37 10 77 36t84 76q8 8 18 9t18 -6z"/>
<glyph glyph-name="t" horiz-adv-x="228" unicode="t" d="M109 305q-3 -3 -4 -5q-21 -41 -40 -79q-19 -39 -33 -71t-23 -57t-10 -39q17 4 43 22t64 52t88 86t111 123q6 9 17 9t19 -6q8 -8 9 -18t-6 -20q-44 -51 -94 -105q-50 -53 -98 -97t-92 -72t-75 -28h-2q-13 0 -25 10t-12 37q1 20 11 51q9 32 25 68t35 75t39 77t37 70 q18 32 31 55h-16q-10 0 -18 7t-8 18q0 10 8 18t18 8h48q51 89 84 137q32 49 52 71t29 26t13 3q15 0 24 -14q4 -7 4 -16q0 -11 -12 -35t-38 -64t-72 -108h86q10 0 18 -8t8 -18q0 -11 -8 -18t-18 -7h-123q-17 -24 -35 -51l-38 -57z"/>
<glyph glyph-name="u" horiz-adv-x="440" unicode="u" d="M541 340q10 -10 10 -22q0 -8 -6 -14l-8 -12q-60 -83 -102.5 -138.5t-73.5 -89t-51.5 -48.5t-35.5 -15q-35 0 -50 27q-7 14 -7 35q0 6 1.5 24t13.5 53q-27 -29 -53.5 -54t-51 -44t-46 -30.5t-37.5 -12.5h-2q-25 0 -37.5 9t-19.5 20q-8 15 -8 36q0 11 4.5 36t26 73.5 t55 106.5t73.5 123q19 31 32.5 55.5t20.5 38.5q5 9 12 12t11 3q6 0 12 -3q8 -5 12 -14t-1 -20q-7 -16 -22 -40.5t-35 -56.5q-19 -32 -47.5 -81t-54 -98t-37.5 -81.5t-12 -47.5q0 -9 3 -15q2 -2 6 -2.5t6 -0.5q15 0 45 22.5t66.5 58t76 78t74.5 82.5q24 44 44 76.5t26 40.5 l4 7q20 30 33 48.5t22 28.5t16.5 13.5t15.5 3.5q11 0 18.5 -6t10.5 -14q4 -8 4.5 -16.5t-5.5 -20.5t-19 -29.5t-35 -43.5q-3 -3 -5 -7q-8 -9 -31 -38.5t-56 -67.5q-45 -83 -63 -133.5t-18 -70.5q0 -8 3 -12h3q9 3 25.5 19.5t37.5 41t44.5 54t45.5 59t40.5 55t29.5 41.5 l11 12q5 8 15.5 10t19.5 -4z"/>
<glyph glyph-name="v" horiz-adv-x="460" unicode="v" d="M389 450q-11 -14 -25 -38t-25 -56q-13 -30 -21 -63t-10 -63q4 8 8 15t10 14q36 63 51 113q13 42 13 68q0 5 -1 10zM563 339q10 -9 10 -21q0 -9 -7 -16l-12 -16t-14 -14q-30 -34 -56 -64t-50 -52t-45 -34t-40 -13q-6 -1 -11 -1q-11 0 -21 3q-15 4 -26 12q-45 -51 -100 -87 t-114 -36q-51 0 -70 41q-9 18 -9 44q0 11 2 25q6 42 22 92q16 48 41 98q24 50 47 92t42 72t26 38q8 8 18 8q1 0 2 1q9 0 16 -6q8 -6 9 -17t-6 -19q-11 -13 -29 -43t-40 -70t-42 -83q-20 -45 -34 -85t-21 -74q-2 -14 -2 -25q0 -17 5 -27q1 -3 5 -7t18 -4q25 -1 49 9t48 26 t46 37t42 45v4t-1 4q-4 18 -4 39q1 9 1 19q2 33 10 68q8 36 22 70t30 62t31 48q16 20 30 26q8 3 15 3q6 0 12 -2q12 -5 20 -18q12 -21 12 -51q0 -32 -10 -68q-9 -34 -25 -70t-35 -68q-10 -18 -22 -36t-25 -35q5 -2 9 -4t13 0q13 -1 33 15t41 38q22 22 43 47t38 45l14 16 t13 17q9 7 19 8t17 -6z"/>
<glyph glyph-name="w" horiz-adv-x="652" unicode="w" d="M585 447q-11 -15 -23 -39t-24 -54t-19 -62q-8 -32 -9 -59q3 9 7 15t8 11q35 63 49 111q12 40 12 66q0 6 -1 11zM759 339q9 -9 9 -21q0 -9 -7 -16q-5 -8 -11 -15t-14 -16q-30 -35 -56 -65t-51 -52q-23 -22 -45 -34t-42 -12q-29 0 -48 16q-44 -51 -98 -87t-111 -37h-1 q-18 0 -31 5t-22 12t-15 15t-8 15q-6 17 -6 39q0 12 2 26q-44 -48 -88 -79t-86 -31q-22 0 -32 6t-17 15q-11 17 -11 40q0 21 10 50q10 37 32 85t48 96t52 94q26 44 46 74q16 24 22 36q5 9 15 12q3 1 7 1l13 -3q9 -5 11 -16t-2 -19q-4 -9 -9 -17t-13 -22q-18 -29 -44 -72 q-26 -44 -52 -90t-48 -92t-31 -82q-7 -21 -7 -31l2 -13h8q20 0 46 16t54 40q28 26 55 59q28 33 54 68q18 43 40 83q21 40 41 73t34 55t20 27q8 8 18 8q6 0 12 -3q2 0 10 -8t3 -28q-3 -12 -13 -36t-28 -56t-42 -69t-50 -74q-20 -45 -28 -85q-4 -18 -3 -32q0 -17 5 -27 q2 -4 6 -9t21 -5q47 1 94 35t85 84v6t-2 7q-3 16 -3 35q-1 26 5 56q10 52 28 102t42 86q24 38 44 46q8 3 15 3q18 0 29 -19q14 -23 14 -57q0 -31 -8 -63q-8 -34 -24 -70t-34 -65q-10 -19 -22 -37l-24 -36q3 -3 8 -4t10 -1q12 0 32 16q20 17 42 39t42 47q22 25 38 44 q8 8 14 15t14 15q6 7 16 9t19 -5z"/>
<glyph glyph-name="x" horiz-adv-x="507" unicode="x" d="M626 339q9 -7 9 -19q0 -8 -5 -15q-57 -75 -104 -132q-48 -57 -86 -95t-70 -58t-59 -19q-12 -1 -23 5t-21 15q-23 25 -29 75q-5 39 -5 85v29q-41 -34 -81 -68t-78 -62t-70 -48q-34 -21 -61 -31q-3 -2 -8 -2q-8 0 -15 5t-10 13q-1 4 -1 7q1 6 3 12q4 10 13 13q28 9 64 33 q37 24 77 56t84 68q44 37 85 74q0 4 1 9t1 10q1 13 1 23v17v23v28q-2 20 -4 34t-6 22t-8 10q-4 4 -8 2q-8 -2 -24 -16t-32 -34q-18 -20 -34 -41t-26 -35q-17 -20 -34 -42t-28 -32q-8 -8 -18 -8t-18 8t-8 18t8 18q3 4 10 12t15 16q9 10 17 20t14 21q51 67 88 107t69 39 q28 0 45 -18q19 -17 27 -53q6 -28 6 -75v-24v-11q57 50 97 85t70 57q29 22 48 32q17 9 30 9h3q12 0 24 -5t20 -15q15 -19 15 -46q0 -10 -2 -21t-10 -17t-18 -5q-12 2 -18 10t-4 19q4 16 2 21t-4 6q-1 2 -3 2h-4q-9 -2 -32 -18t-53 -42q-30 -24 -63 -54q-34 -30 -65 -58 l-18 -16t-19 -16q-1 -27 -1 -58q0 -8 -1 -15q-1 -23 1 -45q2 -28 7 -50t14 -33q2 -2 6 -2q21 0 53 25t69 65q37 41 77 91t79 101q9 9 19 11t18 -7z"/>
<glyph glyph-name="y" horiz-adv-x="466" unicode="y" d="M81 -126q9 13 19 26t18 26q-24 -10 -46 -20t-49 -20l-48 -21q-33 -11 -47 -33q-13 -19 -12 -30q0 -10 14 -16q12 -5 17 -5q33 0 67 24t67 69zM590 340q9 -9 9 -20q0 -10 -7 -17q-8 -9 -17 -19t-18 -18q-29 -32 -63 -68t-70 -72q-38 -36 -80 -69t-87 -58q-16 -10 -30 -17 t-28 -15q-19 -34 -37 -65t-38 -56q-44 -56 -88 -86t-89 -30q-25 0 -40 8t-24 17t-13 19t-5 15q-1 7 -1 14q0 27 20 55q24 34 70 54l50 21q44 19 80 35t78 37q17 31 33 65t32 69q-27 -28 -53 -53t-51 -44q-25 -18 -46 -30t-37 -13q-26 0 -39 10t-19 21q-9 15 -9 37q1 11 3 23 q6 37 28 85q22 47 54 105q34 58 74 122q18 30 32 55t22 39q4 8 14 12t19 -1q9 -3 13 -13t-1 -20q-7 -16 -21 -40t-35 -56q-13 -20 -31 -50t-36 -62t-36 -66t-30 -62t-17 -50q-2 -10 -2 -18q0 -9 3 -14q0 -2 6 -2t8 -1q14 0 45 24t69 61q38 36 78 80t76 85q14 28 29 55t31 50 q22 36 36 56t25 30t17 14q6 2 14 2q20 0 31 -18q3 -7 3 -15q0 -9 -6 -21t-20 -31t-39 -49l-3 -4q-2 -5 -22 -30t-51 -63q-19 -36 -37 -73l-36 -74l-20 -42t-19 -41q41 25 79 55t74 64q35 34 67 67q32 34 59 63q8 11 18 21t16 18q8 9 18 9t18 -6z"/>
<glyph glyph-name="z" horiz-adv-x="370" unicode="z" d="M-174 -219q38 0 84 23q46 24 90 60q46 36 88 81t74 88q-4 -3 -10 -5t-11 -5q-38 -17 -87 -39t-117 -58t-103 -70q-33 -32 -33 -57q1 -7 9 -13t16 -5zM79 184q19 0 39 7t42 19q-5 1 -18 1q-34 1 -54 -9t-24 -15q4 -3 15 -3zM484 339q9 -9 9 -19q0 -9 -7 -16l-27 -29 q-59 -63 -97 -101t-69 -64q-24 -22 -50 -37q-18 -35 -46 -75t-63 -78t-74 -72q-40 -34 -80 -61q-40 -25 -80 -41t-74 -16q-24 0 -38 8t-22 16q-8 10 -12 20t-4 17v7q0 26 14 50q16 26 40 48t54 42q30 18 58 32q67 36 116 59t88 40q53 21 84 41q12 28 12 53q0 16 -4 21 q-34 -23 -68 -37t-65 -14q-24 1 -38 7q-15 6 -21 15t-8 17t-1 12q0 13 9 27q9 13 26 25q18 12 42 19t54 7q43 0 73 -14q41 32 75 72t52 77q14 26 16 38t-1 15q-2 2 -7 6t-24 4q-36 -1 -78 -20q-42 -20 -81 -48q-40 -28 -76 -63t-61 -68q-6 -9 -17 -10t-19 4q-8 7 -10 17 t6 20q29 38 69 76t85 70t92 52t90 21q4 -1 14 -1t20 -3t21 -9q10 -6 18 -19q11 -16 11 -36v-10q-4 -26 -23 -61q-19 -38 -53 -80t-80 -77q14 -25 14 -52v-5t-1 -6q27 24 63 60t94 98l26 28q6 8 16 8t18 -7z"/>
<glyph glyph-name="braceleft" horiz-adv-x="437" unicode="{" d="M617 848q11 -2 15 -10q3 -5 2 -11q0 -4 -1 -8q-3 -11 -11 -15t-18 -2q-9 2 -18 2q-16 0 -32 -8q-24 -14 -45 -41t-41 -65t-40 -77q-18 -36 -38 -72q-20 -35 -40 -67q-22 -32 -46 -58t-53 -40q15 -23 16 -52v-6q1 -26 -7 -56q-8 -32 -24 -67q-15 -35 -31 -69 q-19 -42 -35 -78t-15 -59q0 -13 9 -19t30 -7q11 0 18 -7t7 -17t-7 -17t-18 -7q-48 -1 -68 19t-19 55q-1 33 17 73t38 85l28 62t22 59t8 50t-13 36q0 1 -1 2q-4 -2 -8 -2t-6 -2q-12 -3 -21 -3q-5 0 -10 1q-23 5 -28 24q-3 6 -3 13v3t1 3q0 1 1 2v2q4 10 7 13q12 17 33 17 q16 0 31 -9l6 -4t5 -3l6 3t8 2q24 12 45 35t41 53t36 62q18 34 35 68q23 46 47 90t52 75t60 45q18 8 39 9q16 0 34 -5z"/>
<glyph glyph-name="bar" horiz-adv-x="460" unicode="|" d="M270 814q11 0 19 -7.5t8 -18.5v-802q0 -11 -8 -18t-19 -7t-18.5 7t-7.5 18v802q0 11 7.5 18.5t18.5 7.5z"/>
<glyph glyph-name="braceright" horiz-adv-x="512" unicode="}" d="M50 -79q-10 3 -14 11q-3 6 -3 12q0 3 1 6q2 10 10 14t19 3q9 -2 18 -2q17 1 33 9q24 14 44 40q22 26 42 64t40 78q18 36 37 72t40 68t45 56q24 26 54 41q-15 23 -16 52v6q0 25 8 55q9 32 24 68q15 35 31 69q19 41 34 77t15 60q0 14 -8 20t-31 6q-11 0 -17 7t-7 17 q1 10 7 17t17 7q47 0 67 -20t20 -54q0 -32 -17 -72t-38 -86l-28 -62t-22 -59q-8 -29 -8 -51t13 -35l2 -2q6 2 14 4q18 5 30 2q10 -1 18 -7t11 -17q2 -4 2 -13q0 -4 -1 -6h1q-1 -1 -1 -2v-1l-1 -1q-4 -10 -7 -13q-12 -17 -32 -17q-17 0 -32 9q-2 1 -5 3l-6 4q-3 0 -6 -2 t-7 -3q-24 -12 -45 -35q-21 -22 -41 -52t-37 -64q-18 -34 -35 -67q-24 -47 -48 -91t-50 -74q-28 -32 -60 -46q-18 -8 -40 -8q-16 0 -34 5z"/>
<glyph glyph-name="asciitilde" horiz-adv-x="657" unicode="~" d="M603 326q3 -5 3 -11v-6q-2 -9 -11 -14q-45 -25 -78 -32q-22 -5 -40 -5q-9 0 -18 2q-25 4 -45 15q-20 12 -37 25q-13 10 -27 18t-32 10h-8q-15 0 -32 -5q-23 -7 -54 -27q-8 -5 -17 -3t-14 10q-4 6 -4 13q0 13 10 19q41 27 71 35q23 6 42 6q6 0 12 -1q24 -3 42 -14t37 -24 q14 -10 29 -19q14 -9 34 -12q6 -1 14 -1q14 0 32 4q26 6 61 26q9 5 17 2t13 -11z"/>
<glyph glyph-name="exclamdown" horiz-adv-x="380" unicode="" d="M534 763q16 1 20 -15q2 -5 1 -11q0 -11 -6 -25q-11 -22 -28 -38t-34 -15q-17 -1 -21 15q-2 5 -1 12q0 12 6 26q11 20 29 36t34 15zM51 27q1 10 13 33q14 26 38 61t54 77t61 82q41 54 75 101t47 70q25 45 37 67t18 32q6 12 10 22t16 31q4 9 14 13l8 2q6 0 12 -3 q10 -5 14 -15q1 -4 1 -8q0 -6 -3 -11q-11 -23 -15 -31t-10 -19q-5 -11 -17 -32t-37 -66q-1 -3 -2 -5l-2 -4q-31 -58 -63 -112t-61 -105q-27 -44 -53 -81q-26 -36 -48 -64t-41 -44t-34 -18h-7q-25 0 -25 27z"/>
<glyph glyph-name="cent" horiz-adv-x="634" unicode="" d="M96 108q6 -9 12.5 -17t15.5 -13q30 56 65.5 121t73 132.5t75.5 135t75 129.5q14 24 28.5 47t28.5 44q-42 -17 -83.5 -46.5t-81 -67.5t-74.5 -81t-63 -87q-59 -93 -72.5 -150t-13.5 -85q0 -37 14 -62zM662 694q6 -14 6 -29q0 -14 -8.5 -36t-37.5 -43q-8 -5 -19 -3.5 t-18 9.5q-6 9 -4 20t12 17q14 10 19 22.5t1 24.5q-5 18 -34 26q-31 -46 -66.5 -97.5t-71.5 -101.5q-24 -34 -46 -66t-40 -58.5t-31 -46t-18 -29.5q-1 -2 -3 -4q-37 -65 -69.5 -126t-61.5 -115q28 -5 57 -5q58 0 119.5 31t106.5 85q8 8 18.5 9t18.5 -5q8 -8 9 -19t-6 -19 q-26 -30 -57.5 -55t-66.5 -43t-71.5 -28t-70.5 -10q-26 0 -45 3.5t-36 8.5q-25 -45 -42.5 -81t-28.5 -56q-5 -10 -12 -12t-10 -2q-6 0 -11 3q-11 5 -13 12t-2 11q0 6 2 11q11 20 28.5 55t41.5 80q-20 11 -31 24.5t-19 25.5q-21 38 -21 89q0 29 13 91t81 171q33 53 78 106.5 t96.5 98t106.5 76t109 40.5q38 57 69.5 91t48.5 36q4 1 7 1q26 0 25 -28q0 -11 -14.5 -38t-39.5 -69q20 -9 33.5 -23.5t18.5 -29.5z"/>
<glyph glyph-name="sterling" horiz-adv-x="800" unicode="" d="M106 42q14 -2 27 0t26 7q-36 19 -63 29q-24 8 -37 8q-11 0 -18 -3t-9 -5q-2 -5 -1 -6q2 -8 19 -18t56 -12zM740 583q31 21 38 49q4 17 4 30q0 10 -2 19q-2 7 -10 19t-29 11q-27 1 -57 -27t-62 -72t-64 -100t-65 -113q-4 -12 -11 -21h120q13 0 20 -8t7 -19t-7 -19t-20 -7 h-149q-48 -81 -95 -152t-98 -119l44 -28t45 -27q39 -25 79 -49t76 -44t67 -34t55 -16q15 -2 28 -2q20 0 34 4q24 8 33 26q5 14 1 26t-9 17q-9 9 -11 19t5 20q7 8 17 10t19 -6q23 -18 31 -48q3 -11 3 -22q0 -18 -7 -36q-3 -8 -10 -19t-20 -21q-14 -10 -34 -16q-20 -7 -50 -7 q-17 0 -36 3q-29 4 -63 18t-72 34t-79 46q-41 25 -83 51q-29 17 -55 34t-53 32q-27 -17 -55 -25q-23 -7 -47 -7h-12q-48 6 -79 23t-41 43q-4 10 -4 20q-1 7 1 13q4 16 16 27q20 19 50 23q8 1 16 1q24 0 51 -7q22 -10 47 -22t53 -26q24 20 47 46q24 26 46 58t44 66 q22 36 42 73h-128q-11 -1 -18 7t-7 19t7 19t18 8h159q8 10 14 22t13 23q37 69 73 131q35 62 71 108t72 74t77 28q31 0 55 -18t33 -49q6 -17 6 -37q-1 -20 -7 -42t-20 -42t-37 -36q-8 -8 -19 -6t-16 11q-8 7 -6 19t10 19z"/>
<glyph glyph-name="yen" horiz-adv-x="611" unicode="" d="M764 750q5 -8 5 -16q1 -5 -1 -10q-4 -14 -12 -26q-9 -17 -27 -44q-17 -27 -43 -62t-57 -76t-66 -85q-19 -39 -37 -78t-35 -76t-32 -70t-27 -59q-30 -70 -54 -124t-40 -83q-17 -29 -40 -63t-53 -62t-67 -46t-83 -19q-11 -1 -18 7t-7 19t7 18t18 7q54 0 103 40t97 126 q14 26 38 80t53 121q13 29 26 57t24 57q-48 -55 -95 -105t-89 -86q-42 -37 -75 -59q-34 -22 -56 -22h-3q-29 -1 -43 9t-20 20q-9 15 -9 36v12q4 28 20 65t42 83t60 102h-101q-11 0 -19 8t-7 17q-1 11 7 18t19 7h132q11 20 22 39l22 38h-136q-11 0 -19 8t-8 19q0 10 8 18 t17 7h166q27 53 41 99q7 24 7 42q0 17 -6 29q-9 13 -25 19t-45 6q-11 0 -18 6t-7 19q0 9 7 17t18 8q85 0 114 -49q13 -25 13 -55q0 -16 -3 -32q-10 -50 -39 -109h78q10 1 18 -7t8 -18q0 -11 -7 -19t-18 -8h-104q-11 -17 -21 -37t-23 -40h109q11 0 19 -7t8 -18q0 -9 -8 -17 t-17 -8h-142q-2 -4 -6 -10t-6 -11q-20 -35 -44 -74t-42 -75t-28 -63q-6 -17 -6 -28q0 -7 2 -12q2 -2 8 -3t14 -1q20 0 64 36q44 35 98 93q56 58 118 129t118 141q72 152 124 226t94 76h3q7 0 13 -3q8 -4 12 -9z"/>
<glyph glyph-name="section" horiz-adv-x="604" unicode="" d="M418 444q-24 43 -42 85q-16 36 -15 75v13q-13 -5 -23 -9t-19 -12q-15 -10 -24 -24t-14 -28q-5 -16 -5 -32q0 -4 1 -10q1 -22 9 -44t19 -42q11 -21 23 -42q2 -6 6 -12t7 -14q20 -36 29 -72t9 -69q1 -11 -1 -23l-4 -24q2 2 4 2t5 1q23 15 41 33t27 41q13 29 13 63 q0 23 -6 47q-7 35 -29 74q-2 5 -5 11zM654 720q14 -18 22 -38t9 -43v-9t-1 -10q-2 -10 -10 -15t-16 -3q-8 0 -14 8t-5 16q1 2 1 6v7q0 14 -6 27t-14 23q-24 30 -62 30q-32 -1 -56 -7t-44 -16q-34 -20 -46 -54q-2 -2 -2 -4t-1 -3q-4 -15 -4 -30q0 -7 1 -13q2 -22 10 -42 q8 -21 18 -42q11 -21 23 -42q1 -4 5 -10t7 -14q13 -22 21 -43t13 -41q6 -28 6 -54q0 -10 -1 -19q-3 -35 -16 -66q-24 -61 -88 -95q-12 -8 -25 -12t-27 -9q-12 -21 -32 -39t-45 -33q-27 -15 -61 -23t-74 -8q-58 0 -93 19t-51 47q-15 25 -15 53v7q0 32 13 59q15 37 47 65 t74 30q8 1 16 -5t8 -15q1 -10 -5 -17t-17 -8q-27 -1 -49 -21t-33 -46q-9 -21 -9 -43q0 -9 2 -19t7 -19q11 -18 35 -30t70 -12q67 0 114 26q38 22 60 56v2t1 2l2 3l1 2q16 34 16 71q0 59 -32 120v1q-3 5 -7 11t-7 12q-14 25 -26 49t-20 50t-10 52v11q0 21 6 44q12 45 53 75 q33 25 83 34q8 21 24 39t38 31q24 12 54 20t68 8q26 0 52 -12t44 -32z"/>
<glyph glyph-name="copyright" horiz-adv-x="717" unicode="" d="M529 106q38 30 64.5 70t37.5 85q8 27 8 51q0 29 -8.5 53.5t-23.5 44.5q-29 41 -84 54q-23 6 -47 6q-45 0 -89 -17.5t-81 -46.5q-38 -30 -65 -70t-38 -85q-3 -14 -5 -26.5t-2 -25.5q0 -57 32 -97q29 -41 84 -54q22 -6 47 -6q45 0 89 17.5t81 46.5zM641 435 q18 -25 28.5 -56.5t10.5 -66.5q0 -27 -8 -61q-13 -52 -44 -97.5t-73 -79.5q-43 -34 -93 -53.5t-103 -19.5q-32 0 -57 7q-68 17 -107 68q-40 52 -40 123q0 15 2 30.5t5 31.5q14 52 44.5 97.5t73.5 79.5t93 53.5t103 19.5q30 0 56 -6q67 -18 109 -70zM500 390 q-10 0 -21.5 -4.5t-24.5 -11.5q6 -2 12.5 -3t12.5 -2q18 -1 27.5 2.5t11.5 8.5q2 2 1 5q-1 2 -5 4t-14 1zM528 259q6 7 14.5 7.5t14.5 -5.5q7 -6 7 -14.5t-5 -15.5l-20 -22q-19 -21 -39 -41.5t-41.5 -36.5t-43.5 -25.5t-46 -9.5q-38 0 -56.5 13t-26.5 27q-9 18 -9 41 q0 12 5 39.5t35 75.5q14 21 30.5 42t36.5 39q-9 13 -11 27q-2 9 3.5 15.5t14.5 7.5q9 2 15 -4t8 -14q0 -4 2 -6q20 14 41 22.5t41 9.5h8q34 0 49 -25q6 -11 6 -22q0 -12 -7 -25q-10 -17 -28.5 -24t-38.5 -7h-10q-16 1 -32 5.5t-30 12.5q-17 -16 -33 -35t-30 -41 q-23 -36 -29 -59t-6 -34q0 -13 5 -21q10 -18 47 -18q32 0 64.5 26t74.5 73z"/>
<glyph glyph-name="guillemotleft" horiz-adv-x="551" unicode="" d="M498 414q4 -6 4 -14v-6q-2 -11 -13 -17l-184 -122l114 -91q8 -7 9 -18t-5 -19q-9 -9 -19 -10h-2q-9 0 -16 5l-144 114q-9 8 -10 18t5 20q3 3 11 7l212 140q7 5 15 5q3 0 5 -1q11 -2 18 -11zM319 414q4 -6 4 -14q-1 -3 -1 -6q-2 -11 -12 -17l-184 -122l114 -91q8 -7 9 -18 t-5 -19q-8 -9 -18 -10h-3q-9 0 -16 5l-144 114q-10 8 -10 20q0 9 5 18q3 3 11 7l212 140q7 5 15 5q3 0 5 -1q11 -2 18 -11z"/>
<glyph glyph-name="registered" horiz-adv-x="751" unicode="" d="M520 104q38 30 65 70t38 86q3 14 5 27t2 25q0 58 -31 98q-15 20 -37 34t-48 21q-23 6 -48 6q-45 1 -89 -17t-82 -48q-37 -30 -65 -70t-39 -86q-3 -14 -5 -27t-2 -25q0 -58 32 -98q31 -42 85 -54q21 -6 48 -6q45 0 89 18t82 46zM632 436q39 -51 39 -124q1 -14 -1 -30 t-6 -32q-14 -52 -45 -98t-73 -81q-43 -33 -94 -53t-103 -20q-33 0 -58 7q-35 8 -62 26t-46 43q-21 26 -31 57t-10 67q0 28 8 62q14 52 44 98t74 81q44 34 94 54t104 20q16 0 30 -2t27 -5q33 -8 61 -26t48 -44zM268 146h1q14 0 31 20q18 22 37 53q-16 10 -16 22q-1 13 5 19 t17 9q5 1 9 1h8h6q6 8 10 17t9 17l11 22t14 26q-34 -23 -66 -60t-54 -73q-8 -13 -14 -25t-8 -23q-4 -9 -4 -15v-10h4zM503 363q-3 5 -7 7l-10 5q-4 1 -13 1h-3q-12 -24 -26 -50t-22 -43q-4 -5 -7 -11l-6 -12q31 7 54 18q17 8 29 21t17 32q1 3 1 10q0 14 -7 22zM541 256 q5 7 13 8t16 -4q9 -5 9 -15q0 -8 -5 -15l-4 -4t-3 -6q-9 -12 -23 -32t-31 -39q-16 -19 -31 -33t-25 -13h-4q-13 1 -21 5q-10 6 -16 15q-6 11 -10 23t-9 26q-3 12 -7 22t-8 18q-13 -21 -27 -41q-15 -20 -29 -35q-14 -16 -29 -24t-30 -8q-33 1 -42 29q-3 8 -3 19q0 14 5 32 q5 14 11 28t16 29q16 25 38 53t46 52t50 41q26 18 53 26l8 17q5 8 13 11q3 1 6 1l10 -3q13 -8 11 -22q2 -1 4 -1t4 -1q26 -8 40 -28q16 -21 16 -46q0 -5 -1 -11t-3 -11q-7 -27 -25 -46t-42 -32q-14 -9 -28 -13t-29 -7q5 -9 7 -19t6 -18l9 -27t9 -12q3 -1 12 11l21 28 q11 16 23 32t20 28q4 6 6 8t3 4z"/>
<glyph glyph-name="degree" horiz-adv-x="331" unicode="" d="M146 549q-7 -15 -7 -29q0 -10 2 -13q2 -2 3 -2l2 -1q14 0 33 17q9 8 17 20t14 26q7 14 7 29q0 9 -2 12t-3 3h-3q-13 0 -32 -16q-20 -19 -31 -46zM126 461q-17 6 -27 24q-8 13 -8 35q0 20 11 47q6 18 18 34t26 29q14 12 30 20t33 8q12 0 21 -3q4 -2 8 -5q6 -4 10 -9t9 -10 q3 -9 5 -17t2 -18q0 -23 -10 -47q-16 -38 -44 -63q-15 -14 -31 -22t-33 -7q-12 0 -20 4z"/>
<glyph glyph-name="plusminus" horiz-adv-x="608" unicode="" d="M394 155q10 1 18 -7t8 -19q0 -10 -8 -17t-16 -7h-106h-54h-151q-10 1 -17 7t-7 17t7 18t17 8h163h62h84zM512 394q10 0 18 -7t8 -18q0 -10 -8 -17t-16 -7h-204q-9 -26 -16 -50q-8 -23 -12 -43t-6 -32t-2 -13q-2 -11 -10 -17q-6 -4 -14 -4q-3 0 -5 1q-10 3 -16 11t-4 18 l4 20t3 11q2 5 4 19q4 14 11 46q3 2 5 15t4 18h-151q-10 1 -17 7t-7 17t7 17t17 8h163q5 22 11 44t14 43q9 31 15 51t13 31q6 11 13 17t17 12q9 5 16 5q13 0 21 -15q4 -8 3 -19t-6 -27t-14 -40t-22 -57q-5 -11 -9 -23t-10 -22h182z"/>
<glyph glyph-name="guillemotright" horiz-adv-x="599" unicode="" d="M109 128q-4 6 -4 14q1 2 1 6q2 12 11 17l185 123l-114 90q-8 6 -10 18t6 20q7 9 18 10h3q9 0 16 -6l143 -114q8 -8 10 -18t-5 -19q-2 -1 -5 -3t-5 -4l-213 -140q-7 -5 -16 -5q-2 1 -4 1q-11 2 -17 10zM288 128q-4 6 -4 14v6q2 12 12 17l185 123l-114 90q-7 6 -9 18t5 20 q7 9 18 10h3q9 0 16 -6l143 -114q11 -8 11 -21q0 -8 -6 -16q-2 -1 -5 -3t-5 -4l-213 -140q-7 -5 -16 -5q-2 1 -4 1q-11 2 -17 10z"/>
<glyph glyph-name="questiondown" horiz-adv-x="484" unicode="" d="M128 39q-16 17 -22 37t-6 42v1v5q2 49 24 90t56 77q34 35 76 67t84 62q14 11 29 22t29 22q16 12 28 22t28 30q14 18 24 34q7 13 8 23q0 4 -1 7l-1 2l-1 1q-4 3 -14 4q-7 1 -16 -2q-8 -1 -16 -9q-9 -8 -21 -6t-18 12q-8 9 -6 20t11 18q9 6 17 11t18 7q12 4 25 4q6 0 13 -1 q25 -3 40 -15q19 -13 22 -36q2 -10 2 -20q0 -19 -8 -37q-13 -28 -36 -54q-10 -11 -18 -19l-16 -16q-8 -6 -14 -12q-7 -6 -16 -12q-14 -11 -30 -22t-31 -23q-38 -27 -76 -56q-39 -29 -69 -59t-50 -65q-20 -34 -21 -72v-5q0 -28 14 -42q15 -19 50 -20h6q22 0 42 10t37 24 q22 20 36 42t16 38q1 12 10 19t20 6q12 -3 19 -11t5 -20q-2 -24 -21 -56t-49 -59q-24 -20 -53 -34t-62 -14h-8q-60 3 -89 38zM570 761q16 0 20 -15q2 -5 1 -11q0 -11 -6 -25q-11 -22 -28 -37t-34 -15t-21 15q-2 5 -1 11q0 12 6 26q11 21 29 36t34 15z"/>
<glyph glyph-name="Agrave" horiz-adv-x="665" unicode="" d="M806 793q8 -9 8 -19t-8 -18t-18 -8t-18 8l-77 77q-8 9 -8 19t8 18q9 8 19 8t18 -8zM447 302q20 -9 38 -17t36 -15q10 20 21 40t23 44q24 44 53 100t53 107q24 52 37 92q8 25 8 40q0 9 -3 14q-1 2 -4 2h-4q-39 0 -84 -33q-45 -34 -91 -86t-94 -117q-47 -65 -90 -129 l52 -20t49 -22zM33 51q18 -1 44 23q27 24 57 62t64 84q34 47 65 94q-11 2 -21 3t-19 1q-46 0 -86 -25t-73 -89q-26 -52 -38 -94q-7 -26 -7 -40q0 -10 3 -16q1 -1 3 -2t8 -1zM744 335q6 9 17 11t19 -6q10 -9 10 -21q0 -8 -6 -15l-17 -23q-62 -79 -108 -133t-80 -87 q-33 -33 -57 -47t-42 -14t-28 8t-12 13q-8 13 -8 32q0 17 7 39q14 46 58 131q-17 7 -35 15l-36 16q-28 13 -56 25t-54 20q-46 -67 -86 -123t-74 -95t-66 -61q-30 -22 -57 -21q-36 0 -55 29q-10 17 -10 41v9q2 30 12 59q8 29 20 54t18 36q28 54 60 85q32 30 68 44 q34 13 70 14h2q38 0 76 -11q50 75 102 147t104 130q52 56 104 90t101 35q23 0 35 -9t18 -18q9 -16 9 -39q0 -9 -1 -19q-5 -36 -25 -86q-19 -50 -53 -116q-34 -65 -77 -145q-19 -36 -41 -78t-42 -81q-20 -38 -32 -70t-12 -47q8 3 23 13t43 38t70 78t106 131z"/>
<glyph glyph-name="Aacute" horiz-adv-x="659" unicode="" d="M829 862q1 -4 1 -8q0 -6 -2 -12q-4 -10 -16 -13l-103 -34q-3 -1 -8 -1q-18 0 -25 18q-2 10 2 20t15 13l103 34q4 1 8 1q6 0 12 -2q9 -4 13 -16zM450 302l36 -16l36 -16q11 20 22 42t24 44q24 44 53 100t53 107q24 52 37 92q8 25 8 40q0 9 -3 14q-1 2 -4 2h-4 q-39 1 -84 -33t-92 -86t-94 -118t-91 -130q26 -9 52 -20t51 -22zM37 51q18 -1 44 23t56 62q31 38 63 84l64 94q-19 4 -41 4q-45 0 -85 -25t-74 -89q-13 -26 -22 -50q-10 -24 -14 -44t-4 -34t3 -21q1 -2 3 -3t7 -1zM747 336q6 8 17 10t19 -6q10 -10 10 -22q0 -8 -6 -15 q-9 -11 -24 -30q-62 -79 -107 -131t-78 -84q-34 -32 -56 -46t-40 -13q-18 -1 -28 7t-13 14q-8 13 -8 31q-1 19 7 41q14 46 58 132q-16 6 -34 14t-36 17l-56 24t-55 21q-47 -68 -86 -124t-73 -94q-34 -40 -64 -62t-57 -21q-37 0 -54 28q-11 19 -11 44v7q2 30 10 58 q8 29 18 54t17 37q28 54 61 85q32 31 68 45q34 14 71 14q1 -1 3 -1q38 0 75 -9q51 75 103 147t104 130q52 56 104 90t102 35q24 -1 36 -9t17 -18q9 -16 9 -39q0 -9 -1 -19q-5 -36 -25 -86t-54 -116q-33 -65 -76 -144q-20 -36 -42 -79t-42 -83t-32 -71q-12 -32 -12 -47 q8 2 24 14t43 40t68 75q41 48 101 124q8 10 14 18t11 13z"/>
<glyph glyph-name="Acircumflex" horiz-adv-x="657" unicode="" d="M818 873q12 -10 10 -22l-6 -88q-1 -10 -8 -17t-17 -7h-2q-11 1 -18.5 9t-6.5 19l4 48l-66 -22q-11 -3 -20.5 1.5t-12.5 15.5q-4 10 0.5 19.5t15.5 13.5l103 34q4 2 9 2zM450 301q19 -8 37.5 -15.5t35.5 -15.5q11 20 22 41t23 44q24 44 53 99.5t53 107.5t34.5 84.5 t10.5 47.5q0 9 -3 14q-1 1 -4.5 1h-4.5q-39 0 -83.5 -33t-91.5 -85.5t-94 -117.5t-90 -129q26 -10 51.5 -21t50.5 -22zM38 51q18 0 44 23.5t56 61t62.5 84.5t64.5 94q-21 3 -40 3q-46 0 -86 -25t-73 -89q-13 -25 -22 -48.5t-14 -43.5t-5.5 -35t3.5 -21q1 -1 3 -2.5t7 -1.5z M746 335q6 9 17 10.5t19 -6.5q10 -7 10 -20q0 -8 -6 -16l-18 -22q-62 -80 -107.5 -134t-79 -87t-57 -47t-41.5 -14t-27.5 8t-12.5 14q-8 12 -8 31q0 17 10.5 51.5t53.5 120.5q-17 7 -34.5 14.5t-36.5 15.5q-28 13 -55.5 24.5t-53.5 21.5q-47 -68 -86 -123.5t-73.5 -95 t-64.5 -61t-57 -21.5q-36 0 -55 29q-10 18 -10 42q0 4 1 21t9.5 46t19.5 54t17 37q28 53 60.5 84t67 44.5t70.5 13.5q1 0 20.5 -0.5t57.5 -9.5q51 75 102.5 147t103.5 129t103.5 91.5t101.5 34.5q23 0 35.5 -9t18.5 -19q9 -15 9 -38q0 -9 -3.5 -32.5t-23.5 -73.5t-53 -115 t-76 -145q-20 -36 -42 -78t-41 -81.5t-31.5 -71.5t-12.5 -47q8 3 22.5 13.5t42 38.5t70 78t106.5 131z"/>
<glyph glyph-name="Atilde" horiz-adv-x="656" unicode="" d="M835 824q5 -6 5 -14q0 -13 -10 -22q-35 -26 -62 -26q-17 0 -30 9q-11 8 -17.5 18.5t-11.5 19.5q-2 4 -5 8.5t-5 6.5q-2 -1 -12 -4t-23 -12q-9 -5 -19.5 -3t-16.5 11t-3.5 19.5t10.5 16.5q25 16 43 19.5t24 3.5q23 0 34.5 -14.5t17.5 -27.5q3 -5 6.5 -11t6.5 -8q1 0 8.5 2 t23.5 13q9 7 19 5.5t17 -10.5zM443 302q19 -9 37 -16.5t36 -15.5q10 20 21 41t24 44q16 29 34.5 64.5t36.5 71.5t34.5 71t27.5 64.5t14 45t3 22.5q0 9 -3 14q-1 2 -4 2h-4q-39 0 -83.5 -33t-91.5 -85.5t-94 -117.5t-90 -129q26 -10 51.5 -21t50.5 -22zM30 52q18 0 43.5 23.5 t56 61t63.5 84t65 93.5q-11 2 -20.5 3t-19.5 1q-46 0 -86.5 -25t-73.5 -89q-13 -25 -22 -49t-13.5 -44t-5.5 -35t3 -21q1 -1 2.5 -2t7.5 -1zM739 335q7 9 17.5 10t19.5 -7t9 -21q0 -9 -6 -15q-5 -5 -10.5 -12.5t-12.5 -16.5q-62 -79 -107 -131.5t-77.5 -84t-55.5 -44.5 t-41 -13t-27.5 7.5t-12.5 13.5q-7 13 -7 31t10 52.5t54 119.5q-17 7 -35 15t-35 16q-29 12 -56.5 24t-54.5 21q-47 -68 -86 -123.5t-73.5 -94.5t-64.5 -60.5t-57 -21.5q-36 0 -55 28q-10 17 -10 41q0 4 1 21t9.5 46.5t19.5 54.5t17 36q28 54 60.5 85t67.5 45t71 14 q1 0 20.5 -0.5t57.5 -9.5q51 75 102.5 147t103.5 128.5t103.5 91t101.5 34.5q23 0 35.5 -8.5t17.5 -18.5q9 -16 9 -39q0 -9 -3 -32t-23 -73.5t-53 -115.5t-76 -144q-20 -36 -42 -78.5t-41.5 -81.5t-32 -71t-12.5 -47q9 3 24.5 14t42.5 38.5t67.5 75t100.5 123.5q17 22 25 31 z"/>
<glyph glyph-name="Adieresis" horiz-adv-x="660" unicode="" d="M812 837q11 -11 11 -26q0 -17 -11 -28q-9 -11 -24 -11t-26 11v1q-4 5 -7 12t-3 15q0 7 3 14t7 12q10 12 26 12q15 0 24 -12zM701 814q-15 0 -26 11q-10 12 -10 27t10 28q5 5 11.5 8t14.5 3q6 0 12.5 -3t11.5 -8q10 -13 10 -28t-10 -27q-11 -11 -24 -11zM442 302 q20 -9 38 -17t36 -15q19 39 45 84q16 30 34.5 65t37 71.5t35 71.5t27.5 64.5t14 45t3 22.5q0 9 -3 15q-1 2 -4 2h-4q-39 0 -84 -33.5t-92 -86t-94 -118t-90 -129.5q26 -9 51.5 -20t49.5 -22zM30 51q18 0 44 23.5t56 61t62.5 84.5t64.5 94q-21 3 -40 3q-46 0 -86 -24.5 t-73 -88.5q-13 -25 -22 -49t-14 -44t-5.5 -35t3.5 -21l2.5 -2.5t7.5 -1.5zM740 336q7 8 17.5 9.5t19.5 -5.5t9 -20q0 -9 -5 -16l-17 -22q-63 -80 -109 -134t-80 -87t-58.5 -47.5t-42.5 -14.5q-17 0 -26.5 7.5t-13.5 13.5q-7 12 -7 30t10.5 53t54.5 121q-17 7 -35 14.5 t-36 16.5q-29 12 -56.5 24t-53.5 21q-47 -69 -86 -124.5t-73.5 -94.5t-64.5 -60.5t-57 -21.5q-36 0 -55 29q-11 19 -11 44q0 3 1 19.5t9.5 45.5t19.5 54t17 36q28 54 60.5 85t67.5 44.5t71 13.5q1 0 20.5 -0.5t57.5 -9.5q51 75 103 147.5t104 129.5t103.5 91.5t102.5 34.5 q23 0 35.5 -9t17.5 -18q9 -16 9 -39q0 -9 -3 -32.5t-23.5 -74t-53.5 -115.5t-76 -145q-19 -36 -41.5 -78.5t-41.5 -81.5t-32 -71t-13 -47q8 3 23 13.5t43 38.5t71 78t107 132z"/>
<glyph glyph-name="Aring" horiz-adv-x="638" unicode="" d="M760 803q10 -1 18 7t7 19q1 11 -7 18t-18 7q-8 0 -16 -7t-8 -18t8 -19t16 -7zM760 885q23 -1 39 -17t16 -39t-16 -40t-39 -17q-22 0 -38 17t-16 40t16 39t38 17zM443 302q20 -9 38 -17t35 -15l22 40t23 44q23 44 53 100t54 107q24 52 37 92q8 25 8 40q0 9 -3 14 q-2 2 -5 2h-4q-39 0 -84 -33q-45 -34 -91 -86t-94 -117q-47 -65 -90 -129q26 -9 52 -20t49 -22zM33 51q17 -1 43 23t56 62t62 84t64 93q-10 2 -20 3t-20 1q-45 -1 -85 -25t-73 -89q-26 -51 -36 -93q-6 -24 -6 -38q0 -12 4 -18q1 -1 3 -2t8 -1zM740 335q6 9 17 10t19 -6 q10 -7 10 -21q0 -9 -6 -15l-17 -22q-62 -80 -108 -134t-80 -87t-58 -47t-42 -14q-17 0 -27 8t-13 13q-7 12 -7 30t7 42q14 46 58 132q-17 6 -35 14l-36 16q-28 13 -56 25t-54 21q-46 -68 -86 -124t-73 -94q-33 -40 -63 -62t-57 -21q-37 0 -55 29q-12 19 -12 44v6q2 28 10 58 t20 54q11 24 17 37q29 55 61 85t68 44q33 13 68 13h4q38 -1 76 -10q50 75 102 147t104 130t103 92t102 34q23 0 35 -9t18 -19q9 -16 9 -39q0 -9 -1 -19q-5 -36 -25 -86q-19 -50 -53 -116q-34 -65 -77 -145q-19 -36 -41 -78t-42 -81q-19 -39 -32 -71t-13 -47q9 4 24 14t43 38 t70 77q42 50 106 131z"/>
<glyph glyph-name="AE" horiz-adv-x="1180" unicode="" d="M447 301q19 -7 37 -15t36 -15q11 19 22 41t23 44q16 28 35 64t37 72q19 36 35 71t27 65t15 50q2 9 2 17q0 9 -3 14q-1 2 -4 2h-4q-39 1 -84 -33t-91 -86t-94 -118q-47 -66 -91 -130q26 -8 52 -20t50 -23zM32 51q18 -1 44 23t56 62t64 84q34 47 66 94q-10 2 -20 3t-20 1 q-46 0 -86 -25t-74 -89q-13 -26 -22 -50q-8 -24 -14 -44t-7 -34t3 -21q2 -4 10 -4zM1174 712q-46 0 -82 -21t-62 -52q22 -11 48 -17t51 -8h15q32 0 55 7q29 9 42 28q6 9 6 18q0 8 -4 16q-18 29 -69 29zM1075 470q-29 0 -56 -6q18 -9 46 -9q21 0 29 4t10 6q-2 -1 -8 2t-21 3z M1294 340q10 -10 10 -23q0 -8 -5 -14q-126 -158 -231 -231t-193 -73q-91 -1 -143 41t-51 117q1 5 1 10v10q-40 -48 -72 -82t-56 -55t-42 -31t-32 -10q-18 0 -28 8t-13 13q-7 12 -7 30t7 42q14 46 57 132q-16 6 -34 14l-36 16q-28 13 -56 25t-55 21q-47 -68 -87 -124t-74 -94 t-64 -60t-58 -22q-18 0 -32 7t-22 21q-10 17 -10 41v9q2 30 10 58q8 29 20 54t18 37q28 54 60 85q32 30 68 44q34 13 71 14h3q38 0 75 -10q51 76 103 148t104 128t104 92q52 34 101 34q23 0 35 -9t18 -18q9 -16 9 -39q0 -9 -1 -19q-5 -36 -25 -86t-53 -115t-76 -145 q-20 -37 -42 -79t-42 -82q-19 -40 -32 -71q-13 -32 -13 -47q9 2 26 16t47 44t72 81q42 50 102 126q8 9 14 17t11 13q4 6 8 7q16 21 35 41q32 31 67 55t73 40q-2 10 -3 18t-1 18q0 46 24 94q-24 20 -40 44t-19 50q-1 12 5 20t18 9q11 1 19 -5t10 -18q3 -31 35 -55 q31 41 78 69t110 28q40 0 70 -14t44 -42q11 -19 11 -41q0 -25 -14 -46q-21 -31 -63 -47q-31 -12 -70 -12q-13 0 -26 1q-32 2 -64 10t-60 22q-8 -17 -12 -35t-4 -32v-9t1 -9q43 12 88 12q41 0 61 -18t20 -40q0 -28 -28 -47q-24 -15 -63 -15q-64 0 -99 37q-3 3 -5 7 q-49 -22 -91 -56t-72 -74t-48 -82q-17 -42 -17 -77q0 -48 30 -75q35 -31 112 -31q75 0 171 69t212 215q8 8 18 10t18 -5z"/>
<glyph glyph-name="Ccedilla" horiz-adv-x="489" unicode="" d="M495 709q-39 -2 -79 -20t-81 -47q48 -26 110 -31q10 -1 18 -1q19 0 34 4q21 4 35 10t20 14q7 7 9 11q6 10 6 20q0 8 -5 15q-8 13 -26 20q-14 5 -31 5h-10zM617 355q9 -9 9 -21q0 -9 -7 -16l-17 -19q-8 -10 -16 -19l-16 -18q-50 -54 -94 -98t-87 -78t-85 -56t-83 -28 l-43 -53q44 -3 60 -26q4 -7 8 -21q1 -3 1 -6q0 -11 -8 -27q-9 -19 -29 -37t-47 -33t-55 -25t-55 -9q-11 -1 -19 7t-7 19q-1 11 7 19t19 7q22 0 45 9t43 21t34 25t18 22q-5 2 -21 3h-6q-15 0 -41 -3h-5q-13 0 -22 12q-3 7 -3 13q0 9 6 17l51 64q-34 4 -59 12t-43 20t-30 24 q-12 13 -19 26q-21 38 -21 89q0 29 7 63q19 92 88 201q33 54 77 107t97 98q-15 17 -25 35t-11 39q-1 11 5 19t18 9q11 2 19 -5t10 -18q3 -25 25 -45q50 38 101 62t102 25h10q33 0 59 -11q30 -13 45 -39q13 -19 13 -42q0 -25 -15 -47q-20 -34 -63 -50q-35 -13 -78 -14 q-11 0 -22 1q-40 3 -80 15t-72 33q-50 -42 -94 -94t-77 -106q-29 -47 -49 -91t-29 -82q-8 -35 -8 -65v-6q1 -32 14 -55q30 -57 133 -57q41 0 82 17q42 18 84 50t88 78t97 102l16 18l16 18l17 19q8 8 18 9t19 -7z"/>
<glyph glyph-name="Egrave" horiz-adv-x="468" unicode="" d="M456 857q-8 9 -8 19t9 18t19 8t18 -8l76 -79q8 -9 8 -19t-8 -17q-8 -8 -18 -8q-11 0 -19 8zM461 712q-47 0 -83 -21t-60 -52q22 -10 48 -16t51 -8q10 -1 20 -1q27 0 49 6q30 8 43 29q6 9 6 18q0 8 -5 16q-7 13 -25 21t-44 8zM362 471q-14 0 -28 -2t-28 -5q19 -9 47 -9 q21 0 29 4t10 6q-2 -1 -8 3t-22 3zM583 341q11 -10 11 -22q0 -8 -6 -15q-125 -158 -230 -231t-194 -73q-92 0 -144 42t-51 116q0 46 20 95q21 49 55 94t80 83t101 62q-3 16 -3 35q0 23 6 47t18 49q-24 19 -40 43t-19 51q-2 11 5 19t18 9t19 -6t9 -18q3 -27 35 -54 q32 42 79 69t109 27q41 -1 71 -15t44 -40q11 -20 11 -42q0 -24 -15 -44q-20 -32 -61 -48q-33 -12 -75 -12q-11 0 -22 1q-32 3 -64 11t-60 22q-16 -35 -16 -69v-8t1 -9q43 12 87 12q42 0 62 -18t19 -40q0 -29 -28 -46q-23 -15 -62 -15q-65 0 -99 37l-6 6q-48 -21 -90 -55 t-72 -74t-48 -82q-17 -42 -17 -77q0 -34 13 -54t34 -32q20 -12 46 -16t50 -4q76 0 172 69t211 215q7 8 17 10t19 -5z"/>
<glyph glyph-name="Eacute" horiz-adv-x="473" unicode="" d="M412 792q-17 0 -24 18q-4 10 1 19.5t15 13.5l103 34q4 1 9 1q6 0 13.5 -3.5t10.5 -14.5q3 -10 -1.5 -19.5t-15.5 -12.5l-102 -35q-3 -1 -9 -1zM464 711q-47 0 -83 -21t-60 -51q44 -22 98 -25q10 -1 20 -1q29 0 54.5 8t37.5 28q6 9 6 18q0 7 -4 15q-8 14 -26 21.5t-43 7.5 zM366 470q-15 0 -29 -2l-28 -4q20 -10 46 -10q21 0 30 4.5t10 6.5q-1 -1 -7.5 2t-21.5 3zM603 361q10 -9 10 -21q0 -8 -6 -15q-125 -158 -238.5 -241.5t-202.5 -83.5q-91 0 -142.5 41.5t-51.5 115.5q0 46 20 95t54.5 94.5t81.5 83.5t101 62q-5 18 -5 35q0 23 6.5 47t17.5 48 q-24 19 -39.5 42.5t-18.5 50.5q-1 11 5.5 19.5t17.5 9.5t19 -5.5t10 -17.5q3 -29 34 -55q31 42 78.5 69.5t109.5 27.5q40 0 70 -14.5t45 -41.5q10 -18 10 -39q0 -25 -14 -47q-20 -32 -58 -45.5t-83 -13.5h-18q-32 2 -63 10t-60 22q-17 -34 -17 -67q0 -4 0.5 -8.5t1.5 -9.5 q21 6 43 9.5t45 3.5q42 0 61 -18.5t19 -39.5q0 -30 -28 -47q-12 -7 -27.5 -11t-35.5 -4q-63 0 -98 37q-5 5 -6 7q-49 -21 -90.5 -55.5t-72 -74.5t-47.5 -81.5t-17 -77.5q0 -47 30 -74q35 -31 112 -31q37 0 83 20.5t97 59.5t106.5 95.5t113.5 129.5q7 8 17.5 9.5t19.5 -5.5z "/>
<glyph glyph-name="Ecircumflex" horiz-adv-x="473" unicode="" d="M620 871q10 -10 9 -23l-7 -87q-1 -11 -8 -17t-17 -6h-2q-11 1 -18 8.5t-6 18.5l3 49l-66 -23q-11 -3 -20 1.5t-13 15.5q-3 10 2 19.5t15 13.5l103 34q4 1 9 1q8 0 16 -5zM465 709q-47 0 -83 -20.5t-61 -51.5q22 -10 47 -16.5t51 -8.5h15q31 0 58 7.5t38 27.5q6 9 6 19 q0 8 -4 15q-7 13 -25 20.5t-42 7.5zM367 469q-15 0 -29 -2l-28 -4q10 -5 21 -7.5t25 -2.5q21 0 29.5 4t9.5 6q-1 -1 -7 2.5t-21 3.5zM567 356q6 9 17 10.5t19 -6.5q10 -9 10 -20q0 -8 -6 -16q-125 -158 -238 -241t-202 -83q-91 0 -142.5 41.5t-51.5 115.5q0 46 20 95 t54.5 94t81.5 83t101 62q-5 17 -5 35q0 47 24 94q-25 20 -40.5 43t-17.5 51q-2 11 5 19t18 9t19 -6t10 -18q1 -14 10 -27.5t24 -25.5q31 41 78 68.5t110 27.5q39 0 68.5 -15t44.5 -41q11 -19 11 -41q0 -24 -15 -45q-20 -32 -56.5 -45.5t-78.5 -13.5q-11 0 -23 1 q-32 2 -63 10t-60 22q-16 -37 -16 -67q0 -4 0.5 -8.5t1.5 -9.5q42 12 88 12q41 0 60.5 -18t19.5 -40q0 -29 -29 -46q-11 -7 -27 -11t-35 -4q-62 0 -99 37q-4 4 -5 6q-68 -28 -125 -85q-48 -48 -75 -101.5t-27 -100.5q0 -33 13 -53.5t33.5 -32t46 -15.5t49.5 -4q37 0 83 20.5 t97 59.5t106.5 95.5t113.5 128.5z"/>
<glyph glyph-name="Edieresis" horiz-adv-x="473" unicode="" d="M552 773q-10 13 -10 27t10 27q12 12 26 12q12 0 24 -12q10 -12 10 -27q0 -16 -10 -28q-12 -12 -24 -12q-14 0 -26 12v1zM490 802q-15 0 -25 12t-10 27q0 17 10 27q12 12 25 12t25 -12q10 -10 10 -27q0 -15 -10 -27q-11 -12 -25 -12zM460 711q-47 -1 -83 -21t-61 -51 q45 -22 99 -25q10 -1 20 -1q29 0 51 7q30 9 41 28q6 9 6 19q0 8 -4 15q-8 14 -26 22t-43 7zM361 470q-15 0 -29 -2l-28 -4q19 -10 47 -10q21 0 29 4t10 7q-2 -3 -8 1t-21 4zM562 356q8 8 18 10t19 -5q10 -9 10 -21q0 -8 -6 -15q-125 -159 -239 -243t-202 -83q-92 -1 -144 41 t-51 116q0 46 20 96q21 50 55 94q34 46 81 84t101 61q-2 7 -3 17t-1 19q0 47 24 95q-25 18 -41 42t-18 52q-2 11 5 19t18 9q11 0 19 -6t9 -17q2 -14 12 -28t24 -26q30 41 78 69t110 27q40 -1 70 -15t44 -41q10 -18 10 -40q0 -26 -14 -47q-20 -30 -61 -46q-33 -12 -75 -13 q-11 0 -22 1q-32 2 -64 10t-60 23q-16 -37 -16 -68v-9t2 -9q20 5 42 9t45 4q41 0 61 -19t20 -40q0 -28 -29 -46q-24 -15 -62 -15q-39 0 -63 12t-36 25l-6 6q-48 -21 -90 -55t-72 -74t-48 -82q-17 -42 -17 -78q0 -34 13 -54t34 -32q20 -12 46 -15q26 -4 50 -4q38 1 84 21 t96 59q52 39 108 95t112 130z"/>
<glyph glyph-name="Igrave" horiz-adv-x="445" unicode="" d="M681 836q8 -8 8 -18t-8 -18q-7 -8 -18 -8q-9 0 -19 8l-76 77q-8 8 -8 18.5t8 18.5t18.5 8t18.5 -8zM57 51q35 0 66 17t60 46h-13h-25q-18 0 -39.5 -1t-46.5 -12q-23 -11 -30 -28q-2 -6 -1 -9q0 -5 3 -6q9 -7 26 -7zM638 761q17 -2 22.5 -10t5.5 -17q0 -3 -1 -7 q-2 -8 -10 -18t-18.5 -19.5t-20 -16.5t-13.5 -10q-1 0 -1 -1q-14 -11 -33 -20.5t-42 -19.5q-24 -39 -48.5 -89t-50.5 -105q-31 -65 -63 -130t-69 -122q25 6 51 16t53 28t56.5 46t63.5 70q7 8 17.5 9.5t19.5 -5.5q8 -7 9.5 -17.5t-5.5 -18.5q-47 -59 -88.5 -94.5t-79 -55.5 t-72 -27.5t-67.5 -10.5q-42 -53 -90.5 -85t-106.5 -32q-20 0 -35.5 6t-26.5 16q-15 13 -18 34q-1 6 -1 12q0 13 5 27q6 15 20 29t37 25q32 15 59.5 16.5t50.5 1.5h23q14 0 28 -0.5t28 0.5q43 59 81 133.5t73 149.5q18 39 35.5 75.5t36.5 69.5q-43 -14 -87 -26.5t-85 -23.5 q-50 -14 -88 -25t-52 -19q-28 -16 -42.5 -36.5t-16.5 -41.5v-9q0 -14 4 -25q4 -7 9 -13.5t13 -11.5q17 -12 33.5 -13t19.5 -1q27 0 64 12q10 4 20 -1t13 -15q4 -10 -0.5 -19.5t-15.5 -13.5q-45 -16 -80 -16q-8 0 -32 2.5t-51 22.5q-28 17 -40 47q-10 22 -10 47q0 6 1 13 q4 32 25 63.5t62 53.5q17 10 57.5 22t92.5 26q55 16 115.5 33.5t110.5 37.5q33 49 65 73.5t65 24.5q7 0 15 -1z"/>
<glyph glyph-name="Iacute" horiz-adv-x="437" unicode="" d="M525 787q-9 1 -15 5t-9 12q-3 10 1 20t16 13l102 35q5 2 9 2q6 0 11 -3q9 -5 13 -15q3 -10 -1 -20t-14 -13l-104 -35q-3 -1 -9 -1zM57 51q35 0 66 17t60 46h-12h-25h-36q-28 -2 -51 -13q-24 -12 -30 -28q-2 -3 -2 -5v-4q2 -5 4 -6q6 -7 26 -7zM638 762q28 -3 28 -26 q0 -4 -1 -8q-1 -8 -9 -18t-18 -18q-10 -9 -18 -16q-10 -7 -15 -10l-1 -2l-1 -1q-29 -22 -77 -41q-23 -39 -48 -89t-51 -105q-30 -65 -62 -130t-69 -122q25 6 51 16t53 28t57 46t64 70q6 8 17 10t19 -6q9 -6 10 -16t-6 -19q-47 -59 -88 -95t-79 -56t-72 -28q-35 -8 -69 -10 q-42 -54 -90 -86t-106 -31q-19 0 -35 6t-27 15q-14 14 -19 34q-1 6 -1 12q0 15 6 27q7 16 21 30t35 24q32 16 65 18q22 1 46 1h24h27h29q43 60 81 134t73 149q18 39 36 76t35 70q-43 -15 -87 -27t-86 -23q-49 -14 -87 -25t-53 -19q-28 -17 -42 -37t-17 -42v-5q0 -15 5 -29 q7 -15 21 -25q17 -12 47 -14h8q27 0 63 12q9 5 19 0t14 -15q2 -11 -2 -20t-15 -14q-44 -15 -80 -15q-8 0 -15 1q-41 4 -68 23q-26 16 -39 47q-10 22 -10 47q0 6 1 13q4 32 24 64t62 54q18 10 58 22t92 26q58 15 118 33t110 38q33 49 68 76q29 22 61 22q8 0 15 -1z"/>
<glyph glyph-name="Icircumflex" horiz-adv-x="438" unicode="" d="M721 903q10 -9 10 -23l-7 -88q-1 -11 -8 -17.5t-18 -6.5h-2q-11 1 -18 9t-6 19l4 49l-67 -22q-11 -4 -20 1t-13 15q-4 11 1 20.5t16 13.5l104 34q4 2 9 2zM58 52q35 0 66 17t60 46q-8 0 -12 1h-25q-18 0 -40.5 -1t-46.5 -12q-24 -12 -31 -29q-2 -5 -1 -9q0 -5 3 -5 q8 -8 27 -8zM641 766q29 -3 29 -27q0 -4 -1 -8q-2 -8 -10.5 -18t-19 -19t-20 -16t-12.5 -10l-1 -1q-14 -11 -33.5 -21t-42.5 -20q-24 -39 -48.5 -89.5t-50.5 -105.5q-31 -66 -63.5 -131t-69.5 -122q26 6 53.5 18t56.5 32.5t60.5 51t65.5 72.5q7 8 17.5 9.5t19.5 -5.5 q8 -7 9.5 -18t-5.5 -19q-47 -59 -90 -96.5t-83 -60t-76.5 -32.5t-70.5 -13q-42 -53 -90.5 -85t-106.5 -32q-40 0 -63 21q-15 17 -18 35q-1 6 -1 12q0 13 5 27q7 16 20.5 29.5t36.5 24.5q32 16 60 17.5t51 1.5h24h27h29q43 59 81 134t73 150q19 39 36.5 76t35.5 70 q-43 -14 -87 -26.5t-86 -23.5q-50 -14 -88 -25.5t-52 -19.5q-28 -15 -43 -36t-17 -42q-1 -9 0 -17.5t5 -16.5q7 -17 22 -25q17 -12 33.5 -13t20.5 -1q27 0 64 12q10 3 19 -1.5t13 -14.5q4 -11 -0.5 -20.5t-14.5 -13.5q-44 -15 -80 -15q-8 0 -33 2.5t-52 21.5q-14 9 -23.5 21 t-16.5 26q-10 23 -10 48q0 6 1 13q4 32 25 63.5t62 54.5q18 10 58.5 22t92.5 26q56 16 117 33.5t111 37.5q33 49 65 74t65 25q7 0 15 -1z"/>
<glyph glyph-name="Idieresis" horiz-adv-x="442" unicode="" d="M602 817q-15 0 -24 12q-11 11 -11 27q0 18 11 27q9 12 24 12q14 0 24 -12q10 -10 10 -27q0 -15 -10 -27t-24 -12zM713 841q10 -10 10 -26q0 -18 -10 -27q-5 -4 -11 -8t-13 -4q-15 0 -25 12l-1 1q-9 11 -9 26q0 14 10 26q9 12 25 12q13 0 24 -12zM54 51q35 0 66 17t60 46 h-12q-18 1 -35 1q-13 -1 -25 -1q-28 -2 -52 -12q-12 -6 -20 -14t-10 -14q-2 -4 -2 -10q1 -4 4 -5q6 -8 26 -8zM634 761q17 -2 23 -11q5 -7 5 -16q0 -3 -1 -7q-1 -8 -9 -18q-8 -9 -19 -19q-10 -10 -20 -17t-14 -10q-29 -23 -76 -41q-25 -39 -49 -89t-50 -106 q-31 -64 -63 -129t-68 -122q25 6 53 18t56 33q28 20 60 50t66 72q8 7 18 9t18 -5q8 -6 10 -17t-6 -19q-48 -59 -90 -97t-82 -59q-40 -22 -76 -32t-70 -13q-42 -53 -90 -85t-106 -32q-20 0 -35 6t-26 15q-15 14 -20 35q-1 6 -1 11q0 15 6 28q6 15 20 29t36 24q32 17 65 19 q24 2 49 1h21q13 -1 27 -1t28 1q43 59 81 133t73 149q18 39 36 75l35 70q-43 -14 -87 -26t-86 -24q-48 -14 -86 -25t-53 -19q-28 -16 -42 -36t-17 -42v-5q0 -15 5 -29q5 -8 9 -14t12 -11q18 -12 48 -14h7q27 0 62 12q11 4 21 -1t13 -15q3 -9 -1 -19t-16 -14q-44 -15 -80 -15 q-8 0 -15 1q-41 4 -68 23q-27 18 -39 47q-6 14 -8 29t-1 30q5 31 25 63t61 55q17 11 57 23t92 25q57 15 118 33t111 38q32 49 67 76q29 22 61 22q8 0 15 -1z"/>
<glyph glyph-name="Eth" horiz-adv-x="807" unicode="" d="M497 692q-54 -24 -109 -66q-54 -42 -106 -96t-98 -116t-78 -120q-20 -36 -35 -70t-24 -63q-11 -35 -11 -61q0 -15 4 -27q8 -21 40 -24h2q33 0 70 36q38 37 77 96q31 45 60 97t57 106h-73q-11 0 -19 8t-7 19q-1 11 7 18t19 7h101q6 16 14 28q9 20 21 44t25 51q12 27 26 56 t28 56zM923 339q9 -9 9 -19q0 -9 -7 -17q-51 -59 -88 -99t-65 -66t-53 -43t-49 -25t-52 -12t-66 -7q-38 -25 -80 -39t-84 -14q-60 0 -85 11q-22 9 -23 27q-1 3 -1 6q0 18 21 28q11 6 35 11t64 10q35 3 61 5t49 4h15t13 2q60 42 108 108t77 141q29 71 35 141q3 19 3 37 q0 13 -2 26q-4 31 -11 57q-16 44 -54 72t-104 28h-13t-13 -2q-7 -14 -14 -29t-15 -31q-12 -28 -26 -56t-27 -56t-25 -53t-22 -44l-2 -3l-1 -2h145q10 0 18 -7t8 -18t-8 -19t-18 -8h-171q-31 -60 -64 -120t-68 -112q-24 -34 -48 -63q-25 -29 -49 -49t-48 -32q-23 -11 -45 -11 h-4q-35 1 -57 17t-31 43q-6 18 -6 41v12q2 30 13 64q19 67 63 145q39 69 93 139t115 130q62 60 128 106q66 44 130 61q9 17 15 31t12 22q5 10 15 14l8 2l12 -3q9 -5 13 -15t-2 -20l-5 -10t-6 -13h1q85 -1 135 -37t71 -97q10 -31 14 -67q1 -15 2 -31q0 -22 -3 -44 q-4 -37 -14 -77t-25 -78q-24 -60 -59 -116t-80 -100q27 7 50 20q23 14 51 38t64 64t90 99q7 8 18 9t19 -7z"/>
<glyph glyph-name="Ntilde" horiz-adv-x="828" unicode="" d="M700 786q-10 -6 -20 -3.5t-16 11.5t-4 19.5t11 16.5q20 12 37.5 17.5t29.5 5.5q23 0 34 -15t18 -27q3 -5 6 -10.5t6 -7.5q2 -1 9.5 0.5t23.5 13.5q8 7 19 5t17 -10q7 -9 5 -19.5t-10 -16.5q-33 -26 -62 -26q-17 0 -30 9q-11 7 -18 17.5t-12 20.5q-2 4 -4.5 8t-4.5 6 q-1 -1 -11 -3.5t-24 -11.5zM1092 732q8 -11 11.5 -24t3.5 -22q0 -14 -5 -32q-3 -11 -12.5 -15.5t-20.5 -1.5q-10 2 -15 11.5t-2 20.5q3 10 3 18q0 9 -4 14q-5 6 -11.5 8t-10.5 2q-11 0 -27.5 -13t-29.5 -28q-39 -44 -78.5 -98.5t-77 -112.5t-72 -117t-62.5 -111 q-8 -81 -28 -139q-10 -29 -21.5 -47.5t-22.5 -29t-22 -14t-20 -3.5q-19 0 -27 17q-4 9 1 30t17 51.5t30.5 68.5t41.5 81q3 33 3 70q0 14 -1 46t-10 81.5t-25.5 95t-43.5 81.5q-16 -35 -36 -77.5t-43 -88.5q-5 -9 -10.5 -21t-12.5 -26q-17 -35 -39 -79.5t-49 -90.5t-57.5 -90 t-63.5 -78q-42 -42 -82.5 -60t-75.5 -18q-23 0 -42 7t-33 18q-16 13 -26.5 35.5t-10.5 52t13 66t44 79.5q47 62 101 106q9 6 20 4.5t17 -9.5q7 -9 5.5 -19.5t-10.5 -17.5q-51 -39 -91 -95q-22 -30 -33 -55.5t-12.5 -39t-1.5 -20.5q0 -13 4 -25.5t15 -21.5t23 -11t18 -2 q12 0 30 4.5t42 19t49 39.5q31 32 60 74t54.5 86t46.5 87t38 77q13 28 24 48q26 52 47.5 99t38.5 84q-2 2 -3 2.5t-2 2.5q-26 20 -55.5 30.5t-50.5 12t-32 1.5q-18 0 -42 -3t-48 -12q-42 -15 -68 -41t-31 -58q-1 -7 -1 -13q0 -37 29 -60q24 -19 62 -19q1 0 21 0.5t66 20.5 q10 5 19.5 1t14.5 -14t1 -20t-14 -14q-59 -26 -111 -26q-1 0 -27.5 0.5t-63.5 29.5q-28 21 -38.5 48t-10.5 51q0 11 2 22q7 47 42 84t90 57q27 10 55.5 14.5t52.5 4.5q11 0 34.5 -1.5t60.5 -13.5t70 -37q5 11 9 20t7 16q5 9 15 12.5t20 -1.5q10 -4 13.5 -14t-1.5 -20 q-5 -8 -10 -21t-13 -30q28 -31 47.5 -69.5t32.5 -81.5t20 -88.5t9 -90.5q29 50 60.5 101t64 98t63.5 88.5t59 73.5q4 5 13.5 15t22 19.5t28 17t32.5 7.5q14 0 32 -7t31 -24z"/>
<glyph glyph-name="Ograve" horiz-adv-x="546" unicode="" d="M477 905q-8 8 -7.5 18.5t8.5 18.5t17 8q1 0 6.5 -0.5t13.5 -8.5l75 -77q8 -8 8 -18t-8 -18q-6 -8 -18 -8q-10 0 -18 8zM435 635q6 13 11 25.5t8 25.5q-46 -20 -83 -50.5t-60 -61.5q-9 -12 -14.5 -22t-9.5 -19q-4 -12 -2 -14h5q42 0 80 33q42 34 65 83zM651 703 q10 -23 10 -51q0 -31 -9 -68q-8 -33 -22.5 -70t-34.5 -75q-39 -75 -95.5 -151.5t-122 -139.5t-136 -104t-137.5 -45h-9q-66 0 -99 41q-20 22 -25 48.5t-5 50.5q0 12 1 25q2 35 13 75t28 83q27 69 68.5 139.5t90 131.5t101 106t102.5 62q11 3 20 -2t14 -14q4 -11 -1.5 -20 t-14.5 -13q-45 -16 -93 -57.5t-92.5 -98t-83 -122.5t-63.5 -131q-32 -80 -37 -143q-1 -12 -1 -22q0 -43 17 -66q19 -22 62 -22h4q60 4 124 42.5t124 97t111.5 130.5t87.5 142q19 36 32.5 70t19.5 63q8 29 8 53q0 20 -6 36q-10 25 -47 25q-11 0 -22 -1.5t-22 -3.5 q-3 -23 -10.5 -46t-19.5 -46q-29 -58 -77 -100q-26 -21 -53.5 -32.5t-55.5 -11.5h-5q-39 0 -53 30q-5 10 -5 22q0 14 7 31q9 25 30 54q15 19 35.5 39t45 38.5t52.5 34.5t58 27q-1 19 -13 34q-8 9 -6.5 19t9.5 18q8 6 17 6q1 0 6.5 -0.5t12.5 -8.5q18 -24 24 -56q23 5 45 5 q38 0 61 -15.5t35 -42.5z"/>
<glyph glyph-name="Oacute" horiz-adv-x="546" unicode="" d="M435 833q-19 0 -24 18q-4 11 1 20.5t15 12.5l104 34q5 2 9 2q6 0 13.5 -4t10.5 -15q3 -10 -1.5 -19.5t-14.5 -12.5l-105 -34q-4 -2 -8 -2zM444 637q14 27 20 50q-46 -20 -83.5 -50.5t-61.5 -61.5q-8 -11 -13.5 -21.5t-8.5 -19.5q-5 -10 -3 -14h6q41 0 79 33q40 33 65 84z M660 704q10 -22 10 -51q0 -32 -9 -69q-16 -67 -56 -145q-39 -75 -95.5 -151.5t-122 -139.5t-136 -104t-137.5 -44h-12q-64 0 -98 39q-30 38 -30 103q0 11 1 23q3 35 13.5 74.5t27.5 82.5q27 69 69 140t90.5 132t101.5 106t103 62q11 4 20.5 -1t12.5 -15q4 -10 -0.5 -19.5 t-15.5 -13.5q-45 -15 -92.5 -57t-92.5 -98.5t-83 -123t-63 -130.5q-33 -79 -39 -144q-1 -11 -1 -21q0 -45 19 -67q16 -22 66 -22q39 2 81 20.5t84 48.5t82 70t76.5 85t68.5 93t56 95q19 37 31.5 71t20.5 64q8 29 8 52q0 21 -7 36q-5 11 -16.5 18t-31.5 7q-21 0 -44 -5 q-6 -45 -28 -92q-15 -29 -35.5 -54.5t-43.5 -45.5q-26 -21 -52.5 -32.5t-52.5 -11.5h-9q-40 0 -53 30q-4 10 -4 22q0 14 6 31q9 26 31 54q29 39 79.5 78.5t111.5 60.5q-3 21 -14 35q-7 9 -6 19.5t10 16.5q7 7 15 7q2 0 7.5 -1t13.5 -9q18 -23 23 -55q20 4 45 4q38 0 61 -15 t35 -43z"/>
<glyph glyph-name="Ocircumflex" horiz-adv-x="541" unicode="" d="M487 866q-11 -3 -20 1.5t-13 15.5q-3 10 1.5 19.5t15.5 12.5l104 35q4 2 9 2l15 -6q11 -10 10 -23l-7 -87q-1 -11 -8 -17.5t-18 -6.5h-2q-11 1 -18 9t-6 19l4 48zM440 637q11 24 19 50q-46 -20 -83.5 -50.5t-60.5 -61.5q-18 -22 -24 -41q-5 -10 -3 -14h6q21 0 41 9t40 24 q19 17 35.5 38t29.5 46zM654 704q10 -24 10 -56q0 -28 -8 -63q-17 -68 -56 -146q-39 -75 -95.5 -151.5t-122.5 -139t-136.5 -103.5t-137.5 -45h-12q-30 0 -54.5 9.5t-42.5 30.5q-19 22 -24.5 48t-5.5 48q0 14 2 29q2 35 13 75t28 82q27 69 68 140t90 132t102 106t103 62 q10 4 19.5 -1t13.5 -14q3 -11 -1.5 -20.5t-15.5 -13.5q-45 -15 -92.5 -56.5t-92 -98.5t-83 -123t-63.5 -131q-32 -80 -37 -144q-1 -13 -1 -24q0 -42 17 -64q18 -21 62 -21h4q60 3 124 41.5t124 97.5t112 131t88 142q19 36 32 70t21 63q6 31 6 54q0 21 -5 35q-10 25 -48 25 q-21 0 -44 -5q-6 -46 -29 -92q-15 -29 -34.5 -54.5t-44.5 -45.5q-25 -21 -52.5 -32.5t-55.5 -11.5h-5q-40 0 -53 30q-4 10 -4 23q0 14 5 30q5 13 12.5 26.5t18.5 27.5q30 39 80 78.5t111 60.5q-1 21 -14 35q-6 8 -5 18.5t9 17.5q7 7 16 7q2 0 8 -1t13 -9q18 -21 23 -55 q20 4 45 4q73 0 95 -58z"/>
<glyph glyph-name="Otilde" horiz-adv-x="548" unicode="" d="M447 636q14 27 20 51q-46 -20 -83.5 -50.5t-60.5 -62.5q-18 -24 -23 -40q-5 -10 -3 -14h6q41 0 79 33q20 16 36.5 37.5t28.5 45.5zM662 704q10 -23 10 -52q0 -31 -9 -68q-8 -32 -21.5 -69t-33.5 -76q-39 -75 -95 -151t-122 -138.5t-136.5 -103.5t-137.5 -45h-12 q-30 0 -54.5 9.5t-41.5 30.5q-19 23 -25 50t-6 52q0 11 1 22q3 35 13.5 75t27.5 83q27 69 68.5 139.5t90.5 131.5t101.5 106t102.5 62q11 3 20.5 -1.5t12.5 -14.5q3 -11 -1 -20t-15 -13q-45 -16 -92.5 -57.5t-92 -98t-83 -122.5t-63.5 -130q-16 -39 -25.5 -76t-12.5 -68 q-1 -11 -1 -21q0 -45 19 -66q18 -22 61 -22h4q60 3 123.5 41.5t123.5 97t112.5 130.5t88.5 142q18 36 31 70t20 63q8 30 8 53q0 21 -7 35q-10 26 -48 26q-11 0 -21.5 -1.5t-21.5 -3.5q-6 -46 -29 -92q-31 -61 -78 -100q-26 -20 -53 -32t-56 -12h-5q-39 0 -53 30q-4 10 -4 22 q0 14 6 31q9 26 31 54q15 19 35 39.5t44.5 39t52.5 34t58 25.5q-1 20 -13 35q-7 9 -6 19.5t10 16.5q8 8 18 6.5t18 -9.5q18 -23 23 -54q11 2 22 3t22 1q38 0 61 -15.5t35 -42.5zM464 865q-10 -7 -20.5 -4.5t-16.5 11.5q-4 6 -4 14q0 3 1.5 9.5t10.5 12.5q24 16 42 19.5 t24 3.5q23 0 34.5 -14.5t17.5 -27.5q3 -5 6.5 -10.5t6.5 -7.5q1 -1 8.5 1t23.5 13q8 7 18.5 5.5t17.5 -10.5q6 -7 6 -15q0 -14 -11 -21q-35 -26 -62 -26q-15 0 -30 9q-11 8 -17.5 18t-11.5 20q-2 4 -4.5 8.5t-4.5 6.5q-3 -1 -13 -4t-22 -11z"/>
<glyph glyph-name="Odieresis" horiz-adv-x="533" unicode="" d="M573 815q-8 11 -8 26q0 14 9 28q10 12 25 12q14 0 24 -12q10 -11 10 -28t-10 -27q-10 -12 -24 -12q-15 0 -25 12zM512 844q-16 0 -25 12q-10 12 -10 27t10 27q5 4 11 8t14 4q7 0 13 -4t11 -8q10 -12 10 -27t-10 -27q-9 -12 -24 -12zM441 637q6 13 11 25t8 25 q-44 -21 -82 -51t-61 -61q-16 -22 -24 -41q-5 -12 -3 -14h6q42 0 80 33q41 35 65 84zM656 704q10 -25 10 -57q0 -29 -8 -63q-9 -32 -23 -69t-35 -76q-26 -49 -60 -101t-72 -100q-40 -48 -84 -90t-90 -74t-93 -52t-91 -22h-12q-64 0 -96 40q-20 22 -26 54q-4 22 -5 47 q0 12 1 24q3 35 14 75t28 82q27 69 68 140t90 132q50 61 102 106t102 62q11 4 20 -1t13 -15q5 -10 -1 -20t-14 -13q-45 -15 -93 -57q-49 -42 -93 -98t-82 -124q-38 -66 -64 -130q-16 -40 -26 -76t-12 -68q-1 -10 -1 -19q0 -18 3 -32q4 -22 15 -36q18 -22 62 -22h4 q59 3 123 41t124 98q60 58 112 130t89 142q17 37 31 71t21 63q7 32 7 55q0 20 -5 34q-5 11 -17 18t-31 7q-11 0 -23 -2t-22 -3q-5 -46 -29 -92q-14 -29 -34 -55t-44 -45q-26 -21 -54 -33q-24 -11 -51 -11h-8q-40 0 -53 30q-5 10 -5 22q0 14 7 31q9 25 30 54q15 19 35 39 q20 21 44 39t53 34q28 16 58 27q-1 20 -12 34q-8 9 -7 19t9 18q7 7 16 7q2 -1 3 -1q11 -2 18 -9q10 -12 16 -26t7 -29q20 4 46 4q38 0 61 -16t34 -42z"/>
<glyph glyph-name="multiply" horiz-adv-x="511" unicode="" d="M437 472q16 -7 16 -20q0 -5 -2 -11q-2 -7 -15 -17q-14 -10 -32 -21t-41 -23t-46 -25l-18 -9t-16 -9l95 -119q6 -8 5 -16t-8 -15q-7 -5 -14 -5h-3q-9 1 -15 7l-101 127q-8 -7 -14 -8q-42 -32 -78 -62t-55 -47q-7 -7 -17 -6t-14 9q-7 7 -7 15q0 10 8 16q18 15 52 43t75 59 l1 1l1 2q6 4 10 7q2 1 4 3t6 4l-79 97q-5 8 -5 17t8 14q7 6 15 6h2q9 -1 15 -8l80 -99q14 11 26 19l24 16q46 30 82 48q26 12 43 12q7 0 12 -2z"/>
<glyph glyph-name="Oslash" horiz-adv-x="535" unicode="" d="M551 462q38 72 52 133q8 29 8 53q0 20 -6 34q-10 26 -47 26q-11 0 -20.5 -1t-18.5 -3l-406 -652q59 6 122 45t121.5 97t109 128.5t85.5 139.5zM653 702q10 -23 10 -51q0 -31 -9 -68q-8 -32 -22 -69t-34 -76q-25 -50 -59 -101t-73.5 -99t-84 -90t-90 -74t-92.5 -52 t-91 -22h-13.5t-12.5 1l-53 -84q-8 -12 -22 -12q-7 0 -14 4q-8 6 -10.5 16t2.5 20l45 71q-8 5 -16 10.5t-13 13.5q-20 23 -25.5 49.5t-5.5 51.5q0 11 1 23q3 35 13.5 75t27.5 83q27 68 68.5 138.5t90 131.5t100.5 106t102 62q11 3 20.5 -1.5t13.5 -14.5q4 -11 -1 -20 t-15 -14q-45 -15 -93 -56.5t-92 -98t-82.5 -122.5t-63.5 -130q-15 -39 -25 -75t-12 -68q-1 -11 -1 -21q0 -45 18 -67q6 -7 17 -12l382 613q-42 -25 -67 -60q-7 -9 -18 -10.5t-19 4.5q-8 7 -9.5 17t4.5 19q19 25 44.5 47t57.5 38q25 13 54 21l73 117q5 9 12 10.5t10 1.5 q7 0 13 -4q10 -5 12 -15.5t-3 -19.5l-50 -80q1 0 2 0.5t3 0.5q37 0 60.5 -15.5t34.5 -42.5z"/>
<glyph glyph-name="Ugrave" horiz-adv-x="590" unicode="" d="M469 862q-8 8 -7.5 18.5t8.5 18.5t18.5 8t17.5 -8l78 -79q8 -8 7.5 -18.5t-8.5 -18.5q-7 -7 -18 -7t-19 8zM779 703q-8 -14 -26.5 -42t-45 -64.5t-60.5 -80.5t-71 -91q-30 -56 -58 -112.5t-49.5 -106t-36 -88.5t-17.5 -61q10 7 26.5 20.5t43.5 42t66.5 75.5t96.5 120 l18 21q7 9 17.5 10.5t18.5 -5.5q9 -8 10 -18.5t-5 -18.5l-18 -22q-62 -80 -108 -133.5t-79.5 -86.5t-56.5 -47.5t-41 -15.5h-2q-14 0 -26.5 10.5t-12.5 36.5q0 11 5 31t14.5 48.5t24 63t31.5 72.5q-47 -53 -92.5 -100.5t-86 -83t-74 -57t-55.5 -21.5h-1q-30 0 -45 10.5 t-22 21.5q-9 15 -9 34q0 7 3 25.5t19.5 57t44 86.5t63.5 107q28 46 58.5 98.5t53.5 101t30.5 77.5t7.5 44q0 17 -7 29q-14 25 -70 25q-29 0 -64 -6.5t-67.5 -19.5t-58 -32t-35.5 -44q-6 -15 -6 -29q0 -13 5 -24q5 -12 15.5 -22t26.5 -15t38 -5q2 0 15 0.5t44 11.5 q11 4 20.5 -0.5t13.5 -15.5q3 -11 -1.5 -20.5t-15.5 -12.5q-41 -14 -59 -14.5t-19 -0.5q-32 0 -57.5 9.5t-43 26.5t-26.5 38q-8 21 -8 45t9 47q14 35 46 60.5t71 42t81 24.5t76 8q88 0 115 -52q13 -24 13 -53q0 -11 -4 -38.5t-26 -79.5t-56 -111t-71 -120 q-22 -36 -45.5 -76.5t-42.5 -77t-26.5 -58.5t-7.5 -33q0 -8 3 -12q3 -6 21 -6q14 0 38.5 16.5t56.5 45t69.5 67t77.5 82.5t80.5 91.5t78.5 94.5q33 62 66.5 119.5t64.5 102t56.5 71t42.5 27.5q7 0 14.5 -3.5t11.5 -9.5q6 -8 6 -17q0 -4 -2.5 -12.5t-10.5 -22.5z"/>
<glyph glyph-name="Uacute" horiz-adv-x="585" unicode="" d="M510 781q-8 0 -15 5t-9 13q-4 10 1 19t15 13l102 36q4 1 9 1q6 0 13.5 -3.5t11.5 -14.5q3 -10 -1.5 -19.5t-15.5 -13.5l-102 -35q-3 -1 -9 -1zM773 697q-8 -15 -26.5 -42t-44.5 -63.5t-59.5 -79.5t-70.5 -89q-29 -56 -56.5 -112t-49.5 -105.5t-36.5 -88.5t-17.5 -60 q10 6 26.5 20t43.5 42.5t66.5 75.5t96.5 119l17 22q7 8 17.5 9.5t18.5 -5.5t9.5 -17.5t-5.5 -18.5l-17 -22q-62 -79 -107.5 -133t-79 -87t-57 -47.5t-41.5 -15.5h-1q-14 0 -25.5 10t-13.5 32q-1 24 19.5 83t54.5 134q-46 -53 -91 -99.5t-85 -82t-73 -56.5t-55 -21 q-29 1 -45 10.5t-22 20.5q-8 15 -8 35q0 7 2.5 25t18.5 56t43.5 85.5t62.5 106.5q28 46 58 98t53 100t30.5 77t7.5 43q0 17 -7 29q-13 25 -69 25q-28 0 -63 -6.5t-67.5 -19.5t-58 -32t-34.5 -43q-7 -16 -7 -30q0 -12 5 -22q5 -12 15.5 -22t26.5 -15t35 -5q3 0 17 0.5 t45 11.5q11 3 20.5 -1.5t12.5 -15.5q4 -10 -0.5 -19t-15.5 -13q-41 -14 -58.5 -14.5t-19.5 -0.5q-31 0 -56.5 9.5t-43 26.5t-25.5 38q-9 20 -9 42q0 23 10 49q13 34 44.5 59.5t70.5 42t80.5 24.5t75.5 8q86 0 115 -52q13 -23 13 -52q0 -11 -4 -38.5t-26.5 -79t-56 -110 t-69.5 -119.5q-22 -36 -45.5 -76t-42 -76t-26 -58.5t-7.5 -33.5q0 -7 2 -11q4 -6 21 -5q13 0 37.5 17t56 45.5t69 67.5t77.5 83t81 92t79 95q32 61 65.5 116.5t63.5 98.5t55 69t41 27q8 0 15 -3.5t11 -9.5q5 -9 5 -17q0 -4 -2.5 -12.5t-9.5 -22.5z"/>
<glyph glyph-name="Ucircumflex" horiz-adv-x="592" unicode="" d="M489 820q-11 -4 -20.5 1t-13.5 15q-3 11 1.5 20.5t15.5 12.5l103 35q4 1 8 1q10 0 18.5 -7t8.5 -21l-6 -87q-1 -11 -8.5 -18t-17.5 -7h-2q-11 1 -18 9t-6 19l3 49zM780 703q-8 -15 -26 -42.5t-44.5 -64t-60 -80t-70.5 -89.5q-30 -56 -58 -113t-50 -106.5t-37 -89 t-18 -61.5q11 7 27.5 21t43 42t64.5 72.5t92 112.5q8 10 13.5 18t10.5 13q7 8 18 9.5t19 -5.5q8 -8 9.5 -18.5t-5.5 -18.5q-9 -11 -24 -30q-62 -79 -107 -131.5t-77 -84t-54.5 -44.5t-40.5 -14h-2q-14 0 -26.5 10.5t-12.5 35.5q0 11 5 31t14.5 48.5t24 63t31.5 72.5 q-47 -53 -92.5 -100t-86 -83t-73.5 -57t-55 -21h-1q-30 0 -45 10.5t-22 21.5q-9 15 -9 34q0 7 3 25.5t19.5 56.5t44 86.5t62.5 107.5q29 48 60 100.5t53.5 100.5t30 76.5t7.5 42.5q0 17 -7 29q-15 25 -71 25q-29 0 -64 -6.5t-67 -19.5t-57.5 -31.5t-35.5 -43.5 q-7 -16 -7 -31q0 -12 5 -23q5 -12 16 -22t27 -14.5t35 -4.5q4 0 18 0.5t45 11.5q10 3 19.5 -1.5t13.5 -15.5q3 -10 -1.5 -19.5t-15.5 -13.5q-43 -15 -76 -15q-1 0 -18.5 0.5t-43 10.5t-42.5 27t-25 36q-9 22 -9 44q0 25 11 50q13 34 44.5 59t70.5 41.5t81 24.5t76 8 q87 0 116 -51q13 -24 13 -53q0 -11 -4 -38.5t-26 -80t-56 -111t-71 -119.5q-22 -36 -45.5 -76.5t-42.5 -77t-26.5 -58.5t-7.5 -33q0 -8 3 -13q4 -6 22 -5q14 0 38.5 16.5t56 45t68.5 66.5t77 82t80.5 91.5t78.5 94.5q33 62 67 119.5t64.5 101.5t56 71t42.5 28h3 q6 0 12.5 -3.5t11.5 -9.5q5 -8 5 -16q0 -4 -2.5 -13t-10.5 -22z"/>
<glyph glyph-name="Udieresis" horiz-adv-x="595" unicode="" d="M479 810q-8 0 -14 3.5t-11 8.5q-10 12 -10 28q0 15 10 27q9 12 25 12t25 -12q4 -5 6.5 -12t2.5 -15t-2.5 -15.5t-6.5 -12.5q-5 -5 -11 -8.5t-14 -3.5zM541 782q-9 10 -9 26q0 17 10 27q10 12 25 12q14 0 24 -12q10 -10 10 -27q0 -15 -10 -28q-9 -11 -24 -11q-16 0 -25 11 zM784 706q-8 -15 -26.5 -42.5t-45.5 -64.5t-60.5 -80.5t-70.5 -90.5q-30 -56 -58.5 -113t-50.5 -107t-36 -89.5t-17 -61.5q11 7 27 21t42.5 41.5t64.5 72t92 113.5q8 10 13.5 18t10.5 13q7 8 17.5 9t19.5 -6q8 -7 9 -17.5t-6 -19.5l-10 -12.5t-13 -16.5 q-63 -79 -107.5 -131.5t-77 -84t-54.5 -44.5t-40 -14h-2q-14 0 -26.5 10.5t-12.5 36.5t20 82.5t55 132.5q-47 -53 -92.5 -100.5t-86 -83t-73.5 -57t-55 -21.5q-32 1 -47 11t-21 21q-9 16 -9 36q0 7 2.5 25t19 56.5t44 87t63.5 107.5q29 49 60 101.5t53.5 100.5t29.5 76t7 42 q0 18 -7 30q-13 25 -70 25q-29 0 -64 -6.5t-67.5 -19.5t-58.5 -32t-36 -44q-5 -14 -5.5 -28t4.5 -25q5 -12 16 -22t26.5 -15t35.5 -5q4 0 17.5 0.5t45.5 11.5q11 4 20.5 -1t12.5 -15q4 -11 -0.5 -20.5t-15.5 -12.5q-42 -14 -60 -14.5t-19 -0.5q-32 0 -58 9.5t-43.5 26.5 t-26.5 38q-8 21 -8 45t9 47q15 35 47 61t71 42.5t81 24.5t76 8q87 0 116 -52q13 -24 13 -53q0 -11 -4 -39t-26.5 -80t-56 -111t-70.5 -120q-22 -36 -46 -76.5t-42.5 -77.5t-26.5 -59t-8 -33q0 -8 3 -13t21 -5h1q14 0 38.5 16.5t56.5 45t69 66.5t77 82t80.5 92t78.5 95 q33 62 67 120t65 102.5t56.5 71.5t42.5 28q19 0 27 -13q5 -8 5 -16q0 -4 -2.5 -13t-9.5 -23z"/>
<glyph glyph-name="Yacute" horiz-adv-x="639" unicode="" d="M494 780q-18 0 -25 18q-3 10 1 20t15 13l104 35q4 1 8 1l12 -3q10 -4 13 -14q2 -10 -2 -20t-15 -13l-103 -35q-4 -2 -8 -2zM299 -42l4 6t4 7q-246 -106 -246 -163q0 -3 1 -5q1 -5 12 -13t27 -9q56 -1 103 45t95 132zM572 431q-20 -41 -38 -81t-36 -78q-17 -38 -32 -71 q-15 -34 -27 -61q-8 -18 -15 -36t-15 -34q1 2 3 2t4 2q38 17 66 34t56 41t58 58q32 34 77 84l41 45q8 8 18 9t19 -7t9 -18t-8 -19l-41 -44q-46 -51 -79 -87t-62 -61q-29 -26 -60 -45t-73 -38q-8 -3 -20 -8t-27 -11q-3 -3 -6 -3t-5 -2q-11 -22 -19 -40t-16 -30 q-54 -98 -113 -150t-130 -52q-35 0 -61 19t-30 43q-1 7 -1 15q0 27 20 53q26 32 73 64q48 32 110 62t128 56q10 26 24 56t28 63q14 31 26 60t26 57q-48 -56 -96 -106t-90 -88t-77 -61t-57 -23h-2q-30 0 -44 10t-22 21q-8 15 -8 34q0 7 1 15q5 29 21 67q16 37 43 85t62 106 q29 49 59 101q30 51 54 99q22 48 32 86q4 17 4 31q0 17 -7 29q-14 26 -70 26q-29 0 -63 -6t-66 -20q-32 -13 -57 -32t-35 -43q-7 -14 -7 -28t5 -25q6 -12 16 -22t28 -14q15 -5 33 -5h7q24 1 55 12q9 3 19 -1t14 -15q2 -11 -2 -21t-14 -12q-44 -15 -78 -15t-60 10t-42 27 t-24 36q-9 21 -9 43q0 25 10 50q13 34 45 59t70 41t80 24t75 8q86 0 115 -51q13 -23 13 -52q1 -10 -1 -22q-6 -44 -29 -96q-21 -52 -55 -109q-34 -58 -70 -119q-21 -36 -45 -76q-25 -40 -43 -76t-28 -64q-5 -16 -5 -27q0 -8 3 -12q3 -6 21 -6q15 0 39 17q24 18 56 46t69 66 t77 83q40 43 80 91t79 95q74 155 127 232t97 80h3q6 0 12 -3q8 -4 11 -9q5 -8 5 -17q0 -4 -1 -8q-4 -14 -11 -26q-8 -14 -26 -41t-42 -62q-26 -35 -58 -77t-68 -87z"/>
<glyph glyph-name="Thorn" d="M491 589q15 -23 15 -57t-10 -73t-26 -79t-35 -76q-7 -13 -19 -35t-30 -47q-18 -24 -40 -50t-46 -46t-52 -34t-56 -15h-7q-21 0 -37 5q-18 6 -32 16q-12 10 -20 22q-8 13 -13 25q-4 9 0 19t14 15q11 3 21 -1t15 -15q5 -13 17 -23t40 -11q22 1 46 16t50 41t52 62t49 81 q23 41 37 79t21 68t7 52t-6 33q0 2 -4 4t-12 2q-22 -1 -56 -27t-79 -72t-100 -112t-116 -150q-25 -54 -55 -109t-67 -112q-18 -29 -32 -47q-15 -18 -25 -27t-18 -12t-16 -3q-17 0 -27 13q-5 7 -5 15q0 7 5 19q5 13 17 34t34 55q31 45 67 97t76 106q19 38 35 75t32 75 q18 39 36 80t39 86q23 49 23 87v6q-2 40 -31 58q-15 9 -36 9q-1 -1 -2 -1q-22 0 -47 -12q-26 -12 -52 -35t-51 -59q-6 -8 -17 -10t-19 4q-10 5 -12 16t5 21q31 47 66 75q36 28 70 41q31 12 59 12q3 -1 7 -1q32 -2 56 -15q18 -10 33 -29q15 -18 21 -46q4 -16 4 -34 q0 -14 -2 -30q-5 -36 -26 -80q-14 -31 -27 -60t-26 -57q37 44 73 82t69 66q33 29 63 45t52 17h5q39 0 58 -32z" unicode=""/>
<glyph glyph-name="germandbls" horiz-adv-x="530" unicode="" d="M642 338q8 -8 8 -18t-8 -18l-18 -21q-45 -49 -78 -83q-32 -34 -58 -58t-46 -40t-40 -25q-16 -9 -31 -13t-32 -6t-37 -3t-44 -2q-4 -1 -6 -1h-4q-34 -18 -73 -30t-86 -19q-8 -1 -15 -1q-11 0 -21 2q-16 3 -26 10q-16 12 -16 29q0 14 12 26q9 7 27 15t51 10q43 5 75 7t59 2 q18 11 34 22t30 23q26 22 45 46q20 24 32 49q12 23 18 45t8 40v7q0 25 -12 43q-14 20 -36 32t-50 20q-26 6 -48 10h-2l1 1q-9 3 -15 9t-6 15q-2 11 6 19t18 8q73 2 112 28t53 59q10 22 10 45q0 27 -10 49q-7 17 -19 29t-25 12q-15 0 -33 -14t-37 -47q-25 -42 -45 -78 t-40 -71q-28 -50 -58 -102t-68 -116q-8 -16 -18 -32t-22 -32q-9 -16 -19 -30t-21 -28q-8 -9 -18 -11t-18 5q-11 8 -11 22q0 8 5 14l20 28t19 29q9 13 19 29t20 33q40 64 69 115t56 100q20 37 41 74t45 78q27 46 56 66t58 19q31 0 55 -20t37 -52t13 -69q0 -33 -14 -65 q-12 -29 -36 -55t-65 -42q19 -9 35 -21q16 -13 28 -29t18 -38q4 -16 4 -36v-14q-2 -22 -10 -48t-22 -54t-36 -58q-22 -28 -53 -54q26 3 46 13q17 9 35 23t42 37t56 57t75 79l19 20q8 9 18 9t18 -8z"/>
<glyph glyph-name="agrave" d="M314 633q-7 9 -7 19t7 17q8 8 18 8t18 -8l76 -76q8 -9 8 -19t-9 -18q-7 -7 -18 -7q-10 0 -18 8zM37 50q23 1 53 19t62 47q32 28 66 66q33 38 64 77q19 45 40 87t43 77q-2 5 -3 9t-4 8q-11 21 -37 21q-25 0 -55 -18q-30 -17 -63 -49t-66 -75t-61 -93q-40 -74 -50 -117 q-5 -23 -6 -38q0 -12 4 -17q0 -4 13 -4zM560 336q9 -9 9 -20q0 -9 -6 -16q-14 -16 -30 -38t-34 -45q-37 -49 -70 -89t-62 -69t-55 -45q-24 -15 -45 -14h-3q-4 0 -12 2t-16 7q-8 6 -12 18q-5 12 -5 32q0 22 12 60q-51 -51 -101 -85t-92 -35h-2q-39 0 -56 29q-11 18 -11 43 q1 5 1 9q2 30 12 63q10 32 25 61q14 29 25 47q20 35 52 81t70 86t82 66q43 27 85 27q52 0 77 -37q28 37 47 37q13 0 21 -8t8 -22q0 -11 -12 -37t-32 -60t-48 -76t-61 -84q-13 -29 -23 -56t-17 -50t-11 -40t-1 -26q16 2 40 23t50 51t52 62q26 33 46 60q19 24 36 46t31 39 q8 8 18 9t18 -6z" unicode=""/>
<glyph glyph-name="aacute" horiz-adv-x="443" unicode="" d="M371 549q-17 0 -24 17q-3 10 1 20t15 13l101 34q5 2 10 2q5 -1 10 -3q9 -4 13 -14q3 -10 -1 -20t-15 -13l-101 -34q-6 -2 -9 -2zM34 50q24 0 54 18t62 46t65 66q33 37 63 76q19 44 40 88t43 79q-1 8 -6 16q-11 21 -37 21q-24 0 -54 -18t-64 -50q-33 -32 -66 -74t-61 -92 q-41 -74 -50 -118q-5 -24 -5 -38q0 -11 3 -16q1 0 3 -2t10 -2zM560 339q9 -8 9 -21q0 -9 -6 -16q-14 -14 -32 -38t-35 -47q-38 -49 -70 -89t-62 -69q-28 -29 -54 -45q-24 -15 -46 -14h-3q-4 0 -12 2q-7 2 -15 7q-8 6 -13 18t-5 32q0 11 3 26t8 34q-49 -51 -99 -85t-92 -35 h-3q-39 0 -56 29q-11 18 -11 42v10q2 31 14 63q10 32 24 61t25 47q27 48 62 95q35 48 73 84t78 58t76 23q25 0 44 -10t32 -27q14 17 26 27t21 10q13 -1 21 -9t8 -22q0 -10 -12 -36t-32 -60t-48 -76t-60 -84q-12 -29 -22 -56t-17 -50q-7 -22 -11 -40t-1 -27q16 3 40 25t50 51 q26 30 52 63t45 58q19 24 37 48t33 40q8 8 18 8t18 -5z"/>
<glyph glyph-name="acircumflex" horiz-adv-x="446" unicode="" d="M361 588q-10 -2 -19 2t-12 14q-4 11 1 20t14 13l102 33q5 2 9 2q8 0 14 -6q11 -8 11 -21l-7 -87q-1 -10 -8 -16t-18 -7h-2q-12 1 -18 9t-5 18l4 48zM39 50q23 0 53 18t62 47t66 67q33 38 64 77q19 44 40 87t42 78q-2 10 -5 17q-12 19 -38 19q-25 0 -55 -18t-63 -48 q-33 -32 -66 -74t-61 -93q-41 -73 -50 -117q-5 -26 -5 -41q0 -10 2 -15q2 0 4 -2t10 -2zM565 339q9 -9 9 -20q0 -10 -7 -17q-14 -17 -32 -40t-37 -48q-37 -48 -69 -88q-33 -40 -61 -68t-54 -44q-24 -15 -46 -14h-3q-4 0 -11 2q-6 2 -14 8t-14 18t-5 32q0 21 12 59 q-51 -51 -101 -85t-92 -35h-1q-40 0 -57 29q-11 18 -11 43q1 5 1 10q2 31 12 63t25 60q14 28 24 47q28 49 63 95t73 84q37 36 77 58t77 23q51 0 77 -36q14 17 26 27t20 9q13 0 21 -8t8 -21q1 -11 -11 -37t-32 -61q-20 -34 -48 -76t-61 -84q-25 -58 -40 -106q-12 -38 -12 -58 q0 -5 1 -9q14 3 38 23t50 50t51 62q26 32 46 58q19 26 37 50t35 42q7 8 17 9t19 -6z"/>
<glyph glyph-name="atilde" d="M333 584q-9 -7 -19 -4.5t-17 10.5q-6 9 -3.5 19.5t11.5 16.5q24 16 42 19t23 3q23 0 34 -14t18 -26q3 -5 6 -10.5t6 -7.5q2 -2 9.5 0t22.5 13q9 6 19.5 4.5t16.5 -10.5q6 -8 4.5 -18.5t-10.5 -16.5q-17 -13 -31.5 -18.5t-28.5 -5.5q-18 0 -30 9q-11 7 -17.5 17t-11.5 20 q-2 3 -4.5 7.5t-4.5 6.5q-2 -1 -11.5 -3.5t-23.5 -10.5zM40 50q24 1 53.5 18.5t61.5 46.5t65 66t64 76q19 45 40 88.5t43 78.5q-1 5 -2.5 8.5t-3.5 7.5q-11 20 -37 20q-24 0 -55 -17.5t-64 -49t-65.5 -74t-60.5 -92.5q-42 -74 -49.5 -107.5t-7.5 -47.5q0 -12 4 -18 q2 -1 4 -2.5t10 -1.5zM565 339q9 -9 9 -20q0 -9 -6 -16q-15 -17 -33.5 -40.5t-36.5 -47.5q-37 -48 -69 -88t-61 -68.5t-53.5 -43.5t-46.5 -15h-3q-4 0 -11.5 2t-15 8t-12.5 17.5t-5 31.5q0 21 12 60q-51 -52 -100.5 -85t-91.5 -35h-3q-38 0 -56 29q-11 17 -11 41q0 5 2 23.5 t12.5 50.5t24.5 61.5t24 47.5q28 48 62.5 95t73 83.5t78 59t76.5 22.5q49 0 76 -38q28 38 47 38q12 0 20.5 -9t8.5 -21q0 -11 -11.5 -37t-32 -61.5t-48.5 -76.5t-61 -83q-24 -58 -38 -101t-14 -63q0 -5 1 -9q16 3 39.5 23.5t49 50t51 62t45.5 59.5q20 25 38.5 49t34.5 42 q6 8 16.5 8.5t18.5 -6.5z" unicode=""/>
<glyph glyph-name="adieresis" d="M321 567q-14 0 -24 12q-11 9 -11 27q0 13 11 27q10 10 24 10q12 0 24 -10q5 -7 7 -13t3 -14q0 -17 -10 -27q-12 -12 -24 -12zM381 539q-5 5 -7 11t-2 14q0 15 10 27t24 12q12 0 24 -12q10 -12 10 -27q0 -14 -10 -26q-11 -11 -24 -11q-15 0 -24 11zM43 51q24 0 53 18 q29 19 61 47t65 66t64 76q18 44 40 87t42 78q-2 10 -6 15q-10 20 -37 20q-25 0 -55 -18t-62 -48q-32 -32 -66 -74q-32 -42 -60 -91q-41 -74 -50 -117q-5 -24 -5 -39q0 -11 3 -16l3 -3t10 -1zM567 340q9 -9 9 -20q0 -10 -7 -17q-14 -17 -33 -41t-37 -48q-37 -48 -69 -88 t-60 -68t-54 -43q-24 -14 -46 -14h-3q-3 -1 -11 1t-16 8t-12 18q-5 12 -5 32q0 21 12 59q-49 -51 -99 -85t-92 -34h-2q-38 0 -56 29q-11 17 -11 41q0 5 1 11q4 31 14 63t24 61t24 47q20 36 52 80t70 84q38 39 80 66t85 27q50 0 76 -37q13 17 25 27t21 10q13 0 21 -8t8 -22 q0 -11 -12 -37t-31 -60q-20 -34 -48 -76t-60 -83q-13 -28 -23 -55q-10 -28 -17 -50t-10 -40t-1 -26q14 4 38 24t50 49t51 61q26 32 46 59q19 25 38 49t33 42q8 8 18 9t19 -5z" unicode=""/>
<glyph glyph-name="aring" horiz-adv-x="444" unicode="" d="M399 607q-10 0 -17 -8t-7 -19q0 -10 7 -17.5t17 -7.5t16.5 7.5t6.5 17.5q0 11 -6.5 19t-16.5 8zM399 525q-23 0 -38.5 16t-15.5 39q0 24 15.5 40.5t38.5 16.5q22 0 37.5 -16.5t15.5 -40.5q0 -23 -15.5 -39t-37.5 -16zM37 50q24 0 53.5 18t62 47t65.5 66.5t64 77.5 q19 43 40 86t42 78q-2 8 -5 15q-14 21 -38 21t-54.5 -17.5t-63.5 -49t-65.5 -74t-60.5 -92.5q-42 -74 -49 -108t-7 -48q0 -11 3 -16q1 -2 3.5 -3.5t9.5 -0.5zM563.5 338.5q8.5 -7.5 8.5 -19.5q0 -9 -6 -16q-14 -17 -33 -41l-38 -48q-36 -48 -68.5 -87.5t-61 -68t-53 -43.5 t-46.5 -15h-3q-4 0 -11.5 1.5t-15 7.5t-13 18t-5.5 32q1 11 4.5 25.5t8.5 34.5q-51 -51 -100.5 -85t-91.5 -35h-3q-38 0 -56 29q-11 17 -11 41q0 5 2 23.5t12.5 50.5t24.5 61t24 47q21 36 53 81t70.5 84.5t81 66.5t84.5 27q50 0 76 -38q14 17 25.5 27.5t21.5 10.5 q12 0 20.5 -8.5t8.5 -21.5q0 -11 -11.5 -36.5t-32 -60.5t-48.5 -76t-60 -83q-25 -58 -39 -102t-14 -64q0 -4 1 -7q16 3 39.5 23.5t49.5 49.5t51.5 61.5t45.5 59.5q19 24 38 49t34 43q8 8 18 8.5t18.5 -7z"/>
<glyph glyph-name="ae" horiz-adv-x="815" unicode="" d="M42 51q24 1 54 19t61 46q32 28 65 66t64 77q18 45 40 87t42 78q0 9 -5 17q-12 19 -37 19q-24 0 -54 -18t-64 -48q-33 -32 -66 -74t-61 -93q-41 -74 -50 -117q-5 -24 -5 -39q0 -11 3 -16l3 -3t10 -1zM767 460q-24 0 -52 -16q-29 -16 -57 -41q-28 -26 -56 -60t-52 -71 q40 5 76 18q36 14 65 32t51 40t34 43q11 19 13 31t-1 17q-2 5 -10 6t-11 1zM925 338q8 -8 8 -18t-7 -18q-45 -48 -100 -102t-113 -98t-117 -73t-112 -29q-22 0 -34 7t-19 15q-15 21 -15 53q0 17 5 40q-45 -54 -83 -85q-35 -29 -66 -29h-4q-4 0 -12 2t-14 8q-8 5 -14 17 t-5 32q2 23 12 60q-51 -51 -100 -85t-91 -35h-3q-39 0 -56 29q-11 18 -11 43v10q2 30 14 62q10 32 24 62t25 47q27 49 62 95t73 82t78 58t76 23q50 0 76 -37q14 17 26 27t21 10q12 0 20 -8t9 -21q0 -11 -12 -37t-32 -61q-20 -34 -48 -76t-61 -84q-12 -30 -22 -56t-17 -49 q-6 -23 -10 -41t-2 -26q16 4 39 24t49 49t52 61t45 60q19 26 37 48t32 39q1 0 1 1q27 36 57 68t60 57q32 24 62 38t59 14q31 1 46 -11t20 -21q8 -15 8 -34q-1 -5 -1 -11q-4 -26 -20 -55q-18 -29 -46 -57t-67 -50t-87 -38q-48 -14 -102 -15q-23 -43 -37 -81t-14 -63 q0 -16 4 -20l3 -3t10 -1q68 0 170 72t235 214q7 9 17 9t19 -8z"/>
<glyph glyph-name="ccedilla" horiz-adv-x="357" unicode="" d="M474 338q9 -7 9 -19q0 -10 -8 -17q-19 -20 -45 -48t-56 -58t-65 -58q-34 -30 -69 -55v-1l-45 -58q41 -1 58 -24q5 -7 9 -20q1 -3 0 -7q0 -11 -8 -26q-8 -17 -28 -35t-45 -34q-25 -14 -53 -24t-55 -10q-11 0 -19 7t-7 18q-1 11 7 19t19 7q21 0 44 9t42 21t33 25t17 21 q-5 2 -19 3h-6q-15 0 -41 -4q-18 -2 -26 13q-7 15 2 29l3 4q-43 -17 -83 -17q-21 0 -34 7t-19 15q-16 19 -16 53q0 32 16 78t42 94t62 96t76 86t79 60q40 23 77 23q28 1 44 -9t24 -20q13 -18 13 -43q0 -14 -4 -30q-1 -11 -11 -16t-20 -2q-11 3 -16 12t-2 20q6 19 -1 28 q-5 5 -13 7t-14 2q-28 0 -62 -22t-68 -55q-34 -34 -64 -77t-54 -86q-24 -44 -38 -82t-15 -64q0 -15 5 -20q1 0 3 -2t10 -2q33 0 69 16t75 40q38 24 75 56q36 32 70 63t62 61t48 51q8 9 18 9t18 -8z"/>
<glyph glyph-name="egrave" horiz-adv-x="366" unicode="" d="M277 621q-8 8 -8 18t8 18q9 8 19 8t18 -8l75 -77q7 -8 7 -18t-8 -18q-7 -8 -18 -8q-10 0 -18 8zM326 461q-24 1 -52 -15t-58 -42q-28 -26 -56 -61q-28 -34 -51 -70q41 5 77 18t64 31t50 40t34 44q12 16 14 30t-1 19q-3 4 -10 5t-11 1zM482 338q9 -9 9 -19q0 -9 -8 -16 q-45 -47 -99 -101t-113 -98t-117 -74q-58 -29 -112 -29q-21 0 -33 7t-19 15q-16 22 -16 53q0 32 16 78t42 94t62 96q36 46 75 84t79 61t78 23q30 0 45 -12t20 -20q9 -16 9 -35q0 -5 -1 -11q-3 -26 -20 -54q-17 -29 -46 -57q-29 -29 -68 -51t-87 -36t-102 -17 q-23 -41 -37 -79t-14 -64q0 -16 5 -21q1 -1 3 -2q4 -2 9 -2q69 0 170 72t234 214q8 9 18 9t18 -8z"/>
<glyph glyph-name="eacute" horiz-adv-x="366" unicode="" d="M294 527q-17 0 -24 17q-4 11 1 20t15 13l102 34q4 2 9 2t11 -3q10 -5 13 -15t-1 -19t-16 -13l-102 -35q-2 -1 -8 -1zM326 461q-24 0 -52 -16t-56 -42t-57 -60q-28 -34 -52 -71q41 5 77 18q36 14 64 32t50 40t35 43q11 17 13 31t-1 18q-3 5 -10 6t-11 1zM483 338 q9 -7 9 -19q0 -10 -7 -18q-45 -48 -100 -101q-55 -54 -113 -98t-117 -73t-112 -29q-23 0 -35 7t-18 15q-16 20 -16 53t16 79t42 94t62 96t75 84q39 38 79 61t78 23q30 0 45 -12t20 -21q9 -16 9 -35q0 -29 -21 -65q-17 -29 -45 -57t-68 -50q-39 -22 -87 -38q-48 -14 -103 -15 q-23 -43 -37 -81t-14 -63q0 -12 4 -20q1 -2 3 -3t11 -1q67 -1 169 71t235 215q8 9 18 9t18 -8z"/>
<glyph glyph-name="ecircumflex" horiz-adv-x="366" unicode="" d="M324 546q-11 -4 -20 0t-12 16q-4 10 0 20t16 13l101 33q4 1 8 1q9 0 15 -5q6 -4 8 -10t2 -12l-5 -86q-1 -10 -8 -17t-18 -7h-1q-11 1 -18 9t-7 19l4 48zM322 460q-24 0 -52 -16t-56 -42t-57 -60q-28 -34 -52 -71q41 5 77 19t64 31t50 39t35 44q11 18 13 31t-1 18 q-2 5 -9 6t-12 1zM479 338q9 -9 9 -20q0 -10 -7 -17q-45 -48 -100 -101t-113 -98t-116 -74t-113 -29q-21 0 -33 8t-19 16q-16 17 -16 52q0 33 16 79q17 46 43 94t62 95t74 85q39 38 79 60q40 23 77 23q32 1 46 -11t20 -21q9 -16 9 -35q0 -29 -21 -66q-17 -29 -46 -57 q-29 -29 -68 -51q-38 -22 -86 -36t-103 -16q-23 -42 -37 -80t-14 -63q0 -13 4 -21q1 -1 3 -2t10 -1q69 -1 171 71t233 214q8 8 18 8t18 -6z"/>
<glyph glyph-name="edieresis" horiz-adv-x="366" unicode="" d="M345 550q-16 0 -24 11q-10 12 -10 26q0 15 10 27q5 4 11 8t13 4t13 -4t11 -8q10 -12 10 -27q0 -14 -10 -26q-10 -11 -24 -11zM406 520q-10 13 -10 26q0 10 2 16t8 12q5 5 11 8t14 3q7 0 13 -3t11 -8q10 -12 10 -28q0 -15 -10 -27q-5 -5 -11 -8t-13 -3q-8 0 -14 3t-11 8v1 zM325 460q-24 0 -52 -16q-29 -16 -57 -42t-56 -60t-52 -71q41 5 77 19q37 14 65 32t50 40t34 42q11 18 13 31t-1 18q-2 5 -10 6t-11 1zM482 338q9 -9 9 -19q0 -9 -8 -17q-45 -48 -99 -102t-113 -98q-58 -44 -117 -73t-112 -29q-22 0 -34 8t-18 15q-16 19 -16 52t16 79t42 94 t62 95t75 85t79 60q40 23 77 23q31 0 45 -12t21 -21q8 -16 8 -34q0 -29 -21 -66q-18 -29 -46 -57q-28 -29 -67 -51t-87 -36t-102 -16q-23 -42 -37 -80t-14 -63q0 -16 4 -20q2 -4 13 -4q68 0 170 72t234 214q8 9 18 9t18 -8z"/>
<glyph glyph-name="igrave" horiz-adv-x="205" unicode="" d="M188 604q-8 8 -8 18t8 18t17 8q1 0 6 -0.5t13 -7.5l75 -76q8 -8 8 -18t-8 -18q-7 -8 -18 -8t-18 8zM324 336q10 -7 10 -20q0 -8 -6 -15q0 -1 -19.5 -23.5t-50 -56t-68 -72t-74.5 -72t-69.5 -55.5t-53.5 -22q-19 0 -27.5 7.5t-12.5 13.5q-6 10 -6 23q0 12 7.5 35t42.5 82 l27 47q42 71 84 144t84 147q6 9 12.5 10.5t10.5 1.5q6 0 12 -3q10 -5 12.5 -15t-2.5 -20q-42 -74 -84.5 -146.5t-84.5 -144.5l-27 -47q-21 -35 -30 -54t-11 -28q18 8 53 37t76 69t83 86t76 88q7 8 17.5 9t18.5 -6z"/>
<glyph glyph-name="iacute" horiz-adv-x="198" unicode="" d="M212 542q-18 0 -25 18q-3 10 1 19t16 13l100 34q4 1 8 1q6 -1 12 -3q9 -4 13 -15q1 -4 1 -7q0 -6 -2 -12q-4 -10 -15 -13l-101 -34q-2 -1 -4 -1h-4zM289 336q7 8 17 10t19 -6q10 -9 10 -21q0 -8 -6 -15q-1 -2 -21 -24t-50 -56t-68 -73t-76 -73t-70 -56q-33 -22 -54 -22 q-18 0 -27 8t-12 12q-6 10 -6 23q0 11 5 27q10 32 45 91l26 47q43 71 85 144t84 147q6 9 16 11q3 1 7 1q6 0 12 -3q9 -5 12 -15t-2 -19q-43 -74 -85 -147t-84 -145l-28 -46q-22 -36 -30 -55t-10 -28q18 8 54 38q36 31 77 71q43 40 85 86t75 88z"/>
<glyph glyph-name="icircumflex" horiz-adv-x="207" unicode="" d="M196 548q-11 -4 -20 1t-12 15q-4 11 1 20t14 12l103 34q4 2 9 2l15 -6q10 -9 10 -22l-8 -86q-2 -10 -8 -17t-17 -7h-2q-11 1 -17 9t-6 19l4 47zM325 337q10 -7 10 -21q0 -9 -6 -15q-1 -1 -20 -23t-49 -56t-68 -72t-75 -72t-70 -56t-54 -22q-17 0 -27 8t-12 12 q-6 11 -6 25q0 12 4 26q10 31 45 91q55 94 103 175t94 162q5 10 15 13q3 1 7 1q6 0 12 -4q9 -5 12 -15t-2 -20q-46 -80 -94 -162t-103 -176q-19 -36 -29 -55t-12 -28q19 7 54 37q34 30 76 70t84 86t75 87q7 7 17 9t19 -5z"/>
<glyph glyph-name="idieresis" horiz-adv-x="209" unicode="" d="M217 544q-15 0 -25 11q-9 10 -9 26t9 27q11 11 25 11q15 0 24 -11t9 -27t-9 -26q-8 -11 -24 -11zM278 515q-10 12 -10 26t10 26t24 12q13 0 25 -12q9 -11 9 -26q0 -16 -9 -27q-12 -12 -25 -12q-14 0 -24 12v1zM294 336q7 8 18 10t19 -6q9 -8 9 -20q0 -9 -6 -16 q0 -2 -20 -24t-50 -56t-69 -73q-37 -39 -75 -73t-71 -56t-54 -22q-18 0 -27 8t-13 13q-6 10 -6 23q0 12 5 28q10 32 45 90q55 92 103 174t92 162q6 10 16 12q4 1 6 0q7 0 13 -3q9 -5 12 -15t-2 -19q-45 -81 -93 -162t-103 -175q-21 -34 -30 -54t-11 -28q18 6 54 36t76 70 q42 40 85 88q43 46 77 88z"/>
<glyph glyph-name="ntilde" horiz-adv-x="463" unicode="" d="M294 583q-8 -5 -18 -3t-17 10q-5 10 -3 20t10 15q25 17 43 20t23 3q23 0 34 -14t17 -27q3 -5 7 -11t5 -7t9 1t24 13q9 6 19 4t17 -10q6 -9 4 -19t-10 -17q-35 -24 -60 -24q-17 0 -30 9q-11 8 -18 18t-12 19q-2 5 -4 9t-5 6q-1 -1 -11 -4t-24 -11zM579 338q9 -9 9 -20 q0 -8 -6 -15q-14 -15 -32 -35t-35 -41q-33 -38 -67 -78t-66 -73t-61 -54q-28 -21 -47 -22h-5q-25 0 -37 10q-12 12 -13 35q0 16 8 38t22 48q14 27 32 55t38 58q19 30 39 60t35 58q15 27 25 50t9 38q0 10 -19 10q-18 0 -44 -18t-57 -46t-65 -66t-67 -79q-34 -41 -66 -81 t-59 -76q-21 -26 -39 -48t-30 -38l-1 2q-6 -8 -14 -10t-16 3q-8 3 -12 13q-2 4 -2 9t2 11q16 32 42 82t54 107q20 37 40 76t39 75t35 68t29 54q9 13 21 13q6 0 14 -3q8 -4 12 -14t-1 -20q-23 -42 -56 -106t-68 -129q40 49 83 97t84 88q42 39 78 63t64 24q38 0 54 -16t16 -45 q0 -21 -10 -48q-10 -28 -26 -58t-38 -62q-21 -32 -42 -66q-18 -27 -35 -53q-17 -27 -29 -49t-20 -40t-8 -27q0 -2 0 1t2 3q10 -1 32 19t52 50q28 30 60 68q32 36 60 71l36 40t32 37q8 8 18 9t17 -7z"/>
<glyph glyph-name="ograve" horiz-adv-x="409" unicode="" d="M335 600q-8 8 -8 18t8 17q8 8 18 8t18 -8l75 -77q7 -8 7 -18t-7 -17q-7 -8 -19 -8q-8 0 -18 8zM277 199q10 14 19 29t17 29q35 63 49 115q11 41 12 68q0 7 -1 14q-13 -16 -30 -46t-32 -67t-25 -75q-9 -32 -9 -57v-10zM228 174q-2 13 -2 28q0 17 2 36q6 36 18 76t31 78 q18 38 37 66q-36 -6 -72 -32t-69 -60q-31 -36 -59 -74t-46 -71q-35 -63 -42 -101q-3 -17 -3 -30q0 -16 5 -24q11 -17 43 -17q44 1 86 29t79 70q-5 12 -8 26zM511 340q10 -8 10 -20q0 -8 -5 -15l-17 -23q-27 -38 -53 -70t-48 -56q-24 -24 -46 -38t-45 -13q-17 0 -34 7 q-44 -49 -95 -81t-107 -32q-39 0 -59 14t-28 28q-13 21 -13 49q-1 24 7 50q8 28 20 55t26 51q8 12 24 38t40 58t54 64t65 58q35 25 73 38q25 8 52 8q14 0 28 -2q3 3 6 3q9 3 16 3q18 0 29 -18q14 -23 14 -57q0 -31 -9 -65q-8 -36 -24 -73t-34 -69q-23 -40 -49 -76 q13 0 33 18t41 42t41 50t34 46l18 23q6 8 16 10t19 -5z"/>
<glyph glyph-name="oacute" horiz-adv-x="433" unicode="" d="M272 531q-19 0 -24 18q-2 10 2 19t14 12l101 34q4 2 9 2q4 0 10 -3q10 -5 13 -15t-1 -19t-16 -13l-100 -33q-4 -2 -8 -2zM375 450q-11 -14 -23 -40t-24 -56q-12 -31 -20 -64t-9 -62q4 8 8 14t8 14q35 62 49 114q12 43 12 69q0 6 -1 11zM251 180q-3 16 -3 34q0 14 2 30 q4 36 14 76q10 38 26 74q14 36 31 65q-34 -5 -69 -27q-36 -22 -68 -56t-61 -74q-29 -41 -52 -81q-35 -63 -41 -101q-3 -16 -3 -29q0 -17 5 -25q9 -16 43 -16q49 0 95 34t85 82q-4 7 -4 14zM537 340q10 -7 10 -21q0 -8 -5 -14l-16 -23q-26 -38 -52 -70t-50 -56t-46 -36 q-22 -14 -45 -14q-29 0 -50 15q-43 -51 -97 -87t-111 -35q-39 -1 -59 13t-28 28q-13 22 -13 50q0 24 7 50q7 28 19 54q12 27 26 51q9 17 27 45t42 60t54 64t64 54q34 24 72 36q23 7 47 7q15 0 30 -3l6 3q8 3 15 3q18 0 29 -18q14 -22 14 -54t-9 -68t-25 -74t-34 -69 q-10 -17 -21 -35t-23 -34q6 -6 18 -6q14 0 34 17t41 41q22 24 42 51t35 47l16 23q7 8 17 10t19 -5z"/>
<glyph glyph-name="ocircumflex" horiz-adv-x="431" unicode="" d="M336 540q-10 -6 -20 -4t-15 11q-6 9 -4 19t10 16l90 59q6 5 13 5q5 0 10 -3q13 -5 15 -18l17 -84q2 -11 -4 -19t-17 -11h-4q-20 0 -25 20l-9 47zM376 451q-12 -15 -24 -41t-24 -56q-12 -31 -20 -64t-9 -62q9 15 16 29q35 61 49 113q12 43 13 70q0 6 -1 11zM251 181 q-3 16 -3 34q0 15 2 31q4 36 14 74t26 74q15 36 31 64q-37 -4 -73 -29t-70 -61q-33 -36 -60 -74q-27 -40 -45 -73q-36 -63 -43 -101q-3 -17 -3 -29q0 -16 5 -24q9 -16 44 -16q24 0 48 9t46 25q22 17 44 37t41 44q-2 5 -4 15zM537 340q10 -9 10 -21q0 -8 -5 -15l-21 -29 q-22 -30 -45 -60t-47 -54q-23 -23 -47 -39t-47 -16q-32 0 -51 16q-45 -52 -98 -87t-110 -35q-40 0 -60 14t-28 28q-13 21 -13 49q-1 23 7 49q8 28 20 55t26 51q7 12 23 38t40 58t54 64t65 58q36 25 74 38q25 8 51 8q14 0 28 -2l6 3q8 3 16 3q17 0 28 -18q14 -23 14 -57 q0 -31 -9 -65q-8 -36 -24 -73t-34 -69q-10 -17 -21 -35t-24 -35q6 -5 20 -5q13 -1 32 15t39 38t40 50q20 26 35 47l21 28q6 7 16 9t19 -4z"/>
<glyph glyph-name="otilde" horiz-adv-x="431" unicode="" d="M301 573q-9 -7 -19 -5t-16 11t-4 19t10 16q22 16 40 20t26 3q22 -1 34 -15t17 -25q3 -5 6 -11t6 -7q1 -2 9 0t23 14q9 7 19 5t17 -10q7 -9 5 -19t-10 -17q-34 -25 -60 -25q-17 0 -30 9q-11 8 -18 18t-12 19q-2 5 -4 9t-4 5q0 -1 -10 -3t-25 -11zM299 230q3 6 7 12t8 13 q35 63 50 115q12 44 12 72v10q-12 -14 -24 -40t-23 -56t-19 -64q-8 -33 -11 -62zM251 181q-3 16 -3 34q0 15 2 31q4 36 14 74t26 76q15 36 32 63q-34 -4 -69 -26q-35 -21 -68 -55t-62 -75t-52 -81q-35 -64 -41 -102q-3 -16 -3 -28q0 -16 5 -25q9 -17 43 -17q23 0 47 10 t48 24q24 16 44 38q22 22 41 45q-1 3 -2 7t-2 7zM537 340q11 -8 11 -21q0 -8 -6 -15l-20 -27q-22 -31 -46 -61t-46 -54q-24 -24 -48 -40t-48 -16q-29 0 -50 16q-44 -50 -98 -86t-111 -36q-39 0 -59 14t-28 27q-13 22 -13 50q0 23 7 49q7 28 19 55t26 51q9 18 27 46t42 60 t54 63t64 55t72 34q22 7 45 7q16 0 32 -3q2 2 6 4q7 3 14 3q6 0 11 -2q12 -4 19 -16q14 -23 14 -55q1 -32 -9 -68t-26 -74t-34 -70q-9 -17 -20 -34t-23 -34q5 -3 9 -4t10 -1q14 -1 33 15t39 39t40 49t35 47l21 28q6 8 16 10t19 -5z"/>
<glyph glyph-name="odieresis" horiz-adv-x="431" unicode="" d="M384 549q-16 0 -26 11q-9 11 -9 26t9 26q12 12 26 12q13 0 23 -12q10 -10 10 -26t-10 -26q-8 -11 -23 -11zM444 520q-4 6 -7 12t-3 13q0 9 3 15t7 12q12 12 25 12q12 0 24 -12q9 -11 9 -27q0 -17 -9 -26q-12 -12 -24 -12q-13 0 -25 12v1zM369 451q-11 -13 -23 -39 t-24 -57t-20 -64t-10 -62l8 14t9 14q35 61 49 113q12 43 12 70q0 6 -1 11zM245 180q-4 17 -4 37q0 13 2 28q5 37 15 75t25 74t32 65q-34 -5 -69 -27q-36 -22 -68 -56t-62 -74q-30 -41 -52 -81q-36 -63 -42 -101q-3 -17 -2 -30q0 -15 4 -24q11 -16 44 -16q24 0 48 10t46 24 q22 16 44 37t42 45l-2 8t-1 6zM531 341q10 -9 10 -22q0 -8 -5 -14l-16 -23q-28 -38 -53 -70t-49 -56t-46 -38t-45 -13q-29 0 -51 17q-44 -52 -97 -88t-111 -35q-39 0 -59 14t-28 28q-13 21 -13 49q0 24 7 50q7 28 19 54q12 28 26 52q10 18 28 46t42 60t54 62t63 54t71 36 q23 7 48 7q15 0 29 -3q3 2 7 4q7 3 13 3q6 -1 12 -3q12 -4 19 -16q14 -23 14 -57q0 -31 -9 -65q-9 -36 -25 -73t-33 -69q-10 -17 -21 -35t-24 -36q8 -4 19 -4q14 1 34 17t41 40q22 24 42 51t35 47l16 23q7 9 17 11t19 -5z"/>
<glyph glyph-name="divide" horiz-adv-x="491" unicode="" d="M186 193q-16 0 -19 10t-3 16q0 12 7 25q10 22 27.5 37.5t34.5 15.5q16 0 18.5 -10t2.5 -16q0 -12 -6 -27q-11 -20 -28 -35.5t-34 -15.5zM232 448q-16 0 -19 10t-3 15q0 12 7 26q10 22 27.5 37t34.5 15q16 0 18.5 -10t2.5 -15q0 -12 -6 -27q-11 -21 -28 -36t-34 -15z M400 394q11 0 18 -7t7 -18q0 -10 -7 -17t-17 -7h-105h-55h-151q-9 0 -16.5 6.5t-7.5 17.5t7.5 17.5t16.5 7.5h163h62h85z"/>
<glyph glyph-name="oslash" horiz-adv-x="425" unicode="" d="M373 450q-11 -14 -24 -40t-24 -56t-19 -64q-8 -33 -10 -62q4 8 8 14t8 13q36 63 50 115q12 43 12 69q0 6 -1 11zM248 180q-3 15 -3 34q-1 13 1 27q4 35 14 71l-162 -259q42 7 82 39t72 73q-2 5 -4 15zM29 66q5 -6 12 -10l245 393q-30 -11 -60 -35t-59 -55 q-28 -31 -53 -67t-45 -72q-35 -63 -41 -101q-3 -17 -3 -29q0 -16 4 -24zM535 340q10 -6 10 -20q0 -8 -5 -15l-17 -23q-27 -38 -53 -70t-48 -56q-24 -24 -46 -38t-45 -13q-29 0 -50 16q-45 -52 -98 -87t-111 -35h-7l-34 -55q-8 -12 -22 -12q-8 0 -13 4q-10 6 -12 16t4 19 l26 41q-12 7 -18 14t-11 14q-12 20 -12 46t7 53t19 55t25 51q9 16 25 41t37 54q22 29 48 58t56 53t64 40q33 16 69 18l33 54q6 9 16 11q3 1 6 1q7 0 13 -4q9 -5 11 -15t-3 -19l-15 -25q17 -2 26 -17q13 -22 13 -54t-9 -68q-8 -36 -24 -73t-34 -69q-10 -17 -20 -35t-24 -35 q6 -5 19 -5t33 16t41 41q21 24 41 51t36 47l17 24q7 9 17 11t19 -6z"/>
<glyph glyph-name="ugrave" horiz-adv-x="433" unicode="" d="M249 597q-8 8 -7.5 18.5t8.5 18.5q8 7 18 7t18 -8l75 -77q7 -8 7 -18t-8 -18t-18 -8q-11 0 -18 9zM534 340q11 -7 11 -20q0 -8 -5 -15l-8 -12q-59 -81 -102.5 -137t-74.5 -90.5t-52.5 -50t-36.5 -15.5h-1q-34 0 -48 26q-8 14 -8 34q0 6 2 23.5t13 52.5q-27 -27 -53 -52 t-50.5 -43.5t-45.5 -30t-37 -11.5h-2q-24 0 -37 9t-19 19q-9 15 -9 37q0 11 4.5 35.5t26 72.5t55 105.5t73.5 122.5q18 29 33.5 56t22.5 40q5 10 14.5 13.5t18.5 -1.5t13 -14.5t-1 -19.5q-7 -14 -22.5 -41.5t-35.5 -59.5q-13 -21 -30.5 -50t-36 -61t-36 -65t-30 -61.5 t-16 -44.5t-3.5 -24q0 -9 3 -14q2 -3 6.5 -3.5t6.5 -0.5q15 0 44 23t65 57.5t75 77t73 81.5q22 41 42 72t28 45q22 34 37 55t25.5 32.5t18.5 15.5t16 4q20 0 30 -18q3 -8 2.5 -17t-7 -22.5t-21 -33.5t-39.5 -50l-3 -3q-3 -5 -26.5 -34t-58.5 -72q-48 -86 -63.5 -134.5 t-15.5 -66.5q0 -8 2 -11h4q9 3 26 19.5t38 41.5t44.5 55.5t45.5 60t40.5 55t30.5 41.5l9 12q6 8 16.5 9.5t18.5 -4.5z"/>
<glyph glyph-name="uacute" horiz-adv-x="434" unicode="" d="M321 528q-17 0 -24 18q-3 10 1.5 19t14.5 12l101 34q4 2 9 2t12.5 -4t10.5 -14q4 -10 -1 -19.5t-15 -12.5l-101 -33q-6 -2 -8 -2zM538 340q11 -7 11 -20q0 -8 -5 -15l-10 -13q-59 -81 -102.5 -137t-74.5 -90t-51.5 -49.5t-35.5 -15.5q-36 0 -49 27q-8 14 -8 34 q0 6 2 23.5t13 52.5q-27 -28 -53.5 -53t-50.5 -43.5t-45 -30t-37 -11.5h-2q-25 0 -37.5 9.5t-18.5 19.5q-8 15 -8 36q0 11 4.5 35.5t26 72t54.5 105.5t73 123q17 29 34 56t23 41q5 9 12 11.5t11 2.5q5 0 11 -2q10 -5 13.5 -15t-1.5 -20q-8 -15 -24.5 -42.5t-35.5 -58.5 q-13 -21 -30.5 -50t-36 -61.5t-36 -65t-29.5 -61t-16 -45t-4 -23.5q0 -8 3 -14q2 -2 6.5 -2.5t6.5 -0.5q15 0 44 23t65 57.5t75 77t73 81.5q22 40 41.5 71t27.5 44l4 5q19 31 33 50.5t24.5 31t18.5 16t16 4.5q20 0 30 -17q3 -6 3 -14q0 -12 -10.5 -32.5t-52.5 -71.5l-7 -7 q-7 -10 -29.5 -38.5t-54.5 -66.5q-47 -86 -63 -135t-16 -66q0 -7 2 -11q0 -1 4 -1q17 6 73.5 73.5t150.5 197.5l10 13q6 8 16.5 10t18.5 -5z"/>
<glyph glyph-name="ucircumflex" horiz-adv-x="431" unicode="" d="M300 536q-9 -5 -19.5 -3t-15.5 10q-6 9 -3.5 19.5t10.5 16.5l89 59q6 4 13 4q5 0 11 -2q12 -5 15 -18l16 -85q2 -10 -3.5 -18.5t-16.5 -10.5h-5q-20 0 -25 20l-9 47zM534 340q10 -7 10 -20q0 -8 -5 -14l-13 -19q-59 -81 -101.5 -136t-73 -88.5t-50.5 -48t-35 -14.5 q-36 2 -49 26q-8 14 -8 34q0 6 2 24t14 52q-27 -28 -53.5 -52.5t-51 -43.5t-45.5 -30t-36 -11h-2q-25 0 -38 9t-18 19q-9 15 -9 37q0 11 4.5 35t26 72t54.5 105.5t73 122.5q17 29 33.5 56.5t22.5 41.5q5 9 14.5 12.5t19.5 -1.5t13.5 -14.5t-1.5 -18.5q-7 -15 -23 -43 t-36 -59q-13 -21 -30.5 -50t-36 -61.5t-35.5 -65.5t-29.5 -61.5t-16 -44.5t-3.5 -24q0 -9 3 -14q2 -2 6.5 -2.5t6.5 -0.5q14 0 43 23t65 57.5t75 77t73 81.5q24 43 44.5 75t25.5 40l4 6q19 31 33 50.5t24.5 31t18.5 16t16 4.5q21 0 29 -18q4 -8 3 -18t-7.5 -23.5t-20.5 -32 t-35 -44.5q-5 -5 -6 -7v1q-8 -11 -30.5 -39.5t-54.5 -67.5q-22 -40 -38.5 -75.5t-26.5 -63.5t-13.5 -47t1.5 -26h3h1q8 3 24.5 19.5t37.5 40.5t43.5 53.5t44.5 58t40 53.5t30 41l13 19q7 8 17 10t19 -5z"/>
<glyph glyph-name="udieresis" horiz-adv-x="426" unicode="" d="M352 516q-9 10 -9 25q0 16 10 27q10 12 24 12t23 -12q10 -12 10 -27q0 -14 -10 -27q-8 -10 -23 -10q-14 0 -24 10zM292 545q-16 0 -24 11q-10 10 -10 26q0 17 10 26q10 12 24 12q7 0 12.5 -3.5t11.5 -8.5q9 -11 9 -26q0 -8 -2.5 -14.5t-6.5 -11.5q-11 -11 -24 -11z M536 340q10 -8 10 -21q0 -8 -5 -14l-13 -19q-59 -81 -101.5 -136t-72.5 -88t-50.5 -47.5t-35.5 -14.5h-1q-33 0 -48 26q-7 13 -7 32q0 7 2 25t13 53q-27 -27 -53.5 -52t-51 -43.5t-45.5 -30t-37 -11.5h-2q-24 0 -37 9t-19 19q-8 15 -8 36q0 11 4.5 35.5t26 72.5t54.5 105.5 t73 122.5q18 29 34 56t23 41q5 9 14.5 13t18.5 -1q10 -5 13.5 -14.5t-0.5 -19.5q-8 -15 -24.5 -42.5t-35.5 -59.5q-13 -21 -30.5 -50t-36 -61.5t-35.5 -65t-29 -61t-16 -45t-4 -23.5q0 -8 3 -14q1 -2 5.5 -2.5t6.5 -0.5q15 0 44 23t65.5 57.5t75.5 77t73 81.5q22 40 41 71 t28 45l3 5q19 30 33 50t24.5 31.5t19 16t16.5 4.5q22 0 30 -18q4 -8 3.5 -17t-7 -23t-21.5 -33.5t-40 -48.5l-3 -3q-3 -5 -26 -34.5t-58 -71.5q-47 -86 -63 -134.5t-16 -66.5q0 -8 2 -11h4q9 3 25.5 19t37 40.5t43.5 53.5t44.5 58t40 54t30.5 41l13 19q5 8 16 10t19 -5z"/>
<glyph glyph-name="yacute" horiz-adv-x="474" unicode="" d="M82 -125q9 11 17.5 24t17.5 27q-22 -10 -44 -19.5t-48 -20.5l-52 -22q-32 -14 -45 -33t-13 -30q0 -10 14 -15t21 -5q32 0 64.5 24.5t67.5 69.5zM590 338q9 -8 9 -20q0 -9 -7 -16l-29 -32q-29 -32 -63.5 -68.5t-72.5 -73.5t-80.5 -70.5t-88.5 -59.5q-17 -9 -31 -16.5 t-28 -15.5q-18 -35 -37 -65.5t-40 -56.5q-42 -55 -84.5 -84.5t-87.5 -29.5q-25 0 -41 7.5t-25.5 17t-13.5 19t-5 14.5q-2 7 -2 15q0 27 23 57.5t67 50.5l52 22q45 19 80.5 34.5t76.5 36.5q17 32 32.5 66t32.5 69q-27 -28 -53.5 -53t-51 -43.5t-45.5 -30t-37 -12.5 q-26 0 -39.5 9.5t-19.5 20.5q-8 15 -8 36q0 11 4.5 36t26 73.5t55 106.5t73.5 124q18 29 32.5 52.5t20.5 37.5q5 10 14.5 13.5t19.5 -1.5t13.5 -14.5t-1.5 -19.5q-7 -16 -21.5 -39.5t-33.5 -55.5q-13 -21 -31 -50.5t-36.5 -62t-36 -66t-30 -62.5t-16.5 -45.5t-4 -23.5 q0 -8 3 -14q2 -2 6.5 -2.5t7.5 -0.5q15 0 46 24.5t69 61.5t78.5 81t74.5 84q15 29 30 55.5t32 51.5q22 35 36.5 55t24 30.5t16.5 13t15 2.5q20 0 30 -18q3 -8 3.5 -16t-5.5 -20.5t-20 -31.5t-39 -49l-3 -3q-2 -4 -22.5 -30t-52.5 -64q-19 -36 -36.5 -73t-35.5 -75 q-10 -21 -19.5 -42t-19.5 -41q42 25 81 56.5t75 66t68.5 69.5t59.5 65l30 32q7 8 17 8.5t18 -7.5zM259 604q-8 8 -8 17q0 11 8.5 19t18.5 8t17 -8l76 -78q8 -8 8 -18t-8 -18q-7 -7 -18 -7t-19 8z"/>
<glyph glyph-name="thorn" horiz-adv-x="507" unicode="" d="M232 50q24 1 51.5 21.5t57.5 54.5q-8 -1 -16.5 -2t-16.5 -2l-16 -2q-7 -1 -20.5 -3t-28 -6t-27 -9.5t-18.5 -12.5q-2 -3 -3.5 -8t0.5 -15q2 -11 15 -13.5t22 -2.5zM494 759q-16 -2 -42 -34t-60 -85q39 38 68 70t37 49h-2h-1zM624 338q9 -7 9 -19q0 -10 -7 -17l-6 -6 q-36 -41 -61.5 -68.5t-48 -45t-45 -27.5t-52.5 -17q-16 -23 -36 -47t-42.5 -44t-48 -33t-52.5 -14h-8q-36 0 -56.5 17.5t-24.5 38.5q-2 10 -2 19q0 23 13 42q19 26 54 37t75 16l15 2q26 3 46 6t37 6q8 12 15 24.5t15 26.5q21 39 35 75t21 64.5t7 49.5t-6 30q-2 2 -4.5 4 t-10.5 2q-16 -1 -47.5 -24.5t-79.5 -75.5t-113 -135t-149 -201q-35 -67 -62.5 -120t-45.5 -80q-34 -55 -55 -74.5t-35 -19.5t-23 12q-4 6 -4 15t5 23.5t17 35.5t32 51q30 45 62 91.5t64 92.5q9 17 18 34.5t18 35.5q34 68 64.5 128.5t59.5 114.5q-38 -39 -73 -77t-64 -76 q-7 -8 -17 -9.5t-18 5.5q-8 6 -9.5 16.5t4.5 18.5q52 67 119.5 136t136.5 135q83 151 139.5 223.5t94.5 72.5h1q26 0 36.5 -9t15.5 -17q3 -7 3 -16q0 -11 -7 -28t-32.5 -48t-68.5 -73t-103 -99q-9 -9 -19 -18.5t-20 -18.5q-27 -50 -54 -101t-53 -102q40 50 78 92t71.5 72.5 t61.5 48.5t49 19q40 0 59 -30q13 -21 13 -53.5t-9 -69.5t-24.5 -75.5t-33.5 -71.5q-2 -2 -2 -4q26 15 53.5 43t72.5 79l6 7q8 8 18 9t18 -7z"/>
<glyph glyph-name="OE" horiz-adv-x="1030" unicode="" d="M1016 711q-47 0 -83 -20.5t-61 -51.5q22 -10 47 -16.5t52 -8.5q10 -1 19 -1q28 0 54.5 8t37.5 28q7 9 7 18q0 8 -5 16q-7 14 -25 21t-43 7zM917 470q-14 0 -28 -1t-28 -4q19 -11 46 -11q21 0 29.5 5t9.5 7q-1 -1 -7.5 1.5t-21.5 2.5zM1154 362q11 -8 11 -21q0 -8 -6 -15 q-126 -158 -239.5 -242t-201.5 -84q-92 0 -143 41.5t-51 116.5q0 46 20 95t54.5 94.5t81.5 83.5t101 61q-2 9 -3.5 17.5t-1.5 18.5q0 22 6.5 46.5t17.5 47.5q-24 20 -40 43.5t-18 50.5q-2 11 5 19t18 9q11 2 18.5 -5t9.5 -18q3 -27 35 -54q31 41 78.5 68.5t109.5 27.5 q40 0 70 -14.5t44 -40.5q11 -20 11 -42q0 -24 -14 -45q-21 -32 -58.5 -45.5t-82.5 -13.5h-19q-31 2 -62.5 10.5t-60.5 22.5q-16 -35 -16 -67q0 -4 0.5 -8.5t1.5 -9.5q20 6 42 9.5t45 3.5q42 0 61.5 -19t19.5 -39q0 -29 -29 -47q-24 -16 -62 -16q-63 0 -99 38q-4 4 -5 6 q-50 -21 -91.5 -55t-72 -74t-47.5 -82t-17 -77q0 -33 13 -53.5t34 -32.5t46.5 -16t49.5 -4q37 0 83 20.5t97 59.5t106.5 96t113.5 130q7 8 17.5 9.5t18.5 -5.5zM440 636q14 27 20 51q-46 -20 -84 -50.5t-61 -61.5q-8 -11 -13.5 -21t-8.5 -19q-5 -11 -3 -15h6q21 0 41 9 t38 24q20 17 36.5 38t28.5 45zM657 584q-8 -32 -22.5 -68.5t-34.5 -76.5q-26 -50 -59.5 -101t-73 -99t-84 -90.5t-90 -74.5t-92.5 -52t-91 -22h-9q-68 0 -99 41q-19 22 -25 49t-6 52q0 11 1 23q3 35 13.5 75t27.5 83q27 69 68 139.5t90 131.5t102 106t103 62q10 3 19.5 -1.5 t13.5 -14.5q4 -11 -0.5 -20t-15.5 -13q-45 -15 -92.5 -57t-92 -98.5t-83 -122.5t-63.5 -130q-16 -39 -25.5 -76t-12.5 -69q-1 -11 -1 -20q0 -17 3 -35t15 -32q18 -22 66 -22q60 3 123.5 41.5t123.5 97.5t112.5 131t88.5 142q37 73 51 133q6 29 7 42t1 17q0 17 -6 29 q-11 25 -48 25q-25 0 -45 -4q-5 -46 -29 -92q-29 -58 -77 -100q-26 -21 -53.5 -32.5t-55.5 -11.5h-5q-21 0 -33.5 8t-19.5 22q-5 11 -5 23q0 14 7 30q9 26 31 54q15 19 35 39.5t44.5 39t53 34t58.5 26.5q-5 22 -14 34q-7 9 -6 19.5t8.5 17t16.5 6.5q1 0 7 -0.5t14 -8.5 q18 -23 23 -55q11 2 22.5 3t22.5 1q38 0 61 -15.5t35 -42.5q9 -24 9 -55q0 -29 -8 -65z"/>
<glyph glyph-name="oe" horiz-adv-x="778" unicode="" d="M296 229q5 7 8 13t7 13q35 63 49 110.5t14 75.5q0 5 -1 10q-11 -14 -23.5 -39.5t-24 -56.5t-20 -64t-9.5 -62zM248 180q-3 16 -3 34q0 15 3 41t13.5 64.5t25.5 75t32 64.5q-35 -4 -69.5 -26t-67.5 -55.5t-62 -74.5t-52 -82q-35 -63 -40 -90.5t-5 -40.5q0 -16 5 -24 q10 -16 44 -16q24 0 47.5 9.5t46.5 25t44.5 36.5t41.5 45q-2 4 -4 14zM734 459q-24 0 -52 -15.5t-56.5 -42t-56.5 -60.5t-52 -70q41 5 76.5 18t64.5 31t50.5 39.5t34.5 43.5q11 18 13 31t-1 18t-10 6t-11 1zM892 339q9 -9 9 -19q0 -9 -7 -17q-45 -48 -100 -101.5 t-113.5 -98.5t-117.5 -74t-112 -29q-21 0 -33.5 7.5t-18.5 15.5q-16 21 -16 52q0 23 9 55q-15 -11 -30.5 -18t-30.5 -7q-30 0 -50 17q-45 -52 -98.5 -87.5t-110.5 -35.5q-39 0 -59 14t-28 28q-13 21 -13 49q0 24 6.5 50.5t19 54t25.5 51.5q10 17 28 45.5t42 60t54 62.5 t64 54.5t64.5 33t54.5 9.5q15 0 30 -3l6 3q7 3 14 3q6 0 14.5 -3t16.5 -14q13 -23 13 -55.5t-9 -69t-25.5 -73.5t-34.5 -69q-9 -17 -19.5 -34.5t-23.5 -34.5q5 -3 9.5 -4t9.5 -1q13 0 31.5 15t38.5 37.5t39.5 48t35.5 46.5q27 40 59 77.5t65.5 66t67.5 45.5t66 17 q30 0 44.5 -11.5t19.5 -20.5q9 -16 9 -35q0 -29 -21 -65q-17 -28 -45.5 -56t-67 -50.5t-86.5 -37t-102 -15.5q-23 -42 -37 -79.5t-14 -63.5q0 -13 4 -21q1 0 3.5 -1.5t9.5 -1.5q69 0 171 72.5t235 214.5q7 8 17 8t18 -7z"/>
<glyph glyph-name="Scaron" horiz-adv-x="636" unicode="" d="M813 860q2 -5 2 -9q0 -5 -3 -11q-5 -10 -15 -13l-104 -34q-4 -2 -8 -2q-9 0 -16 6q-5 4 -7 10t-3 12l7 88q1 11 9 19q6 6 15 5h4q11 -1 18 -9t6 -19l-4 -49l67 22q9 4 19 -1t13 -15zM452 594q52 2 100 6t84 14q36 8 58 22t21 34q0 15 -20 26q-26 16 -70 16q-39 0 -67 -8 t-48 -18q-42 -25 -54 -68q-2 -6 -3 -12t-1 -12zM720 740q23 -12 35 -30t12 -40q1 -36 -25 -60t-69 -38t-99 -20t-118 -10q8 -28 22 -58t30 -59l8 -14t8 -15q44 -85 44 -160q0 -65 -32 -118q-28 -52 -88 -84q-32 -17 -70 -26t-84 -9q-72 0 -116 25t-65 62q-9 14 -13 32t-6 35 v8q0 13 2 26q4 17 10 32q15 39 46 65t73 29h11t11 -1q37 -3 62 -28q14 -12 22 -29t10 -38v-11t-1 -11q-1 -11 -9 -17t-19 -5q-12 1 -18 9t-5 18q1 3 1 7t-1 7q-2 22 -15 32q-13 12 -32 14h-6h-7q-25 -2 -45 -18t-30 -41q-8 -22 -8 -42q0 -24 11 -48q15 -25 48 -43t89 -17 q77 0 130 28q45 25 69 65q23 41 23 92q0 65 -37 136q-3 6 -7 12t-9 15q-19 35 -35 69t-24 72q-12 -2 -22 -2h-21q-40 -2 -78 -4q-37 -2 -71 -4t-62 -6t-45 -12q-35 -14 -55 -36t-24 -44q-2 -11 -2 -21q0 -7 1 -14q5 -16 14 -25q17 -17 49 -17q13 0 30 3q10 2 19 -4t11 -16 q2 -12 -3 -20t-16 -10q-22 -5 -40 -5q-17 1 -33 5q-32 8 -52 27q-11 11 -18 23t-11 26q-3 13 -3 27q0 16 4 32q8 35 35 67t75 50q42 16 116 22t157 8q11 1 21 1t20 1l2 20t4 21q9 30 28 55t50 42q26 16 61 24t80 8q59 0 95 -22z"/>
<glyph glyph-name="scaron" horiz-adv-x="372" unicode="" d="M64 51q56 1 94 31t61 77q-22 -2 -35 -3l-17 -1q-35 -3 -62 -11t-46 -18t-29 -20t-12 -18q-2 -14 7 -23q12 -14 39 -14zM366 521q-22 1 -34 -13t-19 -42q3 2 6 3t6 3q31 16 41 28t9 14q1 2 -3 4zM488 339q8 -7 9 -17t-6 -19q-29 -33 -57 -57t-54 -39t-52 -25t-51 -15 q-12 -35 -31 -65q-20 -30 -46 -53t-60 -36t-76 -13q-24 0 -44 8t-34 24q-19 21 -19 49q0 7 1 15q4 21 20 40q16 20 42 34t60 24t74 13h16q14 2 28 3t29 3l4 20t3 21q2 23 3 46t3 46q1 10 1 20t1 21l-21 -6q-23 -7 -43 -14t-43 -19q-22 -12 -46 -34q-24 -21 -54 -55 q-8 -9 -18 -9t-18 7q-8 9 -9 19t6 18q34 38 62 62t53 38t49 22t47 15q9 3 19 5t21 8q4 26 11 50q8 24 20 42t31 27q17 9 43 9h5q17 0 35 -12t23 -33q2 -9 1 -21t-9 -25q-9 -13 -25 -27t-44 -28l-22 -11t-21 -10q-3 -14 -3 -29t-1 -33q-2 -23 -3 -47t-3 -47q-1 -7 -1 -13 t-3 -12q37 10 77 36t84 76q8 8 18 9t18 -6zM381 600q-9 0 -15 6q-10 7 -10 22l7 86q1 12 9 18q7 6 15 5h3q11 -1 18 -9t6 -18l-4 -49l65 22q9 4 19 -1t13 -15q1 -4 1 -8q0 -6 -2 -11q-4 -9 -15 -12l-101 -34q-6 -2 -9 -2z"/>
<glyph glyph-name="Ydieresis" horiz-adv-x="643" unicode="" d="M528 771q-10 12 -10 27t11 26v1q4 5 11 8t14 3q13 0 24 -11q10 -13 10 -27q0 -15 -10 -27q-12 -12 -24 -12q-16 0 -25 12h-1zM467 801q-15 0 -24 11q-12 12 -12 27q0 17 12 27q10 12 24 12q8 0 13.5 -3.5t10.5 -8.5q10 -10 10 -27q0 -15 -10 -27q-11 -11 -24 -11z M300 -44q2 3 3.5 6.5t3.5 7.5q-245 -107 -245 -163q0 -3 1 -5q1 -4 11 -12.5t27 -8.5q56 0 103.5 45t95.5 130zM573 430q-20 -40 -38.5 -80.5t-35.5 -78.5t-31.5 -72t-26.5 -61q-9 -18 -16.5 -35.5t-14.5 -33.5q6 2 8 4q38 17 67.5 36t58.5 44.5t62 61.5t80 87l31 35 q8 8 18.5 8.5t18.5 -7.5q8 -7 8.5 -17.5t-6.5 -19.5l-32 -34q-47 -52 -81.5 -89t-65.5 -64.5t-63.5 -48t-74.5 -39.5q-8 -4 -19.5 -9t-26.5 -10q-4 -2 -14 -6q-10 -23 -18.5 -40t-15.5 -30q-55 -97 -114 -149t-130 -52q-35 0 -60 18.5t-30 43.5q-1 7 -1 14q0 27 23 56.5 t70 61t109 61t128 56.5q12 26 25 56t27 62q14 30 27 59.5t26 57.5q-48 -56 -96 -106t-90 -88t-77 -60.5t-58 -22.5q-30 0 -45 10t-22 21q-8 15 -8 34q0 7 2.5 25.5t19 56.5t43.5 85.5t63 106.5q28 46 58 98t52.5 100t30 76.5t7.5 43.5q0 17 -7 28q-13 25 -69 25 q-28 0 -63 -6.5t-67 -19.5t-57.5 -31.5t-34.5 -43.5q-6 -13 -6.5 -27t4.5 -25q5 -12 15.5 -22t26 -14.5t34.5 -4.5q4 0 18 0.5t45 11.5q10 3 19.5 -1.5t12.5 -15.5q4 -11 -0.5 -20t-15.5 -13q-41 -14 -74.5 -14t-59.5 9t-43.5 26t-25.5 38t-8 44q0 24 9 48q13 34 44.5 59 t70.5 41.5t80.5 24.5t75.5 8q86 0 115 -51q13 -23 13 -52q0 -11 -4 -38.5t-26.5 -79.5t-56 -110t-69.5 -119q-21 -36 -45 -76t-42.5 -76t-26 -58.5t-7.5 -33.5q0 -7 2 -11q2 -3 8 -4t14 -2q14 0 38.5 16.5t56.5 45t69.5 67t77 83t80 92t78.5 94.5q75 157 128 233.5t97 79.5 h3q6 0 12.5 -3.5t10.5 -8.5q6 -8 6 -17q0 -4 -2.5 -12.5t-9.5 -22.5q-8 -14 -25.5 -40.5t-43.5 -61.5t-58.5 -77.5t-68.5 -87.5z"/>
<glyph glyph-name="circumflex" horiz-adv-x="476" unicode="" d="M430.5 566q-7.5 -5 -15.5 -5q-3 0 -10 1.5t-13 10.5l-72 111l-91 -114q-7 -8 -13.5 -8.5t-7.5 -0.5q-9 0 -16 5q-10 9 -10 21q0 9 5 16l114 144q7 9 13 9.5t7 0.5q9 0 18 -5q3 -3 7 -11l90 -139q4 -7 4 -15q0 -3 -1 -9.5t-8.5 -11.5z"/>
<glyph glyph-name="tilde" horiz-adv-x="448" unicode="" d="M603 714q3 -5 3 -11v-6q-2 -9 -11 -14q-45 -25 -78 -33q-22 -5 -41 -5q-9 -1 -17 1q-25 4 -45 16t-37 25q-13 10 -27 18q-14 9 -32 11q-5 1 -9 0q-14 0 -31 -5q-23 -7 -54 -27q-8 -5 -17 -3t-14 10q-4 6 -4 13q0 12 10 18q41 28 71 36q23 6 42 6q6 0 12 -1q24 -3 42 -15 t37 -24q14 -10 29 -19q14 -9 34 -12q6 -1 14 -1q14 0 32 4q26 6 61 26q9 4 17 2t13 -10z"/>
<glyph glyph-name="quotesinglbase" horiz-adv-x="243" unicode="" d="M136 39q-1 0 -1 -1q-11 -15 -19 -28t-16 -24q-17 -25 -28 -42q-6 -8 -14 -10q-2 -1 -4 -1q-6 0 -10 4q-10 8 -10 17q0 5 3 11q5 7 11 15t12 19q-12 4 -12 21q0 13 10 29q12 20 32 32q17 10 31 10h5q17 -3 20 -17q1 -3 1 -5q0 -13 -11 -29v-1z"/>
<glyph glyph-name="quotedblleft" horiz-adv-x="481" unicode="" d="M206 605q-16 3 -19 17q-1 3 -1 5q0 13 12 29v1l1 1q11 15 19 28t16 24q16 25 28 42q5 8 13 10q2 1 4 1q6 0 11 -4q10 -7 10 -16q0 -6 -4 -12q-4 -7 -10 -15t-13 -19q13 -4 13 -21q0 -13 -10 -29q-13 -20 -33 -32q-17 -10 -32 -10h-5zM299 657q1 0 1 1q12 15 20 28t15 24 q17 25 28 42q5 8 13 10q2 1 5 1q6 0 10 -4q10 -8 10 -17q0 -5 -3 -11q-4 -7 -10 -15t-13 -19q12 -4 12 -21q0 -13 -10 -29q-12 -20 -32 -32q-17 -10 -31 -10h-5q-17 3 -20 17q-1 3 -1 5q0 13 11 29v1z"/>
<glyph glyph-name="quotedblright" horiz-adv-x="341" unicode="" d="M429 762q9 -1 11 -9.5t2 -11.5q0 -13 -11 -29v-1l-1 -1q-11 -15 -19.5 -28t-16.5 -24q-16 -25 -28 -42q-5 -8 -10 -9.5t-7 -1.5q-5 0 -10 4q-11 8 -11 17q0 5 4 11q5 7 10.5 15t12.5 19q-12 4 -12 21q0 13 10 29q12 20 31 31t33 11q3 0 12 -1zM330 711q-1 0 -1 -1 q-11 -15 -19.5 -28t-15.5 -24q-8 -12 -15.5 -23t-13.5 -19q-5 -8 -10.5 -9.5t-7.5 -1.5q-5 0 -9 4q-11 8 -11 17q0 5 4 11q5 7 10.5 15t12.5 19q-12 4 -12 21q0 13 10 29q12 20 30 31t33 11q2 0 12 -1t11.5 -9.5t1.5 -11.5q0 -13 -10 -29v-1z"/>
<glyph glyph-name="fraction" horiz-adv-x="313" unicode="" d="M477 738q0 -12 -14 -38q-15 -28 -40 -64t-56 -79t-61 -83q-36 -49 -68 -92t-47 -68q-17 -31 -37 -69q-20 -39 -41 -79l-42 -80t-39 -76l-32 -64t-20 -42q-4 -8 -14 -12l-8 -2q-5 0 -11 3q-9 5 -13 15q-2 4 -2 8q0 5 2 10q6 14 20 40t31 62q17 34 37 72t41 78q19 40 39 76 t36 66v4q2 2 4 6t5 8q29 54 59 106t60 101q26 43 52 81t50 68t43 48q20 18 34 20q5 1 9 1q15 0 20 -14q3 -5 3 -11z"/>
<glyph glyph-name="Euro" horiz-adv-x="738" unicode="" d="M708 645q8 11 8 22q3 9 -4 19q-7 11 -22.5 17.5t-37.5 6.5h-6q-38 -2 -79 -20.5t-82 -47.5q24 -14 52.5 -21t58.5 -11h14q36 0 61.5 9.5t36.5 25.5zM756 714q8 -12 11 -24.5t3 -26.5q-1 -12 -5.5 -24t-13.5 -23q-19 -28 -55.5 -43t-85.5 -15h-19q-41 2 -80 15t-71 35 q-26 -23 -50.5 -47.5t-45.5 -51.5h211q11 0 19 -7t8 -18t-8 -18.5t-19 -7.5h-253q-8 -14 -16.5 -26t-16.5 -26q-5 -6 -9 -13.5t-8 -13.5h248q11 0 19.5 -8t8.5 -19q0 -10 -8.5 -18.5t-19.5 -8.5h-276q-20 -42 -31.5 -81.5t-11.5 -73.5q0 -33 12 -58q10 -22 35 -39 q18 -10 42.5 -16t57.5 -6q29 0 60.5 8t60.5 24q30 15 58 36.5t50 48.5q7 10 18 10.5t20 -7.5q8 -6 8.5 -16.5t-5.5 -20.5q-55 -61 -126 -98q-35 -17 -71.5 -27.5t-72.5 -10.5q-40 0 -72 8.5t-56 23.5q-19 11 -32 26t-23 34q-8 19 -11.5 38.5t-3.5 41.5q0 36 9.5 75t26.5 80 h-95q-11 0 -19 8.5t-8 18.5q0 11 8 19t19 8h121q6 14 14.5 27.5t17.5 27.5q4 6 7 12t8 12h-113q-11 0 -18.5 7.5t-7.5 18.5t7.5 18t18.5 7h150q57 74 123 131q-15 17 -24.5 35.5t-11.5 38.5q-1 11 5.5 19.5t17.5 9.5q11 0 19.5 -6.5t9.5 -17.5q1 -12 7.5 -23t17.5 -22 q51 38 102.5 62t99.5 26h11q37 0 63 -13t40 -35z"/>
</font>
</defs>
</svg>
