<?xml version="1.0" encoding="utf-8"?>
<!-- Generator: Adobe Illustrator 19.1.0, SVG Export Plug-In . SVG Version: 6.00 Build 0)  -->
<svg version="1.1" id="Layer_1" xmlns="http://www.w3.org/2000/svg" xmlns:xlink="http://www.w3.org/1999/xlink" x="0px" y="0px"
	 width="325.9px" height="53px" viewBox="127 10 325.9 53" style="enable-background:new 127 10 325.9 53;" xml:space="preserve">
<metadata><?xpacket begin="﻿" id="W5M0MpCehiHzreSzNTczkc9d"?>
<x:xmpmeta xmlns:x="adobe:ns:meta/" x:xmptk="Adobe XMP Core 5.6-c067 79.157747, 2015/03/30-23:40:42        ">
   <rdf:RDF xmlns:rdf="http://www.w3.org/1999/02/22-rdf-syntax-ns#">
      <rdf:Description rdf:about=""/>
   </rdf:RDF>
</x:xmpmeta>
                                                                                                    
                                                                                                    
                                                                                                    
                                                                                                    
                                                                                                    
                                                                                                    
                                                                                                    
                                                                                                    
                                                                                                    
                                                                                                    
                                                                                                    
                                                                                                    
                                                                                                    
                                                                                                    
                                                                                                    
                                                                                                    
                                                                                                    
                                                                                                    
                                                                                                    
                                                                                                    
                           
<?xpacket end="w"?></metadata>
<style type="text/css">
	.st0{fill:#B0955F;}
</style>
<path class="st0" d="M451.4,57.8c-6.7,4.4-17.5,5.1-28.8,3.4c-13.4-2-28.3-7.6-37.4-9.5c-9.1-1.9-16.4-2-24.3,1.2
	c2-2.4,6.3-7.3,16.4-5.9c13.1,1.9,26.7,10.6,45.2,13.4c11.6,1.8,19.7,0.5,26-3.8c-0.4,0.1-1.6,0.1-2.4,0c-1.7-0.3,0.7-4.4,2.2-4.2
	C451.5,52.8,455,55.4,451.4,57.8z M393.6,61.3c-8.4-2.6-16.2-5.4-27-3.6c-5.6,0.9-10.8,3.1-16.3,3.8c-7.6,0.9-7.7-0.6-7.1-2.3
	c3.3-8.7-5.4-6.9-11.6-5.9c-4.5,4.6-11.4,9.7-16.4,9.7c-2,0-3-1.3-3.2-2.8c-0.8-5.1,8.3-8.7,17.1-10.1c2.9-3.3,1-7.8-9.7-7.8
	c-6.8,0-18.9,2.5-29.2,10.3c1.3,1.1,2.4,2.3,3.4,3.5c-1.2-1.2-2.5-2.2-3.8-3.2c-1.3,1-2.6,2.1-3.8,3.2c1-1.2,2.1-2.4,3.4-3.5
	c-10.3-7.7-22.4-10.3-29.2-10.3c-10.7,0-12.6,4.6-9.7,7.8c8.8,1.5,17.9,5,17.1,10.1c-0.2,1.4-1.2,2.8-3.2,2.8c-5,0-11.8-5-16.4-9.7
	c-6.2-1-14.9-2.9-11.6,5.9c0.6,1.6,0.5,3.1-7.1,2.3c-5.5-0.6-10.7-2.9-16.3-3.8c-10.8-1.8-18.6,1-27,3.6c7.6-3.9,17-8.2,29.5-4.8
	c5.9,1.6,17.6,5.5,16.5-1.4c-0.3-1.9,0.4-3.3,2.2-4.3c2.1-1.2,6.6-1.7,11.8-1.3c-1.8-4.3,1.6-9.9,13.9-9.4
	c10.2,0.4,22.1,5.4,29.8,12.1c7.7-6.7,19.6-11.7,29.8-12.1c12.4-0.5,15.7,5.1,13.9,9.4c5.1-0.4,9.7,0.1,11.8,1.3
	c1.7,1,2.5,2.4,2.2,4.3c-1.1,6.9,10.5,2.9,16.5,1.4C376.7,53.1,386,57.4,393.6,61.3z M315.4,59.7c0.6,2.7,9.1-3.2,10.9-5.6
	C320.4,55,314.8,57.2,315.4,59.7z M264.5,59.7c0.5-2.4-5.1-4.7-10.9-5.6C255.5,56.5,264,62.3,264.5,59.7z M321.8,34.7
	c-5.3-4.9-10.6-1.2-15.7,2c-4.2,2.6-10.9,3.4-14.1-3.4c3.1,4.5,10,4.6,12.8,1c2.5-3.2,1.5-8.4-1.8-10.3c-4.7-2.8-9.5,2.3-6,5.8
	c0.3-1.6,1.9-2.2,3.1-1.2c1.1,0.9,0.8,2.9-0.8,3.5c-4.9,1.7-8.8-6.9-2.2-10.9c6.5-3.9,15.8,3.8,10,13.2c5.3-5.2,11.3-8.2,15.7-4.6
	c3.1,2.5,2.6,7.6,6.4,9.3C325.6,39,324.2,37,321.8,34.7z M290,28.7c-0.5-4-1.2-6.2-2.6-8.7c-2.6-4.8,1.6-6,2.6-10
	c0.9,4,5.2,5.1,2.6,10C291.2,22.5,290.4,24.7,290,28.7z M293.5,43.9c-0.1,1.9-2.6,2-3.5,6.2c-0.9-4.2-3.4-4.3-3.5-6.2
	c-0.1-1.9,2.9-2.9,3.5-6.2C290.6,40.9,293.6,41.9,293.5,43.9z M280.7,32.1c-1.6-0.6-2-2.6-0.8-3.5c1.3-1,2.8-0.4,3.1,1.2
	c3.5-3.5-1.3-8.5-6-5.8c-3.3,2-4.3,7.2-1.8,10.3c2.9,3.7,9.8,3.5,12.8-1c-3.2,6.7-9.9,6-14.1,3.4c-5.1-3.1-10.4-6.9-15.7-2
	c-2.4,2.2-3.8,4.3-7.4,4.4c3.8-1.7,3.4-6.8,6.4-9.3c4.4-3.6,10.4-0.6,15.7,4.6c-5.8-9.4,3.5-17.1,10-13.2
	C289.5,25.2,285.5,33.8,280.7,32.1z M194.6,51.7c-9,1.9-24,7.5-37.4,9.5c-11.3,1.7-22.1,0.9-28.8-3.4c-3.6-2.3-0.1-5,3-5.4
	c1.5-0.2,3.9,4,2.2,4.2c-0.8,0.1-2,0.1-2.4,0c6.3,4.4,14.4,5.6,26,3.8c18.4-2.8,32.1-11.6,45.2-13.4c10.1-1.4,14.5,3.5,16.4,5.9
	C211,49.7,203.7,49.8,194.6,51.7z M292.2,58.4c-0.1,1-1.6,1.3-2.2,2.8c-0.6-1.5-2.1-1.8-2.2-2.8c-0.1-1,1.1-2,2.2-2.9
	C291,56.5,292.3,57.4,292.2,58.4z"/>
</svg>
