<?xml version="1.0" encoding="utf-8"?>
<!-- Generator: Adobe Illustrator 21.1.0, SVG Export Plug-In . SVG Version: 6.00 Build 0)  -->
<svg version="1.1" id="레이어_1" xmlns="http://www.w3.org/2000/svg" xmlns:xlink="http://www.w3.org/1999/xlink" x="0px"
	 y="0px" viewBox="0 0 3583 720" style="enable-background:new 0 0 3583 720;" xml:space="preserve">
<style type="text/css">
	.st0{fill:#D5B77B;}
	.st1{fill:#F3F3F3;}
	.st2{fill:#E0E0E0;}
	.st3{fill:#FFFFFF;}
	.st4{font-family:'RobotoCondensed-BoldItalic';}
	.st5{font-size:20px;}
	.st6{fill:#676767;}
	.st7{font-family:'RobotoCondensed-Regular';}
	.st8{font-size:17.2404px;}
	.st9{font-size:11px;}
	.st10{font-size:34px;}
	.st11{font-family:'RobotoCondensed-Bold';}
	.st12{font-size:36px;}
	.st13{display:none;}
	.st14{display:inline;fill:#929292;}
	.st15{font-size:48px;}
	.st16{fill:#E70000;}
</style>
<g id="Layer_1">
	<g id="side_b_week2">
		<g id="Group-2_15_">
			<path id="Rectangle-12_30_" class="st0" d="M3284,180h-36c-3.9,0-7,3.1-7,7v23c0,3.9,3.1,7,7,7h36c3.9,0,7-3.1,7-7v-23
				C3291,183.1,3287.9,180,3284,180z"/>
			<path id="Rectangle-12_31_" class="st1" d="M3563,178h-282c-2.8,0-5,2.2-5,5v30c0,2.8,2.2,5,5,5h282c2.8,0,5-2.2,5-5v-30
				C3568,180.2,3565.8,178,3563,178z"/>
			<g id="icon_17_">
				<g id="Mask_15_">
					<path id="path-31_1_" class="st2" d="M3563,178h-35v40h35l0,0c2.8,0,5-2.2,5-5v-30l0,0C3568,180.2,3565.8,178,3563,178z"/>
				</g>
			</g>
			<g>
				<text transform="matrix(1 0 0 1 3253.3325 205.0001)" class="st3 st4 st5">7</text>
			</g>
		</g>
		<g id="Group-2_16_" transform="translate(0.000000, 54.000000)">
			<path id="Rectangle-12_32_" class="st6" d="M3284,180h-36c-3.9,0-7,3.1-7,7v23c0,3.9,3.1,7,7,7h36c3.9,0,7-3.1,7-7v-23
				C3291,183.1,3287.9,180,3284,180z"/>
			<g>
				<text transform="matrix(1 0 0 1 3253.3325 205.3334)" class="st3 st4 st5">0</text>
			</g>
			<path id="Rectangle-12_33_" class="st1" d="M3563,178h-282c-2.8,0-5,2.2-5,5v30c0,2.8,2.2,5,5,5h282c2.8,0,5-2.2,5-5v-30
				C3568,180.2,3565.8,178,3563,178z"/>
			<g id="icon_19_">
				<g id="Mask_16_">
					<path id="path-33_1_" class="st2" d="M3563,178h-35v40h35l0,0c2.8,0,5-2.2,5-5v-30l0,0C3568,180.2,3565.8,178,3563,178z"/>
				</g>
			</g>
		</g>
		<g id="Group-2_19_" transform="translate(0.000000, 140.000000)">
			<path id="Rectangle-12_38_" class="st6" d="M3284,180h-36c-3.9,0-7,3.1-7,7v23c0,3.9,3.1,7,7,7h36c3.9,0,7-3.1,7-7v-23
				C3291,183.1,3287.9,180,3284,180z"/>
			<g>
				<text transform="matrix(1 0 0 1 3253.333 205.9996)" class="st3 st4 st5">0</text>
			</g>
			<path id="Rectangle-12_39_" class="st1" d="M3563,178h-282c-2.8,0-5,2.2-5,5v30c0,2.8,2.2,5,5,5h282c2.8,0,5-2.2,5-5v-30
				C3568,180.2,3565.8,178,3563,178z"/>
			<g id="icon_21_">
				<g id="Mask_19_">
					<path id="path-39_1_" class="st2" d="M3563,178h-35v40h35l0,0c2.8,0,5-2.2,5-5v-30l0,0C3568,180.2,3565.8,178,3563,178z"/>
				</g>
			</g>
		</g>
		<g id="Group-2_20_" transform="translate(0.000000, 194.000000)">
			<path id="Rectangle-12_40_" class="st0" d="M3284,180h-36c-3.9,0-7,3.1-7,7v23c0,3.9,3.1,7,7,7h36c3.9,0,7-3.1,7-7v-23
				C3291,183.1,3287.9,180,3284,180z"/>
			<g>
				<text transform="matrix(1 0 0 1 3251.8335 205.9996)" class="st3 st4 st5">7</text>
			</g>
			<path id="Rectangle-12_41_" class="st1" d="M3563,178h-282c-2.8,0-5,2.2-5,5v30c0,2.8,2.2,5,5,5h282c2.8,0,5-2.2,5-5v-30
				C3568,180.2,3565.8,178,3563,178z"/>
			<g id="icon_23_">
				<g id="Mask_20_">
					<path id="path-41_1_" class="st2" d="M3563,178h-35v40h35l0,0c2.8,0,5-2.2,5-5v-30l0,0C3568,180.2,3565.8,178,3563,178z"/>
				</g>
			</g>
		</g>
		<g id="Group-2_21_">
			<path id="Rectangle-12_42_" class="st6" d="M3284,463h-36c-3.9,0-7,3.1-7,7v23c0,3.9,3.1,7,7,7h36c3.9,0,7-3.1,7-7v-23
				C3291,466.1,3287.9,463,3284,463z"/>
			<g>
				<text transform="matrix(1 0 0 1 3254.3328 487.9998)" class="st3 st4 st5">0</text>
			</g>
			<path id="Rectangle-12_43_" class="st1" d="M3563,461h-282c-2.8,0-5,2.2-5,5v30c0,2.8,2.2,5,5,5h282c2.8,0,5-2.2,5-5v-30
				C3568,463.2,3565.8,461,3563,461z"/>
			<g id="icon_26_">
				<g id="Mask_21_">
					<path id="path-43_1_" class="st2" d="M3563,461h-35v40h35l0,0c2.8,0,5-2.2,5-5v-30l0,0C3568,463.2,3565.8,461,3563,461z"/>
				</g>
			</g>
		</g>
		<g id="Group-2_22_" transform="translate(0.000000, 54.000000)">
			<path id="Rectangle-12_44_" class="st0" d="M3284,463h-36c-3.9,0-7,3.1-7,7v23c0,3.9,3.1,7,7,7h36c3.9,0,7-3.1,7-7v-23
				C3291,466.1,3287.9,463,3284,463z"/>
			<g>
				<text transform="matrix(1 0 0 1 3254.3335 488.9998)" class="st3 st4 st5">7</text>
			</g>
			<path id="Rectangle-12_45_" class="st1" d="M3563,461h-282c-2.8,0-5,2.2-5,5v30c0,2.8,2.2,5,5,5h282c2.8,0,5-2.2,5-5v-30
				C3568,463.2,3565.8,461,3563,461z"/>
			<g id="icon_28_">
				<g id="Mask_22_">
					<path id="path-45_1_" class="st2" d="M3563,461h-35v40h35l0,0c2.8,0,5-2.2,5-5v-30l0,0C3568,463.2,3565.8,461,3563,461z"/>
				</g>
			</g>
		</g>
		<g id="Group-2_25_" transform="translate(0.000000, 140.000000)">
			<path id="Rectangle-12_50_" class="st6" d="M3284,463h-36c-3.9,0-7,3.1-7,7v23c0,3.9,3.1,7,7,7h36c3.9,0,7-3.1,7-7v-23
				C3291,466.1,3287.9,463,3284,463z"/>
			<g>
				<text transform="matrix(1 0 0 1 3254.3333 489)" class="st3 st4 st5">6</text>
			</g>
			<path id="Rectangle-12_51_" class="st1" d="M3563,461h-282c-2.8,0-5,2.2-5,5v30c0,2.8,2.2,5,5,5h282c2.8,0,5-2.2,5-5v-30
				C3568,463.2,3565.8,461,3563,461z"/>
			<g id="icon_30_">
				<g id="Mask_25_">
					<path id="path-51_1_" class="st2" d="M3563,461h-35v40h35l0,0c2.8,0,5-2.2,5-5v-30l0,0C3568,463.2,3565.8,461,3563,461z"/>
				</g>
			</g>
		</g>
		<g id="Group-2_26_" transform="translate(0.000000, 194.000000)">
			<path id="Rectangle-12_52_" class="st0" d="M3284,463h-36c-3.9,0-7,3.1-7,7v23c0,3.9,3.1,7,7,7h36c3.9,0,7-3.1,7-7v-23
				C3291,466.1,3287.9,463,3284,463z"/>
			<path id="Rectangle-12_53_" class="st1" d="M3563,461h-282c-2.8,0-5,2.2-5,5v30c0,2.8,2.2,5,5,5h282c2.8,0,5-2.2,5-5v-30
				C3568,463.2,3565.8,461,3563,461z"/>
			<g id="icon_32_">
				<g id="Mask_26_">
					<path id="path-53_1_" class="st2" d="M3563,461h-35v40h35l0,0c2.8,0,5-2.2,5-5v-30l0,0C3568,463.2,3565.8,461,3563,461z"/>
				</g>
			</g>
			<g>
				<text transform="matrix(1 0 0 1 3254.3333 488)" class="st3 st4 st5">7</text>
			</g>
		</g>
		<g>
			<rect id="Rectangle-16_13_" x="3126" y="223" class="st6" width="110" height="2"/>
			<rect id="Rectangle-16_14_" x="3101" y="294" class="st6" width="25" height="2"/>
			<rect id="Rectangle-16_15_" x="3126" y="365" class="st6" width="110" height="2"/>
			<rect id="Rectangle-16_16_" x="3126" y="223" class="st6" width="2" height="144"/>
			<rect id="Rectangle-16_17_" x="3126" y="506" class="st6" width="110" height="2"/>
			<rect id="Rectangle-16_18_" x="3101" y="577" class="st6" width="25" height="2"/>
			<rect id="Rectangle-16_19_" x="3126" y="648" class="st6" width="110" height="2"/>
			<rect id="Rectangle-16_20_" x="3126" y="506" class="st6" width="2" height="144"/>
		</g>
	</g>
	<g id="side_b_week3">
		<g id="winner_x5F_match8" transform="translate(477.000000, 124.000000)">
			<path id="Rectangle-12_48_" class="st0" d="M2330,463h-36c-3.9,0-7,3.1-7,7v23c0,3.9,3.1,7,7,7h36c3.9,0,7-3.1,7-7v-23
				C2337,466.1,2333.9,463,2330,463z"/>
			<g>
				<text transform="matrix(1 0 0 1 2298.6665 488.9999)" class="st3 st4 st5">7</text>
			</g>
			<path id="Rectangle-12_49_" class="st1" d="M2609,461h-282c-2.8,0-5,2.2-5,5v30c0,2.8,2.2,5,5,5h282c2.8,0,5-2.2,5-5v-30
				C2614,463.2,2611.8,461,2609,461z"/>
			<g id="icon_47_">
				<g id="Mask_18_">
					<path id="path-53_2_" class="st2" d="M2607.8,461h-35v40h35l0,0c2.8,0,5-2.2,5-5v-30l0,0C2612.8,463.2,2610.6,461,2607.8,461z"
						/>
				</g>
			</g>
		</g>
		<g id="winner_x5F_match7" transform="translate(477.000000, 70.000000)">
			<path id="Rectangle-12_46_" class="st6" d="M2330,463h-36c-3.9,0-7,3.1-7,7v23c0,3.9,3.1,7,7,7h36c3.9,0,7-3.1,7-7v-23
				C2337,466.1,2333.9,463,2330,463z"/>
			<g>
				<text transform="matrix(1.1601 0 0 1 2298.667 487.749)" class="st3 st7 st8">0</text>
			</g>
			<path id="Rectangle-12_47_" class="st1" d="M2609,461h-282c-2.8,0-5,2.2-5,5v30c0,2.8,2.2,5,5,5h282c2.8,0,5-2.2,5-5v-30
				C2614,463.2,2611.8,461,2609,461z"/>
			<g id="icon_45_">
				<g id="Mask_17_">
					<path id="path-45_2_" class="st2" d="M2609.1,460.8h-35v40h35l0,0c2.8,0,5-2.2,5-5v-30l0,0
						C2614.1,463,2611.9,460.8,2609.1,460.8z"/>
				</g>
			</g>
		</g>
		<g id="winner_x5F_match6_1_" transform="translate(477.000000, 124.000000)">
			<path id="Rectangle-12_36_" class="st0" d="M2330,180h-36c-3.9,0-7,3.1-7,7v23c0,3.9,3.1,7,7,7h36c3.9,0,7-3.1,7-7v-23
				C2337,183.1,2333.9,180,2330,180z"/>
			<g>
				<text transform="matrix(1 0 0 1 2300.333 206.6665)" class="st3 st4 st5">7</text>
			</g>
			<path id="Rectangle-12_37_" class="st1" d="M2609,178h-282c-2.8,0-5,2.2-5,5v30c0,2.8,2.2,5,5,5h282c2.8,0,5-2.2,5-5v-30
				C2614,180.2,2611.8,178,2609,178z"/>
			<g id="icon_43_">
				<g id="Mask_14_">
					<path id="path-41_2_" class="st2" d="M2608.5,177.5h-35v40h35l0,0c2.8,0,5-2.2,5-5v-30l0,0
						C2613.5,179.7,2611.3,177.5,2608.5,177.5z"/>
				</g>
			</g>
		</g>
		<g id="winner_x5F_match5_1_" transform="translate(477.000000, 70.000000)">
			<path id="Rectangle-12_34_" class="st6" d="M2330,180h-36c-3.9,0-7,3.1-7,7v23c0,3.9,3.1,7,7,7h36c3.9,0,7-3.1,7-7v-23
				C2337,183.1,2333.9,180,2330,180z"/>
			<g>
				<text transform="matrix(1 0 0 1 2300.3325 204)" class="st3 st4 st5">2</text>
			</g>
			<path id="Rectangle-12_35_" class="st1" d="M2609,178h-282c-2.8,0-5,2.2-5,5v30c0,2.8,2.2,5,5,5h282c2.8,0,5-2.2,5-5v-30
				C2614,180.2,2611.8,178,2609,178z"/>
			<g id="icon_37_">
				<g id="Mask_9_">
					<path id="path-31_2_" class="st2" d="M2608.8,177.8h-35v40h35l0,0c2.8,0,5-2.2,5-5v-30l0,0
						C2613.8,180,2611.6,177.8,2608.8,177.8z"/>
				</g>
			</g>
		</g>
		<g id="lines_2_">
			<rect id="Rectangle-16_21_" x="2644" y="293" class="st6" width="110" height="2"/>
			<rect id="Rectangle-16_22_" x="2619" y="436" class="st6" width="25" height="2"/>
			<rect id="Rectangle-16_23_" x="2644" y="578" class="st6" width="110" height="2"/>
			<rect id="Rectangle-16_24_" x="2644" y="293" class="st6" width="2" height="287"/>
		</g>
		<g id="dates_3_">
			<text transform="matrix(1 0 0 1 2849 235)" class="st6 st7 st9">MATCH 11 - Sunday 03/12/17 19:00 CET</text>
			<text transform="matrix(1 0 0 1 2854 517)" class="st6 st7 st9">MATCH 12 - Sunday 03/12/17 20:00 CET</text>
		</g>
	</g>
	<g id="side_b_week4">
		<g id="winner_x5F_match12" transform="translate(145.000000, 150.000000)">
			<path id="Rectangle-12_56_" class="st6" d="M2180,295h-36c-3.9,0-7,3.1-7,7v23c0,3.9,3.1,7,7,7h36c3.9,0,7-3.1,7-7v-23
				C2187,298.1,2183.9,295,2180,295z"/>
			<path id="Rectangle-12_57_" class="st1" d="M2459,293h-282c-2.8,0-5,2.2-5,5v30c0,2.8,2.2,5,5,5h282c2.8,0,5-2.2,5-5v-30
				C2464,295.2,2461.8,293,2459,293z"/>
			<g id="icon_53_">
				<g id="Mask_24_">
					<path id="path-53_3_" class="st2" d="M2460.8,292.9h-35v40h35l0,0c2.8,0,5-2.2,5-5v-30l0,0
						C2465.8,295.1,2463.6,292.9,2460.8,292.9z"/>
				</g>
			</g>
		</g>
		<g id="winner_x5F_match11" transform="translate(145.000000, 96.000000)">
			<path id="Rectangle-12_54_" class="st0" d="M2180,295h-36c-3.9,0-7,3.1-7,7v23c0,3.9,3.1,7,7,7h36c3.9,0,7-3.1,7-7v-23
				C2187,298.1,2183.9,295,2180,295z"/>
			<path id="Rectangle-12_55_" class="st1" d="M2459,293h-282c-2.8,0-5,2.2-5,5v30c0,2.8,2.2,5,5,5h282c2.8,0,5-2.2,5-5v-30
				C2464,295.2,2461.8,293,2459,293z"/>
			<g id="icon_51_">
				<g id="Mask_12_">
					<path id="path-41_3_" class="st2" d="M2458.5,293h-35v40h35l0,0c2.8,0,5-2.2,5-5v-30l0,0C2463.5,295.2,2461.3,293,2458.5,293z"
						/>
				</g>
			</g>
		</g>
		<text transform="matrix(1 0 0 1 2354 375)" class="st6 st7 st9">MATCH 14 - Sunday 10/12/17 20:00 CET</text>
	</g>
	<g id="final">
		
			<g id="loser_x5F_match14" transform="translate(1960.500000, 644.000000) scale(-1, 1) translate(-1960.500000, -644.000000) translate(1797.000000, 624.000000)">
			<path id="Rectangle-12_62_" class="st0" d="M281-1h36c3.9,0,7,3.1,7,7v23c0,3.9-3.1,7-7,7h-36c-3.9,0-7-3.1-7-7V6
				C274,2.1,277.1-1,281-1z"/>
			<path id="Rectangle-12_63_" class="st1" d="M2-3h282c2.8,0,5,2.2,5,5v30c0,2.8-2.2,5-5,5H2c-2.8,0-5-2.2-5-5V2C-3-0.8-0.8-3,2-3z
				"/>
			<g id="KbpKVuJz0mH3fe4sCG80Q_31_">
				<g id="Mask_31_">
					<path id="path-63_1_" class="st2" d="M2-3h35v40H2l0,0c-2.8,0-5-2.2-5-5V2l0,0C-3-0.8-0.8-3,2-3z"/>
				</g>
			</g>
			<text transform="matrix(-1 0 0 1 313 31)" class="st3 st7 st10">7</text>
		</g>
		<g id="loser_x5F_match13" transform="translate(1439.000000, 624.000000)">
			<path id="Rectangle-12_60_" class="st6" d="M287-1h36c3.9,0,7,3.1,7,7v23c0,3.9-3.1,7-7,7h-36c-3.9,0-7-3.1-7-7V6
				C280,2.1,283.1-1,287-1z"/>
			<path id="Rectangle-12_61_" class="st1" d="M8-3h282c2.8,0,5,2.2,5,5v30c0,2.8-2.2,5-5,5H8c-2.8,0-5-2.2-5-5V2C3-0.8,5.2-3,8-3z"
				/>
			<g id="KbpKVuJz0mH3fe4sCG80Q_30_">
				<g id="Mask_30_">
					<path id="path-61_1_" class="st2" d="M8-3h35v40H8l0,0c-2.8,0-5-2.2-5-5V2l0,0C3-0.8,5.2-3,8-3z"/>
				</g>
			</g>
			<text transform="matrix(1 0 0 1 304 30)" class="st3 st7 st10">5</text>
		</g>
		
			<g id="winner_x5F_match14" transform="translate(1960.500000, 440.000000) scale(-1, 1) translate(-1960.500000, -440.000000) translate(1797.000000, 420.000000)">
			<path id="Rectangle-12_58_" class="st0" d="M281-1h36c3.9,0,7,3.1,7,7v23c0,3.9-3.1,7-7,7h-36c-3.9,0-7-3.1-7-7V6
				C274,2.1,277.1-1,281-1z"/>
			<path id="Rectangle-12_59_" class="st1" d="M2-3h282c2.8,0,5,2.2,5,5v30c0,2.8-2.2,5-5,5H2c-2.8,0-5-2.2-5-5V2C-3-0.8-0.8-3,2-3z
				"/>
			<g id="KbpKVuJz0mH3fe4sCG80Q_29_">
				<g id="Mask_29_">
					<path id="path-59_1_" class="st2" d="M2-3h35v40H2l0,0c-2.8,0-5-2.2-5-5V2l0,0C-3-0.8-0.8-3,2-3z"/>
				</g>
			</g>
			<text transform="matrix(-1 0 0 1 314 30)" class="st3 st7 st10">7</text>
		</g>
		<g id="winner_x5F_match13" transform="translate(625.000000, 124.000000)">
			<path id="Rectangle-12_26_" class="st6" d="M1101,295h36c3.9,0,7,3.1,7,7v23c0,3.9-3.1,7-7,7h-36c-3.9,0-7-3.1-7-7v-23
				C1094,298.1,1097.1,295,1101,295z"/>
			<path id="Rectangle-12_27_" class="st1" d="M822,293h282c2.8,0,5,2.2,5,5v30c0,2.8-2.2,5-5,5H822c-2.8,0-5-2.2-5-5v-30
				C817,295.2,819.2,293,822,293z"/>
			<g id="KbpKVuJz0mH3fe4sCG80Q_13_">
				<g id="Mask_13_">
					<path id="path-27_1_" class="st2" d="M822,293h35v40h-35l0,0c-2.8,0-5-2.2-5-5v-30l0,0C817,295.2,819.2,293,822,293z"/>
				</g>
			</g>
			<text transform="matrix(1 0 0 1 1118 326)" class="st3 st7 st10">2</text>
		</g>
		<g id="lines">
			<rect id="Rectangle-16_25_" x="2139" y="436" class="st6" width="135" height="2"/>
			<rect id="Rectangle-16_12_" x="1297" y="436" class="st6" width="135" height="2"/>
		</g>
		<g id="texts">
			<text transform="matrix(1 0 0 1 1720 366)" class="st6 st7 st9">Sunday 17/12/17 20:00 CET</text>
			<text transform="matrix(1 0 0 1 1740.4043 348)" class="st6 st11 st12">FINAL</text>
			<text transform="matrix(1 0 0 1 1718.5615 590)" class="st6 st7 st9">Saturday 16/12/17 20:00 CET</text>
			<text transform="matrix(1 0 0 1 1701.3457 572)" class="st6 st11 st12">3RD PLACE</text>
		</g>
		<g id="tournament" transform="translate(1598.000000, 229.000000)" class="st13">
			<path id="Shape" class="st14" d="M95.9,165h-0.7l-1.2,5h1.3c1.7,0,2.7-1.6,2.7-3.2C98,165.3,96.8,165,95.9,165z"/>
			<path id="Shape_1_" class="st14" d="M90.3,179h-1.1l-1.2,6h1.3c1.5,0,2.7-1.7,2.7-3.9C92,179.7,91.4,179,90.3,179z"/>
			<path id="Shape_2_" class="st14" d="M29,217.4V212H9.1c-1.5,0-2.7,0.5-3.6,1.5c-1,1-1.5,2.2-1.5,3.6v14.8c0,1.5,0.5,2.7,1.5,3.6
				c1,1,2.2,1.5,3.6,1.5H29v-5.4H9.4v-14.3L29,217.4L29,217.4z"/>
			<path id="Shape_3_" class="st14" d="M52.8,237c1.4,0,2.6-0.5,3.6-1.5s1.5-2.2,1.5-3.6v-14.7c0-1.4-0.5-2.6-1.5-3.6
				s-2.2-1.5-3.6-1.5H38.1c-1.5,0-2.7,0.5-3.6,1.5c-1,1-1.5,2.2-1.5,3.6v14.7c0,1.5,0.5,2.7,1.5,3.6c1,1,2.2,1.5,3.6,1.5H52.8
				L52.8,237z M38.4,217.5h14.2v14.2H38.4V217.5z"/>
			<polygon id="Shape_4_" class="st14" points="84.6,220.3 84.6,237 90,237 90,212 84.4,212 76,222.1 67.5,212 62,212 62,237 
				67.4,237 67.4,220.3 76,230.5 			"/>
			<polygon id="Shape_5_" class="st14" points="108,222.1 99.6,212 94,212 94,237 99.4,237 99.4,220.3 108,230.5 116.6,220.3 
				116.6,237 122,237 122,212 116.5,212 			"/>
			<polygon id="Shape_6_" class="st14" points="127,237 150,237 150,231.6 132.4,231.6 132.4,227.2 146.6,227.2 146.6,221.8 
				132.4,221.8 132.4,217.5 150,217.5 150,212 127,212 			"/>
			<polygon id="Shape_7_" class="st14" points="181,237 181,212 175.4,212 167,222.1 158.5,212 153,212 153,237 158.3,237 
				158.3,220.3 167,230.5 175.5,220.3 175.5,237 			"/>
			<path id="Shape_8_" class="st14" d="M205.8,212h-14.7c-1.5,0-2.7,0.5-3.6,1.5c-1,1-1.5,2.2-1.5,3.6v14.8c0,1.5,0.5,2.7,1.5,3.6
				c1,1,2.2,1.5,3.6,1.5h14.7c1.4,0,2.6-0.5,3.6-1.5s1.5-2.2,1.5-3.6v-14.8c0-1.4-0.5-2.6-1.5-3.6C208.4,212.5,207.2,212,205.8,212z
				 M205.5,231.7h-14.2v-14.3h14.2V231.7z"/>
			<path id="Shape_9_" class="st14" d="M234.8,212H215v25h5.4v-8l0.1,0.1c0-0.1-0.1-0.2-0.1-0.2l7.1-0.1l6.9,8.2h5.5v-1.8l-5.4-6.4
				h0.3c1.4,0,2.6-0.5,3.6-1.5s1.5-2.2,1.5-3.6v-6.5c0-1.4-0.5-2.6-1.5-3.6C237.5,212.5,236.2,212,234.8,212z M234.6,223.4h-14.2
				v-5.9h14.2V223.4z"/>
			<path id="Shape_10_" class="st14" d="M269,237v-19.8c0-1.4-0.5-2.6-1.5-3.6s-2.2-1.5-3.7-1.5h-14.7c-1.5,0-2.7,0.5-3.6,1.5
				c-1,1-1.5,2.2-1.5,3.6V237h5.4v-8.1h14.2v8.1H269L269,237z M249.4,223.6v-6.1h14.2v6.1H249.4z"/>
			<polygon id="Shape_11_" class="st14" points="296,212 271,212 271,217.5 280.8,217.5 280.8,237 286.2,237 286.2,217.5 296,217.5 
							"/>
			<rect id="Rectangle-path" x="300" y="212" class="st14" width="5" height="25"/>
			<polygon id="Shape_12_" class="st14" points="334.7,212 324,230.2 313.3,212 307,212 321.7,237 326.3,237 341,212 			"/>
			<polygon id="Shape_13_" class="st14" points="366,217.5 366,212 343,212 343,237 366,237 366,231.6 348.4,231.6 348.4,227.2 
				362.6,227.2 362.6,221.8 348.4,221.8 348.4,217.5 			"/>
			<polygon id="Shape_14_" class="st14" points="23.5,275 23.5,249.9 36,249.9 36,243 4,243 4,249.9 16.5,249.9 16.5,275 			"/>
			<path id="Shape_15_" class="st14" d="M44.6,275h18.9c1.8,0,3.3-0.6,4.6-1.9c1.3-1.3,1.9-2.8,1.9-4.6v-18.9c0-1.8-0.6-3.3-1.9-4.6
				c-1.3-1.3-2.8-1.9-4.6-1.9H44.6c-1.9,0-3.4,0.6-4.7,1.9s-1.9,2.8-1.9,4.7v18.9c0,1.9,0.6,3.4,1.9,4.7
				C41.3,274.4,42.8,275,44.6,275z M44.9,249.9H63v18.2H44.9V249.9z"/>
			<path id="Shape_16_" class="st14" d="M82.6,275h18.9c1.8,0,3.3-0.6,4.6-1.9c1.3-1.3,1.9-2.8,1.9-4.6v-25.4h-7v25H82.9V243H76
				v25.4c0,1.9,0.6,3.4,1.9,4.7C79.2,274.4,80.7,275,82.6,275z"/>
			<path id="Shape_17_" class="st14" d="M112,275h6.9v-10.3l0.1,0.1c0-0.2-0.1-0.3-0.1-0.3l9.2-0.1l8.8,10.6h7.1v-2.4l-6.9-8.2h0.3
				c1.8,0,3.3-0.6,4.7-1.9c1.3-1.3,1.9-2.8,1.9-4.6v-8.3c0-1.8-0.6-3.3-1.9-4.6c-1.3-1.3-2.9-1.9-4.7-1.9H112V275z M118.9,249.8H137
				v7.6h-18.1V249.8z"/>
			<polygon id="Shape_18_" class="st14" points="149,275 155.9,275 155.9,253.6 173.9,275 181,275 181,243 174,243 174,264.4 
				156.1,243 149,243 			"/>
			<path id="Shape_19_" class="st14" d="M192.6,243c-1.9,0-3.4,0.6-4.7,1.9s-1.9,2.8-1.9,4.7V275h6.9v-10.3H211V275h7v-25.4
				c0-1.8-0.6-3.3-1.9-4.6c-1.3-1.3-2.8-1.9-4.7-1.9L192.6,243L192.6,243z M211.1,257.7H193v-7.8h18.1V257.7z"/>
			<polygon id="Shape_20_" class="st14" points="230.1,243 223,243 223,275 229.9,275 229.9,253.6 241,266.7 252,253.5 252,275 
				259,275 259,243 251.8,243 241,256 			"/>
			<polygon id="Shape_21_" class="st14" points="295,249.9 295,243 265,243 265,275 295,275 295,268.1 272.1,268.1 272.1,262.4 
				290.5,262.4 290.5,255.5 272.1,255.5 272.1,249.9 			"/>
			<polygon id="Shape_22_" class="st14" points="298,275 304.9,275 304.9,253.6 322.9,275 330,275 330,243 323,243 323,264.4 
				305.1,243 298,243 			"/>
			<polygon id="Shape_23_" class="st14" points="353.4,275 353.4,249.9 366,249.9 366,243 334,243 334,249.9 346.5,249.9 346.5,275 
							"/>
			<path id="Shape_24_" class="st14" d="M296.4,286.5c-6,17.9-14.7,34.4-28.2,47.8c-5.7,5.6-12,10.5-18.4,15.2
				c-8,5.9-16.2,11.3-24.5,16.6c-12.2,7.7-24.7,15.1-37.4,22.2l-3.1,1.7l-3.1-1.7c-12.7-7.1-25.1-14.4-37.4-22.2
				c-8.3-5.3-16.6-10.7-24.5-16.6c-6.4-4.7-12.8-9.6-18.4-15.2c-13.5-13.3-22.2-29.9-28.2-47.8c-0.4-1.2-0.8-2.3-1.2-3.5h-8l0,0H3
				l64.2,9.8c7,19.5,16.5,35.1,29,47.4c19.4,19.2,64,45.4,88.6,58.7c24.5-13.4,69.2-39.6,88.6-58.7c12.5-12.4,22-27.9,29-47.4
				L366,283h-68.5C297.2,284.1,296.8,285.3,296.4,286.5z"/>
			<path id="Shape_25_" class="st14" d="M106.1,329.9c5.5,5.4,11.6,10.1,17.7,14.6c7.8,5.8,16,11.2,24.2,16.4
				c12.1,7.7,24.5,15,37,22.1c12.5-7,24.9-14.3,37-22.1c8.2-5.2,16.3-10.6,24.2-16.4c6.1-4.5,12.3-9.2,17.7-14.6
				c12.6-12.6,20.9-28.3,26.6-45.4c0.2-0.5,0.3-1,0.5-1.5H79c0.2,0.5,0.3,1,0.5,1.5C85.2,301.6,93.4,317.3,106.1,329.9z
				 M227.2,315.3l3-9.4l3,9.4h9.9l-8,5.8l3.1,9.4l-8-5.8l-8,5.8l3.1-9.4l-8-5.8H227.2z M180.3,315.5l4.6-14.4l4.6,14.4l15.1-0.1
				l-12.2,8.9l4.7,14.4l-12.2-8.9l-12.2,8.9l4.7-14.4l-12.2-8.9L180.3,315.5z M136.2,315.3l3-9.4l3,9.4h9.9l-8,5.8l3.1,9.4l-8-5.8
				l-8,5.8l3.1-9.4l-8-5.8H136.2z"/>
			<path id="Shape_26_" class="st14" d="M131.6,89.2c0.3,0.6,0.9,0.5,0.9,0.5h2.7c0.7-0.1,1,0.6,1,0.6l0,0c0,0,2.3,5.5,7.4,12.5
				c0,0,0.4,0.5,0,1.1l-1.4,2.5c0,0-0.3,0.5-0.1,1c10.4,12,25.9,19.6,43,19.6c17.3,0,32.9-7.7,43.3-19.9c0-0.3-0.2-0.6-0.2-0.6
				l-1.4-2.5c-0.4-0.6,0-1.1,0-1.1c5.2-7,7.4-12.5,7.4-12.5l0,0c0,0,0.3-0.6,1-0.6h2.7c0,0,0.5,0.1,0.8-0.3c2.2-6,3.4-12.6,3.4-19.4
				c0-27.8-19.9-50.9-46.3-55.9c-0.4,0.1-0.6,0.5-0.6,0.5l-1.5,2.4c-0.3,0.6-0.9,0.5-0.9,0.5c-8.6-1-14.6-0.2-14.6-0.2l0,0
				c0,0-0.6,0.1-1-0.6l-1.4-2.4c0,0-0.2-0.4-0.6-0.5C148.4,18.6,128,41.9,128,70c0,6.8,1.2,13.3,3.4,19.3
				C131.5,89.3,131.6,89.2,131.6,89.2z M184.7,23.1c26.3-0.2,47.7,21.1,47.5,47.3c-0.2,25.5-21.1,46.3-46.6,46.5
				c-26.3,0.2-47.7-21.1-47.5-47.3C138.3,44.2,159.2,23.3,184.7,23.1z"/>
			<path id="Shape_27_" class="st14" d="M169.5,89c-9.2-12.5-10.9-27.9-3-38.9c10.4-14.6,33.7-16,52-3.1c2.4,1.7,4.6,3.5,6.5,5.4
				c-3.1-6.8-8.2-13.2-15.1-18c-18.1-12.7-41.6-10.7-52.4,4.6C146.8,54,152.2,76.2,169.5,89z"/>
			<path id="Shape_28_" class="st14" d="M177,46.1c15.4-1.2,29.3,5.6,34.6,18.1c6.9,16.6-4.2,37.1-24.8,45.7c-2.7,1.1-5.4,2-8.1,2.6
				c7.4,1,15.5,0.1,23.3-3.2c20.3-8.5,30.9-29.5,23.8-46.8C218.7,45.5,197,38.4,177,46.1z"/>
			<path id="Shape_29_" class="st14" d="M170.8,107.7c18.4,2.6,35.7-12.4,39.2-33.6c-6.9,13.8-19.9,22.4-33.4,20.5
				c-17.9-2.5-30-22.4-26.8-44.5c0.4-2.9,1-5.6,1.9-8.2c-4.7,5.9-8,13.3-9.2,21.6C139.4,85.4,152.1,105.2,170.8,107.7z"/>
			<ellipse id="Oval" class="st14" cx="184.5" cy="70.5" rx="5.5" ry="5.5"/>
			<path id="Shape_30_" class="st14" d="M59.4,202.7L59.4,202.7v-1.1v-9.3h-0.1v-0.2c0-21.7,2.9-43.8,8-64.8l0.7-2.8l2.6-1.3
				c15.5-7.7,32.3-13.8,49.6-18.2c1.1,1.9,2.2,3.9,3.5,5.7c-17.5,4.2-34.6,10.3-50.2,18.2c-5,20.5-7.8,42.3-7.8,63.4
				c0,3.5,0,7,0.1,10.6h237.4c0.1-3.6,0.1-7.1,0.1-10.6c0-21.1-2.8-42.8-7.8-63.3c-7.1-3.5-14.4-6.6-21.8-9.4
				c-9.3-3.5-18.8-6.4-28.4-8.8c1.2-1.9,2.4-3.7,3.5-5.7c9.2,2.4,18.3,5.2,27.3,8.5c7.6,2.8,15.1,6,22.4,9.6l2.6,1.3l0.7,2.9
				c5.1,21,8,43.1,8,64.8v0.3h-0.1v10.3v0.1v0.3H366l-48.9-9.2v-0.7c0-32.3-6.5-60.5-10.1-73.8c-6.2-3.3-16.2-8.4-29.5-13.3
				c-7.1-2.6-15.7-5.5-25.5-8.1c3.5-8.5,5.5-18,5.5-27.8c0-40.4-32.6-73.1-73-73.1c-40.3,0-73,32.7-73,73.1c0,9.8,1.9,19.2,5.5,27.8
				c-26.2,6.9-45.5,16.2-55,21.4c-3.6,13.2-10.1,41.4-10.1,73.8v0.7L3,202.9h56.5v-0.3h-0.1V202.7z M200.9,169.9
				c0.5,0.5,1.1,1.1,1.7,1.7l3.1,1.3h-2.1h-3.3h-7.9c-1-1.4-1.9-3.1-1.9-5.3c0-5.9,4.5-10.5,10.3-10.5c3.1,0,6.1,1.2,7.8,3.2
				l0.2,0.2l-4,5.5l-0.3-0.3c-1-1.2-2.4-1.9-3.8-1.9c-1.6,0-2.3,1.3-2.3,2.5C198.4,167.5,199.5,168.6,200.9,169.9z M184.2,172.9
				h-3.4h-2.1H167l3.4-15.4h7.4l-2.4,10.8l7-10.8h8.6l-10.2,14L184.2,172.9z M155.7,172.9h-3.5h-1.9h-5.8h-3.2h-2.2h-4.2l0.3-5.4
				l-2.1,5.4h-6.8l6.7-15.4h8.3l-0.1,14l3.2,1.3c1.3-7.1,5.2-15.8,13-15.8c2.8,0,5.1,1.1,6.5,3.1c1.5,2.1,1.8,4.7,1.9,6.6v0.3
				l-6.9,1.3V168c-0.1-3-0.6-4.3-1.8-4.3c-1.5,0-2.9,2.1-4.1,5.8c-0.2,0.6-0.4,1.3-0.6,2.1L155.7,172.9z M110.8,157.6h7.4l-3,13.9
				l3.3,1.3H115h-1.9h-5.6L110.8,157.6z M88.5,157.6h8.8c2.4,0,4.5,0.7,5.9,2.1c1.3,1.2,2,3,2,4.9c0,2.6-1.1,5.3-2.9,7l3.2,1.3H100
				l0,0H85.1L88.5,157.6z M90.8,191.2H78.9l3.4-15.4h13.8h1.1h4.4l-3.2,1.3c0.9,1.1,1.4,2.6,1.4,4.2
				C99.7,186.4,96.6,191.2,90.8,191.2z M101.2,191.2l3.4-15.4h4.9h2.5h2.9l-3.2,1.3l-1.6,7.4h7.3l-1.5,6.6L101.2,191.2L101.2,191.2z
				 M138.2,191.2h-7.4l0.3-4.9h-4.6l-1.8,4.9h-7.8l6.7-15.4h6.8l-1.5,3.9h2.9l0.3-3.9h4.1h2.2h3.1l-3.1,1.3L138.2,191.2z
				 M159.5,184.2c-2.3,5.1-5.4,7.6-9.6,7.6c-2.8,0-5.1-1-6.7-2.8c-1.5-1.8-2.3-4.4-2.3-7.5c0-1.5,0.2-3.5,0.6-5.5h5.2h2.5h2.9
				l-3.2,1.3c-0.3,1.7-0.4,3.3-0.4,4.3c0,3.1,1,3.5,1.7,3.5c1.1,0,2.2-1.2,3.3-3.4l0.1-0.3l6,2.5L159.5,184.2z M174.1,191.2
				l-2.1-10.3l-2.2,3.2l-1.5,7.1h-7.4l3.4-15.4h11.9h1.9h3.5l-3.2,1.3l3.7,14L174.1,191.2L174.1,191.2z M192.2,191.8
				c-3.6,0-7.1-1.5-8.8-3.7l-0.1-0.2l4.2-5.6l0.3,0.4c1,1.5,2.8,2.4,4.4,2.4c1.5,0,2.6-1.2,2.6-2.8c0-1.2-1.2-2.4-2.6-3.6
				c-0.8-0.8-1.8-1.7-2.6-2.8h9.8h1.4h4l-3.2,1.3c0.5,1.1,0.9,2.3,0.9,3.7C202.5,187.1,198.1,191.8,192.2,191.8z M248.3,183.9
				c-1.8,3.7-5.1,8-10.5,8c-2.9,0-5.2-1-6.8-3c-1.4-1.8-2.2-4.4-2.2-7.3c0-1.5,0.2-3.4,0.6-5.5l-3.5,1.3l-3.1,14h-7.4l2.8-12.5h-4.4
				l-2.8,12.5h-7.4L207,176h16.7h2.5h3.2h5.3h2.4h2.9l-3.3,1.3c-0.3,1.7-0.4,3.1-0.4,4.3c0,2.4,0.6,3.5,1.7,3.5
				c2.2,0,4.1-4.8,5.1-9.2h5.2h2.5h2.9l-3.2,1.3C250.1,179.4,249.4,181.7,248.3,183.9z M263.5,177.2l-3.1,14H253l3.4-15.4h5h2.4h8.5
				L263.5,177.2L263.5,177.2z M265.8,182.6l-0.4-3l3.8-0.6l4.1,9L265.8,182.6z M274,182.5l-1-2.2l2.9,1l4,4L274,182.5z M273.4,178.2
				l4.2-0.7l7,2.8l-8.3-1.1L273.4,178.2z M284.4,184.3l-4.9-2.7l6.7,1.6L284.4,184.3z M294.8,174.4c0,1.4-3.1,1.5-3.1,1.5h-7
				l-6.2-0.5l6.2-0.5l-9.8-0.5l9.8-0.5l-6.2-0.5l6.2-0.5h7C291.7,172.9,294.8,172.9,294.8,174.4z M279.6,168.8l4.2-0.4l-4.9,2.5
				l-2.8-0.4L279.6,168.8z M273.7,170l-4.2-0.7l9.7-4.4L273.7,170z M285.8,165.7l-6.5,1.4l5.4-3.3L285.8,165.7z M279.1,160.3
				l0.6,0.7l-5.3,4.1L279.1,160.3z M258.1,157.6h16.4l-1.5,6.6h-4.4l-1.6,7.4l0,0l8.7,1.3h-9h-1.9h-5.6l1.9-8.7h-4.4L258.1,157.6z
				 M252.1,160.1c1.4,1.8,2.2,4.4,2.2,7.4c0,1.1-0.1,2.5-0.3,4l0,0l3.3,1.3h-3.5h-1.9H246c0.4-2.1,0.7-4.1,0.7-5.5
				c0-1.7-0.3-3.7-1.7-3.7c-2,0-3.7,3.8-4.7,7.8l3.3,1.3H240h-1.9h-5.6h-0.2h-3.2H227h-17.2l3.4-15.4h7.4l-2.6,11.6h4.4l2.6-11.6
				h7.4l-3.1,14l2.9,1.2c0.5-2.5,1.3-5.2,2.5-7.8c1.8-3.7,5.1-8,10.5-8C248.2,157.1,250.6,158.2,252.1,160.1z M184.4,5.1
				c35.8,0,64.8,29,64.8,65c0,9.2-1.9,17.9-5.3,25.8c-1.1,2.4-2.2,4.8-3.6,7.1c-11.3,19.1-32.1,32-55.9,32s-44.6-12.9-55.9-32.1
				c-1-1.7-1.9-3.5-2.8-5.3l0,0c-0.3-0.6-0.6-1.2-0.8-1.8l0,0c-3.4-7.9-5.3-16.6-5.3-25.8C119.6,34.2,148.6,5.1,184.4,5.1z"/>
		</g>
	</g>
	<g id="side_a_week4">
		<g id="winner_x5F_match10" transform="translate(145.000000, 96.000000)">
			<path id="Rectangle-12_24_" class="st0" d="M1101,295h36c3.9,0,7,3.1,7,7v23c0,3.9-3.1,7-7,7h-36c-3.9,0-7-3.1-7-7v-23
				C1094,298.1,1097.1,295,1101,295z"/>
			<path id="Rectangle-12_25_" class="st1" d="M822,293h282c2.8,0,5,2.2,5,5v30c0,2.8-2.2,5-5,5H822c-2.8,0-5-2.2-5-5v-30
				C817,295.2,819.2,293,822,293z"/>
			<g id="icon_49_">
				<g id="Mask_23_">
					<path id="path-1_3_" class="st2" d="M820.8,292.7h35v40h-35l0,0c-2.8,0-5-2.2-5-5v-30l0,0C815.8,294.9,818,292.7,820.8,292.7z"
						/>
				</g>
			</g>
			<g>
				<text transform="matrix(1 0 0 1 1122.0002 321.0004)" class="st3 st4 st5">7</text>
			</g>
		</g>
		<g id="winner_x5F_match9" transform="translate(145.000000, 150.000000)">
			<path id="Rectangle-12_28_" class="st6" d="M1101,295h36c3.9,0,7,3.1,7,7v23c0,3.9-3.1,7-7,7h-36c-3.9,0-7-3.1-7-7v-23
				C1094,298.1,1097.1,295,1101,295z"/>
			<path id="Rectangle-12_29_" class="st1" d="M822,293h282c2.8,0,5,2.2,5,5v30c0,2.8-2.2,5-5,5H822c-2.8,0-5-2.2-5-5v-30
				C817,295.2,819.2,293,822,293z"/>
			<g id="icon_38_">
				<g id="Mask_3_">
					<path id="path-21_3_" class="st2" d="M821.5,293.5h35v40h-35l0,0c-2.8,0-5-2.2-5-5v-30l0,0
						C816.5,295.7,818.7,293.5,821.5,293.5z"/>
				</g>
			</g>
			<g>
				<text transform="matrix(1 0 0 1 1122.0002 321.0004)" class="st3 st4 st5">1</text>
			</g>
		</g>
		<text transform="matrix(1 0 0 1 1033 375)" class="st6 st7 st9">MATCH 13 - Saturday 02/12/17 19:00 CET</text>
	</g>
	<g id="side_a_week3">
		<g id="winner_x5F_match4" transform="translate(477.000000, 124.000000)">
			<path id="Rectangle-12_18_" class="st0" d="M287,435h36c3.9,0,7,3.1,7,7v23c0,3.9-3.1,7-7,7h-36c-3.9,0-7-3.1-7-7v-23
				C280,438.1,283.1,435,287,435z"/>
			<g>
				<text transform="matrix(1 0 0 1 308.0005 460.8107)" class="st3 st4 st5">7</text>
			</g>
			<path id="Rectangle-12_19_" class="st1" d="M8,433h282c2.8,0,5,2.2,5,5v30c0,2.8-2.2,5-5,5H8c-2.8,0-5-2.2-5-5v-30
				C3,435.2,5.2,433,8,433z"/>
			<g id="icon_35_">
				<g id="Mask_2_">
					<path id="path-21_2_" class="st2" d="M8,433h35v40H8l0,0c-2.8,0-5-2.2-5-5v-30l0,0C3,435.2,5.2,433,8,433z"/>
				</g>
			</g>
		</g>
		<g id="winner_x5F_match2" transform="translate(477.000000, 124.000000)">
			<path id="Rectangle-12_6_" class="st6" d="M287,180h36c3.9,0,7,3.1,7,7v23c0,3.9-3.1,7-7,7h-36c-3.9,0-7-3.1-7-7v-23
				C280,183.1,283.1,180,287,180z"/>
			<path id="Rectangle-12_7_" class="st1" d="M8,178h282c2.8,0,5,2.2,5,5v30c0,2.8-2.2,5-5,5H8c-2.8,0-5-2.2-5-5v-30
				C3,180.2,5.2,178,8,178z"/>
			<g id="icon_39_">
				<g id="Mask_8_">
					<path id="path-9_2_" class="st2" d="M8,178.5h35v40H8l0,0c-2.8,0-5-2.2-5-5v-30l0,0C3,180.7,5.2,178.5,8,178.5z"/>
				</g>
			</g>
			<g>
				<text transform="matrix(1 0 0 1 308.0005 206.667)" class="st3 st4 st5">0</text>
			</g>
		</g>
		<g id="winner_x5F_match1" transform="translate(477.000000, 70.000000)">
			<path id="Rectangle-12_4_" class="st0" d="M287,180h36c3.9,0,7,3.1,7,7v23c0,3.9-3.1,7-7,7h-36c-3.9,0-7-3.1-7-7v-23
				C280,183.1,283.1,180,287,180z"/>
			<g>
				<text transform="matrix(1 0 0 1 308.0002 205.0004)" class="st3 st4 st5">7</text>
			</g>
			<path id="Rectangle-12_5_" class="st1" d="M8,178h282c2.8,0,5,2.2,5,5v30c0,2.8-2.2,5-5,5H8c-2.8,0-5-2.2-5-5v-30
				C3,180.2,5.2,178,8,178z"/>
			<g id="icon_33_">
				<g id="Mask_32_">
					<path id="path-1_2_" class="st2" d="M7.7,177.8h35v40h-35l0,0c-2.8,0-5-2.2-5-5v-30l0,0C2.7,180,4.9,177.8,7.7,177.8z"/>
				</g>
			</g>
		</g>
		<g id="lines_1_">
			<rect id="Rectangle-16_8_" x="817" y="293" class="st6" width="110" height="2"/>
			<rect id="Rectangle-16_9_" x="927" y="436" class="st0" width="25" height="2"/>
			<rect id="Rectangle-16_10_" x="817" y="578" class="st0" width="110" height="2"/>
			<rect id="Rectangle-16_11_" x="925" y="293" class="st6" width="2" height="287"/>
			<rect id="Rectangle-16_27_" x="925" y="436" class="st0" width="2" height="144"/>
		</g>
		<g id="dates_1_">
			<text transform="matrix(1 0 0 1 550 236)" class="st6 st7 st9">MATCH 9 - Saturday 02/12/17 19:00 CET</text>
			<text transform="matrix(1 0 0 1 550 548)" class="st6 st7 st9">MATCH 10 - Saturday 02/12/17 20:00 CET</text>
		</g>
	</g>
	<g id="side_a_week1">
		<g id="clan1">
			<path id="Rectangle-12" class="st0" d="M287,180h36c3.9,0,7,3.1,7,7v23c0,3.9-3.1,7-7,7h-36c-3.9,0-7-3.1-7-7v-23
				C280,183.1,283.1,180,287,180z"/>
			<g>
				<text transform="matrix(1 0 0 1 306.3333 205)" class="st3 st4 st5">7</text>
			</g>
			<path id="Rectangle-12_1_" class="st1" d="M8,178h282c2.8,0,5,2.2,5,5v30c0,2.8-2.2,5-5,5H8c-2.8,0-5-2.2-5-5v-30
				C3,180.2,5.2,178,8,178z"/>
			<g id="icon">
				<g id="Mask">
					<path id="path-1_1_" class="st2" d="M8,178h35v40H8l0,0c-2.8,0-5-2.2-5-5v-30l0,0C3,180.2,5.2,178,8,178z"/>
				</g>
			</g>
		</g>
		<g id="clan2" transform="translate(0.000000, 54.000000)">
			<path id="Rectangle-12_2_" class="st6" d="M287,180h36c3.9,0,7,3.1,7,7v23c0,3.9-3.1,7-7,7h-36c-3.9,0-7-3.1-7-7v-23
				C280,183.1,283.1,180,287,180z"/>
			<path id="Rectangle-12_3_" class="st1" d="M8,178h282c2.8,0,5,2.2,5,5v30c0,2.8-2.2,5-5,5H8c-2.8,0-5-2.2-5-5v-30
				C3,180.2,5.2,178,8,178z"/>
			<g id="icon_1_">
				<g id="Mask_1_">
					<path id="path-3_1_" class="st2" d="M8,178h35v40H8l0,0c-2.8,0-5-2.2-5-5v-30l0,0C3,180.2,5.2,178,8,178z"/>
				</g>
			</g>
			<g>
				<text transform="matrix(1 0 0 1 305.0002 205.3333)" class="st3 st4 st5">0</text>
			</g>
		</g>
		<g id="clan3" transform="translate(0.000000, 140.000000)">
			<path id="Rectangle-12_8_" class="st0" d="M287,180h36c3.9,0,7,3.1,7,7v23c0,3.9-3.1,7-7,7h-36c-3.9,0-7-3.1-7-7v-23
				C280,183.1,283.1,180,287,180z"/>
			<path id="Rectangle-12_9_" class="st1" d="M8,178h282c2.8,0,5,2.2,5,5v30c0,2.8-2.2,5-5,5H8c-2.8,0-5-2.2-5-5v-30
				C3,180.2,5.2,178,8,178z"/>
			<g id="icon_5_">
				<g id="Mask_4_">
					<path id="path-9_1_" class="st2" d="M8,178h35v40H8l0,0c-2.8,0-5-2.2-5-5v-30l0,0C3,180.2,5.2,178,8,178z"/>
				</g>
			</g>
			<g>
				<text transform="matrix(1 0 0 1 306.3333 206)" class="st3 st4 st5">7</text>
			</g>
		</g>
		<g id="clan4" transform="translate(0.000000, 194.000000)">
			<path id="Rectangle-12_10_" class="st6" d="M287,180h36c3.9,0,7,3.1,7,7v23c0,3.9-3.1,7-7,7h-36c-3.9,0-7-3.1-7-7v-23
				C280,183.1,283.1,180,287,180z"/>
			<g>
				<text transform="matrix(1 0 0 1 304.6667 205.9998)" class="st3 st4 st5">0</text>
			</g>
			<path id="Rectangle-12_11_" class="st1" d="M8,178h282c2.8,0,5,2.2,5,5v30c0,2.8-2.2,5-5,5H8c-2.8,0-5-2.2-5-5v-30
				C3,180.2,5.2,178,8,178z"/>
			<g id="icon_6_">
				<g id="Mask_5_">
					<path id="path-11_1_" class="st2" d="M8,178h35v40H8l0,0c-2.8,0-5-2.2-5-5v-30l0,0C3,180.2,5.2,178,8,178z"/>
				</g>
			</g>
		</g>
		<g id="clan5">
			<path id="Rectangle-12_12_" class="st6" d="M287,463h36c3.9,0,7,3.1,7,7v23c0,3.9-3.1,7-7,7h-36c-3.9,0-7-3.1-7-7v-23
				C280,466.1,283.1,463,287,463z"/>
			<path id="Rectangle-12_13_" class="st1" d="M8,461h282c2.8,0,5,2.2,5,5v30c0,2.8-2.2,5-5,5H8c-2.8,0-5-2.2-5-5v-30
				C3,463.2,5.2,461,8,461z"/>
			<g id="icon_8_">
				<g id="Mask_6_">
					<path id="path-13_1_" class="st2" d="M8,461h35v40H8l0,0c-2.8,0-5-2.2-5-5v-30l0,0C3,463.2,5.2,461,8,461z"/>
				</g>
			</g>
			<g>
				<text transform="matrix(1 0 0 1 306.333 489.6667)" class="st3 st4 st5">0</text>
			</g>
		</g>
		<g id="icon_10_" transform="translate(0.000000, 54.000000)">
			<path id="Rectangle-12_14_" class="st6" d="M287,463h36c3.9,0,7,3.1,7,7v23c0,3.9-3.1,7-7,7h-36c-3.9,0-7-3.1-7-7v-23
				C280,466.1,283.1,463,287,463z"/>
			<g>
				<text transform="matrix(1 0 0 1 304.6667 488.9998)" class="st3 st4 st5">0</text>
			</g>
			<path id="Rectangle-12_15_" class="st1" d="M8,461h282c2.8,0,5,2.2,5,5v30c0,2.8-2.2,5-5,5H8c-2.8,0-5-2.2-5-5v-30
				C3,463.2,5.2,461,8,461z"/>
			<g id="icon_12_">
				<g id="Mask_7_">
					<path id="path-15_1_" class="st2" d="M8,461h35v40H8l0,0c-2.8,0-5-2.2-5-5v-30l0,0C3,463.2,5.2,461,8,461z"/>
				</g>
			</g>
		</g>
		<g id="clan7" transform="translate(0.000000, 140.000000)">
			<path id="Rectangle-12_20_" class="st0" d="M287,463h36c3.9,0,7,3.1,7,7v23c0,3.9-3.1,7-7,7h-36c-3.9,0-7-3.1-7-7v-23
				C280,466.1,283.1,463,287,463z"/>
			<path id="Rectangle-12_21_" class="st1" d="M8,461h282c2.8,0,5,2.2,5,5v30c0,2.8-2.2,5-5,5H8c-2.8,0-5-2.2-5-5v-30
				C3,463.2,5.2,461,8,461z"/>
			<g id="icon_14_">
				<g id="Mask_10_">
					<path id="path-21_1_" class="st2" d="M8,461h35v40H8l0,0c-2.8,0-5-2.2-5-5v-30l0,0C3,463.2,5.2,461,8,461z"/>
				</g>
			</g>
			<g>
				<text transform="matrix(1 0 0 1 305 489)" class="st3 st4 st5">7</text>
			</g>
		</g>
		<g id="clan8" transform="translate(0.000000, 194.000000)">
			<path id="Rectangle-12_22_" class="st6" d="M287,463h36c3.9,0,7,3.1,7,7v23c0,3.9-3.1,7-7,7h-36c-3.9,0-7-3.1-7-7v-23
				C280,466.1,283.1,463,287,463z"/>
			<g>
				<text transform="matrix(1 0 0 1 304.6667 489.0007)" class="st3 st4 st5">0</text>
			</g>
			<path id="Rectangle-12_23_" class="st1" d="M8,461h282c2.8,0,5,2.2,5,5v30c0,2.8-2.2,5-5,5H8c-2.8,0-5-2.2-5-5v-30
				C3,463.2,5.2,461,8,461z"/>
			<g id="icon_15_">
				<g id="Mask_11_">
					<path id="path-23_1_" class="st2" d="M8,461h35v40H8l0,0c-2.8,0-5-2.2-5-5v-30l0,0C3,463.2,5.2,461,8,461z"/>
				</g>
			</g>
		</g>
		<g id="Lines">
			<rect id="Rectangle-16" x="335" y="223" class="st0" width="110" height="2"/>
			<rect id="Rectangle-16_1_" x="445" y="294" class="st0" width="25" height="2"/>
			<rect id="Rectangle-16_2_" x="335" y="365" class="st0" width="110" height="2"/>
			<rect id="Rectangle-16_3_" x="443" y="223" class="st0" width="2" height="144"/>
			<rect id="Rectangle-16_4_" x="335" y="506" class="st6" width="110" height="2"/>
			<rect id="Rectangle-16_5_" x="445" y="577" class="st0" width="25" height="2"/>
			<rect id="Rectangle-16_6_" x="335" y="648" class="st0" width="110" height="2"/>
			<rect id="Rectangle-16_7_" x="443" y="506" class="st0" width="2" height="144"/>
			<rect id="Rectangle-16_26_" x="443" y="506" class="st6" width="2" height="71"/>
		</g>
		<g id="dates">
		</g>
	</g>
	<g id="text_week">
		<text transform="matrix(1 0 0 1 3368.1396 127)" class="st6 st11 st12">WEEK 2</text>
		<text transform="matrix(1 0 0 1 2891.1396 127)" class="st6 st11 st12">WEEK 3</text>
		<text transform="matrix(1 0 0 1 2409.1396 127)" class="st6 st11 st12">WEEK 4</text>
		<text transform="matrix(1 0 0 1 1054.1396 127)" class="st6 st11 st12">WEEK 4</text>
		<text transform="matrix(1 0 0 1 586.1396 127)" class="st6 st11 st12">WEEK 3</text>
		<text transform="matrix(1 0 0 1 97.1396 127)" class="st6 st11 st12">WEEK 1</text>
	</g>
	<g id="text_side">
		<text transform="matrix(1 0 0 1 3.0898 42)" class="st0 st7 st15">SIDE A</text>
		<text transform="matrix(1 0 0 1 3442.4219 42)" class="st0 st7 st15">SIDE B</text>
	</g>
	<g>
		<text transform="matrix(1 0 0 1 2295.0002 417.0004)" class="st3 st4 st5">7</text>
	</g>
	<g>
		<text transform="matrix(1 0 0 1 2294.0005 471.0008)" class="st3 st4 st5">5</text>
	</g>
</g>
<g id="week1_dates">
	<text transform="matrix(1 0 0 1 64.8311 156.3779)" class="st6 st7 st9">MATCH 1 - Saturday 18/11/17 19:00 CET</text>
	<text transform="matrix(1 0 0 1 115.4312 169.5779)" class="st6 st7 st9">Map Broken City I</text>
	<text transform="matrix(1 0 0 1 64.8311 295)" class="st6 st7 st9">MATCH 2 - Saturday 18/11/17 20:00 CET</text>
	<text transform="matrix(1 0 0 1 115.4312 308.2)" class="st6 st7 st9">Map Broken City I</text>
	<text transform="matrix(1 0 0 1 68.1025 441)" class="st6 st7 st9">MATCH 3 - Sunday 19/11/17 19:00 CET</text>
	<text transform="matrix(1 0 0 1 115.4025 454.2)" class="st6 st7 st9">Map Broken City I</text>
	<text transform="matrix(1 0 0 1 68.1025 582)" class="st6 st7 st9">MATCH 4 - Sunday 19/11/17 20:00 CET</text>
	<text transform="matrix(1 0 0 1 115.4025 595.2)" class="st6 st7 st9">Map Broken City I</text>
</g>
<g id="week2_dates">
	<text transform="matrix(1 0 0 1 3329.3311 158.189)" class="st6 st7 st9">MATCH 5 - Saturday 25/11/17 19:00 CET</text>
	<text transform="matrix(1 0 0 1 3379.9312 171.389)" class="st6 st7 st9">Map Broken City I</text>
	<text transform="matrix(1 0 0 1 3329.3311 296.811)" class="st6 st7 st9">MATCH 6 - Saturday 25/11/17 20:00 CET</text>
	<text transform="matrix(1 0 0 1 3379.9312 310.011)" class="st6 st7 st9">Map Broken City I</text>
	<text transform="matrix(1 0 0 1 3332.6025 442.811)" class="st6 st7 st9">MATCH 7 - Sunday 26/11/17 19:00 CET</text>
	<text transform="matrix(1 0 0 1 3379.9026 456.011)" class="st6 st7 st9">Map Broken City I</text>
	<text transform="matrix(1 0 0 1 3332.6025 583.811)" class="st6 st7 st9">MATCH 8 - Sunday 26/11/17 20:00 CET</text>
	<text transform="matrix(1 0 0 1 3379.9026 597.011)" class="st6 st7 st9">Map Broken City I</text>
</g>
<g id="week2_teams">
	<text transform="matrix(1 0 0 1 3439 203)" class="st6 st4 st5">Purgatory</text>
	<text transform="matrix(1 0 0 1 3420 257)" class="st6 st4 st5">__BulletSure</text>
	<text transform="matrix(1 0 0 1 3404 343)" class="st6 st4 st5">vTeamClouD__</text>
	<text transform="matrix(1 0 0 1 3420 397)" class="st6 st4 st5">__ahqSportS</text>
	<text transform="matrix(1 0 0 1 3398 486)" class="st6 st4 st5">NoCompromise</text>
	<g>
		<text transform="matrix(1 0 0 1 3287.9998 343.0002)" class="st16 st4 st5">DQ</text>
	</g>
	<text transform="matrix(1 0 0 1 3422 540)" class="st6 st4 st5">_AscensioN</text>
	<text transform="matrix(1 0 0 1 3420 626)" class="st6 st4 st5">WantedLatin</text>
	<text transform="matrix(1 0 0 1 3412 680)" class="st6 st4 st5">lUnstoppable</text>
	<g>
		<text transform="matrix(1 0 0 1 3287.9998 257.0002)" class="st16 st4 st5">DQ</text>
	</g>
	<g>
		<text transform="matrix(1 0 0 1 3287.9998 486.0002)" class="st16 st4 st5">DQ</text>
	</g>
</g>
<g id="week3_teams">
	<text transform="matrix(1 0 0 1 2921.6667 610)" class="st6 st4 st5">lUnstoppable</text>
	<text transform="matrix(1 0 0 1 2933 556)" class="st6 st4 st5">_AscensioN</text>
	<text transform="matrix(1 0 0 1 2928.5 327)" class="st6 st4 st5">__ahqSportS</text>
	<text transform="matrix(1 0 0 1 2953 273)" class="st6 st4 st5">Purgatory</text>
	<g>
		<text transform="matrix(1 0 0 1 2806.9998 555.9996)" class="st16 st4 st5">DQ</text>
	</g>
</g>
<g id="week4_teams">
	<text transform="matrix(1 0 0 1 2448.3335 468)" class="st6 st4 st5">lUnstoppable</text>
	<text transform="matrix(1 0 0 1 2452.3335 414)" class="st6 st4 st5">__ahqSportS</text>
</g>
<g id="final_teams">
	<text transform="matrix(1 0 0 1 1972 646)" class="st6 st4 st5">lUnstoppable</text>
	<text transform="matrix(1 0 0 1 1496 646)" class="st6 st4 st5">SolarEclipse</text>
	<text transform="matrix(1 0 0 1 1978 442)" class="st6 st4 st5">__ahqSportS</text>
	<text transform="matrix(1 0 0 1 1496 442)" class="st6 st4 st5">TeamWize_1</text>
</g>
<g id="week4_left_teams">
	<text transform="matrix(1 0 0 1 1016 414)" class="st6 st4 st5">TeamWize_ 1</text>
	<text transform="matrix(1 0 0 1 1016 468)" class="st6 st4 st5">SolarEclipse</text>
</g>
<g id="week3_teams_1_">
	<text transform="matrix(1 0 0 1 534 583.811)" class="st6 st4 st5">SolarEclipse</text>
	<text transform="matrix(1 0 0 1 534 327)" class="st6 st4 st5">Necromancy</text>
	<text transform="matrix(1 0 0 1 534 273)" class="st6 st4 st5">TeamWize_ 1</text>
	<g>
		<text transform="matrix(1 0 0 1 733.3334 329.6666)" class="st16 st4 st5">DQ</text>
	</g>
</g>
<g id="week1_teams">
	<text transform="matrix(1 0 0 1 57 203)" class="st6 st4 st5">TeamWize_ 1</text>
	<text transform="matrix(1 0 0 1 57 257)" class="st6 st4 st5">Miracle</text>
	<text transform="matrix(1 0 0 1 57 343)" class="st6 st4 st5">Necromancy</text>
	<text transform="matrix(1 0 0 1 57 397)" class="st6 st4 st5">TheGodS</text>
	<text transform="matrix(1 0 0 1 57 486)" class="st6 st4 st5">Miss_Kebab</text>
	<text transform="matrix(1 0 0 1 57 540)" class="st6 st4 st5">lvegood</text>
	<text transform="matrix(1 0 0 1 57 626)" class="st6 st4 st5">SolarEclipse</text>
	<text transform="matrix(1 0 0 1 57 680)" class="st6 st4 st5">SingularitY</text>
	<g>
		<text transform="matrix(1 0 0 1 255.6667 257.0002)" class="st16 st4 st5">DQ</text>
	</g>
	<g>
		<text transform="matrix(1 0 0 1 255.6667 397.0002)" class="st16 st4 st5">DQ</text>
	</g>
	<g>
		<text transform="matrix(1 0 0 1 255.667 540.0002)" class="st16 st4 st5">DQ</text>
	</g>
	<g>
		<text transform="matrix(1 0 0 1 255.667 486.0002)" class="st16 st4 st5">DQ</text>
	</g>
	<g>
		<text transform="matrix(1 0 0 1 255.6667 680.0002)" class="st16 st4 st5">DQ</text>
	</g>
</g>
<g id="레이어_2">
	
		<image style="overflow:visible;enable-background:new    ;" width="40" height="40" xlink:href="clan10.png"  transform="matrix(0.875 0 0 0.875 3526 234)">
	</image>
	
		<image style="overflow:visible;enable-background:new    ;" width="40" height="40" xlink:href="clan5.png"  transform="matrix(1 0 0 1 0 460.5)">
	</image>
	
		<image style="overflow:visible;enable-background:new    ;" width="40" height="40" xlink:href="clan3.png"  transform="matrix(0.925 0 0 0.925 2 318)">
	</image>
	
		<image style="overflow:visible;enable-background:new    ;" width="40" height="40" xlink:href="clan8.png"  transform="matrix(0.875 0 0 0.875 2 657)">
	</image>
	
		<image style="overflow:visible;enable-background:new    ;" width="40" height="40" xlink:href="clan4.png"  transform="matrix(0.925 0 0 0.925 2 373)">
	</image>
	
		<image style="overflow:visible;enable-background:new    ;" width="40" height="40" xlink:href="clan12.png"  transform="matrix(0.875 0 0 0.875 3526 372)">
	</image>
	
		<image style="overflow:visible;enable-background:new    ;" width="40" height="40" xlink:href="clan9.png"  transform="matrix(0.875 0 0 0.875 3527 181)">
	</image>
	
		<image style="overflow:visible;enable-background:new    ;" width="40" height="40" xlink:href="clan13.png"  transform="matrix(0.875 0 0 0.875 3526 463.5)">
	</image>
	
		<image style="overflow:visible;enable-background:new    ;" width="40" height="40" xlink:href="clan2.png"  transform="matrix(0.8 0 0 0.8 4 234)">
	</image>
	
		<image style="overflow:visible;enable-background:new    ;" width="40" height="40" xlink:href="clan1.png"  transform="matrix(0.9 0 0 0.9 2 180)">
	</image>
	
		<image style="overflow:visible;enable-background:new    ;" width="40" height="40" xlink:href="clan15.png"  transform="matrix(0.875 0 0 0.875 3527 603)">
	</image>
	
		<image style="overflow:visible;enable-background:new    ;" width="40" height="40" xlink:href="clan14.png"  transform="matrix(0.875 0 0 0.875 3526 517)">
	</image>
	
		<image style="overflow:visible;enable-background:new    ;" width="40" height="40" xlink:href="clan16.png"  transform="matrix(0.875 0 0 0.875 3527 657)">
	</image>
	
		<image style="overflow:visible;enable-background:new    ;" width="40" height="40" xlink:href="clan7.png"  transform="matrix(1 0 0 1 0 600.5)">
	</image>
	
		<image style="overflow:visible;enable-background:new    ;" width="40" height="40" xlink:href="clan11.png"  transform="matrix(0.875 0 0 0.875 3526 320)">
	</image>
	
		<image style="overflow:visible;enable-background:new    ;" width="40" height="40" xlink:href="clan6.png"  transform="matrix(1 0 0 1 1 514.5)">
	</image>
	
		<image style="overflow:visible;enable-background:new    ;" width="40" height="40" xlink:href="clan1.png"  transform="matrix(1 0 0 1 476.7 246.8)">
	</image>
	
		<image style="overflow:visible;enable-background:new    ;" width="40" height="40" xlink:href="clan3.png"  transform="matrix(1 0 0 1 477 301.5)">
	</image>
	
		<image style="overflow:visible;enable-background:new    ;" width="40" height="40" xlink:href="clan7.png"  transform="matrix(1 0 0 1 477 556)">
	</image>
	
		<image style="overflow:visible;enable-background:new    ;" width="40" height="40" xlink:href="clan1.png"  transform="matrix(1 0 0 1 957.8 387.7)">
	</image>
	
		<image style="overflow:visible;enable-background:new    ;" width="40" height="40" xlink:href="clan7.png"  transform="matrix(1 0 0 1 957.8 442)">
	</image>
	
		<image style="overflow:visible;enable-background:new    ;" width="40" height="40" xlink:href="clan9.png"  transform="matrix(0.8725 0 0 0.8725 3049.1001 249.1001)">
	</image>
	
		<image style="overflow:visible;enable-background:new    ;" width="40" height="40" xlink:href="clan12.png"  transform="matrix(0.955 0 0 0.955 3046.8 300.8)">
	</image>
	
		<image style="overflow:visible;enable-background:new    ;" width="40" height="40" xlink:href="clan14.png"  transform="matrix(0.905 0 0 0.905 3048.8 531.6)">
	</image>
	
		<image style="overflow:visible;enable-background:new    ;" width="40" height="40" xlink:href="clan15.png"  transform="matrix(0.825 0 0 0.825 3049.8 588)">
	</image>
	
		<image style="overflow:visible;enable-background:new    ;" width="40" height="40" xlink:href="clan12.png"  transform="matrix(0.8875 0 0 0.8875 2566.5 390.5)">
	</image>
	
		<image style="overflow:visible;enable-background:new    ;" width="40" height="40" xlink:href="clan15.png"  transform="matrix(0.8625 0 0 0.8625 2569.5 444.4)">
	</image>
	
		<image style="overflow:visible;enable-background:new    ;" width="40" height="40" xlink:href="clan1.png"  transform="matrix(1 0 0 1 1439 415)">
	</image>
	
		<image style="overflow:visible;enable-background:new    ;" width="40" height="40" xlink:href="clan7.png"  transform="matrix(1 0 0 1 1439 620)">
	</image>
	
		<image style="overflow:visible;enable-background:new    ;" width="40" height="40" xlink:href="clan15.png"  transform="matrix(0.8625 0 0 0.8625 2086.75 623.25)">
	</image>
	
		<image style="overflow:visible;enable-background:new    ;" width="40" height="40" xlink:href="clan12.png"  transform="matrix(0.8875 0 0 0.8875 2086.25 418.25)">
	</image>
</g>
</svg>
